<svg width="40" height="40" viewBox="0 0 40 40" fill="none" xmlns="http://www.w3.org/2000/svg">
<rect width="40" height="40" rx="20" fill="#D56FAC" fill-opacity="0.1"/>
<path d="M20 11C14.48 11 10 15.48 10 21C10 26.52 14.48 31 20 31C25.52 31 30 26.52 30 21C30 15.48 25.52 11 20 11ZM20 14C21.66 14 23 15.34 23 17C23 18.66 21.66 20 20 20C18.34 20 17 18.66 17 17C17 15.34 18.34 14 20 14ZM20 28.2C17.5 28.2 15.29 26.92 14 24.98C14.03 22.99 18 21.9 20 21.9C21.99 21.9 25.97 22.99 26 24.98C24.71 26.92 22.5 28.2 20 28.2Z" fill="#D56FAC"/>
</svg>
