<svg width="30" height="31" viewBox="0 0 30 31" fill="none" xmlns="http://www.w3.org/2000/svg">
<rect opacity="0.1" x="5.98926" y="7.18555" width="22.6463" height="14.556" rx="1" fill="#6D6DA7"/>
<path d="M1.63867 7.58203H3.96014V24.2591H1.63867V7.58203Z" fill="#D6D6E6"/>
<path d="M2.86136 22.2079H24.2052V24.2593H2.86136V22.2079Z" fill="#D6D6E6"/>
<ellipse cx="15.3427" cy="11.1308" rx="1.59955" ry="1.59955" fill="#BCBCD6"/>
<path d="M15.4463 13.3099C15.9253 13.3099 16.3935 13.1679 16.7918 12.9018C17.19 12.6357 17.5004 12.2575 17.6837 11.815C17.867 11.3725 17.915 10.8855 17.8216 10.4158C17.7281 9.946 17.4975 9.51449 17.1588 9.1758C16.8201 8.83712 16.3886 8.60648 15.9188 8.51304C15.4491 8.4196 14.9621 8.46756 14.5196 8.65086C14.0771 8.83416 13.6989 9.14457 13.4328 9.54282C13.1667 9.94108 13.0247 10.4093 13.0247 10.8883C13.0255 11.5303 13.2808 12.1458 13.7348 12.5998C14.1888 13.0538 14.8043 13.3091 15.4463 13.3099ZM15.4463 9.61162C15.6988 9.61161 15.9457 9.68647 16.1556 9.82674C16.3656 9.96701 16.5292 10.1664 16.6259 10.3997C16.7225 10.6329 16.7478 10.8896 16.6985 11.1373C16.6493 11.3849 16.5277 11.6124 16.3492 11.791C16.1706 11.9695 15.9431 12.0911 15.6955 12.1404C15.4479 12.1896 15.1912 12.1644 14.9579 12.0677C14.7246 11.9711 14.5252 11.8075 14.3849 11.5975C14.2446 11.3876 14.1698 11.1408 14.1698 10.8883C14.1702 10.5498 14.3048 10.2253 14.5441 9.986C14.7834 9.74668 15.1079 9.61204 15.4463 9.61162Z" fill="#6D6DA7"/>
<path fill-rule="evenodd" clip-rule="evenodd" d="M1.3633 24.3643C1.36271 24.437 1.37631 24.5097 1.4035 24.5777C1.4307 24.6451 1.47031 24.7066 1.52116 24.7581C1.54244 24.7793 1.56432 24.7988 1.58797 24.8154C1.62167 24.8408 1.65892 24.8615 1.69912 24.8775C1.76002 24.9017 1.82446 24.9153 1.89009 24.9165C1.896 24.9165 1.90132 24.9165 1.90723 24.9165H24.7536C25.0593 24.9165 25.3371 24.6771 25.3371 24.3643V22.5829H27.0204C27.0901 22.5871 27.1599 22.5752 27.2255 22.5504C27.2646 22.5344 27.3024 22.5143 27.3373 22.4901C27.3597 22.4741 27.381 22.4558 27.4005 22.4357C27.4514 22.386 27.4904 22.3263 27.517 22.2601C27.5294 22.2288 27.5389 22.1962 27.5454 22.1631C27.5525 22.1265 27.5554 22.0892 27.5548 22.0514V5.3769C27.5554 5.34261 27.5537 5.30891 27.5478 5.2758C27.5413 5.23855 27.5312 5.2019 27.5176 5.16642C27.491 5.09961 27.452 5.03872 27.4017 4.98787C27.3852 4.97073 27.3674 4.95476 27.3485 4.94057C27.329 4.92579 27.3083 4.91219 27.287 4.89978C27.2675 4.88914 27.2474 4.87968 27.2261 4.87081C27.1605 4.84479 27.0907 4.83238 27.0204 4.83415H4.17401C4.10425 4.83238 4.03448 4.84538 3.96945 4.8714C3.905 4.8986 3.84529 4.9388 3.79622 4.98964C3.74774 5.04049 3.70931 5.1008 3.68388 5.16761C3.65846 5.23441 3.64723 5.30536 3.65018 5.3769V7.09738H1.90723C1.60157 7.09738 1.3633 7.37763 1.3633 7.69039V24.3643ZM26.4457 5.96636V15.9221L20.5127 11.6256C20.4069 11.5488 20.2786 11.5121 20.1497 11.5233C20.0214 11.5334 19.8996 11.5907 19.8085 11.683L15.2898 16.2183L10.0408 12.0815C9.96217 12.0407 9.87407 12.0217 9.78598 12.0247C9.6973 12.0277 9.61157 12.0543 9.53589 12.1004L4.75874 16.4654V5.96636H26.4457ZM4.75874 21.4519V17.7738L9.83683 13.2302L14.4603 17.0425L10.0408 21.4519H4.75874ZM24.2292 23.7855H2.47245V8.229H3.65018V22.0514C3.64723 22.1223 3.65905 22.1933 3.68447 22.2589C3.69571 22.2879 3.7099 22.3163 3.72527 22.3423C3.74596 22.376 3.76961 22.4067 3.7974 22.4351C3.84647 22.4848 3.90619 22.5238 3.97063 22.5498C4.03567 22.5746 4.10425 22.5865 4.17401 22.5829H24.2292V23.7855ZM11.6223 21.4519L20.2496 12.8045L26.4457 17.3085V21.4519H11.6223Z" fill="#6D6DA7"/>
</svg>
