<svg width="138" height="158" viewBox="0 0 138 158" fill="none" xmlns="http://www.w3.org/2000/svg">
<path d="M101.398 30.5623C104.839 26.6045 108.005 22.3754 110.834 18.0326C114.59 12.2748 117.88 6.21872 120.802 0C126.254 2.55906 131.702 5.11809 137.154 7.67173C131.544 19.6375 124.65 31.202 116.162 41.2919C116.552 41.6768 116.937 42.0618 117.311 42.4576C123.143 48.557 127.615 55.7408 130.721 63.9981C133.826 72.2608 135.376 81.0873 135.376 90.4832C135.376 99.8791 133.826 108.689 130.721 116.909C127.615 125.133 123.143 132.274 117.311 138.335C111.479 144.397 104.373 149.19 96.0045 152.714C87.6358 156.238 78.183 158 67.6516 158C57.1202 158 47.6946 156.26 39.3584 152.773C31.0276 149.287 23.9651 144.494 18.1655 138.395C12.3713 132.296 7.91602 125.15 4.81569 116.968C1.70994 108.782 0.154297 99.955 0.154297 90.4832C0.154297 81.0114 1.70994 72.1415 4.81569 63.8842C7.91602 55.6269 12.3713 48.4432 18.1655 42.3437C23.9651 36.2443 31.0439 31.4515 39.418 27.9653C47.7868 24.4791 57.2015 22.7387 67.6516 22.7387C78.183 22.7387 87.6358 24.5008 96.0045 28.0249C97.8636 28.8056 99.6631 29.6515 101.398 30.5623ZM103.132 54.4071C96.812 59.7366 89.8038 64.2692 82.0367 67.7445C68.2749 73.8982 52.2366 76.5006 38.1063 70.7969C33.7756 69.0511 29.7864 66.2264 26.827 62.6644C25.5966 64.9794 24.5288 67.4354 23.6182 70.0216C21.3851 76.3867 20.2686 83.2072 20.2686 90.4832C20.2686 97.6833 21.3851 104.428 23.6182 110.717C25.8567 117.006 29.0546 122.52 33.2227 127.253C37.3908 131.992 42.3666 135.722 48.1661 138.449C53.9603 141.176 60.4536 142.543 67.6516 142.543C74.8496 142.543 81.3864 141.176 87.2564 138.449C93.1264 135.722 98.1238 131.992 102.254 127.253C106.384 122.52 109.566 117.006 111.799 110.717C114.037 104.428 115.154 97.6833 115.154 90.4832C115.154 83.2072 114.037 76.3867 111.799 70.0216C109.728 64.1173 106.834 58.9125 103.132 54.4071ZM88.5463 42.8479C88.1181 42.6365 87.69 42.4304 87.2564 42.2298C81.3864 39.5406 74.8496 38.1961 67.6516 38.1961C60.4536 38.1961 53.9603 39.5406 48.1661 42.2298C45.7108 43.3684 43.4072 44.6913 41.2446 46.1986C39.9763 47.8576 39.2608 49.6685 40.4587 51.1378C43.8788 55.3396 50.8817 56.0715 57.1636 55.7245C68.508 55.0902 79.1586 50.1672 88.5463 42.8479Z" fill="#DEE2E6"/>
<path fill-rule="evenodd" clip-rule="evenodd" d="M52.5572 123.312L52.1545 124.256L53.0398 124.776L56.5886 126.859L57.7325 127.53L58.253 126.311L58.6721 125.328C60.3365 121.42 63.6454 118.992 67.308 118.992C70.9706 118.992 74.2796 121.42 75.944 125.327L76.363 126.31L76.883 127.531L78.0274 126.859L81.5756 124.776L82.4609 124.256L82.0588 123.312L81.6398 122.329C78.9279 115.958 73.4357 112 67.308 112C61.1809 112 55.6893 115.958 52.9762 122.33L52.5572 123.312Z" fill="#DEE2E6"/>
<path fill-rule="evenodd" clip-rule="evenodd" d="M44.6548 83C38.8554 83 34.1543 87.702 34.1543 93.5C34.1543 99.2992 38.8554 104 44.6548 104C50.4532 104 55.1543 99.2992 55.1543 93.5C55.1543 87.702 50.4532 83 44.6548 83Z" fill="#DEE2E6"/>
<path fill-rule="evenodd" clip-rule="evenodd" d="M92.6548 83C86.8554 83 82.1543 87.702 82.1543 93.5C82.1543 99.2992 86.8554 104 92.6548 104C98.4532 104 103.154 99.2992 103.154 93.5C103.154 87.702 98.4532 83 92.6548 83Z" fill="#DEE2E6"/>
</svg>
