<svg width="50" height="50" viewBox="0 0 50 50" fill="none" xmlns="http://www.w3.org/2000/svg">
<path d="M25 7C15.0611 7 7 15.0611 7 25C7 28.1145 7.79008 31.0458 9.18702 33.5992L7 43L16.4008 40.813C18.9542 42.2099 21.8855 43 25 43C34.9389 43 43 34.9389 43 25C43 15.0611 34.9389 7 25 7Z" fill="#F9BA48"/>
<path d="M25.9506 29.0765H22.5956V27.2673C22.5956 26.4772 22.6872 25.8818 22.8819 25.504C23.0651 25.1147 23.4773 24.6108 24.1185 23.9811L26.2826 21.8169C26.7406 21.3246 26.9697 20.7063 26.9697 19.9734C26.9697 19.2406 26.7292 18.6337 26.2597 18.1528C25.7788 17.6719 25.1719 17.42 24.4162 17.42C23.6605 17.42 23.0422 17.649 22.5269 18.1185C22.0231 18.5879 21.7254 19.2063 21.6452 19.9734H18.0498C18.2445 18.2101 18.9315 16.836 20.1109 15.8398C21.2903 14.8437 22.7559 14.3398 24.5193 14.3398C26.2826 14.3398 27.7139 14.8208 28.8246 15.7826C29.9353 16.7444 30.4849 18.0841 30.4849 19.8017C30.4849 20.9925 30.1643 21.9772 29.5116 22.7673C29.1338 23.2368 28.8475 23.5803 28.6529 23.775C28.4582 23.9696 28.1948 24.2215 27.8628 24.5307C27.5307 24.8398 27.2559 25.1032 27.0269 25.3322C26.7979 25.5612 26.6147 25.7559 26.4773 25.9162C26.1223 26.3513 25.9391 26.9696 25.9391 27.7597V29.0765H25.9506ZM24.3361 35.6719C23.7177 35.6719 23.1796 35.4543 22.7216 35.0307C22.2635 34.607 22.0345 34.0917 22.0345 33.4849C22.0345 32.878 22.2521 32.3627 22.6987 31.9276C23.1452 31.4925 23.6834 31.275 24.3017 31.275C24.92 31.275 25.4582 31.4925 25.9162 31.9162C26.3742 32.3398 26.5918 32.8551 26.5918 33.462C26.5918 34.0689 26.3742 34.5841 25.9277 35.0192C25.4926 35.4543 24.9544 35.6719 24.3361 35.6719Z" fill="white"/>
</svg>
