<svg width="32" height="32" viewBox="0 0 32 32" fill="none" xmlns="http://www.w3.org/2000/svg">
<path fill-rule="evenodd" clip-rule="evenodd" d="M15.0862 1.59961C17.2079 1.59961 19.2427 2.44246 20.743 3.94276L25.6566 8.85638C27.1569 10.3567 27.9998 12.3915 27.9998 14.5132V27.0394C27.9998 28.895 26.4955 30.3993 24.6398 30.3993H7.35997C5.50431 30.3993 4 28.895 4 27.0394V4.95958C4 3.10392 5.50431 1.59961 7.35997 1.59961H15.0862Z" fill="url(#paint0_linear)"/>
<path opacity="0.9" d="M15.0705 16.1853C14.8028 16.1853 14.5857 16.4024 14.5857 16.6702L14.5857 23.155C14.5857 24.4944 13.4285 25.5792 11.9999 25.5792C10.5712 25.5792 9.41402 24.4944 9.41402 23.155L9.41402 15.5793C9.41402 14.7429 10.1381 14.0642 11.0302 14.0642C11.9223 14.0642 12.6463 14.7429 12.6463 15.5793L12.6463 21.9429C12.6463 22.2762 12.3554 22.5489 11.9999 22.5489C11.6443 22.5489 11.3534 22.2762 11.3534 21.9429L11.3534 16.6702C11.3534 16.4024 11.1363 16.1853 10.8686 16.1853C10.6008 16.1853 10.3837 16.4024 10.3837 16.6702L10.3837 21.9429C10.3837 22.7792 11.1077 23.458 11.9999 23.458C12.892 23.458 13.616 22.7792 13.616 21.9429L13.616 15.5793C13.616 14.2399 12.4588 13.1551 11.0302 13.1551C9.6015 13.1551 8.44434 14.2399 8.44434 15.5793L8.44434 23.155C8.44434 24.9974 10.0346 26.4883 11.9999 26.4883C13.9651 26.4883 15.5554 24.9974 15.5554 23.155L15.5554 16.6702C15.5554 16.4024 15.3383 16.1853 15.0705 16.1853Z" fill="white"/>
<path fill-rule="evenodd" clip-rule="evenodd" d="M28 11.1992H21.9298C20.0741 11.1992 18.4001 9.52521 18.4001 7.66955V1.59931L28 11.1992Z" fill="white" fill-opacity="0.4"/>
<defs>
<linearGradient id="paint0_linear" x1="4" y1="30.3993" x2="28.071" y2="30.3396" gradientUnits="userSpaceOnUse">
<stop stop-color="#0F2356"/>
<stop offset="1" stop-color="#084782"/>
</linearGradient>
</defs>
</svg>
