<svg width="40" height="40" viewBox="0 0 40 40" fill="none" xmlns="http://www.w3.org/2000/svg">
<path fill-rule="evenodd" clip-rule="evenodd" d="M20 40C31.0457 40 40 31.0457 40 20C40 8.9543 31.0457 0 20 0C8.9543 0 0 8.9543 0 20C0 31.0457 8.9543 40 20 40ZM22.9832 15.9312C23.1567 16.0978 23.1753 16.3688 23.0269 16.558L15.7459 25.6634V28.156C15.7443 28.3852 15.8326 28.6062 15.9923 28.7711C16.1517 28.9357 16.3695 29.0314 16.599 29.037C16.8283 29.0429 17.0506 28.9582 17.2181 28.8017L20.6054 25.6278L26.0007 27.7167C26.327 27.8478 26.6958 27.817 26.996 27.6338C27.296 27.4508 27.4919 27.1368 27.5248 26.7868L29.1393 9.95801C29.16 9.73887 29.1005 9.51973 28.9717 9.34112C28.8429 9.16274 28.6537 9.03706 28.439 8.98796C28.2246 8.93864 27.9994 8.96905 27.8057 9.07333L9.40113 19.3832C9.15743 19.5145 8.97342 19.7343 8.88738 19.9974C8.80134 20.2605 8.81981 20.5467 8.93896 20.7965C9.05786 21.0465 9.26845 21.2409 9.52701 21.34L13.9602 23.0544L22.3553 15.9122C22.5384 15.7564 22.8098 15.7645 22.9832 15.9312Z" fill="#416EAA"/>
</svg>
