<svg width="204" height="185" viewBox="0 0 204 185" fill="none" xmlns="http://www.w3.org/2000/svg">
<path d="M127.088 154.545C127.088 168.652 115.652 180.088 101.545 180.088C87.4377 180.088 76 168.652 76 154.545C76 140.436 87.4377 129 101.545 129C115.652 129 127.088 140.436 127.088 154.545Z" fill="#A9B1B8"/>
<path d="M113 17.0003C113 23.0752 108.075 28 102 28C95.9254 28 91 23.0752 91 17.0003C91 10.9248 95.9254 6 102 6C108.075 6 113 10.9248 113 17.0003Z" fill="#F7F9FC"/>
<path d="M167.677 135.021C159.839 125 156.5 103.734 156.5 89L154.5 66.5C154.5 37.7603 126.32 21.5 99.5 21.5C72.6799 21.5 47.4999 47.3765 47.4999 76.1162V103C47.4999 117.734 38.5 129 33.0001 142C30.2947 144.478 26 151.193 26 155C26 162.185 38.459 158 45.1626 158H159.839C166.541 158 178 162.176 178 155C178 151.2 170.445 137.563 167.677 135.021Z" fill="#DEE2E6"/>
<path d="M102 34.4122C92.4643 34.3912 83.2258 37.7302 75.9068 43.8428C68.5877 49.9555 63.656 58.4512 61.9774 67.8382C61.8059 68.7121 61.9841 69.6184 62.4737 70.3624C62.9633 71.1063 63.7252 71.6285 64.5957 71.8166H65.2078C66.013 71.8298 66.7967 71.5567 67.4194 71.0461C68.0421 70.5355 68.4634 69.8205 68.6082 69.0283C70.0091 61.2029 74.1262 54.1227 80.2345 49.0346C86.3427 43.9464 94.0504 41.1767 102 41.213C102.902 41.213 103.767 40.8548 104.405 40.2171C105.042 39.5794 105.401 38.7145 105.401 37.8126C105.401 36.9108 105.042 36.0459 104.405 35.4082C103.767 34.7705 102.902 34.4122 102 34.4122Z" fill="#54547B"/>
<path d="M173.85 139.824C164.408 123.357 159.437 104.706 159.432 85.7241V75.4209C159.395 63.1986 155.485 51.3025 148.264 41.4416C141.042 31.5808 130.881 24.2626 119.24 20.5384V17.4101C119.24 12.7926 117.405 8.36431 114.14 5.09929C110.875 1.83427 106.447 0 101.83 0C97.2121 0 92.7838 1.83427 89.5188 5.09929C86.2537 8.36431 84.4195 12.7926 84.4195 17.4101V20.8105C72.8159 24.5143 62.6788 31.7888 55.4549 41.5958C48.231 51.4027 44.2894 63.2409 44.1927 75.4209V85.8261C44.1909 104.768 39.2446 123.381 29.843 139.824L20.6619 155.806C20.3629 156.324 20.2058 156.912 20.2064 157.51C20.207 158.108 20.3653 158.695 20.6653 159.213C20.9654 159.73 21.3965 160.159 21.9153 160.456C22.4342 160.754 23.0223 160.909 23.6203 160.907H74.1503C75.2324 167.467 78.6092 173.43 83.6787 177.731C88.7482 182.033 95.1808 184.395 101.83 184.395C108.478 184.395 114.911 182.033 119.98 177.731C125.05 173.43 128.427 167.467 129.509 160.907H180.209C180.807 160.909 181.395 160.754 181.914 160.456C182.433 160.159 182.864 159.73 183.164 159.213C183.464 158.695 183.622 158.108 183.623 157.51C183.623 156.912 183.466 156.324 183.167 155.806L173.85 139.824ZM91.2203 17.8521V17.4101C91.2203 14.5963 92.338 11.8978 94.3277 9.90818C96.3173 7.91856 99.0158 6.8008 101.83 6.8008C104.643 6.8008 107.342 7.91856 109.331 9.90818C111.321 11.8978 112.439 14.5963 112.439 17.4101V17.9881L91.2203 17.8521ZM101.83 177.671C96.9752 177.68 92.2646 176.024 88.4836 172.979C84.7026 169.934 82.08 165.686 81.0531 160.941H122.606C121.606 165.676 119.017 169.927 115.269 172.988C111.521 176.05 106.839 177.738 102 177.773L101.83 177.671ZM29.469 154.208L35.7257 143.225C45.7209 125.758 50.9836 105.985 50.9935 85.8601V75.4209C50.9935 61.9519 56.3441 49.0345 65.8681 39.5105C75.3921 29.9865 88.3095 24.6359 101.779 24.6359C115.248 24.6359 128.165 29.9865 137.689 39.5105C147.213 49.0345 152.564 61.9519 152.564 75.4209V85.8261C152.609 105.974 157.919 125.761 167.967 143.225L174.224 154.106L29.469 154.208Z" fill="#54547B"/>
<path d="M30.9992 76.0671C30.2634 75.5508 29.3532 75.3469 28.4675 75.4998C27.5818 75.6527 26.7927 76.1501 26.2726 76.8832C22.339 82.5176 20.2296 89.2237 20.2296 96.0954C20.2296 102.967 22.339 109.673 26.2726 115.308C26.7912 116.047 27.5823 116.55 28.4719 116.707C29.3615 116.863 30.2767 116.659 31.0162 116.141C31.7557 115.622 32.2589 114.831 32.4152 113.942C32.5714 113.052 32.3678 112.137 31.8493 111.397C28.7204 106.908 27.043 101.567 27.043 96.0954C27.043 90.6234 28.7204 85.2829 31.8493 80.7936C32.3621 80.0537 32.5606 79.1407 32.4013 78.2546C32.2419 77.3686 31.7377 76.5819 30.9992 76.0671Z" fill="#54547B"/>
<path d="M6.78874 96.0952C6.77576 86.4717 9.7326 77.0787 15.2557 69.198C15.5384 68.8333 15.744 68.4149 15.8598 67.9683C15.9756 67.5216 15.9993 67.0561 15.9295 66.5999C15.8596 66.1438 15.6977 65.7067 15.4535 65.3152C15.2093 64.9237 14.888 64.586 14.5091 64.3226C14.1302 64.0592 13.7017 63.8757 13.2496 63.7833C12.7976 63.6908 12.3314 63.6913 11.8796 63.7848C11.4277 63.8782 10.9996 64.0627 10.6213 64.3269C10.243 64.591 9.9224 64.9295 9.67908 65.3215C3.37851 74.3467 0 85.0883 0 96.0952C0 107.102 3.37851 117.844 9.67908 126.869C9.94477 127.235 10.28 127.545 10.6656 127.782C11.0512 128.018 11.4796 128.177 11.9264 128.248C12.3732 128.319 12.8296 128.301 13.2696 128.196C13.7096 128.091 14.1245 127.9 14.4906 127.634C14.8568 127.368 15.1671 127.033 15.4037 126.647C15.6403 126.262 15.7987 125.833 15.8697 125.387C15.9407 124.94 15.9231 124.483 15.8177 124.043C15.7124 123.603 15.5214 123.188 15.2557 122.822C9.75792 114.993 6.80188 105.662 6.78874 96.0952Z" fill="#54547B"/>
<path d="M173 76.0669C172.267 76.587 171.769 77.3761 171.616 78.2618C171.464 79.1475 171.668 80.0577 172.184 80.7935C175.313 85.2828 176.99 90.6233 176.99 96.0953C176.99 101.567 175.313 106.908 172.184 111.397C171.665 112.137 171.462 113.052 171.618 113.941C171.774 114.831 172.277 115.622 173.017 116.141C173.756 116.659 174.672 116.863 175.561 116.707C176.451 116.55 177.242 116.047 177.76 115.308C181.694 109.673 183.803 102.967 183.803 96.0953C183.803 89.2236 181.694 82.5175 177.76 76.883C177.503 76.5153 177.175 76.2022 176.795 75.9619C176.416 75.7216 175.993 75.5588 175.55 75.4829C175.108 75.407 174.654 75.4196 174.217 75.5198C173.779 75.6201 173.365 75.806 173 76.0669Z" fill="#54547B"/>
<path d="M189.594 64.4716C188.856 64.9865 188.351 65.7732 188.192 66.6592C188.033 67.5452 188.231 68.4583 188.744 69.1982C194.252 77.0797 197.206 86.463 197.206 96.0784C197.206 105.694 194.252 115.077 188.744 122.959C188.226 123.698 188.022 124.613 188.178 125.503C188.334 126.392 188.838 127.184 189.577 127.702C190.317 128.221 191.232 128.424 192.122 128.268C193.011 128.112 193.802 127.608 194.321 126.869C200.621 117.844 204 107.102 204 96.0954C204 85.0885 200.621 74.3469 194.321 65.3217C193.806 64.5832 193.019 64.079 192.133 63.9197C191.247 63.7603 190.334 63.9588 189.594 64.4716Z" fill="#54547B"/>
<path d="M171 43.0003C171 54.5981 161.598 64 150 64C138.402 64 129 54.5981 129 43.0003C129 31.4019 138.402 22 150 22C161.598 22 171 31.4019 171 43.0003Z" fill="#F8D50D"/>
<path fill-rule="evenodd" clip-rule="evenodd" d="M178 43.0003C178 58.4642 165.464 71 150 71C134.536 71 122 58.4641 122 43.0003C122 27.536 134.536 15 150 15C165.464 15 178 27.5359 178 43.0003ZM150 64C161.598 64 171 54.5981 171 43.0003C171 31.4019 161.598 22 150 22C138.402 22 129 31.4019 129 43.0003C129 54.5981 138.402 64 150 64Z" fill="#54547B"/>
<path d="M151.727 56C149.921 56 148.455 54.5339 148.455 52.7273V38.5453H146.273C144.466 38.5453 143 37.0792 143 35.2727C143 33.4661 144.466 32 146.273 32H151.727C153.534 32 155 33.4661 155 35.2727V52.7273C155 54.5339 153.534 56 151.727 56Z" fill="#54547B"/>
</svg>
