<svg width="207" height="180" viewBox="0 0 207 180" fill="none" xmlns="http://www.w3.org/2000/svg">
  <path
    d="M54.9943 158.345C91.3301 164.617 111.561 164.617 147.897 158.345L180.12 152.783C164.212 136.97 155.275 117.419 155.275 95.0591V64.4991C155.404 43.9663 141.839 28.9206 128.294 22.7305C111.32 14.9717 91.5711 14.9411 74.6239 22.7577C61.1979 28.9478 46.6616 43.9832 46.5325 64.4991V95.0591C46.5325 117.419 38.6718 136.97 22.7637 152.783L54.9943 158.345Z"
    fill="#E7ECED"/>
  <path
    d="M63.5558 67.907H63.5354C61.661 67.8934 60.15 66.3654 60.1602 64.491C60.2621 48.5931 72.9003 38.5389 80.357 35.106C93.4264 29.0789 109.538 29.0891 122.696 35.0992C124.401 35.8768 125.151 37.8903 124.373 39.5983C123.593 41.3028 121.579 42.0567 119.871 41.2723C108.486 36.0669 94.5096 36.0533 83.2024 41.2723C77.2025 44.0363 67.0328 52.0464 66.9547 64.5318C66.9411 66.4027 65.4233 67.907 63.5558 67.907Z"
    fill="white"/>
  <path
    d="M114.426 18.2715V13.5822C114.426 6.08143 108.345 0 100.844 0C93.3432 0 87.2617 6.08143 87.2617 13.5822V18.5159C96.1886 16.5092 105.465 16.4379 114.426 18.2715Z"
    fill="#C7CAC7"/>
  <path
    d="M73.4395 161.151C78.346 172.248 89.0658 179.963 101.544 179.963C114.026 179.963 124.75 172.244 129.653 161.141C109.524 163.694 93.5547 163.698 73.4395 161.151Z"
    fill="#C7CAC7"/>
  <path
    d="M167.212 30.6268C167.212 41.5546 158.353 50.4134 147.425 50.4134C136.497 50.4134 127.639 41.5546 127.639 30.6268C127.639 19.6989 136.497 10.8401 147.425 10.8401C158.353 10.8401 167.212 19.6989 167.212 30.6268Z"
    fill="#F8D50D"/>
  <path
    d="M155.357 39.1798C155.357 38.6533 155.144 38.2255 154.753 37.8307C154.361 37.4687 153.863 37.3042 153.293 37.3042H146.745L153.898 27.6628C153.97 27.5641 154.041 27.4654 154.076 27.3667C154.503 26.4782 154.717 25.5898 154.717 24.6355C154.717 22.8257 154.005 21.2462 152.617 19.9629C151.194 18.6796 149.521 18.0215 147.528 18.0215C145.571 18.0215 143.863 18.6796 142.475 19.9629C141.087 21.2462 140.375 22.8257 140.375 24.6355C140.375 24.8 140.375 24.9317 140.375 25.0962C140.411 25.6227 140.66 26.0505 141.087 26.3795C141.514 26.7415 142.012 26.8731 142.546 26.8402C143.115 26.8073 143.613 26.6098 143.969 26.215C144.361 25.8201 144.539 25.3594 144.503 24.8329C144.468 24.7671 144.468 24.7013 144.468 24.6355C144.468 23.8787 144.788 23.1877 145.393 22.6283C145.962 22.1018 146.71 21.8385 147.528 21.8385C148.382 21.8385 149.094 22.1018 149.699 22.6283C150.304 23.1877 150.624 23.8787 150.624 24.6355C150.624 24.9975 150.553 25.3265 150.411 25.6556L141.122 38.1268C140.66 38.752 140.624 39.4101 141.016 40.0682C141.407 40.7593 142.012 41.0883 142.831 41.0883H153.293C153.863 41.0883 154.361 40.8909 154.753 40.5289C155.144 40.167 155.357 39.7063 155.357 39.1798Z"
    fill="#54547B"/>
  <path
    d="M31.5209 43.172C30.7742 42.6485 29.851 42.4415 28.9532 42.5967C28.0544 42.752 27.2539 43.2562 26.7264 43.9998C22.7353 49.7165 20.5957 56.5198 20.5957 63.4905C20.5957 70.4622 22.7353 77.2654 26.7264 82.9822C27.2519 83.7319 28.0544 84.2422 28.9573 84.4015C29.8602 84.5597 30.7884 84.3528 31.5382 83.8273C32.2889 83.3007 32.7992 82.4983 32.9575 81.5964C33.1157 80.6935 32.9098 79.7652 32.3833 79.0145C29.2089 74.4603 27.5075 69.0419 27.5075 63.4905C27.5075 57.9391 29.2089 52.5216 32.3833 47.9675C32.9037 47.2168 33.1056 46.2906 32.9433 45.3917C32.782 44.4928 32.2706 43.6944 31.5209 43.172Z"
    fill="#54547B"/>
  <path
    d="M6.88748 63.473C6.87429 53.7104 9.87419 44.1812 15.4773 36.1859C15.7634 35.8156 15.9724 35.3915 16.0901 34.938C16.2077 34.4855 16.2311 34.0128 16.1611 33.5502C16.0901 33.0876 15.9257 32.6442 15.6782 32.2465C15.4296 31.8499 15.104 31.507 14.7195 31.2401C14.335 30.9723 13.9008 30.7867 13.4422 30.6923C12.9836 30.599 12.5099 30.599 12.0523 30.6943C11.5938 30.7887 11.1596 30.9764 10.7751 31.2442C10.3916 31.512 10.0659 31.8559 9.8194 32.2536C3.42802 41.4095 0 52.3064 0 63.473C0 74.6397 3.42802 85.5375 9.8194 94.6934C10.0893 95.0647 10.4291 95.3792 10.8207 95.6196C11.2113 95.8591 11.6465 96.0204 12.099 96.0924C12.5525 96.1644 13.0161 96.1462 13.4625 96.0397C13.9089 95.9331 14.3299 95.7394 14.7012 95.4695C15.0725 95.1997 15.387 94.8598 15.6275 94.4682C15.8669 94.0776 16.0282 93.6424 16.1002 93.1899C16.1722 92.7364 16.154 92.2728 16.0475 91.8264C15.9399 91.38 15.7461 90.96 15.4773 90.5877C9.89955 82.6451 6.90067 73.1788 6.88748 63.473Z"
    fill="#54547B" fill-opacity="0.7"/>
  <path
    d="M175.435 43.1547C174.691 43.6823 174.186 44.4827 174.03 45.3815C173.876 46.2794 174.083 47.2036 174.607 47.9503C177.781 52.5044 179.482 57.9219 179.482 63.4732C179.482 69.0246 177.781 74.4431 174.607 78.9972C174.08 79.7479 173.874 80.6762 174.033 81.5781C174.191 82.481 174.701 83.2835 175.452 83.81C176.202 84.3355 177.131 84.5425 178.033 84.3842C178.936 84.2249 179.738 83.7146 180.264 82.9649C184.255 77.2482 186.394 70.4449 186.394 63.4732C186.394 56.5026 184.255 49.6993 180.264 43.9825C180.003 43.6092 179.67 43.2917 179.285 43.0482C178.9 42.8047 178.471 42.6393 178.022 42.5622C177.573 42.4851 177.113 42.4983 176.669 42.5998C176.225 42.7012 175.805 42.8899 175.435 43.1547Z"
    fill="#54547B"/>
  <path
    d="M192.27 31.4068C191.521 31.9292 191.009 32.7266 190.847 33.6255C190.686 34.5243 190.887 35.4506 191.407 36.2013C196.995 44.1977 199.992 53.7168 199.992 63.4712C199.992 73.2267 196.995 82.7458 191.407 90.7422C190.882 91.4919 190.675 92.4202 190.833 93.3231C190.991 94.225 191.503 95.0285 192.252 95.554C193.003 96.0805 193.931 96.2864 194.834 96.1282C195.736 95.9699 196.539 95.4586 197.065 94.7089C203.457 85.553 206.885 74.6552 206.885 63.4885C206.885 52.3228 203.457 41.425 197.065 32.2691C196.543 31.5194 195.744 31.0081 194.846 30.8468C193.947 30.6844 193.02 30.8863 192.27 31.4068Z"
    fill="#54547B" fill-opacity="0.7"/>
</svg>
