<svg width="28" height="28" viewBox="0 0 28 28" fill="none" xmlns="http://www.w3.org/2000/svg">
<path d="M0 4C0 1.79086 1.79086 0 4 0H24C26.2091 0 28 1.79086 28 4V24C28 26.2091 26.2091 28 24 28H4C1.79086 28 0 26.2091 0 24V4Z" fill="#33334F"/>
<path d="M8 17.5002V20.0002H10.5L17.8733 12.6269L15.3733 10.1269L8 17.5002ZM19.8067 10.6935C20.0667 10.4335 20.0667 10.0135 19.8067 9.75354L18.2467 8.19354C17.9867 7.93354 17.5667 7.93354 17.3067 8.19354L16.0867 9.41354L18.5867 11.9135L19.8067 10.6935Z" fill="white"/>
</svg>
