<svg width="96" height="87" viewBox="0 0 96 87" fill="none" xmlns="http://www.w3.org/2000/svg">
<g clip-path="url(#clip0)">
<path opacity="0.2" d="M43.0003 77.7324H54.0003V85.6174C54.0003 85.6325 53.9969 85.6475 53.9901 85.6614C53.9834 85.6754 53.9736 85.688 53.9611 85.6987C53.9487 85.7094 53.9339 85.7179 53.9177 85.7237C53.9015 85.7294 53.8841 85.7324 53.8665 85.7324H43.1342C43.0987 85.7324 43.0646 85.7203 43.0395 85.6987C43.0144 85.6772 43.0003 85.6479 43.0003 85.6174V77.7324Z" fill="#33334F"/>
<path d="M54.1698 78.1372H42.5083V80.2925H54.1698V78.1372Z" fill="#EDEDF8"/>
<path d="M54.5502 86.6058C54.3151 86.6058 54.0897 86.5119 53.9235 86.3449C53.7572 86.1779 53.6639 85.9514 53.6639 85.7152V78.2324H43.773V85.7152C43.773 85.9514 43.6796 86.1779 43.5134 86.3449C43.3472 86.5119 43.1218 86.6058 42.8867 86.6058C42.6517 86.6058 42.4262 86.5119 42.26 86.3449C42.0938 86.1779 42.0004 85.9514 42.0004 85.7152V76.4512H55.4364V85.7152C55.4359 85.9512 55.3424 86.1774 55.1763 86.3443C55.0102 86.5112 54.785 86.6052 54.5502 86.6058Z" fill="#A7A7BF"/>
<path d="M61.0003 84.7324H36.0003V86.7324H61.0003V84.7324Z" fill="#A7A7BF"/>
<path d="M89.2705 9.8363H7.40962C4.18232 9.8363 1.56607 12.4653 1.56607 15.7083V71.3864C1.56607 74.6295 4.18232 77.2585 7.40962 77.2585H89.2705C92.4978 77.2585 95.114 74.6295 95.114 71.3864V15.7083C95.114 12.4653 92.4978 9.8363 89.2705 9.8363Z" fill="#EDEDF8"/>
<path d="M88.5456 15.5836H8.13431V64.5843H88.5456V15.5836Z" fill="#DBDBE5"/>
<path d="M90.3104 78.1491H6.3697C4.86112 78.1475 3.41478 77.5446 2.34805 76.4727C1.28132 75.4007 0.681343 73.9473 0.679779 72.4314V14.6633C0.680822 13.1471 1.28057 11.6932 2.34735 10.6208C3.41414 9.54847 4.86078 8.9453 6.3697 8.94373H90.3104C91.8193 8.9453 93.2659 9.54847 94.3327 10.6208C95.3995 11.6932 95.9992 13.1471 96.0003 14.6633V72.4314C95.9987 73.9473 95.3987 75.4007 94.332 76.4727C93.2653 77.5446 91.8189 78.1475 90.3104 78.1491ZM6.3697 10.7249C5.33089 10.7265 4.33511 11.142 3.60074 11.8803C2.86638 12.6186 2.45338 13.6195 2.45234 14.6633V72.4314C2.4539 73.4749 2.86713 74.4753 3.60144 75.2132C4.33575 75.9511 5.33123 76.3663 6.3697 76.3679H90.3104C91.3488 76.3663 92.3443 75.9511 93.0786 75.2132C93.8129 74.4753 94.2262 73.4749 94.2277 72.4314V14.6633C94.2267 13.6195 93.8137 12.6186 93.0793 11.8803C92.345 11.142 91.3492 10.7265 90.3104 10.7249H6.3697Z" fill="#A7A7BF"/>
<path d="M48.34 34.8898C48.2094 34.8898 48.0842 34.8377 47.9919 34.7449C47.8995 34.6521 47.8477 34.5263 47.8477 34.395V22.4274C47.8477 22.2962 47.8995 22.1703 47.9919 22.0775C48.0842 21.9847 48.2094 21.9326 48.34 21.9326C48.4706 21.9326 48.5958 21.9847 48.6882 22.0775C48.7805 22.1703 48.8324 22.2962 48.8324 22.4274V34.395C48.8324 34.5263 48.7805 34.6521 48.6882 34.7449C48.5958 34.8377 48.4706 34.8898 48.34 34.8898Z" fill="white"/>
<path d="M48.34 40.6985C48.2094 40.6985 48.0842 40.6463 47.9919 40.5535C47.8995 40.4607 47.8477 40.3349 47.8477 40.2037V37.6902C47.8477 37.559 47.8995 37.4331 47.9919 37.3403C48.0842 37.2476 48.2094 37.1954 48.34 37.1954C48.4706 37.1954 48.5958 37.2476 48.6882 37.3403C48.7805 37.4331 48.8324 37.559 48.8324 37.6902V40.2037C48.8324 40.3349 48.7805 40.4607 48.6882 40.5535C48.5958 40.6463 48.4706 40.6985 48.34 40.6985V40.6985Z" fill="white"/>
<path d="M48.34 44.3816C48.2094 44.3816 48.0842 44.3295 47.9919 44.2367C47.8995 44.1439 47.8477 44.0181 47.8477 43.8869V43.1526C47.8477 43.0214 47.8995 42.8955 47.9919 42.8028C48.0842 42.71 48.2094 42.6578 48.34 42.6578C48.4706 42.6578 48.5958 42.71 48.6882 42.8028C48.7805 42.8955 48.8324 43.0214 48.8324 43.1526V43.8869C48.8324 44.0181 48.7805 44.1439 48.6882 44.2367C48.5958 44.3295 48.4706 44.3816 48.34 44.3816V44.3816Z" fill="white"/>
<path d="M48.3577 32.3566C48.2271 32.3566 48.1019 32.3045 48.0095 32.2117C47.9172 32.1189 47.8653 31.9931 47.8653 31.8618V19.8942C47.8653 19.763 47.9172 19.6371 48.0095 19.5443C48.1019 19.4515 48.2271 19.3994 48.3577 19.3994C48.4883 19.3994 48.6135 19.4515 48.7059 19.5443C48.7982 19.6371 48.8501 19.763 48.8501 19.8942V31.8618C48.8501 31.9931 48.7982 32.1189 48.7059 32.2117C48.6135 32.3045 48.4883 32.3566 48.3577 32.3566Z" fill="white"/>
<path d="M48.3223 36.3563C48.1917 36.3563 48.0665 36.3042 47.9741 36.2114C47.8818 36.1186 47.8299 35.9928 47.8299 35.8616V34.2545C47.8299 34.1233 47.8818 33.9975 47.9741 33.9047C48.0665 33.8119 48.1917 33.7598 48.3223 33.7598C48.4529 33.7598 48.5781 33.8119 48.6705 33.9047C48.7628 33.9975 48.8147 34.1233 48.8147 34.2545V35.8616C48.8147 35.9928 48.7628 36.1186 48.6705 36.2114C48.5781 36.3042 48.4529 36.3563 48.3223 36.3563Z" fill="white"/>
<path d="M71.9643 64.3152H24.8516C23.8971 64.3152 22.9816 63.9343 22.3065 63.2562C21.6314 62.5782 21.2519 61.6585 21.2513 60.6993L21.1174 5.58326C21.1171 5.10826 21.21 4.63786 21.3907 4.19894C21.5715 3.76001 21.8365 3.36118 22.1706 3.02521C22.5048 2.68924 22.9015 2.42272 23.3382 2.24088C23.7749 2.05905 24.243 1.96546 24.7157 1.96546H71.8284C72.7823 1.9644 73.6975 2.34374 74.3733 3.02019C75.049 3.69663 75.43 4.61489 75.4326 5.57336L75.5626 60.6993C75.5626 61.6583 75.1835 62.578 74.5087 63.2561C73.8339 63.9342 72.9187 64.3152 71.9643 64.3152Z" fill="white"/>
<g opacity="0.5">
<path d="M42.5821 24.4506L39.1517 17.6386C38.9676 17.7537 38.7918 17.88 38.6021 17.9867L33.04 20.7877C32.7319 20.9428 32.6077 21.3188 32.7629 21.627L33.044 22.1851L31.3693 23.0285C31.0612 23.1836 30.937 23.5596 31.0922 23.8677L32.7787 27.2168C32.9339 27.525 33.3099 27.6491 33.618 27.4939L35.2927 26.6506L35.5738 27.2088C35.7289 27.5169 36.1049 27.641 36.4131 27.4859L36.7513 27.3155L42.0075 32.1669C42.3253 32.4561 42.7633 32.5617 43.1789 32.4475C43.2616 32.4255 43.3403 32.3956 43.414 32.3585C43.7121 32.2084 43.9361 31.9473 44.0324 31.6329L44.7037 29.6281C44.8739 29.1127 44.6861 28.537 44.2587 28.233L40.4981 25.4287L41.9807 24.6821C42.1772 24.5943 42.3822 24.5289 42.5821 24.4506Z" fill="#CDCDCF"/>
<path d="M45.9077 9.04868C45.8869 9.03533 45.869 9.02476 45.8455 9.0142C45.7447 8.96698 45.6357 8.94214 45.5222 8.95309C45.5183 8.95366 45.5138 8.95032 45.5099 8.95089C45.4971 8.95316 45.4898 8.9638 45.477 8.96607C45.4194 8.97686 45.3608 8.98542 45.3049 9.01353C45.267 9.03264 45.2408 9.06402 45.2079 9.09039C45.1889 9.10553 45.1694 9.11677 45.1515 9.13415C45.0713 9.21376 45.0156 9.30895 44.9869 9.4158C44.9847 9.42251 44.9785 9.427 44.9763 9.43372C44.3 12.4235 42.5846 15.059 40.1872 16.9157L43.7801 24.0503C46.6991 23.2297 49.8374 23.4197 52.6421 24.6565C52.6494 24.6598 52.6584 24.6581 52.6673 24.662C52.7283 24.6858 52.7938 24.6963 52.8597 24.6994C52.8815 24.7011 52.9022 24.7088 52.9229 24.7082C53.0084 24.7029 53.0939 24.6837 53.1754 24.6426C53.239 24.6106 53.2959 24.5679 53.3478 24.5152C53.3506 24.5124 53.3505 24.5068 53.3533 24.504C53.4297 24.4194 53.4752 24.3181 53.4967 24.2079C53.5011 24.1833 53.5033 24.1626 53.506 24.1375C53.5163 24.0245 53.5065 23.9105 53.4525 23.8033L46.1442 9.2906C46.0903 9.18343 46.0045 9.10766 45.9077 9.04868Z" fill="#CDCDCF"/>
</g>
<path d="M75.7714 63.8006H21.4601L21.3085 61.3326H75.6178L75.7714 63.8006Z" fill="#E1E4FE"/>
<path d="M75.3381 65.2057C75.1034 65.2057 74.8783 65.1122 74.7121 64.9456C74.546 64.779 74.4524 64.553 74.4518 64.3171L74.3061 4.75794C74.3045 4.25332 74.1041 3.76987 73.7486 3.41342C73.3932 3.05697 72.9116 2.85654 72.4094 2.85602H23.666C23.4164 2.85602 23.1693 2.90551 22.9388 3.00167C22.7083 3.09782 22.4989 3.23873 22.3227 3.41634C22.1465 3.59395 22.007 3.80475 21.912 4.03667C21.817 4.26858 21.7685 4.51706 21.7693 4.76784L21.9151 64.3132C21.9151 64.5492 21.822 64.7756 21.6563 64.9429C21.4906 65.1102 21.2656 65.2047 21.0308 65.2057V65.2057C20.796 65.2057 20.5709 65.1122 20.4048 64.9456C20.2386 64.779 20.145 64.553 20.1445 64.3171L19.9987 4.7718C19.9977 4.28701 20.0918 3.80677 20.2755 3.35854C20.4593 2.91031 20.7292 2.50287 21.0698 2.15952C21.4104 1.81618 21.815 1.54365 22.2605 1.35753C22.7059 1.17141 23.1835 1.07535 23.666 1.07483H72.4094C73.3807 1.07639 74.3119 1.46427 74.9995 2.15368C75.687 2.84309 76.075 3.77797 76.0787 4.75398L76.2205 64.3132C76.221 64.549 76.1284 64.7754 75.963 64.9428C75.7975 65.1101 75.5728 65.2047 75.3381 65.2057V65.2057Z" fill="#A7A7BF"/>
<path d="M89.4319 65.4728H7.24802V14.693H20.7136C20.9486 14.693 21.1741 14.7868 21.3403 14.9538C21.5065 15.1209 21.5999 15.3474 21.5999 15.5836C21.5999 15.8198 21.5065 16.0463 21.3403 16.2133C21.1741 16.3804 20.9486 16.4742 20.7136 16.4742H9.02058V63.6917H87.6593V16.4742H75.4483C75.2133 16.4742 74.9878 16.3804 74.8216 16.2133C74.6554 16.0463 74.5621 15.8198 74.5621 15.5836C74.5621 15.3474 74.6554 15.1209 74.8216 14.9538C74.9878 14.7868 75.2133 14.693 75.4483 14.693H89.4319V65.4728Z" fill="#A7A7BF"/>
<path d="M48.5389 72.0514C49.5342 72.0514 50.341 71.2407 50.341 70.2406C50.341 69.2404 49.5342 68.4297 48.5389 68.4297C47.5436 68.4297 46.7368 69.2404 46.7368 70.2406C46.7368 71.2407 47.5436 72.0514 48.5389 72.0514Z" fill="white"/>
<path d="M48.5389 72.6452C48.0656 72.6452 47.603 72.5041 47.2094 72.2399C46.8159 71.9757 46.5092 71.6001 46.3281 71.1608C46.147 70.7214 46.0996 70.2379 46.1919 69.7714C46.2842 69.305 46.5122 68.8765 46.8468 68.5402C47.1815 68.2039 47.6079 67.9749 48.072 67.8821C48.5362 67.7894 49.0174 67.837 49.4546 68.019C49.8919 68.201 50.2656 68.5092 50.5286 68.9046C50.7915 69.3001 50.9318 69.765 50.9318 70.2405C50.9313 70.8781 50.679 71.4895 50.2304 71.9403C49.7817 72.3911 49.1734 72.6446 48.5389 72.6452ZM48.5389 69.0254C48.2619 69.0254 47.9932 69.1207 47.7777 69.2956C47.5622 69.4705 47.4129 69.7143 47.3546 69.9865C47.2964 70.2586 47.3327 70.5425 47.4575 70.791C47.5823 71.0395 47.7881 71.2375 48.0406 71.352C48.2931 71.4665 48.577 71.4905 48.845 71.4201C49.113 71.3497 49.3489 71.1892 49.5134 70.9652C49.6779 70.7412 49.761 70.4674 49.7489 70.1893C49.7367 69.9112 49.6301 69.6457 49.4468 69.437C49.3332 69.3077 49.1935 69.2041 49.0369 69.1331C48.8804 69.0621 48.7106 69.0254 48.5389 69.0254V69.0254Z" fill="#A7A7BF"/>
<path opacity="0.5" d="M50.1479 41.7714V37.4253H28.3159V41.7714H50.1479Z" fill="#CDCDCF"/>
<path opacity="0.5" d="M66.1011 49.6938V45.3477H28.314V49.6938H66.1011Z" fill="#CDCDCF"/>
<path d="M35.7154 69.35H18.2675V71.1312H35.7154V69.35Z" fill="#A7A7BF"/>
</g>
<defs>
<clipPath id="clip0">
<rect width="96" height="86" fill="white" transform="translate(0.000244141 0.732422)"/>
</clipPath>
</defs>
</svg>
