<svg width="20" height="20" viewBox="0 0 20 20" fill="none" xmlns="http://www.w3.org/2000/svg">
    <path
        d="M15.0001 9.99996C15.0001 10.4583 15.3751 10.8333 15.8334 10.8333H17.5001C17.9584 10.8333 18.3334 10.4583 18.3334 9.99996C18.3334 9.54162 17.9584 9.16662 17.5001 9.16662H15.8334C15.3751 9.16662 15.0001 9.54162 15.0001 9.99996Z"
        fill="#33334F"
    />
    <path
        d="M13.8251 14.0166C13.5501 14.3833 13.6251 14.8916 13.9917 15.1583C14.4334 15.4833 14.9001 15.8333 15.3417 16.1666C15.7084 16.4416 16.2251 16.3666 16.4917 16C16.4917 15.9916 16.5001 15.9916 16.5001 15.9833C16.7751 15.6166 16.7001 15.1 16.3334 14.8333C15.8917 14.5 15.4251 14.15 14.9917 13.825C14.6251 13.55 14.1084 13.6333 13.8334 14C13.8334 14.0083 13.8251 14.0166 13.8251 14.0166Z"
        fill="#33334F"
    />
    <path
        d="M16.5084 4.00829C16.5084 3.99996 16.5001 3.99996 16.5001 3.99162C16.2251 3.62496 15.7084 3.54996 15.3501 3.82496C14.9084 4.15829 14.4334 4.50829 14.0001 4.84162C13.6334 5.11662 13.5667 5.63329 13.8417 5.99162C13.8417 5.99996 13.8501 5.99996 13.8501 6.00829C14.1251 6.37496 14.6334 6.44996 15.0001 6.17496C15.4417 5.84996 15.9084 5.49162 16.3501 5.15829C16.7084 4.89162 16.7751 4.37496 16.5084 4.00829Z"
        fill="#33334F"
    />
    <path
        d="M6.66675 7.49996H3.33341C2.41675 7.49996 1.66675 8.24996 1.66675 9.16662V10.8333C1.66675 11.75 2.41675 12.5 3.33341 12.5H4.16675V15C4.16675 15.4583 4.54175 15.8333 5.00008 15.8333C5.45841 15.8333 5.83342 15.4583 5.83342 15V12.5H6.66675L10.8334 15V4.99996L6.66675 7.49996Z"
        fill="#33334F"
    />
    <path
        d="M12.9167 9.99996C12.9167 8.89162 12.4334 7.89162 11.6667 7.20829V12.7833C12.4334 12.1083 12.9167 11.1083 12.9167 9.99996Z"
        fill="#33334F"
    />
</svg>