<svg width="24" height="24" viewBox="0 0 24 24" fill="none" xmlns="http://www.w3.org/2000/svg">
  <circle cx="11.7713" cy="12.0716" r="11.7713" fill="#E63B3B"/>
  <path
    d="M13.5478 12.3003L16.9388 8.90923C17.0202 8.82783 17.0202 8.69587 16.9388 8.61446L15.686 7.36137C15.647 7.32229 15.5938 7.30029 15.5387 7.30029C15.4834 7.30029 15.4304 7.32229 15.3913 7.36137L12 10.7526L8.60873 7.36137C8.53055 7.2832 8.39213 7.2832 8.31395 7.36137L7.06106 8.61446C6.97965 8.69587 6.97965 8.82783 7.06106 8.90923L10.4522 12.3003L7.06106 15.6915C6.97965 15.7729 6.97965 15.9048 7.06106 15.9862L8.31395 17.2392C8.35304 17.2783 8.4061 17.3003 8.46134 17.3003C8.51659 17.3003 8.56964 17.2783 8.60873 17.2392L12 13.848L15.3913 17.2392C15.4304 17.2783 15.4834 17.3003 15.5387 17.3003C15.5938 17.3003 15.647 17.2783 15.686 17.2392L16.9389 15.9862C17.0204 15.9048 17.0204 15.7728 16.9389 15.6915L13.5478 12.3003Z"
    fill="white"/>
</svg>
