<svg fill="none" height="16" viewBox="0 0 16 16" width="16" xmlns="http://www.w3.org/2000/svg">
  <path clip-rule="evenodd"
        d="M8.82925 8.12402H5.9984C5.78779 8.12402 5.61719 8.28989 5.61719 8.49465C5.61719 8.69941 5.78779 8.86528 5.9984 8.86528H8.82925C9.03986 8.86528 9.21046 8.69941 9.21046 8.49465C9.21046 8.28989 9.03986 8.12402 8.82925 8.12402Z"
        fill="white" fill-rule="evenodd"/>
  <path clip-rule="evenodd"
        d="M10.5716 6.30908H5.9984C5.78779 6.30908 5.61719 6.47495 5.61719 6.67971C5.61719 6.88447 5.78779 7.05034 5.9984 7.05034H10.5716C10.7822 7.05034 10.9528 6.88447 10.9528 6.67971C10.9528 6.47495 10.7822 6.30908 10.5716 6.30908Z"
        fill="white" fill-rule="evenodd"/>
  <path clip-rule="evenodd"
        d="M12.4535 8.52567C12.4535 9.62194 11.5582 10.5105 10.4536 10.5105H4.89788C4.65247 10.5105 4.45352 10.3131 4.45352 10.0695V6.69172C4.45352 5.59592 5.34882 4.70689 6.4534 4.70689H10.4536C11.5582 4.70689 12.4535 5.59592 12.4535 6.69172V8.52567ZM14.0001 0H8C3.58168 0 0 3.55473 0 7.93982C0 12.3249 3.58168 15.8796 8 15.8796C12.4183 15.8796 16 12.3249 16 7.93982V1.98484C16 0.888566 15.1047 0 14.0001 0Z"
        fill="white" fill-rule="evenodd"/>
</svg>
