<svg width="16" height="16" viewBox="0 0 16 16" fill="none" xmlns="http://www.w3.org/2000/svg">
<path d="M7.9987 1.33325C4.3187 1.33325 1.33203 4.31992 1.33203 7.99992C1.33203 11.6799 4.3187 14.6666 7.9987 14.6666C11.6787 14.6666 14.6654 11.6799 14.6654 7.99992C14.6654 4.31992 11.6787 1.33325 7.9987 1.33325ZM6.19203 10.8599L3.7987 8.46659C3.5387 8.20659 3.5387 7.78659 3.7987 7.52659C4.0587 7.26659 4.4787 7.26659 4.7387 7.52659L6.66536 9.44659L11.252 4.85992C11.512 4.59992 11.932 4.59992 12.192 4.85992C12.452 5.11992 12.452 5.53992 12.192 5.79992L7.13203 10.8599C6.8787 11.1199 6.45203 11.1199 6.19203 10.8599Z" fill="#27AE60"/>
</svg>
