<svg width="21" height="20" viewBox="0 0 21 20" fill="none" xmlns="http://www.w3.org/2000/svg">
    <path d="M10.5013 1.66666C5.9013 1.66666 2.16797 5.39999 2.16797 9.99999C2.16797 14.6 5.9013 18.3333 10.5013 18.3333C15.1013 18.3333 18.8346 14.6 18.8346 9.99999C18.8346 5.39999 15.1013 1.66666 10.5013 1.66666ZM10.5013 16.6667C6.8263 16.6667 3.83464 13.675 3.83464 9.99999C3.83464 6.32499 6.8263 3.33332 10.5013 3.33332C14.1763 3.33332 17.168 6.32499 17.168 9.99999C17.168 13.675 14.1763 16.6667 10.5013 16.6667ZM14.3263 6.31666L8.83464 11.8083L6.6763 9.65832L5.5013 10.8333L8.83464 14.1667L15.5013 7.49999L14.3263 6.31666Z" fill="#00C389"/>
</svg>