<svg width="20" height="20" viewBox="0 0 20 20" fill="none"
     xmlns="http://www.w3.org/2000/svg">
  <path d="M10.0003 1.66667C5.39199 1.66667 1.66699 5.39167 1.66699 10C1.66699 14.6083 5.39199 18.3333 10.0003 18.3333C14.6087 18.3333 18.3337 14.6083 18.3337 10C18.3337 5.39167 14.6087 1.66667 10.0003 1.66667ZM13.5837 13.5833C13.2587 13.9083 12.7337 13.9083 12.4087 13.5833L10.0003 11.175L7.59199 13.5833C7.26699 13.9083 6.74199 13.9083 6.41699 13.5833C6.09199 13.2583 6.09199 12.7333 6.41699 12.4083L8.82533 10L6.41699 7.59167C6.09199 7.26667 6.09199 6.74167 6.41699 6.41667C6.74199 6.09167 7.26699 6.09167 7.59199 6.41667L10.0003 8.82501L12.4087 6.41667C12.7337 6.09167 13.2587 6.09167 13.5837 6.41667C13.9087 6.74167 13.9087 7.26667 13.5837 7.59167L11.1753 10L13.5837 12.4083C13.9003 12.725 13.9003 13.2583 13.5837 13.5833Z"
        fill="#323232"/>
</svg>
