<svg width="80" height="80" viewBox="0 0 80 80" fill="none" xmlns="http://www.w3.org/2000/svg">
<circle cx="40" cy="40" r="40" fill="#F4F6F8"/>
<path d="M36.9412 20.647H42.5882V24.8823H36.9412V20.647Z" fill="#292F33"/>
<path d="M45.4117 15H34.1176C32.5647 15 31.2941 16.2706 31.2941 17.8235C31.2941 19.3765 32.5647 20.6471 34.1176 20.6471H45.4117C46.9647 20.6471 48.2352 19.3765 48.2352 17.8235C48.2352 16.2706 46.9647 15 45.4117 15ZM54.1421 29.8334L52.0188 27.9727C50.8512 26.9492 50.7327 25.1562 51.7562 23.9887C52.7797 22.8212 54.5727 22.7026 55.7402 23.7261L57.8635 25.5868C59.031 26.6104 59.1496 28.4033 58.1261 29.5708C57.1025 30.7384 55.3096 30.8569 54.1421 29.8334Z" fill="#8899A6"/>
<path d="M39.7648 58.7647C48.3414 58.7647 55.2942 51.8119 55.2942 43.2353C55.2942 34.6586 48.3414 27.7059 39.7648 27.7059C31.1881 27.7059 24.2354 34.6586 24.2354 43.2353C24.2354 51.8119 31.1881 58.7647 39.7648 58.7647Z" fill="#F5F8FA"/>
<path d="M39.7647 23.4706C28.8489 23.4706 20 32.3196 20 43.2353C20 54.1511 28.8489 63 39.7647 63C50.6805 63 59.5294 54.1511 59.5294 43.2353C59.5294 32.3196 50.6805 23.4706 39.7647 23.4706ZM39.7647 58.7647C31.2024 58.7647 24.2353 51.7977 24.2353 43.2353C24.2353 34.673 31.2024 27.7059 39.7647 27.7059C48.3271 27.7059 55.2941 34.673 55.2941 43.2353C55.2941 51.7977 48.3271 58.7647 39.7647 58.7647Z" fill="#66757F"/>
<path d="M52.4706 44.647H38.3529C37.5736 44.647 36.9412 44.016 36.9412 43.2353C36.9412 42.4546 37.5736 41.8235 38.3529 41.8235H52.4706C53.2513 41.8235 53.8823 42.4546 53.8823 43.2353C53.8823 44.016 53.2513 44.647 52.4706 44.647Z" fill="#292F33"/>
<path d="M39.7647 31.9412C40.5444 31.9412 41.1764 31.3091 41.1764 30.5294C41.1764 29.7497 40.5444 29.1176 39.7647 29.1176C38.985 29.1176 38.3529 29.7497 38.3529 30.5294C38.3529 31.3091 38.985 31.9412 39.7647 31.9412Z" fill="#292F33"/>
<path d="M39.7647 57.3529C40.5444 57.3529 41.1764 56.7208 41.1764 55.9412C41.1764 55.1615 40.5444 54.5294 39.7647 54.5294C38.985 54.5294 38.3529 55.1615 38.3529 55.9412C38.3529 56.7208 38.985 57.3529 39.7647 57.3529Z" fill="#292F33"/>
<path d="M31.2941 36.1765C32.0738 36.1765 32.7059 35.5444 32.7059 34.7647C32.7059 33.985 32.0738 33.353 31.2941 33.353C30.5144 33.353 29.8823 33.985 29.8823 34.7647C29.8823 35.5444 30.5144 36.1765 31.2941 36.1765Z" fill="#292F33"/>
<path d="M48.2354 53.1177C49.0151 53.1177 49.6471 52.4856 49.6471 51.7059C49.6471 50.9262 49.0151 50.2941 48.2354 50.2941C47.4557 50.2941 46.8236 50.9262 46.8236 51.7059C46.8236 52.4856 47.4557 53.1177 48.2354 53.1177Z" fill="#292F33"/>
<path d="M27.0589 44.647C27.8386 44.647 28.4706 44.015 28.4706 43.2353C28.4706 42.4556 27.8386 41.8235 27.0589 41.8235C26.2792 41.8235 25.6471 42.4556 25.6471 43.2353C25.6471 44.015 26.2792 44.647 27.0589 44.647Z" fill="#292F33"/>
<path d="M48.2354 36.1765C49.0151 36.1765 49.6471 35.5444 49.6471 34.7647C49.6471 33.985 49.0151 33.353 48.2354 33.353C47.4557 33.353 46.8236 33.985 46.8236 34.7647C46.8236 35.5444 47.4557 36.1765 48.2354 36.1765Z" fill="#292F33"/>
<path d="M31.2941 53.1176C30.9327 53.1176 30.5713 52.9793 30.296 52.704C29.744 52.152 29.744 51.2598 30.296 50.7078L40.1783 40.8254C40.7303 40.2734 41.6225 40.2734 42.1745 40.8254C42.7265 41.3774 42.7265 42.2696 42.1745 42.8216L32.2922 52.704C32.0169 52.9793 31.6555 53.1176 31.2941 53.1176Z" fill="#DD2E44"/>
</svg>
