<svg width="70" height="60" viewBox="0 0 70 60" fill="none" xmlns="http://www.w3.org/2000/svg">
<g opacity="0.8">
<path d="M29.1667 0C18.5377 0 11.1774 9.74875 12.5 19.1667C5.59644 19.1667 0 25.1247 0 31.6667C0 39.4548 5.91695 45 12.5 45H24.1667V39.1667C24.1667 33.2234 29.0568 28.3333 35 28.3333C40.9432 28.3333 45.8333 33.2234 45.8333 39.1667V45H55.8333C64.3074 45 70 39.4414 70 32.5C70 26.6953 65.9118 20.9919 60 20C60 10 50.8333 5.83333 44.1667 9.16667C41.6667 4.16667 36.2897 0 29.1667 0ZM35 31.6667C30.8738 31.6667 27.5 35.0405 27.5 39.1667V45.5729C26.4535 47.0625 25.8333 48.8746 25.8333 50.8333C25.8333 55.8959 29.9374 60 35 60C40.0626 60 44.1667 55.8959 44.1667 50.8333C44.1667 48.8746 43.5465 47.0625 42.5 45.5729V39.1667C42.5 35.0405 39.1262 31.6667 35 31.6667ZM35 35C37.3372 35 39.1667 36.8295 39.1667 39.1667V42.6562C37.9174 42.0183 36.4989 41.6667 35 41.6667C33.5011 41.6667 32.0826 42.0183 30.8333 42.6562V39.1667C30.8333 36.8295 32.6628 35 35 35ZM35 48.3333C36.3807 48.3333 37.5 49.4526 37.5 50.8333C37.5 52.214 36.3807 53.3333 35 53.3333C33.6193 53.3333 32.5 52.214 32.5 50.8333C32.5 49.4526 33.6193 48.3333 35 48.3333Z" fill="#33334F"/>
</g>
</svg>
