<svg width="18" height="17" viewBox="0 0 18 17" fill="none" xmlns="http://www.w3.org/2000/svg">
<path opacity="0.2" d="M4.03906 2.4624H16.0391C16.8521 2.4624 17.5391 3.1494 17.5391 3.9624V12.2124C17.5391 13.0254 16.8521 13.7124 16.0391 13.7124H8.89956L6.47406 16.3807C6.42556 16.4337 6.35806 16.4624 6.28906 16.4624C6.25881 16.4624 6.22831 16.4569 6.19881 16.4457C6.10256 16.4084 6.03906 16.3157 6.03906 16.2124V13.7124H4.03906C3.22606 13.7124 2.53906 13.0254 2.53906 12.2124V3.9624C2.53906 3.1494 3.22606 2.4624 4.03906 2.4624Z" fill="#B8B8D2"/>
<path fill-rule="evenodd" clip-rule="evenodd" d="M7.23586 11.4052H15.0025C15.306 11.4052 15.5808 11.1304 15.5808 10.8269V2.34493C15.5808 2.0414 15.306 1.76662 15.0025 1.76662H2.66512C2.36159 1.76662 2.0868 2.0414 2.0868 2.34493V10.8269C2.0868 11.1304 2.36159 11.4052 2.66512 11.4052H5.6852V13.111L7.23586 11.4052ZM5.16857 15.1123C5.11871 15.1668 5.04931 15.1963 4.97837 15.1963C4.94727 15.1963 4.91591 15.1907 4.88558 15.1791C4.78663 15.1408 4.72134 15.0455 4.72134 14.9393V12.369H2.66512C1.82926 12.369 1.12295 11.6627 1.12295 10.8269V2.34493C1.12295 1.50908 1.82926 0.802766 2.66512 0.802766H15.0025C15.8383 0.802766 16.5446 1.50908 16.5446 2.34493V10.8269C16.5446 11.6627 15.8383 12.369 15.0025 12.369H7.66226L5.16857 15.1123Z" fill="#9696C0"/>
<path fill-rule="evenodd" clip-rule="evenodd" d="M2.66336 0.947219C1.90735 0.947219 1.26577 1.5888 1.26577 2.34481V10.8267C1.26577 11.5827 1.90735 12.2243 2.66336 12.2243H4.86416V14.9392C4.86416 14.9856 4.89266 15.0272 4.93568 15.044C4.94946 15.0492 4.96324 15.0516 4.97661 15.0516C5.0074 15.0516 5.03786 15.0388 5.05999 15.0147C5.06004 15.0147 5.05994 15.0148 5.05999 15.0147L7.59654 12.2243H15.0007C15.7567 12.2243 16.3983 11.5827 16.3983 10.8267V2.34481C16.3983 1.5888 15.7567 0.947219 15.0007 0.947219H2.66336ZM0.97661 2.34481C0.97661 1.42911 1.74765 0.658062 2.66336 0.658062H15.0007C15.9164 0.658062 16.6875 1.42911 16.6875 2.34481V10.8267C16.6875 11.7424 15.9164 12.5135 15.0007 12.5135H7.72446L5.27379 15.2094C5.19621 15.2942 5.08763 15.3408 4.97661 15.3408C4.92789 15.3408 4.87908 15.3319 4.83231 15.3141C4.6776 15.2542 4.575 15.105 4.575 14.9392V12.5135H2.66336C1.74765 12.5135 0.97661 11.7424 0.97661 10.8267V2.34481Z" fill="#9696C0"/>
<path fill-rule="evenodd" clip-rule="evenodd" d="M0.832031 2.345C0.832031 1.34944 1.6678 0.513672 2.66336 0.513672H15.0007C15.9963 0.513672 16.832 1.34944 16.832 2.345V10.8269C16.832 11.8225 15.9963 12.6582 15.0007 12.6582H7.78842L5.38078 15.3069C5.27559 15.4218 5.12787 15.4856 4.97661 15.4856C4.91027 15.4856 4.844 15.4735 4.78079 15.4494C4.5706 15.368 4.43042 15.1651 4.43042 14.9394V12.6582H2.66336C1.6678 12.6582 0.832031 11.8225 0.832031 10.8269V2.345ZM2.66336 1.09199C1.9872 1.09199 1.41034 1.66884 1.41034 2.345V10.8269C1.41034 11.5031 1.9872 12.0799 2.66336 12.0799H5.00874V14.8564L7.53258 12.0799H15.0007C15.6769 12.0799 16.2537 11.5031 16.2537 10.8269V2.345C16.2537 1.66884 15.6769 1.09199 15.0007 1.09199H2.66336ZM5.16645 15.1127C5.16653 15.1127 5.16637 15.1128 5.16645 15.1127V15.1127ZM5.16645 15.1127C5.16653 15.1127 5.16637 15.1128 5.16645 15.1127V15.1127ZM4.88419 15.1793C4.88382 15.1792 4.88345 15.179 4.88308 15.1789L4.88419 15.1793Z" fill="#9696C0"/>
<path fill-rule="evenodd" clip-rule="evenodd" d="M0.832031 2.345C0.832031 1.34944 1.6678 0.513672 2.66336 0.513672H15.0007C15.9963 0.513672 16.832 1.34944 16.832 2.345V10.8269C16.832 11.8225 15.9963 12.6582 15.0007 12.6582H7.78842L5.38078 15.3069C5.27559 15.4218 5.12787 15.4856 4.97661 15.4856C4.91027 15.4856 4.844 15.4735 4.78079 15.4494C4.5706 15.368 4.43042 15.1651 4.43042 14.9394V12.6582H2.66336C1.6678 12.6582 0.832031 11.8225 0.832031 10.8269V2.345ZM2.66336 1.09199C1.9872 1.09199 1.41034 1.66884 1.41034 2.345V10.8269C1.41034 11.5031 1.9872 12.0799 2.66336 12.0799H5.00874V14.8564L7.53258 12.0799H15.0007C15.6769 12.0799 16.2537 11.5031 16.2537 10.8269V2.345C16.2537 1.66884 15.6769 1.09199 15.0007 1.09199H2.66336ZM5.16645 15.1127C5.16653 15.1127 5.16637 15.1128 5.16645 15.1127V15.1127ZM5.16645 15.1127C5.16653 15.1127 5.16637 15.1128 5.16645 15.1127V15.1127ZM4.88419 15.1793C4.88382 15.1792 4.88345 15.179 4.88308 15.1789L4.88419 15.1793Z" fill="#9696C0"/>
</svg>
