<svg width="93" height="86" viewBox="0 0 93 86" fill="none" xmlns="http://www.w3.org/2000/svg">
<path d="M93.0002 76.5926V85.3227L2.57466 84.8377C2.41299 81.9276 2.40099 75.4286 2.78899 72.7125C3.177 69.9965 9.09408 68.3475 12.0041 67.8624L16.8542 71.7425L21.7043 67.8624L26.5543 70.2875L35.2844 67.3774C36.5778 69.9641 40.9105 75.1375 47.8946 75.1375C54.8787 75.1375 58.5648 69.9641 59.5348 67.3774L69.7199 71.2575C69.5582 71.4192 70.2049 71.1605 74.085 68.8325C77.965 75.0405 82.1684 71.4192 83.7851 68.8325C84.2701 69.1558 86.0161 69.9965 89.1202 70.7725C92.2242 71.5485 93.0002 74.9759 93.0002 76.5926Z" fill="#EDEDF8"/>
<path opacity="0.4" d="M12.5011 47.9918C9.009 47.6038 7.48932 50.7402 7.16598 52.3569C3.77096 46.5369 7.16592 43.6269 10.5609 40.7168L10.561 40.7167C13.9561 37.8066 26.5662 40.7167 27.0513 38.7767C29.9613 26.5016 28.9913 28.5916 33.3563 21.3165C45.4815 10.1613 54.6966 17.9214 60.5167 21.8015C66.3368 25.6815 65.3668 40.7167 66.8218 49.9319C66.8218 48.4768 69.7318 44.5968 72.6419 40.7167C73.1269 37.3217 76.0369 33.9266 78.462 34.4116C80.887 34.8966 82.827 36.3517 83.312 41.6867C90.6841 45.1788 88.6471 52.8419 86.7071 56.2369C84.9287 54.6203 80.305 50.9989 76.0369 49.4468C76.0369 51.3869 70.5402 54.7819 67.7918 56.2369V60.602C65.5285 62.2187 60.3227 65.3551 57.6067 64.9671C55.1816 64.4821 53.7266 62.057 53.7266 56.2369C60.0317 51.8719 60.5167 45.5668 60.0317 39.2617C59.5467 32.9566 48.3915 31.9866 39.6614 31.5016C37.3334 39.2617 30.608 41.8484 27.5363 42.1717L25.1112 51.3869C22.3629 50.4169 15.9931 48.3799 12.5011 47.9918Z" fill="#A6A6BF"/>
<path d="M31.6481 75.9355C30.9026 75.9355 30.2982 76.5399 30.2982 77.2854V83.0564C30.2982 83.8019 30.9026 84.4062 31.6481 84.4062C32.3936 84.4062 32.998 83.8019 32.998 83.0564V77.2854C32.998 76.5399 32.3936 75.9355 31.6481 75.9355Z" fill="#A7A7BF"/>
<path d="M60.5034 75.9355C59.7579 75.9355 59.1536 76.5399 59.1536 77.2854V83.0564C59.1536 83.8019 59.7579 84.4062 60.5034 84.4062C61.2489 84.4062 61.8533 83.8019 61.8533 83.0564V77.2854C61.8533 76.5399 61.2489 75.9355 60.5034 75.9355Z" fill="#A7A7BF"/>
<path d="M20.7096 47.223C17.575 45.6557 11.698 45.6377 11.4493 45.6377C10.704 45.6377 10.0998 46.2417 10.0996 46.9872C10.0994 47.7325 10.7035 48.3371 11.4489 48.3374C12.9676 48.3383 17.3745 48.5738 19.5023 49.6376C19.6961 49.7347 19.902 49.7804 20.1048 49.7804C20.6 49.7804 21.0767 49.5068 21.3132 49.034C21.6467 48.3671 21.3764 47.5563 20.7096 47.223Z" fill="#A7A7BF"/>
<path d="M7.12099 73.05C6.3755 73.05 5.77112 73.6544 5.77112 74.3999V83.0565C5.77112 83.802 6.3755 84.4064 7.12099 84.4064C7.86648 84.4064 8.47086 83.802 8.47086 83.0565V74.3999C8.47086 73.6546 7.86666 73.05 7.12099 73.05Z" fill="#A7A7BF"/>
<path d="M89.0124 68.0089L83.546 65.2761C83.5143 65.2602 83.4945 65.2282 83.4945 65.1929L83.4949 62.4455C85.7389 60.9003 87.3273 58.4576 87.7247 55.5908C88.734 53.8466 89.2659 51.8765 89.2659 49.8733C89.2659 46.1378 87.4671 42.815 84.6909 40.7239C84.8536 40.182 84.9376 39.623 84.9376 39.0526C84.9376 35.5239 81.7431 32.653 77.8168 32.653C73.8905 32.653 70.696 35.5239 70.696 39.0526C70.696 39.6237 70.7791 40.1829 70.9418 40.7245C69.2865 41.9714 67.9813 43.6574 67.1955 45.6067C66.8609 42.3186 66.5125 38.4315 66.1782 33.9035C65.7373 27.9291 63.5886 22.8839 59.9649 19.3134C56.3686 15.7699 51.5658 13.897 46.0758 13.897C40.5858 13.897 35.7829 15.7699 32.1871 19.3132C28.5633 22.8839 26.4147 27.9291 25.9737 33.9033C25.8565 35.4895 25.7378 36.9929 25.6184 38.4239H12.8922C8.17019 38.4239 4.32847 42.2656 4.32847 46.9877V47.0681C4.32847 48.1678 4.58836 49.2691 5.08025 50.2527L5.77121 51.6348V53.8387C5.77121 57.3314 7.49238 60.4655 10.0994 62.3515V64.3011C10.0994 64.5511 9.9315 64.7735 9.69123 64.8423L4.11843 66.4346C1.6937 67.1272 0.000244141 69.3723 0.000244141 71.894V83.0567C0.000244141 83.8022 0.604626 84.4066 1.35011 84.4066C2.0956 84.4066 2.69998 83.8022 2.69998 83.0567V71.894C2.69998 70.5711 3.58838 69.3935 4.86013 69.0301L10.4331 67.4378C10.6342 67.3804 10.8251 67.3025 11.0069 67.21L14.4278 70.6309V83.0567C14.4278 83.8022 15.0322 84.4066 15.7777 84.4066C16.5232 84.4066 17.1276 83.8022 17.1276 83.0567V70.6309L20.5724 67.186C21.0328 67.4119 21.4916 67.5433 21.8278 67.6394L23.1962 68.0303C21.3419 69.3489 20.199 71.4995 20.199 73.8315V83.0564C20.199 83.8018 20.8034 84.4062 21.5488 84.4062C22.2943 84.4062 22.8987 83.8018 22.8987 83.0564V73.8315C22.8987 72.0817 23.9331 70.4943 25.5338 69.7873L33.2515 66.3786C35.6699 71.2218 40.6119 74.307 46.076 74.307C51.5604 74.307 56.4858 71.2286 58.9028 66.3797L66.6181 69.7873C68.2189 70.4943 69.2532 72.0817 69.2532 73.8315V83.0564C69.2532 83.8018 69.8576 84.4062 70.6031 84.4062C71.3486 84.4062 71.953 83.8018 71.953 83.0564V73.8315C71.953 72.1048 71.3254 70.4781 70.2482 69.2135L72.3372 68.1691L73.9054 69.6594C75.0022 70.7018 76.4093 71.2227 77.817 71.2227C79.2241 71.2227 80.6319 70.7014 81.7284 69.6594L83.2964 68.1693L87.8053 70.4236C88.8209 70.9313 89.4518 71.9521 89.4518 73.0877V83.0565C89.4518 83.802 90.0562 84.4064 90.8016 84.4064C91.5471 84.4064 92.1515 83.802 92.1515 83.0565V73.0877C92.1513 70.9232 90.9485 68.977 89.0124 68.0089ZM77.8166 35.3525C80.2543 35.3525 82.2377 37.0123 82.2377 39.0524C82.2377 39.1379 82.2309 39.2227 82.224 39.3073C80.8666 38.7389 79.3778 38.4239 77.8166 38.4239C76.2556 38.4239 74.767 38.7389 73.4099 39.3071C73.4029 39.2225 73.3955 39.1379 73.3955 39.0524C73.3955 37.0123 75.3789 35.3525 77.8166 35.3525ZM15.7779 68.163L12.702 65.0871C12.7655 64.8337 12.7995 64.57 12.7995 64.3009V63.7314C13.6487 64.0102 14.5443 64.1756 15.471 64.2034C15.5749 64.2066 15.6782 64.208 15.7817 64.208C16.8054 64.208 17.8048 64.0534 18.7559 63.7584V64.3004C18.7559 64.5932 18.7859 64.8589 18.8394 65.1015L15.7779 68.163ZM15.552 61.5045C11.6475 61.3877 8.47095 57.9486 8.47095 53.8387V51.3161C8.47095 51.1066 8.42217 50.8998 8.3284 50.7124L7.4949 49.0454C7.18965 48.4345 7.0282 47.751 7.0282 47.0681V46.9877C7.0282 43.7543 9.65883 41.1237 12.8922 41.1237H24.5274V46.7274C24.5274 47.6329 24.3134 48.5398 23.9082 49.3498L23.227 50.7122C23.1332 50.8998 23.0845 51.1064 23.0845 51.3159V54.2014C23.0845 56.1945 22.2965 58.057 20.8656 59.4453C19.4355 60.833 17.5473 61.565 15.552 61.5045ZM26.8338 66.2618L22.5695 65.0435C21.4554 64.7253 21.4556 64.6011 21.4556 64.3007L21.456 62.441C21.9093 62.1269 22.3417 61.7754 22.7461 61.3829C23.0182 61.1188 23.2716 60.8409 23.5092 60.553C23.7261 60.9928 24.0585 61.3771 24.4881 61.6552C25.5702 62.3558 27.6121 63.5198 30.6149 64.5918L26.8338 66.2618ZM46.0758 71.6075C41.6839 71.6075 37.7062 69.1525 35.7227 65.2874L37.6875 64.4195C39.221 63.7422 40.2118 62.2216 40.2118 60.5452V57.3063C42.0255 58.035 44.0046 58.4369 46.0758 58.4369C48.147 58.4369 50.1259 58.035 51.9398 57.3063V60.5452C51.9398 62.2216 52.9306 63.7424 54.4641 64.4195L56.4286 65.2872C54.4464 69.1567 50.4841 71.6075 46.0758 71.6075ZM57.7808 62.933L55.5548 61.9498C54.9988 61.7043 54.6395 61.1528 54.6395 60.545V55.9042C58.9775 53.0898 61.8534 48.2042 61.8534 42.6593V40.1282C61.8534 38.4831 61.154 36.9313 59.9345 35.8709C57.2223 33.512 51.0829 29.3956 40.4391 28.3312C39.6992 28.2571 39.0358 28.7981 38.9616 29.5402C38.8875 30.282 39.4287 30.9435 40.1706 31.0176C50.0705 32.0075 55.6926 35.7596 58.1629 37.9081C58.7926 38.4556 59.1537 39.265 59.1537 40.1282V42.6593C59.1537 49.8703 53.287 55.737 46.076 55.737C38.865 55.737 32.9983 49.8703 32.9983 42.6593V41.5301C32.9983 41.0113 33.2859 40.5362 33.7675 40.2588C35.4552 39.2871 37.6809 37.4869 38.7001 34.4296C38.9359 33.7224 38.5536 32.9578 37.8463 32.7221C37.1393 32.4863 36.3745 32.8686 36.1388 33.5759C35.3879 35.8286 33.7022 37.1811 32.4203 37.9192C31.1115 38.6728 30.2983 40.0565 30.2983 41.5302V42.6594C30.2983 48.2045 33.1741 53.09 37.5122 55.9044V60.5452C37.5122 61.153 37.153 61.7043 36.597 61.95L34.3708 62.9332C30.0231 61.77 27.2374 60.2191 25.9554 59.3892C25.9298 59.3726 25.9154 59.3537 25.9226 59.3111C26.3934 56.5278 27.6033 48.4997 28.6663 34.1022C29.0583 28.79 30.931 24.3408 34.0819 21.2361C37.1623 18.2011 41.3097 16.5967 46.0758 16.5967C50.8419 16.5967 54.9893 18.2011 58.0697 21.2361C61.2206 24.3408 63.0933 28.7898 63.4855 34.102C64.5483 48.499 65.7581 56.5275 66.2292 59.3109C66.2364 59.3537 66.222 59.3726 66.1962 59.3892C64.9124 60.2202 62.1266 61.7702 57.7808 62.933ZM72.1385 65.1927C72.1385 65.2282 72.1189 65.26 72.0872 65.2759L67.858 67.3905C67.8078 67.3669 67.7596 67.3405 67.7088 67.318L61.537 64.5921C64.5384 63.5205 66.5799 62.3571 67.6634 61.6555C68.5943 61.0528 69.0763 59.956 68.8911 58.8608C68.881 58.8008 68.87 58.7351 68.8592 58.6703C69.6184 60.1969 70.7536 61.4919 72.1385 62.4455V65.1927ZM79.8681 67.7026C78.7178 68.7962 76.9154 68.796 75.7648 67.7026L74.5102 66.5104C74.7218 66.1137 74.8381 65.6637 74.8381 65.1927V63.7563C75.7808 64.0488 76.7808 64.2079 77.8164 64.2079C78.8519 64.2079 79.852 64.0488 80.7946 63.7563L80.7944 65.1924C80.7944 65.6637 80.9107 66.1137 81.1225 66.5106L79.8681 67.7026ZM77.8166 61.5079C74.0791 61.5079 70.9575 58.7092 70.5556 54.9978C70.534 54.7989 70.4687 54.6074 70.3639 54.4368C69.5155 53.0551 69.0671 51.477 69.0671 49.873C69.0671 45.0487 72.992 41.1237 77.8166 41.1237C82.6411 41.1237 86.5661 45.0487 86.5661 49.8731C86.5661 50.8031 86.4144 51.7243 86.1223 52.6037C82.2894 48.7097 75.5467 47.1837 75.2216 47.112C74.8224 47.024 74.4045 47.1219 74.0856 47.3781C73.7668 47.6343 73.5813 48.0213 73.5813 48.4302C73.5813 48.439 73.5197 49.3755 72.534 50.3613C72.0068 50.8884 72.0068 51.7432 72.534 52.2702C73.0611 52.7973 73.9159 52.7973 74.4428 52.2702C75.202 51.511 75.648 50.7405 75.9097 50.0898C78.1811 50.7646 82.8954 52.4687 85.0111 55.4598C84.4106 58.9387 81.397 61.5079 77.8166 61.5079Z" fill="#A7A7BF"/>
<path d="M85.0307 74.8335C84.2852 74.8335 83.6808 75.4379 83.6808 76.1834V83.0564C83.6808 83.8018 84.2852 84.4062 85.0307 84.4062C85.7762 84.4062 86.3806 83.8018 86.3806 83.0564V76.1834C86.3806 75.4379 85.7762 74.8335 85.0307 74.8335Z" fill="#A7A7BF"/>
<path d="M46.0759 7.31465C45.1672 7.31465 44.4303 6.55886 44.4303 5.6269V2.42017C44.4303 1.48822 45.1672 0.732422 46.0759 0.732422C46.9847 0.732422 47.7214 1.48822 47.7214 2.42017V5.6269C47.7214 6.55886 46.9847 7.31465 46.0759 7.31465Z" fill="#A6A6BF"/>
<path d="M32.0745 11.2165C31.811 11.3601 31.5234 11.4286 31.2396 11.4286C30.6613 11.4286 30.0989 11.1452 29.7889 10.6384L28.1993 8.0389C27.737 7.28327 28.0114 6.31711 28.8116 5.88104C29.6123 5.44466 30.6355 5.70384 31.0973 6.45917L32.6869 9.05866C33.1491 9.81429 32.8747 10.7804 32.0745 11.2165Z" fill="#A6A6BF"/>
<path d="M62.3629 10.6384C62.053 11.1452 61.4906 11.4286 60.9123 11.4286C60.6285 11.4286 60.3406 11.3601 60.0773 11.2165C59.2769 10.7803 59.0027 9.81417 59.4649 9.05871L61.0545 6.45928C61.5167 5.70368 62.5399 5.44465 63.3401 5.88117C64.1405 6.31738 64.4147 7.28352 63.9525 8.03897L62.3629 10.6384Z" fill="#A6A6BF"/>
</svg>
