<svg width="20" height="20" viewBox="0 0 20 20" fill="none"
     xmlns="http://www.w3.org/2000/svg">
  <path d="M17.5006 6.66663C16.2923 6.66663 15.6173 7.86663 15.8923 8.75829L12.934 11.725C12.684 11.65 12.3173 11.65 12.0673 11.725L9.94232 9.59996C10.2257 8.70829 9.55065 7.49996 8.33398 7.49996C7.12565 7.49996 6.44232 8.69996 6.72565 9.59996L2.92565 13.3916C2.03398 13.1166 0.833984 13.7916 0.833984 15C0.833984 15.9166 1.58398 16.6666 2.50065 16.6666C3.70898 16.6666 4.38398 15.4666 4.10898 14.575L7.90065 10.775C8.15065 10.85 8.51732 10.85 8.76732 10.775L10.8923 12.9C10.609 13.7916 11.284 15 12.5007 15C13.709 15 14.3923 13.8 14.109 12.9L17.0756 9.94163C17.9673 10.2166 19.1673 9.54163 19.1673 8.33329C19.1673 7.41663 18.4173 6.66663 17.5006 6.66663Z"
        fill="white"/>
  <path d="M12.5 7.5L13.2833 5.775L15 5L13.2833 4.225L12.5 2.5L11.7333 4.225L10 5L11.7333 5.775L12.5 7.5Z"
        fill="white"/>
  <path d="M2.91732 9.16667L3.33398 7.5L5.00065 7.08333L3.33398 6.66667L2.91732 5L2.50065 6.66667L0.833984 7.08333L2.50065 7.5L2.91732 9.16667Z"
        fill="white"/>
</svg>
