<svg fill="none" height="40" viewBox="0 0 40 40" width="40" xmlns="http://www.w3.org/2000/svg">
  <g opacity="0.2">
    <path
      d="M25.9658 24.3743C25.4764 24.4169 25.0045 24.1428 24.8449 23.6782C24.2153 21.8461 22.6475 17.2839 21.6204 14.2946C21.4675 13.8496 21.6487 13.3594 22.0447 13.1052C27.6026 9.53662 28.6268 6.26062 29.8248 4.2026C30.7591 2.59751 32.0285 3.37513 32.6484 4.06637C32.7271 4.15415 32.7809 4.25623 32.8176 4.36828C34.8175 10.4744 38.8499 22.7155 39.4069 24.1335C40.1096 25.9222 39.5666 28.6371 36.3726 26.6887C32.5823 24.4235 28.2806 24.1724 25.9658 24.3743Z"
      fill="#B8B8D2"/>
    <path
      d="M11.9121 16.9041C11.9997 16.8912 12.0867 16.8737 12.1699 16.8437L20.5622 13.8184C21.0194 13.6536 21.5289 13.8413 21.7698 14.2634L27.2223 23.815C27.4003 24.1268 27.2912 24.32 26.9328 24.3412C26.15 24.3874 24.7659 24.5313 24.0076 24.9785C23.8702 25.0595 23.7235 25.1261 23.5754 25.1852C23.5026 25.2142 23.4357 25.2483 23.3736 25.286C22.8661 25.5941 22.9098 26.433 23.3171 26.8651C23.8658 27.4473 24.6225 28.218 25.4653 29.0017C26.7312 30.1788 26.7018 31.361 26.4995 31.9056C26.471 31.9822 26.4429 32.0588 26.4188 32.137C26.2785 32.5934 25.7873 33.6897 24.6589 35.2738C23.4165 37.018 21.732 36.0005 21.0451 35.2738C19.7126 33.6148 16.9926 30.2178 15.6595 28.5189C15.3955 28.1824 14.9409 28.0815 14.5159 28.0339C14.0673 27.9836 13.6655 27.7542 13.3497 27.4892C13.0022 27.1977 12.459 26.9877 12.0445 27.172C10.4862 27.7782 9.73516 26.9194 9.55441 26.4143C9.19381 25.4942 8.35354 23.3294 7.87727 22.0304C7.35999 20.6197 8.27273 19.9852 9.83456 19.1686C10.2656 18.9432 10.4151 18.4268 10.5244 17.9528C10.6824 17.2675 11.4005 16.979 11.9121 16.9041Z"
      fill="#B8B8D2"/>
  </g>
  <path clip-rule="evenodd"
        d="M21.895 24.4263L21.1642 24.5905C21.0373 24.6191 20.9399 24.6393 20.8593 24.6554L23.4032 27.2374C24.4145 28.2319 24.649 29.7933 24.0084 31.0512L24.0054 31.0572L22.7147 33.5657C22.3241 34.3598 21.6278 34.9451 20.8045 35.2128C20.5927 35.2817 20.3754 35.3277 20.1563 35.352C19.0348 35.4804 17.9353 35.0293 17.2269 34.154L17.2198 34.1452L11.8721 27.441C11.0505 27.483 10.2603 27.1051 9.77561 26.4471L8.79586 26.7657C7.5095 27.184 6.12689 26.4802 5.70852 25.1937L4.15185 20.4068C3.73347 19.1203 4.43761 17.7378 5.72397 17.3195L6.70372 17.0009C6.7099 15.974 7.36659 15.021 8.39651 14.686L16.3084 12.1131C16.4249 12.0681 16.5036 12.0314 16.6099 11.9818C16.7048 11.9376 16.8218 11.883 17.0075 11.803L17.7029 11.5035L18.3837 11.1255C21.6239 9.32642 24.1775 6.46356 25.5427 2.99091L25.5711 2.91855L25.6064 2.84927C25.6275 2.80796 25.6491 2.76984 25.6706 2.73491C25.8461 2.40903 26.0912 2.13158 26.3874 1.916L26.399 1.90758C26.4845 1.8465 26.5618 1.80284 26.6084 1.77796C26.6126 1.77521 26.6171 1.77231 26.6218 1.76931C26.6871 1.72761 26.8456 1.62909 27.0652 1.55767C27.2588 1.49473 27.4283 1.47194 27.5444 1.46193C27.5576 1.46079 27.5704 1.4598 27.5826 1.45893C27.6529 1.44743 27.7293 1.43959 27.8111 1.43771L27.8355 1.43715L27.8599 1.43732C27.9574 1.43804 28.0456 1.44749 28.1224 1.4607C28.5379 1.51394 28.8901 1.67169 29.1673 1.85562C29.2729 1.92491 29.3526 1.99046 29.4085 2.03927C29.6652 2.25833 29.9831 2.60867 30.1526 3.12974L36.8981 23.8727C37.0711 24.4048 37.0143 24.8839 36.9328 25.2128L36.9295 25.226L36.926 25.2391C36.9195 25.2634 36.8988 25.3442 36.867 25.4373L36.8629 25.4492L36.8587 25.4611C36.7398 25.7921 36.5421 26.1305 36.2372 26.4175C36.1846 26.4714 36.1214 26.5288 36.0464 26.5848C36.0441 26.5865 36.0418 26.5882 36.0395 26.5899C35.8349 26.7417 35.5976 26.8717 35.326 26.96C34.9659 27.0772 34.6243 27.0944 34.334 27.0681L34.3085 27.0658L34.2831 27.0626C34.1695 27.0487 34.0769 27.0257 34.0142 27.0077C33.9969 27.0027 33.9806 26.9977 33.9658 26.993C33.823 26.9578 33.6557 26.9039 33.4803 26.818C33.4137 26.7891 33.3342 26.7493 33.2493 26.695C30.1035 24.6909 26.356 23.8795 22.6778 24.3303L21.895 24.4263ZM34.1175 25.3381C34.1197 25.3395 34.1221 25.3406 34.1247 25.3415L34.1322 25.3437C34.138 25.3453 34.144 25.3469 34.1497 25.3505C34.2258 25.3946 34.3105 25.4217 34.3974 25.4393C34.4098 25.4422 34.4216 25.4465 34.4333 25.4508C34.4487 25.4564 34.4638 25.4619 34.4795 25.4638C34.594 25.4742 34.7114 25.466 34.8278 25.4282C34.9188 25.3986 35.003 25.3536 35.0825 25.2942C35.0835 25.2934 35.0844 25.2924 35.0851 25.2912C35.0859 25.29 35.0866 25.2887 35.0873 25.2873C35.0886 25.2847 35.09 25.282 35.0921 25.2805C35.2106 25.1837 35.2917 25.0585 35.3426 24.9167C35.3534 24.885 35.3605 24.8579 35.3693 24.8251C35.4059 24.6773 35.4161 24.5241 35.3662 24.3709L28.6207 3.6279C28.5709 3.47472 28.4725 3.35674 28.356 3.25878C28.3312 3.23685 28.3095 3.21918 28.2805 3.20039C28.1564 3.11724 28.0167 3.0621 27.864 3.05355C27.8613 3.05353 27.8587 3.05219 27.856 3.05084C27.8534 3.0495 27.8507 3.04815 27.8481 3.04813C27.8393 3.04833 27.832 3.05159 27.8247 3.05486C27.8174 3.05812 27.8101 3.06138 27.8013 3.06158L27.7757 3.06235C27.7055 3.06438 27.6345 3.06642 27.5634 3.08955C27.5268 3.10144 27.4962 3.1218 27.4652 3.14247C27.4501 3.15248 27.435 3.16257 27.419 3.1718C27.4085 3.17781 27.3981 3.18309 27.3877 3.18834C27.37 3.19729 27.3525 3.20617 27.3353 3.21841C27.2126 3.30772 27.1194 3.42271 27.0595 3.55863C27.0574 3.56286 27.054 3.56616 27.0507 3.56945C27.0474 3.57274 27.044 3.57603 27.0419 3.58026C25.5364 7.40976 22.7242 10.5579 19.1656 12.5339L22.4818 22.7314C26.522 22.2362 30.6475 23.1266 34.1175 25.3381ZM26.5669 1.80529C26.5658 1.80605 26.5662 1.80577 26.5669 1.80529V1.80529ZM8.89467 16.2179C8.45426 16.3611 8.21305 16.8348 8.35626 17.2752L8.61571 18.073L6.22214 18.8514C5.78172 18.9946 5.54051 19.4683 5.68373 19.9087L7.2404 24.6955C7.38361 25.1359 7.85728 25.3771 8.2977 25.2338L10.6913 24.4555L10.9507 25.2533C11.0939 25.6937 11.5676 25.9348 12.008 25.7916L12.4915 25.6344L18.4791 33.1407C18.842 33.589 19.4017 33.8181 19.9763 33.7512C20.0905 33.7388 20.201 33.7152 20.3063 33.6809C20.7324 33.5424 21.0827 33.2414 21.2745 32.8438L22.573 30.3202C22.9036 29.6711 22.7715 28.8689 22.2663 28.3786L17.8467 23.8929L19.9658 23.2037C20.1424 23.1553 20.3216 23.1194 20.5007 23.0836C20.6043 23.0628 20.7079 23.0421 20.8109 23.0189L17.6446 13.2825C17.5463 13.3248 17.4491 13.3694 17.352 13.414C17.1848 13.4907 17.0176 13.5675 16.8445 13.6327L8.89467 16.2179Z"
        fill="#B8B8D2" fill-rule="evenodd" stroke="#B8B8D2" stroke-width="0.8"/>
</svg>
