<svg width="226" height="102" viewBox="0 0 226 102" fill="none" xmlns="http://www.w3.org/2000/svg">
<path opacity="0.2" d="M87.1895 43L85 45.1895L90.8021 50.9916L85 56.7937L87.1895 58.9832L95.1811 50.9916L87.1895 43Z" fill="#33334F"/>
<path opacity="0.4" d="M95.0991 43L92.9097 45.1895L98.7118 50.9916L92.9097 56.7937L95.0991 58.9832L103.091 50.9916L95.0991 43Z" fill="#33334F"/>
<path opacity="0.7" d="M103.008 43L100.819 45.1895L106.594 50.9916L100.819 56.7937L103.008 58.9832L111 50.9916L103.008 43Z" fill="#33334F"/>
<circle opacity="0.2" cx="175" cy="51" r="51" fill="url(#paint0_linear)"/>
<path d="M186.475 37.8843C186.475 43.7693 181.704 48.5401 175.819 48.5401C169.934 48.5401 165.164 43.7693 165.164 37.8843C165.164 31.9993 169.934 27.2285 175.819 27.2285C181.704 27.2285 186.475 31.9993 186.475 37.8843Z" fill="url(#paint1_linear)"/>
<path d="M191.393 63.2943C191.393 69.632 184.054 74.7697 175 74.7697C165.946 74.7697 158.606 69.632 158.606 63.2943C158.606 56.9565 165.946 51.8188 175 51.8188C184.054 51.8188 191.393 56.9565 191.393 63.2943Z" fill="url(#paint2_linear)"/>
<path d="M156.967 67.3927C156.967 63.3184 166.84 67.06 170.914 67.06L185.656 60.0156C189.73 60.0156 193.033 63.3184 193.033 67.3927C193.033 71.4669 189.73 74.7697 185.656 74.7697H164.344C160.27 74.7697 156.967 71.4669 156.967 67.3927Z" fill="url(#paint3_linear)"/>
<path d="M180.494 66.28C180.494 73.1626 179.744 67.4427 173.247 67.4427C166.75 67.4427 156.967 73.1626 156.967 66.28C156.967 59.3974 163.917 52.8597 170.414 52.8597C176.911 52.8597 180.494 59.3974 180.494 66.28Z" fill="url(#paint4_linear)"/>
<path d="M169.506 66.2798C169.506 73.1624 170.256 67.4424 176.753 67.4424C183.249 67.4424 193.033 73.1624 193.033 66.2798C193.033 59.3971 186.082 52.8594 179.586 52.8594C173.089 52.8594 169.506 59.3971 169.506 66.2798Z" fill="url(#paint5_linear)"/>
<path d="M161.226 41.5235C161.226 46.1434 157.481 49.8886 152.861 49.8886C148.241 49.8886 144.496 46.1434 144.496 41.5235C144.496 36.9036 148.241 33.1584 152.861 33.1584C157.481 33.1584 161.226 36.9036 161.226 41.5235Z" fill="url(#paint6_linear)"/>
<path d="M153.842 65.9716C153.842 66.0093 153.842 66.0466 153.843 66.0836C153.847 66.409 153.848 66.7347 153.843 67.06C153.842 67.1096 153.842 67.1593 153.842 67.209C153.842 67.5818 153.865 67.9487 153.909 68.3083C154.041 69.3766 153.294 70.4796 152.218 70.4796H143.853C140.654 70.4796 138.062 67.8867 138.062 64.6883C138.062 64.6796 138.062 64.6709 138.062 64.6622C138.063 64.3799 138.062 64.0971 138.062 63.8149C138.062 60.8682 139.684 58.002 141.987 56.005C144.339 53.8515 148.047 52.4624 152.218 52.4624C154.611 52.4624 156.852 52.9197 158.772 53.7164C159.25 53.9148 159.327 54.5425 158.96 54.9076C155.958 57.7367 153.842 61.7971 153.842 65.9716Z" fill="url(#paint7_linear)"/>
<path d="M188.773 41.5235C188.773 46.1434 192.518 49.8886 197.138 49.8886C201.758 49.8886 205.503 46.1434 205.503 41.5235C205.503 36.9036 201.758 33.1584 197.138 33.1584C192.518 33.1584 188.773 36.9036 188.773 41.5235Z" fill="url(#paint8_linear)"/>
<path d="M196.158 65.9716C196.158 66.0093 196.157 66.0466 196.157 66.0836C196.153 66.409 196.151 66.7347 196.156 67.06C196.157 67.1096 196.158 67.1593 196.158 67.209C196.158 67.5818 196.135 67.9487 196.09 68.3083C195.959 69.3766 196.705 70.4796 197.782 70.4796H206.147C209.345 70.4796 211.938 67.8867 211.938 64.6883C211.938 64.6796 211.938 64.6709 211.938 64.6622C211.937 64.3799 211.938 64.0971 211.938 63.8149C211.938 60.8682 210.315 58.002 208.012 56.005C205.661 53.8515 201.953 52.4624 197.782 52.4624C195.388 52.4624 193.147 52.9197 191.228 53.7164C190.75 53.9148 190.673 54.5425 191.039 54.9076C194.042 57.7367 196.158 61.7971 196.158 65.9716Z" fill="url(#paint9_linear)"/>
<path opacity="0.2" d="M35 86C54.33 86 70 70.33 70 51C70 31.67 54.33 16 35 16C15.67 16 0 31.67 0 51C0 70.33 15.67 86 35 86Z" fill="url(#paint10_linear)"/>
<path d="M18.4383 40.9531C23.331 32.2001 34.393 29.0707 43.146 33.9634L44.5089 31.5252C34.4093 25.8797 21.6454 29.4906 16 39.5902L18.4383 40.9531Z" fill="url(#paint11_linear)"/>
<path fill-rule="evenodd" clip-rule="evenodd" d="M34.5438 67.4655C43.8001 67.4655 51.3038 59.9618 51.3038 50.7055C51.3038 41.4492 43.8001 33.9455 34.5438 33.9455C25.2875 33.9455 17.7838 41.4492 17.7838 50.7055C17.7838 59.9618 25.2875 67.4655 34.5438 67.4655ZM34.9603 40.9288C34.1426 40.9288 33.4797 41.5917 33.4797 42.4094V57.2157C33.4797 58.0334 34.1426 58.6963 34.9603 58.6963C35.7781 58.6963 36.441 58.0334 36.441 57.2157V42.4094C36.441 41.5917 35.7781 40.9288 34.9603 40.9288ZM39.4019 46.8522C39.4019 46.0344 40.0648 45.3715 40.8826 45.3715C41.7003 45.3715 42.3632 46.0344 42.3632 46.8522V57.2166C42.3632 58.0343 41.7003 58.6972 40.8826 58.6972C40.0648 58.6972 39.4019 58.0343 39.4019 57.2166V46.8522ZM27.5575 49.8133C27.5575 48.9956 28.2204 48.3327 29.0381 48.3327C29.8558 48.3327 30.5187 48.9956 30.5187 49.8133V57.2164C30.5187 58.0341 29.8558 58.697 29.0381 58.697C28.2204 58.697 27.5575 58.0341 27.5575 57.2164V49.8133Z" fill="url(#paint12_linear)"/>
<path d="M25.9754 67.1621C34.7284 72.0548 45.7904 68.9254 50.6831 60.1724L53.1214 61.5353C47.4759 71.635 34.7121 75.2458 24.6124 69.6004L25.9754 67.1621Z" fill="url(#paint13_linear)"/>
<defs>
<linearGradient id="paint0_linear" x1="198" y1="12" x2="167.5" y2="91" gradientUnits="userSpaceOnUse">
<stop stop-color="#9CDCFF"/>
<stop offset="1" stop-color="#1464C9"/>
</linearGradient>
<linearGradient id="paint1_linear" x1="175" y1="27.2285" x2="175" y2="74.7697" gradientUnits="userSpaceOnUse">
<stop stop-color="#18AEFF"/>
<stop offset="1" stop-color="#0165E2"/>
</linearGradient>
<linearGradient id="paint2_linear" x1="175" y1="27.2285" x2="175" y2="74.7697" gradientUnits="userSpaceOnUse">
<stop stop-color="#18AEFF"/>
<stop offset="1" stop-color="#0165E2"/>
</linearGradient>
<linearGradient id="paint3_linear" x1="175" y1="27.2285" x2="175" y2="74.7697" gradientUnits="userSpaceOnUse">
<stop stop-color="#18AEFF"/>
<stop offset="1" stop-color="#0165E2"/>
</linearGradient>
<linearGradient id="paint4_linear" x1="175" y1="27.2285" x2="175" y2="74.7697" gradientUnits="userSpaceOnUse">
<stop stop-color="#18AEFF"/>
<stop offset="1" stop-color="#0165E2"/>
</linearGradient>
<linearGradient id="paint5_linear" x1="175" y1="27.2285" x2="175" y2="74.7697" gradientUnits="userSpaceOnUse">
<stop stop-color="#18AEFF"/>
<stop offset="1" stop-color="#0165E2"/>
</linearGradient>
<linearGradient id="paint6_linear" x1="175" y1="27.2285" x2="175" y2="74.7697" gradientUnits="userSpaceOnUse">
<stop stop-color="#18AEFF"/>
<stop offset="1" stop-color="#0165E2"/>
</linearGradient>
<linearGradient id="paint7_linear" x1="175" y1="27.2285" x2="175" y2="74.7697" gradientUnits="userSpaceOnUse">
<stop stop-color="#18AEFF"/>
<stop offset="1" stop-color="#0165E2"/>
</linearGradient>
<linearGradient id="paint8_linear" x1="175" y1="27.2285" x2="175" y2="74.7697" gradientUnits="userSpaceOnUse">
<stop stop-color="#18AEFF"/>
<stop offset="1" stop-color="#0165E2"/>
</linearGradient>
<linearGradient id="paint9_linear" x1="175" y1="27.2285" x2="175" y2="74.7697" gradientUnits="userSpaceOnUse">
<stop stop-color="#18AEFF"/>
<stop offset="1" stop-color="#0165E2"/>
</linearGradient>
<linearGradient id="paint10_linear" x1="10.2514" y1="75.7552" x2="59.6711" y2="26.3354" gradientUnits="userSpaceOnUse">
<stop stop-color="#17EBAC"/>
<stop offset="1" stop-color="#50D2FB"/>
</linearGradient>
<linearGradient id="paint11_linear" x1="34.5607" y1="28.8584" x2="34.5607" y2="72.2671" gradientUnits="userSpaceOnUse">
<stop stop-color="#00C389"/>
<stop offset="1" stop-color="#00C3AC"/>
</linearGradient>
<linearGradient id="paint12_linear" x1="34.5607" y1="28.8584" x2="34.5607" y2="72.2671" gradientUnits="userSpaceOnUse">
<stop stop-color="#00C389"/>
<stop offset="1" stop-color="#00C3AC"/>
</linearGradient>
<linearGradient id="paint13_linear" x1="34.5607" y1="28.8584" x2="34.5607" y2="72.2671" gradientUnits="userSpaceOnUse">
<stop stop-color="#00C389"/>
<stop offset="1" stop-color="#00C3AC"/>
</linearGradient>
</defs>
</svg>
