<svg width="40" height="40" viewBox="0 0 40 40" fill="none" xmlns="http://www.w3.org/2000/svg">
<circle cx="20" cy="20" r="20" fill="#1DB393"/>
<g clip-path="url(#clip0_12317_3133)">
<path d="M14.5348 17.7997C14.5348 16.2319 15.806 14.9608 17.3737 14.9608C18.6024 14.9608 19.6617 15.7659 20.0431 16.8674L23.4964 13.4141L21.8439 11.7616C21.6533 11.571 21.3354 11.571 21.1448 11.7616L20.3397 12.5667C19.916 12.3336 19.471 12.143 18.9838 12.0159L18.9839 10.8718C18.9839 10.5752 18.7509 10.3633 18.4754 10.3633H16.2721C15.9755 10.3633 15.7636 10.5752 15.7636 10.8718V12.0157C15.2764 12.1428 14.8314 12.3335 14.4077 12.5665L13.6026 11.7614C13.412 11.5708 13.0941 11.5708 12.9035 11.7614L11.357 13.308C11.1663 13.4986 11.1663 13.8165 11.357 14.0071L12.1621 14.8122C11.929 15.2359 11.7384 15.6809 11.6113 16.1681L10.446 16.1683C10.1494 16.1683 9.9375 16.4013 9.9375 16.6768V18.8589C9.9375 19.1555 10.1494 19.3674 10.446 19.3674H11.59C11.7171 19.8547 11.9077 20.2996 12.1408 20.7233L11.3357 21.5284C11.1237 21.7191 11.145 22.0369 11.3357 22.2276L12.9882 23.8801L16.4415 20.4267C15.3187 20.0876 14.5349 19.0283 14.5349 17.7996L14.5348 17.7997Z" fill="white"/>
<path d="M16.3516 23.4427L23.9017 15.8926L27.1525 19.1433L19.6023 26.6935L16.3516 23.4427Z" fill="white"/>
<path d="M29.8533 15.4908L27.5865 13.2027C27.3111 12.9272 26.8874 12.9272 26.6119 13.2027L25.1289 14.6857L28.3915 17.9482L29.8744 16.4653C30.1288 16.1899 30.1288 15.7451 29.8533 15.4908H29.8533Z" fill="white"/>
<path d="M14.3024 25.5116C14.2177 25.5963 14.154 25.7235 14.1118 25.8506L13.4337 28.7953C13.3278 29.2825 13.7727 29.7275 14.26 29.6215L17.2048 28.9435C17.3319 28.9224 17.4379 28.8588 17.5438 28.7529L18.3912 27.9055L15.1499 24.6641L14.3024 25.5116Z" fill="white"/>
</g>
<defs>
<clipPath id="clip0_12317_3133">
<rect width="21.25" height="21.25" fill="white" transform="translate(9.375 9.375)"/>
</clipPath>
</defs>
</svg>
