<svg width="41" height="40" viewBox="0 0 41 40" fill="none" xmlns="http://www.w3.org/2000/svg">
<rect width="40.5277" height="40" rx="20" fill="#FFEFD9"/>
<path d="M26 27.22H14V15H21V13H14C12.9 13 12 13.9 12 15V27C12 28.1 12.9 29 14 29H26C27.1 29 28 28.1 28 27V20H26V27.22Z" fill="#B27100"/>
<path d="M28 10H26V13H23C23.01 13.01 23 15 23 15H26V17.99C26.01 18 28 17.99 28 17.99V15H31V13H28V10Z" fill="#B27100"/>
<path d="M24 17H16V19H24V17Z" fill="#B27100"/>
<path d="M16 20V22H24V20H21H16Z" fill="#B27100"/>
<path d="M24 23H16V25H24V23Z" fill="#B27100"/>
</svg>
