<svg width="50" height="54" viewBox="0 0 50 54" fill="none" xmlns="http://www.w3.org/2000/svg">
<g opacity="0.8">
<path d="M0 4.80769V8.65385C0 9.18489 0.430495 9.61538 0.961538 9.61538H3.84615V4.80769C3.84615 4.27665 4.27665 3.84615 4.80769 3.84615C5.33874 3.84615 5.76923 4.27665 5.76923 4.80769V49.0385C5.77241 51.6924 7.92303 53.843 10.5769 53.8462H11.5385C14.1924 53.843 16.343 51.6924 16.3462 49.0385V45.1923C16.3462 43.5992 17.6376 42.3077 19.2308 42.3077H46.1538V4.80769C46.1507 2.1538 44.0001 0.00317896 41.3462 0H4.80769C2.1538 0.00317896 0.00317896 2.1538 0 4.80769ZM18.3654 33.5577H17.4038V34.5192C17.4038 35.0503 16.9734 35.4808 16.4423 35.4808C15.9113 35.4808 15.4808 35.0503 15.4808 34.5192V33.5577H14.5192C13.9882 33.5577 13.5577 33.1272 13.5577 32.5962C13.5577 32.0651 13.9882 31.6346 14.5192 31.6346H15.4808V30.6731C15.4808 30.142 15.9113 29.7115 16.4423 29.7115C16.9734 29.7115 17.4038 30.142 17.4038 30.6731V31.6346H18.3654C18.8964 31.6346 19.3269 32.0651 19.3269 32.5962C19.3269 33.1272 18.8964 33.5577 18.3654 33.5577ZM28 37.2192C28.25 37.4606 28.3502 37.8181 28.2622 38.1543C28.1742 38.4905 27.9117 38.7531 27.5755 38.8411C27.2393 38.9291 26.8818 38.8288 26.6404 38.5788L25.9615 37.8981L25.2817 38.5779C25.0403 38.8278 24.6828 38.9281 24.3466 38.8401C24.0104 38.7521 23.7479 38.4896 23.6599 38.1534C23.5719 37.8172 23.6722 37.4597 23.9221 37.2183L24.6019 36.5385L23.9221 35.8587C23.6722 35.6172 23.5719 35.2597 23.6599 34.9235C23.7479 34.5874 24.0104 34.3248 24.3466 34.2368C24.6828 34.1488 25.0403 34.2491 25.2817 34.499L25.9615 35.1788L26.6413 34.499C27.0186 34.1346 27.6184 34.1399 27.9892 34.5107C28.3601 34.8816 28.3654 35.4814 28.001 35.8587L27.3212 36.5385L28 37.2192ZM37.4039 33.5577H36.4423V34.5192C36.4423 35.0503 36.0118 35.4808 35.4808 35.4808C34.9497 35.4808 34.5192 35.0503 34.5192 34.5192V33.5577H33.5577C33.0267 33.5577 32.5962 33.1272 32.5962 32.5962C32.5962 32.0651 33.0267 31.6346 33.5577 31.6346H34.5192V30.6731C34.5192 30.142 34.9497 29.7115 35.4808 29.7115C36.0118 29.7115 36.4423 30.142 36.4423 30.6731V31.6346H37.4039C37.9349 31.6346 38.3654 32.0651 38.3654 32.5962C38.3654 33.1272 37.9349 33.5577 37.4039 33.5577ZM39.4231 21.7173L40.1029 21.0375C40.3443 20.7875 40.7018 20.6873 41.038 20.7753C41.3742 20.8633 41.6367 21.1258 41.7247 21.462C41.8127 21.7982 41.7125 22.1557 41.4625 22.3971L40.7827 23.0769L41.4625 23.7567C41.7125 23.9981 41.8127 24.3557 41.7247 24.6918C41.6367 25.028 41.3742 25.2906 41.038 25.3786C40.7018 25.4666 40.3443 25.3663 40.1029 25.1163L39.4231 24.4365L38.7433 25.1163C38.5019 25.3663 38.1443 25.4666 37.8082 25.3786C37.472 25.2906 37.2094 25.028 37.1214 24.6918C37.0335 24.3557 37.1337 23.9981 37.3837 23.7567L38.0635 23.0769L37.3837 22.3971C37.1337 22.1557 37.0335 21.7982 37.1214 21.462C37.2094 21.1258 37.472 20.8633 37.8082 20.7753C38.1443 20.6873 38.5019 20.7875 38.7433 21.0375L39.4231 21.7173ZM33.5577 12.5962H34.5192V11.6346C34.5192 11.1036 34.9497 10.6731 35.4808 10.6731C36.0118 10.6731 36.4423 11.1036 36.4423 11.6346V12.5962H37.4039C37.9349 12.5962 38.3654 13.0266 38.3654 13.5577C38.3654 14.0887 37.9349 14.5192 37.4039 14.5192H36.4423V15.4808C36.4423 16.0118 36.0118 16.4423 35.4808 16.4423C34.9497 16.4423 34.5192 16.0118 34.5192 15.4808V14.5192H33.5577C33.0267 14.5192 32.5962 14.0887 32.5962 13.5577C32.5962 13.0266 33.0267 12.5962 33.5577 12.5962ZM23.9231 8.93462C23.6731 8.6932 23.5729 8.33569 23.6609 7.99951C23.7489 7.66333 24.0114 7.40079 24.3476 7.31279C24.6838 7.2248 25.0413 7.32504 25.2827 7.575L25.9625 8.25481L26.6423 7.575C26.8837 7.32504 27.2412 7.2248 27.5774 7.31279C27.9136 7.40079 28.1761 7.66333 28.2641 7.99951C28.3521 8.33569 28.2519 8.6932 28.0019 8.93462L27.3212 9.61538L28.001 10.2952C28.2509 10.5366 28.3512 10.8941 28.2632 11.2303C28.1752 11.5665 27.9126 11.829 27.5765 11.917C27.2403 12.005 26.8828 11.9048 26.6413 11.6548L25.9615 10.975L25.2817 11.6548C25.0403 11.9048 24.6828 12.005 24.3466 11.917C24.0104 11.829 23.7479 11.5665 23.6599 11.2303C23.5719 10.8941 23.6722 10.5366 23.9221 10.2952L24.6019 9.61538L23.9231 8.93462ZM21.4365 24.5596C21.812 24.1842 22.4207 24.1842 22.7962 24.5596L23.9192 25.6827L31.0519 18.55C31.4292 18.1856 32.0289 18.1908 32.3998 18.5617C32.7707 18.9326 32.7759 19.5323 32.4115 19.9096L24.599 27.7221C24.2236 28.0975 23.6149 28.0975 23.2394 27.7221L21.4365 25.9192C21.0615 25.5441 21.0611 24.9362 21.4356 24.5606L21.4365 24.5596ZM14.5192 12.5962H15.4808V11.6346C15.4808 11.1036 15.9113 10.6731 16.4423 10.6731C16.9734 10.6731 17.4038 11.1036 17.4038 11.6346V12.5962H18.3654C18.8964 12.5962 19.3269 13.0266 19.3269 13.5577C19.3269 14.0887 18.8964 14.5192 18.3654 14.5192H17.4038V15.4808C17.4038 16.0118 16.9734 16.4423 16.4423 16.4423C15.9113 16.4423 15.4808 16.0118 15.4808 15.4808V14.5192H14.5192C13.9882 14.5192 13.5577 14.0887 13.5577 13.5577C13.5577 13.0266 13.9882 12.5962 14.5192 12.5962ZM10.4606 22.3971C10.2106 22.1557 10.1104 21.7982 10.1984 21.462C10.2864 21.1258 10.5489 20.8633 10.8851 20.7753C11.2213 20.6873 11.5788 20.7875 11.8202 21.0375L12.5 21.7173L13.1798 21.0375C13.4212 20.7875 13.7787 20.6873 14.1149 20.7753C14.4511 20.8633 14.7136 21.1258 14.8016 21.462C14.8896 21.7982 14.7894 22.1557 14.5394 22.3971L13.8596 23.0769L14.5394 23.7567C14.7894 23.9981 14.8896 24.3557 14.8016 24.6918C14.7136 25.028 14.4511 25.2906 14.1149 25.3786C13.7787 25.4666 13.4212 25.3663 13.1798 25.1163L12.5 24.4365L11.8202 25.1163C11.5788 25.3663 11.2213 25.4666 10.8851 25.3786C10.5489 25.2906 10.2864 25.028 10.1984 24.6918C10.1104 24.3557 10.2106 23.9981 10.4606 23.7567L11.1404 23.0769L10.4606 22.3971Z" fill="#33334F"/>
<path d="M50.0001 49.0382V45.192C50.0001 44.661 49.5696 44.2305 49.0385 44.2305H19.2308C18.6998 44.2305 18.2693 44.661 18.2693 45.192V49.0382C18.2697 50.8491 17.5376 52.5832 16.2395 53.8459H45.1924C47.8463 53.8427 49.9969 51.6921 50.0001 49.0382Z" fill="#33334F"/>
</g>
</svg>
