<svg width="96" height="78" viewBox="0 0 96 78" fill="none" xmlns="http://www.w3.org/2000/svg">
<path d="M42.4355 64.7603H53.4654V72.6666C53.4654 72.6818 53.462 72.6968 53.4552 72.7108C53.4485 72.7248 53.4386 72.7375 53.4261 72.7482C53.4137 72.7589 53.3989 72.7674 53.3826 72.7732C53.3663 72.779 53.3489 72.782 53.3312 72.782H42.5698C42.5342 72.782 42.5 72.7698 42.4749 72.7482C42.4497 72.7266 42.4355 72.6972 42.4355 72.6666V64.7603Z" fill="#CBCBD5"/>
<path d="M53.6346 71.7014H41.9414V76.5888H53.6346V71.7014Z" fill="#EDEDF8"/>
<path d="M54.0165 77.8729C53.7808 77.8729 53.5547 77.7788 53.3881 77.6113C53.2214 77.4438 53.1278 77.2167 53.1278 76.9798V69.4768H43.21V76.9798C43.21 77.2167 43.1164 77.4438 42.9497 77.6113C42.783 77.7788 42.557 77.8729 42.3213 77.8729C42.0856 77.8729 41.8596 77.7788 41.6929 77.6113C41.5262 77.4438 41.4326 77.2167 41.4326 76.9798V67.6907H54.9051V76.9798C54.9046 77.2165 54.8108 77.4434 54.6443 77.6107C54.4777 77.7781 54.252 77.8723 54.0165 77.8729Z" fill="#A7A7BF"/>
<path d="M60.484 75.9946H35.416V78.0001H60.484V75.9946Z" fill="#A7A7BF"/>
<path d="M88.8315 0.89502H6.7481C3.51203 0.89502 0.888672 3.53115 0.888672 6.78298V62.6125C0.888672 65.8643 3.51203 68.5004 6.7481 68.5004H88.8315C92.0675 68.5004 94.6909 65.8643 94.6909 62.6125V6.78298C94.6909 3.53115 92.0675 0.89502 88.8315 0.89502Z" fill="#EDEDF8"/>
<path d="M88.1035 6.65796H7.47363V55.7918H88.1035V6.65796Z" fill="white"/>
<path d="M89.8742 69.3934H5.70539C4.19271 69.3919 2.74243 68.7873 1.6728 67.7125C0.603174 66.6376 0.00156836 65.1803 0 63.6603V5.73516C0.00104554 4.21476 0.60242 2.75692 1.6721 1.68165C2.74179 0.606384 4.19237 0.00157681 5.70539 0H89.8742C91.3872 0.00157681 92.8378 0.606384 93.9075 1.68165C94.9772 2.75692 95.5785 4.21476 95.5796 5.73516V63.6603C95.578 65.1803 94.9764 66.6376 93.9068 67.7125C92.8372 68.7873 91.3869 69.3919 89.8742 69.3934ZM5.70539 1.78604C4.66376 1.78761 3.66526 2.20425 2.9289 2.94457C2.19254 3.68489 1.77842 4.68845 1.77738 5.73516V63.6603C1.77895 64.7066 2.19329 65.7097 2.9296 66.4496C3.6659 67.1895 4.6641 67.6058 5.70539 67.6074H89.8742C90.9155 67.6058 91.9137 67.1895 92.65 66.4496C93.3863 65.7097 93.8006 64.7066 93.8022 63.6603V5.73516C93.8012 4.68845 93.387 3.68489 92.6507 2.94457C91.9143 2.20425 90.9158 1.78761 89.8742 1.78604H5.70539Z" fill="#A7A7BF"/>
<path d="M57.1107 37.4395L40.9775 22.6045L40.9668 44.5215L45.8625 39.8372L48.7378 46.3918L53.224 44.4238L50.3486 37.8692L57.1107 37.4395Z" fill="#EDEDF8"/>
<path d="M57.1104 35.639L38.8413 18.8398L38.8291 43.6587L44.373 38.3541L47.629 45.7766L52.7091 43.5481L49.453 36.1256L57.1104 35.639ZM50.6299 42.7368L48.4402 43.6974L44.9119 35.6543L40.4089 39.9629L40.4176 22.4333L53.3211 34.2986L47.1015 34.6938L50.6299 42.7368Z" fill="#A6A6BF"/>
<path d="M88.9932 56.6828H6.58594V5.76489L70.0152 5.76489C70.2509 5.76489 70.477 5.85898 70.6436 6.02645C70.8103 6.19392 70.9039 6.42107 70.9039 6.65791C70.9039 6.89475 70.8103 7.12189 70.6436 7.28937C70.477 7.45684 70.2509 7.55093 70.0152 7.55093H8.36332V54.8967H87.2158V7.55093H74.9716C74.7359 7.55093 74.5099 7.45684 74.3432 7.28937C74.1766 7.12189 74.0829 6.89475 74.0829 6.65791C74.0829 6.42107 74.1766 6.19392 74.3432 6.02645C74.5099 5.85898 74.7359 5.76489 74.9716 5.76489H88.9932V56.6828Z" fill="#A7A7BF"/>
<path d="M47.9886 63.2791C48.9866 63.2791 49.7956 62.4661 49.7956 61.4633C49.7956 60.4604 48.9866 59.6475 47.9886 59.6475C46.9907 59.6475 46.1816 60.4604 46.1816 61.4633C46.1816 62.4661 46.9907 63.2791 47.9886 63.2791Z" fill="white"/>
<path d="M47.9893 63.8745C47.5147 63.8745 47.0508 63.7331 46.6562 63.4682C46.2616 63.2032 45.9541 62.8267 45.7725 62.3861C45.5909 61.9455 45.5434 61.4607 45.6359 60.993C45.7285 60.5253 45.9571 60.0957 46.2926 59.7585C46.6282 59.4213 47.0557 59.1916 47.5212 59.0986C47.9866 59.0055 48.4691 59.0533 48.9075 59.2358C49.346 59.4183 49.7207 59.7273 49.9844 60.1238C50.248 60.5203 50.3888 60.9865 50.3888 61.4634C50.3882 62.1027 50.1353 62.7157 49.6854 63.1678C49.2355 63.6198 48.6255 63.874 47.9893 63.8745ZM47.9893 60.2449C47.7115 60.2449 47.4422 60.3405 47.2261 60.5159C47.01 60.6913 46.8603 60.9357 46.8018 61.2086C46.7434 61.4815 46.7798 61.7662 46.905 62.0154C47.0301 62.2645 47.2365 62.4631 47.4897 62.5778C47.7429 62.6926 48.0275 62.7167 48.2963 62.6462C48.565 62.5756 48.8015 62.4146 48.9665 62.19C49.1314 61.9655 49.2147 61.6909 49.2026 61.412C49.1904 61.1332 49.0835 60.8669 48.8997 60.6577C48.7858 60.528 48.6456 60.4241 48.4887 60.3529C48.3317 60.2818 48.1615 60.2449 47.9893 60.2449Z" fill="#A7A7BF"/>
<path d="M35.1311 60.5706H17.6357V62.3566H35.1311V60.5706Z" fill="#A7A7BF"/>
</svg>
