<svg width="82" height="98" viewBox="0 0 82 98" fill="none" xmlns="http://www.w3.org/2000/svg">
<path d="M43 94.7297L5 47.7297H81L43 94.7297Z" fill="#DFDFF3"/>
<path d="M81 47.7297H5L18.1034 26.7297H67.8966L81 47.7297Z" fill="#EDEDF8"/>
<path d="M60.3079 47.7297L68 26.7297H18L25.6921 47.7297H60.3079Z" fill="white"/>
<path d="M60 47.7297L43 26.7297L26 47.7297H60Z" fill="#EDEDF8"/>
<path d="M26 47.7297L43.5 94.7297L61 47.7297H26Z" fill="#EDEDF8"/>
<path d="M81.9809 47.2617C81.9904 47.2056 81.9959 47.1507 81.9986 47.0932C82.0014 47.026 82 46.9616 81.9945 46.8945C81.9891 46.8369 81.9809 46.7821 81.9672 46.7259C81.9522 46.6601 81.9316 46.5971 81.907 46.5341C81.8947 46.5012 81.892 46.4669 81.877 46.4354C81.866 46.4121 81.8469 46.3943 81.8346 46.371C81.8223 46.3477 81.8168 46.323 81.8032 46.2997L68.1333 24.3738C68.0704 24.2738 67.9966 24.1833 67.9132 24.1038C67.9118 24.1025 67.9105 24.1025 67.9091 24.1011C67.7915 23.9901 67.6521 23.9106 67.5031 23.8476C67.484 23.8394 67.4717 23.8229 67.4511 23.8147C67.4361 23.8092 67.4197 23.812 67.4047 23.8078C67.2666 23.7613 67.1244 23.7297 66.9754 23.7297H15.0299C14.8823 23.7297 14.7415 23.7613 14.6061 23.8065C14.5911 23.8106 14.5761 23.8078 14.5624 23.8133C14.5419 23.8202 14.5296 23.8366 14.5105 23.8448C14.3683 23.9038 14.2343 23.9805 14.1181 24.0847C14.1113 24.0915 14.1017 24.0956 14.0949 24.1011C14.0101 24.1806 13.9349 24.2724 13.8721 24.3724L0.202191 46.2984C0.188521 46.3203 0.183053 46.3463 0.17075 46.3696C0.158447 46.3929 0.13931 46.4107 0.128374 46.434C0.113337 46.4655 0.110603 46.4998 0.096933 46.5327C0.0723272 46.5957 0.0518224 46.6588 0.0367856 46.7245C0.0244827 46.7807 0.0149138 46.8369 0.00944581 46.8945C-0.000123105 46.9616 -0.00149009 47.0274 0.00124388 47.0932C0.00397786 47.1507 0.00944581 47.2056 0.0190147 47.2617C0.0299506 47.3275 0.0477215 47.3919 0.0695933 47.4563C0.0873641 47.5098 0.106502 47.5618 0.131108 47.6139C0.143411 47.6386 0.147512 47.666 0.161181 47.6907C0.183053 47.7304 0.215861 47.7606 0.240467 47.7976C0.259605 47.8263 0.27054 47.8578 0.293779 47.8853L39.9214 97.1994C39.9241 97.2035 39.9269 97.2063 39.9296 97.209L39.9364 97.2186C39.9405 97.2241 39.9474 97.2254 39.9515 97.2309C40.0636 97.3666 40.203 97.4694 40.3547 97.5516C40.3957 97.5735 40.434 97.5927 40.4764 97.6105C40.6418 97.6804 40.8168 97.7297 40.9999 97.7297C41.1558 97.7297 41.313 97.7023 41.4688 97.6461C41.4921 97.6379 41.5071 97.6187 41.5303 97.6091C41.6 97.5804 41.6547 97.5338 41.7176 97.494C41.8215 97.4283 41.9186 97.3597 41.9992 97.2707C42.0183 97.2501 42.0471 97.2405 42.0648 97.2186L81.7075 47.8853C81.7293 47.8578 81.7403 47.825 81.7608 47.7976C81.7868 47.7606 81.8182 47.7304 81.8401 47.6907C81.8537 47.666 81.8578 47.6386 81.8701 47.6139C81.8947 47.5618 81.9139 47.5111 81.9317 47.4563C81.9508 47.3919 81.9699 47.3289 81.9809 47.2617ZM43.8733 26.4718H65.0056L58.362 44.3483L43.8733 26.4718ZM55.8987 45.657H26.1025L40.9999 27.2763L55.8987 45.657ZM23.5421 44.4676L16.982 26.4718H38.1279L23.5421 44.4676ZM56.857 48.3978L40.7607 91.7097L24.9734 48.3978H56.857ZM67.2844 28.1889L78.1752 45.6584H60.7926L67.2844 28.1889ZM14.7032 28.2067L21.0638 45.657H3.82471L14.7032 28.2067ZM22.0631 48.3978L36.8798 89.0484L4.2143 48.3978H22.0631ZM44.2766 90.0981L59.7741 48.3978H77.7856L44.2766 90.0981Z" fill="#A7A7BF"/>
<path d="M41.6764 0.729736C40.7146 0.729736 39.9346 1.39915 39.9346 2.22497V9.92738C39.9346 10.7532 40.7146 11.4226 41.6764 11.4226C42.6382 11.4226 43.4182 10.7532 43.4182 9.92738V2.22497C43.4182 1.39915 42.6382 0.729736 41.6764 0.729736Z" fill="#A6A6BF"/>
<path d="M56.8997 6.95791C56.297 6.33174 55.32 6.33174 54.7168 6.95791L49.0946 12.7987C48.4919 13.4249 48.4919 14.4403 49.0946 15.0664C49.3962 15.3796 49.7912 15.5361 50.1861 15.5361C50.5811 15.5361 50.9761 15.3794 51.2775 15.0664L56.8997 9.22561C57.5024 8.59943 57.5024 7.58409 56.8997 6.95791Z" fill="#A6A6BF"/>
<path d="M34.2571 12.7987L28.635 6.95791C28.0324 6.33174 27.0554 6.33174 26.452 6.95791C25.8493 7.58409 25.8493 8.59943 26.452 9.22561L32.0743 15.0664C32.3757 15.3796 32.7707 15.5361 33.1657 15.5361C33.5607 15.5361 33.9556 15.3794 34.2571 15.0664C34.8598 14.4403 34.8598 13.4249 34.2571 12.7987Z" fill="#A6A6BF"/>
</svg>
