<svg fill="none" height="12" viewBox="0 0 12 12" width="12" xmlns="http://www.w3.org/2000/svg">
  <path
    d="M8.98044 5.89449C9.10377 5.77116 9.10377 5.577 8.98044 5.45367C8.86127 5.33034 8.66295 5.33034 8.54407 5.45367L6.30888 7.68469V0.313043C6.30888 0.141105 6.17221 0 6.00028 0C5.82834 0 5.68723 0.141105 5.68723 0.313043V7.68469L3.45649 5.45367C3.33316 5.33034 3.13456 5.33034 3.01567 5.45367C2.89235 5.577 2.89235 5.77116 3.01567 5.89449L5.78001 8.65882C5.89917 8.77798 6.0975 8.77798 6.22082 8.65882L8.98044 5.89449ZM11.1715 7.9183C11.1715 7.74636 11.3081 7.6097 11.4801 7.6097C11.652 7.6097 11.7931 7.74636 11.7931 7.9183V10.9515C11.7931 11.1234 11.652 11.2646 11.4801 11.2646H0.515495C0.343558 11.2646 0.206897 11.1234 0.206897 10.9515V7.9183C0.206897 7.74636 0.343558 7.6097 0.515495 7.6097C0.687433 7.6097 0.828538 7.74636 0.828538 7.9183V10.6429H11.1715V7.9183Z"
    fill="#33334F"/>
  <path clip-rule="evenodd"
        d="M5.48034 0.51994C5.48034 0.233736 5.71407 0 6.00028 0C6.29032 0 6.51577 0.237611 6.51577 0.51994V7.39276L8.39665 5.51538C8.59675 5.30957 8.92797 5.30993 9.12799 5.51553C9.33082 5.71969 9.33044 6.04384 9.12686 6.24756M9.12686 6.24756L6.36461 9.01453C6.1625 9.20981 5.83503 9.21334 5.63371 9.01202L2.86938 6.24768C2.66569 6.044 2.66525 5.71981 2.86804 5.51561C3.06988 5.30774 3.40062 5.3121 3.60279 5.51427L5.48034 7.39206V0.51994M6.00028 0.413793C5.94261 0.413793 5.89413 0.462268 5.89413 0.51994V8.39113L3.31019 5.80687C3.31019 5.80687 3.31019 5.80686 3.31019 5.80687C3.26615 5.76283 3.20068 5.76676 3.16463 5.80416L3.162 5.80689C3.11947 5.84942 3.11944 5.91256 3.16197 5.95509L5.92631 8.71942C5.96303 8.75615 6.03147 8.75992 6.07606 8.71789L8.83401 5.95521C8.87654 5.91268 8.87667 5.8494 8.83414 5.80687L8.83163 5.80435C8.7937 5.7651 8.73044 5.76534 8.69302 5.80416L8.69025 5.80703L6.10198 8.39043V0.51994C6.10198 0.458393 6.05411 0.413793 6.00028 0.413793ZM0.515495 8.02349C0.457824 8.02349 0.413793 8.06752 0.413793 8.12519V11.1584C0.413793 11.22 0.46166 11.2646 0.515495 11.2646H11.4801C11.5377 11.2646 11.5862 11.2161 11.5862 11.1584V8.12519C11.5862 8.07136 11.5416 8.02349 11.4801 8.02349C11.4224 8.02349 11.3784 8.06752 11.3784 8.12519V11.0567H0.621642V8.12519C0.621642 8.07136 0.577041 8.02349 0.515495 8.02349ZM0 8.12519C0 7.83899 0.229292 7.6097 0.515495 7.6097C0.797824 7.6097 1.03544 7.83515 1.03544 8.12519V10.6429H10.9646V8.12519C10.9646 7.83899 11.1939 7.6097 11.4801 7.6097C11.7624 7.6097 12 7.83515 12 8.12519V11.1584C12 11.4446 11.7663 11.6783 11.4801 11.6783H0.515495C0.225456 11.6783 0 11.4407 0 11.1584V8.12519Z"
        fill="#33334F" fill-rule="evenodd"/>
</svg>
