<svg width="60" height="60" viewBox="0 0 60 60" fill="none" xmlns="http://www.w3.org/2000/svg">
<circle cx="30.0002" cy="30" r="30" fill="#70DFEE"/>
<path d="M30.0002 15.5C21.9927 15.5 15.5002 21.9924 15.5002 30C15.5002 38.0076 21.9927 44.5 30.0002 44.5C38.0096 44.5 44.5002 38.0076 44.5002 30C44.5002 21.9924 38.0096 15.5 30.0002 15.5ZM33.9544 35.5986C33.2411 36.3986 32.211 36.8695 30.864 37.0111V39.0625H29.1471V37.0217C26.9009 36.7916 25.5114 35.4853 24.9751 33.1064L27.6302 32.4143C27.8762 33.91 28.6904 34.6569 30.0728 34.6569C30.7188 34.6569 31.1968 34.4977 31.5012 34.1772C31.8057 33.8568 31.9579 33.471 31.9579 33.0179C31.9579 32.5488 31.8056 32.193 31.5012 31.9523C31.1968 31.7099 30.5188 31.4036 29.4692 31.0319C28.5258 30.7045 27.7877 30.3823 27.2567 30.0602C26.7257 29.7416 26.2938 29.2938 25.9628 28.7185C25.6318 28.1415 25.4654 27.4688 25.4654 26.7042C25.4654 25.7006 25.7628 24.7961 26.354 23.9925C26.9452 23.1907 27.8762 22.7004 29.1471 22.5216V20.9375H30.8641V22.5217C32.7828 22.7518 34.0254 23.8368 34.5899 25.7785L32.2252 26.7485C31.7632 25.4174 31.0516 24.7519 30.0853 24.7519C29.6002 24.7519 29.2108 24.9006 28.9188 25.198C28.625 25.4953 28.4781 25.8564 28.4781 26.2794C28.4781 26.7113 28.6197 27.0423 28.9029 27.2742C29.1843 27.5044 29.7915 27.7893 30.719 28.1309C31.7385 28.5026 32.5385 28.8548 33.1173 29.1858C33.6979 29.5169 34.1599 29.9753 34.5068 30.5576C34.852 31.1418 35.0253 31.8233 35.0253 32.6038C35.0253 33.802 34.6678 34.8003 33.9544 35.5986Z" fill="white"/>
</svg>
