<svg width="246" height="184" viewBox="0 0 246 184" fill="none" xmlns="http://www.w3.org/2000/svg">
<path opacity="0.2" d="M132.823 164.012H156.313V180.882C156.313 180.914 156.305 180.946 156.291 180.976C156.277 181.006 156.256 181.033 156.229 181.056C156.203 181.079 156.171 181.097 156.136 181.109C156.102 181.122 156.064 181.128 156.027 181.128H133.109C133.033 181.128 132.96 181.102 132.907 181.056C132.853 181.01 132.823 180.947 132.823 180.882V164.012Z" fill="#33334F"/>
<path d="M156.675 164.878H131.772V169.489H156.675V164.878Z" fill="#EDEDF8"/>
<path d="M157.487 182.997C156.985 182.997 156.504 182.796 156.149 182.438C155.794 182.081 155.594 181.596 155.594 181.091V165.082H134.473V181.091C134.473 181.596 134.274 182.081 133.919 182.438C133.564 182.796 133.083 182.997 132.581 182.997C132.079 182.997 131.597 182.796 131.242 182.438C130.887 182.081 130.688 181.596 130.688 181.091V161.271H159.379V181.091C159.378 181.596 159.179 182.08 158.824 182.437C158.469 182.794 157.989 182.995 157.487 182.997Z" fill="#A7A7BF"/>
<path d="M171.261 178.989H117.875V183.268H171.261V178.989Z" fill="#A7A7BF"/>
<path d="M231.629 18.7457H56.8221C49.9305 18.7457 44.3437 24.3705 44.3437 31.3091V150.434C44.3437 157.373 49.9305 162.998 56.8221 162.998H231.629C238.521 162.998 244.108 157.373 244.108 150.434V31.3091C244.108 24.3705 238.521 18.7457 231.629 18.7457Z" fill="#EDEDF8"/>
<path d="M230.081 31.042H58.3696V135.881H230.081V31.042Z" fill="#DBDBE5"/>
<path d="M233.85 164.903H54.6015C51.3801 164.9 48.2915 163.61 46.0136 161.317C43.7357 159.023 42.4545 155.914 42.4512 152.67V29.0734C42.4534 25.8293 43.7341 22.7186 46.0121 20.4243C48.2902 18.1299 51.3794 16.8394 54.6015 16.8361H233.85C237.072 16.8394 240.161 18.1299 242.439 20.4243C244.717 22.7186 245.998 25.8293 246 29.0734V152.67C245.997 155.914 244.716 159.023 242.438 161.317C240.16 163.61 237.071 164.9 233.85 164.903ZM54.6015 20.647C52.3832 20.6503 50.2568 21.5393 48.6886 23.119C47.1205 24.6986 46.2386 26.84 46.2363 29.0734V152.67C46.2397 154.903 47.1221 157.043 48.6901 158.622C50.2582 160.201 52.384 161.089 54.6015 161.092H233.85C236.067 161.089 238.193 160.201 239.761 158.622C241.329 157.043 242.212 154.903 242.215 152.67V29.0734C242.213 26.84 241.331 24.6986 239.763 23.119C238.195 21.5393 236.068 20.6503 233.85 20.647H54.6015Z" fill="#A7A7BF"/>
<path d="M144.226 72.3485C143.947 72.3485 143.679 72.237 143.482 72.0384C143.285 71.8399 143.174 71.5706 143.174 71.2899V45.6847C143.174 45.4039 143.285 45.1347 143.482 44.9362C143.679 44.7376 143.947 44.6261 144.226 44.6261C144.504 44.6261 144.772 44.7376 144.969 44.9362C145.166 45.1347 145.277 45.4039 145.277 45.6847V71.2899C145.277 71.5706 145.166 71.8399 144.969 72.0384C144.772 72.237 144.504 72.3485 144.226 72.3485Z" fill="white"/>
<path d="M144.226 84.7761C143.947 84.7761 143.679 84.6645 143.482 84.466C143.285 84.2675 143.174 83.9982 143.174 83.7175V78.3398C143.174 78.0591 143.285 77.7898 143.482 77.5913C143.679 77.3928 143.947 77.2812 144.226 77.2812C144.504 77.2812 144.772 77.3928 144.969 77.5913C145.166 77.7898 145.277 78.0591 145.277 78.3398V83.7175C145.277 83.9982 145.166 84.2675 144.969 84.466C144.772 84.6645 144.504 84.7761 144.226 84.7761V84.7761Z" fill="white"/>
<path d="M144.226 92.6564C143.947 92.6564 143.679 92.5449 143.482 92.3463C143.285 92.1478 143.174 91.8786 143.174 91.5978V90.0269C143.174 89.7461 143.285 89.4768 143.482 89.2783C143.679 89.0798 143.947 88.9683 144.226 88.9683C144.504 88.9683 144.772 89.0798 144.969 89.2783C145.166 89.4768 145.277 89.7461 145.277 90.0269V91.5978C145.277 91.8786 145.166 92.1478 144.969 92.3463C144.772 92.5449 144.504 92.6564 144.226 92.6564V92.6564Z" fill="white"/>
<path d="M144.263 66.9286C143.985 66.9286 143.717 66.817 143.52 66.6185C143.323 66.42 143.212 66.1507 143.212 65.87V40.2648C143.212 39.984 143.323 39.7148 143.52 39.5162C143.717 39.3177 143.985 39.2062 144.263 39.2062C144.542 39.2062 144.81 39.3177 145.007 39.5162C145.204 39.7148 145.315 39.984 145.315 40.2648V65.87C145.315 66.1507 145.204 66.42 145.007 66.6185C144.81 66.817 144.542 66.9286 144.263 66.9286Z" fill="white"/>
<path d="M144.188 75.4861C143.909 75.4861 143.641 75.3746 143.444 75.1761C143.247 74.9776 143.136 74.7083 143.136 74.4276V70.9893C143.136 70.7085 143.247 70.4392 143.444 70.2407C143.641 70.0422 143.909 69.9307 144.188 69.9307C144.467 69.9307 144.734 70.0422 144.931 70.2407C145.128 70.4392 145.239 70.7085 145.239 70.9893V74.4276C145.239 74.7083 145.128 74.9776 144.931 75.1761C144.734 75.3746 144.467 75.4861 144.188 75.4861Z" fill="white"/>
<path d="M194.673 135.305H94.0681C92.0298 135.305 90.0749 134.49 88.6333 133.039C87.1916 131.589 86.3811 129.621 86.38 127.569L86.094 9.64594C86.0934 8.62965 86.2918 7.62321 86.6777 6.68413C87.0636 5.74504 87.6295 4.89171 88.3431 4.17289C89.0566 3.45407 89.9039 2.88385 90.8364 2.49481C91.7689 2.10576 92.7685 1.90552 93.7779 1.90552H194.383C196.42 1.90327 198.374 2.71488 199.817 4.16215C201.261 5.60943 202.074 7.57408 202.08 9.62477L202.357 127.569C202.357 129.62 201.548 131.588 200.107 133.039C198.666 134.49 196.711 135.305 194.673 135.305Z" fill="white"/>
<g opacity="0.5">
<path d="M131.93 50.0132L124.605 35.4385C124.212 35.6849 123.836 35.955 123.431 36.1834L111.554 42.1761C110.896 42.5081 110.631 43.3126 110.962 43.9718L111.562 45.1661L107.986 46.9704C107.328 47.3024 107.063 48.1068 107.394 48.766L110.996 55.9316C111.327 56.5908 112.13 56.8564 112.788 56.5244L116.364 54.7201L116.964 55.9143C117.296 56.5735 118.099 56.8391 118.757 56.5071L119.479 56.1427L130.703 66.5225C131.382 67.1412 132.317 67.367 133.204 67.1228C133.381 67.0757 133.549 67.0118 133.706 66.9324C134.343 66.6112 134.821 66.0525 135.027 65.3798L136.461 61.0904C136.824 59.9879 136.423 58.756 135.51 58.1056L127.48 52.1058L130.646 50.5084C131.066 50.3206 131.503 50.1806 131.93 50.0132Z" fill="#CDCDCF"/>
<path d="M139.032 17.0602C138.987 17.0316 138.949 17.009 138.899 16.9864C138.684 16.8854 138.451 16.8322 138.208 16.8556C138.2 16.8569 138.191 16.8497 138.182 16.8509C138.155 16.8558 138.139 16.8786 138.112 16.8834C137.989 16.9065 137.864 16.9248 137.744 16.985C137.663 17.0259 137.607 17.093 137.537 17.1494C137.497 17.1818 137.455 17.2059 137.417 17.243C137.246 17.4134 137.127 17.617 137.065 17.8456C137.061 17.86 137.047 17.8696 137.043 17.884C135.598 24.2807 131.935 29.9196 126.816 33.8918L134.488 49.1567C140.722 47.401 147.423 47.8074 153.412 50.4536C153.428 50.4607 153.447 50.457 153.466 50.4654C153.596 50.5164 153.736 50.5387 153.877 50.5455C153.924 50.549 153.968 50.5656 154.012 50.5643C154.195 50.553 154.377 50.5118 154.551 50.424C154.687 50.3554 154.809 50.2642 154.919 50.1514C154.925 50.1454 154.925 50.1335 154.931 50.1275C155.094 49.9464 155.191 49.7296 155.237 49.4939C155.247 49.4412 155.251 49.397 155.257 49.3431C155.279 49.1015 155.258 48.8576 155.143 48.6283L139.537 17.5778C139.421 17.3485 139.238 17.1864 139.032 17.0602Z" fill="#CDCDCF"/>
</g>
<path d="M202.803 134.204H86.8258L86.502 128.924H202.475L202.803 134.204Z" fill="#E1E4FE"/>
<path d="M201.878 137.21C201.377 137.21 200.896 137.01 200.541 136.654C200.186 136.297 199.986 135.814 199.985 135.309L199.674 7.88015C199.671 6.80049 199.243 5.76614 198.484 5.00349C197.725 4.24085 196.696 3.81204 195.624 3.81093H91.5363C91.0033 3.81092 90.4756 3.91682 89.9834 4.12253C89.4912 4.32825 89.0442 4.62975 88.6679 5.00974C88.2917 5.38974 87.9936 5.84076 87.7908 6.33696C87.588 6.83315 87.4845 7.36476 87.4861 7.90132L87.7974 135.301C87.7974 135.806 87.5987 136.29 87.2448 136.648C86.8909 137.006 86.4106 137.208 85.909 137.21V137.21C85.4078 137.21 84.927 137.01 84.5722 136.654C84.2174 136.297 84.0175 135.814 84.0164 135.309L83.7052 7.90979C83.703 6.87257 83.9038 5.84509 84.2963 4.88608C84.6887 3.92707 85.2651 3.05535 85.9924 2.32074C86.7197 1.58614 87.5837 1.00307 88.5349 0.604856C89.4862 0.206646 90.5061 0.00111051 91.5363 0H195.624C197.698 0.00334261 199.687 0.833214 201.155 2.30823C202.623 3.78325 203.451 5.78346 203.459 7.87168L203.762 135.301C203.763 135.805 203.565 136.29 203.212 136.648C202.859 137.006 202.379 137.208 201.878 137.21V137.21Z" fill="#A7A7BF"/>
<path d="M231.974 137.782H56.4771V29.1365H85.2317C85.7336 29.1365 86.215 29.3372 86.57 29.6946C86.9249 30.0519 87.1243 30.5366 87.1243 31.0419C87.1243 31.5473 86.9249 32.032 86.57 32.3893C86.215 32.7466 85.7336 32.9474 85.2317 32.9474H60.2623V133.971H228.189V32.9474H202.113C201.611 32.9474 201.13 32.7466 200.775 32.3893C200.42 32.032 200.221 31.5473 200.221 31.0419C200.221 30.5366 200.42 30.0519 200.775 29.6946C201.13 29.3372 201.611 29.1365 202.113 29.1365H231.974V137.782Z" fill="#A7A7BF"/>
<path d="M144.65 151.857C146.776 151.857 148.499 150.122 148.499 147.983C148.499 145.843 146.776 144.108 144.65 144.108C142.525 144.108 140.802 145.843 140.802 147.983C140.802 150.122 142.525 151.857 144.65 151.857Z" fill="white"/>
<path d="M144.65 153.127C143.64 153.127 142.652 152.826 141.811 152.26C140.971 151.695 140.316 150.892 139.929 149.951C139.543 149.011 139.441 147.977 139.639 146.979C139.836 145.981 140.322 145.064 141.037 144.345C141.752 143.625 142.662 143.135 143.653 142.937C144.645 142.738 145.672 142.84 146.606 143.23C147.54 143.619 148.338 144.278 148.899 145.124C149.461 145.97 149.76 146.965 149.76 147.983C149.759 149.347 149.22 150.655 148.262 151.619C147.304 152.584 146.005 153.126 144.65 153.127ZM144.65 145.383C144.059 145.383 143.485 145.587 143.025 145.961C142.565 146.335 142.246 146.857 142.121 147.439C141.997 148.021 142.075 148.629 142.341 149.16C142.608 149.692 143.047 150.116 143.586 150.361C144.126 150.606 144.732 150.657 145.304 150.506C145.876 150.356 146.38 150.012 146.731 149.533C147.083 149.054 147.26 148.468 147.234 147.873C147.208 147.278 146.981 146.71 146.589 146.263C146.347 145.987 146.048 145.765 145.714 145.613C145.38 145.461 145.017 145.383 144.65 145.383V145.383Z" fill="#A7A7BF"/>
<path opacity="0.5" d="M148.086 87.0719V77.7732H101.466V87.0719H148.086Z" fill="#CDCDCF"/>
<path opacity="0.5" d="M182.153 104.022V94.7234H101.462V104.022H182.153Z" fill="#CDCDCF"/>
<path d="M117.267 146.077H80.0083V149.888H117.267V146.077Z" fill="#A7A7BF"/>
<circle cx="37.5" cy="91.7676" r="22.5" fill="white"/>
<path d="M36.7472 116.268C50.2783 116.268 61.2483 105.298 61.2483 91.7668C61.2483 78.2357 50.2783 67.2661 36.7472 67.2661C23.2148 67.2661 12.2452 78.2357 12.2452 91.7668C12.2602 105.293 23.2209 116.254 36.7472 116.268ZM36.7472 70.766C48.345 70.766 57.7484 80.1686 57.7484 91.7668C57.7484 103.366 48.345 112.768 36.7472 112.768C25.1486 112.768 15.746 103.366 15.746 91.7668C15.7587 80.1738 25.1529 70.7783 36.7472 70.766Z" fill="#A6A6BF"/>
<path d="M22.7459 91.7665C22.7542 84.038 29.0179 77.7748 36.7472 77.7665V74.2661C27.0854 74.2762 19.2565 82.1056 19.246 91.7665H22.7459Z" fill="#A6A6BF"/>
<path d="M36.7473 109.268C46.4082 109.257 54.2376 101.428 54.2472 91.7666H50.7473C50.739 99.4951 44.4753 105.759 36.7473 105.768V109.268Z" fill="#A6A6BF"/>
<path d="M1.45778 63.7414C4.30974 64.2174 6.54445 66.4517 7.01999 69.3045C7.16213 70.1463 7.89212 70.7623 8.74538 70.7623C9.59951 70.7623 10.3291 70.1463 10.4703 69.3045C10.9472 66.4517 13.1819 64.2174 16.033 63.7414C16.8744 63.5984 17.4908 62.8693 17.4908 62.0156C17.4908 61.161 16.8744 60.4319 16.033 60.2893C13.1819 59.8133 10.9472 57.5778 10.4703 54.7258C10.3291 53.8848 9.59951 53.2676 8.74538 53.2676C7.89212 53.2676 7.16213 53.8848 7.01999 54.7258C6.54445 57.5778 4.30974 59.8133 1.45778 60.2893C0.615927 60.4319 0 61.161 0 62.0156C0 62.8693 0.615927 63.5984 1.45778 63.7414ZM8.74538 59.5159C9.42842 60.4872 10.2738 61.3325 11.2446 62.0156C10.2738 62.6969 9.42842 63.5436 8.74538 64.5144C8.06277 63.5436 7.2174 62.6969 6.24569 62.0156C7.2174 61.3325 8.06277 60.4872 8.74538 59.5159Z" fill="#A6A6BF"/>
<path d="M67.5 105.268L72 100.768L76.5 105.768L71 109.268L67.5 105.268Z" fill="white"/>
<path d="M64.4609 107.493C67.3128 107.969 69.5471 110.204 70.0227 113.056C70.1652 113.898 70.8948 114.514 71.7485 114.514C72.6026 114.514 73.3322 113.898 73.4739 113.056C73.9503 110.204 76.1846 107.969 79.0361 107.493C79.8775 107.35 80.4939 106.621 80.4939 105.768C80.4939 104.913 79.8775 104.184 79.0361 104.042C76.1846 103.565 73.9503 101.33 73.4739 98.4791C73.3322 97.6372 72.6026 97.0195 71.7485 97.0195C70.8948 97.0195 70.1652 97.6372 70.0227 98.4791C69.5471 101.33 67.3128 103.565 64.4609 104.042C63.6199 104.184 63.0031 104.913 63.0031 105.768C63.0031 106.621 63.6199 107.35 64.4609 107.493ZM71.7485 103.268C72.4315 104.239 73.2769 105.084 74.2477 105.768C73.2769 106.449 72.4315 107.296 71.7485 108.266C71.0659 107.296 70.2205 106.449 69.2488 105.768C70.2205 105.084 71.0659 104.239 71.7485 103.268Z" fill="#A6A6BF"/>
<path d="M34.9964 83.0165C32.0975 83.0165 29.7465 85.367 29.7465 88.2664C29.7465 91.1657 32.0975 93.5167 34.9964 93.5167H38.4967C39.4636 93.5167 40.2471 94.2997 40.2471 95.2666C40.2471 96.2339 39.4636 97.0166 38.4967 97.0166H31.4965V100.517H34.9964V102.267H38.4967V100.517C41.3965 100.517 43.747 98.1664 43.747 95.2666C43.747 92.3673 41.3965 90.0163 38.4967 90.0163H34.9964C34.0299 90.0163 33.2464 89.2328 33.2464 88.2664C33.2464 87.2999 34.0299 86.5164 34.9964 86.5164H41.9975V83.0165H38.4967V81.2661H34.9964V83.0165Z" fill="#A6A6BF"/>
</svg>
