<svg width="16" height="16" viewBox="0 0 16 16" fill="none" xmlns="http://www.w3.org/2000/svg">
<g clip-path="url(#clip0)">
<path d="M3.77301 12.2267L2.20063 10.6543L1.67363 11.1813C1.51413 11.3408 1.39423 11.5355 1.32363 11.7497L0.0105431 15.7329C-0.041613 15.8911 0.108574 16.0413 0.266761 15.9892L4.24994 14.6761C4.46416 14.6055 4.65888 14.4856 4.81838 14.3261L5.34538 13.7991L3.77301 12.2267Z" fill="url(#paint0_linear)"/>
<path d="M4.81841 13.6163C4.65891 13.7758 4.46422 13.8957 4.24997 13.9663L0.266793 15.2793C0.229324 15.2917 0.192418 15.2924 0.158449 15.2846L0.0105431 15.7332C-0.041613 15.8914 0.108574 16.0416 0.266761 15.9895L4.24994 14.6764C4.46416 14.6058 4.65888 14.4859 4.81838 14.3264L5.34538 13.7994L4.99032 13.4443L4.81841 13.6163Z" fill="url(#paint1_linear)"/>
<path d="M4.71765 14.4271C4.86022 14.2845 4.93153 14.0974 4.93153 13.9102C4.93153 13.7239 4.86022 13.5368 4.71765 13.3942L4.70225 13.3788C4.53053 13.2071 4.29478 13.139 4.07197 13.1738C4.01403 13.1832 3.96016 13.1625 3.92291 13.1252C3.88563 13.088 3.86538 13.0345 3.87431 12.977C3.87391 12.9766 3.87431 12.9762 3.87431 12.9762C3.87675 12.9616 3.87834 12.9471 3.87997 12.9325C3.88037 12.9248 3.88116 12.9175 3.88159 12.9098C3.88278 12.894 3.88322 12.8782 3.88322 12.862C3.88322 12.6756 3.81191 12.4885 3.66934 12.346L3.65394 12.3306C3.64503 12.3216 3.63572 12.3131 3.62641 12.3046C3.61872 12.2977 3.61059 12.2905 3.6025 12.284C3.58994 12.273 3.57697 12.2633 3.56359 12.254C3.55669 12.2487 3.54903 12.2435 3.54172 12.2386C3.53119 12.2313 3.51984 12.224 3.50853 12.2175C3.49759 12.2115 3.48706 12.2058 3.47653 12.2001C3.46238 12.1924 3.44816 12.1856 3.434 12.1795C3.42228 12.1742 3.41009 12.1693 3.39838 12.1649C3.38744 12.1604 3.37609 12.1564 3.36434 12.1527C3.33556 12.1434 3.306 12.1357 3.27603 12.1301C3.26188 12.1272 3.2481 12.1248 3.23431 12.1232C3.22016 12.1212 3.20594 12.12 3.19219 12.1191C3.17803 12.118 3.16425 12.1171 3.14966 12.1171C3.1355 12.1167 3.12172 12.1167 3.10794 12.1175C3.07916 12.1187 3.05163 12.1211 3.02366 12.1256C2.96572 12.135 2.91185 12.1143 2.8746 12.077C2.83731 12.0397 2.81666 11.9859 2.826 11.928C2.83206 11.8903 2.83491 11.8518 2.83491 11.8137C2.83491 11.6274 2.7636 11.4403 2.62103 11.2977L2.60563 11.2823C2.32047 10.9972 1.85791 10.9972 1.57275 11.2823L10.4571 2.39795L13.6019 5.54276L4.71765 14.4271Z" fill="url(#paint2_linear)"/>
<path d="M12.5536 4.49447L3.92282 13.1252C3.88554 13.088 3.86529 13.0345 3.87423 12.977C3.87382 12.9766 3.87423 12.9762 3.87423 12.9762C3.87667 12.9616 3.87826 12.9471 3.87988 12.9325C3.88029 12.9248 3.88107 12.9175 3.88151 12.9098C3.8827 12.894 3.88313 12.8782 3.88313 12.862C3.88313 12.6757 3.81182 12.4886 3.66926 12.346L3.65385 12.3306C3.64495 12.3217 3.63564 12.3132 3.62632 12.3046C3.61864 12.2977 3.61051 12.2905 3.60242 12.284C3.58985 12.2731 3.57689 12.2633 3.56351 12.254C3.5562 12.2484 3.54895 12.2435 3.54164 12.2386C3.5311 12.2313 3.51976 12.2241 3.50845 12.2176C3.49792 12.2119 3.48739 12.2054 3.47645 12.2001C3.46229 12.1925 3.44807 12.1856 3.43392 12.1795C3.4222 12.1742 3.41001 12.1694 3.39829 12.1649C3.38735 12.1604 3.37601 12.1564 3.36426 12.1528C3.33548 12.1434 3.30592 12.1358 3.27595 12.1301C3.26257 12.1273 3.24842 12.1252 3.23423 12.1232C3.22045 12.1216 3.2067 12.12 3.1921 12.1192C3.17832 12.1176 3.16417 12.1171 3.14957 12.1171C3.13542 12.1167 3.1212 12.1171 3.10786 12.1176C3.07907 12.1187 3.05154 12.1212 3.02357 12.1256C2.96564 12.135 2.91176 12.1143 2.87451 12.0771L11.5053 3.44629L12.5536 4.49447Z" fill="url(#paint3_linear)"/>
<path d="M10.4571 2.39795L1.57275 11.2823C1.85791 10.9971 2.32047 10.9971 2.60563 11.2823L2.62103 11.2977C2.7636 11.4402 2.83491 11.6274 2.83491 11.8137C2.83491 11.8518 2.83206 11.8903 2.826 11.9279C2.81669 11.9859 2.83735 12.0397 2.8746 12.077L11.5054 3.44623L10.4571 2.39795Z" fill="url(#paint4_linear)"/>
<path d="M14.6771 4.46764L11.5322 1.3228L12.5173 0.33771C12.9676 -0.11257 13.6976 -0.11257 14.1478 0.33771L15.6622 1.85205C16.1125 2.30233 16.1125 3.03233 15.6622 3.48258L14.6771 4.46764Z" fill="url(#paint5_linear)"/>
<path d="M13.6348 3.4254L14.6773 4.46796L15.6624 3.48284C16.1127 3.03262 16.1127 2.30262 15.6624 1.85234L15.4351 1.625L13.6348 3.4254Z" fill="url(#paint6_linear)"/>
<path d="M14.8179 4.32697L11.6731 1.18213L10.457 2.39816L13.6019 5.543L14.8179 4.32697Z" fill="url(#paint7_linear)"/>
<path d="M14.0072 5.13754L10.8624 1.99268L10.457 2.39802L13.6019 5.54286L14.0072 5.13754Z" fill="url(#paint8_linear)"/>
<path d="M13.0824 6.06281L9.9375 2.91797L10.4571 2.39844L13.6019 5.54327L13.0824 6.06281Z" fill="url(#paint9_linear)"/>
<path d="M14.4125 4.73227L11.2676 1.5874L10.8623 1.99278L14.0072 5.13765L14.4125 4.73227Z" fill="url(#paint10_linear)"/>
<path d="M0.343105 14.7241L0.0105431 15.733C-0.041613 15.8912 0.108574 16.0414 0.266761 15.9893L1.27567 15.6567L0.343105 14.7241Z" fill="url(#paint11_linear)"/>
<path d="M14.8177 4.32723L13.7751 3.28467L12.5591 4.5007L13.6016 5.54326L14.8177 4.32723Z" fill="url(#paint12_linear)"/>
<path d="M13.2234 2.73253L12.1809 1.68994L10.9648 2.90597L12.0074 3.94856L13.2234 2.73253Z" fill="url(#paint13_linear)"/>
</g>
<defs>
<linearGradient id="paint0_linear" x1="4.20019" y1="16.3669" x2="-0.936289" y2="11.2305" gradientUnits="userSpaceOnUse">
<stop stop-color="#FFCF95"/>
<stop offset="0.054" stop-color="#FED19A"/>
<stop offset="1" stop-color="#E8EFEE"/>
</linearGradient>
<linearGradient id="paint1_linear" x1="2.62455" y1="14.6805" x2="2.89123" y2="15.4272" gradientUnits="userSpaceOnUse">
<stop stop-color="#C69C6D" stop-opacity="0"/>
<stop offset="1" stop-color="#754C24"/>
</linearGradient>
<linearGradient id="paint2_linear" x1="9.65501" y1="10.4797" x2="6.87193" y2="7.69659" gradientUnits="userSpaceOnUse">
<stop stop-color="#FF9102"/>
<stop offset="1" stop-color="#FFC200"/>
</linearGradient>
<linearGradient id="paint3_linear" x1="7.17011" y1="7.74128" x2="8.22981" y2="8.80098" gradientUnits="userSpaceOnUse">
<stop stop-color="#FFCF95"/>
<stop offset="0.427" stop-color="#FFC954"/>
<stop offset="1" stop-color="#FFC200"/>
</linearGradient>
<linearGradient id="paint4_linear" x1="6.3655" y1="7.1902" x2="7.05286" y2="7.87755" gradientUnits="userSpaceOnUse">
<stop stop-color="#FFCF95"/>
<stop offset="0.427" stop-color="#FFC954"/>
<stop offset="1" stop-color="#FFC200"/>
</linearGradient>
<linearGradient id="paint5_linear" x1="14.5139" y1="1.48576" x2="13.3492" y2="2.65072" gradientUnits="userSpaceOnUse">
<stop stop-color="#D63305"/>
<stop offset="0.366" stop-color="#CF3004"/>
<stop offset="0.899" stop-color="#BC2602"/>
<stop offset="1" stop-color="#B72401"/>
</linearGradient>
<linearGradient id="paint6_linear" x1="15.5237" y1="3.51279" x2="14.9113" y2="2.90078" gradientUnits="userSpaceOnUse">
<stop stop-color="#960000"/>
<stop offset="0.331" stop-color="#9C0700" stop-opacity="0.669"/>
<stop offset="0.812" stop-color="#AE1A01" stop-opacity="0.188"/>
<stop offset="1" stop-color="#B72401" stop-opacity="0"/>
</linearGradient>
<linearGradient id="paint7_linear" x1="13.2313" y1="2.76919" x2="12.8059" y2="3.1942" gradientUnits="userSpaceOnUse">
<stop stop-color="white"/>
<stop offset="1" stop-color="#E8EFEE"/>
</linearGradient>
<linearGradient id="paint8_linear" x1="12.3535" y1="3.64634" x2="12.0765" y2="3.92335" gradientUnits="userSpaceOnUse">
<stop stop-color="white"/>
<stop offset="1" stop-color="#E8EFEE"/>
</linearGradient>
<linearGradient id="paint9_linear" x1="11.4115" y1="4.58878" x2="12.1275" y2="3.87276" gradientUnits="userSpaceOnUse">
<stop stop-color="#FFC200" stop-opacity="0"/>
<stop offset="0.203" stop-color="#FFBB00" stop-opacity="0.203"/>
<stop offset="0.499" stop-color="#FFA700" stop-opacity="0.499"/>
<stop offset="0.852" stop-color="#FF8800" stop-opacity="0.852"/>
<stop offset="1" stop-color="#FF7800"/>
</linearGradient>
<linearGradient id="paint10_linear" x1="12.8124" y1="3.18735" x2="12.4477" y2="3.55236" gradientUnits="userSpaceOnUse">
<stop stop-color="white"/>
<stop offset="1" stop-color="#E8EFEE"/>
</linearGradient>
<linearGradient id="paint11_linear" x1="0.766137" y1="15.2336" x2="0.0981466" y2="15.9013" gradientUnits="userSpaceOnUse">
<stop stop-color="#363F3E"/>
<stop offset="1" stop-color="#303033"/>
</linearGradient>
<linearGradient id="paint12_linear" x1="13.5685" y1="4.29322" x2="14.3909" y2="5.11591" gradientUnits="userSpaceOnUse">
<stop stop-color="#C2CECE" stop-opacity="0"/>
<stop offset="0.179" stop-color="#AFBCBC" stop-opacity="0.179"/>
<stop offset="1" stop-color="#5B6A6A"/>
</linearGradient>
<linearGradient id="paint13_linear" x1="11.6544" y1="2.37867" x2="12.4767" y2="3.20102" gradientUnits="userSpaceOnUse">
<stop stop-color="#C2CECE" stop-opacity="0"/>
<stop offset="0.55" stop-color="#C2CECE"/>
<stop offset="1" stop-color="#C2CECE" stop-opacity="0"/>
</linearGradient>
<clipPath id="clip0">
<rect width="16" height="16" fill="white"/>
</clipPath>
</defs>
</svg>
