<svg width="12" height="12" viewBox="0 0 12 12" fill="none" xmlns="http://www.w3.org/2000/svg">
  <g opacity="0.8">
    <path
      d="M1.15176 4.19188C1.30356 4.299 1.76114 4.61714 2.52452 5.14614C3.28792 5.67513 3.87274 6.08244 4.27899 6.3681C4.32363 6.39941 4.41845 6.46748 4.56352 6.57239C4.70861 6.67737 4.82917 6.76221 4.9251 6.82692C5.0211 6.89161 5.13715 6.96417 5.27338 7.04451C5.40955 7.12477 5.53792 7.18514 5.65845 7.22511C5.77901 7.2654 5.89061 7.28536 5.99327 7.28536H6H6.00676C6.10942 7.28536 6.22106 7.26538 6.34162 7.22511C6.4621 7.18514 6.59059 7.1247 6.72665 7.04451C6.86278 6.96408 6.97883 6.89158 7.07483 6.82692C7.17083 6.76221 7.29129 6.67737 7.43643 6.57239C7.58148 6.46738 7.67642 6.39941 7.72105 6.3681C8.1317 6.08244 9.17644 5.35697 10.8549 4.19174C11.1808 3.96416 11.4531 3.68956 11.6718 3.36811C11.8907 3.04681 12 2.70974 12 2.3571C12 2.06241 11.8939 1.81016 11.6818 1.60036C11.4698 1.39051 11.2186 1.28564 10.9285 1.28564H1.07138C0.727657 1.28564 0.463135 1.4017 0.277867 1.63381C0.0926224 1.86596 0 2.15614 0 2.50432C0 2.78557 0.122808 3.09034 0.368308 3.41844C0.613784 3.74657 0.875022 4.00441 1.15176 4.19188Z"
      fill="#33334F"/>
    <path
      d="M11.3302 4.90825C9.86612 5.89923 8.75437 6.66939 7.99555 7.21855C7.74109 7.40598 7.53466 7.55229 7.37614 7.65713C7.21761 7.76205 7.00677 7.86919 6.74333 7.97851C6.47998 8.08799 6.23455 8.14257 6.00683 8.14257H6.00001H5.99328C5.7656 8.14257 5.52003 8.08799 5.25669 7.97851C4.99334 7.86919 4.78236 7.76205 4.62388 7.65713C4.46545 7.55229 4.25895 7.40598 4.00452 7.21855C3.4018 6.77662 2.29245 6.00642 0.676407 4.90825C0.421877 4.73872 0.196432 4.5444 0 4.32568V9.6425C0 9.93732 0.104865 10.1894 0.314713 10.3993C0.524515 10.6092 0.776792 10.7141 1.07145 10.7141H10.9286C11.2232 10.7141 11.4755 10.6092 11.6853 10.3993C11.8952 10.1894 12 9.93735 12 9.6425V4.32568C11.808 4.53987 11.5848 4.73419 11.3302 4.90825Z"
      fill="#33334F"/>
  </g>
</svg>
