<svg width="174" height="165" viewBox="0 0 174 165" fill="none" xmlns="http://www.w3.org/2000/svg">
<path d="M101.243 37.5623C104.685 33.6045 107.85 29.3754 110.68 25.0326C114.436 19.2748 117.726 13.2187 120.647 7C126.1 9.55906 131.547 12.1181 137 14.6717C131.39 26.6375 124.496 38.202 116.008 48.2919C116.398 48.6768 116.783 49.0618 117.157 49.4576C122.989 55.557 127.461 62.7408 130.566 70.9981C133.672 79.2608 135.222 88.0873 135.222 97.4832C135.222 106.879 133.672 115.689 130.566 123.909C127.461 132.133 122.989 139.274 117.157 145.335C111.325 151.397 104.219 156.19 95.8502 159.714C87.4815 163.238 78.0287 165 67.4973 165C56.9659 165 47.5403 163.26 39.2041 159.773C30.8733 156.287 23.8108 151.494 18.0112 145.395C12.217 139.296 7.76172 132.15 4.66139 123.968C1.55564 115.782 0 106.955 0 97.4832C0 88.0114 1.55564 79.1415 4.66139 70.8842C7.76172 62.6269 12.217 55.4432 18.0112 49.3437C23.8108 43.2443 30.8896 38.4515 39.2637 34.9653C47.6325 31.4791 57.0472 29.7387 67.4973 29.7387C78.0287 29.7387 87.4815 31.5008 95.8502 35.0249C97.7093 35.8056 99.5088 36.6515 101.243 37.5623ZM102.978 61.4071C96.6577 66.7366 89.6495 71.2692 81.8824 74.7445C68.1206 80.8982 52.0823 83.5006 37.952 77.7969C33.6213 76.0511 29.6321 73.2264 26.6727 69.6644C25.4423 71.9794 24.3745 74.4354 23.4639 77.0216C21.2308 83.3867 20.1143 90.2072 20.1143 97.4832C20.1143 104.683 21.2308 111.428 23.4639 117.717C25.7024 124.006 28.9003 129.52 33.0684 134.253C37.2365 138.992 42.2123 142.722 48.0118 145.449C53.806 148.176 60.2993 149.543 67.4973 149.543C74.6953 149.543 81.2321 148.176 87.1021 145.449C92.9721 142.722 97.9695 138.992 102.1 134.253C106.23 129.52 109.411 124.006 111.644 117.717C113.883 111.428 115 104.683 115 97.4832C115 90.2072 113.883 83.3867 111.644 77.0216C109.574 71.1173 106.68 65.9125 102.978 61.4071ZM88.392 49.8479C87.9638 49.6365 87.5357 49.4304 87.1021 49.2298C81.2321 46.5406 74.6953 45.1961 67.4973 45.1961C60.2993 45.1961 53.806 46.5406 48.0118 49.2298C45.5565 50.3684 43.2529 51.6913 41.0903 53.1986C39.822 54.8576 39.1065 56.6685 40.3044 58.1378C43.7245 62.3396 50.7274 63.0715 57.0094 62.7245C68.3537 62.0902 79.0043 57.1672 88.392 49.8479Z" fill="#E1E2DF"/>
<path opacity="0.5" fill-rule="evenodd" clip-rule="evenodd" d="M155.414 44H140.229V47.927H148.967L140 58.5302V61.6057H155.707V57.6793H146.448L155.414 47.0761V44Z" fill="#9B9B9B"/>
<path fill-rule="evenodd" clip-rule="evenodd" d="M95.671 92.0005L94.7314 94.2035C93.067 98.1118 89.7574 100.539 86.0948 100.539C82.4322 100.539 79.1233 98.1118 77.4589 94.2041L76.5205 92.0005L70.9425 95.275L71.763 97.2014C74.4756 103.573 79.9671 107.531 86.0948 107.531C92.2219 107.531 97.7141 103.573 100.427 97.2014L101.249 95.275L95.671 92.0005Z" fill="#9B9B9B"/>
<path fill-rule="evenodd" clip-rule="evenodd" d="M65.3064 95.2745L59.7285 92.0006L58.7889 94.203C57.1245 98.1114 53.8155 100.539 50.1529 100.539C46.4903 100.539 43.1813 98.1114 41.5169 94.2036L40.578 92L35 95.2745L35.8211 97.2015C38.5331 103.573 44.0252 107.531 50.1529 107.531C56.28 107.531 61.7716 103.573 64.4847 97.201L65.3064 95.2745Z" fill="#9B9B9B"/>
<path fill-rule="evenodd" clip-rule="evenodd" d="M68.7079 127.843C65.6388 127.843 63.151 130.332 63.151 133.4C63.151 136.469 65.6388 138.957 68.7079 138.957C71.7765 138.957 74.2643 136.469 74.2643 133.4C74.2643 130.332 71.7765 127.843 68.7079 127.843Z" fill="#9B9B9B"/>
<path fill-rule="evenodd" clip-rule="evenodd" d="M147.002 29.8069L173.584 29.7958L173.581 23.1504L157.91 23.1563L173.078 5.20562L173.077 0L147.378 0.0105046L147.38 6.65643L162.168 6.65001L147 24.6012L147.002 29.8069Z" fill="#9B9B9B"/>
</svg>
