<svg width="283" height="109" viewBox="0 0 283 109" fill="none" xmlns="http://www.w3.org/2000/svg">
<path d="M153.758 19.9777C155.229 17.2809 156.508 14.4638 157.581 11.6239C159.006 7.85797 160.127 3.98006 161.016 0.0554199C164.457 0.833929 167.895 1.61311 171.335 2.38852C169.63 9.93868 167.14 17.4208 163.553 24.2596C163.824 24.4308 164.093 24.6026 164.356 24.782C168.459 27.5381 171.92 31.0855 174.735 35.4187C177.55 39.755 179.546 44.6094 180.727 49.9843C181.908 55.3592 182.129 60.5939 181.386 65.6862C180.643 70.7815 178.982 75.4283 176.408 79.6289C173.834 83.8294 170.371 87.4644 166.027 90.5323C161.683 93.6002 156.497 95.7964 150.472 97.1202C144.448 98.444 138.837 98.6332 133.63 97.6868C128.426 96.7397 123.784 94.8857 119.699 92.1255C115.618 89.3646 112.171 85.8369 109.369 81.5465C106.564 77.2536 104.564 72.3999 103.374 66.9816C102.183 61.5632 101.958 56.2937 102.697 51.1797C103.432 46.0664 105.078 41.3969 107.626 37.1794C110.177 32.9612 113.624 29.3297 117.976 26.2828C122.325 23.2366 127.492 21.0576 133.47 19.744C139.494 18.4202 145.123 18.24 150.354 19.2041C151.515 19.417 152.651 19.6746 153.758 19.9777ZM157.747 33.4C154.802 37.2432 151.363 40.717 147.356 43.6814C140.257 48.9314 131.41 52.4361 122.61 50.9495C119.913 50.4952 117.276 49.3808 115.135 47.7151C114.722 49.1941 114.42 50.7333 114.224 52.3271C113.747 56.249 113.965 60.291 114.88 64.4532C115.785 68.572 117.272 72.2899 119.34 75.607C121.411 78.9233 123.933 81.6756 126.912 83.8593C129.892 86.046 133.208 87.5544 136.868 88.3855C140.525 89.2172 144.412 89.1826 148.529 88.2778C152.647 87.373 156.214 85.7698 159.23 83.4719C162.245 81.174 164.635 78.412 166.402 75.1821C168.169 71.9553 169.296 68.4012 169.783 64.5228C170.273 60.6436 170.064 56.645 169.159 52.5262C168.245 48.364 166.748 44.6027 164.668 41.2429C162.741 38.1256 160.431 35.512 157.747 33.4ZM147.951 28.621C147.679 28.5539 147.408 28.4898 147.135 28.4296C143.439 27.6291 139.531 27.6816 135.413 28.5864C131.295 29.4912 127.75 31.0765 124.773 33.3432C123.512 34.3031 122.36 35.3495 121.313 36.4835C120.796 37.592 120.614 38.7179 121.484 39.4078C123.969 41.3815 128.067 40.92 131.617 39.9318C138.027 38.143 143.5 33.9881 147.951 28.621Z" fill="#DEE2E6"/>
<path fill-rule="evenodd" clip-rule="evenodd" d="M134.859 71.8636L151.792 65.7094L153.191 69.5578L136.258 75.712L134.859 71.8636Z" fill="#DEE2E6"/>
<path fill-rule="evenodd" clip-rule="evenodd" d="M124.755 57.6068C123.026 57.9868 121.932 59.6968 122.312 61.4257C122.692 63.1549 124.401 64.2485 126.131 63.8685C127.86 63.4886 128.953 61.7789 128.573 60.0497C128.194 58.3209 126.484 57.2269 124.755 57.6068Z" fill="#DEE2E6"/>
<path fill-rule="evenodd" clip-rule="evenodd" d="M150.142 49.7254C148.413 50.1054 147.319 51.8155 147.699 53.5443C148.079 55.2735 149.789 56.3672 151.518 55.9872C153.247 55.6073 154.341 53.8976 153.961 52.1684C153.581 50.4395 151.871 49.3455 150.142 49.7254Z" fill="#DEE2E6"/>
<path fill-rule="evenodd" clip-rule="evenodd" d="M180.462 105.094C176.596 105.094 173.462 101.96 173.462 98.0943C173.462 94.2283 176.596 91.0943 180.462 91.0943C184.328 91.0943 187.462 94.2283 187.462 98.0943C187.462 101.96 184.328 105.094 180.462 105.094ZM180.462 108.094C174.939 108.094 170.462 103.617 170.462 98.0943C170.462 92.5715 174.939 88.0943 180.462 88.0943C185.985 88.0943 190.462 92.5715 190.462 98.0943C190.462 103.617 185.985 108.094 180.462 108.094Z" fill="#DEE2E6"/>
<path fill-rule="evenodd" clip-rule="evenodd" d="M212.462 105.094C208.596 105.094 205.462 101.96 205.462 98.0943C205.462 94.2283 208.596 91.0943 212.462 91.0943C216.328 91.0943 219.462 94.2283 219.462 98.0943C219.462 101.96 216.328 105.094 212.462 105.094ZM212.462 108.094C206.939 108.094 202.462 103.617 202.462 98.0943C202.462 92.5715 206.939 88.0943 212.462 88.0943C217.985 88.0943 222.462 92.5715 222.462 98.0943C222.462 103.617 217.985 108.094 212.462 108.094Z" fill="#DEE2E6"/>
<path fill-rule="evenodd" clip-rule="evenodd" d="M189.334 99.5943H203.334V96.5943H189.334V99.5943Z" fill="#DEE2E6"/>
<path fill-rule="evenodd" clip-rule="evenodd" d="M218.466 91.1526L239.216 42.7365L236.458 41.5547L215.708 89.9708L218.466 91.1526Z" fill="#DEE2E6"/>
<path fill-rule="evenodd" clip-rule="evenodd" d="M240.462 41.0943C236.596 41.0943 233.462 37.9603 233.462 34.0943C233.462 30.2283 236.596 27.0943 240.462 27.0943C244.328 27.0943 247.462 30.2283 247.462 34.0943C247.462 37.9603 244.328 41.0943 240.462 41.0943ZM240.462 44.0943C234.939 44.0943 230.462 39.6171 230.462 34.0943C230.462 28.5714 234.939 24.0943 240.462 24.0943C245.985 24.0943 250.462 28.5714 250.462 34.0943C250.462 39.6171 245.985 44.0943 240.462 44.0943Z" fill="#DEE2E6"/>
<path fill-rule="evenodd" clip-rule="evenodd" d="M272.462 41.0943C268.596 41.0943 265.462 37.9603 265.462 34.0943C265.462 30.2283 268.596 27.0943 272.462 27.0943C276.328 27.0943 279.462 30.2283 279.462 34.0943C279.462 37.9603 276.328 41.0943 272.462 41.0943ZM272.462 44.0943C266.939 44.0943 262.462 39.6171 262.462 34.0943C262.462 28.5714 266.939 24.0943 272.462 24.0943C277.985 24.0943 282.462 28.5714 282.462 34.0943C282.462 39.6171 277.985 44.0943 272.462 44.0943Z" fill="#DEE2E6"/>
<path fill-rule="evenodd" clip-rule="evenodd" d="M249.462 35.5943H263.462V32.5943H249.462V35.5943Z" fill="#DEE2E6"/>
<path fill-rule="evenodd" clip-rule="evenodd" d="M102 105.094C105.866 105.094 109 101.96 109 98.0944C109 94.2284 105.866 91.0944 102 91.0944C98.134 91.0944 95 94.2284 95 98.0944C95 101.96 98.134 105.094 102 105.094ZM102 108.094C107.523 108.094 112 103.617 112 98.0944C112 92.5716 107.523 88.0944 102 88.0944C96.4772 88.0944 92 92.5716 92 98.0944C92 103.617 96.4772 108.094 102 108.094Z" fill="#DEE2E6"/>
<path fill-rule="evenodd" clip-rule="evenodd" d="M70 105.094C73.866 105.094 77 101.96 77 98.0944C77 94.2284 73.866 91.0944 70 91.0944C66.134 91.0944 63 94.2284 63 98.0944C63 101.96 66.134 105.094 70 105.094ZM70 108.094C75.5228 108.094 80 103.617 80 98.0944C80 92.5716 75.5228 88.0944 70 88.0944C64.4772 88.0944 60 92.5716 60 98.0944C60 103.617 64.4772 108.094 70 108.094Z" fill="#DEE2E6"/>
<path fill-rule="evenodd" clip-rule="evenodd" d="M93.1283 99.5944H79.1283V96.5944H93.1283V99.5944Z" fill="#DEE2E6"/>
<path fill-rule="evenodd" clip-rule="evenodd" d="M63.9965 91.1527L43.2466 42.7366L46.004 41.5549L66.7539 89.9709L63.9965 91.1527Z" fill="#DEE2E6"/>
<path fill-rule="evenodd" clip-rule="evenodd" d="M42 41.0944C45.866 41.0944 49 37.9604 49 34.0944C49 30.2284 45.866 27.0944 42 27.0944C38.134 27.0944 35 30.2284 35 34.0944C35 37.9604 38.134 41.0944 42 41.0944ZM42 44.0944C47.5228 44.0944 52 39.6173 52 34.0944C52 28.5716 47.5228 24.0944 42 24.0944C36.4772 24.0944 32 28.5716 32 34.0944C32 39.6173 36.4772 44.0944 42 44.0944Z" fill="#DEE2E6"/>
<path fill-rule="evenodd" clip-rule="evenodd" d="M10 41.0944C13.866 41.0944 17 37.9604 17 34.0944C17 30.2284 13.866 27.0944 10 27.0944C6.13401 27.0944 3 30.2284 3 34.0944C3 37.9604 6.13401 41.0944 10 41.0944ZM10 44.0944C15.5228 44.0944 20 39.6173 20 34.0944C20 28.5716 15.5228 24.0944 10 24.0944C4.47715 24.0944 0 28.5716 0 34.0944C0 39.6173 4.47715 44.0944 10 44.0944Z" fill="#DEE2E6"/>
<path fill-rule="evenodd" clip-rule="evenodd" d="M33 35.5944H19V32.5944H33V35.5944Z" fill="#DEE2E6"/>
</svg>
