<svg width="60" height="60" viewBox="0 0 60 60" fill="none" xmlns="http://www.w3.org/2000/svg">
<circle cx="30.0002" cy="30" r="30" fill="#70DFEE"/>
<path d="M43.2971 28.6903C41.7981 28.4864 40.3881 29.1049 39.4723 30.2255C38.8918 28.8816 37.6956 27.9283 36.1967 27.7243C33.9088 27.4131 31.721 29.171 31.3937 31.5774C31.2511 32.6253 31.3311 33.071 31.8079 34.1439C32.2847 35.2167 37.8896 42.0075 37.8896 42.0075C37.8896 42.0075 45.0851 36.9581 45.8312 36.0516C46.5772 35.1451 46.776 34.7175 46.9159 33.689C47.2407 31.3021 45.6244 29.0069 43.2971 28.6903Z" fill="white"/>
<path d="M26.7102 20.608C27.7807 18.2043 29.9694 16.4356 32.7172 16.0593C36.9835 15.4751 40.9601 18.6926 41.5524 23.0184C41.8077 24.8823 41.6653 25.7259 40.7901 27.6729C40.7843 27.6859 40.7781 27.6992 40.7715 27.7131C40.4119 27.8528 40.0691 28.0299 39.7477 28.2404C38.9043 27.2746 37.7329 26.6157 36.3729 26.4307C33.3076 26.0137 30.5162 28.3452 30.1004 31.4013C30.0219 31.9783 29.9882 32.4996 30.0806 33.0625C30.1705 33.6106 30.367 34.1155 30.6152 34.6739C30.7311 34.9348 30.9396 35.2524 31.1317 35.5309C31.3452 35.8403 31.6152 36.2097 31.9164 36.61C32.2287 37.025 32.5813 37.4825 32.9506 37.9548C31.1067 40.2209 29.6695 41.9506 29.6695 41.9506C29.6695 41.9506 16.4503 32.8331 15.0839 31.193C13.7174 29.5528 13.3584 28.8138 13.0984 26.9147C12.5012 22.5537 15.5074 18.4159 19.7014 17.8416C22.4492 17.4654 25.0281 18.5454 26.7102 20.608Z" fill="white"/>
<path d="M39.3099 29.8887C37.8903 31.8101 35.7181 34.5385 33.7948 36.9146C32.8042 35.6413 31.9783 34.5274 31.8079 34.1439C31.3311 33.071 31.2511 32.6253 31.3937 31.5774C31.721 29.171 33.9088 27.4131 36.1967 27.7243C37.2209 27.8637 38.1039 28.3528 38.7456 29.0774C38.9625 29.3224 39.1519 29.5943 39.3099 29.8887Z" fill="white"/>
</svg>
