<svg fill="none" height="40" viewBox="0 0 30 40" width="30" xmlns="http://www.w3.org/2000/svg">
  <path
    d="M29.4853 10.9559V37.4231C29.4853 38.8465 28.3308 39.9999 26.9085 39.9999H3.09157C1.66821 39.9999 0.514771 38.8465 0.514771 37.4231V2.5768C0.514692 1.15344 1.66813 0 3.09157 0H18.5295L29.4853 10.9559Z"
    fill="#28B446"/>
  <path d="M20.0242 10.7179L29.4853 14.6156V10.9559L24.1211 9.37207L20.0242 10.7179Z" fill="#219B38"/>
  <path d="M29.4853 10.9559H21.1063C19.6828 10.9559 18.5295 9.80242 18.5295 8.37906V0L29.4853 10.9559Z" fill="#6ACE7C"/>
  <path
    d="M21.337 19.9177H8.66212C8.20743 19.9177 7.83899 20.2862 7.83899 20.7408V31.7697C7.83899 32.2242 8.20743 32.5928 8.66212 32.5928H21.337C21.7917 32.5928 22.1602 32.2243 22.1602 31.7697V20.7408C22.1602 20.2863 21.7917 19.9177 21.337 19.9177ZM9.48524 25.2096H14.1765V27.3012H9.48524V25.2096ZM15.8227 25.2096H20.5139V27.3012H15.8227V25.2096ZM20.514 23.5634H15.8227V21.564H20.514V23.5634ZM14.1765 21.564V23.5633H9.48524V21.564H14.1765ZM9.48524 28.9474H14.1765V30.9468H9.48524V28.9474ZM15.8227 30.9467V28.9473H20.5139V30.9467H15.8227Z"
    fill="white"/>
</svg>
