<svg width="4" height="13" viewBox="0 0 4 13" fill="none" xmlns="http://www.w3.org/2000/svg">
<path d="M2.01485 9.93177C1.20693 9.93177 0.529703 10.5743 0.529703 11.3409C0.529703 12.1074 1.20693 12.75 2.01485 12.75C2.79307 12.75 3.5 12.1074 3.46436 11.3747C3.5 10.5687 2.82871 9.93177 2.01485 9.93177Z" fill="#E63B3B"/>
<path d="M1.64653 0.0397816C0.939603 0.231421 0.5 0.840159 0.5 1.57854C0.535644 2.02382 0.565346 2.47473 0.60099 2.92001C0.70198 4.61659 0.80297 6.27934 0.90396 7.97592C0.939603 8.55084 1.40891 8.96794 2.01485 8.96794C2.62079 8.96794 3.09604 8.52265 3.12574 7.9421C3.12574 7.59264 3.12574 7.27136 3.16139 6.91626C3.22673 5.82843 3.29802 4.74059 3.36337 3.65275C3.39901 2.94819 3.46436 2.24364 3.5 1.53908C3.5 1.28544 3.46436 1.05998 3.36337 0.834522C3.0604 0.203238 2.35346 -0.118039 1.64653 0.0397816Z" fill="#E63B3B"/>
</svg>
