<svg fill="none" height="14" viewBox="0 0 14 14" width="14" xmlns="http://www.w3.org/2000/svg"> <path d="M11.2897 7.1494C10.9773 7.1494 10.7242 7.40258 10.7242 7.71493V12.0046C10.7242 12.4812 10.3364 12.869 9.85978 12.869H1.99541C1.51881 12.869 1.13105 12.4812 1.13105 12.0046V4.14022C1.13105 3.66362 1.51881 3.27586 1.99541 3.27586H6.28508C6.5974 3.27586 6.8506 3.02265 6.8506 2.71033C6.8506 2.39801 6.5974 2.14481 6.28508 2.14481H1.99541C0.895153 2.14481 0 3.03996 0 4.14022V12.0046C0 13.1049 0.895153 14 1.99541 14H9.85975C10.96 14 11.8552 13.1049 11.8552 12.0046V7.71493C11.8552 7.40258 11.602 7.1494 11.2897 7.1494Z" fill="#3654FF" /> <path d="M13.4343 3.05176e-05H9.14465C8.8323 3.05176e-05 8.57912 0.253234 8.57912 0.565554C8.57912 0.877875 8.8323 1.13108 9.14465 1.13108H12.8688V4.85522C12.8688 5.16754 13.122 5.42074 13.4343 5.42074C13.7467 5.42074 13.9998 5.16754 13.9998 4.85522V0.565554C13.9998 0.253234 13.7467 3.05176e-05 13.4343 3.05176e-05Z" fill="#3654FF" /> <path d="M13.8345 0.165621C13.6137 -0.0552071 13.2556 -0.0552071 13.0347 0.165621L5.17038 8.02996C4.94952 8.25082 4.94952 8.60889 5.17038 8.82974C5.28079 8.94018 5.42555 8.99539 5.57028 8.99539C5.71504 8.99539 5.85977 8.94016 5.97018 8.82974L13.8345 0.965399C14.0554 0.744543 14.0554 0.386477 13.8345 0.165621Z" fill="#3654FF" /></svg>