<svg width="10" height="10" viewBox="0 0 10 10" fill="none" xmlns="http://www.w3.org/2000/svg">
<g opacity="0.7">
<path d="M8.06407 5.10672C7.84096 5.10672 7.66012 5.28756 7.66012 5.51066V8.57471C7.66012 8.91514 7.38315 9.19211 7.0427 9.19211H1.42529C1.08486 9.19211 0.807891 8.91514 0.807891 8.57471V2.9573C0.807891 2.61687 1.08486 2.3399 1.42529 2.3399H4.48934C4.71243 2.3399 4.89328 2.15904 4.89328 1.93595C4.89328 1.71286 4.71243 1.53201 4.48934 1.53201H1.42529C0.639395 1.53201 0 2.1714 0 2.9573V8.57471C0 9.36063 0.639395 10 1.42529 10H7.04268C7.8286 10 8.46799 9.36063 8.46801 8.57471V5.51066C8.46801 5.28756 8.28717 5.10672 8.06407 5.10672Z" fill="#33334F"/>
<path d="M9.59594 2.17983e-05H6.53189C6.30879 2.17983e-05 6.12795 0.180881 6.12795 0.403967C6.12795 0.627054 6.30879 0.807913 6.53189 0.807913H9.19199V3.46801C9.19199 3.6911 9.37283 3.87196 9.59594 3.87196C9.81904 3.87196 9.99988 3.6911 9.99988 3.46801V0.403967C9.99988 0.180881 9.81904 2.17983e-05 9.59594 2.17983e-05Z" fill="#33334F"/>
<path d="M9.8818 0.118301C9.72405 -0.0394336 9.46828 -0.0394336 9.31053 0.118301L3.69313 5.73569C3.53537 5.89344 3.53537 6.1492 3.69313 6.30696C3.77199 6.38584 3.87539 6.42528 3.97877 6.42528C4.08217 6.42528 4.18555 6.38583 4.26441 6.30696L9.8818 0.689571C10.0396 0.531817 10.0396 0.276055 9.8818 0.118301Z" fill="#33334F"/>
</g>
</svg>
