<svg width="20" height="20" viewBox="0 0 20 20" fill="none" xmlns="http://www.w3.org/2000/svg">
<path d="M10.0002 5.41661C12.3002 5.41661 14.1668 7.28328 14.1668 9.58328C14.1668 10.0083 14.0835 10.4166 13.9668 10.7999L16.5168 13.3499C17.6752 12.3249 18.5918 11.0416 19.1668 9.57494C17.7252 5.92494 14.1668 3.33328 10.0002 3.33328C8.94183 3.33328 7.92516 3.49994 6.96683 3.80828L8.77516 5.61661C9.16683 5.49994 9.57516 5.41661 10.0002 5.41661ZM2.2585 2.63328C1.9335 2.95828 1.9335 3.48328 2.2585 3.80828L3.90016 5.44994C2.55016 6.52494 1.47516 7.94161 0.833496 9.58328C2.27516 13.2416 5.8335 15.8333 10.0002 15.8333C11.2668 15.8333 12.4752 15.5833 13.5918 15.1499L15.8585 17.4166C16.1835 17.7416 16.7085 17.7416 17.0335 17.4166C17.3585 17.0916 17.3585 16.5666 17.0335 16.2416L3.44183 2.63328C3.11683 2.30828 2.5835 2.30828 2.2585 2.63328ZM10.0002 13.7499C7.70016 13.7499 5.8335 11.8833 5.8335 9.58328C5.8335 8.94161 5.9835 8.33328 6.24183 7.79994L7.55016 9.10828C7.52516 9.25828 7.50016 9.41661 7.50016 9.58328C7.50016 10.9666 8.61683 12.0833 10.0002 12.0833C10.1668 12.0833 10.3168 12.0583 10.4752 12.0249L11.7835 13.3333C11.2418 13.5999 10.6418 13.7499 10.0002 13.7499ZM12.4752 9.30828C12.3502 8.14161 11.4335 7.23328 10.2752 7.10828L12.4752 9.30828Z" fill="#ADADB9"/>
</svg>
