<svg width="20" height="20" viewBox="0 0 20 20" fill="none" xmlns="http://www.w3.org/2000/svg">
    <path d="M10.0002 3.33325C5.8335 3.33325 2.27516 5.92492 0.833496 9.58325C2.27516 13.2416 5.8335 15.8333 10.0002 15.8333C14.1668 15.8333 17.7252 13.2416 19.1668 9.58325C17.7252 5.92492 14.1668 3.33325 10.0002 3.33325ZM10.0002 13.7499C7.70016 13.7499 5.8335 11.8833 5.8335 9.58325C5.8335 7.28325 7.70016 5.41659 10.0002 5.41659C12.3002 5.41659 14.1668 7.28325 14.1668 9.58325C14.1668 11.8833 12.3002 13.7499 10.0002 13.7499ZM10.0002 7.08325C8.61683 7.08325 7.50016 8.19992 7.50016 9.58325C7.50016 10.9666 8.61683 12.0833 10.0002 12.0833C11.3835 12.0833 12.5002 10.9666 12.5002 9.58325C12.5002 8.19992 11.3835 7.08325 10.0002 7.08325Z" fill="#33334F"/>
    </svg>
    