<svg width="20" height="20" viewBox="0 0 20 20" fill="none" xmlns="http://www.w3.org/2000/svg">
<path d="M17.3049 3.8147e-05H2.69506C1.20665 3.8147e-05 0 1.20664 0 2.6951V17.305C0 18.7935 1.2066 20.0001 2.69506 20.0001H9.90056L9.91284 12.8531H8.05607C7.81477 12.8531 7.61892 12.658 7.61799 12.4167L7.60909 10.113C7.60816 9.87036 7.80459 9.67319 8.04721 9.67319H9.90061V7.44718C9.90061 4.86391 11.4783 3.45731 13.7827 3.45731H15.6737C15.9157 3.45731 16.1118 3.65345 16.1118 3.89543V5.83797C16.1118 6.07986 15.9158 6.27595 15.674 6.2761L14.5135 6.27664C13.2603 6.27664 13.0176 6.87216 13.0176 7.74611V9.67324H15.7714C16.0338 9.67324 16.2373 9.90235 16.2064 10.1629L15.9334 12.4667C15.9072 12.6871 15.7203 12.8532 15.4983 12.8532H13.0299L13.0176 20.0002H17.305C18.7934 20.0002 20 18.7936 20 17.3052V2.6951C20 1.20664 18.7934 3.8147e-05 17.3049 3.8147e-05Z" fill="#475993"/>
</svg>
