<svg width="30" height="31" viewBox="0 0 30 31" fill="none" xmlns="http://www.w3.org/2000/svg">
<path opacity="0.1" fill-rule="evenodd" clip-rule="evenodd" d="M22.1833 18.9591C21.5327 18.4127 20.5402 18.8752 20.5402 19.7248V20.2425C20.5402 21.8993 19.197 23.2425 17.5402 23.2425H5.64258C3.98572 23.2425 2.64258 21.8993 2.64258 20.2425V11.4131C2.64258 9.75622 3.98572 8.41307 5.64258 8.41307H17.5402C18.3934 8.41307 19.1635 8.7693 19.7098 9.34116C20.3047 9.96397 21.5348 10.4225 22.1672 9.83774L24.9972 7.22089C25.6376 6.62876 26.6761 7.08293 26.6761 7.9551V20.5866C26.6761 21.4363 25.6836 21.8988 25.033 21.3524L22.1833 18.9591Z" fill="#6D6DA7"/>
<path d="M20.0557 11.4116L21.4428 10.1953V19.1243L20.0557 18.0252V11.4116Z" fill="#BCBCD6"/>
<path d="M25.8996 6.23582C25.7513 6.16667 25.5767 6.19193 25.4533 6.30041L20.3017 10.8208V8.74122C20.3003 7.57091 19.3672 6.62275 18.2155 6.6213H4.13217C2.98044 6.62275 2.04732 7.57091 2.0459 8.74122V20.6128C2.04732 21.7829 2.98044 22.7313 4.13217 22.7327H18.2155C19.3672 22.7313 20.3003 21.7829 20.3017 20.6128V18.3488L25.462 22.6369C25.5364 22.6988 25.6297 22.7327 25.7261 22.7327C25.788 22.7325 25.8491 22.718 25.9047 22.6903C26.0498 22.6205 26.1427 22.4721 26.1433 22.3087V6.6213C26.1433 6.45547 26.048 6.30476 25.8996 6.23582ZM19.4672 20.6128C19.4672 21.3152 18.9067 21.8848 18.2155 21.8848H4.13217C3.44089 21.8848 2.88041 21.3152 2.88041 20.6128V8.74122C2.88041 8.03879 3.44089 7.46927 4.13217 7.46927H18.2155C18.9067 7.46927 19.4672 8.03879 19.4672 8.74122V20.6128ZM25.3088 21.4146L20.3017 17.2532V11.9414L25.3088 7.54773V21.4146Z" fill="#6D6DA7"/>
<path opacity="0.4" d="M11.0091 17.5098C13.7562 17.5098 16.1187 16.3743 17.0527 14.7627C16.1187 13.151 13.7562 12.0155 11.0091 12.0155C8.26197 12.0155 5.89945 13.151 4.96543 14.7627C5.89945 16.3743 8.26197 17.5098 11.0091 17.5098Z" fill="white"/>
<ellipse cx="11.0096" cy="14.7635" rx="1.64827" ry="1.64827" fill="#F0F0F6"/>
<path d="M11.0189 11.2207C8.28679 11.2207 4.45896 14.2465 4.29757 14.3751C4.19354 14.4579 4.13281 14.585 4.13281 14.7193C4.13281 14.8536 4.19354 14.9804 4.29757 15.0635C4.45896 15.1921 8.28679 18.2179 11.0189 18.2179C13.751 18.2179 17.5789 15.1921 17.7403 15.0635C17.8443 14.9804 17.905 14.8536 17.905 14.7193C17.905 14.585 17.8443 14.4579 17.7403 14.3751C17.5789 14.2465 13.751 11.2207 11.0189 11.2207ZM11.0189 17.3432C9.09123 17.3432 6.35869 15.5008 5.28589 14.7193C6.35785 13.9373 9.08871 12.0953 11.0189 12.0953C12.9491 12.0953 15.6791 13.9377 16.7519 14.7193C15.68 15.5013 12.9491 17.3432 11.0189 17.3432Z" fill="#6D6DA7"/>
<ellipse cx="11.0191" cy="14.7203" rx="1.4527" ry="1.4527" fill="#BCBCD6"/>
<path d="M8.86719 14.7179C8.86719 15.9254 9.83071 16.9045 11.0191 16.9045C12.2075 16.9045 13.171 15.9254 13.171 14.7179C13.171 13.5101 12.2075 12.5312 11.0191 12.5312C9.83113 12.5327 8.86866 13.5107 8.86719 14.7179ZM12.3102 14.7179C12.3102 15.4424 11.7321 16.0298 11.0191 16.0298C10.3061 16.0298 9.72795 15.4424 9.72795 14.7179C9.72795 13.9933 10.3061 13.4059 11.0191 13.4059C11.7321 13.4059 12.3102 13.9933 12.3102 14.7179Z" fill="#6D6DA7"/>
</svg>
