<svg width="20" height="20" viewBox="0 0 20 20" fill="none" xmlns="http://www.w3.org/2000/svg">
<g clip-path="url(#clip0)">
<path d="M18.8951 0.00115967H1.10407C0.49486 0.00115967 0.000244141 0.494788 0.000244141 1.10499V18.896C0.000244141 19.5062 0.49486 20.0005 1.10407 20.0005H10.6822V12.2556H8.07612V9.23684H10.6822V7.01074C10.6822 4.42801 12.2593 3.02089 14.5637 3.02089C15.6686 3.02089 16.616 3.10354 16.8923 3.13944V5.83908L15.2938 5.83974C14.0408 5.83974 13.7991 6.43545 13.7991 7.30909V9.23586H16.7885L16.3976 12.2543H13.7988V19.9995H18.8948C19.5046 19.9995 19.9996 19.5046 19.9996 18.896V1.10433C19.9993 0.494788 19.505 0.00115967 18.8951 0.00115967Z" fill="#FFFFFF"/>
</g>
<defs>
<clipPath id="clip0">
<rect width="20" height="19.9997" fill="white" transform="translate(0.000244141 0.000152588)"/>
</clipPath>
</defs>
</svg>
