<svg width="16" height="16" viewBox="0 0 16 16" fill="none" xmlns="http://www.w3.org/2000/svg">
<path d="M10.9999 2C9.83992 2 8.72659 2.54 7.99992 3.39333C7.27325 2.54 6.15992 2 4.99992 2C2.94659 2 1.33325 3.61333 1.33325 5.66667C1.33325 8.18667 3.59992 10.24 7.03325 13.36L7.99992 14.2333L8.96659 13.3533C12.3999 10.24 14.6666 8.18667 14.6666 5.66667C14.6666 3.61333 13.0533 2 10.9999 2ZM8.06659 12.3667L7.99992 12.4333L7.93325 12.3667C4.75992 9.49333 2.66659 7.59333 2.66659 5.66667C2.66659 4.33333 3.66659 3.33333 4.99992 3.33333C6.02659 3.33333 7.02659 3.99333 7.37992 4.90667H8.62659C8.97325 3.99333 9.97325 3.33333 10.9999 3.33333C12.3333 3.33333 13.3333 4.33333 13.3333 5.66667C13.3333 7.59333 11.2399 9.49333 8.06659 12.3667Z" fill="#EB5757"/>
</svg>
