<svg width="12" height="12" viewBox="0 0 12 12" fill="none" xmlns="http://www.w3.org/2000/svg">
<path d="M11.3373 0H0.66232C0.296779 0 0 0.296187 0 0.66232V11.3373C0 11.7034 0.296779 12 0.66232 12H6.40941V7.35289H4.84568V5.54159H6.40941V4.20589C6.40941 2.65619 7.35566 1.81189 8.73839 1.81189C9.4013 1.81189 9.96977 1.86149 10.1355 1.88303V3.50287L9.17645 3.50326C8.42462 3.50326 8.27959 3.8607 8.27959 4.3849V5.541H10.0733L9.83877 7.3521H8.27939V11.9994H11.3371C11.703 11.9994 12 11.7024 12 11.3373V0.661924C11.9998 0.296187 11.7032 0 11.3373 0Z" fill="#475993"/>
</svg>
