<svg width="20" height="20" viewBox="0 0 20 20" fill="none" xmlns="http://www.w3.org/2000/svg">
<g clip-path="url(#clip0)">
<path d="M18.8949 0.000976562H1.10383C0.494616 0.000976562 0 0.494605 0 1.10481V18.8958C0 19.506 0.494616 20.0003 1.10383 20.0003H10.682V12.2554H8.07587V9.23666H10.682V7.01056C10.682 4.42782 12.259 3.0207 14.5635 3.0207C15.6683 3.0207 16.6157 3.10336 16.892 3.13925V5.83889L15.2936 5.83955C14.0406 5.83955 13.7989 6.43526 13.7989 7.30891V9.23567H16.7883L16.3974 12.2541H13.7985V19.9993H18.8945C19.5044 19.9993 19.9993 19.5044 19.9993 18.8958V1.10415C19.999 0.494605 19.5047 0.000976562 18.8949 0.000976562Z" fill="white"/>
</g>
<defs>
<clipPath id="clip0">
<rect width="20" height="19.9997" fill="white"/>
</clipPath>
</defs>
</svg>
