<svg width="81" height="80" viewBox="0 0 81 80" fill="none" xmlns="http://www.w3.org/2000/svg">
<path d="M57.3944 80H22.2669C15.5449 80 10.0938 74.5497 10.0938 67.8269V12.1731C10.0938 5.45029 15.5449 0 22.2669 0H52.7785L69.5675 16.8646V67.8269C69.5675 74.5497 64.1181 80 57.3944 80Z" fill="#00AC54"/>
<path d="M69.5664 16.8696H56.2323C54.3428 16.8696 52.8092 15.3402 52.8059 13.4499L52.7773 0" fill="#5CD697"/>
<path fill-rule="evenodd" clip-rule="evenodd" d="M57.4961 60.338H20.3607V30.9922H57.4961V60.338ZM22.8789 33.5104V57.8197H54.9779V33.5104H22.8789Z" fill="white"/>
<path d="M28.3247 57.8197V30.9922H30.8429V57.8197H28.3247Z" fill="white"/>
<path d="M55.6591 49.2266H21.0352V51.7448H55.6591V49.2266Z" fill="white"/>
<path d="M55.6591 38.2852H21.0352V40.8034H55.6591V38.2852Z" fill="white"/>
</svg>
