<svg width="81" height="80" viewBox="0 0 81 80" fill="none" xmlns="http://www.w3.org/2000/svg">
<path d="M57.3944 80H22.2668C15.5449 80 10.0938 74.5506 10.0938 67.8269V12.1731C10.0938 5.45029 15.5449 0 22.2668 0H52.7785L69.5675 16.8654V67.8269C69.5675 74.5506 64.118 80 57.3944 80Z" fill="#9954A1"/>
<path d="M69.5664 16.8696H56.2324C54.342 16.8696 52.8092 15.3402 52.805 13.4507L52.7773 0" fill="#D8ADDD"/>
<path d="M53.9669 29.4041C53.7604 29.2227 53.4834 29.1396 53.2123 29.1766L36.0153 31.4371C35.5402 31.4992 35.1852 31.9047 35.1852 32.384V50.9509C34.0679 49.9772 32.5536 49.3753 30.8857 49.3753C27.4618 49.3753 24.6758 51.8994 24.6758 55.0019C24.6758 58.1035 27.4618 60.6276 30.8857 60.6276C34.3097 60.6276 37.0957 58.1035 37.0957 55.0019V37.9988L52.3813 35.9892V45.927C51.2993 45.0037 49.8471 44.4337 48.248 44.4337C44.9156 44.4337 42.2043 46.8915 42.2043 49.9125C42.2043 52.9327 44.9156 55.3914 48.248 55.3914C51.5813 55.3914 54.2926 52.9327 54.2926 49.9125V34.8997V33.5146V30.1226C54.2926 29.8473 54.1743 29.5862 53.9669 29.4041Z" fill="white"/>
</svg>
