<svg width="81" height="80" viewBox="0 0 81 80" fill="none" xmlns="http://www.w3.org/2000/svg">
<path d="M57.3945 80H22.2669C15.5449 80 10.0938 74.5497 10.0938 67.8269V12.1731C10.0938 5.45029 15.5449 0 22.2669 0H52.7786L69.5676 16.8646V67.8269C69.5676 74.5497 64.1182 80 57.3945 80Z" fill="#EE3E2C"/>
<path d="M69.6933 16.8696H56.3593C54.469 16.8696 52.9362 15.3402 52.932 13.4499L52.9043 0" fill="#FF998F"/>
<path d="M45.1542 50.3457C40.3041 51.238 37.0111 52.4896 32.2886 54.3531C33.6929 51.6216 36.3471 44.6528 37.623 40.0571C39.4101 43.6313 41.58 47.1291 45.1542 50.3457ZM38.2366 35.5385C37.3938 32.5527 36.2195 25.9155 38.1082 23.7708C41.8108 25.8895 39.5125 30.9184 38.2366 35.5385ZM40.4065 24.9964C39.9213 23.2596 38.747 22.3925 37.7514 22.5201C36.5511 22.6729 35.2743 23.3881 34.764 24.5112C33.3353 27.7278 36.3219 37.1989 36.7811 38.7812C33.8717 47.5631 23.9146 64.9212 19.0393 66.0964C18.9377 64.9473 19.5497 61.6282 25.9829 57.4933C26.3153 57.1357 26.6981 56.7017 26.8769 56.4205C21.4392 59.0756 14.3932 63.339 18.6305 66.5295C18.8605 66.7083 19.2189 66.862 19.6269 67.0147C22.8687 68.2151 27.4124 64.2833 31.9822 55.3738C37.0111 53.7151 41.0705 52.4636 46.8137 51.5956C53.0933 55.859 57.3055 56.7278 60.1645 55.6298C60.9561 55.3234 62.2068 54.3279 62.5644 53.0251C60.2418 55.885 54.8041 53.8939 50.4643 51.1625C54.4725 50.7285 58.6074 50.4725 60.3937 51.034C62.666 51.7492 62.5896 52.8723 62.5644 53.0251C62.7424 52.4132 62.9984 51.4177 62.5132 50.6261C60.5985 47.5119 51.8166 49.3242 48.626 49.6566C43.5971 46.6187 40.1253 41.2062 38.721 37.3005C40.0237 32.2715 41.4272 28.621 40.4065 24.9964Z" fill="white"/>
</svg>
