<svg width="81" height="80" viewBox="0 0 81 80" fill="none" xmlns="http://www.w3.org/2000/svg">
<g clip-path="url(#clip0_5573_221186)">
<path d="M57.3944 80H22.2668C15.5449 80 10.0938 74.5497 10.0938 67.8269V12.1731C10.0938 5.44945 15.5449 0 22.2668 0H52.7785L69.5675 16.8646V67.8269C69.5675 74.5497 64.1181 80 57.3944 80Z" fill="#596C89"/>
<path d="M69.5663 16.8696H56.2323C54.3428 16.8696 52.8092 15.3394 52.8059 13.4499L52.7773 0" fill="#9FB1CC"/>
<path d="M35.3634 0H39.2642V3.90078H35.3634V0Z" fill="white"/>
<path d="M39.0085 3.64453H42.9092V7.54531H39.0085V3.64453Z" fill="white"/>
<path d="M35.3634 7.29297H39.2642V11.1937H35.3634V7.29297Z" fill="white"/>
<path d="M39.0085 10.9375H42.9092V14.8391H39.0085V10.9375Z" fill="white"/>
<path d="M35.3634 16.4062H39.2642V20.307H35.3634V16.4062Z" fill="white"/>
<path d="M39.0085 20.0547H42.9092V23.9555H39.0085V20.0547Z" fill="white"/>
<path d="M35.3634 23.6992H39.2642V27.5999H35.3634V23.6992Z" fill="white"/>
<path d="M39.0085 27.3477H42.9092V31.2492H39.0085V27.3477Z" fill="white"/>
<path d="M35.3634 30.9922H39.2642V34.893H35.3634V30.9922Z" fill="white"/>
<path d="M39.0085 34.6406H42.9092V38.5414H39.0085V34.6406Z" fill="white"/>
<path d="M35.1068 38.2852H42.9092V49.1665H35.1068V38.2852Z" fill="white"/>
<path d="M35.3634 43.7539H39.2642V47.6546H35.3634V43.7539Z" fill="#A1BEDF"/>
</g>
<defs>
<clipPath id="clip0_5573_221186">
<rect width="80" height="80" fill="white" transform="translate(0.09375)"/>
</clipPath>
</defs>
</svg>
