<svg width="81" height="80" viewBox="0 0 81 80" fill="none" xmlns="http://www.w3.org/2000/svg">
<g clip-path="url(#clip0_5573_221173)">
<path d="M57.3944 80H22.2668C15.5449 80 10.0938 74.5497 10.0938 67.8269V12.1731C10.0938 5.44945 15.5449 0 22.2668 0H52.7785L69.5675 16.8646V67.8269C69.5675 74.5497 64.1172 80 57.3944 80Z" fill="#F4B400"/>
<path d="M55.1946 26H24.4666C23.766 26.0041 23.0955 26.2796 22.6017 26.7662C22.1078 27.2529 21.8306 27.9112 21.8306 28.5973V49.1014C21.8306 49.7903 22.11 50.4509 22.6073 50.938C23.1047 51.4251 23.7792 51.6987 24.4826 51.6987H37.3426L29.8306 60.8617C29.6156 61.1237 29.5156 61.4585 29.5523 61.7926C29.589 62.1268 29.7596 62.433 30.0266 62.6442L30.1386 62.7303C30.4059 62.9344 30.7444 63.0274 31.0811 62.9893C31.4179 62.9512 31.7258 62.785 31.9386 62.5266L38.4426 54.6133V61.7157C38.4426 62.0513 38.5787 62.3731 38.821 62.6104C39.0633 62.8477 39.3919 62.9811 39.7346 62.9811H39.8746C40.2172 62.9811 40.5458 62.8477 40.7881 62.6104C41.0304 62.3731 41.1666 62.0513 41.1666 61.7157V54.6251L47.6746 62.5266C47.781 62.6565 47.9126 62.7646 48.0618 62.8446C48.2109 62.9245 48.3748 62.9749 48.5439 62.9927C48.713 63.0106 48.884 62.9955 49.0471 62.9485C49.2103 62.9014 49.3623 62.8233 49.4946 62.7186L49.6066 62.6324C49.7392 62.5281 49.8495 62.3993 49.9312 62.2532C50.0129 62.1071 50.0643 61.9466 50.0825 61.781C50.1007 61.6154 50.0853 61.4479 50.0373 61.2882C49.9893 61.1284 49.9095 60.9795 49.8026 60.8499L42.2706 51.6987H55.1946C55.8951 51.6946 56.5656 51.4191 57.0595 50.9325C57.5534 50.4458 57.8306 49.7875 57.8306 49.1014V28.5973C57.8306 27.9112 57.5534 27.2529 57.0595 26.7662C56.5656 26.2796 55.8951 26.0041 55.1946 26ZM35.5586 45.1173C35.5591 45.2423 35.5345 45.3662 35.4861 45.4819C35.4377 45.5976 35.3666 45.7028 35.2767 45.7916C35.1868 45.8804 35.08 45.9509 34.9622 45.9992C34.8445 46.0475 34.7182 46.0727 34.5906 46.0732H32.4346C32.1768 46.0732 31.9295 45.9729 31.7473 45.7944C31.565 45.6158 31.4626 45.3737 31.4626 45.1212V39.9619C31.4657 39.7115 31.5695 39.4724 31.7515 39.2964C31.9334 39.1204 32.1788 39.0217 32.4346 39.0217H34.5906C34.8484 39.0217 35.0956 39.122 35.2779 39.3005C35.4602 39.4791 35.5626 39.7212 35.5626 39.9737L35.5586 45.1173ZM41.8786 45.1173C41.8791 45.2427 41.8543 45.3669 41.8057 45.4828C41.7571 45.5988 41.6856 45.7042 41.5953 45.793C41.505 45.8818 41.3976 45.9523 41.2795 46.0004C41.1613 46.0484 41.0345 46.0732 40.9066 46.0732H38.7546C38.4968 46.0732 38.2495 45.9729 38.0673 45.7944C37.885 45.6158 37.7826 45.3737 37.7826 45.1212V37.3881C37.7826 37.1357 37.885 36.8935 38.0673 36.715C38.2495 36.5365 38.4968 36.4362 38.7546 36.4362H40.9106C41.1684 36.4362 41.4156 36.5365 41.5979 36.715C41.7802 36.8935 41.8826 37.1357 41.8826 37.3881L41.8786 45.1173ZM48.1986 45.1173C48.1991 45.2427 48.1743 45.3669 48.1257 45.4828C48.0771 45.5988 48.0056 45.7042 47.9153 45.793C47.825 45.8818 47.7176 45.9523 47.5995 46.0004C47.4813 46.0484 47.3545 46.0732 47.2266 46.0732H45.0706C44.8128 46.0732 44.5655 45.9729 44.3833 45.7944C44.201 45.6158 44.0986 45.3737 44.0986 45.1212V32.5853C44.0986 32.3328 44.201 32.0907 44.3833 31.9122C44.5655 31.7336 44.8128 31.6333 45.0706 31.6333H47.2266C47.3542 31.6333 47.4806 31.658 47.5985 31.7058C47.7165 31.7536 47.8236 31.8238 47.9139 31.9122C48.0041 32.0006 48.0757 32.1055 48.1246 32.221C48.1734 32.3365 48.1986 32.4603 48.1986 32.5853V45.1173Z" fill="white"/>
<path d="M69.5668 16.8696H56.232C54.3425 16.8696 52.8097 15.3394 52.8055 13.4499L52.7778 0" fill="#FFD253"/>
</g>
<defs>
<clipPath id="clip0_5573_221173">
<rect width="80" height="80" fill="white" transform="translate(0.09375)"/>
</clipPath>
</defs>
</svg>
