<svg width="81" height="80" viewBox="0 0 81 80" fill="none" xmlns="http://www.w3.org/2000/svg">
<path d="M57.394 80H22.267C15.5438 80 10.0938 74.5491 10.0938 67.8268V12.1732C10.0938 5.45008 15.5438 0 22.267 0H52.778L69.5664 16.8656V67.8268C69.5664 74.5491 64.1172 80 57.394 80Z" fill="#00AB54"/>
<path d="M69.5641 16.8689H56.2306C54.3404 16.8689 52.8071 15.339 52.8037 13.4497L52.7749 0" fill="#5CD697"/>
<path d="M21.1377 60.7495L29.9137 47.7346L37.6048 55.8232L47.0301 38.6602L58.4049 60.7495H21.1377Z" fill="white"/>
<path d="M39.0938 41.5005C39.0938 43.4343 37.5266 45 35.5948 45C33.6609 45 32.0938 43.4343 32.0938 41.5005C32.0938 39.5668 33.6609 38 35.5948 38C37.5266 38 39.0938 39.5668 39.0938 41.5005Z" fill="white"/>
</svg>
