<svg width="81" height="80" viewBox="0 0 81 80" fill="none" xmlns="http://www.w3.org/2000/svg">
<path d="M57.3944 80H22.2668C15.5449 80 10.0938 74.5497 10.0938 67.8269V12.1731C10.0938 5.44945 15.5449 0 22.2668 0H52.7785L69.5675 16.8646V67.8269C69.5675 74.5497 64.118 80 57.3944 80Z" fill="#DD4949"/>
<path d="M69.5664 16.8696H56.2324C54.342 16.8696 52.8092 15.3394 52.805 13.4499L52.7773 0" fill="#FC8181"/>
<path d="M47.4512 43.1387L32.8044 32.9131C32.4519 32.6671 31.9692 32.9189 31.9692 33.3487V53.7992C31.9692 54.229 32.4519 54.4808 32.8044 54.2349L47.4512 44.0092C47.7543 43.7977 47.7543 43.3503 47.4512 43.1387Z" fill="white"/>
</svg>
