<svg width="81" height="80" viewBox="0 0 81 80" fill="none" xmlns="http://www.w3.org/2000/svg">
<path d="M57.3944 80H22.2668C15.544 80 10.0938 74.5497 10.0938 67.8269V12.1731C10.0938 5.45029 15.544 0 22.2668 0H52.7785L69.5675 16.8646V67.8269C69.5675 74.5497 64.1172 80 57.3944 80Z" fill="#5380C0"/>
<path d="M69.5703 16.8696H56.2354C54.3459 16.8696 52.8131 15.3402 52.8089 13.4499L52.7812 0" fill="#8BB7F5"/>
<path d="M59.9232 29.168H21.0352V31.6862H59.9232V29.168Z" fill="white"/>
<path d="M59.9232 38.2852H21.0352V40.8034H59.9232V38.2852Z" fill="white"/>
<path d="M59.9232 47.3984H21.0352V49.9167H59.9232V47.3984Z" fill="white"/>
<path d="M40.4792 56.5156H21.0352V59.0339H40.4792V56.5156Z" fill="white"/>
</svg>
