<svg width="19" height="20" viewBox="0 0 19 20" fill="none" xmlns="http://www.w3.org/2000/svg">
<path d="M18 17H6M0 3H4H0ZM18 3H8H18ZM0 10H12H0ZM18 10H16H18ZM0 17H2H0Z" stroke="#C7C7D0" stroke-width="2" stroke-linecap="round"/>
<path d="M6 5C7.10457 5 8 4.10457 8 3C8 1.89543 7.10457 1 6 1C4.89543 1 4 1.89543 4 3C4 4.10457 4.89543 5 6 5Z" stroke="#C7C7D0" stroke-width="2" stroke-linecap="round"/>
<path d="M14 12C15.1046 12 16 11.1046 16 10C16 8.89543 15.1046 8 14 8C12.8954 8 12 8.89543 12 10C12 11.1046 12.8954 12 14 12Z" stroke="#C7C7D0" stroke-width="2" stroke-linecap="round"/>
<path d="M4 19C5.10457 19 6 18.1046 6 17C6 15.8954 5.10457 15 4 15C2.89543 15 2 15.8954 2 17C2 18.1046 2.89543 19 4 19Z" stroke="#C7C7D0" stroke-width="2" stroke-linecap="round"/>
</svg>
