<svg width="13" height="13" viewBox="0 0 13 13" fill="none" xmlns="http://www.w3.org/2000/svg">
<path d="M12.9445 0.369369C12.8398 0.12973 12.6587 0.00989479 12.4002 0.00976562H0.599469C0.34136 0.00976562 0.159976 0.12973 0.0554789 0.369369C-0.0489533 0.621278 -0.00597273 0.836537 0.184614 1.01472L4.72993 5.55991V10.0406C4.72993 10.2006 4.78835 10.3387 4.90509 10.4557L7.26514 12.8157C7.37587 12.9324 7.51411 12.9909 7.68013 12.9909C7.75382 12.9909 7.83061 12.9755 7.91053 12.9448C8.15033 12.8402 8.27026 12.6589 8.27026 12.4008V5.55995L12.8154 1.01476C13.0061 0.836569 13.049 0.621375 12.9445 0.369369Z" fill="#33334f"/>
</svg>
