<svg width="24" height="24" viewBox="0 0 24 24" fill="none" xmlns="http://www.w3.org/2000/svg">
<path d="M23.6197 1.75636H0.380252C0.170277 1.75636 0 1.92656 0 2.13661V22.1228C0 22.3328 0.170277 22.503 0.380252 22.503H23.6197C23.8299 22.503 24 22.3328 24 22.1228V2.13661C24 1.92656 23.8299 1.75636 23.6197 1.75636ZM21.7185 19.4714L16.4888 14.0556C16.431 13.9959 16.3365 13.992 16.2741 14.0469L12.6469 17.2394L8.0107 11.531C7.98058 11.4937 7.93655 11.4724 7.88674 11.4735C7.83875 11.4745 7.79395 11.4975 7.76528 11.536L2.28151 18.8943V4.03787H21.7185V19.4714Z" fill="#DEE2E6"/>
<path d="M16.1335 12.1294C17.7893 12.1294 19.1335 10.7864 19.1335 9.12952C19.1335 7.47311 17.7893 6.12939 16.1335 6.12939C14.4764 6.12939 13.1335 7.47311 13.1335 9.12952C13.1335 10.7863 14.4765 12.1294 16.1335 12.1294Z" fill="#DEE2E6"/>
</svg>
