<svg width="80" height="80" viewBox="0 0 80 80" fill="none"
     xmlns="http://www.w3.org/2000/svg">
  <path d="M72.2214 1.11133L74.022 5.97739L78.888 7.778L74.022 9.5786L72.2214 14.4447L70.4207 9.5786L65.5547 7.778L70.4207 5.97739L72.2214 1.11133Z"
        fill="#F2C94C"/>
  <path d="M14.4423 66.666L15.9351 70.7288L19.9978 72.2216L15.9351 73.7144L14.4423 77.7771L12.9495 73.7144L8.88672 72.2216L12.9495 70.7288L14.4423 66.666Z"
        fill="#F2C94C"/>
  <path d="M7.22483 4.44531L8.00029 7.55874L11.1137 8.3342L8.00029 9.10966L7.22483 12.2231L6.44937 9.10966L3.33594 8.3342L6.44937 7.55874L7.22483 4.44531Z"
        fill="#F2C94C"/>
  <path d="M58.3552 17.4121H21.6494C19.3101 17.4121 17.4141 19.3081 17.4141 21.6474V58.3533C17.4141 60.6926 19.3101 62.5886 21.6494 62.5886H58.3552C60.6945 62.5886 62.5905 60.6926 62.5905 58.3533V21.6474C62.5905 19.3081 60.6945 17.4121 58.3552 17.4121Z"
        fill="#CCD6DD"/>
  <path d="M58.3529 16H21.6471C18.5285 16 16 18.5285 16 21.6471V58.3529C16 61.4715 18.5285 64 21.6471 64H58.3529C61.4715 64 64 61.4715 64 58.3529V21.6471C64 18.5285 61.4715 16 58.3529 16ZM58.3529 18.8235C59.9101 18.8235 61.1765 20.0899 61.1765 21.6471V27.2941H52.7059V18.8235H58.3529ZM52.7059 41.4118H61.1765V49.8824H52.7059V41.4118ZM52.7059 38.5882V30.1176H61.1765V38.5882H52.7059ZM49.8824 18.8235V27.2941H41.4118V18.8235H49.8824ZM41.4118 30.1176H49.8824V38.5882H41.4118V30.1176ZM41.4118 41.4118H49.8824V49.8824H41.4118V41.4118ZM38.5882 18.8235V27.2941H30.1176V18.8235H38.5882ZM30.1176 30.1176H38.5882V38.5882H30.1176V30.1176ZM30.1176 41.4118H38.5882V49.8824H30.1176V41.4118ZM18.8235 21.6471C18.8235 20.0899 20.0899 18.8235 21.6471 18.8235H27.2941V27.2941H18.8235V21.6471ZM18.8235 30.1176H27.2941V38.5882H18.8235V30.1176ZM18.8235 41.4118H27.2941V49.8824H18.8235V41.4118ZM21.6471 61.1765C20.0899 61.1765 18.8235 59.9101 18.8235 58.3529V52.7059H27.2941V61.1765H21.6471ZM30.1176 61.1765V52.7059H38.5882V61.1765H30.1176ZM41.4118 61.1765V52.7059H49.8824V61.1765H41.4118ZM58.3529 61.1765H52.7059V52.7059H61.1765V58.3529C61.1765 59.9101 59.9101 61.1765 58.3529 61.1765Z"
        fill="#E1E8ED"/>
  <path d="M32.9393 61.177H24.4688V37.177C24.4688 35.6185 25.7337 34.3535 27.2923 34.3535H30.1158C31.6744 34.3535 32.9393 35.6185 32.9393 37.177V61.177Z"
        fill="#5C913B"/>
  <path d="M55.5292 61.1766H47.0586V27.2942C47.0586 25.7356 48.3235 24.4707 49.8821 24.4707H52.7057C54.2642 24.4707 55.5292 25.7356 55.5292 27.2942V61.1766Z"
        fill="#3B94D9"/>
  <path d="M44.2362 61.1756H35.7656V47.0579C35.7656 45.4993 37.0306 44.2344 38.5892 44.2344H41.4127C42.9713 44.2344 44.2362 45.4993 44.2362 47.0579V61.1756Z"
        fill="#DD2E44"/>
</svg>
