<svg fill="none" height="20" viewBox="0 0 20 20" width="20" xmlns="http://www.w3.org/2000/svg">
<circle cx="10" cy="10" fill="#00C389" r="10"/>
<path clip-rule="evenodd" d="M10 5C10.3696 5 10.6693 5.29965 10.6693 5.66929V14.3307C10.6693 14.7003 10.3696 15 10 15C9.63036 15 9.33071 14.7003 9.33071 14.3307V5.66929C9.33071 5.29965 9.63036 5 10 5Z" fill="white" fill-rule="evenodd"/>
<path clip-rule="evenodd" d="M5 9.99996C5 9.63032 5.29965 9.33067 5.66929 9.33067L14.3307 9.33067C14.7003 9.33067 15 9.63032 15 9.99996C15 10.3696 14.7003 10.6693 14.3307 10.6693L5.66929 10.6693C5.29965 10.6693 5 10.3696 5 9.99996Z" fill="white" fill-rule="evenodd"/>
</svg>
