<svg width="80" height="80" viewBox="0 0 80 80" fill="none"
     xmlns="http://www.w3.org/2000/svg">
  <circle cx="40.0017" cy="40" r="31.1111" fill="#27AE60"/>
  <path d="M34.4459 47.7223L28.02 41.2964C27.2977 40.5741 26.1311 40.5741 25.4089 41.2964C24.6866 42.0186 24.6866 43.1852 25.4089 43.9075L33.1496 51.6482C33.8718 52.3704 35.0385 52.3704 35.7607 51.6482L55.3533 32.0556C56.0755 31.3334 56.0755 30.1667 55.3533 29.4445C54.6311 28.7223 53.4644 28.7223 52.7422 29.4445L34.4459 47.7223Z"
        fill="white"/>
  <path d="M72.2214 1.11108L74.022 5.97715L78.888 7.77775L74.022 9.57836L72.2214 14.4444L70.4207 9.57836L65.5547 7.77775L70.4207 5.97715L72.2214 1.11108Z"
        fill="#F2C94C"/>
  <path d="M14.4423 66.6667L15.9351 70.7295L19.9978 72.2223L15.9351 73.7151L14.4423 77.7779L12.9495 73.7151L8.88672 72.2223L12.9495 70.7295L14.4423 66.6667Z"
        fill="#F2C94C"/>
  <path d="M7.22483 4.44458L8.00029 7.55801L11.1137 8.33347L8.00029 9.10893L7.22483 12.2224L6.44937 9.10893L3.33594 8.33347L6.44937 7.55801L7.22483 4.44458Z"
        fill="#F2C94C"/>
</svg>
