<svg width="50" height="50" viewBox="0 0 50 50" fill="none"
     xmlns="http://www.w3.org/2000/svg">
  <path d="M50 25C50 38.8069 38.8069 50 25 50C11.1944 50 0 38.8069 0 25C0 11.1944 11.1944 0 25 0C38.8069 0 50 11.1944 50 25Z"
        fill="#FFCC4D"/>
  <path d="M16.6675 23.6111C18.5852 23.6111 20.1398 21.4347 20.1398 18.75C20.1398 16.0653 18.5852 13.8889 16.6675 13.8889C14.7499 13.8889 13.1953 16.0653 13.1953 18.75C13.1953 21.4347 14.7499 23.6111 16.6675 23.6111Z"
        fill="#664500"/>
  <path d="M33.3336 23.6111C35.2512 23.6111 36.8058 21.4347 36.8058 18.75C36.8058 16.0653 35.2512 13.8889 33.3336 13.8889C31.4159 13.8889 29.8613 16.0653 29.8613 18.75C29.8613 21.4347 31.4159 23.6111 33.3336 23.6111Z"
        fill="#664500"/>
  <path d="M34.7227 29.1667C37.7907 29.1667 40.2782 31.6542 40.2782 34.7223C40.2782 37.7904 37.7907 40.2779 34.7227 40.2779H15.2782C12.2102 40.2779 9.72266 37.7904 9.72266 34.7223C9.72266 31.6542 12.2102 29.1667 15.2782 29.1667H34.7227Z"
        fill="white"/>
  <path d="M34.7229 27.7778H15.2784C11.4493 27.7778 8.33398 30.8931 8.33398 34.7223C8.33398 38.5514 11.4493 41.6667 15.2784 41.6667H34.7229C38.552 41.6667 41.6673 38.5514 41.6673 34.7223C41.6673 30.8931 38.552 27.7778 34.7229 27.7778ZM34.7229 30.5556C36.7826 30.5556 38.4868 32.0612 38.8187 34.0278H34.0284V30.5556H34.7229ZM32.6395 30.5556V34.0278H28.4729V30.5556H32.6395ZM27.084 30.5556V34.0278H22.9173V30.5556H27.084ZM21.5284 30.5556V34.0278H17.3618V30.5556H21.5284ZM15.2784 30.5556H15.9729V34.0278H11.1826C11.5145 32.0612 13.2187 30.5556 15.2784 30.5556ZM15.2784 38.8889C13.2187 38.8889 11.5145 37.3834 11.1826 35.4167H15.9729V38.8889H15.2784ZM17.3618 38.8889V35.4167H21.5284V38.8889H17.3618ZM22.9173 38.8889V35.4167H27.084V38.8889H22.9173ZM28.4729 38.8889V35.4167H32.6395V38.8889H28.4729ZM34.7229 38.8889H34.0284V35.4167H38.8187C38.4868 37.3834 36.7826 38.8889 34.7229 38.8889Z"
        fill="#664500"/>
</svg>
