<svg fill="none" height="121" viewBox="0 0 176 121" width="176" xmlns="http://www.w3.org/2000/svg">
  <rect fill="url(#paint0_linear)" height="84" rx="10" width="176" y="19"/>
  <g filter="url(#filter0_d)">
    <rect fill="#3654FF" height="36" rx="3" width="142" x="19" y="43"/>
    <path d="M39.0532 63.5171H34.9224L34.0581 66H32.1318L36.1602 55.3359H37.8228L41.8584 66H39.9248L39.0532 63.5171ZM35.4424 62.0229H38.5332L36.9878 57.5991L35.4424 62.0229ZM42.5688 61.979C42.5688 60.7583 42.8521 59.7793 43.4185 59.042C43.9849 58.2998 44.7441 57.9287 45.6963 57.9287C46.5361 57.9287 47.2148 58.2217 47.7324 58.8076V54.75H49.5122V66H47.9009L47.813 65.1797C47.2808 65.8242 46.5703 66.1465 45.6816 66.1465C44.7539 66.1465 44.002 65.7729 43.4258 65.0259C42.8545 64.2788 42.5688 63.2632 42.5688 61.979ZM44.3486 62.1328C44.3486 62.9385 44.5024 63.5684 44.8101 64.0225C45.1226 64.4717 45.5645 64.6963 46.1357 64.6963C46.8633 64.6963 47.3955 64.3716 47.7324 63.7222V60.3384C47.4053 59.7036 46.8779 59.3862 46.1504 59.3862C45.5742 59.3862 45.1299 59.6157 44.8174 60.0747C44.5049 60.5288 44.3486 61.2148 44.3486 62.1328ZM51.0356 61.979C51.0356 60.7583 51.3188 59.7793 51.8853 59.042C52.4517 58.2998 53.2109 57.9287 54.1631 57.9287C55.0029 57.9287 55.6816 58.2217 56.1992 58.8076V54.75H57.979V66H56.3677L56.2798 65.1797C55.7476 65.8242 55.0371 66.1465 54.1484 66.1465C53.2207 66.1465 52.4688 65.7729 51.8926 65.0259C51.3213 64.2788 51.0356 63.2632 51.0356 61.979ZM52.8154 62.1328C52.8154 62.9385 52.9692 63.5684 53.2769 64.0225C53.5894 64.4717 54.0312 64.6963 54.6025 64.6963C55.3301 64.6963 55.8623 64.3716 56.1992 63.7222V60.3384C55.8721 59.7036 55.3447 59.3862 54.6172 59.3862C54.041 59.3862 53.5967 59.6157 53.2842 60.0747C52.9717 60.5288 52.8154 61.2148 52.8154 62.1328ZM68.3062 66C68.228 65.8486 68.1597 65.6021 68.1011 65.2603C67.5347 65.8511 66.8413 66.1465 66.021 66.1465C65.2251 66.1465 64.5757 65.9194 64.0728 65.4653C63.5698 65.0112 63.3184 64.4497 63.3184 63.7808C63.3184 62.936 63.6309 62.2891 64.2559 61.8398C64.8857 61.3857 65.7842 61.1587 66.9512 61.1587H68.0425V60.6387C68.0425 60.2285 67.9277 59.9014 67.6982 59.6572C67.4688 59.4082 67.1196 59.2837 66.6509 59.2837C66.2456 59.2837 65.9136 59.3862 65.6548 59.5913C65.396 59.7915 65.2666 60.0479 65.2666 60.3604H63.4868C63.4868 59.9258 63.6309 59.5205 63.9189 59.1445C64.207 58.7637 64.5977 58.4658 65.0908 58.251C65.5889 58.0361 66.1431 57.9287 66.7534 57.9287C67.6812 57.9287 68.4209 58.1631 68.9727 58.6318C69.5244 59.0957 69.8076 59.75 69.8223 60.5947V64.1689C69.8223 64.8818 69.9224 65.4507 70.1226 65.8755V66H68.3062ZM66.3506 64.7183C66.7021 64.7183 67.0317 64.6328 67.3394 64.4619C67.6519 64.291 67.8862 64.0615 68.0425 63.7734V62.2793H67.083C66.4238 62.2793 65.9282 62.394 65.5962 62.6235C65.2642 62.853 65.0981 63.1777 65.0981 63.5977C65.0981 63.9395 65.2104 64.2129 65.4351 64.418C65.6646 64.6182 65.9697 64.7183 66.3506 64.7183ZM78.626 62.1182C78.626 63.3438 78.3477 64.3228 77.791 65.0552C77.2344 65.7827 76.4873 66.1465 75.5498 66.1465C74.6807 66.1465 73.9849 65.8608 73.4624 65.2896V69.0469H71.6826V58.0752H73.3232L73.3965 58.8809C73.9189 58.2461 74.6294 57.9287 75.5278 57.9287C76.4946 57.9287 77.2515 58.29 77.7983 59.0127C78.3501 59.7305 78.626 60.729 78.626 62.0083V62.1182ZM76.8535 61.9644C76.8535 61.1733 76.6948 60.5459 76.3774 60.082C76.0649 59.6182 75.6157 59.3862 75.0298 59.3862C74.3022 59.3862 73.7798 59.6865 73.4624 60.2871V63.8027C73.7847 64.418 74.312 64.7256 75.0444 64.7256C75.6108 64.7256 76.0527 64.4985 76.3701 64.0444C76.6924 63.5854 76.8535 62.8921 76.8535 61.9644ZM87.0781 62.1182C87.0781 63.3438 86.7998 64.3228 86.2432 65.0552C85.6865 65.7827 84.9395 66.1465 84.002 66.1465C83.1328 66.1465 82.437 65.8608 81.9146 65.2896V69.0469H80.1348V58.0752H81.7754L81.8486 58.8809C82.3711 58.2461 83.0815 57.9287 83.98 57.9287C84.9468 57.9287 85.7036 58.29 86.2505 59.0127C86.8022 59.7305 87.0781 60.729 87.0781 62.0083V62.1182ZM85.3057 61.9644C85.3057 61.1733 85.147 60.5459 84.8296 60.082C84.5171 59.6182 84.0679 59.3862 83.4819 59.3862C82.7544 59.3862 82.2319 59.6865 81.9146 60.2871V63.8027C82.2368 64.418 82.7642 64.7256 83.4966 64.7256C84.063 64.7256 84.5049 64.4985 84.8223 64.0444C85.1445 63.5854 85.3057 62.8921 85.3057 61.9644ZM94.5562 56.1489V58.0752H95.9551V59.3936H94.5562V63.8174C94.5562 64.1201 94.6147 64.3398 94.7319 64.4766C94.854 64.6084 95.0688 64.6743 95.3765 64.6743C95.5815 64.6743 95.7891 64.6499 95.999 64.6011V65.978C95.5938 66.0903 95.2031 66.1465 94.8271 66.1465C93.46 66.1465 92.7764 65.3921 92.7764 63.8833V59.3936H91.4727V58.0752H92.7764V56.1489H94.5562ZM96.7681 61.9644C96.7681 61.188 96.9219 60.4897 97.2295 59.8696C97.5371 59.2446 97.9692 58.7661 98.5259 58.4341C99.0825 58.0972 99.7222 57.9287 100.445 57.9287C101.514 57.9287 102.381 58.2729 103.045 58.9614C103.714 59.6499 104.075 60.563 104.129 61.7007L104.136 62.1182C104.136 62.8994 103.985 63.5977 103.682 64.2129C103.384 64.8281 102.955 65.3042 102.393 65.6411C101.836 65.978 101.192 66.1465 100.459 66.1465C99.3413 66.1465 98.4453 65.7754 97.7715 65.0332C97.1025 64.2861 96.7681 63.2925 96.7681 62.0522V61.9644ZM98.5479 62.1182C98.5479 62.9336 98.7163 63.5732 99.0532 64.0371C99.3901 64.4961 99.8589 64.7256 100.459 64.7256C101.06 64.7256 101.526 64.4912 101.858 64.0225C102.195 63.5537 102.364 62.8677 102.364 61.9644C102.364 61.1636 102.19 60.5288 101.844 60.0601C101.502 59.5913 101.036 59.3569 100.445 59.3569C99.8638 59.3569 99.4023 59.5889 99.0605 60.0527C98.7188 60.5117 98.5479 61.2002 98.5479 62.1182ZM109.065 61.979C109.065 60.7485 109.354 59.7671 109.93 59.0347C110.511 58.2974 111.28 57.9287 112.237 57.9287C113.14 57.9287 113.851 58.2437 114.368 58.8735L114.449 58.0752H116.053V65.7583C116.053 66.7983 115.728 67.6187 115.079 68.2192C114.434 68.8198 113.562 69.1201 112.464 69.1201C111.883 69.1201 111.314 68.998 110.757 68.7539C110.206 68.5146 109.786 68.1997 109.498 67.8091L110.34 66.7397C110.887 67.3892 111.561 67.7139 112.361 67.7139C112.952 67.7139 113.418 67.5527 113.76 67.2305C114.102 66.9131 114.273 66.4443 114.273 65.8242V65.2896C113.76 65.8608 113.077 66.1465 112.222 66.1465C111.294 66.1465 110.535 65.7778 109.944 65.0405C109.358 64.3032 109.065 63.2827 109.065 61.979ZM110.838 62.1328C110.838 62.9287 110.999 63.5562 111.321 64.0151C111.648 64.4692 112.1 64.6963 112.676 64.6963C113.394 64.6963 113.926 64.3887 114.273 63.7734V60.2871C113.936 59.6865 113.409 59.3862 112.691 59.3862C112.105 59.3862 111.648 59.6182 111.321 60.082C110.999 60.5459 110.838 61.2295 110.838 62.1328ZM122.037 59.7012C121.802 59.6621 121.561 59.6426 121.312 59.6426C120.496 59.6426 119.947 59.9551 119.664 60.5801V66H117.884V58.0752H119.583L119.627 58.9614C120.057 58.2729 120.652 57.9287 121.414 57.9287C121.668 57.9287 121.878 57.9629 122.044 58.0312L122.037 59.7012ZM122.564 61.9644C122.564 61.188 122.718 60.4897 123.025 59.8696C123.333 59.2446 123.765 58.7661 124.322 58.4341C124.878 58.0972 125.518 57.9287 126.241 57.9287C127.31 57.9287 128.177 58.2729 128.841 58.9614C129.51 59.6499 129.871 60.563 129.925 61.7007L129.932 62.1182C129.932 62.8994 129.781 63.5977 129.478 64.2129C129.18 64.8281 128.75 65.3042 128.189 65.6411C127.632 65.978 126.988 66.1465 126.255 66.1465C125.137 66.1465 124.241 65.7754 123.567 65.0332C122.898 64.2861 122.564 63.2925 122.564 62.0522V61.9644ZM124.344 62.1182C124.344 62.9336 124.512 63.5732 124.849 64.0371C125.186 64.4961 125.655 64.7256 126.255 64.7256C126.856 64.7256 127.322 64.4912 127.654 64.0225C127.991 63.5537 128.16 62.8677 128.16 61.9644C128.16 61.1636 127.986 60.5288 127.64 60.0601C127.298 59.5913 126.832 59.3569 126.241 59.3569C125.66 59.3569 125.198 59.5889 124.856 60.0527C124.515 60.5117 124.344 61.2002 124.344 62.1182ZM136.238 65.2236C135.716 65.8389 134.974 66.1465 134.012 66.1465C133.152 66.1465 132.5 65.895 132.056 65.3921C131.617 64.8892 131.397 64.1616 131.397 63.2095V58.0752H133.177V63.1875C133.177 64.1934 133.594 64.6963 134.429 64.6963C135.293 64.6963 135.877 64.3862 136.18 63.7661V58.0752H137.959V66H136.282L136.238 65.2236ZM146.712 62.1182C146.712 63.3438 146.434 64.3228 145.877 65.0552C145.32 65.7827 144.573 66.1465 143.636 66.1465C142.767 66.1465 142.071 65.8608 141.548 65.2896V69.0469H139.769V58.0752H141.409L141.482 58.8809C142.005 58.2461 142.715 57.9287 143.614 57.9287C144.581 57.9287 145.337 58.29 145.884 59.0127C146.436 59.7305 146.712 60.729 146.712 62.0083V62.1182ZM144.939 61.9644C144.939 61.1733 144.781 60.5459 144.463 60.082C144.151 59.6182 143.702 59.3862 143.116 59.3862C142.388 59.3862 141.866 59.6865 141.548 60.2871V63.8027C141.871 64.418 142.398 64.7256 143.13 64.7256C143.697 64.7256 144.139 64.4985 144.456 64.0444C144.778 63.5854 144.939 62.8921 144.939 61.9644Z"
          fill="white"/>
  </g>
  <circle cx="89.5" cy="60.5" fill="url(#paint1_radial)" fill-opacity="0.3" r="59.5" stroke="#FF3737" stroke-width="2"/>
  <defs>
    <filter color-interpolation-filters="sRGB" filterUnits="userSpaceOnUse" height="48" id="filter0_d" width="154"
            x="13" y="39">
      <feFlood flood-opacity="0" result="BackgroundImageFix"/>
      <feColorMatrix in="SourceAlpha" type="matrix" values="0 0 0 0 0 0 0 0 0 0 0 0 0 0 0 0 0 0 127 0"/>
      <feOffset dy="2"/>
      <feGaussianBlur stdDeviation="3"/>
      <feColorMatrix type="matrix" values="0 0 0 0 0 0 0 0 0 0.396078 0 0 0 0 1 0 0 0 0.25 0"/>
      <feBlend in2="BackgroundImageFix" mode="normal" result="effect1_dropShadow"/>
      <feBlend in="SourceGraphic" in2="effect1_dropShadow" mode="normal" result="shape"/>
    </filter>
    <linearGradient gradientUnits="userSpaceOnUse" id="paint0_linear" x1="166.262" x2="3.60655" y1="61" y2="61">
      <stop stop-color="white"/>
      <stop offset="1" stop-color="white" stop-opacity="0"/>
    </linearGradient>
    <radialGradient cx="0" cy="0" gradientTransform="translate(89.5 60.5) rotate(90) scale(60.5)"
                    gradientUnits="userSpaceOnUse" id="paint1_radial" r="1">
      <stop offset="0.520833" stop-color="#FF0000" stop-opacity="0"/>
      <stop offset="1" stop-color="#FF0404" stop-opacity="0.51"/>
    </radialGradient>
  </defs>
</svg>
