<svg width="22" height="15" viewBox="0 0 22 15" fill="none" xmlns="http://www.w3.org/2000/svg">
<path d="M12.5716 8.71859C12.8928 8.85541 13.2131 8.99619 13.5375 9.1228C13.6933 9.18444 13.7519 9.28652 13.7844 9.44786C13.8572 9.81654 13.7986 10.1701 13.7116 10.5253C13.6468 10.795 13.5265 10.8916 13.2528 10.9358C13.172 10.9492 13.0906 10.9967 13.0242 11.0481C12.9642 11.0948 12.9096 11.1486 12.8541 11.2016C13.5154 11.4832 14.1997 11.7965 14.8823 12.1469C15.2098 12.3154 15.4985 12.5257 15.7414 12.7758L15.9653 13.0075V14.1174C17.7514 14.1174 19.5375 14.1174 21.3229 14.1174C21.1718 13.1048 20.5548 12.5045 19.6222 12.1596C19.0146 11.9357 18.419 11.6762 17.8281 11.4088C17.6596 11.3305 17.5346 11.1628 17.3836 11.0473C17.3172 10.9967 17.2349 10.9484 17.1567 10.9342C16.8815 10.8908 16.7612 10.7934 16.6963 10.5229C16.6117 10.1685 16.5491 9.81415 16.6235 9.44627C16.656 9.28493 16.7144 9.18285 16.8703 9.12121C17.1962 8.9954 17.5142 8.85381 17.8362 8.717C18.0775 8.61492 18.0909 8.53193 18.0047 8.2827C17.7279 7.50041 17.523 6.703 17.4565 5.86608C17.4131 5.33766 17.4273 4.79743 17.3008 4.27842H17.281C17.2699 4.23016 17.2645 4.18191 17.2517 4.13445C17.0184 3.21918 16.0375 2.72165 15.2124 2.66862C15.2045 2.66782 15.1982 2.66623 15.1927 2.66623C15.1294 2.66226 15.0692 2.6718 15.0076 2.67578C14.6604 2.72403 14.3755 2.94397 14.0449 3.04048C13.6153 3.16708 13.3511 3.56254 13.1906 3.98809C12.9636 4.59327 13.0055 5.23876 12.9541 5.86515C12.8877 6.70286 12.6819 7.49868 12.4059 8.28098C12.316 8.5318 12.3319 8.61731 12.5716 8.71859Z" fill="#33334F"/>
<path d="M14.5184 12.8538C13.2607 12.2099 11.9602 11.6751 10.6439 11.1697C10.545 11.1318 10.428 11.0575 10.3877 10.9704C10.2808 10.7331 10.2066 10.4822 10.1298 10.2323C10.0816 10.0734 10.0405 9.92225 9.86401 9.84708C9.81734 9.82733 9.77624 9.734 9.77624 9.67541C9.78579 9.09793 9.65282 8.49129 10.0808 7.9866C10.0949 7.97002 10.0973 7.94788 10.1085 7.93039C10.3386 7.4241 10.3806 6.84662 10.7033 6.37521C10.7113 6.36407 10.7129 6.34909 10.7144 6.3349C10.7516 5.97577 10.792 5.61743 10.8213 5.2583C10.8245 5.21323 10.7856 5.13488 10.7469 5.12069C10.5689 5.05746 10.5784 4.91508 10.58 4.7719C10.58 4.07021 10.58 3.36865 10.5784 2.66695C10.5784 2.25877 10.4582 1.89566 10.1505 1.61885C9.80011 1.304 9.43859 0.998689 9.07866 0.69338C8.9038 0.545432 8.89041 0.433144 9.05254 0.270216C9.12532 0.199026 9.21786 0.148384 9.29939 0.0883297C9.28282 0.0606226 9.26373 0.0337105 9.24716 0.00600336C9.13726 0.00600336 9.02643 -0.00897686 8.9213 0.00838983C8.52266 0.0724212 8.12084 0.128631 7.73002 0.22196C6.98246 0.398411 6.25558 0.63253 5.64721 1.13245C5.23266 1.47581 4.90203 1.87445 4.85855 2.43761C4.8388 2.7335 4.84118 3.03006 4.8388 3.32596C4.83641 3.80772 4.84278 4.29107 4.83243 4.7719C4.83084 4.85105 4.78497 4.97911 4.73195 4.99661C4.53733 5.05984 4.53176 5.18406 4.55709 5.34699C4.57525 5.45848 4.56186 5.57554 4.58559 5.68478C4.6528 5.98611 4.72479 6.28758 4.81109 6.58414C4.87592 6.80486 5.00173 7.01366 5.03659 7.23837C5.10619 7.68685 5.2723 8.07847 5.57602 8.41625C5.62507 8.47167 5.66378 8.56579 5.65835 8.64017C5.63462 8.98591 5.59975 9.33072 5.55229 9.67408C5.54195 9.74129 5.47156 9.84099 5.41389 9.85358C5.18454 9.90263 5.14888 10.0783 5.09506 10.257C5.02228 10.4935 4.94631 10.7292 4.85298 10.9579C4.82528 11.0291 4.75329 11.1042 4.68369 11.1343C4.27471 11.3132 3.8595 11.4769 3.44814 11.6477C3.00986 11.8311 2.56933 12.0076 2.14298 12.2108C1.70152 12.422 1.27438 12.6577 0.84406 12.8896C0.590983 13.024 0.352887 13.1743 0.154297 13.3626V14.118C5.15909 14.118 10.164 14.118 15.1696 14.118V13.3309C14.9852 13.1401 14.7692 12.982 14.5184 12.8538Z" fill="#33334F"/>
</svg>
