<svg width="50" height="50" viewBox="0 0 50 50" fill="none" xmlns="http://www.w3.org/2000/svg">
<rect opacity="0.1" x="5.95605" y="14.6973" width="42.0441" height="30.517" rx="3" fill="#6D6DA7"/>
<path fill-rule="evenodd" clip-rule="evenodd" d="M25.9737 18.9536H19.8678V23.4329H15.6113V29.5388H19.8678V34.4591H25.9737V29.5388H31.1168V23.4329H25.9737V18.9536Z" fill="white"/>
<path d="M31.2746 22.473C31.2716 22.473 31.2687 22.473 31.2657 22.473H27.6342V18.8326C27.6391 18.0984 27.0479 17.4992 26.3137 17.4943C26.3107 17.4943 26.3077 17.4943 26.3048 17.4943H21.0584C20.3242 17.4943 19.729 18.0895 19.729 18.8237V22.4641H16.0975C15.3633 22.4592 14.7641 23.0503 14.7592 23.7845C14.7592 23.7905 14.7592 23.7964 14.7592 23.8024V29.0399C14.7592 29.7741 15.3544 30.3694 16.0886 30.3694H19.729V34.0008C19.7241 34.735 20.3153 35.3342 21.0495 35.3391C21.0525 35.3391 21.0555 35.3391 21.0584 35.3391H26.2959C27.0301 35.3391 27.6253 34.7439 27.6253 34.0097V30.3694H31.2657C31.9999 30.3743 32.5991 29.783 32.604 29.0488C32.604 29.0458 32.604 29.0428 32.604 29.0399V23.8024C32.604 23.0682 32.0089 22.473 31.2746 22.473ZM30.8195 28.5849H26.742C26.2493 28.5849 25.8497 28.9844 25.8497 29.4771V33.5547H21.5134V29.4771C21.5134 28.9844 21.1139 28.5849 20.6212 28.5849H16.5436V24.2575H20.6212C21.1139 24.2575 21.5134 23.858 21.5134 23.3652V19.2788H25.8408V23.3563C25.8408 23.8491 26.2403 24.2486 26.7331 24.2486H30.8195V28.5849Z" fill="#6D6DA7"/>
<path d="M39.2066 10.821H31.8545V7.68031C31.9008 6.24715 30.7764 5.04775 29.3433 5.00146C29.2702 4.99912 29.1971 4.99979 29.1242 5.00358H18.2388C16.8068 4.92897 15.5854 6.02933 15.5107 7.46127C15.5069 7.53421 15.5061 7.60726 15.5086 7.68031V10.8032H8.15648C5.31915 10.8032 2 12.4181 2 16.9596V36.3659C2 40.9075 5.31915 42.5224 8.15648 42.5224H39.2066C42.0439 42.5224 45.363 40.9075 45.363 36.3659V16.9775C45.363 12.436 42.0528 10.821 39.2066 10.821ZM17.2931 7.68031C17.2931 7.42156 17.2931 6.72561 18.2478 6.72561H29.1242C30.0789 6.72561 30.0789 7.41264 30.0789 7.68031V10.8032H17.2931V7.68031ZM43.5786 36.3659C43.5786 40.3097 40.5271 40.7379 39.2066 40.7379H8.15648C6.84488 40.7379 3.78449 40.3097 3.78449 36.3659V16.9775C3.78449 13.0338 6.83596 12.6055 8.15648 12.6055H39.2066C40.5182 12.6055 43.5786 13.0338 43.5786 16.9775V36.3659Z" fill="#6D6DA7"/>
<path d="M31.2746 22.473C31.2716 22.473 31.2687 22.473 31.2657 22.473H27.6342V18.8326C27.6391 18.0984 27.0479 17.4992 26.3137 17.4943C26.3107 17.4943 26.3077 17.4943 26.3048 17.4943H21.0584C20.3242 17.4943 19.729 18.0895 19.729 18.8237V22.4641H16.0975C15.3633 22.4592 14.7641 23.0503 14.7592 23.7845C14.7592 23.7905 14.7592 23.7964 14.7592 23.8024V29.0399C14.7592 29.7741 15.3544 30.3694 16.0886 30.3694H19.729V34.0008C19.7241 34.735 20.3153 35.3342 21.0495 35.3391C21.0525 35.3391 21.0555 35.3391 21.0584 35.3391H26.2959C27.0301 35.3391 27.6253 34.7439 27.6253 34.0097V30.3694H31.2657C31.9999 30.3743 32.5991 29.783 32.604 29.0488C32.604 29.0458 32.604 29.0428 32.604 29.0399V23.8024C32.604 23.0682 32.0089 22.473 31.2746 22.473ZM30.8195 28.5849H26.742C26.2493 28.5849 25.8497 28.9844 25.8497 29.4771V33.5547H21.5134V29.4771C21.5134 28.9844 21.1139 28.5849 20.6212 28.5849H16.5436V24.2575H20.6212C21.1139 24.2575 21.5134 23.858 21.5134 23.3652V19.2788H25.8408V23.3563C25.8408 23.8491 26.2403 24.2486 26.7331 24.2486H30.8195V28.5849Z" stroke="#6D6DA7" stroke-width="0.4"/>
<path d="M39.2066 10.821H31.8545V7.68031C31.9008 6.24715 30.7764 5.04775 29.3433 5.00146C29.2702 4.99912 29.1971 4.99979 29.1242 5.00358H18.2388C16.8068 4.92897 15.5854 6.02933 15.5107 7.46127C15.5069 7.53421 15.5061 7.60726 15.5086 7.68031V10.8032H8.15648C5.31915 10.8032 2 12.4181 2 16.9596V36.3659C2 40.9075 5.31915 42.5224 8.15648 42.5224H39.2066C42.0439 42.5224 45.363 40.9075 45.363 36.3659V16.9775C45.363 12.436 42.0528 10.821 39.2066 10.821ZM17.2931 7.68031C17.2931 7.42156 17.2931 6.72561 18.2478 6.72561H29.1242C30.0789 6.72561 30.0789 7.41264 30.0789 7.68031V10.8032H17.2931V7.68031ZM43.5786 36.3659C43.5786 40.3097 40.5271 40.7379 39.2066 40.7379H8.15648C6.84488 40.7379 3.78449 40.3097 3.78449 36.3659V16.9775C3.78449 13.0338 6.83596 12.6055 8.15648 12.6055H39.2066C40.5182 12.6055 43.5786 13.0338 43.5786 16.9775V36.3659Z" stroke="#6D6DA7" stroke-width="0.4"/>
</svg>
