<svg width="30" height="31" viewBox="0 0 30 31" fill="none" xmlns="http://www.w3.org/2000/svg">
<rect opacity="0.1" x="4.78027" y="9.86523" width="21.8168" height="15.8354" rx="3" fill="#6D6DA7"/>
<path fill-rule="evenodd" clip-rule="evenodd" d="M15.1668 12.0742H11.9984V14.3985H9.79004V17.5669H11.9984V20.1201H15.1668V17.5669H17.8359V14.3985H15.1668V12.0742Z" fill="white"/>
<path d="M17.9182 13.9008C17.9167 13.9008 17.9152 13.9008 17.9136 13.9008H16.0292V12.0118C16.0318 11.6308 15.725 11.3198 15.344 11.3173C15.3424 11.3173 15.3409 11.3173 15.3394 11.3173H12.617C12.236 11.3173 11.9272 11.6262 11.9272 12.0072V13.8961H10.0428C9.66181 13.8936 9.35085 14.2003 9.34831 14.5813C9.34831 14.5844 9.34831 14.5875 9.34831 14.5906V17.3084C9.34831 17.6894 9.65718 17.9982 10.0382 17.9982H11.9272V19.8826C11.9246 20.2636 12.2314 20.5745 12.6124 20.5771C12.6139 20.5771 12.6155 20.5771 12.617 20.5771H15.3347C15.7157 20.5771 16.0246 20.2682 16.0246 19.8872V17.9982H17.9136C18.2946 18.0008 18.6055 17.694 18.6081 17.313C18.6081 17.3114 18.6081 17.3099 18.6081 17.3084V14.5906C18.6081 14.2096 18.2993 13.9008 17.9182 13.9008ZM17.6821 17.0722H15.5662C15.3106 17.0722 15.1032 17.2795 15.1032 17.5352V19.6511H12.8531V17.5352C12.8531 17.2795 12.6458 17.0722 12.3901 17.0722H10.2743V14.8268H12.3901C12.6458 14.8268 12.8531 14.6195 12.8531 14.3638V12.2433H15.0986V14.3591C15.0986 14.6148 15.3059 14.8221 15.5616 14.8221H17.6821V17.0722Z" fill="#6D6DA7"/>
<path d="M22.0341 7.85453H18.2191V6.22481C18.2431 5.48113 17.6597 4.85876 16.916 4.83474C16.8781 4.83353 16.8402 4.83387 16.8024 4.83584H11.1539C10.4108 4.79713 9.77705 5.36811 9.73828 6.11114C9.73631 6.14899 9.73591 6.1869 9.73718 6.22481V7.84527H5.92216C4.44985 7.84527 2.72754 8.68327 2.72754 11.0399V21.1099C2.72754 23.4665 4.44985 24.3045 5.92216 24.3045H22.0341C23.5064 24.3045 25.2288 23.4665 25.2288 21.1099V11.0491C25.2288 8.69253 23.5111 7.85453 22.0341 7.85453ZM10.6632 6.22481C10.6632 6.09054 10.6632 5.72941 11.1586 5.72941H16.8024C17.2978 5.72941 17.2978 6.08591 17.2978 6.22481V7.84527H10.6632V6.22481ZM24.3028 21.1099C24.3028 23.1563 22.7194 23.3785 22.0341 23.3785H5.92216C5.24156 23.3785 3.65352 23.1563 3.65352 21.1099V11.0491C3.65352 9.00274 5.23693 8.7805 5.92216 8.7805H22.0341C22.7147 8.7805 24.3028 9.00274 24.3028 11.0491V21.1099Z" fill="#6D6DA7"/>
<path d="M17.9182 13.9008C17.9167 13.9008 17.9152 13.9008 17.9136 13.9008H16.0292V12.0118C16.0318 11.6308 15.725 11.3198 15.344 11.3173C15.3424 11.3173 15.3409 11.3173 15.3394 11.3173H12.617C12.236 11.3173 11.9272 11.6262 11.9272 12.0072V13.8961H10.0428C9.66181 13.8936 9.35085 14.2003 9.34831 14.5813C9.34831 14.5844 9.34831 14.5875 9.34831 14.5906V17.3084C9.34831 17.6894 9.65718 17.9982 10.0382 17.9982H11.9272V19.8826C11.9246 20.2636 12.2314 20.5745 12.6124 20.5771C12.6139 20.5771 12.6155 20.5771 12.617 20.5771H15.3347C15.7157 20.5771 16.0246 20.2682 16.0246 19.8872V17.9982H17.9136C18.2946 18.0008 18.6055 17.694 18.6081 17.313C18.6081 17.3114 18.6081 17.3099 18.6081 17.3084V14.5906C18.6081 14.2096 18.2993 13.9008 17.9182 13.9008ZM17.6821 17.0722H15.5662C15.3106 17.0722 15.1032 17.2795 15.1032 17.5352V19.6511H12.8531V17.5352C12.8531 17.2795 12.6458 17.0722 12.3901 17.0722H10.2743V14.8268H12.3901C12.6458 14.8268 12.8531 14.6195 12.8531 14.3638V12.2433H15.0986V14.3591C15.0986 14.6148 15.3059 14.8221 15.5616 14.8221H17.6821V17.0722Z" stroke="#6D6DA7" stroke-width="0.4"/>
<path d="M22.0341 7.85453H18.2191V6.22481C18.2431 5.48113 17.6597 4.85876 16.916 4.83474C16.8781 4.83353 16.8402 4.83387 16.8024 4.83584H11.1539C10.4108 4.79713 9.77705 5.36811 9.73828 6.11114C9.73631 6.14899 9.73591 6.1869 9.73718 6.22481V7.84527H5.92216C4.44985 7.84527 2.72754 8.68327 2.72754 11.0399V21.1099C2.72754 23.4665 4.44985 24.3045 5.92216 24.3045H22.0341C23.5064 24.3045 25.2288 23.4665 25.2288 21.1099V11.0491C25.2288 8.69253 23.5111 7.85453 22.0341 7.85453ZM10.6632 6.22481C10.6632 6.09054 10.6632 5.72941 11.1586 5.72941H16.8024C17.2978 5.72941 17.2978 6.08591 17.2978 6.22481V7.84527H10.6632V6.22481ZM24.3028 21.1099C24.3028 23.1563 22.7194 23.3785 22.0341 23.3785H5.92216C5.24156 23.3785 3.65352 23.1563 3.65352 21.1099V11.0491C3.65352 9.00274 5.23693 8.7805 5.92216 8.7805H22.0341C22.7147 8.7805 24.3028 9.00274 24.3028 11.0491V21.1099Z" stroke="#6D6DA7" stroke-width="0.4"/>
</svg>
