<svg width="16" height="16" viewBox="0 0 16 16" fill="none" xmlns="http://www.w3.org/2000/svg">
<circle cx="8" cy="8" r="8" fill="#DCDCF3"/>
<path d="M7.0332 9.38086C7.0332 8.83398 7.09961 8.39844 7.23242 8.07422C7.36523 7.75 7.60742 7.43164 7.95898 7.11914C8.31445 6.80273 8.55078 6.54688 8.66797 6.35156C8.78516 6.15234 8.84375 5.94336 8.84375 5.72461C8.84375 5.06445 8.53906 4.73438 7.92969 4.73438C7.64062 4.73438 7.4082 4.82422 7.23242 5.00391C7.06055 5.17969 6.9707 5.42383 6.96289 5.73633H5.26367C5.27148 4.99023 5.51172 4.40625 5.98438 3.98438C6.46094 3.5625 7.10938 3.35156 7.92969 3.35156C8.75781 3.35156 9.40039 3.55273 9.85742 3.95508C10.3145 4.35352 10.543 4.91797 10.543 5.64844C10.543 5.98047 10.4688 6.29492 10.3203 6.5918C10.1719 6.88477 9.91211 7.21094 9.54102 7.57031L9.06641 8.02148C8.76953 8.30664 8.59961 8.64062 8.55664 9.02344L8.5332 9.38086H7.0332ZM6.86328 11.1797C6.86328 10.918 6.95117 10.7031 7.12695 10.5352C7.30664 10.3633 7.53516 10.2773 7.8125 10.2773C8.08984 10.2773 8.31641 10.3633 8.49219 10.5352C8.67188 10.7031 8.76172 10.918 8.76172 11.1797C8.76172 11.4375 8.67383 11.6504 8.49805 11.8184C8.32617 11.9863 8.09766 12.0703 7.8125 12.0703C7.52734 12.0703 7.29688 11.9863 7.12109 11.8184C6.94922 11.6504 6.86328 11.4375 6.86328 11.1797Z" fill="#292940"/>
</svg>
