<svg fill="none" height="15" viewBox="0 0 14 15" width="14" xmlns="http://www.w3.org/2000/svg">
  <path
    d="M13.0614 3.83733C12.4354 2.76492 11.5863 1.91582 10.5139 1.28988C9.44124 0.663967 8.27031 0.351074 7.00019 0.351074C5.7302 0.351074 4.55892 0.663967 3.48648 1.28988C2.41398 1.91573 1.56488 2.76483 0.938901 3.83733C0.312893 4.9099 0 6.08118 0 7.35107C0 8.62103 0.312988 9.79212 0.938805 10.8648C1.56475 11.9372 2.41385 12.7863 3.48635 13.4123C4.55892 14.0382 5.73011 14.3511 7.00006 14.3511C8.27002 14.3511 9.44134 14.0382 10.5138 13.4123C11.5863 12.7865 12.4353 11.9372 13.0613 10.8648C13.6871 9.79222 13.9999 8.62097 13.9999 7.35107C14 6.08105 13.6871 4.90974 13.0614 3.83733ZM5.83348 2.10095C5.83348 2.01584 5.86077 1.94602 5.91552 1.89137C5.97018 1.83675 6.04013 1.80932 6.12517 1.80932H7.87528C7.96026 1.80932 8.03021 1.83675 8.08473 1.89137C8.13936 1.94602 8.16687 2.01584 8.16687 2.10095V3.55933C8.16687 3.64438 8.13936 3.71429 8.08473 3.76888C8.03021 3.82354 7.96029 3.85087 7.87528 3.85087H6.12517C6.04013 3.85087 5.97021 3.82354 5.91552 3.76888C5.86077 3.71433 5.83348 3.64438 5.83348 3.55933V2.10095ZM9.33343 11.7261C9.33343 11.8111 9.30588 11.881 9.25138 11.9355C9.19699 11.9903 9.12704 12.0176 9.04186 12.0176H4.95843C4.87328 12.0176 4.80346 11.9903 4.74878 11.9355C4.69412 11.881 4.6668 11.8111 4.6668 11.726V10.2676C4.6668 10.1824 4.69412 10.1127 4.74878 10.058C4.80346 10.0034 4.87338 9.97591 4.95843 9.97591H5.83348V7.05935H4.95843C4.87328 7.05935 4.8035 7.03205 4.74878 6.97737C4.69412 6.92274 4.6668 6.85283 4.6668 6.76772V5.30944C4.6668 5.22432 4.69412 5.15451 4.74878 5.09979C4.80353 5.0451 4.87344 5.0178 4.95843 5.0178H7.87528C7.96026 5.0178 8.03021 5.0451 8.08473 5.09979C8.13936 5.15451 8.16687 5.22432 8.16687 5.30944V9.97613H9.04164C9.12685 9.97613 9.19676 10.0034 9.25138 10.0581C9.30578 10.1127 9.3333 10.1826 9.3333 10.2677V11.7261H9.33343V11.7261Z"
    fill="#33334F" opacity="0.5"/>
</svg>
