<svg width="51" height="51" viewBox="0 0 51 51" fill="none" xmlns="http://www.w3.org/2000/svg">
<path opacity="0.1" fill-rule="evenodd" clip-rule="evenodd" d="M38.9064 32.7189L31.8665 10.9119C31.7165 10.4473 31.9212 9.92979 32.3818 9.76784C34.1841 9.13409 35.2064 9.91625 35.5471 10.4985C35.5713 10.54 35.589 10.5826 35.6046 10.628C37.5066 16.1625 41.4796 27.6862 42.3393 30.0391C43.0553 31.9987 41.3719 32.9735 39.9668 33.346C39.5044 33.4685 39.0533 33.1741 38.9064 32.7189ZM15.5359 22.9854C15.331 23.1683 15.1392 23.384 14.8809 23.4773L6.88112 26.3682C6.36171 26.5559 6.0928 27.1291 6.2805 27.6485L8.81518 34.6628C9.00287 35.1822 9.5761 35.4511 10.0955 35.2634L18.6862 32.159C18.8165 32.112 18.9552 32.0925 19.0934 32.1018L37.5495 33.3482C38.2606 33.3962 38.7922 32.7062 38.5644 32.0308L31.7442 11.8093C31.5227 11.1527 30.7167 10.9149 30.1743 11.3461L15.5796 22.9486C15.5647 22.9605 15.5501 22.9728 15.5359 22.9854Z" fill="#6D6DA7"/>
<rect x="9.19922" y="31.0615" width="3.06929" height="12.6247" rx="1" transform="rotate(-19.8679 9.19922 31.0615)" fill="#D3D3EA"/>
<path d="M4.91501 22.386L13.5459 19.4744L29.8652 6.32215L32.0231 5.59417C33.6907 5.03162 35.3956 5.87641 35.9582 7.54397L42.5757 27.1601C43.1382 28.8277 42.2934 30.5326 40.6259 31.0952L38.4679 31.8232L17.1855 30.2633L14.4395 31.1897L17.4173 40.017C17.9799 41.6845 17.1351 43.3895 15.4675 43.952C13.8 44.5146 12.095 43.6698 11.5325 42.0022L8.55462 33.1749C6.88706 33.7375 5.18213 32.8927 4.61958 31.2251L2.96521 26.3211C2.40266 24.6535 3.24745 22.9486 4.91501 22.386ZM29.8748 8.94063L15.2856 20.7449L17.8002 28.1986L36.8562 29.6358L29.8748 8.94063ZM40.614 27.8219L33.9966 8.20572C33.798 7.61714 33.2735 7.35723 32.6849 7.55578L31.7041 7.88666L38.9833 29.4644L39.9641 29.1336C40.5527 28.935 40.8126 28.4105 40.614 27.8219ZM13.4941 41.3404C13.6927 41.929 14.2172 42.1889 14.8058 41.9904C15.3944 41.7918 15.6543 41.2673 15.4557 40.6787L12.4779 31.8514L10.5162 32.5132L13.4941 41.3404ZM6.58119 30.5634C6.77975 31.152 7.30429 31.4119 7.89287 31.2133L15.7393 28.5663L13.4232 21.7007L5.57676 24.3477C4.98818 24.5462 4.72827 25.0708 4.92682 25.6593L6.58119 30.5634Z" fill="#6D6DA7"/>
<path d="M44.4878 13.4045L40.5646 14.728L41.2263 16.6896L45.1496 15.3661L44.4878 13.4045Z" fill="#6D6DA7"/>
<path d="M41.7801 6.36839L39.9251 5.44886L37.9947 9.34484L39.85 10.2637L41.7801 6.36839Z" fill="#6D6DA7"/>
<path d="M47.2573 22.6054L43.3618 20.6748L42.4429 22.5301L46.3383 24.4602L47.2573 22.6054Z" fill="#6D6DA7"/>
</svg>
