<svg width="50" height="50" viewBox="0 0 50 50" fill="none" xmlns="http://www.w3.org/2000/svg">
<rect opacity="0.1" x="7.64355" y="13.4033" width="37.4159" height="27.4181" rx="1" fill="#6D6DA7"/>
<circle cx="23.2836" cy="19.5454" r="2.64205" fill="#BCBCD6"/>
<path fill-rule="evenodd" clip-rule="evenodd" d="M25.7095 23.3259C25.0517 23.7654 24.2783 24 23.4872 24C22.4267 23.9988 21.41 23.577 20.6602 22.8271C19.9103 22.0773 19.4885 21.0606 19.4873 20.0001C19.4873 19.209 19.7219 18.4356 20.1614 17.7778C20.6009 17.12 21.2256 16.6073 21.9565 16.3045C22.6874 16.0017 23.4917 15.9225 24.2676 16.0769C25.0436 16.2312 25.7563 16.6122 26.3157 17.1716C26.8751 17.731 27.2561 18.4437 27.4104 19.2197C27.5648 19.9956 27.4856 20.7999 27.1828 21.5308C26.88 22.2617 26.3673 22.8864 25.7095 23.3259ZM24.6587 18.2467C24.312 18.0151 23.9043 17.8914 23.4872 17.8914C22.9282 17.8921 22.3922 18.1145 21.9969 18.5098C21.6016 18.9051 21.3793 19.4411 21.3786 20.0001C21.3786 20.4172 21.5023 20.8249 21.734 21.1717C21.9657 21.5184 22.295 21.7887 22.6804 21.9483C23.0657 22.1079 23.4897 22.1497 23.8987 22.0683C24.3078 21.9869 24.6835 21.7861 24.9784 21.4911C25.2733 21.1962 25.4741 20.8205 25.5555 20.4114C25.6368 20.0024 25.5951 19.5784 25.4354 19.1931C25.2758 18.8078 25.0055 18.4784 24.6587 18.2467Z" fill="#6D6DA7"/>
<path fill-rule="evenodd" clip-rule="evenodd" d="M42.7244 39.3145C42.7991 39.3073 42.8727 39.2897 42.9434 39.263C43.0078 39.2366 43.0703 39.2034 43.128 39.1634C43.1651 39.137 43.2002 39.1067 43.2325 39.0735C43.3164 38.9915 43.3809 38.8929 43.4248 38.7835C43.4453 38.7317 43.461 38.678 43.4717 38.6233C43.4834 38.5628 43.4883 38.5013 43.4873 38.4388V10.8968C43.4883 10.8401 43.4854 10.7845 43.4756 10.7298C43.4649 10.6682 43.4483 10.6077 43.4258 10.5491C43.3819 10.4388 43.3174 10.3382 43.2344 10.2542C43.2071 10.2259 43.1778 10.1995 43.1465 10.1761C43.1143 10.1516 43.0801 10.1292 43.045 10.1087C43.0127 10.0911 42.9795 10.0755 42.9444 10.0608C42.836 10.0179 42.7207 9.99735 42.6045 10.0003H4.86819C4.75296 9.99735 4.63773 10.0188 4.5303 10.0618C4.42386 10.1067 4.32523 10.1731 4.24417 10.2571C4.16409 10.3411 4.10062 10.4407 4.05862 10.5511C4.01663 10.6614 3.99808 10.7786 4.00296 10.8968V13.7386H4V15.6077H4.00296V38.4388C3.99808 38.5559 4.01761 38.6731 4.0596 38.7815C4.07816 38.8294 4.10159 38.8763 4.12698 38.9192C4.16116 38.9749 4.20023 39.0257 4.24612 39.0725C4.32718 39.1546 4.42581 39.219 4.53226 39.262C4.60467 39.2896 4.67974 39.3075 4.75627 39.3145H42.7244ZM41.6553 28.3147V11.8704H5.83401V29.2122L13.7246 22.0022C13.8496 21.9261 13.9912 21.8821 14.1377 21.8772C14.2832 21.8723 14.4287 21.9036 14.5586 21.971L23.2285 28.804L30.6924 21.3128C30.8428 21.1604 31.044 21.0657 31.2559 21.0491C31.4688 21.0305 31.6807 21.0911 31.8555 21.218L41.6553 28.3147ZM5.83401 31.3733V37.4485H14.5586L21.8584 30.1653L14.2217 23.8684L5.83401 31.3733ZM31.4209 23.1653L17.1709 37.4485H41.6553V30.6048L31.4209 23.1653Z" fill="#6D6DA7"/>
</svg>
