<svg width="40" height="40" viewBox="0 0 40 40" fill="none" xmlns="http://www.w3.org/2000/svg">
<circle cx="20" cy="20" r="20" fill="#F7F7F8"/>
<path d="M27.6667 27.7778C27.6667 29.005 26.6717 30 25.4444 30H13.2222C11.995 30 11 29.005 11 27.7778V12.2222C11 10.995 11.995 10 13.2222 10H25.4444C26.6717 10 27.6667 10.995 27.6667 12.2222V27.7778Z" fill="#CCD6DD"/>
<path d="M25.4445 23.3333C25.4445 23.6406 25.1961 23.8889 24.8889 23.8889H13.7778C13.4711 23.8889 13.2223 23.6406 13.2223 23.3333C13.2223 23.0261 13.4711 22.7778 13.7778 22.7778H24.8889C25.1961 22.7778 25.4445 23.0261 25.4445 23.3333ZM16.5556 25.5556C16.5556 25.8628 16.3067 26.1111 16 26.1111H13.7778C13.4711 26.1111 13.2223 25.8628 13.2223 25.5556C13.2223 25.2483 13.4711 25 13.7778 25H16C16.3067 25 16.5556 25.2483 16.5556 25.5556ZM25.4445 14.4444C25.4445 14.7511 25.1961 15 24.8889 15H13.7778C13.4711 15 13.2223 14.7511 13.2223 14.4444C13.2223 14.1378 13.4711 13.8889 13.7778 13.8889H24.8889C25.1961 13.8889 25.4445 14.1378 25.4445 14.4444ZM25.4445 16.6667C25.4445 16.9739 25.1961 17.2222 24.8889 17.2222H13.7778C13.4711 17.2222 13.2223 16.9739 13.2223 16.6667C13.2223 16.3594 13.4711 16.1111 13.7778 16.1111H24.8889C25.1961 16.1111 25.4445 16.3594 25.4445 16.6667ZM25.4445 18.8889C25.4445 19.1961 25.1961 19.4444 24.8889 19.4444H13.7778C13.4711 19.4444 13.2223 19.1961 13.2223 18.8889C13.2223 18.5817 13.4711 18.3333 13.7778 18.3333H24.8889C25.1961 18.3333 25.4445 18.5817 25.4445 18.8889ZM25.4445 21.1111C25.4445 21.4183 25.1961 21.6667 24.8889 21.6667H13.7778C13.4711 21.6667 13.2223 21.4183 13.2223 21.1111C13.2223 20.8039 13.4711 20.5556 13.7778 20.5556H24.8889C25.1961 20.5556 25.4445 20.8039 25.4445 21.1111Z" fill="#99AAB5"/>
<path d="M27.6666 13.4844C27.2071 13.1872 26.646 13.1628 26.266 13.4717L25.826 13.8306L25.0016 14.5033L24.946 14.5478L23.626 15.6244L17.0271 21.0056C16.7844 21.2039 16.5866 21.6828 16.3755 22.1578C16.1655 22.63 15.8371 23.7422 15.5738 24.5972C15.4916 24.7361 14.9821 25.6228 15.2677 25.96C15.5566 26.3017 16.5599 25.9656 16.6944 25.9178C17.5977 25.8211 18.7671 25.7106 19.2766 25.5956C19.7899 25.4783 20.3066 25.3761 20.5494 25.1778C20.5538 25.1744 20.5549 25.1678 20.5588 25.165L27.1466 19.795L27.5866 19.4361L27.6666 19.3706V13.4844V13.4844Z" fill="#66757F"/>
<path d="M20.525 22.5144C20.525 22.5144 19.8172 21.4694 19.3489 21.0961C18.9755 20.6278 17.9327 19.9206 17.9327 19.9206C17.6839 19.6728 17.2711 19.6539 17.0277 19.8967C16.785 20.14 16.5872 20.6556 16.3761 21.1694C16.1139 21.8061 15.6672 23.4772 15.3939 24.365C15.3477 24.5161 15.6811 24.115 15.6733 24.2483C15.6677 24.3522 15.6883 24.4672 15.7144 24.5711L15.6333 24.6594L15.7489 24.6967C15.7627 24.7422 15.7766 24.7822 15.7866 24.8133L15.875 24.7322C15.9789 24.7583 16.0939 24.7789 16.1972 24.7733C16.3305 24.7656 15.9289 25.0994 16.0805 25.0528C16.9683 24.7789 18.64 24.3328 19.2761 24.0706C19.7894 23.8589 20.3061 23.6617 20.5489 23.4183C20.7927 23.1767 20.7744 22.7639 20.525 22.5144Z" fill="#D99E82"/>
<path d="M24.5066 12.4172C24.02 12.9033 24.02 13.6911 24.5066 14.1772L26.2661 15.9372C26.7527 16.4228 27.5405 16.4228 28.0261 15.9372L29.7866 14.1772C30.2722 13.6911 30.2722 12.9033 29.7866 12.4172L28.0261 10.6572C27.5405 10.1711 26.7527 10.1711 26.2661 10.6572L24.5066 12.4172V12.4172Z" fill="#EA596E"/>
<path d="M17.0273 19.8972L18.7884 21.6583L20.5467 23.4172L27.1473 16.8178L23.6267 13.2978L17.0273 19.8972V19.8972Z" fill="#FFCC4D"/>
<path d="M16.7211 24.8567C16.7211 24.8567 15.5767 25.4861 15.2678 25.1767C14.9584 24.8667 15.5906 23.7261 15.5906 23.7261C15.5906 23.7261 16.6745 23.7461 16.7211 24.8567Z" fill="#292F33"/>
<path d="M23.6267 13.2972L25.8267 11.0972L29.3467 14.6178L27.1467 16.8178L23.6267 13.2972Z" fill="#CCD6DD"/>
<path d="M24.9461 11.9767L25.3861 11.5367L28.9061 15.0561L28.4661 15.4961L24.9461 11.9767ZM24.0667 12.8567L24.5061 12.4172L28.0261 15.9367L27.5861 16.3767L24.0667 12.8567Z" fill="#99AAB5"/>
</svg>
