<svg width="79" height="84" viewBox="0 0 79 84" fill="none" xmlns="http://www.w3.org/2000/svg">
<path d="M26.4844 74.0109C28.5962 79.132 33.5889 82.4731 39.1282 82.472C44.6674 82.4708 49.659 79.1281 51.769 74.0063C43.38 75.1551 34.8737 75.1566 26.4844 74.0109Z" fill="#DFDFF3"/>
<path d="M18.2147 72.7564C34.5581 75.5778 43.6566 75.5778 60.0002 72.7563L74.4948 70.254C67.3733 63.4936 63.3343 54.1096 63.3197 44.2903V30.5448C63.2757 22.4546 58.541 15.1251 51.1845 11.7585C43.517 8.26005 34.7082 8.26431 27.044 11.77C21.0054 14.5541 14.4678 21.3175 14.4097 30.5448V44.2903C14.5759 54.0482 10.7078 63.4423 3.71875 70.254L18.2147 72.7564Z" fill="#DFDFF3"/>
<path d="M19.9972 30.5455V44.291C19.9824 54.1101 15.9435 63.4942 8.82208 70.2547L9.44847 70.3628C9.31689 70.6256 9.24798 70.9154 9.24766 71.2092L3.71875 70.2547C10.8402 63.4943 14.8793 54.1103 14.8939 44.291V30.5455C14.938 22.4553 19.6725 15.1258 27.0291 11.7592C31.1149 9.90826 35.5739 9.02855 40.0566 9.18901C37.2902 9.59686 34.6117 10.4657 32.1324 11.7592C24.7758 15.1258 20.0413 22.4553 19.9972 30.5455Z" fill="white"/>
<path d="M39.107 76.4119C32.0071 76.3147 24.9292 75.5956 17.9549 74.2626L3.4592 71.76C2.8963 71.6629 2.43446 71.2598 2.26236 70.7151C2.09026 70.1704 2.23677 69.5752 2.64184 69.1723C9.34297 62.6474 13.049 53.6429 12.8823 44.2915V30.5461C12.9433 20.8948 19.7178 13.4672 26.404 10.3843C34.4678 6.67219 43.751 6.66727 51.8187 10.3708C59.7374 13.9694 64.8286 21.857 64.8468 30.5549V44.2915C64.8371 53.7092 68.718 62.7128 75.5712 69.1723C75.9763 69.5751 76.1226 70.1703 75.9507 70.7151C75.7786 71.2598 75.3169 71.6631 74.754 71.76L60.2598 74.2628C53.2853 75.5958 46.2073 76.3149 39.107 76.4119ZM18.474 71.2529C34.6714 74.0479 43.5405 74.0479 59.741 71.2529L71.4334 69.2335C65.2368 62.4034 61.8006 53.5137 61.7926 44.2915V30.5461C61.7168 23.063 57.3411 16.2915 50.5499 13.1481C43.2909 9.81629 34.9395 9.82006 27.6838 13.1584C21.8746 15.837 15.9891 22.255 15.937 30.5549V44.2914C16.0992 53.4567 12.8306 62.352 6.7726 69.2318L18.474 71.2529Z" fill="#A6A6BF"/>
<path d="M22.0468 32.0728H22.0371C21.194 32.0672 20.5148 31.3797 20.5196 30.5365C20.565 23.3864 26.2506 18.8643 29.6034 17.319C35.6619 14.6102 42.5871 14.6092 48.6466 17.3159C49.1448 17.5415 49.4844 18.0164 49.5368 18.561C49.5891 19.1055 49.3461 19.6364 48.9001 19.9527C48.4538 20.269 47.8725 20.3227 47.3759 20.093C42.1281 17.7484 36.1303 17.7484 30.8824 20.093C28.1842 21.3369 23.6098 24.9389 23.5741 30.5543C23.5692 31.3944 22.8868 32.0728 22.0468 32.0728Z" fill="white"/>
<path d="M32.7382 11.383C32.3331 11.3831 31.9445 11.2224 31.658 10.9359C31.3716 10.6495 31.2108 10.2608 31.2109 9.85573V7.63629C31.2109 3.4189 34.6298 0 38.8472 0C43.0646 0 46.4835 3.4189 46.4835 7.63629V9.74531C46.4834 10.204 46.277 10.6385 45.9216 10.9284C45.5661 11.2183 45.0992 11.3333 44.6498 11.2412C40.8266 10.4626 36.8823 10.4982 33.0737 11.3456C32.9636 11.3707 32.8511 11.3831 32.7382 11.383ZM38.8472 3.05452C36.3179 3.0573 34.2682 5.10694 34.2655 7.63629V8.0092C37.2993 7.52998 40.3876 7.50389 43.4292 7.9316V7.63629C43.4264 5.1071 41.3766 3.0573 38.8472 3.05452Z" fill="#A6A6BF"/>
<path d="M39.1259 84.0005C33.0049 83.9284 27.5016 80.2548 25.0874 74.6296C24.8648 74.1258 24.9306 73.5412 25.2597 73.0994C25.5888 72.6577 26.1302 72.4274 26.6767 72.4968C34.938 73.6318 43.3159 73.6303 51.5769 72.4924C52.1228 72.4272 52.6622 72.6566 52.9938 73.095C53.323 73.5366 53.3888 74.1215 53.166 74.6253C50.7528 80.2525 45.2485 83.928 39.1259 84.0005ZM29.3196 75.8765C31.5736 79.0572 35.2302 80.9468 39.1287 80.946C43.027 80.9452 46.6828 79.0536 48.9355 75.8721C42.4158 76.5774 35.8394 76.579 29.3196 75.8765Z" fill="#A6A6BF"/>
<path d="M5.13863 25.6386C5.74331 25.7042 6.28644 25.2715 6.35134 24.6726C6.89518 19.6532 8.66201 15.5111 11.6024 12.3608C13.7843 10.0234 15.8418 9.1291 15.8872 9.10922C16.4457 8.87606 16.7083 8.23823 16.473 7.68345C16.2368 7.12742 15.5914 6.86528 15.0307 7.09708C14.9318 7.13822 12.5814 8.13099 10.0723 10.7835C7.78931 13.1973 4.91021 17.5256 4.16155 24.4353C4.09666 25.0342 4.53395 25.5731 5.13863 25.6386Z" fill="#A6A6BF"/>
<path fill-rule="evenodd" clip-rule="evenodd" d="M14.9161 6.81985C15.6275 6.52569 16.448 6.8574 16.7491 7.56613C17.0496 8.27479 16.714 9.08762 16.0052 9.38505C15.9244 9.42043 13.9345 10.3022 11.8217 12.5655C8.93283 15.6606 7.18768 19.7386 6.64959 24.7049C6.56656 25.4712 5.87302 26.02 5.10631 25.9369C4.3394 25.8538 3.78029 25.1691 3.8633 24.403C4.61999 17.4192 7.53289 13.0318 9.85432 10.5774C12.4012 7.88496 14.7923 6.87134 14.9161 6.81985ZM15.1457 7.37417C15.0679 7.40654 12.7595 8.37928 10.2902 10.9897C8.04572 13.3628 5.20044 17.632 4.45981 24.4676C4.41303 24.8993 4.72849 25.2924 5.17094 25.3404C5.6136 25.3884 6.00633 25.0718 6.05308 24.6402C6.60267 19.5679 8.39118 15.3616 11.3831 12.1561C13.5972 9.78422 15.6895 8.86826 15.7663 8.83463L15.7716 8.83234C16.1781 8.66264 16.3664 8.20082 16.1969 7.80076C16.0256 7.39756 15.5555 7.20498 15.1457 7.37417Z" fill="#A6A6BF"/>
<path d="M1.24602 19.1389C1.82909 19.2021 2.35366 18.772 2.41802 18.178C3.16138 11.3172 7.44276 9.0182 7.63112 8.92065C8.15394 8.6536 8.36892 8.00658 8.11117 7.47326C7.85251 6.93816 7.216 6.71993 6.68896 6.9854C6.46487 7.09865 1.18397 9.85065 0.306494 17.9492C0.242132 18.5432 0.662948 19.0758 1.24602 19.1389Z" fill="#A6A6BF"/>
<path fill-rule="evenodd" clip-rule="evenodd" d="M6.55401 6.71747C7.23248 6.37572 8.05052 6.65847 8.38127 7.3427C8.70893 8.02069 8.43776 8.84492 7.76843 9.18739C7.61923 9.26485 3.44378 11.4959 2.71627 18.2103C2.63463 18.9638 1.9667 19.5188 1.2137 19.4372C0.460902 19.3556 -0.0734227 18.6706 0.00823914 17.9169C0.901077 9.67657 6.2832 6.85433 6.55401 6.71747ZM6.82397 7.25331C6.64105 7.34583 1.46638 10.0292 0.604748 17.9815C0.557686 18.4159 0.864994 18.7959 1.27833 18.8407C1.69148 18.8854 2.07268 18.5802 2.11977 18.1457C2.87788 11.1488 7.25353 8.77836 7.49316 8.65426L7.49466 8.65348C7.87034 8.46159 8.02875 7.99218 7.84107 7.60382C7.6545 7.21787 7.19956 7.06415 6.82397 7.25331Z" fill="#A6A6BF"/>
<path d="M72.9122 25.6386C72.3075 25.7042 71.7643 25.2715 71.6994 24.6726C71.1556 19.6532 69.3888 15.5111 66.4484 12.3608C64.2665 10.0234 62.209 9.1291 62.1636 9.10922C61.6051 8.87606 61.3425 8.23823 61.5778 7.68345C61.814 7.12742 62.4594 6.86528 63.0201 7.09708C63.119 7.13822 65.4694 8.13099 67.9785 10.7835C70.2615 13.1973 73.1406 17.5256 73.8892 24.4353C73.9541 25.0342 73.5168 25.5731 72.9122 25.6386Z" fill="#A6A6BF"/>
<path fill-rule="evenodd" clip-rule="evenodd" d="M63.1347 6.81985C62.4233 6.52569 61.6028 6.8574 61.3016 7.56613C61.0011 8.27479 61.3368 9.08762 62.0456 9.38505C62.1264 9.42043 64.1163 10.3022 66.2291 12.5655C69.1179 15.6606 70.8631 19.7386 71.4012 24.7049C71.4842 25.4712 72.1778 26.02 72.9445 25.9369C73.7114 25.8538 74.2705 25.1691 74.1875 24.403C73.4308 17.4192 70.5179 13.0318 68.1965 10.5774C65.6496 7.88496 63.2585 6.87134 63.1347 6.81985ZM62.9051 7.37417C62.9829 7.40654 65.2913 8.37928 67.7606 10.9897C70.0051 13.3628 72.8503 17.632 73.591 24.4676C73.6378 24.8993 73.3223 25.2924 72.8798 25.3404C72.4372 25.3884 72.0445 25.0718 71.9977 24.6402C71.4481 19.5679 69.6596 15.3616 66.6677 12.1561C64.4536 9.78422 62.3613 8.86826 62.2845 8.83463L62.2792 8.83234C61.8727 8.66264 61.6844 8.20082 61.8539 7.80076C62.0252 7.39756 62.4953 7.20498 62.9051 7.37417Z" fill="#A6A6BF"/>
<path d="M76.8048 19.1389C76.2217 19.2021 75.6971 18.772 75.6328 18.178C74.8894 11.3172 70.608 9.0182 70.4197 8.92065C69.8968 8.6536 69.6819 8.00658 69.9396 7.47326C70.1983 6.93816 70.8348 6.71993 71.3618 6.9854C71.5859 7.09865 76.8668 9.85065 77.7443 17.9492C77.8086 18.5432 77.3878 19.0758 76.8048 19.1389Z" fill="#A6A6BF"/>
<path fill-rule="evenodd" clip-rule="evenodd" d="M71.4968 6.71747C70.8183 6.37572 70.0003 6.65847 69.6695 7.3427C69.3418 8.02069 69.613 8.84492 70.2824 9.18739C70.4316 9.26485 74.607 11.4959 75.3345 18.2103C75.4161 18.9638 76.0841 19.5188 76.8371 19.4372C77.5899 19.3556 78.1242 18.6706 78.0425 17.9169C77.1497 9.67657 71.7676 6.85433 71.4968 6.71747ZM71.2268 7.25331C71.4097 7.34583 76.5844 10.0292 77.446 17.9815C77.4931 18.4159 77.1858 18.7959 76.7724 18.8407C76.3593 18.8854 75.9781 18.5802 75.931 18.1457C75.1729 11.1488 70.7972 8.77836 70.5576 8.65426L70.5561 8.65348C70.1804 8.46159 70.022 7.99218 70.2097 7.60382C70.3963 7.21787 70.8512 7.06415 71.2268 7.25331Z" fill="#A6A6BF"/>
</svg>
