<svg width="40" height="40" viewBox="0 0 40 40" fill="none" xmlns="http://www.w3.org/2000/svg">
<circle cx="20" cy="20" r="20" fill="#F7F7F8"/>
<path d="M25.9716 12.1334H27.0861V12.6917H25.9716V12.1334Z" fill="#66757F"/>
<path d="M11 16.6V27.7667C11 29 12 30 13.2333 30H26.6333C27.8666 30 28.8666 29 28.8666 27.7667V16.6H11Z" fill="#CCD6DD"/>
<path d="M26.6333 12.1334H13.2333C12 12.1334 11 13.1334 11 14.3667V17.1584H28.8666V14.3667C28.8666 13.1334 27.8666 12.1334 26.6333 12.1334Z" fill="#DD2E44"/>
<path d="M14.8168 14.7748C14.4248 14.7748 14.1072 14.403 14.1072 13.9435C14.1072 13.4845 14.4248 13.1121 14.8168 13.1121C15.2082 13.1121 15.5259 13.4845 15.5259 13.9435C15.5259 14.4024 15.2082 14.7748 14.8168 14.7748ZM18.1668 14.7748C17.7748 14.7748 17.4571 14.403 17.4571 13.9435C17.4571 13.4845 17.7748 13.1121 18.1668 13.1121C18.5582 13.1121 18.8759 13.4845 18.8759 13.9435C18.8759 14.4024 18.5582 14.7748 18.1668 14.7748V14.7748ZM21.5168 14.7748C21.1248 14.7748 20.8071 14.403 20.8071 13.9435C20.8071 13.4845 21.1248 13.1121 21.5168 13.1121C21.9082 13.1121 22.2264 13.4845 22.2264 13.9435C22.2259 14.4024 21.9082 14.7748 21.5168 14.7748ZM24.8668 14.7748C24.4748 14.7748 24.1571 14.403 24.1571 13.9435C24.1571 13.4845 24.4748 13.1121 24.8668 13.1121C25.2582 13.1121 25.5764 13.4845 25.5764 13.9435C25.5758 14.4024 25.2582 14.7748 24.8668 14.7748Z" fill="#292F33"/>
<path d="M25.1341 10C24.4212 10 23.8036 10.4478 23.4625 11.0999C23.1241 10.4617 22.5038 10 21.7842 10C21.0712 10 20.4536 10.4478 20.1125 11.0999C19.7742 10.4617 19.1539 10 18.4342 10C17.7212 10 17.1037 10.4478 16.7625 11.0999C16.4242 10.4617 15.8039 10 15.0842 10C14.0044 10 13.13 11.0156 13.13 12.2361C13.13 13.2713 13.7135 14.1183 14.5644 14.4281C14.9881 14.5817 15.2478 14.1786 15.2115 13.8553C15.1808 13.5873 15.0027 13.4125 14.8044 13.2869C14.5337 13.1155 14.2461 12.7241 14.2461 12.2389C14.2461 11.6225 14.6208 11.0692 15.0836 11.0692C15.5465 11.0692 15.9211 11.5745 15.9211 12.1328H16.4884C16.4867 12.1674 16.4794 12.2004 16.4794 12.2356C16.4794 13.2707 17.0629 14.1177 17.9138 14.4276C18.3376 14.5811 18.5972 14.178 18.5609 13.8547C18.5302 13.5873 18.3521 13.4125 18.1539 13.2869C17.8831 13.1155 17.5955 12.7241 17.5955 12.2389C17.5955 11.6225 17.9702 11.0692 18.433 11.0692C18.8959 11.0692 19.2717 11.5751 19.2717 12.1334H19.8389C19.8373 12.168 19.83 12.2009 19.83 12.2361C19.83 13.2713 20.4135 14.1183 21.2643 14.4281C21.6881 14.5817 21.9477 14.1786 21.9115 13.8553C21.8807 13.5878 21.7026 13.4131 21.5044 13.2875C21.2336 13.1161 20.9461 12.7247 20.9461 12.2395C20.9461 11.6231 21.3207 11.0698 21.7836 11.0698C22.2465 11.0698 22.6217 11.5751 22.6217 12.1334H23.1889C23.1872 12.168 23.18 12.2009 23.18 12.2361C23.18 13.2713 23.7634 14.1183 24.6143 14.4281C25.0381 14.5817 25.2977 14.1786 25.2614 13.8553C25.2307 13.5878 25.0526 13.4131 24.8544 13.2875C24.5836 13.1161 24.2961 12.7247 24.2961 12.2395C24.2961 11.6231 24.6707 11.0698 25.1336 11.0698C25.5964 11.0698 25.9716 11.5751 25.9716 12.1334H27.0861C27.0743 11.0167 26.2061 10 25.1341 10Z" fill="#66757F"/>
<path d="M16.025 18.275H18.2583V20.5084H16.025V18.275ZM18.8166 18.275H21.05V20.5084H18.8166V18.275ZM21.6083 18.275H23.8416V20.5084H21.6083V18.275ZM24.3999 18.275H26.6333V20.5084H24.3999V18.275ZM13.2333 21.0667H15.4666V23.3H13.2333V21.0667ZM16.025 21.0667H18.2583V23.3H16.025V21.0667ZM18.8166 21.0667H21.05V23.3H18.8166V21.0667ZM21.6083 21.0667H23.8416V23.3H21.6083V21.0667ZM24.3999 21.0667H26.6333V23.3H24.3999V21.0667ZM13.2333 23.8584H15.4666V26.0917H13.2333V23.8584ZM16.025 23.8584H18.2583V26.0917H16.025V23.8584ZM18.8166 23.8584H21.05V26.0917H18.8166V23.8584ZM21.6083 23.8584H23.8416V26.0917H21.6083V23.8584ZM24.3999 23.8584H26.6333V26.0917H24.3999V23.8584ZM13.2333 26.65H15.4666V28.8833H13.2333V26.65ZM16.025 26.65H18.2583V28.8833H16.025V26.65ZM18.8166 26.65H21.05V28.8833H18.8166V26.65Z" fill="white"/>
</svg>
