bnbnbnbnbn<svg fill="none" height="13" viewBox="0 0 13 13" width="13" xmlns="http://www.w3.org/2000/svg">
<g opacity="0.6">
<path d="M7.93217 5.06692C7.77816 4.91201 7.60739 4.7747 7.42303 4.65749C6.93473 4.34485 6.36706 4.17872 5.78723 4.17872C4.98245 4.17722 4.21036 4.49694 3.64229 5.06692L0.886364 7.82464C0.319254 8.39277 0.000508427 9.16252 6.28001e-07 9.96519C-0.00106575 11.6402 1.35608 12.9989 3.03131 13C3.83485 13.0028 4.60622 12.6846 5.17409 12.1161L7.44903 9.84148C7.49037 9.80051 7.51344 9.74461 7.51311 9.68642C7.51243 9.56677 7.41485 9.47036 7.29519 9.47104H7.20854C6.73324 9.47272 6.26218 9.38145 5.82192 9.20243C5.74079 9.16904 5.64756 9.18788 5.58576 9.25008L3.94997 10.8878C3.44201 11.3957 2.61847 11.3957 2.11051 10.8878C1.60256 10.3799 1.60256 9.55649 2.11051 9.04861L4.87728 6.28439C5.38483 5.77754 6.20703 5.77754 6.71457 6.28439C7.05663 6.60626 7.59017 6.60626 7.9322 6.28439C8.07936 6.13712 8.16858 5.94179 8.18353 5.73413C8.19935 5.48598 8.10782 5.24295 7.93217 5.06692Z" fill="#33334F"/>
<path d="M12.1115 0.888346C10.9269 -0.296115 9.00628 -0.296115 7.82166 0.888346L5.54888 3.15864C5.48647 3.22135 5.46847 3.31566 5.50338 3.39695C5.53789 3.47846 5.61852 3.53078 5.70703 3.52908H5.78719C6.26193 3.52822 6.73223 3.6202 7.17165 3.79988C7.25277 3.83326 7.346 3.81443 7.4078 3.75223L9.03926 2.12315C9.54721 1.61527 10.3708 1.61527 10.8787 2.12315C11.3867 2.63103 11.3867 3.45447 10.8787 3.96236L8.84642 5.99219L8.82908 6.01169L8.11844 6.71792C7.6109 7.22476 6.7887 7.22476 6.28115 6.71792C5.9391 6.39604 5.40555 6.39604 5.06353 6.71792C4.91543 6.8663 4.82613 7.06333 4.81219 7.27249C4.79635 7.52064 4.88788 7.76366 5.06353 7.93972C5.3143 8.19153 5.60771 8.39688 5.93016 8.54628C5.97566 8.56794 6.02116 8.58528 6.06666 8.60477C6.11216 8.62427 6.15981 8.63943 6.20531 8.65676C6.25081 8.6741 6.29847 8.68926 6.34397 8.70226L6.4718 8.73691C6.55846 8.75856 6.64514 8.7759 6.73395 8.79106C6.84095 8.80695 6.9487 8.81708 7.05679 8.8214H7.22144L7.35144 8.80624C7.3991 8.80408 7.44894 8.79324 7.50528 8.79324H7.57893L7.72843 8.77159L7.79777 8.75859L7.92342 8.73259H7.94726C8.47946 8.59893 8.96543 8.32341 9.35338 7.93538L12.1115 5.17766C13.2962 3.9932 13.2962 2.07281 12.1115 0.888346Z" fill="#33334F"/>
</g>
</svg>
