<svg width="30" height="31" viewBox="0 0 30 31" fill="none" xmlns="http://www.w3.org/2000/svg">
<rect opacity="0.1" x="4.84961" y="8.44141" width="21.7419" height="17.2436" rx="1" fill="#6D6DA7"/>
<path d="M6.87128 23.2363H5.24286C4.57889 23.2363 4.03609 22.6935 4.03609 22.0296V8.53696C4.03609 7.87299 4.57889 7.33018 5.24286 7.33018H16.2589L14.8244 8.76474C14.5675 9.02161 14.5675 9.43356 14.8244 9.69042C14.9504 9.81643 15.12 9.88428 15.2848 9.88428C15.4544 9.88428 15.6192 9.82128 15.7452 9.69042L18.2993 7.13633C18.4204 7.01516 18.4931 6.84554 18.4931 6.67591C18.4931 6.50628 18.4253 6.33666 18.2993 6.21549L15.7452 3.6614C15.4883 3.40453 15.0764 3.40453 14.8195 3.6614C14.5626 3.91826 14.5626 4.33021 14.8195 4.58708L16.2541 6.02163H5.24286C3.85677 6.02163 2.72754 7.15086 2.72754 8.53696V22.0344C2.72754 23.4205 3.85677 24.5497 5.24286 24.5497H6.87613C7.23961 24.5497 7.5304 24.2589 7.5304 23.8955C7.5304 23.532 7.23477 23.2363 6.87128 23.2363Z" fill="#6D6DA7"/>
<path d="M22.4772 6.02108H20.844C20.4805 6.02108 20.1897 6.31187 20.1897 6.67536C20.1897 7.03884 20.4805 7.32963 20.844 7.32963H22.4772C23.1412 7.32963 23.684 7.87244 23.684 8.5364V22.0339C23.684 22.6978 23.1412 23.2406 22.4772 23.2406H11.4612L12.8957 21.8061C13.1526 21.5492 13.1526 21.1373 12.8957 20.8804C12.6389 20.6235 12.2269 20.6235 11.9701 20.8804L9.41597 23.4345C9.2948 23.5556 9.22211 23.7253 9.22211 23.8949C9.22211 24.0645 9.28996 24.2342 9.41597 24.3553L11.9701 26.9094C12.0961 27.0354 12.2657 27.1033 12.4305 27.1033C12.5953 27.1033 12.7649 27.0403 12.8909 26.9094C13.1478 26.6525 13.1478 26.2406 12.8909 25.9837L11.4563 24.5492H22.4724C23.8585 24.5492 24.9877 23.4199 24.9877 22.0339V8.5364C24.9926 7.14546 23.8633 6.02108 22.4772 6.02108Z" fill="#6D6DA7"/>
</svg>
