<svg width="40" height="40" viewBox="0 0 40 40" fill="none" xmlns="http://www.w3.org/2000/svg">
<circle cx="20" cy="20" r="20" fill="#F7F7F8"/>
<path d="M27.7778 10H15.5556C14.3283 10 13.3333 10.995 13.3333 12.2222V25.5556H12.2222C10.995 25.5556 10 26.5506 10 27.7778C10 29.005 10.995 30 12.2222 30H25.5556C26.7828 30 27.7778 29.005 27.7778 27.7778V14.4444C29.005 14.4444 30 13.4494 30 12.2222C30 10.995 29.005 10 27.7778 10Z" fill="#FFD983"/>
<path d="M14.4444 15.5556H27.7777V14.4444H15.5555L14.4444 13.8889V15.5556Z" fill="#E39F3D"/>
<path d="M15.5556 10C14.3283 10 13.3333 10.995 13.3333 12.2222V25.8639C13.0056 25.6728 12.6289 25.5556 12.2222 25.5556C10.995 25.5556 10 26.5506 10 27.7778C10 29.005 10.995 30 12.2222 30C13.4494 30 14.4444 29.005 14.4444 27.7778V14.1361C14.7722 14.3272 15.1489 14.4444 15.5556 14.4444C16.7828 14.4444 17.7778 13.4494 17.7778 12.2222C17.7778 10.995 16.7828 10 15.5556 10Z" fill="#FFE8B6"/>
<path d="M16.6667 12.2222C16.6667 12.8356 16.1689 13.3333 15.5556 13.3333C14.9422 13.3333 14.4445 12.8356 14.4445 12.2222C14.4445 11.6089 14.9422 11.1111 15.5556 11.1111C16.1689 11.1111 16.6667 11.6089 16.6667 12.2222ZM13.3334 27.7778C13.3334 28.3911 12.8356 28.8889 12.2222 28.8889C11.6089 28.8889 11.1111 28.3911 11.1111 27.7778C11.1111 27.1644 11.6089 26.6667 12.2222 26.6667C12.8356 26.6667 13.3334 27.1644 13.3334 27.7778ZM26.6667 18.3333C26.6667 18.64 26.4184 18.8889 26.1111 18.8889H16.1111C15.8045 18.8889 15.5556 18.64 15.5556 18.3333C15.5556 18.0267 15.8045 17.7778 16.1111 17.7778H26.1111C26.4184 17.7778 26.6667 18.0267 26.6667 18.3333ZM26.6667 20.5556C26.6667 20.8628 26.4184 21.1111 26.1111 21.1111H16.1111C15.8045 21.1111 15.5556 20.8628 15.5556 20.5556C15.5556 20.2483 15.8045 20 16.1111 20H26.1111C26.4184 20 26.6667 20.2483 26.6667 20.5556ZM26.6667 22.7778C26.6667 23.085 26.4184 23.3333 26.1111 23.3333H16.1111C15.8045 23.3333 15.5556 23.085 15.5556 22.7778C15.5556 22.4706 15.8045 22.2222 16.1111 22.2222H26.1111C26.4184 22.2222 26.6667 22.4706 26.6667 22.7778ZM26.6667 25C26.6667 25.3072 26.4184 25.5556 26.1111 25.5556H16.1111C15.8045 25.5556 15.5556 25.3072 15.5556 25C15.5556 24.6928 15.8045 24.4444 16.1111 24.4444H26.1111C26.4184 24.4444 26.6667 24.6928 26.6667 25Z" fill="#C1694F"/>
</svg>
