<svg width="90" height="90" viewBox="0 0 90 90" fill="none" xmlns="http://www.w3.org/2000/svg">
<path d="M45 86.8571C68.1171 86.8571 86.8571 68.1171 86.8571 45C86.8571 21.8829 68.1171 3.14286 45 3.14286C21.8829 3.14286 3.14286 21.8829 3.14286 45C3.14286 68.1171 21.8829 86.8571 45 86.8571ZM88 45C88 68.7482 68.7482 88 45 88C21.2518 88 2 68.7482 2 45C2 21.2518 21.2518 2 45 2C68.7482 2 88 21.2518 88 45Z" stroke="#E63B3B" stroke-width="4"/>
<path d="M45.0495 57.2743C42.3564 57.2743 40.099 59.4918 40.099 62.1372C40.099 64.7826 42.3564 67 45.0495 67C47.6436 67 50 64.7826 49.8812 62.2539C50 59.4723 47.7624 57.2743 45.0495 57.2743Z" fill="#E63B3B"/>
<path d="M43.8218 23.1373C41.4653 23.7986 40 25.8994 40 28.4475C40.1188 29.9841 40.2178 31.5403 40.3366 33.0769C40.6733 38.9318 41.0099 44.6699 41.3465 50.5247C41.4653 52.5088 43.0297 53.9482 45.0495 53.9482C47.0693 53.9482 48.6535 52.4115 48.7525 50.408C48.7525 49.202 48.7525 48.0933 48.8713 46.8679C49.0891 43.1138 49.3267 39.3597 49.5446 35.6056C49.6634 33.1742 49.8812 30.7427 50 28.3113C50 27.436 49.8812 26.658 49.5446 25.8799C48.5346 23.7014 46.1782 22.5926 43.8218 23.1373Z" fill="#E63B3B"/>
</svg>
