<svg width="32" height="32" viewBox="0 0 32 32" fill="none" xmlns="http://www.w3.org/2000/svg">
<path d="M20.0002 2.6665H8.00016C6.5335 2.6665 5.3335 3.8665 5.3335 5.33317V26.6665C5.3335 28.1332 6.5335 29.3332 8.00016 29.3332H24.0002C25.4668 29.3332 26.6668 28.1332 26.6668 26.6665V9.33317L20.0002 2.6665ZM8.00016 26.6665V5.33317H18.6668V10.6665H24.0002V26.6665H8.00016ZM21.3335 13.3332V19.9998C21.3335 22.9465 18.9468 25.3332 16.0002 25.3332C13.0535 25.3332 10.6668 22.9465 10.6668 19.9998V11.3332C10.6668 9.37317 12.3468 7.81317 14.3468 8.01317C16.0802 8.1865 17.3335 9.77317 17.3335 11.5198V19.9998H14.6668V11.3332C14.6668 10.9598 14.3735 10.6665 14.0002 10.6665C13.6268 10.6665 13.3335 10.9598 13.3335 11.3332V19.9998C13.3335 21.4665 14.5335 22.6665 16.0002 22.6665C17.4668 22.6665 18.6668 21.4665 18.6668 19.9998V13.3332H21.3335Z" fill="#9999A7"/>
</svg>
