<svg width="50" height="50" viewBox="0 0 50 50" fill="none" xmlns="http://www.w3.org/2000/svg">
<rect opacity="0.1" x="9.6416" y="11.8828" width="37.4059" height="24.0428" rx="1" fill="#6D6DA7"/>
<path d="M2.45605 12.5391H6.29053V40.0853H2.45605V12.5391Z" fill="#D6D6E6"/>
<path d="M4.47563 36.6973H39.7302V40.0855H4.47563V36.6973Z" fill="#D6D6E6"/>
<circle cx="25.0903" cy="18.4018" r="2.64205" fill="#BCBCD6"/>
<path d="M25.2616 22C26.0527 22 26.8261 21.7654 27.4839 21.3259C28.1417 20.8864 28.6544 20.2617 28.9572 19.5308C29.26 18.7999 29.3392 17.9956 29.1849 17.2197C29.0305 16.4437 28.6496 15.731 28.0901 15.1716C27.5307 14.6122 26.818 14.2312 26.042 14.0769C25.2661 13.9225 24.4618 14.0017 23.7309 14.3045C23 14.6073 22.3753 15.12 21.9358 15.7778C21.4963 16.4356 21.2617 17.209 21.2617 18.0001C21.2629 19.0606 21.6847 20.0773 22.4346 20.8271C23.1845 21.577 24.2011 21.9988 25.2616 22ZM25.2616 15.8914C25.6787 15.8914 26.0864 16.0151 26.4332 16.2467C26.7799 16.4784 27.0502 16.8078 27.2099 17.1931C27.3695 17.5784 27.4113 18.0024 27.3299 18.4114C27.2486 18.8205 27.0477 19.1962 26.7528 19.4911C26.4579 19.7861 26.0822 19.9869 25.6731 20.0683C25.2641 20.1497 24.8401 20.1079 24.4548 19.9483C24.0695 19.7887 23.7401 19.5184 23.5084 19.1717C23.2767 18.8249 23.153 18.4172 23.153 18.0001C23.1537 17.4411 23.376 16.9051 23.7713 16.5098C24.1666 16.1145 24.7026 15.8921 25.2616 15.8914Z" fill="#6D6DA7"/>
<path fill-rule="evenodd" clip-rule="evenodd" d="M2.00003 40.2591C1.99905 40.3792 2.02151 40.4993 2.06644 40.6116C2.11136 40.7229 2.17679 40.8245 2.26077 40.9095C2.29593 40.9446 2.33206 40.9768 2.37112 41.0042C2.42679 41.0462 2.48831 41.0804 2.55472 41.1067C2.6553 41.1468 2.76175 41.1692 2.87015 41.1712C2.87991 41.1712 2.8887 41.1712 2.89847 41.1712H40.6348C41.1397 41.1712 41.5987 40.7757 41.5987 40.2591V37.3167H44.3789C44.4942 37.3235 44.6094 37.304 44.7178 37.263C44.7823 37.2366 44.8448 37.2034 44.9024 37.1634C44.9395 37.137 44.9746 37.1067 45.0069 37.0735C45.0909 36.9915 45.1553 36.8929 45.1992 36.7835C45.2198 36.7317 45.2354 36.678 45.2461 36.6233C45.2578 36.5628 45.2627 36.5013 45.2617 36.4388V8.89676C45.2627 8.84012 45.2598 8.78445 45.25 8.72977C45.2393 8.66824 45.2227 8.6077 45.2002 8.5491C45.1563 8.43875 45.0918 8.33817 45.0088 8.25418C44.9815 8.22586 44.9522 8.19949 44.9209 8.17606C44.8887 8.15164 44.8545 8.12918 44.8194 8.10867C44.7871 8.0911 44.7539 8.07547 44.7188 8.06082C44.6104 8.01785 44.4951 7.99735 44.3789 8.00027H6.64261C6.52737 7.99735 6.41214 8.01883 6.30472 8.0618C6.19827 8.10672 6.09964 8.17313 6.01859 8.25711C5.93851 8.3411 5.87503 8.4407 5.83304 8.55106C5.79105 8.66141 5.77249 8.7786 5.77737 8.89676V11.7386H2.89847C2.39359 11.7386 2.00003 12.2014 2.00003 12.718V40.2591ZM43.4297 9.87039V26.3147L33.6299 19.218C33.4551 19.0911 33.2432 19.0305 33.0303 19.0491C32.8184 19.0657 32.6172 19.1604 32.4668 19.3128L25.003 26.804L16.333 19.971C16.2032 19.9036 16.0576 19.8723 15.9121 19.8772C15.7657 19.8821 15.6241 19.9261 15.4991 20.0022L7.60843 27.2122V9.87039H43.4297ZM7.60843 35.4485V29.3733L15.9961 21.8684L23.6328 28.1653L16.333 35.4485H7.60843ZM39.7686 39.303H3.83206V13.6077H5.77737V36.4388C5.77249 36.5559 5.79202 36.6731 5.83401 36.7815C5.85257 36.8294 5.87601 36.8763 5.9014 36.9192C5.93558 36.9749 5.97464 37.0257 6.02054 37.0725C6.10159 37.1546 6.20023 37.219 6.30667 37.262C6.41409 37.303 6.52737 37.3225 6.64261 37.3167H39.7686V39.303ZM18.9453 35.4485L33.1953 21.1653L43.4297 28.6048V35.4485H18.9453Z" fill="#6D6DA7"/>
</svg>
