<svg width="50" height="50" viewBox="0 0 50 50" fill="none" xmlns="http://www.w3.org/2000/svg">
<rect opacity="0.1" x="11.6436" y="14.8428" width="31.9668" height="26.1153" rx="1" fill="#6D6DA7"/>
<path d="M14.4282 37.1965H11.96C10.9536 37.1965 10.1309 36.3737 10.1309 35.3673V14.9163C10.1309 13.91 10.9536 13.0872 11.96 13.0872H28.6572L26.4828 15.2616C26.0935 15.6509 26.0935 16.2753 26.4828 16.6647C26.6738 16.8557 26.9309 16.9585 27.1807 16.9585C27.4378 16.9585 27.6875 16.863 27.8785 16.6647L31.7498 12.7934C31.9335 12.6097 32.0437 12.3526 32.0437 12.0955C32.0437 11.8384 31.9408 11.5813 31.7498 11.3977L27.8785 7.52637C27.4892 7.13704 26.8648 7.13704 26.4755 7.52637C26.0861 7.91571 26.0861 8.54011 26.4755 8.92944L28.6499 11.1038H11.96C9.85906 11.1038 8.14746 12.8154 8.14746 14.9163V35.3747C8.14746 37.4756 9.85906 39.1872 11.96 39.1872H14.4356C14.9865 39.1872 15.4272 38.7464 15.4272 38.1955C15.4272 37.6446 14.9791 37.1965 14.4282 37.1965Z" fill="#6D6DA7"/>
<path d="M38.0824 11.103H35.6069C35.0559 11.103 34.6152 11.5437 34.6152 12.0947C34.6152 12.6456 35.0559 13.0864 35.6069 13.0864H38.0824C39.0888 13.0864 39.9116 13.9091 39.9116 14.9155V35.3738C39.9116 36.3802 39.0888 37.203 38.0824 37.203H21.3852L23.5596 35.0286C23.9489 34.6392 23.9489 34.0148 23.5596 33.6255C23.1703 33.2362 22.5459 33.2362 22.1565 33.6255L18.2852 37.4968C18.1016 37.6804 17.9914 37.9375 17.9914 38.1947C17.9914 38.4518 18.0942 38.7089 18.2852 38.8925L22.1565 42.7638C22.3475 42.9548 22.6046 43.0576 22.8544 43.0576C23.1041 43.0576 23.3612 42.9621 23.5522 42.7638C23.9416 42.3745 23.9416 41.7501 23.5522 41.3607L21.3779 39.1864H38.0751C40.176 39.1864 41.8876 37.4748 41.8876 35.3738V14.9155C41.895 12.8072 40.1834 11.103 38.0824 11.103Z" fill="#6D6DA7"/>
</svg>
