<svg width="117" height="92" viewBox="0 0 117 92" fill="none" xmlns="http://www.w3.org/2000/svg">
<path d="M59 88.8571C82.1171 88.8571 100.857 70.1171 100.857 47C100.857 23.8829 82.1171 5.14286 59 5.14286C35.8829 5.14286 17.1429 23.8829 17.1429 47C17.1429 70.1171 35.8829 88.8571 59 88.8571ZM102 47C102 70.7482 82.7482 90 59 90C35.2518 90 16 70.7482 16 47C16 23.2518 35.2518 4 59 4C82.7482 4 102 23.2518 102 47Z" fill="#00C389" stroke="#00C389" stroke-width="4"/>
<path fill-rule="evenodd" clip-rule="evenodd" d="M79.5716 36.9799L52.8117 62.4289L38.4287 48.752L42.7633 44.6293L52.8115 54.1842L75.2368 32.8574L79.5716 36.9799Z" fill="#00C389"/>
<path d="M116.165 15.1525C114.472 15.1525 112.882 14.4964 111.687 13.3047C110.492 12.1138 109.835 10.5275 109.835 8.83821C109.835 8.37523 109.461 8 109 8C108.539 8 108.166 8.37523 108.166 8.83821C108.166 10.5275 107.508 12.1138 106.313 13.3047C105.118 14.4964 103.528 15.1525 101.835 15.1525C101.374 15.1525 101 15.5277 101 15.9907C101 16.4537 101.374 16.8289 101.835 16.8289C105.325 16.8289 108.166 19.6699 108.166 23.1618C108.166 23.6248 108.539 24 109 24C109.461 24 109.835 23.6248 109.835 23.1618C109.835 19.6699 112.675 16.8289 116.165 16.8289C116.626 16.8289 117 16.4537 117 15.9907C117 15.5277 116.626 15.1525 116.165 15.1525Z" fill="#00C389"/>
<path d="M7.45513 58.4483C5.85044 58.4483 4.54487 57.1469 4.54487 55.5472C4.54487 55.2451 4.30096 55 4 55C3.69904 55 3.45513 55.2451 3.45513 55.5472C3.45513 57.1469 2.14956 58.4483 0.544874 58.4483C0.243916 58.4483 0 58.6934 0 58.9955C0 59.2977 0.243916 59.5427 0.544874 59.5427C2.14956 59.5427 3.45513 60.8482 3.45513 62.4528C3.45513 62.7549 3.69904 63 4 63C4.30096 63 4.54487 62.7549 4.54487 62.4528C4.54487 60.8482 5.85044 59.5427 7.45513 59.5427C7.75608 59.5427 8 59.2977 8 58.9955C8 58.6934 7.75608 58.4483 7.45513 58.4483Z" fill="#00C389"/>
<path d="M11.8434 5.85215C13.6702 5.85215 15.1566 7.33305 15.1566 9.15314C15.1566 9.62068 15.5341 10 16 10C16.4659 10 16.8434 9.62068 16.8434 9.15314C16.8434 7.3271 18.3298 5.84157 20.1566 5.84157C20.6224 5.84157 21 5.46224 21 4.99471C21 4.52695 20.6224 4.14785 20.1566 4.14785C18.3298 4.14785 16.8434 2.66695 16.8434 0.84686C16.8434 0.379102 16.4659 0 16 0C15.5341 0 15.1566 0.379102 15.1566 0.84686C15.1566 2.6729 13.6702 4.15843 11.8434 4.15843C11.3776 4.15843 11 4.53754 11 5.00529C11 5.47305 11.3776 5.85215 11.8434 5.85215Z" fill="#00C389"/>
</svg>
