<svg width="50" height="51" viewBox="0 0 50 51" fill="none" xmlns="http://www.w3.org/2000/svg">
<rect opacity="0.1" x="11.7031" y="15.1543" width="30.9833" height="29.7337" rx="1" fill="#6D6DA7"/>
<path fill-rule="evenodd" clip-rule="evenodd" d="M20.2504 10.6941C20.7918 10.6941 21.2189 10.2476 21.435 9.75126C21.9559 8.55516 23.373 7.69727 25.0396 7.69727C26.7061 7.69727 28.1232 8.55516 28.6441 9.75126C28.8603 10.2476 29.2874 10.6941 29.8287 10.6941H31.9612C32.5135 10.6941 32.9612 11.1418 32.9612 11.6941V15.97C32.9612 16.5223 32.5135 16.97 31.9612 16.97H18.1182C17.5659 16.97 17.1182 16.5223 17.1182 15.97V11.6941C17.1182 11.1418 17.5659 10.6941 18.1182 10.6941H20.2504Z" fill="#D3D3EA"/>
<path fill-rule="evenodd" clip-rule="evenodd" d="M31.3099 8.15588H28.988C28.002 4.2302 20.7065 4.22838 19.7215 8.15588H17.3358C16.0792 8.15588 15.0577 9.17831 15.0577 10.434V11.5339H11.645C9.63479 11.5339 8 13.1687 8 15.1789V39.7828C8 41.793 9.63479 43.4278 11.645 43.4278H37.1601C39.1703 43.4278 40.8051 41.793 40.8051 39.7828V15.1789C40.8051 13.1687 39.1703 11.5339 37.1601 11.5339H33.588V10.434C33.588 9.17831 32.5665 8.15588 31.3099 8.15588ZM37.1601 13.3564C38.1652 13.3564 38.9826 14.1738 38.9826 15.1789V39.7828C38.9826 40.7879 38.1652 41.6053 37.1601 41.6053H11.645C10.6399 41.6053 9.82251 40.7879 9.82251 39.7828V15.1789C9.82251 14.1738 10.6399 13.3564 11.645 13.3564H15.0577V13.8038C15.0577 15.0595 16.0792 16.082 17.3358 16.082H31.3099C32.5665 16.082 33.588 15.0595 33.588 13.8038V13.3564H37.1601ZM14.7314 25.4163C14.7314 25.9193 15.1388 26.3276 15.6427 26.3276H32.6767C33.1807 26.3276 33.588 25.9193 33.588 25.4163C33.588 24.9133 33.1807 24.5051 32.6767 24.5051H15.6427C15.1388 24.5051 14.7314 24.9133 14.7314 25.4163ZM29.511 29.2999H18.5759C18.072 29.2999 17.6647 29.7082 17.6647 30.2112C17.6647 30.7142 18.072 31.1225 18.5759 31.1225H29.511C30.0149 31.1225 30.4222 30.7142 30.4222 30.2112C30.4222 29.7082 30.0149 29.2999 29.511 29.2999ZM16.8802 10.434C16.8802 10.1871 17.0888 9.97839 17.3358 9.97839H20.5233C21.0273 9.97839 21.4346 9.57014 21.4346 9.06713C21.4346 7.64284 22.9482 6.99404 24.3543 6.99404C25.7612 6.99404 27.2748 7.64284 27.2748 9.06713C27.2748 9.57014 27.6831 9.97839 28.1861 9.97839H31.3099C31.5577 9.97839 31.7655 10.1871 31.7655 10.434V12.0889C31.719 12.1982 31.6926 12.3185 31.6926 12.4451C31.6926 12.5718 31.719 12.6921 31.7655 12.8015V13.8038C31.7655 14.0508 31.5577 14.2595 31.3099 14.2595H17.3358C17.0888 14.2595 16.8802 14.0508 16.8802 13.8038V10.434Z" fill="#6D6DA7"/>
</svg>
