<svg width="20" height="20" viewBox="0 0 20 20" fill="none" xmlns="http://www.w3.org/2000/svg">
<path d="M8.99984 13.2498L12.8915 10.3332C13.1165 10.1665 13.1165 9.83317 12.8915 9.6665L8.99984 6.74984C8.72484 6.5415 8.33317 6.7415 8.33317 7.08317V12.9165C8.33317 13.2582 8.72484 13.4582 8.99984 13.2498ZM9.99984 1.6665C5.39984 1.6665 1.6665 5.39984 1.6665 9.99984C1.6665 14.5998 5.39984 18.3332 9.99984 18.3332C14.5998 18.3332 18.3332 14.5998 18.3332 9.99984C18.3332 5.39984 14.5998 1.6665 9.99984 1.6665ZM9.99984 16.6665C6.32484 16.6665 3.33317 13.6748 3.33317 9.99984C3.33317 6.32484 6.32484 3.33317 9.99984 3.33317C13.6748 3.33317 16.6665 6.32484 16.6665 9.99984C16.6665 13.6748 13.6748 16.6665 9.99984 16.6665Z" fill="#3654FF"/>
</svg>
