<svg width="40" height="40" viewBox="0 0 40 40" fill="none" xmlns="http://www.w3.org/2000/svg">
<circle cx="20" cy="20" r="20" fill="#F7F7F8"/>
<path d="M27.647 10.5882H12.3529C11.3782 10.5882 10.5882 11.3782 10.5882 12.3529V27.6471C10.5882 28.6218 11.3782 29.4118 12.3529 29.4118H27.647C28.6217 29.4118 29.4117 28.6218 29.4117 27.6471V12.3529C29.4117 11.3782 28.6217 10.5882 27.647 10.5882Z" fill="#CCD6DD"/>
<path d="M27.6471 10H12.3529C11.0535 10 10 11.0535 10 12.3529V27.6471C10 28.9465 11.0535 30 12.3529 30H27.6471C28.9465 30 30 28.9465 30 27.6471V12.3529C30 11.0535 28.9465 10 27.6471 10ZM27.6471 11.1765C28.2959 11.1765 28.8235 11.7041 28.8235 12.3529V14.7059H25.2941V11.1765H27.6471ZM25.2941 20.5882H28.8235V24.1176H25.2941V20.5882ZM25.2941 19.4118V15.8824H28.8235V19.4118H25.2941ZM24.1176 11.1765V14.7059H20.5882V11.1765H24.1176ZM20.5882 15.8824H24.1176V19.4118H20.5882V15.8824ZM20.5882 20.5882H24.1176V24.1176H20.5882V20.5882ZM19.4118 11.1765V14.7059H15.8824V11.1765H19.4118ZM15.8824 15.8824H19.4118V19.4118H15.8824V15.8824ZM15.8824 20.5882H19.4118V24.1176H15.8824V20.5882ZM11.1765 12.3529C11.1765 11.7041 11.7041 11.1765 12.3529 11.1765H14.7059V14.7059H11.1765V12.3529ZM11.1765 15.8824H14.7059V19.4118H11.1765V15.8824ZM11.1765 20.5882H14.7059V24.1176H11.1765V20.5882ZM12.3529 28.8235C11.7041 28.8235 11.1765 28.2959 11.1765 27.6471V25.2941H14.7059V28.8235H12.3529ZM15.8824 28.8235V25.2941H19.4118V28.8235H15.8824ZM20.5882 28.8235V25.2941H24.1176V28.8235H20.5882ZM27.6471 28.8235H25.2941V25.2941H28.8235V27.6471C28.8235 28.2959 28.2959 28.8235 27.6471 28.8235Z" fill="#E1E8ED"/>
<path d="M12.3517 28.8235C12.1635 28.8235 11.9723 28.7788 11.7952 28.683C11.2229 28.3753 11.0093 27.6618 11.317 27.0894L15.4346 19.4424C15.6105 19.1147 15.9317 18.89 16.2993 18.8359C16.6676 18.7818 17.0393 18.9053 17.3023 19.1682L20.8764 22.7424L26.6046 11.8071C26.9058 11.2318 27.617 11.0088 28.1923 11.3112C28.7682 11.6124 28.9899 12.3235 28.6887 12.8994L22.2182 25.2524C22.0446 25.5841 21.7235 25.8129 21.3535 25.87C20.9846 25.9235 20.6087 25.8035 20.344 25.5388L16.7558 21.9512L13.3888 28.2047C13.1764 28.5994 12.7705 28.8235 12.3517 28.8235Z" fill="#DD2E44"/>
</svg>
