<svg width="14" height="14" viewBox="0 0 14 14" fill="none" xmlns="http://www.w3.org/2000/svg">
<path d="M6.9935 0.331543C3.3135 0.331543 0.333496 3.31821 0.333496 6.99821C0.333496 10.6782 3.3135 13.6649 6.9935 13.6649C10.6802 13.6649 13.6668 10.6782 13.6668 6.99821C13.6668 3.31821 10.6802 0.331543 6.9935 0.331543ZM9.14683 10.5915L7.00016 9.29821L4.8535 10.5915C4.60016 10.7449 4.28683 10.5182 4.3535 10.2315L4.92016 7.79154L3.0335 6.15821C2.8135 5.96488 2.9335 5.59821 3.22683 5.57154L5.72016 5.35821L6.6935 3.05821C6.80683 2.78488 7.1935 2.78488 7.30683 3.05821L8.28016 5.35154L10.7735 5.56488C11.0668 5.59154 11.1868 5.95821 10.9602 6.15154L9.0735 7.78488L9.64016 10.2315C9.70683 10.5182 9.40016 10.7449 9.14683 10.5915Z" fill="#27AE60"/>
</svg>
