<svg fill="none" height="10" viewBox="0 0 16 10" width="16" xmlns="http://www.w3.org/2000/svg">
<g opacity="0.6">
<path d="M10.4853 2.24138C10.4853 3.47926 9.45209 4.48276 8.17752 4.48276C6.90296 4.48276 5.86972 3.47926 5.86972 2.24138C5.86972 1.0035 6.90296 0 8.17752 0C9.45209 0 10.4853 1.0035 10.4853 2.24138Z" fill="#33334F"/>
<path d="M11.5505 7.58621C11.5505 8.91931 9.96087 10 8 10C6.03913 10 4.44953 8.91931 4.44953 7.58621C4.44953 6.25311 6.03913 5.17241 8 5.17241C9.96087 5.17241 11.5505 6.25311 11.5505 7.58621Z" fill="#33334F"/>
<path d="M4.09448 8.44828C4.09448 7.59128 6.23276 8.3783 7.11515 8.3783L10.3078 6.89655C11.1902 6.89655 11.9055 7.59128 11.9055 8.44828C11.9055 9.30527 11.1902 10 10.3078 10H5.69219C4.8098 10 4.09448 9.30527 4.09448 8.44828Z" fill="#33334F"/>
<path d="M9.18983 8.21424C9.18983 9.66195 9.02741 8.4588 7.62037 8.4588C6.21333 8.4588 4.09448 9.66195 4.09448 8.21424C4.09448 6.76652 5.59976 5.39135 7.0068 5.39135C8.41384 5.39135 9.18983 6.76652 9.18983 8.21424Z" fill="#33334F"/>
<path d="M6.81017 8.21418C6.81017 9.6619 6.97259 8.45875 8.37963 8.45875C9.78667 8.45875 11.9055 9.6619 11.9055 8.21418C11.9055 6.76647 10.4002 5.3913 8.9932 5.3913C7.58616 5.3913 6.81017 6.76647 6.81017 8.21418Z" fill="#33334F"/>
<path d="M5.01701 3.00686C5.01701 3.97863 4.20589 4.76641 3.20531 4.76641C2.20474 4.76641 1.39362 3.97863 1.39362 3.00686C1.39362 2.03508 2.20474 1.24731 3.20531 1.24731C4.20589 1.24731 5.01701 2.03508 5.01701 3.00686Z" fill="#33334F"/>
<path d="M3.41767 8.14937C3.41767 8.1573 3.41773 8.16515 3.41783 8.17292C3.41875 8.24136 3.41909 8.30987 3.41794 8.3783C3.41776 8.38873 3.41767 8.39918 3.41767 8.40966C3.41767 8.48806 3.42263 8.56524 3.43222 8.64087C3.46074 8.86559 3.29908 9.09759 3.06595 9.09759H1.25425C0.561548 9.09759 0 8.55221 0 7.87944C0 7.8776 4.18517e-06 7.87577 1.25468e-05 7.87393C0.000283132 7.81456 0 7.75509 0 7.69571C0 7.07589 0.351473 6.47301 0.850226 6.05295C1.35953 5.59998 2.16255 5.30779 3.06595 5.30779C3.58431 5.30779 4.06963 5.40399 4.48537 5.57156C4.5889 5.61329 4.60563 5.74533 4.52616 5.82212C3.87591 6.41722 3.41767 7.2713 3.41767 8.14937Z" fill="#33334F"/>
<path d="M10.983 3.00686C10.983 3.97863 11.7941 4.76641 12.7947 4.76641C13.7953 4.76641 14.6064 3.97863 14.6064 3.00686C14.6064 2.03508 13.7953 1.24731 12.7947 1.24731C11.7941 1.24731 10.983 2.03508 10.983 3.00686Z" fill="#33334F"/>
<path d="M12.5823 8.14937C12.5823 8.1573 12.5823 8.16515 12.5822 8.17292C12.5812 8.24136 12.5809 8.30987 12.5821 8.3783C12.5822 8.38873 12.5823 8.39918 12.5823 8.40966C12.5823 8.48806 12.5774 8.56524 12.5678 8.64087C12.5393 8.86559 12.7009 9.09759 12.934 9.09759H14.7457C15.4385 9.09759 16 8.55221 16 7.87944C16 7.8776 16 7.87577 16 7.87393C15.9997 7.81456 16 7.75509 16 7.69571C16 7.07589 15.6485 6.47301 15.1498 6.05295C14.6405 5.59998 13.8374 5.30779 12.934 5.30779C12.4157 5.30779 11.9304 5.40399 11.5146 5.57156C11.4111 5.61329 11.3944 5.74533 11.4738 5.82212C12.1241 6.41722 12.5823 7.2713 12.5823 8.14937Z" fill="#33334F"/>
</g>
</svg>
