<svg width="32" height="32" viewBox="0 0 32 32" fill="none"
     xmlns="http://www.w3.org/2000/svg">
  <path d="M30 27H2C0.896 27 0 26.104 0 25V7C0 5.896 0.896 5 2 5H30C31.104 5 32 5.896 32 7V25C32 26.104 31.104 27 30 27Z"
        fill="#1E88E5"/>
  <path d="M30 27H2C0.878 27 0 26.122 0 25C0 24.682 0.152 24.382 0.408 24.194L15.408 14.194C15.584 14.064 15.792 14 16 14C16.208 14 16.416 14.064 16.592 14.194L31.592 24.194C31.848 24.382 32 24.682 32 25C32 26.122 31.122 27 30 27Z"
        fill="#2196F3"/>
  <path d="M30 5H2C0.878 5 0 5.878 0 7C0 7.318 0.152 7.618 0.408 7.806L15.416 18.58C15.764 18.83 16.234 18.83 16.582 18.58L31.59 7.806C31.848 7.618 32 7.318 32 7C32 5.878 31.122 5 30 5Z"
        fill="#64B5F6"/>
</svg>
