<svg width="20" height="20" viewBox="0 0 20 20" fill="none" xmlns="http://www.w3.org/2000/svg">
<g clip-path="url(#clip0)">
<path d="M10.0002 3.33344V1.84177C10.0002 1.46677 9.55016 1.28344 9.29183 1.55011L6.9585 3.87511C6.79183 4.04177 6.79183 4.30011 6.9585 4.46677L9.2835 6.79177C9.55016 7.05011 10.0002 6.86677 10.0002 6.49177V5.00011C12.7585 5.00011 15.0002 7.24177 15.0002 10.0001C15.0002 10.6584 14.8752 11.3001 14.6335 11.8751C14.5085 12.1751 14.6002 12.5168 14.8252 12.7418C15.2502 13.1668 15.9668 13.0168 16.1918 12.4584C16.5002 11.7001 16.6668 10.8668 16.6668 10.0001C16.6668 6.31677 13.6835 3.33344 10.0002 3.33344ZM10.0002 15.0001C7.24183 15.0001 5.00016 12.7584 5.00016 10.0001C5.00016 9.34177 5.12516 8.70011 5.36683 8.12511C5.49183 7.82511 5.40016 7.48344 5.17516 7.25844C4.75016 6.83344 4.0335 6.98344 3.8085 7.54177C3.50016 8.30011 3.3335 9.13344 3.3335 10.0001C3.3335 13.6834 6.31683 16.6668 10.0002 16.6668V18.1584C10.0002 18.5334 10.4502 18.7168 10.7085 18.4501L13.0335 16.1251C13.2002 15.9584 13.2002 15.7001 13.0335 15.5334L10.7085 13.2084C10.4502 12.9501 10.0002 13.1334 10.0002 13.5084V15.0001Z" fill="#3654FF"/>
</g>
<defs>
<clipPath id="clip0">
<rect width="20" height="20" fill="white"/>
</clipPath>
</defs>
</svg>
