<svg width="18" height="18" viewBox="0 0 18 18" fill="none" xmlns="http://www.w3.org/2000/svg">
<path d="M4.83268 9.00001C4.83268 9.45834 5.20768 9.83334 5.66602 9.83334H12.3327C12.791 9.83334 13.166 9.45834 13.166 9.00001C13.166 8.54167 12.791 8.16667 12.3327 8.16667H5.66602C5.20768 8.16667 4.83268 8.54167 4.83268 9.00001ZM8.99935 0.666672C4.39935 0.666672 0.666016 4.40001 0.666016 9.00001C0.666016 13.6 4.39935 17.3333 8.99935 17.3333C13.5993 17.3333 17.3327 13.6 17.3327 9.00001C17.3327 4.40001 13.5993 0.666672 8.99935 0.666672ZM8.99935 15.6667C5.32435 15.6667 2.33268 12.675 2.33268 9.00001C2.33268 5.32501 5.32435 2.33334 8.99935 2.33334C12.6743 2.33334 15.666 5.32501 15.666 9.00001C15.666 12.675 12.6743 15.6667 8.99935 15.6667Z" fill="#EB5757"/>
</svg>
