<svg width="50" height="50" viewBox="0 0 50 50" fill="none" xmlns="http://www.w3.org/2000/svg">
<rect opacity="0.1" x="8.43945" y="15.8271" width="36.5601" height="26.5365" rx="3" fill="#6D6DA7"/>
<path fill-rule="evenodd" clip-rule="evenodd" d="M25.8468 19.5273H20.5373V23.4224L16.8359 23.4224L16.8359 28.7319H20.5373V33.0104H25.8468V28.7319H30.319V23.4224L25.8468 23.4224V19.5273Z" fill="white"/>
<path d="M30.4562 22.5884C30.4536 22.5884 30.451 22.5884 30.4484 22.5884H27.2906V19.4229C27.2949 18.7845 26.7808 18.2634 26.1424 18.2591C26.1397 18.2591 26.1371 18.2591 26.1346 18.2591H21.5725C20.9341 18.2591 20.4165 18.7767 20.4165 19.4152V22.5807H17.2587C16.6203 22.5764 16.0992 23.0904 16.0949 23.7289C16.0949 23.7341 16.0949 23.7392 16.0949 23.7445V28.2988C16.0949 28.9372 16.6125 29.4548 17.251 29.4548H20.4165V32.6126C20.4122 33.251 20.9263 33.7721 21.5648 33.7764C21.5674 33.7764 21.57 33.7764 21.5725 33.7764H26.1268C26.7653 33.7764 27.2829 33.2588 27.2829 32.6204V29.4548H30.4484C31.0868 29.4591 31.6079 28.945 31.6122 28.3066C31.6122 28.3039 31.6122 28.3013 31.6122 28.2988V23.7445C31.6122 23.106 31.0947 22.5884 30.4562 22.5884ZM30.0605 27.9031H26.5148C26.0863 27.9031 25.7389 28.2505 25.7389 28.679V32.2247H21.9682V28.679C21.9682 28.2505 21.6208 27.9031 21.1924 27.9031H17.6467V24.1402H21.1924C21.6208 24.1402 21.9682 23.7928 21.9682 23.3643V19.8108H25.7312V23.3565C25.7312 23.785 26.0785 24.1324 26.507 24.1324H30.0605V27.9031Z" fill="#6D6DA7"/>
<path d="M37.3535 12.4563H30.9604V9.72524C31.0007 8.47901 30.023 7.43605 28.7767 7.3958C28.7132 7.39377 28.6497 7.39435 28.5863 7.39765H19.1207C17.8755 7.33276 16.8134 8.2896 16.7484 9.53476C16.7451 9.59819 16.7444 9.66171 16.7466 9.72524V12.4408H10.3535C7.88621 12.4408 5 13.8451 5 17.7942V34.6693C5 38.6184 7.88621 40.0227 10.3535 40.0227H37.3535C39.8208 40.0227 42.707 38.6184 42.707 34.6693V17.8097C42.707 13.8606 39.8285 12.4563 37.3535 12.4563ZM18.2983 9.72524C18.2983 9.50024 18.2983 8.89506 19.1285 8.89506H28.5863C29.4164 8.89506 29.4164 9.49248 29.4164 9.72524V12.4408H18.2983V9.72524ZM41.1553 34.6693C41.1553 38.0986 38.5018 38.471 37.3535 38.471H10.3535C9.21294 38.471 6.55173 38.0986 6.55173 34.6693V17.8097C6.55173 14.3804 9.20518 14.008 10.3535 14.008H37.3535C38.4941 14.008 41.1553 14.3804 41.1553 17.8097V34.6693Z" fill="#6D6DA7"/>
<path d="M30.4562 22.5884C30.4536 22.5884 30.451 22.5884 30.4484 22.5884H27.2906V19.4229C27.2949 18.7845 26.7808 18.2634 26.1424 18.2591C26.1397 18.2591 26.1371 18.2591 26.1346 18.2591H21.5725C20.9341 18.2591 20.4165 18.7767 20.4165 19.4152V22.5807H17.2587C16.6203 22.5764 16.0992 23.0904 16.0949 23.7289C16.0949 23.7341 16.0949 23.7392 16.0949 23.7445V28.2988C16.0949 28.9372 16.6125 29.4548 17.251 29.4548H20.4165V32.6126C20.4122 33.251 20.9263 33.7721 21.5648 33.7764C21.5674 33.7764 21.57 33.7764 21.5725 33.7764H26.1268C26.7653 33.7764 27.2829 33.2588 27.2829 32.6204V29.4548H30.4484C31.0868 29.4591 31.6079 28.945 31.6122 28.3066C31.6122 28.3039 31.6122 28.3013 31.6122 28.2988V23.7445C31.6122 23.106 31.0947 22.5884 30.4562 22.5884ZM30.0605 27.9031H26.5148C26.0863 27.9031 25.7389 28.2505 25.7389 28.679V32.2247H21.9682V28.679C21.9682 28.2505 21.6208 27.9031 21.1924 27.9031H17.6467V24.1402H21.1924C21.6208 24.1402 21.9682 23.7928 21.9682 23.3643V19.8108H25.7312V23.3565C25.7312 23.785 26.0785 24.1324 26.507 24.1324H30.0605V27.9031Z" stroke="#6D6DA7" stroke-width="0.4"/>
<path d="M37.3535 12.4563H30.9604V9.72524C31.0007 8.47901 30.023 7.43605 28.7767 7.3958C28.7132 7.39377 28.6497 7.39435 28.5863 7.39765H19.1207C17.8755 7.33276 16.8134 8.2896 16.7484 9.53476C16.7451 9.59819 16.7444 9.66171 16.7466 9.72524V12.4408H10.3535C7.88621 12.4408 5 13.8451 5 17.7942V34.6693C5 38.6184 7.88621 40.0227 10.3535 40.0227H37.3535C39.8208 40.0227 42.707 38.6184 42.707 34.6693V17.8097C42.707 13.8606 39.8285 12.4563 37.3535 12.4563ZM18.2983 9.72524C18.2983 9.50024 18.2983 8.89506 19.1285 8.89506H28.5863C29.4164 8.89506 29.4164 9.49248 29.4164 9.72524V12.4408H18.2983V9.72524ZM41.1553 34.6693C41.1553 38.0986 38.5018 38.471 37.3535 38.471H10.3535C9.21294 38.471 6.55173 38.0986 6.55173 34.6693V17.8097C6.55173 14.3804 9.20518 14.008 10.3535 14.008H37.3535C38.4941 14.008 41.1553 14.3804 41.1553 17.8097V34.6693Z" stroke="#6D6DA7" stroke-width="0.4"/>
</svg>
