<svg width="80" height="80" viewBox="0 0 80 80" fill="none"
     xmlns="http://www.w3.org/2000/svg">
  <g clip-path="url(#clip0)">
    <path
            d="M30.4684 7.03125C43.391 7.03125 53.9059 17.5461 53.9059 30.4688C53.9059 43.3914 43.391 53.9062 30.4684 53.9062C17.5457 53.9062 7.03086 43.3914 7.03086 30.4688C7.03086 17.5461 17.5457 7.03125 30.4684 7.03125ZM52.0107 48.6992L57.9067 54.593C58.8221 55.5084 58.8221 56.9917 57.9067 57.9072C56.9912 58.8228 55.5079 58.8227 54.5924 57.9072L48.6965 52.0134C47.781 51.098 47.781 49.6147 48.6965 48.6992C49.612 47.7837 51.0953 47.7836 52.0107 48.6992Z"
            fill="#F2F2F2"/>
    <path
            d="M30.4679 0C47.2495 0 60.9366 13.6873 60.9366 30.4688C60.9366 47.2502 47.2495 60.9375 30.4679 60.9375C13.6863 60.9375 -0.000862122 47.2502 -0.000862122 30.4688C-0.000862122 13.6873 13.6863 0 30.4679 0ZM30.4679 51.5625C42.0927 51.5625 51.5616 42.0936 51.5616 30.4688C51.5616 18.8439 42.0927 9.375 30.4679 9.375C18.843 9.375 9.37414 18.8439 9.37414 30.4688C9.37414 42.0936 18.843 51.5625 30.4679 51.5625ZM57.9062 51.2787C58.8216 50.3633 60.3049 50.3633 61.2204 51.2787L79.3124 69.3708C80.2279 70.2862 80.2279 71.7695 79.3124 72.685L72.684 79.3134C71.7684 80.2289 70.2852 80.2289 69.3698 79.3134L51.2777 61.2214C50.3623 60.3059 50.3623 58.8227 51.2777 57.9072L57.9062 51.2787Z"
            fill="#E0E0E0"/>
  </g>
  <defs>
    <clipPath id="clip0">
      <rect width="80" height="80" fill="white"
            transform="matrix(-1 0 0 1 80 0)"/>
    </clipPath>
  </defs>
</svg>
