<svg width="15" height="17" viewBox="0 0 15 17" fill="none" xmlns="http://www.w3.org/2000/svg">
<path fill-rule="evenodd" clip-rule="evenodd" d="M12.75 7.23147C12.75 4.19104 11.0712 2.08079 8.89903 1.44727C8.82038 1.24403 8.69606 1.05508 8.5271 0.896529C7.94978 0.354803 7.05019 0.354803 6.47287 0.896529C6.30428 1.05473 6.18014 1.2432 6.10146 1.44594C3.92651 2.07671 2.25 4.18234 2.25 7.23147C2.25 9.20433 1.85174 10.3098 1.11447 11.1109C0.9912 11.2449 0.657217 11.5517 0.430987 11.7596C0.323957 11.8579 0.241045 11.9341 0.215974 11.9593L0 12.178V14.7323H4.56597C4.72036 15.5278 5.15255 16.06 5.93414 16.5363C6.8956 17.1223 8.10438 17.1223 9.06584 16.5363C9.7556 16.116 10.2181 15.4699 10.4057 14.7323H15V12.178L14.784 11.9593C14.7613 11.9363 14.6818 11.863 14.5778 11.7672C14.3522 11.5594 14.0117 11.2457 13.8865 11.1091C13.1488 10.3043 12.75 9.1974 12.75 7.23147ZM8.80254 14.7323H6.13395C6.23991 14.9291 6.42052 15.0778 6.7155 15.2576C7.19719 15.5511 7.80279 15.5511 8.28448 15.2576C8.50754 15.1216 8.68183 14.9418 8.80254 14.7323ZM12.7801 12.1207C12.9379 12.2928 13.2762 12.6076 13.5 12.8132V13.2342H1.49999V12.8135C1.72204 12.6103 2.06131 12.2958 2.21885 12.1246C3.22065 11.0361 3.74999 9.56678 3.74999 7.23147C3.74999 4.40007 5.49956 2.74659 7.49998 2.74659C9.49477 2.74659 11.25 4.40861 11.25 7.23147C11.25 9.55929 11.7795 11.029 12.7801 12.1207Z" fill="#0065FF"/>
</svg>
