<svg width="50" height="50" viewBox="0 0 50 50" fill="none" xmlns="http://www.w3.org/2000/svg">
<path d="M36.0166 10.5752L43.0563 17.5868L44.8368 15.7992C45.8201 14.8119 45.8169 13.2145 44.8296 12.2311L41.3651 8.78046C40.3778 7.79715 38.7804 7.80035 37.797 8.78761L36.0166 10.5752Z" fill="#D3D3EA"/>
<path d="M41.6553 29.6536V18.7011L43.4873 16.6858V39.7776C43.4883 39.8401 43.4834 39.9016 43.4717 39.9622C43.461 40.0169 43.4453 40.0706 43.4248 40.1223C43.3809 40.2317 43.3164 40.3303 43.2325 40.4124C43.2002 40.4456 43.1651 40.4758 43.128 40.5022C43.0703 40.5423 43.0078 40.5755 42.9434 40.6018C42.8727 40.6286 42.7991 40.6462 42.7244 40.6533H4.75627C4.67974 40.6464 4.60467 40.6285 4.53226 40.6008C4.42581 40.5579 4.32718 40.4934 4.24612 40.4114C4.20023 40.3645 4.16116 40.3137 4.12698 40.2581C4.10159 40.2151 4.07816 40.1682 4.0596 40.1204C4.01761 40.012 3.99808 39.8948 4.00296 39.7776V16.9466H4V15.0774H4.00296V12.2356C3.99808 12.1175 4.01663 12.0003 4.05862 11.8899C4.10062 11.7796 4.16409 11.68 4.24417 11.596C4.32523 11.512 4.42386 11.4456 4.5303 11.4007C4.63773 11.3577 4.75296 11.3362 4.86819 11.3391H34.3302C33.7111 11.9607 33.0662 12.6285 32.5441 13.2092H5.83401L5.83398 38.79H41.6539V38.7874H41.6553V31.9436L41.6539 31.9426V29.6526L41.6553 29.6536Z" fill="#6D6DA7"/>
<path d="M43.9575 9.4083C41.7194 7.16468 38.0798 7.16468 35.8417 9.4083L20.9618 24.2827C20.8454 24.399 20.7734 24.5486 20.7513 24.7092L19.6488 32.8749C19.6156 33.1076 19.6987 33.3402 19.8594 33.5009C19.9978 33.6394 20.1917 33.7225 20.3856 33.7225C20.4189 33.7225 20.4521 33.7225 20.4854 33.7169L25.4047 33.0522C25.8146 32.9968 26.1027 32.6201 26.0473 32.2101C25.9919 31.8002 25.6152 31.5121 25.2053 31.5675L21.2609 32.0993L22.031 26.4044L28.025 32.3985C28.1635 32.537 28.3574 32.6201 28.5513 32.6201C28.7452 32.6201 28.9391 32.5425 29.0776 32.3985L43.9575 17.5241C45.0433 16.4383 45.6416 14.998 45.6416 13.4634C45.6416 11.9289 45.0433 10.4886 43.9575 9.4083ZM36.1297 11.2364L38.6282 13.7349L25.0501 27.3129L22.5517 24.8145L36.1297 11.2364ZM28.5568 30.8141L26.1138 28.371L39.6918 14.793L42.1349 17.236L28.5568 30.8141ZM43.1764 16.1669L37.1989 10.1894C37.9579 9.56341 38.9052 9.21995 39.9024 9.21995C41.038 9.21995 42.1017 9.66313 42.9049 10.4609C43.7082 11.2586 44.1458 12.3278 44.1458 13.4634C44.1458 14.4661 43.8024 15.4079 43.1764 16.1669Z" fill="#6D6DA7"/>
<path fill-rule="evenodd" clip-rule="evenodd" d="M35.7001 9.26666C38.0162 6.94503 41.7823 6.94497 44.0985 9.26646C45.222 10.3843 45.8414 11.8757 45.8414 13.4632C45.8414 15.051 45.2219 16.5421 44.0987 17.6653L29.2201 32.5384C29.0422 32.7225 28.7962 32.8199 28.5511 32.8199C28.302 32.8199 28.0579 32.7141 27.8834 32.5397L22.1749 26.8311L21.4941 31.8659L25.1783 31.3691C25.6981 31.2989 26.1752 31.6641 26.2453 32.1831C26.3156 32.703 25.9503 33.18 25.4313 33.2502L20.5145 33.9146C20.4659 33.9223 20.4198 33.9223 20.3897 33.9223H20.3855C20.1364 33.9223 19.8922 33.8166 19.7178 33.6421C19.5144 33.4388 19.4084 33.1442 19.4506 32.8473L20.5529 24.6823C20.5808 24.4799 20.672 24.2893 20.8202 24.141L35.7001 9.26666ZM43.8157 9.54935C41.6558 7.38407 38.143 7.38407 35.9831 9.54935L21.103 24.4239C21.0186 24.5083 20.9657 24.6173 20.9492 24.7361L19.8469 32.9015L19.8466 32.903C19.8226 33.0711 19.8828 33.2415 20.0006 33.3593C20.1031 33.4618 20.2468 33.5223 20.3855 33.5223C20.4213 33.5223 20.438 33.5218 20.4523 33.5195L20.4584 33.5185L25.3777 32.8538C25.6786 32.8131 25.8895 32.5368 25.8489 32.2367C25.8083 31.9358 25.5319 31.725 25.2319 31.7655L21.0274 32.3324L21.8867 25.9773L28.1663 32.2569C28.2688 32.3594 28.4124 32.4199 28.5511 32.4199C28.6932 32.4199 28.8342 32.3627 28.9332 32.2597L28.936 32.2568L43.8159 17.3825C44.8643 16.3341 45.4414 14.9445 45.4414 13.4632C45.4414 11.9818 44.8637 10.592 43.8157 9.54935ZM37.5 10.2077L43.1578 15.8654C43.668 15.1745 43.9457 14.344 43.9457 13.4632C43.9457 12.3799 43.5286 11.3621 42.7638 10.6026C41.9977 9.84171 40.9845 9.41975 39.9022 9.41975C39.0264 9.41975 38.1916 9.6975 37.5 10.2077ZM37.0715 10.0349C37.8662 9.37945 38.8585 9.01975 39.9022 9.01975C41.0911 9.01975 42.2053 9.48416 43.0457 10.3188C43.8874 11.1547 44.3457 12.2753 44.3457 13.4632C44.3457 14.5126 43.9859 15.4993 43.3305 16.2939L43.1904 16.4637L36.9017 10.175L37.0715 10.0349ZM36.1296 10.9534L38.9109 13.7347L25.05 27.5956L22.2687 24.8143L36.1296 10.9534ZM22.8344 24.8143L25.05 27.0299L38.3452 13.7347L36.1296 11.5191L22.8344 24.8143ZM39.6917 14.5099L42.4175 17.2358L28.5567 31.0967L25.8308 28.3708L39.6917 14.5099ZM26.3964 28.3708L28.5567 30.5311L41.8519 17.2358L39.6917 15.0756L26.3964 28.3708Z" fill="#6D6DA7"/>
<path fill-rule="evenodd" clip-rule="evenodd" d="M12.1283 17.6113C12.1283 17.059 12.576 16.6113 13.1283 16.6113L28.1617 16.6113C28.7139 16.6113 29.1617 17.059 29.1617 17.6113C29.1617 18.1636 28.7139 18.6113 28.1617 18.6113L13.1283 18.6113C12.576 18.6113 12.1283 18.1636 12.1283 17.6113Z" fill="#6D6DA7"/>
<path fill-rule="evenodd" clip-rule="evenodd" d="M14.5439 21.9961C14.5439 21.4438 14.9917 20.9961 15.5439 20.9961L24.0217 20.9961C24.5739 20.9961 25.0217 21.4438 25.0217 21.9961C25.0217 22.5484 24.5739 22.9961 24.0217 22.9961L15.5439 22.9961C14.9917 22.9961 14.5439 22.5484 14.5439 21.9961Z" fill="#6D6DA7"/>
<rect opacity="0.1" x="7.6543" y="15.2715" width="37.4159" height="27.0258" rx="1" fill="#6D6DA7"/>
</svg>
