<svg width="81" height="80" viewBox="0 0 81 80" fill="none" xmlns="http://www.w3.org/2000/svg">
<path d="M70.5667 16.6665H63.8333V9.93317C63.8333 8.13317 62.3667 6.6665 60.5667 6.6665H60.4667C58.6333 6.6665 57.1667 8.13317 57.1667 9.93317V16.6665H50.4667C48.6667 16.6665 47.2 18.1332 47.1667 19.9332V20.0332C47.1667 21.8665 48.6333 23.3332 50.4667 23.3332H57.1667V30.0332C57.1667 31.8332 58.6333 33.3332 60.4667 33.2998H60.5667C62.3667 33.2998 63.8333 31.8332 63.8333 30.0332V23.3332H70.5667C72.3667 23.3332 73.8333 21.8665 73.8333 20.0665V19.9332C73.8333 18.1332 72.3667 16.6665 70.5667 16.6665ZM53.8333 30.0332V26.6665H50.4667C48.7 26.6665 47.0333 25.9665 45.7667 24.7332C44.5333 23.4665 43.8333 21.7998 43.8333 19.9332C43.8333 18.7332 44.1667 17.6332 44.7333 16.6665H17.1667C13.5 16.6665 10.5 19.6665 10.5 23.3332V63.3332C10.5 66.9998 13.5 69.9998 17.1667 69.9998H57.1667C60.8333 69.9998 63.8333 66.9998 63.8333 63.3332V35.7332C62.8333 36.2998 61.7 36.6665 60.4333 36.6665C56.8 36.6332 53.8333 33.6665 53.8333 30.0332ZM53.7 63.3332H20.5C19.1333 63.3332 18.3333 61.7665 19.1667 60.6665L25.7667 51.8998C26.4667 50.9665 27.8333 51.0332 28.5 51.9665L33.8333 59.9998L42.5333 48.3998C43.2 47.5332 44.5 47.4998 45.1667 48.3665L55 60.6332C55.8667 61.7332 55.1 63.3332 53.7 63.3332Z" fill="#ADADB9"/>
</svg>
