<svg width="50" height="50" viewBox="0 0 50 50" fill="none" xmlns="http://www.w3.org/2000/svg">
<path opacity="0.1" fill-rule="evenodd" clip-rule="evenodd" d="M38.2788 31.0803C37.6281 30.5339 36.6356 30.9965 36.6356 31.8461V37.0008C36.6356 38.6577 35.2925 40.0008 33.6356 40.0008H7.08496C5.42811 40.0008 4.08496 38.6577 4.08496 37.0008V16.0303C4.08496 14.3734 5.42811 13.0303 7.08496 13.0303H33.6356C35.2925 13.0303 36.6356 14.3734 36.6356 16.0303V16.0714C36.6356 16.9436 37.6742 17.3978 38.3145 16.8056L46.1168 9.59101C46.7571 8.99887 47.7957 9.45305 47.7957 10.3252V36.9273C47.7957 37.777 46.8032 38.2395 46.1526 37.6931L38.2788 31.0803Z" fill="#6D6DA7"/>
<path d="M35.7559 18.4845L38.2787 16.2725V32.5118L35.7559 30.5128V18.4845Z" fill="#BCBCD6"/>
<path d="M46.3833 9.07012C46.1135 8.94436 45.796 8.99029 45.5714 9.18759L36.2023 17.4089V13.6267C36.1997 11.4983 34.5026 9.77383 32.4079 9.77119H6.79435C4.69968 9.77383 3.00259 11.4983 3 13.6267V35.2178C3.00259 37.3459 4.69968 39.0707 6.79435 39.0734H32.4079C34.5026 39.0707 36.1997 37.3459 36.2023 35.2178V31.1002L45.5873 38.899C45.7226 39.0116 45.8923 39.0734 46.0676 39.0734C46.1802 39.073 46.2914 39.0466 46.3925 38.9962C46.6564 38.8693 46.8253 38.5993 46.8264 38.3023V9.77119C46.8264 9.4696 46.653 9.1955 46.3833 9.07012ZM34.6845 35.2178C34.6845 36.4953 33.6652 37.5311 32.4079 37.5311H6.79435C5.5371 37.5311 4.51774 36.4953 4.51774 35.2178V13.6267C4.51774 12.3492 5.5371 11.3134 6.79435 11.3134H32.4079C33.6652 11.3134 34.6845 12.3492 34.6845 13.6267V35.2178ZM45.3087 36.6761L36.2023 29.1077V19.447L45.3087 11.4561V36.6761Z" fill="#6D6DA7"/>
<path opacity="0.4" d="M19.3013 29.5752C24.2975 29.5752 28.5943 27.5101 30.293 24.579C28.5943 21.6478 24.2975 19.5827 19.3013 19.5827C14.305 19.5827 10.0083 21.6478 8.30955 24.579C10.0083 27.5101 14.305 29.5752 19.3013 29.5752Z" fill="white"/>
<circle cx="19.3014" cy="24.5798" r="2.99774" fill="#F0F0F6"/>
<path d="M19.3188 18.1367C14.3498 18.1367 7.38809 23.6398 7.09457 23.8736C6.90538 24.0243 6.79492 24.2554 6.79492 24.4997C6.79492 24.7439 6.90538 24.9746 7.09457 25.1257C7.38809 25.3595 14.3498 30.8626 19.3188 30.8626C24.2878 30.8626 31.2495 25.3595 31.543 25.1257C31.7322 24.9746 31.8427 24.7439 31.8427 24.4997C31.8427 24.2554 31.7322 24.0243 31.543 23.8736C31.2495 23.6398 24.2878 18.1367 19.3188 18.1367ZM19.3188 29.2719C15.8129 29.2719 10.8432 25.9211 8.89205 24.4997C10.8416 23.0775 15.8083 19.7275 19.3188 19.7275C22.8293 19.7275 27.7944 23.0783 29.7456 24.4997C27.796 25.9218 22.8293 29.2719 19.3188 29.2719Z" fill="#6D6DA7"/>
<circle cx="19.3188" cy="24.5004" r="2.64205" fill="#BCBCD6"/>
<path d="M15.4053 24.4983C15.4053 26.6945 17.1577 28.4752 19.319 28.4752C21.4803 28.4752 23.2327 26.6945 23.2327 24.4983C23.2327 22.3017 21.4803 20.5215 19.319 20.5215C17.1584 20.5242 15.4079 22.3029 15.4053 24.4983ZM21.6672 24.4983C21.6672 25.816 20.6158 26.8844 19.319 26.8844C18.0222 26.8844 16.9708 25.816 16.9708 24.4983C16.9708 23.1806 18.0222 22.1122 19.319 22.1122C20.6158 22.1122 21.6672 23.1806 21.6672 24.4983Z" fill="#6D6DA7"/>
</svg>
