<svg width="32" height="32" viewBox="0 0 32 32" fill="none"
     xmlns="http://www.w3.org/2000/svg">
  <g clip-path="url(#clip0)">
    <path d="M0.743392 32C0.563705 32 0.3889 31.929 0.259261 31.7979C0.0883629 31.625 0.022445 31.374 0.086654 31.1394L2.16698 23.5427C0.87181 21.2007 0.188949 18.5513 0.189925 15.8618C0.193588 7.11548 7.31126 0 16.0569 0C20.2988 0.00170899 24.2847 1.65405 27.2805 4.6521C30.2759 7.65039 31.9248 11.636 31.9236 15.8745C31.9197 24.6211 24.802 31.7371 16.0569 31.7371C16.0569 31.7371 16.0503 31.7371 16.05 31.7371C13.4956 31.7361 10.9631 31.1135 8.70824 29.9343L0.916 31.9778C0.858871 31.9927 0.800765 32 0.743392 32Z"
          fill="#E5E5E5"/>
    <path d="M0.743164 31.3191L2.89746 23.4521C1.5686 21.1497 0.869629 18.5378 0.870605 15.8621C0.874023 7.49121 7.68604 0.680908 16.0566 0.680908C20.1187 0.682617 23.9314 2.26367 26.7986 5.1333C29.6655 8.00293 31.2439 11.8174 31.2424 15.8743C31.2388 24.2449 24.4258 31.0562 16.0566 31.0562C16.0562 31.0562 16.0569 31.0562 16.0566 31.0562H16.0501C13.5085 31.0552 11.0115 30.4177 8.79346 29.208L0.743164 31.3191ZM9.16626 26.4597L9.62744 26.7329C11.5649 27.8828 13.7864 28.491 16.0518 28.4922H16.0566C23.0132 28.4922 28.6753 22.8311 28.6782 15.8733C28.6794 12.5015 27.3679 9.33081 24.9849 6.9458C22.6016 4.56079 19.4329 3.24658 16.0613 3.24512C9.09912 3.24512 3.43726 8.90552 3.43457 15.863C3.43359 18.2473 4.10059 20.5691 5.36426 22.5784L5.66455 23.0559L4.38916 27.7122L9.16626 26.4597Z"
          fill="white"/>
    <path d="M1.27148 30.7891L3.35132 23.1941C2.06812 20.9714 1.39355 18.4497 1.39429 15.8669C1.39746 7.78589 7.97388 1.21143 16.0542 1.21143C19.9761 1.21313 23.657 2.7395 26.4243 5.50977C29.1924 8.28003 30.7158 11.9624 30.7144 15.8784C30.7109 23.9597 24.1343 30.5349 16.0549 30.5349C16.0542 30.5349 16.0552 30.5349 16.0549 30.5349H16.0483C13.595 30.5339 11.1841 29.9182 9.04297 28.7512L1.27148 30.7891Z"
          fill="#64B161"/>
    <path d="M0.743164 31.3191L2.89746 23.4521C1.5686 21.1497 0.869629 18.5378 0.870605 15.8621C0.874023 7.49121 7.68604 0.680908 16.0566 0.680908C20.1187 0.682617 23.9314 2.26367 26.7986 5.1333C29.6655 8.00293 31.2439 11.8174 31.2424 15.8743C31.2388 24.2449 24.4258 31.0562 16.0566 31.0562C16.0562 31.0562 16.0569 31.0562 16.0566 31.0562H16.0501C13.5085 31.0552 11.0115 30.4177 8.79346 29.208L0.743164 31.3191ZM9.16626 26.4597L9.62744 26.7329C11.5649 27.8828 13.7864 28.491 16.0518 28.4922H16.0566C23.0132 28.4922 28.6753 22.8311 28.6782 15.8733C28.6794 12.5015 27.3679 9.33081 24.9849 6.9458C22.6016 4.56079 19.4329 3.24658 16.0613 3.24512C9.09912 3.24512 3.43726 8.90552 3.43457 15.863C3.43359 18.2473 4.10059 20.5691 5.36426 22.5784L5.66455 23.0559L4.38916 27.7122L9.16626 26.4597Z"
          fill="white"/>
    <path fill-rule="evenodd" clip-rule="evenodd"
          d="M12.261 9.51539C11.9768 8.88355 11.6775 8.87085 11.407 8.85987C11.1858 8.85035 10.9326 8.85083 10.6799 8.85083C10.427 8.85083 10.0159 8.94605 9.66821 9.32569C9.32031 9.70533 8.33984 10.6233 8.33984 12.4902C8.33984 14.3574 9.69971 16.1614 9.8894 16.4148C10.0791 16.668 12.5144 20.6216 16.3711 22.1426C19.5764 23.4067 20.2285 23.1553 20.9243 23.092C21.6201 23.0288 23.1692 22.1741 23.4853 21.2881C23.8017 20.4021 23.8017 19.6428 23.7068 19.4839C23.6118 19.3259 23.3589 19.231 22.9795 19.0413C22.6001 18.8516 20.7346 17.9334 20.3867 17.8069C20.0388 17.6802 19.7859 17.6172 19.533 17.9971C19.2798 18.3765 18.5532 19.231 18.3318 19.4839C18.1103 19.7376 17.8889 19.7693 17.5095 19.5793C17.1301 19.3892 15.908 18.9888 14.4582 17.696C13.3303 16.6904 12.5686 15.4482 12.3472 15.0684C12.126 14.689 12.3435 14.5015 12.5139 14.2942C12.8208 13.9209 13.3357 13.2498 13.4622 12.9968C13.5886 12.7434 13.5254 12.522 13.4307 12.332C13.3357 12.1423 12.5981 10.2659 12.261 9.51539Z"
          fill="white"/>
  </g>
  <defs>
    <clipPath id="clip0">
      <rect width="32" height="32" fill="white"/>
    </clipPath>
  </defs>
</svg>
