<svg width="50" height="50" viewBox="0 0 50 50" fill="none" xmlns="http://www.w3.org/2000/svg">
<rect opacity="0.1" x="8" y="11.6807" width="38.955" height="30.1651" rx="1" fill="#6D6DA7"/>
<path opacity="0.4" d="M31.2305 25.8457L21.9997 31.8457L21.9997 19.8457L31.2305 25.8457Z" fill="#6D6DA7"/>
<path d="M4 8V39.9998H44.99V8H4ZM43.1438 9.84615V38.1536H5.84615V9.84615H43.1438ZM5.84615 38.1536V39.9998H43.1438V38.1536H5.84615Z" fill="#6D6DA7"/>
<path d="M19.1209 31.6168C19.2594 31.6925 19.4126 31.7303 19.5649 31.7303C19.7375 31.7303 19.9092 31.6814 20.0606 31.5863L30.2145 25.1248C30.4803 24.9549 30.6418 24.6614 30.6418 24.3457C30.6418 24.03 30.4803 23.7365 30.2145 23.5666L20.0606 17.1051C19.7745 16.9251 19.4172 16.9131 19.12 17.0746C18.8255 17.2371 18.6418 17.5472 18.6418 17.8842V30.8072C18.6418 31.1442 18.8255 31.4543 19.1209 31.6168ZM20.488 19.5651L28 24.3457L20.488 29.1263V19.5651Z" fill="#6D6DA7"/>
</svg>
