<svg width="46" height="35" viewBox="0 0 46 35" fill="none" xmlns="http://www.w3.org/2000/svg">
<rect opacity="0.1" x="4.08154" y="3.81299" width="41.9184" height="30.7175" rx="1" fill="#6D6DA7"/>
<circle cx="21.604" cy="10.6939" r="2.95999" fill="#BCBCD6"/>
<path fill-rule="evenodd" clip-rule="evenodd" d="M24.322 14.9295C23.585 15.4219 22.7186 15.6848 21.8322 15.6847C20.6442 15.6834 19.5051 15.2108 18.665 14.3707C17.8249 13.5306 17.3524 12.3916 17.351 11.2035C17.351 10.3172 17.6138 9.45073 18.1062 8.71376C18.5986 7.97678 19.2985 7.40237 20.1174 7.06318C20.9362 6.72398 21.8373 6.63522 22.7066 6.80813C23.5759 6.98104 24.3744 7.40785 25.0011 8.03458C25.6279 8.66132 26.0547 9.45983 26.2276 10.3291C26.4005 11.1984 26.3118 12.0995 25.9726 12.9184C25.6334 13.7372 25.059 14.4371 24.322 14.9295ZM23.1448 9.23914C22.7562 8.97957 22.2995 8.84104 21.8322 8.84106C21.2059 8.84184 20.6055 9.09099 20.1626 9.53387C19.7198 9.97675 19.4706 10.5772 19.4699 11.2035C19.4699 11.6708 19.6085 12.1275 19.8681 12.516C20.1277 12.9045 20.4966 13.2073 20.9283 13.3861C21.36 13.5649 21.835 13.6117 22.2933 13.5205C22.7516 13.4294 23.1725 13.2044 23.5029 12.874C23.8333 12.5436 24.0583 12.1226 24.1494 11.6643C24.2406 11.206 24.1938 10.731 24.0149 10.2993C23.8361 9.86767 23.5333 9.49872 23.1448 9.23914Z" fill="#6D6DA7"/>
<path fill-rule="evenodd" clip-rule="evenodd" d="M43.3844 32.8421C43.4681 32.8341 43.5505 32.8144 43.6297 32.7844C43.702 32.7549 43.772 32.7177 43.8365 32.6728C43.8781 32.6433 43.9175 32.6094 43.9536 32.5722C44.0477 32.4803 44.1199 32.3698 44.1691 32.2472C44.1921 32.1892 44.2096 32.1291 44.2216 32.0678C44.2348 32 44.2402 31.931 44.2391 31.861V1.00467C44.2402 0.941217 44.237 0.878854 44.226 0.817586C44.214 0.748658 44.1954 0.680826 44.1702 0.615181C44.121 0.49155 44.0488 0.37886 43.9558 0.284769C43.9251 0.25304 43.8923 0.2235 43.8573 0.197242C43.8212 0.16989 43.7829 0.144726 43.7435 0.121751C43.7074 0.102057 43.6702 0.0845521 43.6308 0.0681409C43.5094 0.0200014 43.3803 -0.00297426 43.2501 0.000307978H0.972671C0.84357 -0.00297426 0.714468 0.0210955 0.594119 0.069235C0.474865 0.119563 0.364363 0.19396 0.273554 0.288051C0.18384 0.382142 0.112724 0.493738 0.065679 0.617369C0.0186335 0.741 -0.00215397 0.872289 0.00331643 1.00467V4.18845H0V6.28251H0.00331643V31.861C-0.00215397 31.9923 0.0197276 32.1236 0.066773 32.245C0.0875606 32.2986 0.113818 32.3512 0.142265 32.3993C0.180557 32.4617 0.224321 32.5185 0.275742 32.5711C0.366551 32.663 0.477053 32.7352 0.596308 32.7833C0.677429 32.8143 0.761533 32.8343 0.84728 32.8421H43.3844ZM42.1867 20.5187V2.09547H2.05472V21.5241L10.8949 13.4465C11.0349 13.3612 11.1936 13.312 11.3577 13.3065C11.5207 13.301 11.6837 13.336 11.8292 13.4115L21.5425 21.0668L29.9045 12.6741C30.073 12.5035 30.2984 12.3973 30.5358 12.3787C30.7743 12.3579 31.0117 12.4258 31.2076 12.568L42.1867 20.5187ZM2.05472 23.9453V30.7516H11.8292L20.0075 22.592L11.4518 15.5373L2.05472 23.9453ZM30.7207 14.7496L14.7559 30.7516H42.1867V23.0843L30.7207 14.7496Z" fill="#6D6DA7"/>
</svg>
