<svg fill="none" height="14" viewBox="0 0 12 14" width="12" xmlns="http://www.w3.org/2000/svg">
<path d="M11.1715 9.27442C11.1715 9.10248 11.3081 8.96582 11.4801 8.96582C11.652 8.96582 11.7931 9.10248 11.7931 9.27442V12.3076C11.7931 12.4796 11.652 12.6207 11.4801 12.6207H0.515495C0.343558 12.6207 0.206897 12.4796 0.206897 12.3076V9.27442C0.206897 9.10248 0.343558 8.96582 0.515495 8.96582C0.687433 8.96582 0.828538 9.10248 0.828538 9.27442V11.999H11.1715V9.27442Z" fill="#6D6DA7"/>
<path clip-rule="evenodd" d="M0.515495 9.37961C0.457824 9.37961 0.413793 9.42364 0.413793 9.48132V12.5145C0.413793 12.5761 0.46166 12.6207 0.515495 12.6207H11.4801C11.5377 12.6207 11.5862 12.5722 11.5862 12.5145V9.48132C11.5862 9.42748 11.5416 9.37961 11.4801 9.37961C11.4224 9.37961 11.3784 9.42364 11.3784 9.48132V12.4128H0.621642V9.48132C0.621642 9.42748 0.577042 9.37961 0.515495 9.37961ZM0 9.48132C0 9.19511 0.229292 8.96582 0.515495 8.96582C0.797824 8.96582 1.03544 9.19128 1.03544 9.48132V11.999H10.9646V9.48132C10.9646 9.19511 11.1939 8.96582 11.4801 8.96582C11.7624 8.96582 12 9.19128 12 9.48132V12.5145C12 12.8007 11.7663 13.0345 11.4801 13.0345H0.515495C0.225456 13.0345 0 12.7969 0 12.5145V9.48132Z" fill="#6D6DA7" fill-rule="evenodd"/>
<path d="M5.76406 9.60799C5.76406 9.89419 5.99779 10.1279 6.284 10.1279C6.57404 10.1279 6.79949 9.89032 6.79949 9.60799V2.73517L8.68037 4.61255C8.88047 4.81836 9.21169 4.818 9.41171 4.6124C9.61454 4.40824 9.61416 4.08409 9.41058 3.88037L6.64833 1.1134C6.44622 0.918118 6.11875 0.914594 5.91743 1.11591L3.15309 3.88025C2.94941 4.08393 2.94897 4.40812 3.15176 4.61232C3.25304 4.71663 3.38678 4.76749 3.52045 4.76675C3.65315 4.766 3.78579 4.71438 3.88651 4.61366L5.76406 2.73587V9.60799Z" fill="#6D6DA7"/>
</svg>
