<svg width="14" height="14" viewBox="0 0 14 14" fill="none"
     xmlns="http://www.w3.org/2000/svg">
  <path d="M6.33398 3.66659H7.66732V4.99992H6.33398V3.66659ZM6.33398 6.33325H7.66732V10.3333H6.33398V6.33325ZM7.00065 0.333252C3.32065 0.333252 0.333984 3.31992 0.333984 6.99992C0.333984 10.6799 3.32065 13.6666 7.00065 13.6666C10.6807 13.6666 13.6673 10.6799 13.6673 6.99992C13.6673 3.31992 10.6807 0.333252 7.00065 0.333252ZM7.00065 12.3333C4.06065 12.3333 1.66732 9.93992 1.66732 6.99992C1.66732 4.05992 4.06065 1.66659 7.00065 1.66659C9.94065 1.66659 12.334 4.05992 12.334 6.99992C12.334 9.93992 9.94065 12.3333 7.00065 12.3333Z"
        fill="#707084"/>
</svg>
