<svg width="33" height="33" viewBox="0 0 33 33" fill="none" xmlns="http://www.w3.org/2000/svg">
<circle cx="16.4746" cy="16.4375" r="16" fill="#2F86EB"/>
<rect x="11.4746" y="6.9375" width="9" height="18" fill="white"/>
<path d="M26.4327 10.6649C25.4043 8.90311 24.0093 7.50816 22.2475 6.47982C20.4853 5.45154 18.5616 4.9375 16.475 4.9375C14.3886 4.9375 12.4643 5.45154 10.7024 6.47982C8.94044 7.508 7.54549 8.90295 6.5171 10.6649C5.48865 12.427 4.97461 14.3512 4.97461 16.4375C4.97461 18.5239 5.48881 20.4478 6.51694 22.21C7.54528 23.9718 8.94023 25.3667 10.7022 26.3952C12.4643 27.4234 14.3884 27.9375 16.4748 27.9375C18.5611 27.9375 20.4854 27.4234 22.2474 26.3952C24.0093 25.3671 25.4042 23.9718 26.4325 22.21C27.4606 20.4479 27.9746 18.5238 27.9746 16.4375C27.9747 14.351 27.4606 12.4267 26.4327 10.6649ZM14.5582 7.8123C14.5582 7.67248 14.6031 7.55778 14.693 7.46799C14.7828 7.37825 14.8977 7.3332 15.0374 7.3332H17.9126C18.0522 7.3332 18.1671 7.37825 18.2567 7.46799C18.3465 7.55778 18.3917 7.67248 18.3917 7.8123V10.2082C18.3917 10.3479 18.3465 10.4628 18.2567 10.5525C18.1671 10.6423 18.0523 10.6872 17.9126 10.6872H15.0374C14.8977 10.6872 14.7829 10.6423 14.693 10.5525C14.6031 10.4628 14.5582 10.3479 14.5582 10.2082V7.8123ZM20.3082 23.625C20.3082 23.7646 20.2629 23.8795 20.1734 23.9691C20.084 24.059 19.9691 24.1039 19.8292 24.1039H13.1206C12.9808 24.1039 12.866 24.059 12.7762 23.9691C12.6864 23.8795 12.6415 23.7647 12.6415 23.6248V21.2289C12.6415 21.0889 12.6864 20.9744 12.7762 20.8845C12.866 20.7949 12.9809 20.7497 13.1206 20.7497H14.5582V15.9582H13.1206C12.9808 15.9582 12.8661 15.9134 12.7762 15.8236C12.6864 15.7338 12.6415 15.619 12.6415 15.4791V13.0834C12.6415 12.9436 12.6864 12.8289 12.7762 12.739C12.8662 12.6491 12.981 12.6043 13.1206 12.6043H17.9126C18.0522 12.6043 18.1671 12.6491 18.2567 12.739C18.3465 12.8289 18.3917 12.9436 18.3917 13.0834V20.7501H19.8288C19.9688 20.7501 20.0836 20.7949 20.1734 20.8847C20.2627 20.9745 20.308 21.0893 20.308 21.2291V23.6251H20.3082V23.625Z" fill="#2F86EB"/>
</svg>
