<svg width="14" height="14" viewBox="0 0 14 14" fill="none" xmlns="http://www.w3.org/2000/svg">
<path opacity="0.5" d="M13.0614 3.48626C12.4354 2.41385 11.5863 1.56475 10.5139 0.938805C9.44124 0.312892 8.27031 0 7.00019 0C5.7302 0 4.55892 0.312892 3.48648 0.938805C2.41398 1.56465 1.56488 2.41375 0.938901 3.48626C0.312893 4.55883 0 5.73011 0 7C0 8.26996 0.312988 9.44105 0.938805 10.5137C1.56475 11.5861 2.41385 12.4352 3.48635 13.0612C4.55892 13.6871 5.73011 14 7.00006 14C8.27002 14 9.44134 13.6871 10.5138 13.0612C11.5863 12.4354 12.4353 11.5861 13.0613 10.5137C13.6871 9.44114 13.9999 8.26989 13.9999 7C14 5.72998 13.6871 4.55867 13.0614 3.48626ZM5.83348 1.74988C5.83348 1.66477 5.86077 1.59495 5.91552 1.5403C5.97018 1.48567 6.04013 1.45825 6.12517 1.45825H7.87528C7.96026 1.45825 8.03021 1.48567 8.08473 1.5403C8.13936 1.59495 8.16687 1.66477 8.16687 1.74988V3.20826C8.16687 3.2933 8.13936 3.36322 8.08473 3.41781C8.03021 3.47247 7.96029 3.49979 7.87528 3.49979H6.12517C6.04013 3.49979 5.97021 3.47247 5.91552 3.41781C5.86077 3.36325 5.83348 3.2933 5.83348 3.20826V1.74988ZM9.33343 11.375C9.33343 11.46 9.30588 11.5299 9.25138 11.5845C9.19699 11.6392 9.12704 11.6665 9.04186 11.6665H4.95843C4.87328 11.6665 4.80346 11.6392 4.74878 11.5845C4.69412 11.5299 4.6668 11.46 4.6668 11.3749V9.91653C4.6668 9.83129 4.69412 9.7616 4.74878 9.70688C4.80346 9.65236 4.87338 9.62484 4.95843 9.62484H5.83348V6.70827H4.95843C4.87328 6.70827 4.8035 6.68098 4.74878 6.62629C4.69412 6.57167 4.6668 6.50175 4.6668 6.41664V4.95836C4.6668 4.87325 4.69412 4.80343 4.74878 4.74871C4.80353 4.69403 4.87344 4.66673 4.95843 4.66673H7.87528C7.96026 4.66673 8.03021 4.69403 8.08473 4.74871C8.13936 4.80343 8.16687 4.87325 8.16687 4.95836V9.62506H9.04164C9.12685 9.62506 9.19676 9.65236 9.25138 9.70698C9.30578 9.76163 9.3333 9.83152 9.3333 9.91663V11.375H9.33343V11.375Z" fill="#33334F"/>
</svg>
