<svg width="24" height="25" viewBox="0 0 24 25" fill="none" xmlns="http://www.w3.org/2000/svg">
<circle cx="12" cy="12.7297" r="12" fill="#FF9C28"/>
<path d="M12.0149 16.6615C11.2069 16.6615 10.5297 17.3041 10.5297 18.0706C10.5297 18.8372 11.2069 19.4797 12.0149 19.4797C12.7931 19.4797 13.5 18.8372 13.4644 18.1044C13.5 17.2984 12.8287 16.6615 12.0149 16.6615Z" fill="white"/>
<path d="M11.6465 6.76952C10.9396 6.96116 10.5 7.5699 10.5 8.30827C10.5356 8.75355 10.5653 9.20447 10.601 9.64975C10.702 11.3463 10.803 13.0091 10.904 14.7057C10.9396 15.2806 11.4089 15.6977 12.0149 15.6977C12.6208 15.6977 13.096 15.2524 13.1257 14.6718C13.1257 14.3224 13.1257 14.0011 13.1614 13.646C13.2267 12.5582 13.298 11.4703 13.3634 10.3825C13.399 9.67793 13.4644 8.97337 13.5 8.26882C13.5 8.01518 13.4644 7.78972 13.3634 7.56426C13.0604 6.93297 12.3535 6.6117 11.6465 6.76952Z" fill="white"/>
</svg>
