<svg width="40" height="40" viewBox="0 0 40 40" fill="none" xmlns="http://www.w3.org/2000/svg">
<path fill-rule="evenodd" clip-rule="evenodd" d="M20 40C31.0457 40 40 31.0457 40 20C40 8.9543 31.0457 0 20 0C8.9543 0 0 8.9543 0 20C0 31.0457 8.9543 40 20 40ZM15.0188 12.5751C15.9442 11.4782 17.4999 10.6255 19.9996 10.6255L19.9994 10.6255C23.1751 10.6255 25.0391 12.0613 26.0762 13.7125C26.8757 14.9851 27.1609 16.3431 27.2639 17.1598C27.7726 17.2567 28.4658 17.4627 29.1113 17.9062C30.0661 18.5616 30.839 19.6865 30.839 21.4649C30.839 23.2052 30.1224 24.3578 29.1458 25.0412C28.2202 25.6894 27.1458 25.8593 26.4446 25.8593H23.5151C23.0298 25.8593 22.6362 25.4657 22.6362 24.9804C22.6362 24.4951 23.0298 24.1015 23.5151 24.1015H26.4446C26.9155 24.1015 27.5988 23.9787 28.1378 23.6013C28.6261 23.2595 29.0813 22.6543 29.0813 21.4649C29.0813 20.281 28.6063 19.6916 28.1162 19.3552C27.5736 18.9824 26.927 18.8691 26.5966 18.8383C26.063 18.7884 25.5957 18.3609 25.5583 17.775C25.5249 17.2565 25.3589 15.875 24.5878 14.6475C23.8539 13.4793 22.5369 12.3832 19.9996 12.3832C17.9387 12.3832 16.9058 13.0644 16.3622 13.7086C15.7882 14.389 15.6466 15.1629 15.6138 15.4891C15.5638 15.9868 15.1921 16.4078 14.6847 16.5031C14.2839 16.5785 13.3022 16.8162 12.441 17.4091C11.6134 17.979 10.9179 18.8534 10.9179 20.2931C10.9179 22.0428 11.6448 22.9499 12.3702 23.4524C13.1543 23.995 13.9989 24.1015 14.1403 24.1015H16.4841C16.9694 24.1015 17.363 24.4951 17.363 24.9804C17.363 25.4657 16.9694 25.8593 16.4841 25.8593H14.1403C13.696 25.8593 12.4897 25.6729 11.3697 24.8974C10.1911 24.0815 9.16016 22.6447 9.16016 20.2931C9.16016 18.1475 10.2556 16.7796 11.4444 15.9613C12.3467 15.3402 13.3129 15.0234 13.9312 14.8696C14.0473 14.2765 14.3294 13.3922 15.0188 12.5751ZM20.6211 18.4998L22.9646 20.8435C23.3079 21.1867 23.3079 21.743 22.9646 22.0863C22.6215 22.4296 22.0651 22.4296 21.7218 22.0863L20.8785 21.2432V28.4957C20.8785 28.981 20.4849 29.3745 19.9996 29.3745C19.5142 29.3745 19.1207 28.981 19.1207 28.4957V21.2432L18.2773 22.0863C17.934 22.4296 17.3777 22.4296 17.0344 22.0863C16.6912 21.743 16.6912 21.1867 17.0344 20.8435L19.3781 18.4998C19.7214 18.1565 20.2778 18.1565 20.6211 18.4998Z" fill="#6F6EFF"/>
</svg>
