<svg width="80" height="80" viewBox="0 0 80 80" fill="none" xmlns="http://www.w3.org/2000/svg">
<path d="M69.9997 26.6667C65.1663 26.6667 62.4663 31.4667 63.5663 35.0333L51.733 46.9C50.733 46.6 49.2663 46.6 48.2663 46.9L39.7663 38.4C40.8997 34.8333 38.1997 30 33.333 30C28.4997 30 25.7663 34.8 26.8997 38.4L11.6997 53.5667C8.13301 52.4667 3.33301 55.1667 3.33301 60C3.33301 63.6667 6.33301 66.6667 9.99967 66.6667C14.833 66.6667 17.533 61.8667 16.433 58.3L31.5997 43.1C32.5997 43.4 34.0663 43.4 35.0663 43.1L43.5663 51.6C42.433 55.1667 45.133 60 49.9997 60C54.833 60 57.5663 55.2 56.433 51.6L68.2997 39.7667C71.8663 40.8667 76.6663 38.1667 76.6663 33.3333C76.6663 29.6667 73.6663 26.6667 69.9997 26.6667Z" fill="#D6D6DC"/>
<path d="M50 30L53.1333 23.1L60 20L53.1333 16.9L50 10L46.9333 16.9L40 20L46.9333 23.1L50 30Z" fill="#D6D6DC"/>
<path d="M11.6663 36.6667L13.333 30L19.9997 28.3333L13.333 26.6667L11.6663 20L9.99967 26.6667L3.33301 28.3333L9.99967 30L11.6663 36.6667Z" fill="#D6D6DC"/>
</svg>
