<svg width="14" height="13" viewBox="0 0 14 13" fill="none" xmlns="http://www.w3.org/2000/svg">
<path d="M8.91992 6.81836H5.16992C4.96292 6.81836 4.79492 6.98636 4.79492 7.19336C4.79492 7.40036 4.96292 7.56836 5.16992 7.56836H8.91992C9.12692 7.56836 9.29492 7.40036 9.29492 7.19336C9.29492 6.98636 9.12692 6.81836 8.91992 6.81836ZM9.66992 4.56836H4.41992C4.21292 4.56836 4.04492 4.73636 4.04492 4.94336C4.04492 5.15036 4.21292 5.31836 4.41992 5.31836H9.66992C9.87692 5.31836 10.0449 5.15036 10.0449 4.94336C10.0449 4.73636 9.87692 4.56836 9.66992 4.56836ZM7.04492 0.443359C3.73143 0.443359 1.04492 2.79385 1.04492 5.69336C1.04492 7.3505 1.92429 8.82573 3.29492 9.78799V12.4434L5.92329 10.8485C6.28706 10.9085 6.66129 10.9434 7.04492 10.9434C10.3588 10.9434 13.0449 8.59287 13.0449 5.69336C13.0449 2.79385 10.3588 0.443359 7.04492 0.443359ZM7.04492 10.1934C6.60692 10.1934 6.18392 10.1424 5.77741 10.0557L4.0119 11.117L4.03553 9.37773C2.68218 8.56361 1.79492 7.21812 1.79492 5.69336C1.79492 3.20824 4.14541 1.19336 7.04492 1.19336C9.94443 1.19336 12.2949 3.20824 12.2949 5.69336C12.2949 8.17848 9.94443 10.1934 7.04492 10.1934Z" fill="#33334F" stroke="#33334F" stroke-width="0.2"/>
</svg>
