<svg width="24" height="24" viewBox="0 0 24 24" fill="none" xmlns="http://www.w3.org/2000/svg">
<ellipse cx="11.9999" cy="12" rx="12" ry="12" fill="#E14D91"/>
<path d="M12 7.08108C13.6021 7.08108 13.7919 7.0872 14.4245 7.11606C15.0095 7.14274 15.3272 7.24048 15.5386 7.32265C15.8187 7.43149 16.0186 7.56151 16.2285 7.77146C16.4385 7.98143 16.5685 8.1813 16.6774 8.46136C16.7595 8.67279 16.8573 8.99048 16.8839 9.57547C16.9128 10.2081 16.9189 10.3979 16.9189 12C16.9189 13.602 16.9128 13.7918 16.8839 14.4245C16.8573 15.0095 16.7595 15.3272 16.6774 15.5386C16.5685 15.8187 16.4385 16.0185 16.2285 16.2285C16.0186 16.4384 15.8187 16.5685 15.5386 16.6773C15.3272 16.7595 15.0095 16.8572 14.4245 16.8839C13.7919 16.9128 13.6022 16.9189 12 16.9189C10.3978 16.9189 10.2081 16.9128 9.5755 16.8839C8.9905 16.8572 8.67281 16.7595 8.46138 16.6773C8.18132 16.5685 7.98145 16.4384 7.7715 16.2285C7.56155 16.0185 7.43151 15.8187 7.32267 15.5386C7.2405 15.3272 7.14275 15.0095 7.11608 14.4245C7.08721 13.7918 7.08109 13.602 7.08109 12C7.08109 10.3979 7.08721 10.2081 7.11608 9.57547C7.14275 8.99048 7.2405 8.67279 7.32267 8.46136C7.43151 8.1813 7.56153 7.98143 7.7715 7.77148C7.98145 7.56151 8.18132 7.43149 8.46138 7.32265C8.67281 7.24048 8.9905 7.14274 9.5755 7.11606C10.2082 7.0872 10.3979 7.08108 12 7.08108ZM12 6C10.3705 6 10.1662 6.00691 9.52622 6.03611C8.88759 6.06523 8.45143 6.16667 8.06978 6.31498C7.67523 6.46831 7.34062 6.67347 7.00704 7.00703C6.67349 7.34061 6.46833 7.67521 6.31502 8.06976C6.16668 8.45141 6.06525 8.88757 6.03612 9.5262C6.00692 10.1662 6.00001 10.3705 6.00001 12C6.00001 13.6295 6.00692 13.8338 6.03612 14.4738C6.06525 15.1124 6.16668 15.5486 6.31502 15.9302C6.46833 16.3247 6.67349 16.6594 7.00704 16.9929C7.34062 17.3265 7.67523 17.5316 8.06978 17.685C8.45143 17.8333 8.88759 17.9347 9.52622 17.9639C10.1662 17.9931 10.3705 18 12 18C13.6295 18 13.8338 17.9931 14.4738 17.9639C15.1124 17.9347 15.5486 17.8333 15.9302 17.685C16.3248 17.5316 16.6594 17.3265 16.993 16.9929C17.3265 16.6594 17.5317 16.3247 17.685 15.9302C17.8333 15.5486 17.9348 15.1124 17.9639 14.4738C17.9931 13.8338 18 13.6295 18 12C18 10.3705 17.9931 10.1662 17.9639 9.5262C17.9348 8.88757 17.8333 8.45141 17.685 8.06976C17.5317 7.67521 17.3265 7.34061 16.993 7.00703C16.6594 6.67347 16.3248 6.46831 15.9302 6.31498C15.5486 6.16667 15.1124 6.06523 14.4738 6.03611C13.8338 6.00691 13.6295 6 12 6Z" fill="white"/>
<path d="M12.0028 8.92188C10.3012 8.92188 8.92174 10.3013 8.92174 12.0029C8.92174 13.7046 10.3012 15.084 12.0028 15.084C13.7045 15.084 15.0839 13.7046 15.0839 12.0029C15.0839 10.3013 13.7045 8.92188 12.0028 8.92188ZM12.0028 14.0029C10.8982 14.0029 10.0028 13.1075 10.0028 12.0029C10.0028 10.8984 10.8982 10.003 12.0028 10.003C13.1074 10.003 14.0028 10.8984 14.0028 12.0029C14.0028 13.1075 13.1074 14.0029 12.0028 14.0029Z" fill="white"/>
<path d="M15.9253 8.79824C15.9253 9.19587 15.603 9.51823 15.2053 9.51823C14.8077 9.51823 14.4853 9.19587 14.4853 8.79824C14.4853 8.40059 14.8077 8.07823 15.2053 8.07823C15.603 8.07823 15.9253 8.40059 15.9253 8.79824Z" fill="white"/>
</svg>
