<svg width="40" height="40" viewBox="0 0 40 40" fill="none" xmlns="http://www.w3.org/2000/svg">
<circle cx="20" cy="20" r="20" fill="#6F6EFF"/>
<path d="M28.5951 15.834C27.3112 15.834 26.594 17.109 26.8862 18.0564L23.743 21.2085C23.4773 21.1288 23.0878 21.1288 22.8221 21.2085L20.5643 18.9507C20.8654 18.0033 20.1482 16.7194 18.8555 16.7194C17.5716 16.7194 16.8456 17.9944 17.1466 18.9507L13.1091 22.9793C12.1617 22.6871 10.8867 23.4043 10.8867 24.6881C10.8867 25.6621 11.6836 26.459 12.6576 26.459C13.9414 26.459 14.6586 25.184 14.3664 24.2366L18.3951 20.1991C18.6607 20.2788 19.0503 20.2788 19.3159 20.1991L21.5737 22.4569C21.2727 23.4043 21.9898 24.6881 23.2826 24.6881C24.5664 24.6881 25.2924 23.4131 24.9914 22.4569L28.1435 19.3137C29.0909 19.6059 30.3659 18.8887 30.3659 17.6048C30.3659 16.6309 29.569 15.834 28.5951 15.834Z" fill="white"/>
<path d="M23.2812 16.7188L24.1135 14.8859L25.9375 14.0625L24.1135 13.2391L23.2812 11.4062L22.4667 13.2391L20.625 14.0625L22.4667 14.8859L23.2812 16.7188Z" fill="white"/>
<path d="M13.1003 18.4896L13.543 16.7188L15.3138 16.276L13.543 15.8333L13.1003 14.0625L12.6576 15.8333L10.8867 16.276L12.6576 16.7188L13.1003 18.4896Z" fill="white"/>
</svg>
