<svg width="36" height="36" viewBox="0 0 36 36" fill="none" xmlns="http://www.w3.org/2000/svg">
<path opacity="0.05" fill-rule="evenodd" clip-rule="evenodd" d="M19.5398 31.1395C25.7781 31.1395 30.8352 26.0824 30.8352 19.8442C30.8352 13.6059 25.7781 8.54883 19.5398 8.54883C13.3016 8.54883 8.24448 13.6059 8.24448 19.8442C8.24448 26.0824 13.3016 31.1395 19.5398 31.1395ZM18.5 20.4275C20.1169 20.4275 21.4277 19.1168 21.4277 17.4999C21.4277 15.883 20.1169 14.5722 18.5 14.5722C16.8831 14.5722 15.5724 15.883 15.5724 17.4999C15.5724 19.1168 16.8831 20.4275 18.5 20.4275Z" fill="#33334F"/>
<path d="M31.2663 17.0598H30.3749C30.1473 10.8558 25.1442 5.85273 18.9402 5.62514V4.7337C18.9402 4.49026 18.7434 4.29348 18.5 4.29348C18.2566 4.29348 18.0598 4.49026 18.0598 4.7337V5.62514C11.8558 5.85273 6.85273 10.8558 6.62514 17.0598H5.7337C5.49026 17.0598 5.29348 17.2566 5.29348 17.5C5.29348 17.7434 5.49026 17.9402 5.7337 17.9402H6.62514C6.85273 24.1442 11.8558 29.1473 18.0598 29.3749V30.2663C18.0598 30.5097 18.2566 30.7065 18.5 30.7065C18.7434 30.7065 18.9402 30.5097 18.9402 30.2663V29.3749C25.1442 29.1473 30.1473 24.1442 30.3749 17.9402H31.2663C31.5097 17.9402 31.7065 17.7434 31.7065 17.5C31.7065 17.2566 31.5097 17.0598 31.2663 17.0598ZM18.9402 28.4944V27.625C18.9402 27.3816 18.7434 27.1848 18.5 27.1848C18.2566 27.1848 18.0598 27.3816 18.0598 27.625V28.4944C12.3414 28.2677 7.73228 23.6586 7.50557 17.9402H8.375C8.61844 17.9402 8.81522 17.7434 8.81522 17.5C8.81522 17.2566 8.61844 17.0598 8.375 17.0598H7.50557C7.73228 11.3414 12.3414 6.73228 18.0598 6.50557V7.375C18.0598 7.61844 18.2566 7.81522 18.5 7.81522C18.7434 7.81522 18.9402 7.61844 18.9402 7.375V6.50557C24.6586 6.73228 29.2677 11.3414 29.4944 17.0598H28.625C28.3816 17.0598 28.1848 17.2566 28.1848 17.5C28.1848 17.7434 28.3816 17.9402 28.625 17.9402H29.4944C29.2677 23.6586 24.6586 28.2677 18.9402 28.4944Z" fill="#33334F"/>
<path fill-rule="evenodd" clip-rule="evenodd" d="M17.7663 4.7337C17.7663 4.32817 18.0945 4 18.5 4C18.9055 4 19.2337 4.32817 19.2337 4.7337V5.34549C25.366 5.71216 30.2878 10.634 30.6545 16.7663H31.2663C31.6718 16.7663 32 17.0945 32 17.5C32 17.9055 31.6718 18.2337 31.2663 18.2337H30.6545C30.2878 24.366 25.366 29.2878 19.2337 29.6545V30.2663C19.2337 30.6718 18.9055 31 18.5 31C18.0945 31 17.7663 30.6718 17.7663 30.2663V29.6545C11.634 29.2878 6.71216 24.366 6.34549 18.2337H5.7337C5.32817 18.2337 5 17.9055 5 17.5C5 17.0945 5.32817 16.7663 5.7337 16.7663H6.34549C6.71216 10.634 11.634 5.71216 17.7663 5.34549V4.7337ZM18.5 4.58696C18.4186 4.58696 18.3533 4.65234 18.3533 4.7337V5.90805L18.0705 5.91842C12.0202 6.14037 7.14037 11.0202 6.91842 17.0705L6.90805 17.3533H5.7337C5.65234 17.3533 5.58696 17.4186 5.58696 17.5C5.58696 17.5814 5.65234 17.6467 5.7337 17.6467H6.90805L6.91842 17.9295C7.14037 23.9798 12.0202 28.8596 18.0705 29.0816L18.3533 29.092V30.2663C18.3533 30.3477 18.4186 30.413 18.5 30.413C18.5814 30.413 18.6467 30.3477 18.6467 30.2663V29.092L18.9295 29.0816C24.9798 28.8596 29.8596 23.9798 30.0816 17.9295L30.092 17.6467H31.2663C31.3477 17.6467 31.413 17.5814 31.413 17.5C31.413 17.4186 31.3477 17.3533 31.2663 17.3533H30.092L30.0816 17.0705C29.8596 11.0202 24.9798 6.14037 18.9295 5.91842L18.6467 5.90805V4.7337C18.6467 4.65234 18.5814 4.58696 18.5 4.58696ZM18.3533 6.20023V7.375C18.3533 7.45636 18.4186 7.52174 18.5 7.52174C18.5814 7.52174 18.6467 7.45636 18.6467 7.375V6.20023L18.9518 6.21232C24.8232 6.4451 29.5549 11.1768 29.7877 17.0482L29.7998 17.3533H28.625C28.5436 17.3533 28.4783 17.4186 28.4783 17.5C28.4783 17.5814 28.5436 17.6467 28.625 17.6467H29.7998L29.7877 17.9518C29.5549 23.8232 24.8232 28.5549 18.9518 28.7877L18.6467 28.7998V27.625C18.6467 27.5436 18.5814 27.4783 18.5 27.4783C18.4186 27.4783 18.3533 27.5436 18.3533 27.625V28.7998L18.0482 28.7877C12.1768 28.5549 7.4451 23.8232 7.21232 17.9518L7.20023 17.6467H8.375C8.45636 17.6467 8.52174 17.5814 8.52174 17.5C8.52174 17.4186 8.45636 17.3533 8.375 17.3533H7.20023L7.21232 17.0482C7.4451 11.1768 12.1768 6.4451 18.0482 6.21232L18.3533 6.20023ZM7.81524 16.7663H8.375C8.78052 16.7663 9.1087 17.0945 9.1087 17.5C9.1087 17.9055 8.78052 18.2337 8.375 18.2337H7.81524C8.1775 23.5559 12.4441 27.8225 17.7663 28.1848V27.625C17.7663 27.2195 18.0945 26.8913 18.5 26.8913C18.9055 26.8913 19.2337 27.2195 19.2337 27.625V28.1848C24.5559 27.8225 28.8225 23.5559 29.1848 18.2337H28.625C28.2195 18.2337 27.8913 17.9055 27.8913 17.5C27.8913 17.0945 28.2195 16.7663 28.625 16.7663H29.1848C28.8225 11.4441 24.5559 7.1775 19.2337 6.81524V7.375C19.2337 7.78052 18.9055 8.1087 18.5 8.1087C18.0945 8.1087 17.7663 7.78052 17.7663 7.375V6.81524C12.4441 7.1775 8.1775 11.4441 7.81524 16.7663Z" fill="#33334F"/>
<path d="M23.7826 17.0598H21.5463C21.3522 15.7132 20.2868 14.6478 18.9402 14.4537V12.2174C18.9402 11.974 18.7434 11.7772 18.5 11.7772C18.2566 11.7772 18.0598 11.974 18.0598 12.2174V14.4537C16.7132 14.6478 15.6478 15.7136 15.4537 17.0598H13.2174C12.974 17.0598 12.7772 17.2566 12.7772 17.5C12.7772 17.7434 12.974 17.9402 13.2174 17.9402H15.4537C15.6478 19.2868 16.7132 20.3522 18.0598 20.5463V22.7826C18.0598 23.0261 18.2566 23.2228 18.5 23.2228C18.7434 23.2228 18.9402 23.0261 18.9402 22.7826V20.5463C20.2868 20.3522 21.3522 19.2864 21.5463 17.9402H23.7826C24.026 17.9402 24.2228 17.7434 24.2228 17.5C24.2228 17.2566 24.026 17.0598 23.7826 17.0598ZM18.5 19.7011C17.2863 19.7011 16.2989 18.7137 16.2989 17.5C16.2989 16.2863 17.2863 15.2989 18.5 15.2989C19.7137 15.2989 20.7011 16.2863 20.7011 17.5C20.7011 18.7137 19.7137 19.7011 18.5 19.7011Z" fill="#33334F"/>
<path fill-rule="evenodd" clip-rule="evenodd" d="M17.7663 12.2174C17.7663 11.8119 18.0945 11.4837 18.5 11.4837C18.9055 11.4837 19.2337 11.8119 19.2337 12.2174V14.2093C20.5059 14.4928 21.5072 15.4941 21.7907 16.7663H23.7826C24.1881 16.7663 24.5163 17.0945 24.5163 17.5C24.5163 17.9055 24.1881 18.2337 23.7826 18.2337H21.7907C21.5072 19.5056 20.5059 20.5071 19.2337 20.7907V22.7826C19.2337 23.1881 18.9055 23.5163 18.5 23.5163C18.0945 23.5163 17.7663 23.1881 17.7663 22.7826V20.7907C16.4941 20.5072 15.4928 19.5059 15.2093 18.2337H13.2174C12.8119 18.2337 12.4837 17.9055 12.4837 17.5C12.4837 17.0945 12.8119 16.7663 13.2174 16.7663H15.2093C15.4928 15.4944 16.4941 14.4929 17.7663 14.2093V12.2174ZM18.5 12.0707C18.4186 12.0707 18.3533 12.136 18.3533 12.2174V14.7079L18.1017 14.7442C16.8839 14.9197 15.9197 15.8843 15.7442 17.1017L15.7079 17.3533H13.2174C13.136 17.3533 13.0707 17.4186 13.0707 17.5C13.0707 17.5814 13.136 17.6467 13.2174 17.6467H15.7079L15.7442 17.8983C15.9197 19.1161 16.8839 20.0803 18.1017 20.2558L18.3533 20.2921V22.7826C18.3533 22.864 18.4186 22.9293 18.5 22.9293C18.5814 22.9293 18.6467 22.864 18.6467 22.7826V20.2921L18.8983 20.2558C20.1161 20.0803 21.0803 19.1157 21.2558 17.8983L21.2921 17.6467H23.7826C23.864 17.6467 23.9293 17.5814 23.9293 17.5C23.9293 17.4186 23.864 17.3533 23.7826 17.3533H21.2921L21.2558 17.1017C21.0803 15.8839 20.1161 14.9197 18.8983 14.7442L18.6467 14.7079V12.2174C18.6467 12.136 18.5814 12.0707 18.5 12.0707ZM18.5 15.5924C17.4484 15.5924 16.5924 16.4484 16.5924 17.5C16.5924 18.5516 17.4484 19.4076 18.5 19.4076C19.5516 19.4076 20.4076 18.5516 20.4076 17.5C20.4076 16.4484 19.5516 15.5924 18.5 15.5924ZM16.0054 17.5C16.0054 16.1242 17.1242 15.0054 18.5 15.0054C19.8758 15.0054 20.9946 16.1242 20.9946 17.5C20.9946 18.8758 19.8758 19.9946 18.5 19.9946C17.1242 19.9946 16.0054 18.8758 16.0054 17.5Z" fill="#33334F"/>
</svg>
