<svg width="36" height="36" viewBox="0 0 36 36" fill="none" xmlns="http://www.w3.org/2000/svg">
<circle opacity="0.06" cx="17.4001" cy="17.3" r="10.3501" fill="#33334F"/>
<path d="M26.0397 22.1121C25.7989 21.8765 25.4136 21.8788 25.1753 22.1169L24.5805 22.7114L23.5858 21.7167C23.5821 21.7125 23.5765 21.7119 23.5723 21.7074C27.3439 17.4681 27.0606 10.9982 22.933 7.10473C18.8053 3.21122 12.3301 3.30549 8.31788 7.31774C4.30563 11.33 4.21109 17.8055 8.10459 21.9331C11.9981 26.0607 18.468 26.3438 22.7073 22.5724C22.7118 22.5766 22.7124 22.5823 22.7166 22.5859L23.7113 23.5806L23.0019 24.29C22.8857 24.4062 22.821 24.564 22.8218 24.7284C22.8229 24.8927 22.8896 25.0497 23.0075 25.1645L28.0843 30.127C28.6285 30.6695 29.4211 30.8806 30.1634 30.6805C30.9054 30.4804 31.4845 29.8994 31.682 29.1565C31.8798 28.4139 31.6663 27.6218 31.1221 27.0793L26.0397 22.1121ZM15.7743 23.9954C10.6821 23.9954 6.55389 19.8672 6.55389 14.775C6.55389 9.68277 10.6821 5.55459 15.7743 5.55459C20.8665 5.55459 24.9947 9.68277 24.9947 14.775C24.989 19.8649 20.8642 23.9897 15.7743 23.9954ZM25.6143 23.4157L29.1954 26.9195L27.8918 28.2232L24.3106 24.7225L25.6143 23.4157ZM30.2571 29.2553C30.0832 29.4289 29.8474 29.526 29.6015 29.5251C29.3558 29.524 29.1209 29.425 28.9484 29.2499L28.7708 29.0772L30.0745 27.7732L30.2588 27.9516C30.6184 28.3115 30.6184 28.8948 30.2588 29.2547L30.2571 29.2553Z" fill="#33334F"/>
<path d="M20.3518 12.3807C20.2061 12.3078 20.0372 12.296 19.8825 12.3475C19.7277 12.3993 19.6 12.5101 19.5271 12.6562L17.6989 16.3116L16.3503 12.7147C16.2605 12.4741 16.0309 12.3146 15.7743 12.3146C15.5177 12.3146 15.0938 12.306 15.004 12.5466L13.8496 16.3116L12.0246 12.6562C11.8729 12.3523 11.5037 12.229 11.1998 12.3807C10.8959 12.5326 10.7727 12.9018 10.9243 13.2057L13.3831 18.1232C13.4908 18.3435 13.7205 18.4774 13.9653 18.4625C14.2098 18.4499 14.4234 18.2934 14.5092 18.0644L15.7743 14.6816L17.0425 18.0624C17.1283 18.2917 17.3419 18.4482 17.5864 18.4608H17.6185C17.8526 18.462 18.067 18.3303 18.1717 18.1209L20.6304 13.2032C20.7801 12.8993 20.6557 12.5312 20.3518 12.3807Z" fill="#33334F"/>
<path fill-rule="evenodd" clip-rule="evenodd" d="M8.14432 7.14418C12.2505 3.03803 18.8772 2.94157 23.1014 6.92618C27.2685 10.857 27.607 17.3537 23.9098 21.6936L24.5805 22.3643L25.0018 21.9432C25.3351 21.6103 25.8742 21.607 26.2113 21.9365L31.2954 26.9055C31.9017 27.5099 32.1396 28.3924 31.9192 29.2197C31.6991 30.0473 31.054 30.6946 30.2273 30.9175C29.4008 31.1402 28.5181 30.9055 27.9118 30.3017L27.911 30.3008L22.8363 25.3404C22.6712 25.1797 22.5779 24.9599 22.5764 24.7301C22.5752 24.5004 22.6657 24.2791 22.8283 24.1164L23.3641 23.5806L22.6934 22.9099C18.3536 26.6069 11.8569 26.2687 7.92604 22.1015C3.94143 17.8773 4.03819 11.2503 8.14432 7.14418ZM22.4956 22.695C22.4943 22.6926 22.4938 22.6917 22.4938 22.6917ZM22.7645 7.28328C18.7335 3.48087 12.4098 3.57294 8.49145 7.4913C4.57308 11.4097 4.48074 17.7336 8.28315 21.7647C12.0855 25.7957 18.404 26.0722 22.5442 22.389L22.7116 22.24L22.8752 22.3933C22.8884 22.4058 22.8989 22.4182 22.907 22.4292L24.0584 23.5806L23.1755 24.4635C23.1058 24.5332 23.0669 24.6279 23.0673 24.7267C23.0679 24.8255 23.108 24.9198 23.1788 24.9887L28.2576 29.9532C28.7396 30.4337 29.4418 30.6207 30.0995 30.4435C30.7568 30.2663 31.2698 29.7515 31.4448 29.0934C31.62 28.436 31.4311 27.7346 30.9496 27.254L30.9488 27.2532L25.8682 22.2876C25.7235 22.1462 25.4922 22.1474 25.3488 22.2905L24.5804 23.0585L23.4291 21.9071C23.418 21.899 23.4056 21.8886 23.3932 21.8753L23.2399 21.7118L23.3889 21.5443C27.0723 17.4042 26.7956 11.0857 22.7645 7.28328ZM15.7743 5.80004C10.8176 5.80004 6.79934 9.81833 6.79934 14.775C6.79934 19.7315 10.8175 23.7498 15.774 23.7499C20.7286 23.7444 24.7437 19.7293 24.7492 14.7747C24.7491 9.81818 20.7308 5.80004 15.7743 5.80004ZM6.30843 14.775C6.30843 9.54721 10.5465 5.30913 15.7743 5.30913C21.002 5.30913 25.2401 9.54721 25.2401 14.775C25.2343 20.0003 20.9999 24.235 15.7745 24.2408C10.5468 24.2408 6.30843 20.0027 6.30843 14.775ZM14.9685 12.6285C15.0941 12.2923 15.4152 12.0691 15.7743 12.0691C16.1334 12.0691 16.4545 12.2923 16.5801 12.6285L17.7312 15.6984L19.3075 12.5466C19.4095 12.3422 19.5882 12.1871 19.8046 12.1147C20.0207 12.0428 20.2571 12.059 20.4612 12.1609C20.8862 12.3717 21.06 12.8866 20.8506 13.3116L20.8499 13.3129L18.3912 18.2307C18.2448 18.5235 17.9451 18.7076 17.6179 18.7063H17.5737C17.2315 18.6886 16.9327 18.4693 16.8126 18.1484M15.9642 15.1878L16.0042 14.7675L15.7743 14.6816L15.8825 14.7675L15.9642 15.1878ZM14.9685 12.6285L13.8176 15.698L12.2442 12.5466C12.0319 12.1213 11.5153 11.9489 11.0902 12.1611C10.6652 12.3736 10.4925 12.8901 10.7047 13.3153L13.1626 18.231L13.1631 18.232C13.3144 18.5404 13.6359 18.728 13.9791 18.7076M15.7743 12.56C15.6203 12.56 15.4822 12.6558 15.4283 12.8005L13.8817 16.9253L11.8049 12.7658C11.7139 12.5833 11.4921 12.5091 11.3094 12.6003C11.1268 12.6917 11.0529 12.9135 11.144 13.0961L13.6036 18.0153C13.6678 18.1467 13.8046 18.2264 13.9503 18.2175L13.9526 18.2174C14.0995 18.2098 14.2278 18.1158 14.2793 17.9782L15.7739 13.9818L17.2723 17.9762C17.3232 18.1122 17.449 18.2057 17.5935 18.2154H17.6185L17.6196 18.2154C17.7605 18.2161 17.8893 18.1369 17.9521 18.0112L20.4102 13.0947C20.4997 12.9122 20.4252 12.691 20.2429 12.6006C20.1556 12.557 20.0534 12.5494 19.9601 12.5804C19.8671 12.6116 19.7905 12.6781 19.7467 12.7658L17.6667 16.9248L16.1204 12.8009C16.0664 12.6562 15.9283 12.56 15.7743 12.56ZM25.6122 23.0703L29.5445 26.9176L27.8938 28.5683L23.9617 24.7247L25.6122 23.0703ZM25.6164 23.7612L24.6595 24.7203L27.8898 27.878L28.8464 26.9214L25.6164 23.7612ZM30.0717 27.4289L30.4325 27.7781C30.8878 28.2338 30.8878 28.9725 30.4324 29.4282L30.3914 29.4692L30.3862 29.471C30.1712 29.6644 29.8914 29.7716 29.6006 29.7706C29.2905 29.7692 28.9936 29.6445 28.7755 29.4242L28.4213 29.0796L30.0717 27.4289ZM30.0773 28.1176L29.1203 29.0748L29.1233 29.0776C29.2499 29.2061 29.4224 29.2788 29.6026 29.2797C29.7831 29.2802 29.9561 29.2089 30.0837 29.0816L30.1074 29.0579C30.3484 28.793 30.3414 28.3829 30.0865 28.1264L30.0773 28.1176Z" fill="#33334F"/>
</svg>
