<svg width="16" height="17" viewBox="0 0 16 17" fill="none" xmlns="http://www.w3.org/2000/svg">
<path opacity="0.2" d="M4.17578 8.09334V8.30322C4.17578 7.75094 3.72807 7.30322 3.17578 7.30322H2.01562C1.46334 7.30322 1.01562 7.75094 1.01562 8.30322V14.2917C1.01562 14.844 1.46334 15.2917 2.01562 15.2917H3.17578C3.72807 15.2917 4.17578 14.844 4.17578 14.2917V14.0933C4.17578 14.76 4.57578 16.0933 6.17578 16.0933H11.0853C12.0935 16.1349 14.1796 15.793 14.458 14.0933C14.7363 12.3937 15.1093 10.2557 15.261 9.39911C15.4216 8.60502 15.1914 6.99007 12.9858 6.883H9.95669V4.04888C9.95534 3.29646 9.46992 1.8542 7.53908 2.10449C7.50799 2.44265 7.50799 2.8254 7.50799 3.23029C7.508 5.15347 7.50802 7.5762 4.17578 8.09334Z" fill="#B8B8D2"/>
<path d="M8.97065 0.553459C9.53992 0.984259 9.82762 1.72232 9.82762 2.73914V5.15289H13.0596C14.2104 5.15289 15.15 6.12219 15.15 7.3164V7.38292C15.15 7.40192 15.1469 7.4241 15.1439 7.4431L14.2838 13.034C14.1247 14.3771 13.2188 15.15 11.8017 15.15H5.39893C4.24814 15.15 3.30854 14.1807 3.30854 12.9865V6.77473C3.30854 6.58783 3.16163 6.43579 2.98105 6.43579H1.22733C1.04676 6.43579 0.899846 6.58783 0.899846 6.77473V13.3603C0.899846 13.5472 1.04676 13.6992 1.22733 13.6992H2.24039C2.44851 13.6992 2.61684 13.8734 2.61684 14.0888C2.61684 14.3042 2.44851 14.4785 2.24039 14.4785H1.22733C0.633575 14.4785 0.149999 13.978 0.149999 13.3634V6.77473C0.149999 6.1602 0.633575 5.65971 1.22733 5.65971H2.98105C3.40342 5.65971 3.77069 5.91313 3.9482 6.28057C3.97269 6.26473 4.00023 6.25523 4.03084 6.24573C4.13184 6.21722 6.52217 5.49183 6.52217 3.35683V0.64532C6.52217 0.474267 6.62929 0.325388 6.78538 0.274705C6.83435 0.258867 8.07083 -0.130754 8.97065 0.553459ZM4.22978 6.99013C4.17163 7.00597 4.11348 7.00913 4.05839 6.99646V12.9865C4.05839 13.7499 4.65826 14.3739 5.39893 14.3739H11.8017C12.8423 14.3739 13.4269 13.8924 13.5432 12.9263L14.4002 7.35124V7.3164C14.4002 6.55299 13.8003 5.92896 13.0596 5.92896H9.45116C9.24304 5.92896 9.07471 5.75474 9.07471 5.53934V2.73914C9.07471 1.98207 8.89107 1.45941 8.52686 1.18065C8.13204 0.876559 7.58726 0.905068 7.26895 0.958918V3.35366C7.26895 6.07784 4.35526 6.95528 4.22978 6.99013Z" fill="#9696C0"/>
<path fill-rule="evenodd" clip-rule="evenodd" d="M7.55409 0.00164148C7.10698 0.0161283 6.77077 0.121779 6.73922 0.131984C6.51918 0.20343 6.37217 0.411538 6.37217 0.64532V3.35683C6.37217 4.35984 5.81318 5.03527 5.22512 5.47066C4.69044 5.86653 4.14445 6.05332 4.01603 6.09354C3.79779 5.74455 3.41659 5.50971 2.98105 5.50971H1.22733C0.545914 5.50971 0 6.08226 0 6.77473V13.3634C0 14.0559 0.545914 14.6285 1.22733 14.6285H2.24039C2.53617 14.6285 2.76684 14.3822 2.76684 14.0888C2.76684 13.7955 2.53617 13.5492 2.24039 13.5492H1.22733C1.13442 13.5492 1.04985 13.4692 1.04985 13.3603V6.77473C1.04985 6.66578 1.13442 6.58579 1.22733 6.58579H2.98105C3.07397 6.58579 3.15854 6.66578 3.15854 6.77473V12.9865C3.15854 14.2588 4.16062 15.3 5.39893 15.3H11.8017C12.5374 15.3 13.1553 15.099 13.6118 14.7098C14.0684 14.3205 14.3489 13.7551 14.4325 13.0543L15.292 7.46695C15.292 7.46677 15.2919 7.46713 15.292 7.46695C15.2951 7.44738 15.3 7.41465 15.3 7.38292V7.3164C15.3 6.04411 14.2979 5.00289 13.0596 5.00289H9.97762V2.73914C9.97762 1.69686 9.68226 0.90394 9.06129 0.433941C8.57344 0.063063 8.00012 -0.0128102 7.55409 0.00164148ZM7.5638 0.301484C7.97317 0.28822 8.46792 0.359626 8.87986 0.67286C9.39734 1.06447 9.67762 1.74785 9.67762 2.73914V5.30289H13.0596C14.1229 5.30289 15 6.20028 15 7.3164V7.38292C15 7.3889 14.9988 7.40075 14.9958 7.41925L14.9956 7.4203L14.1348 13.0163C14.0588 13.6573 13.807 14.1491 13.4172 14.4815C13.0266 14.8145 12.4831 15 11.8017 15H5.39893C4.33566 15 3.45854 14.1026 3.45854 12.9865V6.77473C3.45854 6.50989 3.24929 6.28579 2.98105 6.28579H1.22733C0.959094 6.28579 0.749846 6.50989 0.749846 6.77473V13.3603C0.749846 13.6251 0.959094 13.8492 1.22733 13.8492H2.24039C2.36085 13.8492 2.46684 13.9514 2.46684 14.0888C2.46684 14.2263 2.36085 14.3285 2.24039 14.3285H1.22733C0.721237 14.3285 0.3 13.9 0.3 13.3634V6.77473C0.3 6.23814 0.721236 5.80971 1.22733 5.80971H2.98105C3.34131 5.80971 3.65861 6.02596 3.81314 6.34582L3.88704 6.49879L4.02967 6.40652C4.03513 6.40299 4.0447 6.39854 4.07369 6.38949C4.14462 6.36916 4.77976 6.17368 5.40364 5.71177C6.036 5.24358 6.67217 4.48882 6.67217 3.35683V0.64532C6.67217 0.536997 6.73956 0.447292 6.83171 0.417373C6.84912 0.41174 7.15548 0.314714 7.5638 0.301484ZM7.41895 1.08911C7.72556 1.0541 8.1365 1.06933 8.43533 1.29949C8.74373 1.53553 8.92471 1.9986 8.92471 2.73914V5.53934C8.92471 5.83268 9.15538 6.07896 9.45116 6.07896H13.0596C13.7124 6.07896 14.2502 6.6307 14.2502 7.3164V7.33978L13.3942 12.9084C13.3393 13.3645 13.1769 13.6867 12.9233 13.897C12.6681 14.1086 12.3003 14.2239 11.8017 14.2239H5.39893C4.74614 14.2239 4.20839 13.6722 4.20839 12.9865V7.14793C4.22898 7.14469 4.24929 7.14028 4.2692 7.13485C4.34149 7.11478 5.12201 6.88004 5.88706 6.29992C6.65475 5.7178 7.41895 4.77767 7.41895 3.35366V1.08911ZM8.6182 1.06167C8.17032 0.716849 7.56922 0.755987 7.24393 0.81102L7.11896 0.832163V3.35366C7.11896 4.65384 6.42631 5.51452 5.70579 6.06087C4.9842 6.60803 4.24608 6.82985 4.19001 6.8455C4.15141 6.85596 4.1188 6.85644 4.09201 6.85028L3.90839 6.80805V12.9865C3.90839 13.8276 4.57038 14.5239 5.39893 14.5239H11.8017C12.3437 14.5239 12.7885 14.3985 13.1148 14.1279C13.4422 13.8563 13.6301 13.4556 13.6918 12.9467L14.5502 7.3627V7.3164C14.5502 6.47528 13.8882 5.77896 13.0596 5.77896H9.45116C9.3307 5.77896 9.22471 5.6768 9.22471 5.53934V2.73914C9.22471 1.96564 9.0381 1.38317 8.6182 1.06167Z" fill="#9696C0"/>
</svg>
