<svg width="24" height="24" viewBox="0 0 24 24" fill="none" xmlns="http://www.w3.org/2000/svg">
<ellipse cx="12" cy="12" rx="12" ry="12" fill="#0077B5"/>
<path fill-rule="evenodd" clip-rule="evenodd" d="M8.60451 7.90175C8.60451 8.52964 8.08738 9.03778 7.27868 9.03778C6.50149 9.03778 5.98436 8.52964 6.00036 7.90175C5.98436 7.24334 6.50147 6.75 7.29417 6.75C8.08737 6.75 8.58901 7.24334 8.60451 7.90175ZM6.06538 17.2489V9.93523H8.52399V17.2485L6.06538 17.2489Z" fill="white"/>
<path fill-rule="evenodd" clip-rule="evenodd" d="M10.4941 12.2694C10.4941 11.3571 10.4616 10.5794 10.4291 9.93629H12.5646L12.6782 10.9382H12.7267C13.0503 10.4745 13.859 9.77215 15.1693 9.77215C16.7867 9.77215 18 10.7593 18 12.9121V17.25H15.5414V13.1969C15.5414 12.2541 15.1858 11.6114 14.2961 11.6114C13.6164 11.6114 13.2123 12.0451 13.0508 12.4636C12.9858 12.6134 12.9537 12.8224 12.9537 13.0323V17.25H10.4951L10.4941 12.2694Z" fill="white"/>
</svg>
