<svg fill="none" height="40" viewBox="0 0 40 40" width="40" xmlns="http://www.w3.org/2000/svg">
  <path
    d="M24.5088 23.909C24.5487 23.8531 24.5949 23.8013 24.645 23.7543C26.5376 21.9806 27.7188 19.4665 27.7188 16.6784C27.7188 11.3056 23.3325 6.9502 17.9219 6.9502C12.5112 6.9502 8.125 11.3056 8.125 16.6784C8.125 16.8204 8.12807 16.9618 8.13414 17.1023C8.13432 17.1065 8.13296 17.1107 8.13032 17.114C8.12696 17.1181 8.12572 17.1236 8.12695 17.1288C8.12979 17.1408 8.13264 17.1529 8.13551 17.165C8.13681 17.1705 8.1376 17.1761 8.13789 17.1817C8.19102 18.2169 8.40711 19.2093 8.76118 20.1342C8.78251 20.19 8.7994 20.2468 8.81097 20.3054C9.35165 23.0406 9.90625 26.4417 9.90625 28.6175C9.90625 32.5972 9.90625 36.1347 13.4688 37.4613C17.0312 38.7879 21.0391 37.0191 21.4844 32.155C21.8418 28.2504 22.7732 26.3405 24.5088 23.909Z"
    fill="#B8B8D2" opacity="0.2"/>
  <path
    d="M25.2695 12.6348C25.2695 6.77076 20.4988 2 14.6348 2C8.77076 2 4 6.77076 4 12.6348C4 15.3226 4.4999 17.9949 4.9833 20.5791C5.45052 23.0768 5.93359 25.6595 5.93359 28.168C5.93359 31.9351 8.96953 35 12.7012 35C16.4328 35 19.4687 31.9351 19.4687 28.168C19.4687 27.6879 19.4187 27.1676 19.3312 26.7406C18.8595 24.4353 20.5574 21.752 22.1547 20.1546C24.1633 18.146 25.2695 15.4754 25.2695 12.6348ZM17.4369 27.1283C17.4984 27.4289 17.5352 27.8175 17.5352 28.168C17.5352 30.8689 15.3666 33.0664 12.7012 33.0664C10.0357 33.0664 7.86719 30.8689 7.86719 28.168C7.86719 25.4801 7.36729 22.8079 6.88389 20.2236C6.41667 17.726 5.93359 15.1433 5.93359 12.6348C5.93359 7.83694 9.83694 3.93359 14.6348 3.93359C19.4326 3.93359 23.3359 7.83694 23.3359 12.6348C23.3359 14.9589 22.4309 17.144 20.7875 18.7874C18.7579 20.817 16.8119 24.074 17.4369 27.1283Z"
    fill="#B8B8D2"/>
  <path
    d="M15.8991 5.98288C11.6503 5.20473 7.86719 8.4551 7.86719 12.6346C7.86719 14.9619 8.31217 17.3268 8.78436 19.8362C8.93601 20.6418 9.09283 21.4749 9.23353 22.3049C9.51848 23.9842 10.9412 25.203 12.6166 25.203C14.2453 25.203 15.6592 24.0439 15.9786 22.4468C15.981 22.1497 17.1451 19.0291 14.7262 16.0785C13.5069 14.5912 11.7368 13.7031 9.82837 13.6097C9.81038 13.2816 9.80078 12.9567 9.80078 12.6346C9.80078 9.72025 12.428 7.313 15.5508 7.88482C19.3447 8.57963 20.7936 13.3108 18.0531 16.0536L19.421 17.4203C23.2268 13.6112 21.2729 6.96701 15.8991 5.98288ZM13.2309 17.3043C15.0049 19.4681 14.0889 21.7366 14.0825 22.0676C13.9432 22.764 13.3268 23.2694 12.6166 23.2694C11.8876 23.2694 11.2666 22.7277 11.14 21.9816C10.9963 21.1344 10.8378 20.2926 10.6836 19.473C10.4306 18.1282 10.1854 16.8252 10.0179 15.5633C11.2711 15.6989 12.4211 16.3165 13.2309 17.3043Z"
    fill="#B8B8D2"/>
  <path d="M37 17.4688H27.2676V19.4023H37V17.4688Z" fill="#B8B8D2"/>
  <path d="M28.6651 25.3044L27.8005 27.0338L35.5341 30.9006L36.3988 29.1713L28.6651 25.3044Z" fill="#B8B8D2"/>
  <path d="M35.5363 5.97012L27.8026 9.83696L28.6673 11.5663L36.401 7.69947L35.5363 5.97012Z" fill="#B8B8D2"/>
  <path
    d="M25.2695 12.6348C25.2695 6.77076 20.4988 2 14.6348 2C8.77076 2 4 6.77076 4 12.6348C4 15.3226 4.4999 17.9949 4.9833 20.5791C5.45052 23.0768 5.93359 25.6595 5.93359 28.168C5.93359 31.9351 8.96953 35 12.7012 35C16.4328 35 19.4687 31.9351 19.4687 28.168C19.4687 27.6879 19.4187 27.1676 19.3312 26.7406C18.8595 24.4353 20.5574 21.752 22.1547 20.1546C24.1633 18.146 25.2695 15.4754 25.2695 12.6348ZM17.4369 27.1283C17.4984 27.4289 17.5352 27.8175 17.5352 28.168C17.5352 30.8689 15.3666 33.0664 12.7012 33.0664C10.0357 33.0664 7.86719 30.8689 7.86719 28.168C7.86719 25.4801 7.36729 22.8079 6.88389 20.2236C6.41667 17.726 5.93359 15.1433 5.93359 12.6348C5.93359 7.83694 9.83694 3.93359 14.6348 3.93359C19.4326 3.93359 23.3359 7.83694 23.3359 12.6348C23.3359 14.9589 22.4309 17.144 20.7875 18.7874C18.7579 20.817 16.8119 24.074 17.4369 27.1283Z"
    stroke="#B8B8D2" stroke-width="0.6"/>
  <path
    d="M15.8991 5.98288C11.6503 5.20473 7.86719 8.4551 7.86719 12.6346C7.86719 14.9619 8.31217 17.3268 8.78436 19.8362C8.93601 20.6418 9.09283 21.4749 9.23353 22.3049C9.51848 23.9842 10.9412 25.203 12.6166 25.203C14.2453 25.203 15.6592 24.0439 15.9786 22.4468C15.981 22.1497 17.1451 19.0291 14.7262 16.0785C13.5069 14.5912 11.7368 13.7031 9.82837 13.6097C9.81038 13.2816 9.80078 12.9567 9.80078 12.6346C9.80078 9.72025 12.428 7.313 15.5508 7.88482C19.3447 8.57963 20.7936 13.3108 18.0531 16.0536L19.421 17.4203C23.2268 13.6112 21.2729 6.96701 15.8991 5.98288ZM13.2309 17.3043C15.0049 19.4681 14.0889 21.7366 14.0825 22.0676C13.9432 22.764 13.3268 23.2694 12.6166 23.2694C11.8876 23.2694 11.2666 22.7277 11.14 21.9816C10.9963 21.1344 10.8378 20.2926 10.6836 19.473C10.4306 18.1282 10.1854 16.8252 10.0179 15.5633C11.2711 15.6989 12.4211 16.3165 13.2309 17.3043Z"
    stroke="#B8B8D2" stroke-width="0.6"/>
  <path d="M37 17.4688H27.2676V19.4023H37V17.4688Z" stroke="#B8B8D2" stroke-width="0.6"/>
  <path d="M28.6651 25.3044L27.8005 27.0338L35.5341 30.9006L36.3988 29.1713L28.6651 25.3044Z" stroke="#B8B8D2"
        stroke-width="0.6"/>
  <path d="M35.5363 5.97012L27.8026 9.83696L28.6673 11.5663L36.401 7.69947L35.5363 5.97012Z" stroke="#B8B8D2"
        stroke-width="0.6"/>
</svg>
