<svg width="35" height="37" viewBox="0 0 35 37" fill="none" xmlns="http://www.w3.org/2000/svg">
<path opacity="0.2" d="M21.5088 22.9092C21.5487 22.8534 21.5949 22.8015 21.645 22.7546C23.5376 20.9809 24.7188 18.4667 24.7188 15.6786C24.7188 10.3059 20.3325 5.95044 14.9219 5.95044C9.51121 5.95044 5.125 10.3059 5.125 15.6786C5.125 15.8207 5.12807 15.962 5.13414 16.1026C5.13432 16.1068 5.13296 16.1109 5.13032 16.1142C5.12696 16.1184 5.12572 16.1239 5.12695 16.1291C5.12979 16.141 5.13264 16.1531 5.13551 16.1652C5.13681 16.1707 5.1376 16.1763 5.13789 16.182C5.19102 17.2171 5.40711 18.2096 5.76118 19.1345C5.78251 19.1902 5.7994 19.2471 5.81097 19.3056C6.35165 22.0409 6.90625 25.442 6.90625 27.6177C6.90625 31.5975 6.90625 35.135 10.4688 36.4615C14.0312 37.7881 18.0391 36.0194 18.4844 31.1553C18.8418 27.2507 19.7732 25.3407 21.5088 22.9092Z" fill="#B8B8D2"/>
<path d="M22.2695 11.6348C22.2695 5.77076 17.4988 1 11.6348 1C5.77076 1 1 5.77076 1 11.6348C1 14.3226 1.4999 16.9949 1.9833 19.5791C2.45052 22.0768 2.93359 24.6595 2.93359 27.168C2.93359 30.9351 5.96953 34 9.70117 34C13.4328 34 16.4687 30.9351 16.4687 27.168C16.4687 26.6879 16.4187 26.1676 16.3312 25.7406C15.8595 23.4353 17.5574 20.752 19.1547 19.1546C21.1633 17.146 22.2695 14.4754 22.2695 11.6348ZM14.4369 26.1283C14.4984 26.4289 14.5352 26.8175 14.5352 27.168C14.5352 29.8689 12.3666 32.0664 9.70117 32.0664C7.03571 32.0664 4.86719 29.8689 4.86719 27.168C4.86719 24.4801 4.36729 21.8079 3.88389 19.2236C3.41667 16.726 2.93359 14.1433 2.93359 11.6348C2.93359 6.83694 6.83694 2.93359 11.6348 2.93359C16.4326 2.93359 20.3359 6.83694 20.3359 11.6348C20.3359 13.9589 19.4309 16.144 17.7875 17.7874C15.7579 19.817 13.8119 23.074 14.4369 26.1283Z" fill="#B8B8D2"/>
<path d="M12.8991 4.98288C8.65033 4.20473 4.86719 7.4551 4.86719 11.6346C4.86719 13.9619 5.31217 16.3268 5.78436 18.8362C5.93601 19.6418 6.09283 20.4749 6.23353 21.3049C6.51848 22.9842 7.94121 24.203 9.61661 24.203C11.2453 24.203 12.6592 23.0439 12.9786 21.4468C12.981 21.1497 14.1451 18.0291 11.7262 15.0785C10.5069 13.5912 8.73682 12.7031 6.82837 12.6097C6.81038 12.2816 6.80078 11.9567 6.80078 11.6346C6.80078 8.72025 9.42795 6.313 12.5508 6.88482C16.3447 7.57963 17.7936 12.3108 15.0531 15.0536L16.421 16.4203C20.2268 12.6112 18.2729 5.96701 12.8991 4.98288ZM10.2309 16.3043C12.0049 18.4681 11.0889 20.7366 11.0825 21.0676C10.9432 21.764 10.3268 22.2694 9.61661 22.2694C8.88758 22.2694 8.26657 21.7277 8.13999 20.9816C7.99632 20.1344 7.83783 19.2926 7.6836 18.473C7.43055 17.1282 7.18537 15.8252 7.01786 14.5633C8.27109 14.6989 9.42106 15.3165 10.2309 16.3043Z" fill="#B8B8D2"/>
<path d="M34 16.4688H24.2676V18.4023H34V16.4688Z" fill="#B8B8D2"/>
<path d="M25.6651 24.3044L24.8005 26.0338L32.5341 29.9006L33.3988 28.1713L25.6651 24.3044Z" fill="#B8B8D2"/>
<path d="M32.5363 4.97012L24.8026 8.83696L25.6673 10.5663L33.401 6.69947L32.5363 4.97012Z" fill="#B8B8D2"/>
<path d="M22.2695 11.6348C22.2695 5.77076 17.4988 1 11.6348 1C5.77076 1 1 5.77076 1 11.6348C1 14.3226 1.4999 16.9949 1.9833 19.5791C2.45052 22.0768 2.93359 24.6595 2.93359 27.168C2.93359 30.9351 5.96953 34 9.70117 34C13.4328 34 16.4687 30.9351 16.4687 27.168C16.4687 26.6879 16.4187 26.1676 16.3312 25.7406C15.8595 23.4353 17.5574 20.752 19.1547 19.1546C21.1633 17.146 22.2695 14.4754 22.2695 11.6348ZM14.4369 26.1283C14.4984 26.4289 14.5352 26.8175 14.5352 27.168C14.5352 29.8689 12.3666 32.0664 9.70117 32.0664C7.03571 32.0664 4.86719 29.8689 4.86719 27.168C4.86719 24.4801 4.36729 21.8079 3.88389 19.2236C3.41667 16.726 2.93359 14.1433 2.93359 11.6348C2.93359 6.83694 6.83694 2.93359 11.6348 2.93359C16.4326 2.93359 20.3359 6.83694 20.3359 11.6348C20.3359 13.9589 19.4309 16.144 17.7875 17.7874C15.7579 19.817 13.8119 23.074 14.4369 26.1283Z" stroke="#B8B8D2" stroke-width="0.6"/>
<path d="M12.8991 4.98288C8.65033 4.20473 4.86719 7.4551 4.86719 11.6346C4.86719 13.9619 5.31217 16.3268 5.78436 18.8362C5.93601 19.6418 6.09283 20.4749 6.23353 21.3049C6.51848 22.9842 7.94121 24.203 9.61661 24.203C11.2453 24.203 12.6592 23.0439 12.9786 21.4468C12.981 21.1497 14.1451 18.0291 11.7262 15.0785C10.5069 13.5912 8.73682 12.7031 6.82837 12.6097C6.81038 12.2816 6.80078 11.9567 6.80078 11.6346C6.80078 8.72025 9.42795 6.313 12.5508 6.88482C16.3447 7.57963 17.7936 12.3108 15.0531 15.0536L16.421 16.4203C20.2268 12.6112 18.2729 5.96701 12.8991 4.98288ZM10.2309 16.3043C12.0049 18.4681 11.0889 20.7366 11.0825 21.0676C10.9432 21.764 10.3268 22.2694 9.61661 22.2694C8.88758 22.2694 8.26657 21.7277 8.13999 20.9816C7.99632 20.1344 7.83783 19.2926 7.6836 18.473C7.43055 17.1282 7.18537 15.8252 7.01786 14.5633C8.27109 14.6989 9.42106 15.3165 10.2309 16.3043Z" stroke="#B8B8D2" stroke-width="0.6"/>
<path d="M34 16.4688H24.2676V18.4023H34V16.4688Z" stroke="#B8B8D2" stroke-width="0.6"/>
<path d="M25.6651 24.3044L24.8005 26.0338L32.5341 29.9006L33.3988 28.1713L25.6651 24.3044Z" stroke="#B8B8D2" stroke-width="0.6"/>
<path d="M32.5363 4.97012L24.8026 8.83696L25.6673 10.5663L33.401 6.69947L32.5363 4.97012Z" stroke="#B8B8D2" stroke-width="0.6"/>
</svg>
