<svg width="60" height="60" viewBox="0 0 60 60" fill="none" xmlns="http://www.w3.org/2000/svg">
<circle cx="30.0002" cy="30" r="30" fill="#70DFEE"/>
<path d="M23.6716 29.4375C22.9115 28.5098 21.8304 27.9288 20.6534 27.802C20.8104 28.9869 21.041 30.2118 21.2787 31.4747C21.425 32.2517 21.5723 33.0366 21.708 33.8313C21.8268 34.532 22.4104 35.041 23.0951 35.041C23.8573 35.041 24.3237 34.4954 24.537 33.7237C24.895 32.428 24.5393 30.4951 23.6716 29.4375Z" fill="white"/>
<path d="M34.9807 25.0508C34.9807 19.5422 30.4991 15 24.9905 15C19.4819 15 15.0002 19.5422 15.0002 25.0508C15.0002 27.5767 15.4703 30.0716 15.9244 32.4841C16.3625 34.8157 16.8167 37.2264 16.8167 39.582C16.8167 43.0872 19.669 46 23.1741 46C26.6792 46 29.5315 43.0872 29.5315 39.582C29.5315 39.1537 29.488 38.7235 29.4029 38.3022C28.9594 36.1364 30.5541 33.6157 32.0548 32.115C33.9412 30.2286 34.9807 27.7195 34.9807 25.0508ZM29.4863 29.5466L28.202 28.2623C29.3159 27.1475 29.7603 25.6051 29.4224 24.03C29.0552 22.3218 27.5865 20.9071 25.8508 20.5887C22.9143 20.0584 20.4495 22.3082 20.4495 25.0508C20.4495 25.3532 20.4583 25.6583 20.4752 25.967C22.2685 26.0548 23.9315 26.8885 25.0765 28.2854C27.3229 31.0263 26.2554 34.0082 26.2534 34.2685C25.9537 35.7683 24.6251 36.8574 23.0951 36.8574C21.5217 36.8574 20.1851 35.7124 19.9164 34.1355C19.7842 33.3523 19.6388 32.578 19.4942 31.8127C19.0508 29.4588 18.6331 27.237 18.6331 25.0508C18.6331 21.1073 22.2085 18.0715 26.178 18.8025C28.6552 19.2557 30.6729 21.2033 31.198 23.6486C31.6619 25.8056 31.0215 28.0104 29.4863 29.5466Z" fill="white"/>
<path d="M46.0002 29.5918H36.8577V31.4082H46.0002V29.5918Z" fill="white"/>
<path d="M38.1711 36.9531L37.3588 38.5776L44.6237 42.2101L45.436 40.5856L38.1711 36.9531Z" fill="white"/>
<path d="M44.6248 18.7895L37.3598 22.422L38.1721 24.0465L45.437 20.414L44.6248 18.7895Z" fill="white"/>
</svg>
