<svg fill="none" height="25" viewBox="0 0 30 25" width="30" xmlns="http://www.w3.org/2000/svg">
<path d="M16.8801 3.40759H2.41145C1.07915 3.40759 0 4.48669 0 5.81905V20.2877C0 21.62 1.0791 22.6991 2.41145 22.6991H16.8801C18.2124 22.6991 19.2915 21.62 19.2915 20.2877V5.81905C19.2915 4.48669 18.2124 3.40759 16.8801 3.40759Z" fill="#E1E5FF"/>
<path d="M27.3158 5.81996L13.4505 1.68522C12.1738 1.30449 10.8313 2.03019 10.4505 3.30698L6.31579 17.1722C5.93505 18.449 6.66076 19.7915 7.93755 20.1722L21.8028 24.307C23.0795 24.6877 24.422 23.962 24.8028 22.6852L28.9375 8.81997C29.3183 7.54318 28.5925 6.20069 27.3158 5.81996Z" fill="#3654FF"/>
<path d="M13.5856 13.8881L8.74106 17.4762L22.6063 21.6109L19.7074 14.4555L14.9974 17.7188L13.5856 13.8881Z" fill="white"/>
</svg>
