<svg width="14" height="14" viewBox="0 0 14 14" fill="none" xmlns="http://www.w3.org/2000/svg">
<path d="M7.00026 0C4.2045 0 1.92999 2.27451 1.92999 5.07024C1.92999 8.53984 6.46739 13.6334 6.66057 13.8485C6.84202 14.0506 7.15883 14.0503 7.33995 13.8485C7.53314 13.6334 12.0705 8.53984 12.0705 5.07024C12.0705 2.27451 9.79599 0 7.00026 0ZM7.00026 7.62122C5.59364 7.62122 4.44931 6.47686 4.44931 5.07024C4.44931 3.66362 5.59367 2.51929 7.00026 2.51929C8.40685 2.51929 9.55119 3.66365 9.55119 5.07027C9.55119 6.47689 8.40685 7.62122 7.00026 7.62122Z" fill="#33334F"/>
</svg>
