<svg width="20" height="20" viewBox="0 0 20 20" fill="none" xmlns="http://www.w3.org/2000/svg">
<path d="M12.0833 11.8333L14.5 13.25L13.8333 14.3333L10.8333 12.5V8.33329H12.0833V11.8333ZM18.3333 11.6666C18.3333 15.3416 15.3416 18.3333 11.6666 18.3333C9.98329 18.3333 8.44996 17.7 7.27496 16.6666H3.33329C2.37496 16.6666 1.66663 15.9583 1.66663 15V7.49996C1.66663 6.56663 2.40829 5.86663 3.33329 5.83329V5.41663C3.33329 3.34163 5.00829 1.66663 7.08329 1.66663C9.03329 1.66663 10.6166 3.15829 10.8 5.06663C11.0833 5.02496 11.375 4.99996 11.6666 4.99996C15.3416 4.99996 18.3333 7.99163 18.3333 11.6666ZM4.99996 5.83329H9.16663V5.21663C9.06663 4.15829 8.16663 3.33329 7.08329 3.33329C5.93329 3.33329 4.99996 4.26663 4.99996 5.41663V5.83329ZM16.6666 11.6666C16.6666 8.90829 14.425 6.66663 11.6666 6.66663C8.90829 6.66663 6.66663 8.90829 6.66663 11.6666C6.66663 14.425 8.90829 16.6666 11.6666 16.6666C14.425 16.6666 16.6666 14.425 16.6666 11.6666Z" fill="#ADADB9"/>
</svg>
