<svg width="20" height="20" viewBox="0 0 20 20" fill="none" xmlns="http://www.w3.org/2000/svg">
<path d="M16.8316 10.864H6.82586C6.3489 10.864 5.96223 10.4774 5.96223 10.0004C5.96223 9.52345 6.3489 9.13678 6.82586 9.13678H16.8316L15.715 8.02021C15.3777 7.68299 15.3777 7.13614 15.715 6.79886C16.0522 6.46158 16.599 6.46158 16.9364 6.79886L19.5271 9.38959C19.5471 9.40957 19.566 9.43047 19.584 9.45235C19.5884 9.4577 19.5921 9.46346 19.5964 9.46893C19.6095 9.48568 19.6225 9.5025 19.6344 9.52023C19.6378 9.52541 19.6406 9.53088 19.644 9.53612C19.6559 9.55466 19.6675 9.57337 19.678 9.59289C19.68 9.59675 19.6817 9.60084 19.6837 9.60469C19.6946 9.62582 19.7051 9.64724 19.7142 9.66935C19.7154 9.67206 19.7162 9.67494 19.7173 9.6777C19.7267 9.70096 19.7354 9.72451 19.7427 9.74875C19.7437 9.7518 19.7442 9.75497 19.7451 9.75808C19.752 9.78185 19.7584 9.80586 19.7633 9.83045C19.7648 9.83776 19.7654 9.8453 19.7667 9.85267C19.7703 9.87305 19.7739 9.89344 19.7759 9.91422C19.7788 9.94272 19.7803 9.97151 19.7803 10.0004C19.7803 10.0293 19.7788 10.0581 19.7759 10.0867C19.7739 10.1077 19.7702 10.1283 19.7667 10.1488C19.7654 10.156 19.7648 10.1633 19.7633 10.1704C19.7584 10.1952 19.752 10.2194 19.745 10.2434C19.7442 10.2463 19.7436 10.2493 19.7428 10.2521C19.7354 10.2764 19.7267 10.3002 19.7172 10.3237C19.7161 10.3262 19.7154 10.3289 19.7143 10.3315C19.7051 10.3538 19.6945 10.3753 19.6835 10.3965C19.6816 10.4003 19.68 10.4042 19.6781 10.4079C19.6675 10.4276 19.6558 10.4465 19.6437 10.4652C19.6405 10.4702 19.6378 10.4756 19.6344 10.4805C19.6225 10.4983 19.6094 10.5153 19.5963 10.5321C19.5921 10.5375 19.5884 10.5432 19.584 10.5485C19.566 10.5703 19.5471 10.5913 19.5272 10.6112L16.9364 13.202C16.7678 13.3707 16.5467 13.455 16.3257 13.455C16.1047 13.455 15.8836 13.3707 15.7151 13.202C15.3778 12.8647 15.3778 12.3179 15.7151 11.9806L16.8316 10.864Z" fill="#9999A7"/>
<path d="M7.84488 2.93555C10.2022 2.93555 12.3955 4.10503 13.712 6.06381C13.978 6.45965 13.8727 6.99625 13.4769 7.26231C13.081 7.52831 12.5445 7.42318 12.2784 7.02723C11.2834 5.54667 9.62604 4.66276 7.84488 4.66276C4.90189 4.66282 2.50755 7.05711 2.50755 10.0002C2.50755 12.9432 4.90189 15.3375 7.84488 15.3375C9.6208 15.3375 11.2754 14.4576 12.2712 12.9837C12.5382 12.5885 13.075 12.4846 13.4703 12.7516C13.8655 13.0186 13.9695 13.5555 13.7024 13.9507C12.385 15.9006 10.1953 17.0648 7.84488 17.0648C3.94947 17.0648 0.780273 13.8956 0.780273 10.0002C0.780273 6.10469 3.94947 2.93555 7.84488 2.93555Z" fill="#9999A7"/>
</svg>
