<svg width="180" height="38" viewBox="0 0 180 38" fill="none" xmlns="http://www.w3.org/2000/svg">
<g clip-path="url(#clip0)">
<path d="M9.43631 29.134C6.74363 29.134 4.49178 28.2288 2.68077 26.4184C0.89359 24.6081 0 22.3808 0 19.7367C0 17.0688 0.89359 14.8416 2.68077 13.0551C4.49178 11.2447 6.74363 10.3395 9.43631 10.3395C11.1758 10.3395 12.7605 10.7564 14.1902 11.5901C15.62 12.4238 16.6923 13.5434 17.4071 14.9488L14.083 16.8783C13.6779 16.0207 13.0583 15.3538 12.2243 14.8774C11.4141 14.3771 10.4729 14.127 9.40057 14.127C7.82785 14.127 6.50533 14.663 5.43303 15.7349C4.38455 16.8068 3.86031 18.1408 3.86031 19.7367C3.86031 21.3327 4.38455 22.6667 5.43303 23.7386C6.50533 24.8105 7.82785 25.3465 9.40057 25.3465C10.449 25.3465 11.3903 25.0964 12.2243 24.5961C13.0822 24.0959 13.7255 23.4289 14.1545 22.5952L17.4786 24.489C16.7161 25.9182 15.62 27.0497 14.1902 27.8834C12.7605 28.7171 11.1758 29.134 9.43631 29.134Z" fill="#292940"/>
<path d="M60.1562 10.3395C62.2055 10.3395 63.8616 10.9946 65.1245 12.3047C66.3875 13.6149 67.019 15.4133 67.019 17.7001V28.6695H63.1586V18.0931C63.1586 16.7592 62.8012 15.7349 62.0863 15.0203C61.3715 14.3057 60.3945 13.9483 59.1554 13.9483C57.7971 13.9483 56.701 14.3771 55.867 15.2347C55.0329 16.0684 54.6159 17.3547 54.6159 19.0936V28.6695H50.7556V10.804H54.6159V13.0908C55.7836 11.2566 57.6303 10.3395 60.1562 10.3395Z" fill="#292940"/>
<path d="M81.9411 10.804H86.1588L79.1888 28.6695H74.7209L67.7509 10.804H71.9686L76.9727 24.3818L81.9411 10.804Z" fill="#292940"/>
<path d="M95.2684 29.134C92.6472 29.134 90.4192 28.2288 88.5844 26.4184C86.7495 24.6081 85.8321 22.3808 85.8321 19.7367C85.8321 17.0927 86.7495 14.8654 88.5844 13.0551C90.4192 11.2447 92.6472 10.3395 95.2684 10.3395C97.9134 10.3395 100.141 11.2447 101.952 13.0551C103.787 14.8654 104.705 17.0927 104.705 19.7367C104.705 22.3808 103.787 24.6081 101.952 26.4184C100.141 28.2288 97.9134 29.134 95.2684 29.134ZM91.3009 23.7743C92.3732 24.8463 93.6957 25.3822 95.2684 25.3822C96.8411 25.3822 98.1636 24.8463 99.236 23.7743C100.308 22.7024 100.844 21.3565 100.844 19.7367C100.844 18.1169 100.308 16.7711 99.236 15.6992C98.1636 14.6272 96.8411 14.0913 95.2684 14.0913C93.6957 14.0913 92.3732 14.6272 91.3009 15.6992C90.2286 16.7711 89.6924 18.1169 89.6924 19.7367C89.6924 21.3565 90.2286 22.7024 91.3009 23.7743Z" fill="#292940"/>
<path d="M110.241 15.7349C110.241 16.3304 110.563 16.8068 111.206 17.1641C111.873 17.4976 112.672 17.7954 113.601 18.0574C114.554 18.2956 115.507 18.5815 116.46 18.9149C117.414 19.2484 118.212 19.8201 118.855 20.63C119.522 21.4161 119.856 22.4166 119.856 23.6314C119.856 25.3465 119.189 26.6924 117.854 27.669C116.544 28.6456 114.888 29.134 112.886 29.134C111.123 29.134 109.61 28.7647 108.347 28.0263C107.084 27.2879 106.166 26.2636 105.594 24.9535L108.919 23.024C109.538 24.7391 110.861 25.5966 112.886 25.5966C114.912 25.5966 115.924 24.9296 115.924 23.5957C115.924 23.024 115.591 22.5595 114.923 22.2022C114.28 21.8449 113.482 21.5471 112.529 21.3089C111.599 21.0469 110.658 20.7491 109.705 20.4156C108.752 20.0821 107.942 19.5343 107.274 18.772C106.631 17.9859 106.309 16.9974 106.309 15.8064C106.309 14.1627 106.929 12.8407 108.168 11.8402C109.431 10.8398 110.992 10.3395 112.85 10.3395C114.328 10.3395 115.638 10.673 116.782 11.34C117.95 11.9832 118.843 12.8883 119.463 14.0555L116.21 15.8778C115.591 14.52 114.471 13.8412 112.85 13.8412C112.112 13.8412 111.492 14.0079 110.992 14.3414C110.491 14.6511 110.241 15.1156 110.241 15.7349Z" fill="#292940"/>
<path d="M125.614 7.4096C125.137 7.88601 124.565 8.12422 123.898 8.12422C123.231 8.12422 122.647 7.88601 122.146 7.4096C121.67 6.90937 121.432 6.32576 121.432 5.65879C121.432 4.99181 121.67 4.42012 122.146 3.94371C122.623 3.44348 123.207 3.19336 123.898 3.19336C124.589 3.19336 125.173 3.44348 125.649 3.94371C126.126 4.42012 126.364 4.99181 126.364 5.65879C126.364 6.32576 126.114 6.90937 125.614 7.4096ZM121.968 28.6695V10.804H125.828V28.6695H121.968Z" fill="#292940"/>
<path d="M143.464 10.804H147.253V27.8477C147.253 30.5632 146.359 32.6475 144.572 34.1005C142.785 35.5536 140.616 36.2801 138.067 36.2801C133.944 36.2801 131.12 34.839 129.595 31.9567L132.92 30.0272C133.849 31.8614 135.588 32.7785 138.138 32.7785C139.806 32.7785 141.105 32.3378 142.034 31.4565C142.987 30.5989 143.464 29.396 143.464 27.8477V25.6681C142.01 27.7405 139.937 28.7767 137.245 28.7767C134.719 28.7767 132.586 27.8834 130.846 26.0968C129.107 24.2865 128.237 22.1069 128.237 19.5581C128.237 17.0093 129.107 14.8416 130.846 13.0551C132.586 11.2447 134.719 10.3395 137.245 10.3395C139.937 10.3395 142.01 11.3757 143.464 13.4481V10.804ZM133.706 23.5599C134.802 24.6319 136.16 25.1678 137.781 25.1678C139.401 25.1678 140.747 24.6319 141.82 23.5599C142.916 22.488 143.464 21.1541 143.464 19.5581C143.464 17.9621 142.916 16.6282 141.82 15.5562C140.747 14.4843 139.401 13.9483 137.781 13.9483C136.16 13.9483 134.802 14.4843 133.706 15.5562C132.634 16.6282 132.097 17.9621 132.097 19.5581C132.097 21.1541 132.634 22.488 133.706 23.5599Z" fill="#292940"/>
<path d="M160.08 10.3395C162.13 10.3395 163.786 10.9946 165.049 12.3047C166.312 13.6149 166.943 15.4133 166.943 17.7001V28.6695H163.083V18.0931C163.083 16.7592 162.725 15.7349 162.011 15.0203C161.296 14.3057 160.319 13.9483 159.08 13.9483C157.721 13.9483 156.625 14.3771 155.791 15.2347C154.957 16.0684 154.54 17.3547 154.54 19.0936V28.6695H150.68V3.65786H154.54V13.0908C155.708 11.2566 157.555 10.3395 160.08 10.3395Z" fill="#292940"/>
<path d="M180 14.52H175.568V23.0954C175.568 23.8339 175.735 24.3698 176.068 24.7033C176.402 25.013 176.89 25.1917 177.534 25.2393C178.201 25.2631 179.023 25.2512 180 25.2036V28.6695C177.045 29.0268 174.924 28.7767 173.638 27.9191C172.351 27.0378 171.707 25.4299 171.707 23.0954V14.52H168.419V10.804H171.707V6.9451L175.568 5.80171V10.804H180V14.52Z" fill="#292940"/>
<ellipse cx="33.4706" cy="18.7253" rx="14.3437" ry="14.3386" fill="#00C389"/>
<rect x="27.4902" y="16.6953" width="2.53433" height="8.86699" rx="1.26717" fill="white"/>
<rect x="37.627" y="14.1621" width="2.53433" height="11.4004" rx="1.26717" fill="white"/>
<rect x="32.5586" y="10.3613" width="2.53432" height="15.2005" rx="1.26716" fill="white"/>
<path fill-rule="evenodd" clip-rule="evenodd" d="M19.687 10.3842C23.8743 2.8958 33.3415 0.218526 40.8326 4.40435L41.999 2.31836C33.3555 -2.51144 22.4318 0.577717 17.6003 9.21819L19.687 10.3842Z" fill="#00C389"/>
<path fill-rule="evenodd" clip-rule="evenodd" d="M47.2827 26.8267C43.0954 34.3151 33.6282 36.9924 26.1371 32.8066L24.9707 34.8926C33.6143 39.7224 44.538 36.6332 49.3695 27.9928L47.2827 26.8267Z" fill="#00C389"/>
</g>
<defs>
<clipPath id="clip0">
<rect width="180" height="37.623" fill="white"/>
</clipPath>
</defs>
</svg>
