<svg width="87" height="18" viewBox="0 0 87 18" fill="none"
     xmlns="http://www.w3.org/2000/svg">
  <path d="M4.56088 13.9386C3.25942 13.9386 2.17103 13.5056 1.29571 12.6394C0.431902 11.7733 0 10.7077 0 9.44271C0 8.1663 0.431902 7.10073 1.29571 6.24599C2.17103 5.37985 3.25942 4.94679 4.56088 4.94679C5.40165 4.94679 6.16756 5.14622 6.8586 5.5451C7.54964 5.94398 8.06792 6.47962 8.41345 7.15201L6.80677 8.07513C6.61098 7.66485 6.31152 7.34575 5.90842 7.11782C5.51683 6.87849 5.06189 6.75883 4.54361 6.75883C3.78346 6.75883 3.14425 7.01525 2.62596 7.52809C2.1192 8.04094 1.86582 8.67914 1.86582 9.44271C1.86582 10.2063 2.1192 10.8445 2.62596 11.3573C3.14425 11.8702 3.78346 12.1266 4.54361 12.1266C5.05037 12.1266 5.50531 12.0069 5.90842 11.7676C6.32304 11.5283 6.63401 11.2092 6.84132 10.8103L8.448 11.7163C8.07944 12.4001 7.54964 12.9414 6.8586 13.3403C6.16756 13.7392 5.40165 13.9386 4.56088 13.9386Z"
        fill="#9999A7"/>
  <path d="M29.0755 4.94679C30.066 4.94679 30.8664 5.26019 31.4769 5.887C32.0873 6.51381 32.3925 7.37424 32.3925 8.46831V13.7164H30.5267V8.65635C30.5267 8.01815 30.3539 7.5281 30.0084 7.1862C29.6629 6.8443 29.1907 6.67336 28.5918 6.67336C27.9353 6.67336 27.4055 6.87849 27.0024 7.28877C26.5993 7.68765 26.3977 8.30306 26.3977 9.135V13.7164H24.5319V5.16902H26.3977V6.26308C26.9621 5.38555 27.8546 4.94679 29.0755 4.94679Z"
        fill="#9999A7"/>
  <path d="M39.6049 5.16902H41.6434L38.2746 13.7164H36.1151L32.7463 5.16902H34.7848L37.2035 11.665L39.6049 5.16902Z"
        fill="#9999A7"/>
  <path d="M46.0464 13.9386C44.7795 13.9386 43.7026 13.5056 42.8158 12.6394C41.9289 11.7733 41.4855 10.7077 41.4855 9.44271C41.4855 8.1777 41.9289 7.11212 42.8158 6.24599C43.7026 5.37985 44.7795 4.94679 46.0464 4.94679C47.3248 4.94679 48.4017 5.37985 49.277 6.24599C50.1639 7.11212 50.6073 8.1777 50.6073 9.44271C50.6073 10.7077 50.1639 11.7733 49.277 12.6394C48.4017 13.5056 47.3248 13.9386 46.0464 13.9386ZM44.1288 11.3744C44.647 11.8873 45.2863 12.1437 46.0464 12.1437C46.8065 12.1437 47.4458 11.8873 47.964 11.3744C48.4823 10.8616 48.7415 10.2177 48.7415 9.44271C48.7415 8.66775 48.4823 8.02384 47.964 7.511C47.4458 6.99816 46.8065 6.74174 46.0464 6.74174C45.2863 6.74174 44.647 6.99816 44.1288 7.511C43.6105 8.02384 43.3513 8.66775 43.3513 9.44271C43.3513 10.2177 43.6105 10.8616 44.1288 11.3744Z"
        fill="#9999A7"/>
  <path d="M53.2832 7.52809C53.2832 7.81301 53.4387 8.04094 53.7496 8.21189C54.0721 8.37144 54.458 8.51389 54.9071 8.63926C55.3678 8.75322 55.8285 8.88998 56.2892 9.04953C56.7499 9.20908 57.1357 9.4826 57.4467 9.87008C57.7692 10.2462 57.9304 10.7248 57.9304 11.306C57.9304 12.1266 57.608 12.7705 56.963 13.2377C56.3295 13.705 55.5291 13.9386 54.5616 13.9386C53.7093 13.9386 52.978 13.762 52.3675 13.4087C51.7571 13.0554 51.3137 12.5654 51.0373 11.9385L52.644 11.0154C52.9434 11.836 53.5826 12.2463 54.5616 12.2463C55.5406 12.2463 56.0301 11.9271 56.0301 11.2889C56.0301 11.0154 55.8688 10.7932 55.5463 10.6222C55.2354 10.4513 54.8495 10.3088 54.3888 10.1949C53.9397 10.0695 53.4847 9.92706 53.024 9.76751C52.5633 9.60796 52.1718 9.34584 51.8493 8.98115C51.5383 8.60507 51.3828 8.13211 51.3828 7.56228C51.3828 6.77593 51.6823 6.14342 52.2812 5.66477C52.8916 5.18611 53.646 4.94679 54.5443 4.94679C55.2584 4.94679 55.8919 5.10634 56.4447 5.42544C57.0091 5.73314 57.441 6.16621 57.7404 6.72464L56.1683 7.59647C55.8688 6.94687 55.3275 6.62207 54.5443 6.62207C54.1873 6.62207 53.8878 6.70185 53.646 6.8614C53.4041 7.00955 53.2832 7.23179 53.2832 7.52809Z"
        fill="#9999A7"/>
  <path d="M60.7132 3.54502C60.4829 3.77294 60.2065 3.88691 59.884 3.88691C59.5615 3.88691 59.2793 3.77294 59.0375 3.54502C58.8071 3.30569 58.6919 3.02647 58.6919 2.70737C58.6919 2.38827 58.8071 2.11475 59.0375 1.88682C59.2678 1.6475 59.55 1.52783 59.884 1.52783C60.218 1.52783 60.5002 1.6475 60.7305 1.88682C60.9609 2.11475 61.076 2.38827 61.076 2.70737C61.076 3.02647 60.9551 3.30569 60.7132 3.54502ZM58.9511 13.7164V5.16902H60.8169V13.7164H58.9511Z"
        fill="#9999A7"/>
  <path d="M69.3409 5.16902H71.1721V13.3232C71.1721 14.6224 70.7402 15.6196 69.8764 16.3148C69.0126 17.01 67.9646 17.3576 66.7322 17.3576C64.7397 17.3576 63.3749 16.6681 62.6378 15.2891L64.2444 14.366C64.6936 15.2435 65.5344 15.6823 66.7667 15.6823C67.573 15.6823 68.2007 15.4715 68.6498 15.0498C69.1105 14.6395 69.3409 14.064 69.3409 13.3232V12.2804C68.6383 13.2719 67.6363 13.7677 66.3348 13.7677C65.114 13.7677 64.0832 13.3403 63.2424 12.4856C62.4017 11.6194 61.9813 10.5767 61.9813 9.35724C61.9813 8.13781 62.4017 7.10073 63.2424 6.24599C64.0832 5.37985 65.114 4.94679 66.3348 4.94679C67.6363 4.94679 68.6383 5.44253 69.3409 6.43403V5.16902ZM64.6245 11.2718C65.1543 11.7847 65.8108 12.0411 66.594 12.0411C67.3772 12.0411 68.0279 11.7847 68.5462 11.2718C69.076 10.759 69.3409 10.1208 69.3409 9.35724C69.3409 8.59367 69.076 7.95546 68.5462 7.44262C68.0279 6.92978 67.3772 6.67336 66.594 6.67336C65.8108 6.67336 65.1543 6.92978 64.6245 7.44262C64.1062 7.95546 63.8471 8.59367 63.8471 9.35724C63.8471 10.1208 64.1062 10.759 64.6245 11.2718Z"
        fill="#9999A7"/>
  <path d="M77.3722 4.94679C78.3627 4.94679 79.1632 5.26019 79.7736 5.887C80.384 6.51381 80.6892 7.37424 80.6892 8.46831V13.7164H78.8234V8.65635C78.8234 8.01815 78.6507 7.5281 78.3051 7.1862C77.9596 6.8443 77.4874 6.67336 76.8885 6.67336C76.232 6.67336 75.7022 6.87849 75.2991 7.28877C74.896 7.68765 74.6944 8.30306 74.6944 9.135V13.7164H72.8286V1.75006H74.6944V6.26308C75.2588 5.38555 76.1514 4.94679 77.3722 4.94679Z"
        fill="#9999A7"/>
  <path d="M87 6.94687H84.8578V11.0496C84.8578 11.4029 84.9384 11.6593 85.0996 11.8189C85.2609 11.967 85.497 12.0525 85.8079 12.0753C86.1304 12.0867 86.5278 12.081 87 12.0582V13.7164C85.5718 13.8873 84.5468 13.7677 83.9249 13.3574C83.3029 12.9357 82.992 12.1665 82.992 11.0496V6.94687H81.4026V5.16902H82.992V3.32278L84.8578 2.77575V5.16902H87V6.94687Z"
        fill="#9999A7"/>
  <path fill-rule="evenodd" clip-rule="evenodd"
        d="M19.7358 2.10687C16.1151 0.104244 11.5393 1.38513 9.51541 4.96782L8.50682 4.40996C10.8421 0.276092 16.1218 -1.20186 20.2996 1.10887L19.7358 2.10687ZM16.1775 15.8194C20.0063 15.8194 23.1102 12.7481 23.1102 8.95942C23.1102 5.17073 20.0063 2.0994 16.1775 2.0994C12.3486 2.0994 9.24467 5.17073 9.24467 8.95942C9.24467 12.7481 12.3486 15.8194 16.1775 15.8194ZM22.8534 12.8347C20.8295 16.4174 16.2537 17.6983 12.633 15.6956L12.0692 16.6936C16.2469 19.0044 21.5267 17.5264 23.862 13.3925L22.8534 12.8347ZM13.8997 7.98777C13.5614 7.98777 13.2872 8.26198 13.2872 8.60024V11.6176C13.2872 11.9558 13.5614 12.23 13.8997 12.23C14.238 12.23 14.5122 11.9558 14.5122 11.6176V8.60024C14.5122 8.26198 14.238 7.98777 13.8997 7.98777ZM18.1866 7.38824C18.1866 7.04998 18.4608 6.77577 18.7991 6.77577C19.1373 6.77577 19.4115 7.04998 19.4115 7.38824V11.6176C19.4115 11.9559 19.1373 12.2301 18.7991 12.2301C18.4608 12.2301 18.1866 11.9559 18.1866 11.6176V7.38824ZM16.3494 4.95744C16.0111 4.95744 15.7369 5.23164 15.7369 5.5699V11.6174C15.7369 11.9556 16.0111 12.2299 16.3494 12.2299C16.6876 12.2299 16.9618 11.9556 16.9618 11.6174V5.5699C16.9618 5.23164 16.6876 4.95744 16.3494 4.95744Z"
        fill="#9999A7"/>
</svg>
