<svg width="151" height="43" viewBox="0 0 151 43" fill="none" xmlns="http://www.w3.org/2000/svg">
<path d="M7.89446 30.4007C5.64175 30.4007 3.75784 29.6431 2.24275 28.128C0.747582 26.6129 0 24.749 0 22.5361C0 20.3034 0.747582 18.4394 2.24275 16.9442C3.75784 15.4291 5.64175 14.6716 7.89446 14.6716C9.34976 14.6716 10.6755 15.0204 11.8716 15.7182C13.0677 16.4159 13.9648 17.3529 14.5629 18.5291L11.7819 20.1439C11.443 19.4262 10.9247 18.868 10.2269 18.4693C9.54911 18.0506 8.76166 17.8413 7.86456 17.8413C6.54882 17.8413 5.4424 18.2899 4.5453 19.187C3.66813 20.0841 3.22955 21.2005 3.22955 22.5361C3.22955 23.8718 3.66813 24.9882 4.5453 25.8853C5.4424 26.7824 6.54882 27.2309 7.86456 27.2309C8.74172 27.2309 9.52918 27.0216 10.2269 26.603C10.9446 26.1843 11.4829 25.6261 11.8417 24.9284L14.6227 26.5133C13.9848 27.7094 13.0677 28.6563 11.8716 29.3541C10.6755 30.0518 9.34976 30.4007 7.89446 30.4007Z" fill="white"/>
<path d="M50.327 14.6716C52.0414 14.6716 53.4269 15.2198 54.4835 16.3163C55.5401 17.4127 56.0684 18.9178 56.0684 20.8316V30.012H52.8388V21.1606C52.8388 20.0442 52.5398 19.187 51.9417 18.5889C51.3437 17.9908 50.5263 17.6918 49.4897 17.6918C48.3534 17.6918 47.4363 18.0506 46.7386 18.7683C46.0408 19.4661 45.692 20.5426 45.692 21.9979V30.012H42.4624V15.0603H45.692V16.9741C46.6688 15.4391 48.2138 14.6716 50.327 14.6716Z" fill="white"/>
<path d="M68.5523 15.0603H72.0809L66.2498 30.012H62.5119L56.6807 15.0603H60.2093L64.3958 26.4236L68.5523 15.0603Z" fill="white"/>
<path d="M79.702 30.4007C77.5091 30.4007 75.6452 29.6431 74.1101 28.128C72.5751 26.6129 71.8076 24.749 71.8076 22.5361C71.8076 20.3233 72.5751 18.4593 74.1101 16.9442C75.6452 15.4291 77.5091 14.6716 79.702 14.6716C81.9149 14.6716 83.7788 15.4291 85.2939 16.9442C86.829 18.4593 87.5965 20.3233 87.5965 22.5361C87.5965 24.749 86.829 26.6129 85.2939 28.128C83.7788 29.6431 81.9149 30.4007 79.702 30.4007ZM76.3828 25.9152C77.2799 26.8123 78.3863 27.2609 79.702 27.2609C81.0178 27.2609 82.1242 26.8123 83.0213 25.9152C83.9184 25.0181 84.3669 23.8917 84.3669 22.5361C84.3669 21.1805 83.9184 20.0542 83.0213 19.1571C82.1242 18.26 81.0178 17.8114 79.702 17.8114C78.3863 17.8114 77.2799 18.26 76.3828 19.1571C75.4857 20.0542 75.0371 21.1805 75.0371 22.5361C75.0371 23.8917 75.4857 25.0181 76.3828 25.9152Z" fill="white"/>
<path d="M92.2282 19.187C92.2282 19.6854 92.4974 20.0841 93.0356 20.3831C93.5938 20.6622 94.2616 20.9114 95.0391 21.1307C95.8365 21.33 96.634 21.5693 97.4314 21.8484C98.2288 22.1275 98.8967 22.6059 99.4349 23.2837C99.9931 23.9416 100.272 24.7789 100.272 25.7956C100.272 27.2309 99.714 28.3573 98.5976 29.1747C97.5012 29.992 96.1156 30.4007 94.4411 30.4007C92.9658 30.4007 91.6999 30.0917 90.6433 29.4737C89.5868 28.8557 88.8192 27.9985 88.3408 26.902L91.1218 25.2872C91.6401 26.7226 92.7465 27.4403 94.4411 27.4403C96.1356 27.4403 96.9828 26.8821 96.9828 25.7657C96.9828 25.2872 96.7037 24.8985 96.1455 24.5995C95.6073 24.3004 94.9394 24.0512 94.142 23.8519C93.3645 23.6326 92.5771 23.3834 91.7797 23.1043C90.9823 22.8252 90.3044 22.3667 89.7463 21.7287C89.208 21.0709 88.9389 20.2435 88.9389 19.2468C88.9389 17.8712 89.4572 16.7648 90.4938 15.9275C91.5504 15.0902 92.8562 14.6716 94.4112 14.6716C95.6472 14.6716 96.7436 14.9507 97.7005 15.5089C98.6774 16.0471 99.4249 16.8047 99.9433 17.7815L97.2221 19.3066C96.7037 18.1703 95.7668 17.6021 94.4112 17.6021C93.7932 17.6021 93.2748 17.7416 92.8562 18.0207C92.4375 18.2799 92.2282 18.6686 92.2282 19.187Z" fill="white"/>
<path d="M105.089 12.2195C104.69 12.6182 104.212 12.8176 103.654 12.8176C103.095 12.8176 102.607 12.6182 102.188 12.2195C101.79 11.8009 101.59 11.3124 101.59 10.7542C101.59 10.196 101.79 9.7176 102.188 9.31889C102.587 8.90024 103.075 8.69092 103.654 8.69092C104.232 8.69092 104.72 8.90024 105.119 9.31889C105.518 9.7176 105.717 10.196 105.717 10.7542C105.717 11.3124 105.508 11.8009 105.089 12.2195ZM102.039 30.012V15.0603H105.268V30.012H102.039Z" fill="white"/>
<path d="M120.023 15.0603H123.192V29.3242C123.192 31.5968 122.445 33.3412 120.95 34.5572C119.454 35.7733 117.64 36.3813 115.507 36.3813C112.058 36.3813 109.696 35.1752 108.42 32.7631L111.201 31.1483C111.979 32.6833 113.434 33.4508 115.567 33.4508C116.963 33.4508 118.049 33.082 118.826 32.3444C119.624 31.6267 120.023 30.62 120.023 29.3242V27.5001C118.807 29.2345 117.072 30.1017 114.819 30.1017C112.706 30.1017 110.922 29.3541 109.467 27.8589C108.011 26.3438 107.284 24.5197 107.284 22.3866C107.284 20.2535 108.011 18.4394 109.467 16.9442C110.922 15.4291 112.706 14.6716 114.819 14.6716C117.072 14.6716 118.807 15.5388 120.023 17.2732V15.0603ZM111.859 25.7358C112.776 26.6329 113.912 27.0814 115.268 27.0814C116.624 27.0814 117.75 26.6329 118.647 25.7358C119.564 24.8387 120.023 23.7223 120.023 22.3866C120.023 21.0509 119.564 19.9345 118.647 19.0375C117.75 18.1404 116.624 17.6918 115.268 17.6918C113.912 17.6918 112.776 18.1404 111.859 19.0375C110.962 19.9345 110.513 21.0509 110.513 22.3866C110.513 23.7223 110.962 24.8387 111.859 25.7358Z" fill="white"/>
<path d="M133.924 14.6716C135.639 14.6716 137.024 15.2198 138.081 16.3163C139.137 17.4127 139.666 18.9178 139.666 20.8316V30.012H136.436V21.1606C136.436 20.0442 136.137 19.187 135.539 18.5889C134.941 17.9908 134.123 17.6918 133.087 17.6918C131.951 17.6918 131.033 18.0506 130.336 18.7683C129.638 19.4661 129.289 20.5426 129.289 21.9979V30.012H126.06V9.07966H129.289V16.9741C130.266 15.4391 131.811 14.6716 133.924 14.6716Z" fill="white"/>
<path d="M150.589 18.1703H146.881V25.347C146.881 25.965 147.02 26.4136 147.3 26.6927C147.579 26.9518 147.987 27.1014 148.526 27.1412C149.084 27.1612 149.772 27.1512 150.589 27.1113V30.012C148.117 30.311 146.343 30.1017 145.266 29.384C144.19 28.6464 143.651 27.3007 143.651 25.347V18.1703H140.9V15.0603H143.651V11.8308L146.881 10.8739V15.0603H150.589V18.1703Z" fill="white"/>
<circle cx="28" cy="21.6909" r="12" fill="#00C389"/>
<rect x="23" y="19.9912" width="2.12023" height="7.42081" rx="1.06012" fill="white"/>
<rect x="31.481" y="17.8711" width="2.12023" height="9.54104" rx="1.06012" fill="white"/>
<rect x="27.2405" y="14.6904" width="2.12023" height="12.7214" rx="1.06012" fill="white"/>
<path fill-rule="evenodd" clip-rule="evenodd" d="M16.4674 14.7088C19.9706 8.44175 27.8909 6.20114 34.1579 9.70427L35.1338 7.9585C27.9026 3.91642 18.7637 6.50175 14.7217 13.733L16.4674 14.7088Z" fill="#00C389"/>
<path fill-rule="evenodd" clip-rule="evenodd" d="M39.5592 28.4694C36.0561 34.7365 28.1357 36.9771 21.8687 33.474L20.8928 35.2197C28.1241 39.2618 37.2629 36.6765 41.305 29.4452L39.5592 28.4694Z" fill="#00C389"/>
</svg>
