<svg width="126" height="82" viewBox="0 0 126 82" fill="none" xmlns="http://www.w3.org/2000/svg">
<path fill-rule="evenodd" clip-rule="evenodd" d="M7.35333 50.5554C7.35333 50.5554 8.35518 57.7965 0 57.6293C0 57.6293 7.17739 57.7032 6.98839 64.4979C6.98839 64.4979 7.63452 59.153 14.2196 57.9591C14.2196 57.9591 8.65482 59.251 7.35333 50.5554Z" fill="#91A8F6"/>
<path fill-rule="evenodd" clip-rule="evenodd" d="M118.129 18.6667C118.129 18.6667 118.942 24.7256 112.171 24.5857C112.171 24.5857 117.987 24.6482 117.835 30.3334C117.835 30.3334 118.357 25.8607 123.695 24.8616C123.695 24.8616 119.185 25.9434 118.129 18.6667Z" fill="#91A8F6"/>
<path fill-rule="evenodd" clip-rule="evenodd" d="M82.9159 75.3984C81.4477 75.3984 80.2537 76.6079 80.2537 78.0942C80.2537 79.5798 81.4477 80.7884 82.9159 80.7884H99.2137C100.682 80.7884 101.877 79.5798 101.877 78.0942C101.877 76.6079 100.682 75.3984 99.2137 75.3984H97.3329L97.2576 74.9217C96.9749 73.1188 95.2838 71.8596 93.4008 72.3138L92.989 72.4133L92.7823 72.0392C91.9449 70.5202 90.3606 69.5768 88.6466 69.5768C86.0367 69.5768 83.9131 71.7266 83.9131 74.3687C83.9131 74.5094 83.9231 74.6471 83.9346 74.784L83.9869 75.3984H82.9159ZM99.2137 81.9217H82.9159C80.8307 81.9217 79.1343 80.2043 79.1343 78.0942C79.1343 76.0238 80.7662 74.3329 82.7953 74.2676C82.849 71.0476 85.4535 68.4443 88.6466 68.4443C90.6288 68.4443 92.4719 69.4648 93.5475 71.1339C95.7433 70.8166 97.7047 72.215 98.261 74.266H99.2137C101.299 74.266 102.995 75.9833 102.995 78.0942C102.995 80.2043 101.299 81.9217 99.2137 81.9217Z" fill="#91A8F6"/>
<path fill-rule="evenodd" clip-rule="evenodd" d="M56.4537 14.7493C54.9854 14.7493 53.7915 15.9588 53.7915 17.4443C53.7915 18.9307 54.9854 20.1393 56.4537 20.1393H72.7515C74.2204 20.1393 75.4136 18.9307 75.4136 17.4443C75.4136 15.9588 74.2204 14.7493 72.7515 14.7493H70.8707L70.7954 14.2718C70.5127 12.4697 68.8216 11.2104 66.9386 11.6647L66.5267 11.7642L66.3201 11.3901C65.4826 9.87032 63.8984 8.92766 62.1844 8.92766C59.5745 8.92766 57.4509 11.0774 57.4509 13.7195C57.4509 13.8595 57.4601 13.998 57.4724 14.1341L57.5239 14.7493H56.4537ZM72.7515 21.2718H56.4537C54.3693 21.2718 52.6729 19.5552 52.6729 17.4443C52.6729 15.3747 54.304 13.683 56.333 13.6184C56.3868 10.3984 58.9913 7.79443 62.1844 7.79443C64.1673 7.79443 66.0097 8.81488 67.0853 10.484C69.2811 10.1674 71.2433 11.5659 71.7988 13.6169H72.7515C74.8366 13.6169 76.533 15.3342 76.533 17.4443C76.533 19.5552 74.8366 21.2718 72.7515 21.2718Z" fill="#91A8F6"/>
<path fill-rule="evenodd" clip-rule="evenodd" d="M42.5939 61.397L50.4712 69.9494L110.515 44.5962L42.5939 61.397Z" fill="#445EEA"/>
<path fill-rule="evenodd" clip-rule="evenodd" d="M45.3955 33.1763L39.465 42.2335L43.4748 51.1095L34.4796 52.658L26.5308 70.3237L112.442 44.006L45.3955 33.1763Z" fill="#91A8F6"/>
<path fill-rule="evenodd" clip-rule="evenodd" d="M43.4747 51.1092L39.465 42.2332L85.999 44.4358L43.4747 51.1092Z" fill="#445EEA"/>
</svg>
