<svg width="40" height="40" viewBox="0 0 40 40" fill="none" xmlns="http://www.w3.org/2000/svg">
<path fill-rule="evenodd" clip-rule="evenodd" d="M21.896 24.47L21.1652 24.6342C21.0383 24.6628 20.9408 24.683 20.8603 24.6991L23.4042 27.2811C24.4155 28.2756 24.65 29.837 24.0094 31.0949L24.0064 31.1009L22.7157 33.6094C22.3251 34.4035 21.6288 34.9888 20.8055 35.2565C20.5937 35.3254 20.3763 35.3714 20.1573 35.3957C19.0358 35.5241 17.9363 35.073 17.2279 34.1977L17.2208 34.1889L11.8731 27.4847C11.0515 27.5267 10.2612 27.1488 9.77659 26.4908L8.79684 26.8094C7.51048 27.2277 6.12786 26.5239 5.70949 25.2374L4.15282 20.4505C3.73445 19.164 4.43859 17.7815 5.72495 17.3632L6.7047 17.0446C6.71087 16.0177 7.36757 15.0647 8.39749 14.7297L16.3093 12.1568C16.4259 12.1118 16.5045 12.0751 16.6108 12.0255C16.7057 11.9813 16.8227 11.9267 17.0085 11.8467L17.7039 11.5472L18.3846 11.1692C21.6248 9.37012 24.1785 6.50727 25.5437 3.03461L25.5721 2.96225L25.6074 2.89297C25.6284 2.85166 25.6501 2.81354 25.6715 2.77861C25.8471 2.45273 26.0922 2.17528 26.3884 1.9597L26.3999 1.95128C26.4854 1.8902 26.5628 1.84654 26.6094 1.82166C26.6136 1.81892 26.6181 1.81601 26.6228 1.81301C26.6881 1.77131 26.8466 1.67279 27.0662 1.60137C27.2597 1.53843 27.4293 1.51564 27.5453 1.50563C27.5585 1.50449 27.5713 1.5035 27.5836 1.50263C27.6538 1.49113 27.7303 1.48329 27.8121 1.48141L27.8365 1.48085L27.8609 1.48103C27.9584 1.48174 28.0466 1.49119 28.1234 1.5044C28.5389 1.55764 28.8911 1.71539 29.1683 1.89932C29.2739 1.96861 29.3536 2.03416 29.4095 2.08298C29.6662 2.30203 29.9841 2.65237 30.1535 3.17344L36.8991 23.9164C37.0721 24.4485 37.0153 24.9276 36.9338 25.2565L36.9305 25.2697L36.927 25.2828C36.9205 25.3071 36.8998 25.3879 36.868 25.4811L36.8639 25.4929L36.8597 25.5048C36.7408 25.8358 36.543 26.1742 36.2382 26.4612C36.1856 26.5151 36.1224 26.5725 36.0474 26.6285C36.0451 26.6302 36.0427 26.6319 36.0404 26.6336C35.8359 26.7854 35.5986 26.9154 35.327 27.0037C34.9668 27.1209 34.6253 27.1381 34.3349 27.1118L34.3095 27.1095L34.2841 27.1063C34.1705 27.0924 34.0779 27.0694 34.0152 27.0514C33.9978 27.0464 33.9815 27.0414 33.9667 27.0367C33.8239 27.0015 33.6566 26.9476 33.4813 26.8617C33.4147 26.8328 33.3352 26.793 33.2503 26.7387C30.1045 24.7346 26.3569 23.9232 22.6788 24.374L21.896 24.47ZM34.1184 25.3818C34.1207 25.3832 34.1231 25.3843 34.1257 25.3852L34.1332 25.3874C34.1389 25.389 34.145 25.3906 34.1507 25.3942C34.2268 25.4383 34.3115 25.4654 34.3984 25.483C34.4107 25.4859 34.4226 25.4902 34.4343 25.4945C34.4497 25.5001 34.4648 25.5056 34.4805 25.5075C34.595 25.5179 34.7123 25.5097 34.8288 25.4719C34.9198 25.4423 35.0039 25.3973 35.0834 25.3379C35.0845 25.3371 35.0853 25.3361 35.0861 25.3349C35.0869 25.3337 35.0876 25.3324 35.0883 25.331C35.0896 25.3284 35.091 25.3257 35.0931 25.3242C35.2116 25.2274 35.2927 25.1022 35.3436 24.9604C35.3544 24.9287 35.3615 24.9016 35.3702 24.8688C35.4069 24.721 35.417 24.5678 35.3672 24.4146L28.6216 3.6716C28.5718 3.51842 28.4735 3.40044 28.3569 3.30248C28.3321 3.28055 28.3105 3.26288 28.2815 3.2441C28.1574 3.16094 28.0177 3.1058 27.8649 3.09725C27.8623 3.09723 27.8597 3.09589 27.857 3.09454C27.8544 3.0932 27.8517 3.09185 27.8491 3.09183C27.8403 3.09203 27.833 3.09529 27.8257 3.09856C27.8184 3.10182 27.811 3.10508 27.8023 3.10528L27.7767 3.10606C27.7065 3.10808 27.6355 3.11012 27.5643 3.13326C27.5278 3.14514 27.4972 3.1655 27.4661 3.18617C27.4511 3.19618 27.4359 3.20627 27.4199 3.2155C27.4095 3.22151 27.3991 3.22679 27.3887 3.23204C27.371 3.24099 27.3534 3.24987 27.3363 3.26211C27.2136 3.35142 27.1204 3.46641 27.0605 3.60234C27.0584 3.60656 27.055 3.60986 27.0517 3.61315C27.0483 3.61644 27.045 3.61973 27.0428 3.62396C25.5374 7.45346 22.7252 10.6016 19.1666 12.5776L22.4828 22.7751C26.523 22.2799 30.6485 23.1703 34.1184 25.3818ZM26.5679 1.84899C26.5667 1.84976 26.5672 1.84947 26.5679 1.84899V1.84899ZM8.89565 16.2616C8.45523 16.4048 8.21403 16.8785 8.35724 17.3189L8.61668 18.1167L6.22312 18.8951C5.7827 19.0383 5.54149 19.512 5.6847 19.9524L7.24138 24.7392C7.38459 25.1796 7.85826 25.4208 8.29868 25.2775L10.6922 24.4992L10.9517 25.297C11.0949 25.7374 11.5686 25.9785 12.009 25.8353L12.4925 25.6781L18.4801 33.1844C18.8429 33.6327 19.4027 33.8618 19.9773 33.7949C20.0915 33.7825 20.202 33.7589 20.3073 33.7246C20.7334 33.5861 21.0837 33.2851 21.2755 32.8875L22.574 30.3639C22.9046 29.7148 22.7725 28.9126 22.2672 28.4223L17.8477 23.9366L19.9668 23.2475C20.1433 23.199 20.3225 23.1631 20.5017 23.1273C20.6052 23.1065 20.7089 23.0858 20.8119 23.0626L17.6456 13.3262C17.5473 13.3685 17.4501 13.4131 17.353 13.4577C17.1857 13.5344 17.0185 13.6112 16.8455 13.6764L8.89565 16.2616Z" fill="#B8B8D2" stroke="#B8B8D2" stroke-width="0.8"/>
</svg>
