<svg width="120" height="120" viewBox="0 0 120 120" fill="none" xmlns="http://www.w3.org/2000/svg">
<g clip-path="url(#clip0_8232_256521)">
<path d="M62.8582 99.9058C62.3017 100.029 61.723 100.102 61.139 100.122L38.266 100.916C33.1245 101.095 28.2267 97.2999 27.1159 92.2766L24.8196 81.8929C23.7553 77.0798 26.5101 72.6635 31.2274 71.6203C31.7839 71.4973 32.3626 71.4246 32.9466 71.4043L55.8199 70.6096C60.9614 70.431 65.8592 74.2261 66.97 79.2494L69.2663 89.6331C70.3303 94.4463 67.5755 98.8626 62.8582 99.9058ZM32.6264 77.9467C31.4247 78.2125 30.8574 79.1886 31.1461 80.4939L33.4423 90.8776C33.8776 92.846 36.0264 94.5111 38.0409 94.4409L60.9142 93.6462C61.1047 93.6396 61.2878 93.6169 61.4591 93.579C62.6608 93.3133 63.2281 92.3371 62.9395 91.0319L60.6432 80.6482C60.2079 78.6798 58.0592 77.0146 56.0446 77.0849L33.1718 77.8798C32.9812 77.8864 32.7978 77.9089 32.6264 77.9467Z" fill="#61B4E4"/>
<path d="M72.1919 28.6147L7.84406 56.2974L15.0116 88.7094L85.0319 86.6782L72.1919 28.6147Z" fill="#005CB9"/>
<path d="M13.2503 80.7448L82.6328 75.8291L81.8239 72.1712L12.4414 77.0869L13.2503 80.7448Z" fill="#1E252B"/>
<path d="M17.7905 89.2713C18.3699 91.8914 16.7154 94.4858 14.0949 95.0652C11.4741 95.6445 8.88037 93.9899 8.30097 91.3698L0.637376 56.7145C0.0579018 54.094 1.71214 51.5 4.33257 50.9206C6.9533 50.341 9.54708 51.9956 10.1266 54.6161L17.7905 89.2713Z" fill="#61B4E4"/>
<path d="M89.7763 85.6284C90.3558 88.2488 88.7012 90.8429 86.0808 91.4224C83.4604 92.0019 80.8666 90.3473 80.2871 87.7268L67.4471 29.6634C66.8676 27.043 68.522 24.4492 71.1424 23.8698C73.7628 23.2903 76.3569 24.9448 76.9363 27.565L89.7763 85.6284Z" fill="#61B4E4"/>
<path d="M103.656 78.7384L101.101 75.1484C108.554 69.8466 112.095 60.6641 110.125 51.7542C108.154 42.841 101.067 36.0073 92.0704 34.3446L92.8709 30.0121C103.612 31.9969 112.073 40.1579 114.427 50.8029C116.78 61.4437 112.552 72.4088 103.656 78.7384Z" fill="#C3C6C8"/>
<path d="M98.4067 71.3403L95.8526 67.7502C100.324 64.5687 102.449 59.059 101.267 53.7133C100.085 48.3653 95.8321 44.2649 90.4333 43.2674L91.2338 38.9349C98.3764 40.2546 104.004 45.6822 105.569 52.762C107.134 59.8382 104.323 67.1308 98.4067 71.3403Z" fill="#C3C6C8"/>
<path d="M93.1555 63.946L90.6055 60.3528C92.0968 59.2945 92.8055 57.4568 92.4107 55.6714C92.016 53.887 90.5999 52.5198 88.8026 52.1881L89.6027 47.8553C93.1442 48.5092 95.9353 51.2038 96.7129 54.72C97.4908 58.2391 96.0944 61.8604 93.1555 63.946Z" fill="#C3C6C8"/>
</g>
<defs>
<clipPath id="clip0_8232_256521">
<rect width="120" height="120" fill="white"/>
</clipPath>
</defs>
</svg>
