<svg width="60" height="60" viewBox="0 0 60 60" fill="none" xmlns="http://www.w3.org/2000/svg">
<circle cx="30.0002" cy="30" r="30" fill="#70DFEE"/>
<path d="M33.8438 32.3077C33.0425 31.87 32.1236 31.6216 31.1467 31.6216H28.825C27.8208 31.6216 26.8781 31.8843 26.0619 32.3444C24.3454 33.3107 23.1861 35.1505 23.1861 37.2605V39H36.7856V37.2605C36.7856 35.1231 35.5964 33.264 33.8438 32.3077Z" fill="white"/>
<path d="M40.2553 30.0763H38.3252C37.1983 30.0763 36.148 30.4094 35.267 30.9834C35.6904 31.2611 36.0882 31.5854 36.455 31.9522C37.8726 33.3698 38.6534 35.2551 38.6534 37.2604V38.0785H45.8774V35.6983C45.8774 32.5984 43.3552 30.0763 40.2553 30.0763Z" fill="white"/>
<path d="M21.5524 30.0763H19.6223C16.5224 30.0763 14.0002 32.5984 14.0002 35.6983V38.0785H21.3183V37.2604C21.3183 35.2551 22.0997 33.3698 23.5173 31.9522C23.8703 31.5991 24.252 31.2854 24.6579 31.0145C23.7676 30.4218 22.6998 30.0763 21.5524 30.0763Z" fill="white"/>
<path d="M39.2873 21.6208C39.2774 21.6208 39.2672 21.6209 39.2572 21.621C37.1679 21.6382 35.4829 23.4441 35.5011 25.6464C35.5192 27.8383 37.2173 29.6094 39.2931 29.6094C39.303 29.6094 39.3132 29.6093 39.3232 29.6092C40.3477 29.6007 41.3037 29.1691 42.0152 28.3938C42.7102 27.6365 43.0881 26.6386 43.0794 25.5838C43.0613 23.3919 41.3632 21.6208 39.2873 21.6208Z" fill="white"/>
<path d="M20.5845 21.6208C20.5746 21.6208 20.5643 21.6209 20.5544 21.621C18.465 21.6382 16.78 23.4441 16.7982 25.6464C16.8163 27.8383 18.5144 29.6094 20.5902 29.6094C20.6002 29.6094 20.6104 29.6093 20.6204 29.6092C21.6448 29.6007 22.6008 29.1691 23.3124 28.3938C24.0074 27.6365 24.3853 26.6386 24.3766 25.5838C24.3584 23.3919 22.6604 21.6208 20.5845 21.6208Z" fill="white"/>
<path d="M29.9862 21C27.5774 21 25.618 23.0701 25.618 25.6153C25.618 27.4545 26.6416 29.0459 28.119 29.7868C28.6856 30.0713 29.3188 30.2301 29.9862 30.2301C30.6536 30.2301 31.2868 30.0713 31.8534 29.7868C33.3308 29.0459 34.3544 27.4545 34.3544 25.6153C34.3544 23.0701 32.395 21 29.9862 21Z" fill="white"/>
</svg>
