<svg width="40" height="40" viewBox="0 0 40 40" fill="none" xmlns="http://www.w3.org/2000/svg">
<circle cx="20" cy="20" r="20" fill="#DDF7CD"/>
<path d="M10.8124 5.5069C10.8769 5.33278 11.1231 5.33278 11.1876 5.5069L11.5083 6.37357C11.5285 6.42831 11.5717 6.47148 11.6264 6.49173L12.4931 6.81243C12.6672 6.87686 12.6672 7.12314 12.4931 7.18757L11.6264 7.50827C11.5717 7.52852 11.5285 7.57169 11.5083 7.62643L11.1876 8.4931C11.1231 8.66722 10.8769 8.66722 10.8124 8.4931L10.4917 7.62643C10.4715 7.57169 10.4283 7.52852 10.3736 7.50827L9.5069 7.18757C9.33278 7.12314 9.33278 6.87686 9.5069 6.81243L10.3736 6.49173C10.4283 6.47148 10.4715 6.42831 10.4917 6.37357L10.8124 5.5069Z" fill="#29A335" fill-opacity="0.2"/>
<path d="M11.7186 28.7604C11.8153 28.4992 12.1847 28.4992 12.2814 28.7604L12.7624 30.0604C12.7928 30.1425 12.8575 30.2072 12.9396 30.2376L14.2396 30.7186C14.5008 30.8153 14.5008 31.1847 14.2396 31.2814L12.9396 31.7624C12.8575 31.7928 12.7928 31.8575 12.7624 31.9396L12.2814 33.2396C12.1847 33.5008 11.8153 33.5008 11.7186 33.2396L11.2376 31.9396C11.2072 31.8575 11.1425 31.7928 11.0604 31.7624L9.76035 31.2814C9.49917 31.1847 9.49917 30.8153 9.76035 30.7186L11.0604 30.2376C11.1425 30.2072 11.2072 30.1425 11.2376 30.0604L11.7186 28.7604Z" fill="#29A335" fill-opacity="0.2"/>
<path d="M28.7186 10.7602C28.8153 10.4991 29.1847 10.4991 29.2814 10.7602L29.7625 12.0603C29.7929 12.1424 29.8576 12.2071 29.9397 12.2375L31.2398 12.7186C31.5009 12.8153 31.5009 13.1847 31.2398 13.2814L29.9397 13.7625C29.8576 13.7929 29.7929 13.8576 29.7625 13.9397L29.2814 15.2398C29.1847 15.5009 28.8153 15.5009 28.7186 15.2398L28.2375 13.9397C28.2071 13.8576 28.1424 13.7929 28.0603 13.7625L26.7602 13.2814C26.4991 13.1847 26.4991 12.8153 26.7602 12.7186L28.0603 12.2375C28.1424 12.2071 28.2071 12.1424 28.2375 12.0603L28.7186 10.7602Z" fill="#29A335" fill-opacity="0.2"/>
<path d="M19.8001 18.9C17.5301 18.31 16.8001 17.7 16.8001 16.75C16.8001 15.66 17.8101 14.9 19.5001 14.9C21.2801 14.9 21.9401 15.75 22.0001 17H24.2101C24.1401 15.28 23.0901 13.7 21.0001 13.19V11H18.0001V13.16C16.0601 13.58 14.5001 14.84 14.5001 16.77C14.5001 19.08 16.4101 20.23 19.2001 20.9C21.7001 21.5 22.2001 22.38 22.2001 23.31C22.2001 24 21.7101 25.1 19.5001 25.1C17.4401 25.1 16.6301 24.18 16.5201 23H14.3201C14.4401 25.19 16.0801 26.42 18.0001 26.83V29H21.0001V26.85C22.9501 26.48 24.5001 25.35 24.5001 23.3C24.5001 20.46 22.0701 19.49 19.8001 18.9Z" fill="#2E9939"/>
</svg>
