<svg width="11" height="3" viewBox="0 0 11 3" fill="none" xmlns="http://www.w3.org/2000/svg">
<path fill-rule="evenodd" clip-rule="evenodd" d="M1.375 3C0.61875 3 0 2.38125 0 1.625C0 0.86875 0.61875 0.25 1.375 0.25C2.13125 0.25 2.75 0.86875 2.75 1.625C2.75 2.38125 2.13125 3 1.375 3ZM9.625 3C8.86875 3 8.25 2.38125 8.25 1.625C8.25 0.86875 8.86875 0.25 9.625 0.25C10.3813 0.25 11 0.86875 11 1.625C11 2.38125 10.3813 3 9.625 3ZM5.5 3C4.74375 3 4.125 2.38125 4.125 1.625C4.125 0.86875 4.74375 0.25 5.5 0.25C6.25625 0.25 6.875 0.86875 6.875 1.625C6.875 2.38125 6.25625 3 5.5 3Z" fill="#3654FF"/>
</svg>
