<svg width="64" height="64" viewBox="0 0 64 64" fill="none" xmlns="http://www.w3.org/2000/svg">
<circle cx="32" cy="32" r="32" fill="#00BD85"/>
<g clip-path="url(#clip0)">
<path d="M40.5358 31.812H38.6797C38.8689 32.33 38.9722 32.889 38.9722 33.4716V40.4864C38.9722 40.7293 38.93 40.9625 38.853 41.1793H41.9215C43.0678 41.1793 44.0002 40.2468 44.0002 39.1006V35.2765C44.0003 33.3662 42.4461 31.812 40.5358 31.812Z" fill="white"/>
<path d="M25.0281 33.4716C25.0281 32.8889 25.1314 32.33 25.3206 31.812H23.4645C21.5542 31.812 20 33.3662 20 35.2766V39.1007C20 40.2469 20.9325 41.1794 22.0787 41.1794H25.1473C25.0703 40.9625 25.0281 40.7293 25.0281 40.4864V33.4716Z" fill="white"/>
<path d="M34.1218 30.0068H29.8786C27.9683 30.0068 26.4141 31.561 26.4141 33.4714V40.4862C26.4141 40.8689 26.7243 41.1791 27.107 41.1791H36.8935C37.2761 41.1791 37.5864 40.8689 37.5864 40.4862V33.4714C37.5864 31.561 36.0322 30.0068 34.1218 30.0068Z" fill="white"/>
<path d="M32.0005 20.8208C29.7031 20.8208 27.834 22.6899 27.834 24.9874C27.834 26.5457 28.6941 27.9068 29.9643 28.6213C30.5668 28.9602 31.2614 29.1539 32.0005 29.1539C32.7396 29.1539 33.4342 28.9602 34.0367 28.6213C35.307 27.9068 36.1671 26.5457 36.1671 24.9874C36.1671 22.6899 34.298 20.8208 32.0005 20.8208Z" fill="white"/>
<path d="M24.6844 24.7041C22.9662 24.7041 21.5684 26.1019 21.5684 27.8201C21.5684 29.5383 22.9662 30.9361 24.6844 30.9361C25.1202 30.9361 25.5353 30.8459 25.9123 30.6836C26.5641 30.4029 27.1016 29.9062 27.4342 29.2839C27.6676 28.8472 27.8004 28.3489 27.8004 27.8201C27.8004 26.102 26.4026 24.7041 24.6844 24.7041Z" fill="white"/>
<path d="M39.3172 24.7041C37.599 24.7041 36.2012 26.1019 36.2012 27.8201C36.2012 28.349 36.334 28.8472 36.5674 29.2839C36.9 29.9062 37.4375 30.403 38.0893 30.6836C38.4663 30.8459 38.8813 30.9361 39.3172 30.9361C41.0354 30.9361 42.4332 29.5383 42.4332 27.8201C42.4332 26.1019 41.0354 24.7041 39.3172 24.7041Z" fill="white"/>
</g>
<defs>
<clipPath id="clip0">
<rect x="20" y="19" width="24" height="24" fill="white"/>
</clipPath>
</defs>
</svg>
