<svg width="120" height="131" viewBox="0 0 120 131" fill="none" xmlns="http://www.w3.org/2000/svg">
<path fill-rule="evenodd" clip-rule="evenodd" d="M13.0851 112.118C25.8344 97.7392 32.2094 77.8001 32.2094 52.3011C32.2094 49.8564 32.7846 47.3405 33.935 44.7521C35.0853 42.1638 36.7385 39.6954 38.8956 37.3471C41.0524 34.9988 43.9641 33.069 47.6308 31.559C51.2975 30.0495 55.3596 29.2949 59.8175 29.2949C64.275 29.2949 68.3371 30.0495 72.0034 31.559C75.6702 33.069 78.5815 34.9988 80.7382 37.3471C82.8958 39.6954 84.5493 42.1638 85.6997 44.7521C86.8501 47.3405 87.4249 49.8564 87.4249 52.3011C87.4249 77.8001 93.7995 97.7392 106.549 112.118H13.0851ZM113.092 105.791C111.126 103.587 109.089 100.723 106.981 97.1998C104.871 93.6771 103.086 89.879 101.624 85.8043C100.162 81.7312 98.9644 76.7937 98.0296 70.9943C97.0948 65.1952 96.6278 58.9634 96.6278 52.3011C96.6278 45.0157 93.8239 38.2453 88.216 31.9906C82.6082 25.7356 75.2499 21.9371 66.1442 20.5951C66.527 19.6855 66.719 18.7508 66.719 17.7912C66.719 15.8744 66.0474 14.2445 64.7058 12.9021C63.3638 11.5609 61.7339 10.8889 59.8175 10.8889C57.8996 10.8889 56.2696 11.5609 54.9285 12.9021C53.5857 14.2445 52.9153 15.8744 52.9153 17.7912C52.9153 18.7508 53.1061 19.6855 53.4905 20.5951C44.3831 21.9371 37.0261 25.7356 31.4182 31.9906C25.8099 38.2453 23.0068 45.0157 23.0068 52.3011C23.0068 58.9634 22.5394 65.1952 21.6047 70.9943C20.6699 76.7937 19.4715 81.7312 18.0095 85.8043C16.5472 89.879 14.7622 93.6771 12.6535 97.1998C10.5435 100.723 8.50717 103.587 6.54242 105.791C4.57645 107.997 2.39612 110.105 0.000183105 112.118C0.000183105 114.611 0.910149 116.768 2.73171 118.589C4.55286 120.411 6.70961 121.321 9.20317 121.321H47.1516C49.2169 126.666 54.4013 130.458 60.4745 130.458C66.5477 130.458 71.7321 126.666 73.7973 121.321H110.432C112.924 121.321 115.08 120.411 116.902 118.589C118.724 116.768 119.634 114.611 119.634 112.118C117.237 110.105 115.057 107.997 113.092 105.791Z" fill="#DEE2E6"/>
<path fill-rule="evenodd" clip-rule="evenodd" d="M79.2686 64.7273L78.6137 66.2629C77.4536 68.9871 75.1467 70.6789 72.5938 70.6789C70.0408 70.6789 67.7344 68.9871 66.5742 66.2633L65.9201 64.7273L62.0321 67.0098L62.6041 68.3525C64.4948 72.7938 68.3226 75.5525 72.5938 75.5525C76.8645 75.5525 80.6927 72.7938 82.5839 68.3525L83.1566 67.0098L79.2686 64.7273Z" fill="#DEE2E6"/>
<path fill-rule="evenodd" clip-rule="evenodd" d="M58.1038 67.0096L54.2158 64.7276L53.5609 66.2627C52.4007 68.9869 50.0943 70.6792 47.5413 70.6792C44.9884 70.6792 42.6819 68.9869 41.5218 66.2632L40.8673 64.7271L36.9793 67.0096L37.5516 68.3528C39.4419 72.7936 43.2701 75.5528 47.5413 75.5528C51.8121 75.5528 55.6399 72.7936 57.531 68.3524L58.1038 67.0096Z" fill="#DEE2E6"/>
<path fill-rule="evenodd" clip-rule="evenodd" d="M60.4747 89.7109C58.3354 89.7109 56.6013 91.4454 56.6013 93.5843C56.6013 95.7235 58.3354 97.4576 60.4747 97.4576C62.6135 97.4576 64.3476 95.7235 64.3476 93.5843C64.3476 91.4454 62.6135 89.7109 60.4747 89.7109Z" fill="#DEE2E6"/>
<path fill-rule="evenodd" clip-rule="evenodd" d="M114.652 31.0554H104.067V33.7926H110.158L103.908 41.1834V43.3271H114.856V40.5903H108.402L114.652 33.1995V31.0554Z" fill="#DEE2E6"/>
<path fill-rule="evenodd" clip-rule="evenodd" d="M90.8535 20.7763L109.382 20.7685L109.38 16.1365L98.457 16.1406L109.03 3.62847L109.028 0L91.1154 0.00732203L91.1171 4.63973L101.424 4.63525L90.8523 17.1478L90.8535 20.7763Z" fill="#DEE2E6"/>
</svg>
