<svg width="40" height="40" viewBox="0 0 40 40" fill="none" xmlns="http://www.w3.org/2000/svg">
<circle cx="20" cy="20" r="20" fill="#FF7354"/>
<g clip-path="url(#clip0_12317_1032)">
<rect width="28.5714" height="28.5714" transform="translate(5.71875 5.71484)" fill="#FF7354"/>
<path d="M19.2718 26.3874C19.5896 26.1956 19.9874 26.1956 20.3052 26.3874L24.3809 28.8474C25.1383 29.3044 26.0725 28.6255 25.8715 27.764L24.7899 23.1276C24.7056 22.7661 24.8284 22.3877 25.109 22.1446L28.7114 19.0239C29.38 18.4447 29.0226 17.3464 28.1412 17.2716L23.4001 16.8694C23.0305 16.838 22.7086 16.6047 22.5639 16.2632L20.7092 11.8872C20.3646 11.0742 19.2124 11.0742 18.8678 11.8872L17.0131 16.2632C16.8684 16.6047 16.5465 16.838 16.1769 16.8694L11.4358 17.2716C10.5544 17.3464 10.197 18.4447 10.8656 19.0239L14.468 22.1446C14.7486 22.3877 14.8714 22.7661 14.7871 23.1276L13.7055 27.764C13.5045 28.6255 14.4388 29.3044 15.1961 28.8474L19.2718 26.3874Z" fill="white"/>
<path d="M26.7812 15.0273L27.6135 13.1945L29.4375 12.3711L27.6135 11.5477L26.7812 9.71484L25.9667 11.5477L24.125 12.3711L25.9667 13.1945L26.7812 15.0273Z" fill="white"/>
<path d="M10.2526 26.3646L10.6953 24.5938L12.4661 24.151L10.6953 23.7083L10.2526 21.9375L9.8099 23.7083L8.03906 24.151L9.8099 24.5938L10.2526 26.3646Z" fill="white"/>
</g>
<defs>
<clipPath id="clip0_12317_1032">
<rect width="28.5714" height="28.5714" fill="white" transform="translate(5.71875 5.71484)"/>
</clipPath>
</defs>
</svg>
