<svg width="174" height="166" viewBox="0 0 174 166" fill="none" xmlns="http://www.w3.org/2000/svg">
<path d="M101.451 37.6165C104.893 33.6587 108.058 29.4296 110.888 25.0868C114.644 19.329 117.934 13.2729 120.855 7.0542C126.308 9.61326 131.755 12.1723 137.208 14.7259C131.598 26.6917 124.704 38.2562 116.216 48.3461C116.606 48.731 116.991 49.116 117.365 49.5118C123.197 55.6112 127.669 62.795 130.774 71.0523C133.88 79.315 135.43 88.1415 135.43 97.5374C135.43 106.933 133.88 115.744 130.774 123.963C127.669 132.188 123.197 139.328 117.365 145.39C111.533 151.451 104.427 156.244 96.0582 159.768C87.6895 163.292 78.2367 165.054 67.7053 165.054C57.1739 165.054 47.7483 163.314 39.4121 159.828C31.0813 156.341 24.0188 151.549 18.2192 145.449C12.425 139.35 7.96973 132.204 4.8694 124.023C1.76365 115.836 0.208008 107.009 0.208008 97.5374C0.208008 88.0656 1.76365 79.1957 4.8694 70.9384C7.96973 62.6811 12.425 55.4974 18.2192 49.3979C24.0188 43.2985 31.0976 38.5057 39.4718 35.0195C47.8405 31.5333 57.2552 29.7929 67.7053 29.7929C78.2367 29.7929 87.6895 31.555 96.0582 35.0791C97.9173 35.8598 99.7168 36.7057 101.451 37.6165ZM103.186 61.4613C96.8657 66.7908 89.8575 71.3234 82.0904 74.7987C68.3286 80.9524 52.2904 83.5548 38.16 77.8511C33.8293 76.1053 29.8401 73.2806 26.8807 69.7186C25.6504 72.0336 24.5825 74.4896 23.6719 77.0758C21.4388 83.4409 20.3223 90.2614 20.3223 97.5374C20.3223 104.737 21.4388 111.482 23.6719 117.771C25.9104 124.061 29.1083 129.574 33.2764 134.308C37.4445 139.046 42.4203 142.776 48.2198 145.503C54.014 148.231 60.5073 149.597 67.7053 149.597C74.9033 149.597 81.4401 148.231 87.3101 145.503C93.1801 142.776 98.1775 139.046 102.308 134.308C106.438 129.574 109.619 124.061 111.852 117.771C114.091 111.482 115.208 104.737 115.208 97.5374C115.208 90.2614 114.091 83.4409 111.852 77.0758C109.782 71.1715 106.888 65.9667 103.186 61.4613ZM88.6 49.9021C88.1718 49.6907 87.7437 49.4846 87.3101 49.284C81.4401 46.5948 74.9033 45.2503 67.7053 45.2503C60.5073 45.2503 54.014 46.5948 48.2198 49.284C45.7645 50.4226 43.4609 51.7455 41.2983 53.2528C40.03 54.9118 39.3145 56.7227 40.5124 58.192C43.9325 62.3938 50.9354 63.1257 57.2174 62.7787C68.5618 62.1444 79.2123 57.2214 88.6 49.9021Z" fill="#DEE2E6"/>
<path fill-rule="evenodd" clip-rule="evenodd" d="M97.0227 92.7264L95.8788 92.0547L95.3583 93.275L94.9393 94.2577C93.2749 98.166 89.9653 100.593 86.3027 100.593C82.6401 100.593 79.3312 98.166 77.6668 94.2583L77.2483 93.2756L76.7283 92.0547L75.5839 92.7264L72.0357 94.8092L71.1504 95.3292L71.5525 96.2735L71.9709 97.2556C74.6834 103.627 80.175 107.585 86.3027 107.585C92.4298 107.585 97.922 103.627 100.635 97.2556L101.054 96.274L101.457 95.3292L100.571 94.8092L97.0227 92.7264Z" fill="#DEE2E6"/>
<path fill-rule="evenodd" clip-rule="evenodd" d="M65.1117 96.2736L65.5144 95.3287L64.6291 94.8093L61.0803 92.7259L59.9365 92.0548L59.4159 93.2745L58.9969 94.2573C57.3325 98.1656 54.0235 100.593 50.3609 100.593C46.6983 100.593 43.3894 98.1656 41.725 94.2578L41.3059 93.2751L40.786 92.0542L39.6415 92.7259L36.0933 94.8093L35.208 95.3287L35.6101 96.2736L36.0291 97.2557C38.7411 103.627 44.2332 107.585 50.3609 107.585C56.488 107.585 61.9796 103.627 64.6927 97.2552L65.1117 96.2736Z" fill="#DEE2E6"/>
<path fill-rule="evenodd" clip-rule="evenodd" d="M68.9158 127.897C65.8467 127.897 63.3589 130.386 63.3589 133.454C63.3589 136.524 65.8467 139.011 68.9158 139.011C71.9843 139.011 74.4722 136.524 74.4722 133.454C74.4722 130.386 71.9843 127.897 68.9158 127.897Z" fill="#DEE2E6"/>
<path opacity="0.5" fill-rule="evenodd" clip-rule="evenodd" d="M155.622 44.0542H140.437V47.9812H149.175L140.208 58.5844V61.6599H155.915V57.7335H146.656L155.622 47.1303V44.0542Z" fill="#DEE2E6"/>
<path fill-rule="evenodd" clip-rule="evenodd" d="M147.21 29.8611L173.792 29.85L173.789 23.2046L158.118 23.2105L173.286 5.25982L173.285 0.0541992L147.586 0.0647038L147.588 6.71063L162.376 6.70421L147.208 24.6554L147.21 29.8611Z" fill="#DEE2E6"/>
</svg>
