<svg width="14" height="14" viewBox="0 0 14 14" fill="none"
     xmlns="http://www.w3.org/2000/svg">
  <path d="M11.6667 10.9025L4.57333 3.58171L3.07416 2.03587L2.33333 2.77671L3.96666 4.41004V4.41587C3.66333 4.99337 3.49999 5.67587 3.49999 6.41087V9.32754L2.33333 10.4942V11.0775H10.3425L11.5092 12.2442L12.25 11.5034L11.6667 10.9025ZM6.99999 12.8334C7.64749 12.8334 8.16666 12.3142 8.16666 11.6667H5.83333C5.83333 12.3142 6.35249 12.8334 6.99999 12.8334ZM10.5 8.56337V6.41671C10.5 4.62004 9.54333 3.12671 7.87499 2.73004V2.33337C7.87499 1.84921 7.48416 1.45837 6.99999 1.45837C6.51583 1.45837 6.12499 1.84921 6.12499 2.33337V2.73004C6.03749 2.74754 5.95583 2.77671 5.87999 2.80004C5.82166 2.81754 5.76333 2.84087 5.70499 2.86421H5.69916C5.69333 2.86421 5.69333 2.86421 5.68749 2.87004C5.55333 2.92254 5.41916 2.98671 5.29083 3.05087C5.29083 3.05087 5.285 3.05087 5.285 3.05671L10.5 8.56337Z"
        fill="#ADADB9"/>
</svg>
