<svg width="20" height="20" viewBox="0 0 20 20" fill="none" xmlns="http://www.w3.org/2000/svg">
<path d="M10 16.6667L9.28333 15.95C8.3 14.9667 8.30833 13.3667 9.3 12.4L10 11.7167C9.675 11.6834 9.43333 11.6667 9.16667 11.6667C6.94167 11.6667 2.5 12.7834 2.5 15V16.6667H10ZM9.16667 10C11.0083 10 12.5 8.50837 12.5 6.66671C12.5 4.82504 11.0083 3.33337 9.16667 3.33337C7.325 3.33337 5.83333 4.82504 5.83333 6.66671C5.83333 8.50837 7.325 10 9.16667 10Z" fill="white"/>
<path d="M13.4834 16.4833C13.1584 16.8083 12.625 16.8083 12.3 16.4833L10.575 14.7416C10.2584 14.4166 10.2584 13.9 10.575 13.5833L10.5834 13.575C10.9084 13.25 11.4334 13.25 11.75 13.575L12.8917 14.7166L16.5834 11C16.9084 10.675 17.4334 10.675 17.7584 11L17.7667 11.0083C18.0834 11.3333 18.0834 11.85 17.7667 12.1666L13.4834 16.4833Z" fill="white"/>
</svg>
