<svg width="22" height="22" viewBox="0 0 22 22" fill="none" xmlns="http://www.w3.org/2000/svg">
<path fill-rule="evenodd" clip-rule="evenodd" d="M14.2502 9.5C14.2502 6.45562 12.5714 4.34262 10.3993 3.70828C10.3206 3.50477 10.1963 3.31558 10.0273 3.15682C9.45003 2.61439 8.55044 2.61439 7.97312 3.15682C7.80452 3.31523 7.68039 3.50395 7.60171 3.70695C5.42675 4.33854 3.75024 6.44691 3.75024 9.5C3.75024 11.4754 3.35198 12.5823 2.61471 13.3845C2.49144 13.5186 2.15746 13.8259 1.93123 14.034C1.8242 14.1324 1.74129 14.2087 1.71622 14.234L1.50024 14.453V17.0106H6.06621C6.22061 17.8071 6.6528 18.34 7.43438 18.817C8.39584 19.4037 9.60462 19.4037 10.5661 18.817C11.2558 18.396 11.7183 17.7492 11.906 17.0106H16.5002V14.453L16.2843 14.234C16.2615 14.2109 16.182 14.1375 16.078 14.0416C15.8525 13.8336 15.5119 13.5194 15.3868 13.3827C14.649 12.5768 14.2502 11.4685 14.2502 9.5ZM10.3028 17.0106H7.63419C7.74015 17.2077 7.92076 17.3565 8.21574 17.5365C8.69743 17.8305 9.30303 17.8305 9.78472 17.5365C10.0078 17.4004 10.1821 17.2203 10.3028 17.0106ZM14.2804 14.3956C14.4382 14.568 14.7764 14.8831 15.0002 15.0889V15.5106H3.00023V15.0893C3.22228 14.8858 3.56155 14.5709 3.71909 14.3995C4.7209 13.3096 5.25023 11.8384 5.25023 9.5C5.25023 6.66493 6.99981 5.00929 9.00023 5.00929C10.995 5.00929 12.7502 6.67347 12.7502 9.5C12.7502 11.8308 13.2797 13.3025 14.2804 14.3956Z" fill="#DCDCF3"/>
</svg>
