<svg width="80" height="80" viewBox="0 0 80 80" fill="none"
     xmlns="http://www.w3.org/2000/svg">
  <path
          d="M66.6668 62.3L26.1335 20.4667L17.5668 11.6334L13.3335 15.8667L22.6668 25.2V25.2334C20.9335 28.5334 20.0002 32.4334 20.0002 36.6334V53.3L13.3335 59.9667V63.3H59.1002L65.7668 69.9667L70.0002 65.7334L66.6668 62.3ZM40.0002 73.3334C43.7002 73.3334 46.6668 70.3667 46.6668 66.6667H33.3335C33.3335 70.3667 36.3002 73.3334 40.0002 73.3334ZM60.0002 48.9334V36.6667C60.0002 26.4 54.5335 17.8667 45.0002 15.6V13.3334C45.0002 10.5667 42.7668 8.33337 40.0002 8.33337C37.2335 8.33337 35.0002 10.5667 35.0002 13.3334V15.6C34.5002 15.7 34.0335 15.8667 33.6002 16C33.2668 16.1 32.9335 16.2334 32.6002 16.3667H32.5668C32.5335 16.3667 32.5335 16.3667 32.5002 16.4C31.7335 16.7 30.9668 17.0667 30.2335 17.4334C30.2335 17.4334 30.2002 17.4334 30.2002 17.4667L60.0002 48.9334Z"
          fill="#D6D6DC"/>
</svg>
