<svg width="14" height="14" viewBox="0 0 14 14" fill="none" xmlns="http://www.w3.org/2000/svg">
<path d="M7.00016 3.66666C7.36683 3.66666 7.66683 3.96666 7.66683 4.33333V7C7.66683 7.36666 7.36683 7.66666 7.00016 7.66666C6.6335 7.66666 6.3335 7.36666 6.3335 7V4.33333C6.3335 3.96666 6.6335 3.66666 7.00016 3.66666ZM6.9935 0.333328C3.3135 0.333328 0.333496 3.31999 0.333496 7C0.333496 10.68 3.3135 13.6667 6.9935 13.6667C10.6802 13.6667 13.6668 10.68 13.6668 7C13.6668 3.31999 10.6802 0.333328 6.9935 0.333328ZM7.00016 12.3333C4.0535 12.3333 1.66683 9.94666 1.66683 7C1.66683 4.05333 4.0535 1.66666 7.00016 1.66666C9.94683 1.66666 12.3335 4.05333 12.3335 7C12.3335 9.94666 9.94683 12.3333 7.00016 12.3333ZM7.66683 10.3333H6.3335V9H7.66683V10.3333Z" fill="#9999A7"/>
</svg>
