<svg width="20" height="13" viewBox="0 0 20 13" fill="none" xmlns="http://www.w3.org/2000/svg">
<path d="M13.332 5.93945C14.7154 5.93945 15.8237 4.82279 15.8237 3.43945C15.8237 2.05612 14.7154 0.939453 13.332 0.939453C11.9487 0.939453 10.832 2.05612 10.832 3.43945C10.832 4.82279 11.9487 5.93945 13.332 5.93945ZM6.66536 5.93945C8.0487 5.93945 9.15703 4.82279 9.15703 3.43945C9.15703 2.05612 8.0487 0.939453 6.66536 0.939453C5.28203 0.939453 4.16536 2.05612 4.16536 3.43945C4.16536 4.82279 5.28203 5.93945 6.66536 5.93945ZM6.66536 7.60612C4.7237 7.60612 0.832031 8.58112 0.832031 10.5228V11.7728C0.832031 12.2311 1.20703 12.6061 1.66536 12.6061H11.6654C12.1237 12.6061 12.4987 12.2311 12.4987 11.7728V10.5228C12.4987 8.58112 8.60703 7.60612 6.66536 7.60612ZM13.332 7.60612C13.0904 7.60612 12.8154 7.62279 12.5237 7.64779C12.5404 7.65612 12.5487 7.67279 12.557 7.68112C13.507 8.37279 14.1654 9.29779 14.1654 10.5228V11.7728C14.1654 12.0645 14.107 12.3478 14.0154 12.6061H18.332C18.7904 12.6061 19.1654 12.2311 19.1654 11.7728V10.5228C19.1654 8.58112 15.2737 7.60612 13.332 7.60612Z" fill="#33334F"/>
</svg>
