<svg width="20" height="20" viewBox="0 0 20 20" fill="none" xmlns="http://www.w3.org/2000/svg">
<path d="M8.33333 10C10.1743 10 11.6667 8.50762 11.6667 6.66667C11.6667 4.82572 10.1743 3.33333 8.33333 3.33333C6.49238 3.33333 5 4.82572 5 6.66667C5 8.50762 6.49238 10 8.33333 10Z" fill="#33334F"/>
<path d="M8.62496 11.675C6.34996 11.5917 1.66663 12.725 1.66663 15V16.6667H9.61663C7.55829 14.3667 8.59163 11.7583 8.62496 11.675Z" fill="#323232"/>
<path d="M16.1917 15.0167C16.4917 14.525 16.6667 13.95 16.6667 13.3333C16.6667 11.4917 15.175 10 13.3333 10C11.4917 10 10 11.4917 10 13.3333C10 15.175 11.4917 16.6667 13.3333 16.6667C13.95 16.6667 14.525 16.4833 15.0167 16.1917L17.1583 18.3333L18.3333 17.1583L16.1917 15.0167ZM13.3333 15C12.4167 15 11.6667 14.25 11.6667 13.3333C11.6667 12.4167 12.4167 11.6667 13.3333 11.6667C14.25 11.6667 15 12.4167 15 13.3333C15 14.25 14.25 15 13.3333 15Z" fill="#323232"/>
</svg>
