<svg width="12" height="12" viewBox="0 0 12 12" fill="none" xmlns="http://www.w3.org/2000/svg">
  <path opacity="0.8"
        d="M11.731 9.46995L9.87776 7.61654C9.50863 7.24889 8.89735 7.26006 8.51537 7.64219L7.58171 8.57563C7.52273 8.54312 7.46167 8.50917 7.39748 8.47314C6.80789 8.14645 6.00093 7.69869 5.15177 6.84891C4.3001 5.99734 3.85192 5.18914 3.52423 4.59917C3.48965 4.53667 3.45652 4.4764 3.42381 4.41917L4.05043 3.79349L4.3585 3.48504C4.74107 3.10236 4.75162 2.49126 4.38335 2.12254L2.53014 0.26892C2.16188 -0.0992743 1.55032 -0.0881043 1.16775 0.29457L0.645455 0.819867L0.659728 0.834037C0.484594 1.0575 0.338248 1.31524 0.229341 1.59318C0.128949 1.85774 0.0664456 2.1102 0.0378657 2.36318C-0.206839 4.39184 0.720198 6.24587 3.23605 8.76177C6.71373 12.2392 9.51629 11.9765 9.63719 11.9637C9.90051 11.9322 10.1529 11.8693 10.4093 11.7697C10.6849 11.6621 10.9424 11.5159 11.1657 11.3412L11.1772 11.3513L11.7063 10.8332C12.0881 10.4506 12.0991 9.83925 11.731 9.46995Z"
        fill="#33334F"/>
</svg>
