<svg width="26" height="20" viewBox="0 0 26 20" fill="none" xmlns="http://www.w3.org/2000/svg">
<rect opacity="0.1" x="2.30273" y="2.62305" width="23.1755" height="16.9829" rx="1" fill="#6D6DA7"/>
<ellipse cx="11.99" cy="6.42751" rx="1.6365" ry="1.6365" fill="#BCBCD6"/>
<path fill-rule="evenodd" clip-rule="evenodd" d="M13.4929 8.76976C13.0854 9.042 12.6064 9.1873 12.1163 9.18728C11.4595 9.18653 10.8298 8.92526 10.3653 8.46079C9.90082 7.99633 9.63956 7.36659 9.6388 6.70974C9.63879 6.21971 9.78409 5.74068 10.0563 5.33322C10.3286 4.92577 10.7155 4.6082 11.1682 4.42066C11.621 4.23313 12.1191 4.18406 12.5998 4.27965C13.0804 4.37525 13.5218 4.61122 13.8684 4.95773C14.2149 5.30423 14.4508 5.74571 14.5464 6.22633C14.642 6.70694 14.593 7.20511 14.4054 7.65784C14.2179 8.11057 13.9003 8.49752 13.4929 8.76976ZM12.842 5.6237C12.6272 5.48019 12.3747 5.40359 12.1163 5.40361C11.7701 5.40403 11.4381 5.54178 11.1933 5.78664C10.9484 6.0315 10.8107 6.36347 10.8103 6.70974C10.8103 6.96807 10.8869 7.2206 11.0304 7.43539C11.1739 7.65019 11.3779 7.8176 11.6166 7.91645C11.8553 8.01531 12.1179 8.04117 12.3713 7.99077C12.6246 7.94036 12.8574 7.81596 13.04 7.63329C13.2227 7.45061 13.3471 7.21788 13.3975 6.96451C13.4478 6.71114 13.422 6.44852 13.3231 6.20985C13.2242 5.97119 13.0568 5.76721 12.842 5.6237Z" fill="#6D6DA7"/>
<path fill-rule="evenodd" clip-rule="evenodd" d="M24.032 18.6731C24.0782 18.6687 24.1238 18.6578 24.1676 18.6412C24.2075 18.6249 24.2462 18.6043 24.2819 18.5795C24.3049 18.5632 24.3267 18.5444 24.3466 18.5239C24.3987 18.4731 24.4386 18.412 24.4658 18.3442C24.4785 18.3122 24.4882 18.2789 24.4948 18.245C24.5021 18.2075 24.5051 18.1694 24.5045 18.1307V1.07108C24.5051 1.036 24.5033 1.00152 24.4973 0.967646C24.4906 0.929538 24.4803 0.892035 24.4664 0.855742C24.4392 0.787389 24.3993 0.725086 24.3479 0.673066C24.3309 0.655524 24.3128 0.639192 24.2934 0.624675C24.2735 0.609553 24.2523 0.59564 24.2305 0.582938C24.2105 0.57205 24.19 0.562372 24.1682 0.553298C24.1011 0.526683 24.0297 0.513981 23.9577 0.515795H0.583662C0.512285 0.513981 0.440908 0.527288 0.374371 0.553903C0.308438 0.581728 0.247345 0.62286 0.197139 0.674881C0.147538 0.726901 0.108221 0.788599 0.0822106 0.856951C0.0562004 0.925304 0.0447076 0.99789 0.047732 1.07108V2.8313H0.0458984V3.98906H0.047732V18.1307C0.0447076 18.2033 0.0568053 18.2759 0.0828154 18.343C0.0943083 18.3727 0.108826 18.4017 0.124553 18.4283C0.145724 18.4628 0.169919 18.4942 0.198349 18.5233C0.248554 18.5741 0.309648 18.614 0.375581 18.6406C0.420431 18.6577 0.466929 18.6688 0.514336 18.6731H24.032ZM23.3698 11.8598V1.67415H1.1819V12.4157L6.06938 7.94985C6.14681 7.90267 6.23452 7.87545 6.32525 7.87243C6.41538 7.8694 6.5055 7.88876 6.58595 7.9305L11.9561 12.1629L16.5793 7.5228C16.6724 7.42844 16.7971 7.36977 16.9283 7.35949C17.0602 7.34799 17.1914 7.3855 17.2997 7.46413L23.3698 11.8598ZM1.1819 13.7543V17.5173H6.58595L11.1075 13.0061L6.37727 9.10579L1.1819 13.7543ZM17.0305 8.67027L8.20403 17.5173H23.3698V13.2783L17.0305 8.67027Z" fill="#6D6DA7"/>
</svg>
