<svg width="16" height="16" viewBox="0 0 16 16" fill="none" xmlns="http://www.w3.org/2000/svg">
<path d="M7.19998 10.6007L10.3133 8.26732C10.4933 8.13398 10.4933 7.86732 10.3133 7.73398L7.19998 5.40065C6.97998 5.23398 6.66665 5.39398 6.66665 5.66732V10.334C6.66665 10.6073 6.97998 10.7673 7.19998 10.6007ZM7.99998 1.33398C4.31998 1.33398 1.33331 4.32065 1.33331 8.00065C1.33331 11.6807 4.31998 14.6673 7.99998 14.6673C11.68 14.6673 14.6666 11.6807 14.6666 8.00065C14.6666 4.32065 11.68 1.33398 7.99998 1.33398ZM7.99998 13.334C5.05998 13.334 2.66665 10.9407 2.66665 8.00065C2.66665 5.06065 5.05998 2.66732 7.99998 2.66732C10.94 2.66732 13.3333 5.06065 13.3333 8.00065C13.3333 10.9407 10.94 13.334 7.99998 13.334Z" fill="#3654FF"/>
</svg>
