<svg width="14" height="14" viewBox="0 0 14 14" fill="none" xmlns="http://www.w3.org/2000/svg">
<path d="M6.1987 9.87409L9.31203 7.54076C9.49203 7.40742 9.49203 7.14076 9.31203 7.00742L6.1987 4.67409C5.9787 4.50742 5.66536 4.66742 5.66536 4.94076V9.60742C5.66536 9.88076 5.9787 10.0408 6.1987 9.87409ZM6.9987 0.607422C3.3187 0.607422 0.332031 3.59409 0.332031 7.27409C0.332031 10.9541 3.3187 13.9408 6.9987 13.9408C10.6787 13.9408 13.6654 10.9541 13.6654 7.27409C13.6654 3.59409 10.6787 0.607422 6.9987 0.607422ZM6.9987 12.6074C4.0587 12.6074 1.66536 10.2141 1.66536 7.27409C1.66536 4.33409 4.0587 1.94076 6.9987 1.94076C9.9387 1.94076 12.332 4.33409 12.332 7.27409C12.332 10.2141 9.9387 12.6074 6.9987 12.6074Z" fill="#3654FF"/>
</svg>
