<svg width="20" height="20" viewBox="0 0 20 20" fill="none" xmlns="http://www.w3.org/2000/svg">
    <path d="M14.1667 16.017H4.16667V5.83366H10V4.16699H4.16667C3.25 4.16699 2.5 4.91699 2.5 5.83366V15.8337C2.5 16.7503 3.25 17.5003 4.16667 17.5003H14.1667C15.0833 17.5003 15.8333 16.7503 15.8333 15.8337V10.0003H14.1667V16.017Z" fill="#33334F"/>
    <path d="M15.8333 1.66699H14.1667V4.16699H11.6667C11.675 4.17533 11.6667 5.83366 11.6667 5.83366H14.1667V8.32533C14.175 8.33366 15.8333 8.32533 15.8333 8.32533V5.83366H18.3333V4.16699H15.8333V1.66699Z" fill="#33334F"/>
    <path d="M12.5 7.50033H5.83333V9.16699H12.5V7.50033Z" fill="#33334F"/>
    <path d="M5.83333 10.0003V11.667H12.5V10.0003H5.83333Z" fill="#33334F"/>
    <path d="M12.5 12.5003H5.83333V14.167H12.5V12.5003Z" fill="#33334F"/>
    </svg>