<svg width="64" height="64" viewBox="0 0 64 64" fill="none" xmlns="http://www.w3.org/2000/svg">
<circle cx="32" cy="32" r="32" fill="#00BD85"/>
<path d="M42.1733 26.1776C42.1446 25.5462 42.1446 24.9435 42.1446 24.3408C42.1446 23.8529 41.7716 23.4798 41.2837 23.4798C37.6962 23.4798 34.9698 22.4466 32.7025 20.2368C32.3581 19.9211 31.8415 19.9211 31.4971 20.2368C29.2298 22.4466 26.5034 23.4798 22.9159 23.4798C22.4281 23.4798 22.055 23.8529 22.055 24.3408C22.055 24.9435 22.055 25.5462 22.0263 26.1776C21.9115 32.2045 21.7393 40.47 31.8128 43.9426L32.0998 44L32.3868 43.9426C42.4316 40.47 42.2881 32.2332 42.1733 26.1776ZM31.411 34.5291C31.2388 34.6726 31.0379 34.7587 30.8083 34.7587H30.7796C30.55 34.7587 30.3204 34.6439 30.1769 34.4717L27.5079 31.5157L28.7994 30.3677L30.8944 32.6924L35.5437 28.2726L36.7204 29.5354L31.411 34.5291Z" fill="white"/>
</svg>
