<svg width="56" height="60" viewBox="0 0 56 60" fill="none" xmlns="http://www.w3.org/2000/svg">
<g opacity="0.8">
<path d="M10.4792 39.8104C14.2424 39.8104 17.293 36.7597 17.293 32.9965C17.293 29.2333 14.2424 26.1826 10.4792 26.1826C6.71596 26.1826 3.66528 29.2333 3.66528 32.9965C3.66528 36.7597 6.71596 39.8104 10.4792 39.8104Z" fill="#33334F"/>
<path d="M18.681 44.4161C17.3561 42.7126 15.2741 41.7031 13.0028 41.7031H7.8924C4.23309 41.7031 1.14161 44.4161 0.699968 48.0754L0.00596187 53.9429C-0.0571296 54.7 0.384511 55.4571 1.14161 55.5833C4.10691 56.2142 7.19839 56.5296 10.4161 56.5296C11.741 56.5296 13.0028 56.4665 14.2646 56.3403L14.8956 51.1038C15.3372 48.3908 16.7252 45.9933 18.681 44.4161Z" fill="#33334F"/>
<path d="M45.0533 39.8104C48.8165 39.8104 51.8671 36.7597 51.8671 32.9965C51.8671 29.2333 48.8165 26.1826 45.0533 26.1826C41.2901 26.1826 38.2394 29.2333 38.2394 32.9965C38.2394 36.7597 41.2901 39.8104 45.0533 39.8104Z" fill="#33334F"/>
<path d="M54.7694 48.0754C54.3278 44.4161 51.2363 41.7031 47.577 41.7031H42.4666C40.1953 41.7031 38.1133 42.7757 36.7883 44.4161C38.8073 46.0564 40.1322 48.3908 40.4476 51.1038L41.0785 56.3403C42.3404 56.4665 43.6653 56.5296 44.9271 56.5296C48.1448 56.5296 51.2994 56.2142 54.2016 55.5833C54.9587 55.394 55.4634 54.7 55.3372 53.9429L54.7694 48.0754Z" fill="#33334F"/>
<path d="M30.2898 45.1104H25.2425C21.5832 45.1104 18.4917 47.8233 18.0501 51.4826L17.3561 57.4132C17.293 58.1703 17.7346 58.9274 18.4917 59.0536C21.3939 59.6845 24.5485 59.9999 27.7662 59.9999C30.9838 59.9999 34.1384 59.6845 37.0406 59.0536C37.7977 58.8643 38.3024 58.1703 38.1762 57.4132L37.4822 51.4826C37.0406 47.8233 33.9491 45.1104 30.2898 45.1104Z" fill="#33334F"/>
<path d="M27.7663 43.2176C31.5295 43.2176 34.5802 40.1669 34.5802 36.4037C34.5802 32.6405 31.5295 29.5898 27.7663 29.5898C24.0031 29.5898 20.9524 32.6405 20.9524 36.4037C20.9524 40.1669 24.0031 43.2176 27.7663 43.2176Z" fill="#33334F"/>
<path d="M20.2583 25.0473H35.2741C36.6621 25.0473 37.8609 23.9117 37.8609 22.4606V11.7981C37.8609 10.4101 36.7252 9.21136 35.2741 9.21136H34.5801V5.74133C34.5801 2.58675 31.9934 0 28.8388 0H26.7568C23.6022 0 21.0154 2.58675 21.0154 5.74133V9.21136H20.3214C18.9334 9.21136 17.7347 10.347 17.7347 11.7981V22.4606C17.6716 23.9117 18.8703 25.0473 20.2583 25.0473ZM29.4697 20.5047C29.5328 20.7571 29.3435 21.0726 29.0281 21.0726H26.5044C26.1889 21.0726 25.9997 20.8202 26.0628 20.5047L26.8829 17.224C26.1889 16.9085 25.6842 16.2145 25.6842 15.3943C25.6842 14.2587 26.5675 13.3754 27.7031 13.3754C28.8388 13.3754 29.7221 14.2587 29.7221 15.3943C29.7221 16.2145 29.2173 16.9085 28.5233 17.224L29.4697 20.5047ZM24.4224 5.80442C24.4224 4.54259 25.4318 3.53312 26.6937 3.53312H28.7757C30.0375 3.53312 31.047 4.54259 31.047 5.80442V9.27445H24.4224V5.80442Z" fill="#33334F"/>
</g>
</svg>
