<svg width="226" height="206" viewBox="0 0 226 206" fill="none" xmlns="http://www.w3.org/2000/svg">
<path fill-rule="evenodd" clip-rule="evenodd" d="M166.228 201.22C166.228 203.846 129.215 205.974 83.5563 205.974C37.898 205.974 0.884766 203.846 0.884766 201.22C0.884766 198.594 37.898 196.465 83.5563 196.465C129.215 196.465 166.228 198.594 166.228 201.22Z" fill="#E0F4EE"/>
<path d="M166.828 84.8093H89.6461C89.2672 84.8089 88.9039 84.6578 88.6359 84.3892C88.368 84.1206 88.2172 83.7565 88.2168 83.3766V48.139C88.2172 47.7592 88.368 47.395 88.6359 47.1264C88.9039 46.8578 89.2672 46.7067 89.6461 46.7063H166.828C167.207 46.7067 167.57 46.8578 167.838 47.1264C168.106 47.395 168.257 47.7592 168.257 48.139V83.3766C168.257 83.7565 168.106 84.1206 167.838 84.3892C167.57 84.6578 167.207 84.8089 166.828 84.8093ZM89.6461 47.2794C89.4187 47.2796 89.2007 47.3703 89.04 47.5314C88.8792 47.6926 88.7888 47.9111 88.7885 48.139V83.3766C88.7888 83.6045 88.8792 83.823 89.04 83.9842C89.2007 84.1453 89.4187 84.236 89.6461 84.2362H166.828C167.055 84.236 167.273 84.1453 167.434 83.9842C167.595 83.823 167.685 83.6045 167.686 83.3766V48.139C167.685 47.9111 167.595 47.6926 167.434 47.5314C167.273 47.3703 167.055 47.2796 166.828 47.2794H89.6461Z" fill="#3F3D56"/>
<path d="M99.6515 63.752C102.967 63.752 105.654 61.058 105.654 57.7347C105.654 54.4114 102.967 51.7173 99.6515 51.7173C96.3361 51.7173 93.6484 54.4114 93.6484 57.7347C93.6484 61.058 96.3361 63.752 99.6515 63.752Z" fill="#00C389"/>
<path d="M113.514 53.7229C113.249 53.7229 112.994 53.8286 112.807 54.0166C112.619 54.2047 112.514 54.4598 112.514 54.7258C112.514 54.9918 112.619 55.2469 112.807 55.435C112.994 55.6231 113.249 55.7287 113.514 55.7287H160.681C160.946 55.7287 161.201 55.6231 161.388 55.435C161.576 55.2469 161.681 54.9918 161.681 54.7258C161.681 54.4598 161.576 54.2047 161.388 54.0166C161.201 53.8286 160.946 53.7229 160.681 53.7229H113.514Z" fill="#E6E6E6"/>
<path d="M113.514 59.7405C113.249 59.7405 112.994 59.8461 112.807 60.0342C112.619 60.2223 112.514 60.4774 112.514 60.7434C112.514 61.0094 112.619 61.2645 112.807 61.4525C112.994 61.6406 113.249 61.7463 113.514 61.7463H133.81C134.075 61.7463 134.33 61.6406 134.518 61.4525C134.705 61.2645 134.811 61.0094 134.811 60.7434C134.811 60.4774 134.705 60.2223 134.518 60.0342C134.33 59.8461 134.075 59.7405 133.81 59.7405H113.514Z" fill="#E6E6E6"/>
<path d="M95.0444 69.3604C94.2834 69.3604 93.6641 69.8103 93.6641 70.3632C93.6641 70.9162 94.2834 71.3661 95.0444 71.3661H160.12C160.881 71.3661 161.5 70.9162 161.5 70.3632C161.5 69.8103 160.881 69.3604 160.12 69.3604H95.0444Z" fill="#E6E6E6"/>
<path d="M95.0444 75.3777C94.2834 75.3777 93.6641 75.8276 93.6641 76.3806C93.6641 76.9335 94.2834 77.3835 95.0444 77.3835H160.12C160.881 77.3835 161.5 76.9335 161.5 76.3806C161.5 75.8276 160.881 75.3777 160.12 75.3777H95.0444Z" fill="#E6E6E6"/>
<path d="M224.57 38.1031H147.388C147.009 38.1026 146.646 37.9515 146.378 37.6829C146.11 37.4143 145.959 37.0502 145.959 36.6703V1.43271C145.959 1.05287 146.11 0.688712 146.378 0.420124C146.646 0.151535 147.009 0.000445907 147.388 0H224.57C224.949 0.000446664 225.312 0.151535 225.58 0.420124C225.848 0.688712 225.999 1.05287 226 1.43271V36.6703C225.999 37.0502 225.848 37.4143 225.58 37.6829C225.312 37.9515 224.949 38.1026 224.57 38.1031ZM147.388 0.573083C147.161 0.573332 146.943 0.66398 146.782 0.825137C146.621 0.986294 146.531 1.2048 146.531 1.43271V36.6703C146.531 36.8983 146.621 37.1168 146.782 37.2779C146.943 37.4391 147.161 37.5297 147.388 37.53H224.57C224.798 37.5297 225.016 37.4391 225.176 37.2779C225.337 37.1168 225.428 36.8983 225.428 36.6703V1.43271C225.428 1.2048 225.337 0.986294 225.176 0.825137C225.016 0.66398 224.798 0.573332 224.57 0.573083H147.388Z" fill="#3F3D56"/>
<path d="M157.394 17.0457C160.709 17.0457 163.397 14.3517 163.397 11.0284C163.397 7.70506 160.709 5.01099 157.394 5.01099C154.078 5.01099 151.391 7.70506 151.391 11.0284C151.391 14.3517 154.078 17.0457 157.394 17.0457Z" fill="#00C389"/>
<path d="M171.258 7.0166C170.993 7.0166 170.738 7.12226 170.551 7.31034C170.363 7.49842 170.258 7.75351 170.258 8.0195C170.258 8.28548 170.363 8.54057 170.551 8.72865C170.738 8.91673 170.993 9.02239 171.258 9.02239H218.425C218.69 9.02239 218.945 8.91673 219.132 8.72865C219.32 8.54057 219.425 8.28548 219.425 8.0195C219.425 7.75351 219.32 7.49842 219.132 7.31034C218.945 7.12226 218.69 7.0166 218.425 7.0166H171.258Z" fill="#E6E6E6"/>
<path d="M171.258 13.0339C170.993 13.0339 170.738 13.1396 170.551 13.3277C170.363 13.5158 170.258 13.7708 170.258 14.0368C170.258 14.3028 170.363 14.5579 170.551 14.746C170.738 14.9341 170.993 15.0397 171.258 15.0397H191.554C191.82 15.0397 192.074 14.9341 192.262 14.746C192.449 14.5579 192.555 14.3028 192.555 14.0368C192.555 13.7708 192.449 13.5158 192.262 13.3277C192.074 13.1396 191.82 13.0339 191.554 13.0339H171.258Z" fill="#E6E6E6"/>
<path d="M152.789 22.6541C152.028 22.6541 151.408 23.104 151.408 23.657C151.408 24.2099 152.028 24.6599 152.789 24.6599H217.864C218.625 24.6599 219.244 24.2099 219.244 23.657C219.244 23.104 218.625 22.6541 217.864 22.6541H152.789Z" fill="#E6E6E6"/>
<path d="M152.789 28.6714C152.028 28.6714 151.408 29.1213 151.408 29.6743C151.408 30.2272 152.028 30.6772 152.789 30.6772H217.864C218.625 30.6772 219.244 30.2272 219.244 29.6743C219.244 29.1213 218.625 28.6714 217.864 28.6714H152.789Z" fill="#E6E6E6"/>
<path d="M224.57 131.516H147.388C147.009 131.515 146.646 131.364 146.378 131.096C146.11 130.827 145.959 130.463 145.959 130.083V94.8453C145.959 94.4655 146.11 94.1013 146.378 93.8327C146.646 93.5641 147.009 93.413 147.388 93.4126H224.57C224.949 93.413 225.312 93.5641 225.58 93.8327C225.848 94.1013 225.999 94.4655 226 94.8453V130.083C225.999 130.463 225.848 130.827 225.58 131.096C225.312 131.364 224.949 131.515 224.57 131.516ZM147.388 93.9857C147.161 93.9859 146.943 94.0766 146.782 94.2377C146.621 94.3989 146.531 94.6174 146.531 94.8453V130.083C146.531 130.311 146.621 130.529 146.782 130.69C146.943 130.852 147.161 130.942 147.388 130.943H224.57C224.798 130.942 225.016 130.852 225.176 130.69C225.337 130.529 225.428 130.311 225.428 130.083V94.8453C225.428 94.6174 225.337 94.3989 225.176 94.2377C225.016 94.0766 224.798 93.9859 224.57 93.9857H147.388Z" fill="#3F3D56"/>
<path d="M157.394 110.458C160.709 110.458 163.397 107.764 163.397 104.441C163.397 101.118 160.709 98.4236 157.394 98.4236C154.078 98.4236 151.391 101.118 151.391 104.441C151.391 107.764 154.078 110.458 157.394 110.458Z" fill="#00C389"/>
<path d="M171.258 100.429C170.993 100.429 170.738 100.535 170.551 100.723C170.363 100.911 170.258 101.166 170.258 101.432C170.258 101.698 170.363 101.953 170.551 102.141C170.738 102.329 170.993 102.435 171.258 102.435H218.425C218.69 102.435 218.945 102.329 219.132 102.141C219.32 101.953 219.425 101.698 219.425 101.432C219.425 101.166 219.32 100.911 219.132 100.723C218.945 100.535 218.69 100.429 218.425 100.429H171.258Z" fill="#E6E6E6"/>
<path d="M171.258 106.447C170.993 106.447 170.738 106.552 170.551 106.741C170.363 106.929 170.258 107.184 170.258 107.45C170.258 107.716 170.363 107.971 170.551 108.159C170.738 108.347 170.993 108.453 171.258 108.453H191.554C191.82 108.453 192.074 108.347 192.262 108.159C192.449 107.971 192.555 107.716 192.555 107.45C192.555 107.184 192.449 106.929 192.262 106.741C192.074 106.552 191.82 106.447 191.554 106.447H171.258Z" fill="#E6E6E6"/>
<path d="M152.789 116.067C152.028 116.067 151.408 116.517 151.408 117.07C151.408 117.622 152.028 118.072 152.789 118.072H217.864C218.625 118.072 219.244 117.622 219.244 117.07C219.244 116.517 218.625 116.067 217.864 116.067H152.789Z" fill="#E6E6E6"/>
<path d="M152.789 122.084C152.028 122.084 151.408 122.534 151.408 123.087C151.408 123.64 152.028 124.09 152.789 124.09H217.864C218.625 124.09 219.244 123.64 219.244 123.087C219.244 122.534 218.625 122.084 217.864 122.084H152.789Z" fill="#E6E6E6"/>
<path d="M39.2375 115.293L36.5982 119.278C36.3777 119.673 36.2377 120.108 36.1862 120.557C36.1348 121.006 36.173 121.461 36.2986 121.896C36.4243 122.33 36.6348 122.735 36.918 123.087C37.2011 123.439 37.5513 123.731 37.9481 123.946C38.4425 124.214 38.9953 124.355 39.5573 124.357C40.1193 124.359 40.673 124.221 41.1689 123.956C41.6648 123.691 42.0875 123.307 42.3992 122.838C42.7109 122.369 42.9019 121.83 42.9553 121.269L42.5222 117.575L44.5549 93.6258L48.0221 77.8728L40.8233 75.8242L37.4724 93.539L39.2375 115.293Z" fill="#9F616A"/>
<path d="M76.4649 190.872L69.4885 191.176L53.8271 137.387L36.7086 191.592L30.0566 191.48L40.8071 127.928C37.6441 119.24 39.6969 111.304 44.5987 103.779L45.3358 99.0844L64.332 98.7461L66.1172 116.556L76.4649 190.872Z" fill="#2F2E41"/>
<path d="M71.6153 200.438C72.598 200.888 73.5425 197.138 74.25 198.062C76.9866 201.637 82.3151 200.403 82.1309 199.834C82.3176 199.774 82.4902 199.676 82.6383 199.547C82.7863 199.418 82.9067 199.26 82.9921 199.083C83.0775 198.906 83.1262 198.714 83.1352 198.517C83.1442 198.321 83.1133 198.125 83.0444 197.941C82.962 197.72 82.8274 197.523 82.6522 197.367C82.4771 197.21 82.2666 197.098 82.0388 197.041L79.573 196.423L75.7013 189.598L71.4818 189.063L71.3752 189.237C70.5595 190.555 70.0335 192.032 69.8325 193.57C69.6314 195.108 69.7599 196.671 70.2093 198.155C70.5602 199.282 71.0379 200.174 71.6153 200.438Z" fill="#2F2E41"/>
<path d="M31.4141 200.438C32.3968 200.888 33.3414 197.138 34.0489 198.062C36.7854 201.637 42.1139 200.403 41.9297 199.834C42.1164 199.774 42.2891 199.676 42.4371 199.547C42.5851 199.418 42.7055 199.26 42.7909 199.083C42.8763 198.906 42.925 198.714 42.934 198.517C42.943 198.321 42.9121 198.125 42.8432 197.941C42.7608 197.72 42.6262 197.523 42.4511 197.367C42.2759 197.21 42.0654 197.098 41.8377 197.041L39.3718 196.423L35.5001 189.598L31.2806 189.063L31.174 189.237C30.3583 190.555 29.8324 192.032 29.6313 193.57C29.4303 195.108 29.5587 196.671 30.0081 198.155C30.359 199.282 30.8367 200.174 31.4141 200.438Z" fill="#2F2E41"/>
<path d="M35.8164 89.6339L41.3049 70.8539C41.5667 69.513 42.3491 68.3313 43.4802 67.5687C44.6112 66.8061 45.9981 66.5252 47.3358 66.7876C47.9981 66.9175 48.6285 67.177 49.1908 67.5511C49.7531 67.9253 50.2364 68.4068 50.6131 68.9681C50.9898 69.5295 51.2525 70.1597 51.3862 70.8229C51.5199 71.486 51.522 72.169 51.3924 72.833L46.9052 89.9835C43.6541 86.5519 39.9184 86.7293 35.8164 89.6339Z" fill="#00C389"/>
<path d="M84.3319 72.1472L73.9375 74.4455L74.3844 66.1579H82.8757L88.3475 49.5348L88.2757 45.233C88.1626 44.8361 88.1385 44.4189 88.2051 44.0115C88.2718 43.6041 88.4276 43.2166 88.6613 42.8767C88.8951 42.5368 89.201 42.2529 89.5571 42.0455C89.9132 41.8381 90.3106 41.7122 90.721 41.677C91.1924 41.6365 91.6664 41.7168 92.0983 41.9103C92.5303 42.1039 92.9061 42.4043 93.1904 42.7834C93.4747 43.1626 93.6581 43.6079 93.7235 44.0776C93.789 44.5474 93.7342 45.0261 93.5643 45.4687L91.6942 50.567L89.1325 66.1579C89.1325 67.555 88.6566 68.9103 87.7836 69.9994C86.9107 71.0885 85.6929 71.8462 84.3319 72.1472Z" fill="#9F616A"/>
<path d="M55.9499 60.4463C60.8864 60.4463 64.8881 56.4349 64.8881 51.4867C64.8881 46.5384 60.8864 42.5271 55.9499 42.5271C51.0135 42.5271 47.0117 46.5384 47.0117 51.4867C47.0117 56.4349 51.0135 60.4463 55.9499 60.4463Z" fill="#9F616A"/>
<path d="M57.6253 70.4137L44.4414 70.6376C46.5469 64.0197 47.993 57.832 47.7932 52.7185H57.8487C57.1807 58.5943 57.1058 64.5228 57.6253 70.4137Z" fill="#9F616A"/>
<path d="M66.2274 100.316L44.6146 103.611C41.2003 93.6786 41.0998 82.2164 42.9216 73.7337C42.6975 71.7117 42.9173 69.6651 43.5657 67.7373C44.2141 65.8095 45.2754 64.0472 46.6751 62.574L57.1775 63.6939C58.3879 63.9635 59.5002 64.5635 60.3916 65.4275C61.2829 66.2915 61.9184 67.3858 62.2278 68.5894C66.2799 74.2205 69.2485 79.5487 65.9654 83.1297L66.2274 100.316Z" fill="#00C389"/>
<path d="M79.3008 76.2375L59.8602 74.4456C58.4971 74.4456 57.1899 73.9028 56.226 72.9367C55.2622 71.9705 54.7207 70.6602 54.7207 69.2938C54.7207 67.9275 55.2622 66.6172 56.226 65.651C57.1899 64.6849 58.4971 64.1421 59.8602 64.1421L77.5131 65.262C74.778 69.1193 75.6691 72.7602 79.3008 76.2375Z" fill="#00C389"/>
<path d="M43.7711 68.2691L37.168 68.099C38.222 58.846 38.7709 48.4185 44.1563 43.0584C44.8415 42.3763 45.4566 41.67 46.0706 40.9625C47.2931 39.5536 49.8839 38.7448 52.5327 39.0518L53.8307 39.2023C58.0915 39.6961 67.0289 42.7584 66.7701 45.4334C66.6382 46.7955 66.5493 49.2461 63.3153 49.277C60.7034 52.7898 56.0329 54.7403 57.983 58.0773C61.8846 61.566 56.8078 64.3318 52.7138 66.4158C50.2038 67.6935 47.0198 68.3528 43.7711 68.2691Z" fill="#2F2E41"/>
</svg>
