<svg width="280" height="206" viewBox="0 0 280 206" fill="none" xmlns="http://www.w3.org/2000/svg">
<mask id="mask0" mask-type="alpha" maskUnits="userSpaceOnUse" x="0" y="180" width="280" height="2">
<path d="M0.0332031 180.547H280V181.099H0.0332031V180.547Z" fill="white"/>
</mask>
<g mask="url(#mask0)">
<path fill-rule="evenodd" clip-rule="evenodd" d="M0.0332031 180.892H280V180.754H0.0332031V180.892Z" fill="#EEFFFA"/>
</g>
<path fill-rule="evenodd" clip-rule="evenodd" d="M223.098 186.897H237.005V186.759H223.098V186.897Z" fill="#EEFFFA"/>
<path fill-rule="evenodd" clip-rule="evenodd" d="M241.111 186.828H245.81V186.69H241.111V186.828Z" fill="#EEFFFA"/>
<path fill-rule="evenodd" clip-rule="evenodd" d="M156.82 187.756H185.934V187.618H156.82V187.756Z" fill="#EEFFFA"/>
<path fill-rule="evenodd" clip-rule="evenodd" d="M145.613 189.251H149.954V189.113H145.613V189.251Z" fill="#EEFFFA"/>
<path fill-rule="evenodd" clip-rule="evenodd" d="M55.209 184.881H62.6884V184.743H55.209V184.881Z" fill="#EEFFFA"/>
<path fill-rule="evenodd" clip-rule="evenodd" d="M65.8008 184.88H103.746V184.742H65.8008V184.88Z" fill="#EEFFFA"/>
<path fill-rule="evenodd" clip-rule="evenodd" d="M45.002 188.217H71.4015V188.079H45.002V188.217Z" fill="#EEFFFA"/>
<path fill-rule="evenodd" clip-rule="evenodd" d="M24.593 0.138003C22.9074 0.138003 21.5365 1.48932 21.5365 3.15088V152.984C21.5365 154.645 22.9074 155.996 24.593 155.996H132.729C134.413 155.996 135.784 154.645 135.784 152.984V3.15088C135.784 1.48932 134.413 0.138003 132.729 0.138003H24.593ZM132.729 156.134H24.593C22.8301 156.134 21.3965 154.721 21.3965 152.984V3.15088C21.3965 1.4137 22.8301 0 24.593 0H132.729C134.49 0 135.924 1.4137 135.924 3.15088V152.984C135.924 154.721 134.49 156.134 132.729 156.134Z" fill="#EEFFFA"/>
<path fill-rule="evenodd" clip-rule="evenodd" d="M145.719 0.138003C144.034 0.138003 142.663 1.48932 142.663 3.15088V152.984C142.663 154.645 144.034 155.996 145.719 155.996H253.855C255.54 155.996 256.911 154.645 256.911 152.984V3.15088C256.911 1.48932 255.54 0.138003 253.855 0.138003H145.719ZM253.855 156.134H145.719C143.957 156.134 142.523 154.721 142.523 152.984V3.15088C142.523 1.4137 143.957 0 145.719 0H253.855C255.617 0 257.051 1.4137 257.051 3.15088V152.984C257.051 154.721 255.617 156.134 253.855 156.134Z" fill="#EEFFFA"/>
<path fill-rule="evenodd" clip-rule="evenodd" d="M191.381 180.754H211.166V145.361H191.381V180.754Z" fill="#EEFFFA"/>
<path fill-rule="evenodd" clip-rule="evenodd" d="M190.291 149.027H211.168V141.653H190.291V149.027Z" fill="#EEFFFA"/>
<path fill-rule="evenodd" clip-rule="evenodd" d="M42.0762 88.8374H108.675V10.5088H42.0762V88.8374Z" fill="#EEFFFA"/>
<path fill-rule="evenodd" clip-rule="evenodd" d="M43.5 88.8374H111.723V10.5088H43.5V88.8374Z" fill="#00C389"/>
<path fill-rule="evenodd" clip-rule="evenodd" d="M42.0762 94.4196H108.675V88.8387H42.0762V94.4196Z" fill="#EEFFFA"/>
<path fill-rule="evenodd" clip-rule="evenodd" d="M48.5742 94.4196H116.796V88.8387H48.5742V94.4196Z" fill="#00C389"/>
<path fill-rule="evenodd" clip-rule="evenodd" d="M47.7637 84.6326H107.455V14.7139H47.7637V84.6326Z" fill="#F3F9FB"/>
<path fill-rule="evenodd" clip-rule="evenodd" d="M55.0938 84.6326L80.1308 14.7139H91.9496L66.9126 84.6326H55.0938Z" fill="#FFFFFE"/>
<path fill-rule="evenodd" clip-rule="evenodd" d="M49.7419 60.9102C49.5729 60.9102 49.4355 60.7755 49.4355 60.6099V17.4487C49.4355 17.2831 49.5729 17.1484 49.7419 17.1484C49.9114 17.1484 50.0482 17.2831 50.0482 17.4487V60.6099C50.0482 60.7755 49.9114 60.9102 49.7419 60.9102Z" fill="#D7E7EF"/>
<path fill-rule="evenodd" clip-rule="evenodd" d="M69.4512 84.6326L94.4883 14.7139H99.0959L74.0589 84.6326H69.4512Z" fill="#FFFFFE"/>
<path fill-rule="evenodd" clip-rule="evenodd" d="M106.912 84.6326H107.457V14.7139H106.912V84.6326Z" fill="#EEFFFA"/>
<path fill-rule="evenodd" clip-rule="evenodd" d="M163.201 88.8374H229.8V10.5088H163.201V88.8374Z" fill="#EEFFFA"/>
<path fill-rule="evenodd" clip-rule="evenodd" d="M164.625 88.8374H232.848V10.5088H164.625V88.8374Z" fill="#00C389"/>
<path fill-rule="evenodd" clip-rule="evenodd" d="M163.201 94.4196H229.8V88.8387H163.201V94.4196Z" fill="#EEFFFA"/>
<path fill-rule="evenodd" clip-rule="evenodd" d="M169.703 94.4185H237.926V88.8376H169.703V94.4185Z" fill="#00C389"/>
<path fill-rule="evenodd" clip-rule="evenodd" d="M168.891 84.6326H228.582V14.7139H168.891V84.6326Z" fill="#F3F9FB"/>
<path fill-rule="evenodd" clip-rule="evenodd" d="M176.221 84.6326L201.258 14.7139H213.077L188.04 84.6326H176.221Z" fill="#FFFFFE"/>
<path fill-rule="evenodd" clip-rule="evenodd" d="M170.867 60.9111C170.697 60.9111 170.561 60.7765 170.561 60.6108V17.4497C170.561 17.2841 170.697 17.1494 170.867 17.1494C171.036 17.1494 171.173 17.2841 171.173 17.4497V60.6108C171.173 60.7765 171.036 60.9111 170.867 60.9111Z" fill="#D7E7EF"/>
<path fill-rule="evenodd" clip-rule="evenodd" d="M190.576 84.6326L215.613 14.7139H220.221L195.184 84.6326H190.576Z" fill="#FFFFFE"/>
<path fill-rule="evenodd" clip-rule="evenodd" d="M228.043 84.6326H228.588V14.7139H228.043V84.6326Z" fill="#EEFFFA"/>
<path fill-rule="evenodd" clip-rule="evenodd" d="M164.801 180.755H178.099V131.105H164.801V180.755Z" fill="#EEFFFA"/>
<path fill-rule="evenodd" clip-rule="evenodd" d="M175.572 180.754H178.098V174.673H172.924L175.572 180.754Z" fill="#00C389"/>
<path fill-rule="evenodd" clip-rule="evenodd" d="M35.7305 180.754H49.0282V131.104H35.7305V180.754Z" fill="#EEFFFA"/>
<path fill-rule="evenodd" clip-rule="evenodd" d="M46.8242 177.409H178.097V131.104H46.8242V177.409Z" fill="#00C389"/>
<path fill-rule="evenodd" clip-rule="evenodd" d="M113.311 166.488H176.14V133.423H113.311V166.488Z" fill="#EEFFFA"/>
<path fill-rule="evenodd" clip-rule="evenodd" d="M48.7832 166.488H111.613V133.423H48.7832V166.488Z" fill="#EEFFFA"/>
<path fill-rule="evenodd" clip-rule="evenodd" d="M113.311 173.481H176.14V169.8H113.311V173.481Z" fill="#EEFFFA"/>
<path fill-rule="evenodd" clip-rule="evenodd" d="M48.7832 173.48H111.613V169.8H48.7832V173.48Z" fill="#EEFFFA"/>
<path fill-rule="evenodd" clip-rule="evenodd" d="M102.333 135.403H58.0684C56.0798 135.403 54.1781 134.597 52.8105 133.174H107.591C106.223 134.597 104.322 135.403 102.333 135.403Z" fill="#00C389"/>
<path fill-rule="evenodd" clip-rule="evenodd" d="M167.09 135.403H122.827C120.838 135.403 118.936 134.597 117.568 133.174H172.349C170.981 134.597 169.079 135.403 167.09 135.403Z" fill="#00C389"/>
<path fill-rule="evenodd" clip-rule="evenodd" d="M49.3498 180.754H46.8242V174.673H51.9981L49.3498 180.754Z" fill="#00C389"/>
<path fill-rule="evenodd" clip-rule="evenodd" d="M128.734 106.52C128.605 106.439 128.462 106.379 128.309 106.346V100.624L128.734 106.52Z" fill="#E5EEF4"/>
<path fill-rule="evenodd" clip-rule="evenodd" d="M155.55 131.105H130.493L128.133 98.1921H153.189L155.55 131.105Z" fill="#EEFFFA"/>
<path fill-rule="evenodd" clip-rule="evenodd" d="M158.401 131.105H131.204L128.844 98.1921H156.041L158.401 131.105Z" fill="#EFF5F8"/>
<path fill-rule="evenodd" clip-rule="evenodd" d="M132.461 129.846L130.281 99.4491H154.785L156.965 129.846H132.461Z" fill="#FFFFFE"/>
<path fill-rule="evenodd" clip-rule="evenodd" d="M138.393 123.038L137.189 106.257H148.854L150.058 123.038H138.393Z" fill="#EFF5F8"/>
<path fill-rule="evenodd" clip-rule="evenodd" d="M95.7499 119.288C95.7499 122.832 92.8351 125.705 89.2399 125.705C85.6453 125.705 82.7305 122.832 82.7305 119.288C82.7305 115.744 85.6453 112.872 89.2399 112.872C92.8351 112.872 95.7499 115.744 95.7499 119.288Z" fill="#00C389"/>
<path fill-rule="evenodd" clip-rule="evenodd" d="M106.89 122.347C106.89 125.891 103.976 128.764 100.381 128.764C96.7859 128.764 93.8711 125.891 93.8711 122.347C93.8711 118.803 96.7859 115.93 100.381 115.93C103.976 115.93 106.89 118.803 106.89 122.347Z" fill="#00C389"/>
<path fill-rule="evenodd" clip-rule="evenodd" d="M114.14 119.675C114.14 122.039 112.196 123.954 109.8 123.954C107.402 123.954 105.459 122.039 105.459 119.675C105.459 117.313 107.402 115.397 109.8 115.397C112.196 115.397 114.14 117.313 114.14 119.675Z" fill="#00C389"/>
<path fill-rule="evenodd" clip-rule="evenodd" d="M100.089 115.397C100.089 117.76 98.1456 119.675 95.7488 119.675C93.3514 119.675 91.4082 117.76 91.4082 115.397C91.4082 113.033 93.3514 111.118 95.7488 111.118C98.1456 111.118 100.089 113.033 100.089 115.397Z" fill="#00C389"/>
<path fill-rule="evenodd" clip-rule="evenodd" d="M78.832 121.2C78.832 121.2 79.3416 131.105 98.8683 131.105C118.395 131.105 118.905 121.2 118.905 121.2H78.832Z" fill="#EEFFFA"/>
<path fill-rule="evenodd" clip-rule="evenodd" d="M60.7937 127.712C60.7937 127.712 54.4326 116.904 63.2577 108.3C63.2577 108.3 65.561 109.78 65.5257 111.769C65.4904 113.758 63.0589 114.261 63.5814 115.922C64.1044 117.581 66.3993 119.211 64.8929 120.583C63.3865 121.955 65.1354 123.177 65.034 124.859C64.9321 126.54 60.7937 127.712 60.7937 127.712Z" fill="#EEFFFA"/>
<path fill-rule="evenodd" clip-rule="evenodd" d="M61.2793 128.7C61.2793 128.7 63.8581 116.466 52.7315 111.044C52.7315 111.044 51.0184 113.164 51.6888 115.04C52.3585 116.917 54.827 116.639 54.8623 118.377C54.8976 120.115 53.24 122.374 55.1087 123.208C56.978 124.043 55.7084 125.746 56.3429 127.309C56.978 128.874 61.2793 128.7 61.2793 128.7Z" fill="#EEFFFA"/>
<path fill-rule="evenodd" clip-rule="evenodd" d="M51.5332 123.04C51.5332 123.04 51.7449 131.103 59.8548 131.103C67.9648 131.103 68.1764 123.04 68.1764 123.04H51.5332Z" fill="#00C389"/>
<path fill-rule="evenodd" clip-rule="evenodd" d="M248.578 199.434C248.578 202.887 199.966 205.685 140 205.685C80.0339 205.685 31.4219 202.887 31.4219 199.434C31.4219 195.982 80.0339 193.183 140 193.183C199.966 193.183 248.578 195.982 248.578 199.434Z" fill="#E0F4EE"/>
<path fill-rule="evenodd" clip-rule="evenodd" d="M101.055 120.052C100.333 120.052 99.748 119.476 99.748 118.765C99.748 118.054 100.333 117.478 101.055 117.478C104.254 117.478 106.957 112.955 106.957 107.603C106.957 106.892 107.542 106.315 108.263 106.315C108.984 106.315 109.569 106.892 109.569 107.603C109.569 114.584 105.829 120.052 101.055 120.052Z" fill="#00C389"/>
<path fill-rule="evenodd" clip-rule="evenodd" d="M120.818 120.053C120.096 120.053 119.512 119.477 119.512 118.766C119.512 118.055 120.096 117.478 120.818 117.478C124.017 117.478 126.72 112.956 126.72 107.603C126.72 106.892 127.305 106.316 128.027 106.316C128.748 106.316 129.332 106.892 129.332 107.603C129.332 114.585 125.593 120.053 120.818 120.053Z" fill="#00C389"/>
<path fill-rule="evenodd" clip-rule="evenodd" d="M140.575 120.052C139.854 120.052 139.27 119.476 139.27 118.765C139.27 118.054 139.854 117.478 140.575 117.478C143.775 117.478 146.478 112.955 146.478 107.603C146.478 106.892 147.063 106.315 147.784 106.315C148.506 106.315 149.09 106.892 149.09 107.603C149.09 114.584 145.351 120.052 140.575 120.052Z" fill="#00C389"/>
<path fill-rule="evenodd" clip-rule="evenodd" d="M160.337 120.052C159.616 120.052 159.031 119.476 159.031 118.765C159.031 118.054 159.616 117.478 160.337 117.478C163.537 117.478 166.24 112.955 166.24 107.603C166.24 106.892 166.825 106.315 167.546 106.315C168.268 106.315 168.852 106.892 168.852 107.603C168.852 114.584 165.112 120.052 160.337 120.052Z" fill="#00C389"/>
<path fill-rule="evenodd" clip-rule="evenodd" d="M180.099 120.053C179.378 120.053 178.793 119.477 178.793 118.766C178.793 118.055 179.378 117.478 180.099 117.478C183.298 117.478 186.001 112.956 186.001 107.603C186.001 106.892 186.586 106.316 187.308 106.316C188.029 106.316 188.614 106.892 188.614 107.603C188.614 114.585 184.874 120.053 180.099 120.053Z" fill="#00C389"/>
<path fill-rule="evenodd" clip-rule="evenodd" d="M199.861 120.052C199.139 120.052 198.555 119.476 198.555 118.765C198.555 118.054 199.139 117.478 199.861 117.478C203.059 117.478 205.763 112.955 205.763 107.603C205.763 106.892 206.348 106.315 207.069 106.315C207.79 106.315 208.375 106.892 208.375 107.603C208.375 114.584 204.635 120.052 199.861 120.052Z" fill="#00C389"/>
<mask id="mask1" mask-type="alpha" maskUnits="userSpaceOnUse" x="208" y="108" width="22" height="88">
<path d="M229.448 195.889C225.732 195.579 221.539 195.288 216.933 195.022C217.104 194.501 217.207 193.953 217.232 193.388L217.805 180.891H228.639L229.167 186.759H223.098V186.897H229.179L229.763 193.388C229.843 194.277 229.726 195.123 229.448 195.889ZM225.109 141.653H219.602L220.818 115.099C220.974 111.7 218.28 108.919 214.832 108.919H208.33H215.894C219.342 108.919 222.414 111.7 222.72 115.099L225.109 141.653Z" fill="white"/>
</mask>
<g mask="url(#mask1)">
<path fill-rule="evenodd" clip-rule="evenodd" d="M208.33 195.889H229.843V108.919H208.33V195.889Z" fill="#6FCF97"/>
</g>
<path fill-rule="evenodd" clip-rule="evenodd" d="M228.635 180.892H217.801L217.807 180.754H228.622L228.635 180.892Z" fill="#6FCF97"/>
<path fill-rule="evenodd" clip-rule="evenodd" d="M229.178 186.897H223.098V186.759H229.166L229.178 186.897Z" fill="#6FCF97"/>
<path fill-rule="evenodd" clip-rule="evenodd" d="M228.623 180.753H217.809L219.219 149.955H225.853L228.623 180.753Z" fill="#6FCF97"/>
<path fill-rule="evenodd" clip-rule="evenodd" d="M225.854 149.956H219.221L219.263 149.027H225.77L225.854 149.956Z" fill="#6FCF97"/>
<path fill-rule="evenodd" clip-rule="evenodd" d="M225.773 149.027H219.266L219.604 141.653H225.11L225.773 149.027Z" fill="#6FCF97"/>
<path fill-rule="evenodd" clip-rule="evenodd" d="M224.051 199.569H210.682C213.556 199.569 216.084 197.636 216.935 195.023C221.541 195.289 225.734 195.579 229.45 195.89C228.666 198.052 226.598 199.569 224.051 199.569Z" fill="#6FCF97"/>
<path fill-rule="evenodd" clip-rule="evenodd" d="M214.83 108.919H87.6062C84.1577 108.919 81.2093 111.7 81.0536 115.099L77.4674 193.388C77.3117 196.787 80.0058 199.568 83.4538 199.568H210.678C214.126 199.568 217.075 196.787 217.231 193.388L220.816 115.099C220.973 111.7 218.278 108.919 214.83 108.919Z" fill="#00C389"/>
<path fill-rule="evenodd" clip-rule="evenodd" d="M209.024 113.772H92.9727C93.2381 112.685 94.2467 111.864 95.4126 111.864H206.759C207.925 111.864 208.859 112.685 209.024 113.772Z" fill="#00C389"/>
<path fill-rule="evenodd" clip-rule="evenodd" d="M211.872 116.22H208.955L209.046 114.228C209.054 114.073 209.045 113.921 209.023 113.773H209.466C210.845 113.773 211.914 114.865 211.871 116.22H211.872ZM92.8149 116.22H89.8984C89.9802 114.865 91.1495 113.773 92.5276 113.773H92.9712C92.9353 113.921 92.9135 114.073 92.9062 114.228L92.8149 116.22Z" fill="#00C389"/>
<path fill-rule="evenodd" clip-rule="evenodd" d="M208.957 116.219H92.8164L92.9077 114.227C92.915 114.071 92.9368 113.92 92.9726 113.772H209.024C209.047 113.92 209.055 114.071 209.048 114.227L208.957 116.219Z" fill="#06AD7B"/>
<path fill-rule="evenodd" clip-rule="evenodd" d="M83.9109 189.632L87.155 118.806C87.2205 117.377 88.4492 116.219 89.899 116.219H211.872C213.323 116.219 214.444 117.377 214.379 118.806L211.135 189.632C211.069 191.061 209.841 192.22 208.391 192.22H86.418C84.9682 192.22 83.8454 191.061 83.9109 189.632Z" fill="#FFFFFE"/>
<path fill-rule="evenodd" clip-rule="evenodd" d="M106.523 147.484H93.5794C92.3715 147.484 91.4279 146.511 91.4827 145.32L92.0668 132.561C92.1217 131.371 93.1544 130.396 94.3617 130.396H107.306C108.513 130.396 109.457 131.371 109.402 132.561L108.818 145.32C108.763 146.511 107.731 147.484 106.523 147.484Z" fill="#CBFFEF"/>
<path fill-rule="evenodd" clip-rule="evenodd" d="M126.283 147.484H113.339C112.132 147.484 111.188 146.511 111.242 145.32L111.827 132.561C111.881 131.371 112.914 130.396 114.122 130.396H127.066C128.274 130.396 129.217 131.371 129.162 132.561L128.578 145.32C128.524 146.511 127.491 147.484 126.283 147.484Z" fill="#CBFFEF"/>
<path fill-rule="evenodd" clip-rule="evenodd" d="M146.043 147.484H133.099C131.891 147.484 130.947 146.511 131.002 145.32L131.586 132.561C131.641 131.371 132.674 130.396 133.881 130.396H146.825C148.033 130.396 148.976 131.371 148.922 132.561L148.338 145.32C148.283 146.511 147.25 147.484 146.043 147.484Z" fill="#CBFFEF"/>
<path fill-rule="evenodd" clip-rule="evenodd" d="M165.804 147.484H152.861C151.653 147.484 150.71 146.511 150.764 145.32L151.349 132.561C151.403 131.371 152.436 130.396 153.643 130.396H166.587C167.795 130.396 168.738 131.371 168.684 132.561L168.099 145.32C168.045 146.511 167.012 147.484 165.804 147.484Z" fill="#CBFFEF"/>
<path fill-rule="evenodd" clip-rule="evenodd" d="M185.568 147.484H172.624C171.416 147.484 170.473 146.511 170.528 145.32L171.112 132.561C171.166 131.371 172.199 130.396 173.407 130.396H186.351C187.558 130.396 188.501 131.371 188.447 132.561L187.863 145.32C187.808 146.511 186.775 147.484 185.568 147.484Z" fill="#CBFFEF"/>
<path fill-rule="evenodd" clip-rule="evenodd" d="M205.327 147.484H192.384C191.176 147.484 190.233 146.511 190.287 145.32L190.872 132.561C190.926 131.371 191.959 130.396 193.166 130.396H206.111C207.318 130.396 208.262 131.371 208.207 132.561L207.623 145.32C207.568 146.511 206.535 147.484 205.327 147.484Z" fill="#CBFFEF"/>
<path fill-rule="evenodd" clip-rule="evenodd" d="M199.839 120.465H199.838C198.858 120.465 198.092 119.675 198.137 118.71V118.706C198.179 117.804 198.962 117.065 199.879 117.065C200.859 117.065 201.625 117.855 201.581 118.821V118.824C201.54 119.727 200.756 120.465 199.839 120.465Z" fill="#00C389"/>
<path fill-rule="evenodd" clip-rule="evenodd" d="M180.079 120.465H180.079C179.099 120.465 178.333 119.675 178.377 118.71V118.706C178.418 117.804 179.202 117.065 180.119 117.065C181.1 117.065 181.866 117.855 181.821 118.821L181.821 118.824C181.779 119.727 180.996 120.465 180.079 120.465Z" fill="#00C389"/>
<path fill-rule="evenodd" clip-rule="evenodd" d="M160.319 120.465H160.319C159.338 120.465 158.573 119.675 158.617 118.71V118.706C158.658 117.804 159.442 117.065 160.359 117.065C161.339 117.065 162.105 117.855 162.061 118.821V118.824C162.019 119.727 161.236 120.465 160.319 120.465Z" fill="#00C389"/>
<path fill-rule="evenodd" clip-rule="evenodd" d="M140.556 120.465H140.556C139.575 120.465 138.809 119.675 138.853 118.71L138.854 118.706C138.895 117.804 139.679 117.065 140.596 117.065C141.576 117.065 142.342 117.855 142.298 118.821V118.824C142.256 119.727 141.473 120.465 140.556 120.465Z" fill="#00C389"/>
<path fill-rule="evenodd" clip-rule="evenodd" d="M120.798 120.465C119.817 120.465 119.051 119.675 119.096 118.71V118.706C119.137 117.804 119.921 117.065 120.838 117.065C121.818 117.065 122.584 117.855 122.54 118.821V118.824C122.498 119.727 121.715 120.465 120.798 120.465Z" fill="#00C389"/>
<path fill-rule="evenodd" clip-rule="evenodd" d="M101.037 120.465H101.036C100.056 120.465 99.2901 119.675 99.3338 118.71L99.3344 118.706C99.3758 117.804 100.159 117.065 101.076 117.065C102.057 117.065 102.823 117.855 102.778 118.821L102.778 118.824C102.737 119.727 101.953 120.465 101.037 120.465Z" fill="#00C389"/>
<path fill-rule="evenodd" clip-rule="evenodd" d="M105.977 126.634H96.0377C95.4341 126.634 94.962 126.147 94.9894 125.551C95.0169 124.956 95.5332 124.469 96.1369 124.469H106.076C106.68 124.469 107.152 124.956 107.124 125.551C107.097 126.147 106.58 126.634 105.977 126.634Z" fill="#09694D"/>
<path fill-rule="evenodd" clip-rule="evenodd" d="M125.737 126.634H115.797C115.194 126.634 114.722 126.147 114.749 125.551C114.777 124.956 115.293 124.469 115.897 124.469H125.836C126.44 124.469 126.911 124.956 126.884 125.551C126.857 126.147 126.341 126.634 125.737 126.634Z" fill="#09694D"/>
<path fill-rule="evenodd" clip-rule="evenodd" d="M145.494 126.634H135.555C134.952 126.634 134.48 126.147 134.507 125.551C134.534 124.956 135.051 124.469 135.654 124.469H145.593C146.197 124.469 146.669 124.956 146.642 125.551C146.614 126.147 146.098 126.634 145.494 126.634Z" fill="#09694D"/>
<path fill-rule="evenodd" clip-rule="evenodd" d="M165.256 126.634H155.317C154.713 126.634 154.242 126.147 154.269 125.551C154.296 124.956 154.812 124.469 155.416 124.469H165.355C165.959 124.469 166.431 124.956 166.403 125.551C166.376 126.147 165.86 126.634 165.256 126.634Z" fill="#09694D"/>
<path fill-rule="evenodd" clip-rule="evenodd" d="M185.02 126.634H175.081C174.476 126.634 174.005 126.147 174.032 125.551C174.059 124.956 174.576 124.469 175.179 124.469H185.118C185.723 124.469 186.194 124.956 186.166 125.551C186.14 126.147 185.623 126.634 185.02 126.634Z" fill="#09694D"/>
<path fill-rule="evenodd" clip-rule="evenodd" d="M204.781 126.634H194.842C194.239 126.634 193.767 126.147 193.794 125.551C193.821 124.956 194.337 124.469 194.941 124.469H204.88C205.485 124.469 205.956 124.956 205.929 125.551C205.902 126.147 205.386 126.634 204.781 126.634Z" fill="#09694D"/>
<path fill-rule="evenodd" clip-rule="evenodd" d="M105.615 167.284H92.6711C91.4638 167.284 90.5202 166.309 90.5745 165.119L91.1591 152.359C91.2135 151.169 92.2467 150.195 93.454 150.195H106.398C107.605 150.195 108.549 151.169 108.495 152.359L107.91 165.119C107.856 166.309 106.823 167.284 105.615 167.284Z" fill="#CBFFEF"/>
<path fill-rule="evenodd" clip-rule="evenodd" d="M125.377 167.284H112.433C111.225 167.284 110.281 166.309 110.336 165.119L110.92 152.359C110.975 151.169 112.008 150.195 113.215 150.195H126.159C127.367 150.195 128.311 151.169 128.256 152.359L127.672 165.119C127.617 166.309 126.584 167.284 125.377 167.284Z" fill="#CBFFEF"/>
<path fill-rule="evenodd" clip-rule="evenodd" d="M145.136 167.284H132.193C130.985 167.284 130.042 166.309 130.096 165.119L130.681 152.359C130.735 151.169 131.768 150.195 132.976 150.195H145.919C147.127 150.195 148.07 151.169 148.015 152.359L147.431 165.119C147.377 166.309 146.344 167.284 145.136 167.284Z" fill="#CBFFEF"/>
<path fill-rule="evenodd" clip-rule="evenodd" d="M164.896 167.284H151.952C150.745 167.284 149.801 166.309 149.856 165.119L150.44 152.359C150.494 151.169 151.527 150.195 152.735 150.195H165.679C166.887 150.195 167.83 151.169 167.775 152.359L167.191 165.119C167.136 166.309 166.104 167.284 164.896 167.284Z" fill="#CBFFEF"/>
<path fill-rule="evenodd" clip-rule="evenodd" d="M184.66 167.284H171.716C170.509 167.284 169.565 166.309 169.619 165.119L170.204 152.359C170.258 151.169 171.291 150.195 172.498 150.195H185.443C186.65 150.195 187.594 151.169 187.539 152.359L186.955 165.119C186.9 166.309 185.867 167.284 184.66 167.284Z" fill="#CBFFEF"/>
<path fill-rule="evenodd" clip-rule="evenodd" d="M204.421 167.284H191.477C190.27 167.284 189.326 166.309 189.381 165.119L189.965 152.359C190.02 151.169 191.052 150.195 192.26 150.195H205.204C206.412 150.195 207.355 151.169 207.301 152.359L206.717 165.119C206.662 166.309 205.628 167.284 204.421 167.284Z" fill="#CBFFEF"/>
<path fill-rule="evenodd" clip-rule="evenodd" d="M104.706 187.082H91.763C90.5551 187.082 89.6115 186.108 89.6663 184.918L90.251 172.159C90.3053 170.968 91.3379 169.994 92.5459 169.994H105.489C106.697 169.994 107.641 170.968 107.586 172.159L107.002 184.918C106.947 186.108 105.914 187.082 104.706 187.082Z" fill="#CBFFEF"/>
<path fill-rule="evenodd" clip-rule="evenodd" d="M124.47 187.082H111.527C110.319 187.082 109.376 186.108 109.43 184.918L110.015 172.159C110.069 170.968 111.102 169.994 112.309 169.994H125.253C126.461 169.994 127.404 170.968 127.35 172.159L126.765 184.918C126.711 186.108 125.678 187.082 124.47 187.082Z" fill="#CBFFEF"/>
<path fill-rule="evenodd" clip-rule="evenodd" d="M144.23 187.082H131.286C130.078 187.082 129.135 186.108 129.19 184.918L129.774 172.159C129.828 170.968 130.861 169.994 132.069 169.994H145.013C146.22 169.994 147.164 170.968 147.109 172.159L146.525 184.918C146.471 186.108 145.438 187.082 144.23 187.082Z" fill="#CBFFEF"/>
<path fill-rule="evenodd" clip-rule="evenodd" d="M163.99 187.082H151.047C149.838 187.082 148.895 186.108 148.949 184.918L149.534 172.159C149.588 170.968 150.621 169.994 151.829 169.994H164.772C165.981 169.994 166.924 170.968 166.869 172.159L166.285 184.918C166.231 186.108 165.198 187.082 163.99 187.082Z" fill="#CBFFEF"/>
<path fill-rule="evenodd" clip-rule="evenodd" d="M183.754 187.083H170.81C169.602 187.083 168.659 186.109 168.713 184.918L169.298 172.16C169.352 170.969 170.385 169.995 171.593 169.995H184.537C185.744 169.995 186.688 170.969 186.634 172.16L186.049 184.918C185.994 186.109 184.962 187.083 183.754 187.083Z" fill="#CBFFEF"/>
<path fill-rule="evenodd" clip-rule="evenodd" d="M203.513 187.082H190.57C189.362 187.082 188.419 186.108 188.473 184.918L189.058 172.159C189.112 170.968 190.145 169.994 191.352 169.994H204.296C205.504 169.994 206.447 170.968 206.393 172.159L205.808 184.918C205.754 186.108 204.721 187.082 203.513 187.082Z" fill="#CBFFEF"/>
<path fill-rule="evenodd" clip-rule="evenodd" d="M101.056 120.053C96.2807 120.053 92.541 114.585 92.541 107.604C92.541 100.623 96.2807 95.1542 101.056 95.1542C105.83 95.1542 109.571 100.623 109.571 107.604C109.571 108.315 108.985 108.891 108.264 108.891C107.543 108.891 106.958 108.315 106.958 107.604C106.958 102.251 104.255 97.7293 101.056 97.7293C97.856 97.7293 95.1534 102.251 95.1534 107.604C95.1534 112.956 97.856 117.479 101.056 117.479C101.777 117.479 102.362 118.055 102.362 118.766C102.362 119.477 101.777 120.053 101.056 120.053Z" fill="#09694D"/>
<path fill-rule="evenodd" clip-rule="evenodd" d="M120.816 120.053C116.041 120.053 112.301 114.585 112.301 107.604C112.301 100.623 116.041 95.1542 120.816 95.1542C125.591 95.1542 129.33 100.623 129.33 107.604C129.33 108.315 128.746 108.891 128.024 108.891C127.303 108.891 126.718 108.315 126.718 107.604C126.718 102.251 124.015 97.7293 120.816 97.7293C117.616 97.7293 114.913 102.251 114.913 107.604C114.913 112.956 117.616 117.479 120.816 117.479C121.537 117.479 122.122 118.055 122.122 118.766C122.122 119.477 121.537 120.053 120.816 120.053Z" fill="#09694D"/>
<path fill-rule="evenodd" clip-rule="evenodd" d="M140.577 120.053C135.803 120.053 132.062 114.585 132.062 107.604C132.062 100.623 135.803 95.1542 140.577 95.1542C145.352 95.1542 149.092 100.623 149.092 107.604C149.092 108.315 148.507 108.891 147.786 108.891C147.065 108.891 146.48 108.315 146.48 107.604C146.48 102.251 143.777 97.7293 140.577 97.7293C137.378 97.7293 134.675 102.251 134.675 107.604C134.675 112.956 137.378 117.479 140.577 117.479C141.299 117.479 141.883 118.055 141.883 118.766C141.883 119.477 141.299 120.053 140.577 120.053Z" fill="#09694D"/>
<path fill-rule="evenodd" clip-rule="evenodd" d="M160.337 120.053C155.562 120.053 151.822 114.585 151.822 107.604C151.822 100.623 155.562 95.1542 160.337 95.1542C165.112 95.1542 168.851 100.623 168.851 107.604C168.851 108.315 168.267 108.891 167.545 108.891C166.824 108.891 166.239 108.315 166.239 107.604C166.239 102.251 163.536 97.7293 160.337 97.7293C157.138 97.7293 154.434 102.251 154.434 107.604C154.434 112.956 157.138 117.479 160.337 117.479C161.058 117.479 161.642 118.055 161.642 118.766C161.642 119.477 161.058 120.053 160.337 120.053Z" fill="#09694D"/>
<path fill-rule="evenodd" clip-rule="evenodd" d="M180.097 120.053C175.322 120.053 171.582 114.585 171.582 107.604C171.582 100.623 175.322 95.1542 180.097 95.1542C184.872 95.1542 188.612 100.623 188.612 107.604C188.612 108.315 188.027 108.891 187.306 108.891C186.584 108.891 186 108.315 186 107.604C186 102.251 183.296 97.7293 180.097 97.7293C176.898 97.7293 174.194 102.251 174.194 107.604C174.194 112.956 176.898 117.479 180.097 117.479C180.819 117.479 181.403 118.055 181.403 118.766C181.403 119.477 180.819 120.053 180.097 120.053Z" fill="#09694D"/>
<path fill-rule="evenodd" clip-rule="evenodd" d="M199.86 120.053C195.085 120.053 191.346 114.585 191.346 107.604C191.346 100.623 195.085 95.1542 199.86 95.1542C204.635 95.1542 208.374 100.623 208.374 107.604C208.374 108.315 207.79 108.891 207.068 108.891C206.347 108.891 205.762 108.315 205.762 107.604C205.762 102.251 203.059 97.7293 199.86 97.7293C196.661 97.7293 193.958 102.251 193.958 107.604C193.958 112.956 196.661 117.479 199.86 117.479C200.581 117.479 201.166 118.055 201.166 118.766C201.166 119.477 200.581 120.053 199.86 120.053Z" fill="#09694D"/>
<path fill-rule="evenodd" clip-rule="evenodd" d="M161.661 148.197C157.092 147.302 151.958 148.344 150.129 153.094C148.659 156.913 150.542 161.055 154.626 162.064C158.21 162.95 164.392 161.866 165.669 157.79C167.129 153.132 161.206 151.621 157.858 151.343C156.853 151.259 156.858 152.805 157.858 152.888C159.378 153.014 161.111 153.097 162.453 153.919C165.273 155.647 164.102 158.419 161.713 159.744C159.375 161.042 155.676 161.406 153.338 159.935C150.764 158.314 150.68 154.757 152.209 152.441C154.231 149.377 157.918 149.036 161.244 149.687C162.23 149.88 162.651 148.391 161.661 148.197Z" fill="#09694D"/>
<path fill-rule="evenodd" clip-rule="evenodd" d="M124.029 131.389C119.459 130.493 114.325 131.536 112.496 136.285C111.026 140.104 112.909 144.247 116.993 145.256C120.577 146.141 126.759 145.057 128.037 140.982C129.496 136.323 123.573 134.812 120.226 134.535C119.22 134.451 119.225 135.996 120.226 136.079C121.745 136.206 123.478 136.288 124.82 137.111C127.64 138.839 126.469 141.611 124.081 142.936C121.743 144.233 118.043 144.598 115.705 143.126C113.132 141.505 113.048 137.948 114.576 135.633C116.598 132.568 120.286 132.227 123.611 132.879C124.597 133.071 125.019 131.583 124.029 131.389Z" fill="#09694D"/>
<path fill-rule="evenodd" clip-rule="evenodd" d="M173.527 135.36C176.933 135.36 180.338 135.36 183.744 135.36C184.752 135.36 184.754 133.815 183.744 133.815C180.338 133.815 176.933 133.815 173.527 133.815C172.518 133.815 172.516 135.36 173.527 135.36Z" fill="#09694D"/>
<path fill-rule="evenodd" clip-rule="evenodd" d="M173.412 138.221C175.386 138.221 177.359 138.221 179.332 138.221C180.342 138.221 180.343 136.676 179.332 136.676C177.359 136.676 175.386 136.676 173.412 136.676C172.403 136.676 172.401 138.221 173.412 138.221Z" fill="#09694D"/>
<path fill-rule="evenodd" clip-rule="evenodd" d="M112.31 174.901C115.232 174.901 118.154 174.901 121.075 174.901C122.084 174.901 122.086 173.356 121.075 173.356C118.154 173.356 115.232 173.356 112.31 173.356C111.301 173.356 111.3 174.901 112.31 174.901Z" fill="#09694D"/>
<path fill-rule="evenodd" clip-rule="evenodd" d="M111.989 178.221C115.782 178.221 119.575 178.221 123.368 178.221C124.376 178.221 124.378 176.676 123.368 176.676C119.575 176.676 115.782 176.676 111.989 176.676C110.981 176.676 110.979 178.221 111.989 178.221Z" fill="#09694D"/>
<path fill-rule="evenodd" clip-rule="evenodd" d="M111.989 181.653C113.886 181.653 115.782 181.653 117.679 181.653C118.687 181.653 118.689 180.108 117.679 180.108C115.782 180.108 113.886 180.108 111.989 180.108C110.981 180.108 110.979 181.653 111.989 181.653Z" fill="#09694D"/>
<path fill-rule="evenodd" clip-rule="evenodd" d="M50.5056 88.2318L53.1544 88.1132L51.9577 93.0697C51.9577 93.0697 50.4793 92.1053 49.3906 90.8368C48.9359 90.3069 48.9919 89.5164 49.5256 89.0637L50.5056 88.2318Z" fill="#E88274"/>
<path fill-rule="evenodd" clip-rule="evenodd" d="M56.2273 90.7903L55.0379 94.8354L51.9551 93.0706L53.1518 88.1141L56.2273 90.7903Z" fill="#E88274"/>
<path fill-rule="evenodd" clip-rule="evenodd" d="M55.7099 66.8036L50.2891 67.2982L62.7211 199.639L68.1419 199.144L55.7099 66.8036Z" fill="#148B68"/>
<path fill-rule="evenodd" clip-rule="evenodd" d="M66.5522 65.8124L61.1309 66.307L73.5629 198.648L78.9837 198.153L66.5522 65.8124Z" fill="#148B68"/>
<path fill-rule="evenodd" clip-rule="evenodd" d="M61.1303 66.3085L55.709 66.8036L68.141 199.144L73.5624 198.65L61.1303 66.3085Z" fill="#00C389"/>
<path fill-rule="evenodd" clip-rule="evenodd" d="M59.9888 57.0555L55.1095 57.501L50.2891 67.2975L66.5526 65.8132L59.9888 57.0555Z" fill="#D0E0EB"/>
<path fill-rule="evenodd" clip-rule="evenodd" d="M57.1777 53.3026L55.1113 57.5012L59.9906 57.0557L57.1777 53.3026Z" fill="#00C389"/>
<path fill-rule="evenodd" clip-rule="evenodd" d="M98.1565 60.7822C98.7121 61.3525 99.1802 61.857 99.6613 62.4118C100.138 62.9555 100.605 63.5042 101.063 64.0612C101.988 65.1685 102.852 66.3261 103.689 67.5118C105.353 69.8876 106.868 72.4169 108.046 75.2394C108.19 75.5949 108.317 75.9664 108.452 76.3285L108.652 76.8833C108.763 77.2239 108.846 77.57 108.885 77.8967C109.051 79.2304 108.764 80.2632 108.454 81.1382C107.801 82.8742 106.886 84.1361 105.944 85.3307C104.024 87.6795 101.906 89.5767 99.5425 91.3211L97.4291 89.0998C99.0688 87.0187 100.71 84.814 101.979 82.6462C102.601 81.5726 103.138 80.447 103.341 79.5583C103.441 79.1266 103.419 78.7689 103.37 78.7364L103.352 78.7507L103.165 78.3472C103.036 78.0734 102.92 77.7996 102.784 77.5258C101.664 75.3316 100.226 73.1627 98.6404 71.0723C97.8569 70.0201 97.0253 68.9923 96.1864 67.9683C95.767 67.4571 95.3386 66.9509 94.9046 66.4536L93.625 65.0046L98.1565 60.7822Z" fill="#E88274"/>
<path fill-rule="evenodd" clip-rule="evenodd" d="M94.0371 90.8503L96.4261 95.5016L98.759 93.5221L96.8444 90.2117L94.0371 90.8503Z" fill="#E88274"/>
<path fill-rule="evenodd" clip-rule="evenodd" d="M76.074 63.5022C74.6219 66.2286 73.1139 68.9246 71.5487 71.5903C70.7787 72.93 69.9745 74.251 69.1883 75.5824L67.6819 78.0637C67.5307 78.3016 67.3632 78.5837 67.2159 78.7714C67.0636 78.98 66.9102 79.1843 66.7629 79.3576C66.6128 79.5431 66.4633 79.7192 66.316 79.8809C65.1232 81.1925 63.9282 82.2546 62.7107 83.3128C61.4826 84.3467 60.2568 85.3508 58.9946 86.3047C56.4874 88.2334 53.9159 90.0269 51.2509 91.737L49.3301 89.3523L55.9706 82.9131C57.057 81.8317 58.1506 80.7674 59.1861 79.6745C60.2226 78.598 61.2553 77.4891 62.0622 76.4286C62.1681 76.2967 62.2605 76.1698 62.3451 76.0467C62.4408 75.9186 62.5097 75.806 62.578 75.6961C62.6637 75.5736 62.6749 75.5112 62.7303 75.4223L62.989 74.9051L64.029 72.8284C64.7385 71.4523 65.4307 70.0673 66.1564 68.7C67.5827 65.9515 69.0667 63.2339 70.6062 60.5468L76.074 63.5022Z" fill="#E88274"/>
<path fill-rule="evenodd" clip-rule="evenodd" d="M91.7895 44.8622C91.7207 45.1823 91.8355 45.4843 92.0454 45.5367C92.256 45.5886 92.4822 45.3717 92.5511 45.0515C92.62 44.7313 92.5052 44.4294 92.2946 44.3769C92.0846 44.3245 91.8584 44.542 91.7895 44.8622Z" fill="#151F35"/>
<path fill-rule="evenodd" clip-rule="evenodd" d="M91.8031 45.4774C91.8031 45.4774 92.1374 47.5072 92.7511 48.599C92.0685 48.986 91.1523 48.5035 91.1523 48.5035L91.8031 45.4774Z" fill="#E05B58"/>
<path fill-rule="evenodd" clip-rule="evenodd" d="M92.6461 42.9181L92.5358 42.8844C92.5106 42.8679 91.9209 42.4787 91.1419 42.7939C91.0434 42.8336 90.9291 42.7878 90.8877 42.6896C90.8468 42.5913 90.8944 42.4792 90.9941 42.4384C91.9752 42.0398 92.7267 42.5471 92.7587 42.5692C92.846 42.6299 92.8673 42.7486 92.8063 42.8358C92.7687 42.8894 92.7077 42.9181 92.6461 42.9181Z" fill="#151F35"/>
<path fill-rule="evenodd" clip-rule="evenodd" d="M80.4616 46.0819C81.1678 49.0484 81.9697 54.4841 79.9414 56.4636C79.9414 56.4636 80.8822 59.4731 86.4744 59.4731C92.6237 59.4731 89.2951 56.4641 89.2951 56.4641C85.9082 55.6736 85.8987 53.2194 86.3926 50.9142L80.4616 46.0819Z" fill="#E88274"/>
<path fill-rule="evenodd" clip-rule="evenodd" d="M79.1762 57.4963C78.6979 56.5435 78.1699 55.4533 79.1599 55.1116C80.2503 54.7362 86.2804 54.3526 88.3927 55.0581C90.5044 55.7635 89.9892 57.6956 89.9892 57.6956L79.1762 57.4963Z" fill="#91B4D4"/>
<path fill-rule="evenodd" clip-rule="evenodd" d="M70.3137 195.745C70.9303 195.849 71.772 195.846 71.9416 195.621C71.9573 195.598 72.0072 195.533 71.912 195.372C71.87 195.302 71.8056 195.258 71.7165 195.239C71.352 195.16 70.6962 195.508 70.3137 195.745ZM71.1179 196.001C70.694 196.001 70.2538 195.937 70.0416 195.887L69.9688 195.812L70.0079 195.715C70.0544 195.683 71.1476 194.921 71.7574 195.052C71.9008 195.082 72.0094 195.158 72.08 195.276C72.2127 195.498 72.1628 195.648 72.0979 195.735C71.945 195.938 71.539 196.001 71.1179 196.001Z" fill="#FFFFFE"/>
<path fill-rule="evenodd" clip-rule="evenodd" d="M70.8317 194.245C70.7516 194.245 70.6794 194.272 70.6122 194.329C70.316 194.577 70.2124 195.263 70.1782 195.602C70.5825 195.29 71.0804 194.623 71.0272 194.353C71.0221 194.326 71.0098 194.263 70.876 194.247L70.8317 194.245ZM70.0662 195.888L70.0147 195.874L69.9688 195.789C69.9704 195.739 70.0231 194.57 70.4862 194.183C70.6077 194.08 70.7477 194.039 70.8995 194.056C71.138 194.086 71.2019 194.232 71.2187 194.316C71.3083 194.772 70.5226 195.653 70.1132 195.876L70.0662 195.888Z" fill="#FFFFFE"/>
<path fill-rule="evenodd" clip-rule="evenodd" d="M94.873 195.744C95.6453 195.85 96.6874 195.838 96.8655 195.587C96.8812 195.566 96.9215 195.508 96.8381 195.373C96.5889 194.969 95.4795 195.432 94.873 195.744ZM95.8267 196.001C95.3345 196.001 94.8254 195.939 94.5617 195.887L94.4844 195.809L94.5314 195.71C94.7375 195.591 96.5637 194.56 97.0044 195.274C97.1276 195.473 97.0839 195.614 97.0251 195.697C96.8605 195.929 96.3537 196.001 95.8267 196.001Z" fill="#FFFFFE"/>
<path fill-rule="evenodd" clip-rule="evenodd" d="M95.5209 194.245C95.3972 194.245 95.2874 194.286 95.1877 194.371C94.8545 194.651 94.7353 195.308 94.6961 195.623C95.1911 195.327 95.8261 194.649 95.7785 194.364C95.7746 194.34 95.7623 194.266 95.5797 194.248L95.5209 194.245ZM94.5818 195.889L94.5264 195.872L94.4844 195.787C94.4872 195.741 94.5549 194.651 95.0612 194.225C95.2169 194.093 95.3972 194.035 95.5993 194.057C95.8726 194.084 95.9521 194.222 95.9712 194.333C96.0496 194.803 95.1144 195.659 94.6221 195.88L94.5818 195.889Z" fill="#FFFFFE"/>
<path fill-rule="evenodd" clip-rule="evenodd" d="M90.0547 195.794H94.1684L94.2104 186.403H90.0967L90.0547 195.794Z" fill="#E88274"/>
<path fill-rule="evenodd" clip-rule="evenodd" d="M65.3535 195.794H69.4678L71.1674 186.403H67.0537L65.3535 195.794Z" fill="#E88274"/>
<path fill-rule="evenodd" clip-rule="evenodd" d="M69.7404 195.323H65.1187C64.9502 195.323 64.8091 195.438 64.7788 195.6L64.1074 199.205C64.0379 199.578 64.3499 199.933 64.7379 199.926C66.3507 199.898 67.1308 199.806 69.1636 199.806C70.4141 199.806 72.9952 199.933 74.7222 199.933C76.4106 199.933 76.6083 198.25 75.8954 198.098C72.6989 197.414 71.468 196.472 70.418 195.573C70.2288 195.411 69.9863 195.323 69.7404 195.323Z" fill="#183049"/>
<path fill-rule="evenodd" clip-rule="evenodd" d="M94.1251 195.323H89.6322C89.4642 195.323 89.3231 195.438 89.2929 195.6L88.6214 199.205C88.5514 199.578 88.8538 199.933 89.2414 199.926C90.8615 199.899 93.1995 199.806 95.2362 199.806C97.6179 199.806 99.6804 199.933 102.473 199.933C104.162 199.933 104.565 198.25 103.852 198.098C100.607 197.404 97.9757 197.329 95.1287 195.64C94.819 195.456 94.4802 195.323 94.1251 195.323Z" fill="#183049"/>
<path fill-rule="evenodd" clip-rule="evenodd" d="M72.0922 57.3797C68.2702 58.2508 64.2539 68.6137 64.2539 68.6137L72.2037 73.8456C72.2037 73.8456 74.979 69.8 76.9827 65.2735C79.0822 60.5312 75.9994 56.4888 72.0922 57.3797Z" fill="#151F35"/>
<path fill-rule="evenodd" clip-rule="evenodd" d="M75.1122 63.9882L71.8262 73.5981L72.1997 73.8465C72.1997 73.8465 73.6988 71.6556 75.2965 68.6963L75.1122 63.9882Z" fill="#0B1323"/>
<path fill-rule="evenodd" clip-rule="evenodd" d="M97.7594 75.4958C97.7292 80.0223 97.4514 85.6528 96.7677 92.6413H74.7596C74.4779 89.3126 75.9642 73.067 72.0957 57.3788C72.0957 57.3788 75.8354 56.6336 79.4239 56.4625C82.23 56.33 86.2979 56.2417 88.7759 56.4625C92.0469 56.7551 95.1481 57.5886 95.1481 57.5886C95.1481 57.5886 97.0303 59.5979 97.6009 69.0207C97.7129 70.881 97.7745 73.0228 97.7594 75.4958Z" fill="#151F35"/>
<path fill-rule="evenodd" clip-rule="evenodd" d="M97.7571 75.4953C96.4254 73.0996 94.0084 68.2916 94.3489 65.5536L97.5986 69.0202C97.7106 70.8805 97.7722 73.0223 97.7571 75.4953Z" fill="#0B1323"/>
<path fill-rule="evenodd" clip-rule="evenodd" d="M90.8322 61.2579C90.4845 65.1038 99.3722 74.4173 99.3722 74.4173L106.496 68.6974C106.496 68.6974 103.567 63.6934 99.8381 60.139C95.6734 56.1689 91.2237 56.9263 90.8322 61.2579Z" fill="#151F35"/>
<path fill-rule="evenodd" clip-rule="evenodd" d="M94.2104 186.405L94.1897 191.246H90.0742L90.0949 186.405H94.2104Z" fill="#E16F62"/>
<path fill-rule="evenodd" clip-rule="evenodd" d="M67.0519 186.405H71.1679L70.2898 191.246H66.1738L67.0519 186.405Z" fill="#E16F62"/>
<path fill-rule="evenodd" clip-rule="evenodd" d="M81.2009 41.5121C80.5983 45.5053 80.0423 47.8045 81.6041 50.32C83.9527 54.1034 89.2173 53.5167 91.0037 49.8259C92.612 46.5034 93.3277 40.5312 89.7964 38.0035C86.3176 35.5128 81.804 37.5183 81.2009 41.5121Z" fill="#E88274"/>
<path fill-rule="evenodd" clip-rule="evenodd" d="M93.3806 39.618C91.4626 40.6817 89.4432 40.8054 89.4432 40.8054C88.4184 45.4241 85.6912 50.7206 81.2806 49.2119C79.5861 48.6318 77.9341 44.6474 77.747 41.0819C77.4519 41.4347 77.257 41.8857 77.1092 42.0711C76.7362 39.7864 77.3668 38.1154 77.6305 37.379C78.8519 33.9676 79.665 36.2342 80.9637 34.1636C81.8227 32.7946 83.347 32.0891 86.007 31.9969C85.2605 32.3806 85.1205 32.9939 86.2249 32.9017C87.3292 32.8095 92.0388 32.5594 94.7806 34.3888C92.9258 34.8006 94.0576 37.7097 96.5306 36.1569C95.6749 37.5988 94.5549 38.9661 93.3806 39.618Z" fill="#151F35"/>
<path fill-rule="evenodd" clip-rule="evenodd" d="M86.2891 43.9841C86.2913 45.0472 86.7248 46.0872 87.2775 46.7927C88.1085 47.8531 89.0701 47.3292 89.2963 46.1518C89.4996 45.0919 89.312 43.2626 88.258 42.6228C87.2192 41.9924 86.2868 42.768 86.2891 43.9841Z" fill="#E88274"/>
<path fill-rule="evenodd" clip-rule="evenodd" d="M81.2718 34.594C80.6939 34.5167 79.3796 34.3433 78.5334 32.9131C78.5334 32.9131 78.4589 36.1722 81.2718 34.594Z" fill="#151F35"/>
<path fill-rule="evenodd" clip-rule="evenodd" d="M88.9567 92.6414C88.9567 92.6414 85.5021 123.632 83.3937 135.243C81.0848 147.957 72.1696 190.309 72.1696 190.309H64.6348C64.6348 190.309 69.9884 148.983 71.0972 136.395C72.3001 122.733 74.7585 92.6414 74.7585 92.6414H88.9567Z" fill="#132F2D"/>
<path fill-rule="evenodd" clip-rule="evenodd" d="M73.2668 187.571L72.6009 190.423H64.123L64.1791 187.878L73.2668 187.571Z" fill="#00C389"/>
<path fill-rule="evenodd" clip-rule="evenodd" d="M86.4399 103.682C81.0824 104.725 82.4309 124.57 83.4803 134.777C84.7543 127.562 86.4898 113.678 87.6607 103.825C87.2956 103.649 86.8902 103.594 86.4399 103.682Z" fill="#183F3C"/>
<path fill-rule="evenodd" clip-rule="evenodd" d="M96.7631 92.6404C96.7631 92.6404 98.5176 122.961 98.5545 135.327C98.5932 148.191 95.6845 190.308 95.6845 190.308H88.7153C88.7153 190.308 86.8393 148.942 86.0346 136.309C85.1571 122.537 82.2988 92.6404 82.2988 92.6404H96.7631Z" fill="#132F2D"/>
<path fill-rule="evenodd" clip-rule="evenodd" d="M98.4492 88.7458L96.4937 88.9015C95.8144 88.9551 95.3586 89.6119 95.5529 90.2561L96.3616 92.9317C96.6505 93.8884 97.8332 94.2648 98.6212 93.6389C99.3973 93.0228 100.397 91.5341 100.713 90.2103L98.4492 88.7458Z" fill="#E88274"/>
<path fill-rule="evenodd" clip-rule="evenodd" d="M94.0368 185.373H94.0323L93.9668 185.3C94.7385 173.644 96.5299 145.442 96.4997 135.327C96.4689 124.98 95.2223 101.826 94.8404 94.9769L94.907 94.9041L94.9804 94.9692C95.3623 101.82 96.6089 124.976 96.6397 135.327C96.6699 145.446 94.8785 173.652 94.1062 185.308L94.0368 185.373Z" fill="#132F2D"/>
<path fill-rule="evenodd" clip-rule="evenodd" d="M96.9178 187.571L96.6367 190.423H88.1588L87.8301 187.878L96.9178 187.571Z" fill="#00C389"/>
</svg>
