<svg width="280" height="205" viewBox="0 0 280 205" fill="none" xmlns="http://www.w3.org/2000/svg">
<g clip-path="url(#clip0)">
<mask id="mask0" mask-type="alpha" maskUnits="userSpaceOnUse" x="0" y="179" width="280" height="2">
<path d="M0.0332031 179.635H280V180.184H0.0332031V179.635Z" fill="white"/>
</mask>
<g mask="url(#mask0)">
<path fill-rule="evenodd" clip-rule="evenodd" d="M0.0332031 179.977H280V179.84H0.0332031V179.977Z" fill="#CBFFEF"/>
</g>
<path fill-rule="evenodd" clip-rule="evenodd" d="M29.377 185.201H47.9253V185.064H29.377V185.201Z" fill="#CBFFEF"/>
<path fill-rule="evenodd" clip-rule="evenodd" d="M85.9297 183.713H100.708V183.575H85.9297V183.713Z" fill="#CBFFEF"/>
<path fill-rule="evenodd" clip-rule="evenodd" d="M50.3809 188.439H76.0983V188.302H50.3809V188.439Z" fill="#CBFFEF"/>
<path fill-rule="evenodd" clip-rule="evenodd" d="M239.852 189.372H251.945V189.235H239.852V189.372Z" fill="#CBFFEF"/>
<path fill-rule="evenodd" clip-rule="evenodd" d="M219.227 189.373H237.131V189.236H219.227V189.373Z" fill="#CBFFEF"/>
<path fill-rule="evenodd" clip-rule="evenodd" d="M155.238 187.057H186.106V186.92H155.238V187.057Z" fill="#CBFFEF"/>
<path fill-rule="evenodd" clip-rule="evenodd" d="M24.593 0.351253C22.9074 0.351253 21.5365 1.69469 21.5365 3.34533V152.243C21.5365 153.895 22.9074 155.237 24.593 155.237H132.728C134.413 155.237 135.784 153.895 135.784 152.243V3.34533C135.784 1.69469 134.413 0.351253 132.728 0.351253H24.593ZM132.728 155.375H24.593C22.8306 155.375 21.3965 153.97 21.3965 152.243V3.34533C21.3965 1.61899 22.8306 0.214111 24.593 0.214111H132.728C134.49 0.214111 135.924 1.61899 135.924 3.34533V152.243C135.924 153.97 134.49 155.375 132.728 155.375Z" fill="#CBFFEF"/>
<path fill-rule="evenodd" clip-rule="evenodd" d="M43.4141 88.6329H162.015V16.9604H43.4141V88.6329Z" fill="#CBFFEF"/>
<path fill-rule="evenodd" clip-rule="evenodd" d="M44.8379 88.6329H165.063V16.9604H44.8379V88.6329Z" fill="#CBFFEF"/>
<path fill-rule="evenodd" clip-rule="evenodd" d="M43.4141 94.1799H162.015V88.6333H43.4141V94.1799Z" fill="#CBFFEF"/>
<path fill-rule="evenodd" clip-rule="evenodd" d="M49.916 94.1801H170.14V88.6335H49.916V94.1801Z" fill="#CBFFEF"/>
<path fill-rule="evenodd" clip-rule="evenodd" d="M49.1035 84.4537H160.797V21.1382H49.1035V84.4537Z" fill="#EBFFF9"/>
<path fill-rule="evenodd" clip-rule="evenodd" d="M57.3027 84.4537L82.3398 21.1382H94.1586L69.1215 84.4537H57.3027Z" fill="#FFFFFE"/>
<path fill-rule="evenodd" clip-rule="evenodd" d="M71.6602 84.4537L96.6971 21.1382H101.305L76.2678 84.4537H71.6602Z" fill="#FFFFFE"/>
<path fill-rule="evenodd" clip-rule="evenodd" d="M115.467 84.4545L140.503 21.1389H145.112L120.074 84.4545H115.467Z" fill="#FFFFFE"/>
<path fill-rule="evenodd" clip-rule="evenodd" d="M160.254 84.4537H160.799V21.1382H160.254V84.4537Z" fill="#CBFFEF"/>
<path fill-rule="evenodd" clip-rule="evenodd" d="M150.662 179.839H171.639V125.279H150.662V179.839Z" fill="#CBFFEF"/>
<path fill-rule="evenodd" clip-rule="evenodd" d="M167.654 179.84H171.639V167.345H163.477L167.654 179.84Z" fill="#CBFFEF"/>
<path fill-rule="evenodd" clip-rule="evenodd" d="M30.9746 179.841H51.9511V125.28H30.9746V179.841Z" fill="#CBFFEF"/>
<path fill-rule="evenodd" clip-rule="evenodd" d="M48.4746 177.866H171.639V125.28H48.4746V177.866Z" fill="#CBFFEF"/>
<path fill-rule="evenodd" clip-rule="evenodd" d="M52.4585 179.84H48.4746V167.345H56.636L52.4585 179.84Z" fill="#CBFFEF"/>
<path fill-rule="evenodd" clip-rule="evenodd" d="M89.0787 132.58V170.046C89.0787 170.778 88.4739 171.371 87.7274 171.371H53.9202C53.1737 171.371 52.5684 170.778 52.5684 170.046V132.58C52.5684 131.849 53.1737 131.256 53.9202 131.256H87.7274C88.4739 131.256 89.0787 131.849 89.0787 132.58Z" fill="#FAF9F6"/>
<path fill-rule="evenodd" clip-rule="evenodd" d="M74.4361 135.365H67.2127C64.0756 135.365 61.0762 133.534 58.918 130.302H82.7308C80.5732 133.534 77.5732 135.365 74.4361 135.365Z" fill="#CBFFEF"/>
<path fill-rule="evenodd" clip-rule="evenodd" d="M128.311 132.58V170.046C128.311 170.778 127.705 171.371 126.959 171.371H93.1521C92.4056 171.371 91.8008 170.778 91.8008 170.046V132.58C91.8008 131.849 92.4056 131.256 93.1521 131.256H126.959C127.705 131.256 128.311 131.849 128.311 132.58Z" fill="#FAF9F6"/>
<path fill-rule="evenodd" clip-rule="evenodd" d="M114.038 135.366H106.814C103.677 135.366 100.678 133.535 98.5195 130.303H122.332C120.175 133.535 117.175 135.366 114.038 135.366Z" fill="#CBFFEF"/>
<path fill-rule="evenodd" clip-rule="evenodd" d="M167.542 132.58V170.046C167.542 170.777 166.937 171.37 166.19 171.37H132.383C131.637 171.37 131.031 170.777 131.031 170.046V132.58C131.031 131.848 131.637 131.256 132.383 131.256H166.19C166.937 131.256 167.542 131.848 167.542 132.58Z" fill="#FAF9F6"/>
<path fill-rule="evenodd" clip-rule="evenodd" d="M153.27 135.365H146.047C142.91 135.365 139.91 133.534 137.752 130.302H161.565C159.407 133.534 156.407 135.365 153.27 135.365Z" fill="#CBFFEF"/>
<path fill-rule="evenodd" clip-rule="evenodd" d="M258.423 119.929C258.369 119.673 258.141 119.491 257.872 119.491H243.273C243.008 119.491 242.776 119.673 242.726 119.929L235.17 179.841H236.316L243.731 120.589H257.418L264.834 179.841H265.979L258.423 119.929Z" fill="#CBFFEF"/>
<path fill-rule="evenodd" clip-rule="evenodd" d="M236.456 119.929C236.402 119.673 236.17 119.491 235.906 119.491H221.306C221.036 119.491 220.81 119.673 220.756 119.929L213.199 179.841H214.344L221.765 120.589H235.447L242.862 179.841H244.008L236.456 119.929Z" fill="#CBFFEF"/>
<path fill-rule="evenodd" clip-rule="evenodd" d="M246.933 120.039H221.787C216.987 120.039 214.327 116.841 212.97 111.575L212.302 108.564C211.754 106.09 212.692 103.464 214.822 102.031C215.855 101.335 217.106 100.928 218.455 100.928H234.219C237.485 100.928 238.346 101.69 240.601 106.508C242.856 111.326 246.933 120.039 246.933 120.039Z" fill="#CBFFEF"/>
<path fill-rule="evenodd" clip-rule="evenodd" d="M257.826 115.318H233.219V120.038H260.015C260.709 120.038 261.271 119.487 261.271 118.808V118.692C261.271 116.829 259.729 115.318 257.826 115.318Z" fill="#CBFFEF"/>
<path fill-rule="evenodd" clip-rule="evenodd" d="M225.661 119.929C225.607 119.673 225.38 119.491 225.111 119.491H210.511C210.246 119.491 210.014 119.673 209.965 119.929L202.408 179.84H203.554L210.97 120.589H224.656L232.072 179.84H233.218L225.661 119.929Z" fill="#CBFFEF"/>
<path fill-rule="evenodd" clip-rule="evenodd" d="M203.694 119.929C203.641 119.673 203.409 119.491 203.144 119.491H188.544C188.275 119.491 188.048 119.673 187.994 119.929L180.438 179.84H181.583L189.003 120.589H202.685L210.101 179.84H211.247L203.694 119.929Z" fill="#CBFFEF"/>
<path fill-rule="evenodd" clip-rule="evenodd" d="M214.171 120.039H189.026C184.225 120.039 181.565 116.841 180.209 111.576L179.54 108.565C178.992 106.09 179.93 103.464 182.06 102.031C183.093 101.336 184.344 100.928 185.693 100.928H201.457C204.723 100.928 205.584 101.69 207.839 106.508C210.094 111.327 214.171 120.039 214.171 120.039Z" fill="#CBFFEF"/>
<path fill-rule="evenodd" clip-rule="evenodd" d="M225.065 115.319H200.457V120.039H227.254C227.947 120.039 228.509 119.488 228.509 118.809V118.693C228.509 116.83 226.967 115.319 225.065 115.319Z" fill="#CBFFEF"/>
<path fill-rule="evenodd" clip-rule="evenodd" d="M248.578 198.404C248.578 201.835 199.966 204.616 140 204.616C80.0338 204.616 31.4219 201.835 31.4219 198.404C31.4219 194.973 80.0338 192.192 140 192.192C199.966 192.192 248.578 194.973 248.578 198.404Z" fill="#E0F4EE"/>
<path fill-rule="evenodd" clip-rule="evenodd" d="M137.967 193.314L142.926 193.357L145.565 182.107L140.606 182.063L137.967 193.314Z" fill="#E77E75"/>
<path fill-rule="evenodd" clip-rule="evenodd" d="M143.049 192.793L137.629 192.746C137.425 192.745 137.239 192.881 137.18 193.075L135.87 197.386C135.734 197.833 136.049 198.261 136.518 198.257C138.476 198.241 141.31 198.154 143.768 198.174C146.642 198.199 147.234 198.374 150.605 198.403C152.642 198.42 153.362 196.408 152.523 196.218C148.703 195.353 147.417 195.236 144.216 193.182C143.869 192.959 143.478 192.797 143.049 192.793Z" fill="#132529"/>
<path fill-rule="evenodd" clip-rule="evenodd" d="M139.244 187.866H139.242L139.838 185.341H139.84L139.244 187.866Z" fill="#BEBFBB"/>
<path fill-rule="evenodd" clip-rule="evenodd" d="M144.205 187.909L139.246 187.866L139.839 185.341L144.785 185.438L144.205 187.909Z" fill="#DB6E60"/>
<path fill-rule="evenodd" clip-rule="evenodd" d="M143.909 193.315C144.983 193.501 145.8 193.461 146.129 193.2C146.247 193.105 146.305 192.982 146.304 192.824C146.304 192.753 146.277 192.726 146.248 192.709C145.942 192.522 144.763 192.937 143.909 193.315ZM145.098 193.662C144.539 193.662 143.933 193.562 143.508 193.474L143.416 193.376L143.481 193.258C143.717 193.145 145.802 192.165 146.372 192.513C146.482 192.58 146.54 192.687 146.54 192.823C146.54 193.053 146.452 193.24 146.277 193.379C146.011 193.59 145.571 193.662 145.098 193.662Z" fill="#3769A4"/>
<path fill-rule="evenodd" clip-rule="evenodd" d="M144.888 191.516C144.176 191.516 143.82 192.652 143.698 193.15C144.352 192.787 145.223 191.962 145.174 191.636C145.17 191.613 145.159 191.542 144.963 191.52L144.888 191.516ZM143.532 193.475L143.459 193.451L143.416 193.341C143.431 193.252 143.806 191.161 144.988 191.291C145.3 191.325 145.388 191.479 145.406 191.603C145.489 192.148 144.214 193.201 143.578 193.467L143.532 193.475Z" fill="#3769A4"/>
<path fill-rule="evenodd" clip-rule="evenodd" d="M167.99 60.3777C168.063 63.3372 168.167 66.407 168.313 69.4071C168.379 70.9129 168.466 72.4165 168.572 73.9086C168.669 75.4035 168.802 76.8879 168.966 78.3498C169.042 79.0838 169.129 79.8101 169.236 80.5249L169.31 81.0641C169.316 81.1086 169.315 81.1031 169.313 81.0976C169.312 81.0949 169.311 81.0921 169.31 81.0965L169.299 81.0943L169.284 81.0959C169.266 81.1053 169.264 81.1546 169.308 81.2545C169.395 81.4558 169.693 81.7932 170.121 82.1114C170.55 82.4295 171.081 82.7641 171.668 83.062C174.036 84.2689 177.045 85.1548 179.9 85.942L179.597 89.6552C177.866 89.7567 176.243 89.7145 174.55 89.5472C173.707 89.4693 172.863 89.348 172.009 89.1879C171.154 89.0332 170.292 88.828 169.417 88.5504C168.542 88.2723 167.643 87.9426 166.732 87.4462C165.825 86.9486 164.867 86.3145 163.981 85.2958C163.542 84.7851 163.141 84.1592 162.845 83.446C162.769 83.271 162.708 83.0818 162.646 82.898L162.566 82.6138L162.503 82.3631L162.369 81.763C162.182 80.9599 162.021 80.1623 161.873 79.3674C161.283 76.1808 160.929 73.0298 160.663 69.8761C160.551 68.3001 160.435 66.7262 160.39 65.1513C160.339 63.5665 160.285 62.0206 160.312 60.3908L167.99 60.3777Z" fill="#FFA39B"/>
<path fill-rule="evenodd" clip-rule="evenodd" d="M158.547 60.7518C157.84 66.2643 159.136 74.405 159.136 74.405C159.136 74.405 163.062 74.9503 166.111 74.1675C169.16 73.3853 169.807 72.7884 169.807 72.7884C169.807 72.7884 171.051 67.2161 169.894 61.3058C168.67 55.0801 163.564 52.7175 160.031 56.5196C159.236 57.3775 158.781 58.9196 158.547 60.7518Z" fill="#021A13"/>
<path fill-rule="evenodd" clip-rule="evenodd" d="M164.564 74.4529L164.565 74.4524C164.925 74.4079 165.282 74.3503 165.633 74.2773C165.633 74.2779 165.633 74.2779 165.633 74.2784C165.282 74.3514 164.924 74.4085 164.564 74.4529Z" fill="#DB6E60"/>
<path fill-rule="evenodd" clip-rule="evenodd" d="M164.564 74.4518C164.989 72.3326 165.305 70.3715 165.536 68.5771C165.688 69.3073 165.77 70.1011 165.77 70.9497C165.776 72.1094 165.722 73.2279 165.632 74.2768C165.282 74.3497 164.924 74.4073 164.564 74.4518Z" fill="black"/>
<path fill-rule="evenodd" clip-rule="evenodd" d="M178.179 85.693L182.064 85.4412L181.87 90.2592C181.87 90.2592 179.443 90.7206 177.055 88.7792L178.179 85.693Z" fill="#FFA39B"/>
<path fill-rule="evenodd" clip-rule="evenodd" d="M186.013 87.6689L185.293 89.6635C185.094 90.2142 184.534 90.5571 183.942 90.4913L181.869 90.2592L182.063 85.4412L185.056 86.0215C185.821 86.1702 186.273 86.9492 186.013 87.6689Z" fill="#FFA39B"/>
<path fill-rule="evenodd" clip-rule="evenodd" d="M180.95 90.7172L179.691 90.0304C179.373 89.8565 179.257 89.4583 179.435 89.1467L182.242 84.2112C182.42 83.8985 182.826 83.7855 183.144 83.96L184.403 84.6468C184.721 84.8207 184.837 85.2184 184.66 85.5305L181.852 90.466C181.675 90.7781 181.268 90.8911 180.95 90.7172Z" fill="#132529"/>
<path fill-rule="evenodd" clip-rule="evenodd" d="M180.547 92.6247L178.246 91.3685C178.073 91.2747 178.012 91.0613 178.108 90.8918L179.231 88.9175C179.327 88.7485 179.545 88.6882 179.717 88.782L182.018 90.0382C182.19 90.132 182.253 90.3454 182.156 90.5143L181.033 92.4886C180.937 92.6576 180.719 92.7185 180.547 92.6247Z" fill="#132529"/>
<path fill-rule="evenodd" clip-rule="evenodd" d="M187.958 70.0926C185.359 70.0926 182.795 71.4849 181.404 73.9304C179.391 77.4698 180.585 81.8929 184.063 83.792C187.542 85.6884 192.01 84.3565 194.023 80.8188C196.035 77.2805 194.842 72.8563 191.364 70.9572C190.289 70.3713 189.12 70.0926 187.958 70.0926ZM187.466 85.8255C186.108 85.8255 184.741 85.4997 183.482 84.8129C179.428 82.6005 178.028 77.4637 180.361 73.3615C182.693 69.2605 187.889 67.7223 191.944 69.9363C195.998 72.1487 197.398 77.2865 195.065 81.3876C193.456 84.2166 190.485 85.8255 187.466 85.8255Z" fill="#132529"/>
<path fill-rule="evenodd" clip-rule="evenodd" d="M157.604 96.3964C157.604 96.3964 160.144 123.846 159.407 138.828C158.64 154.412 147.37 185.082 147.37 185.082L138.406 184.896C138.406 184.896 144.549 151.092 144.395 135.607C144.227 118.727 142.643 93.4424 142.643 93.4424L157.604 96.3964Z" fill="#132F2D"/>
<path fill-rule="evenodd" clip-rule="evenodd" d="M144.134 124.373C144.07 122.408 143.997 120.428 143.918 118.469C143.919 118.468 143.919 118.467 143.919 118.466C143.998 120.424 144.072 122.405 144.137 124.369C144.136 124.371 144.135 124.372 144.134 124.373Z" fill="#BEBFBB"/>
<path fill-rule="evenodd" clip-rule="evenodd" d="M144.135 124.37C144.07 122.405 143.997 120.425 143.918 118.466C145.081 112.691 146.179 107.003 147.01 102.63C148.937 107.93 147.917 118.736 144.135 124.37Z" fill="#09181B"/>
<path fill-rule="evenodd" clip-rule="evenodd" d="M137.305 185.291L147.846 185.498L148.973 182.067L137.967 182.043L137.305 185.291Z" fill="#3769A4"/>
<path fill-rule="evenodd" clip-rule="evenodd" d="M147.846 185.498L144.783 185.438L139.837 185.341L137.305 185.291L137.967 182.043L148.973 182.067L147.846 185.498Z" fill="#729DC7"/>
<path fill-rule="evenodd" clip-rule="evenodd" d="M100.838 174.202L104.592 177.383L113.062 169.67L109.308 166.489L100.838 174.202Z" fill="#E77E75"/>
<path fill-rule="evenodd" clip-rule="evenodd" d="M104.921 177.538L102.09 173.009C101.984 172.839 101.767 172.757 101.568 172.81L97.1405 174.004C96.6819 174.128 96.4786 174.616 96.73 175.004C97.7806 176.623 99.3581 178.931 100.642 180.985C102.142 183.386 102.135 183.345 103.894 186.161C104.959 187.864 107.082 187.396 106.802 186.598C105.528 182.966 105.118 182.461 105.202 178.713C105.211 178.306 105.144 177.896 104.921 177.538Z" fill="#132529"/>
<path fill-rule="evenodd" clip-rule="evenodd" d="M104.941 170.467L104.939 170.465L106.469 169.072L106.47 169.074L104.941 170.467Z" fill="#BABBB7"/>
<path fill-rule="evenodd" clip-rule="evenodd" d="M108.696 173.647L104.941 170.466L106.471 169.073L110.162 172.312L108.914 173.448L108.696 173.647Z" fill="#DB6E60"/>
<path fill-rule="evenodd" clip-rule="evenodd" d="M104.924 178.529C105.332 179.52 105.8 180.178 106.199 180.312C106.344 180.361 106.481 180.344 106.619 180.259C106.68 180.222 106.688 180.184 106.688 180.151C106.688 179.799 105.704 179.039 104.924 178.529ZM105.253 179.7C104.958 179.236 104.723 178.68 104.574 178.28L104.611 178.152L104.747 178.143C104.97 178.279 106.923 179.493 106.923 180.151C106.923 180.277 106.861 180.382 106.744 180.455C106.545 180.576 106.336 180.602 106.123 180.53C105.799 180.421 105.504 180.094 105.253 179.7Z" fill="#3769A4"/>
<path fill-rule="evenodd" clip-rule="evenodd" d="M107.004 178.39C106.627 177.799 105.455 178.104 104.959 178.267C105.62 178.618 106.795 178.905 107.052 178.691C107.07 178.676 107.126 178.629 107.04 178.454L107.004 178.39ZM104.589 178.301L104.572 178.227L104.645 178.134C104.73 178.1 106.738 177.304 107.252 178.355C107.388 178.632 107.301 178.786 107.204 178.867C106.775 179.225 105.188 178.723 104.622 178.335L104.589 178.301Z" fill="#3769A4"/>
<path fill-rule="evenodd" clip-rule="evenodd" d="M148.517 94.602C148.517 94.602 143.797 120.3 140.418 134.93C136.903 150.147 112.503 173.11 112.503 173.11L105.797 167.281C105.797 167.281 123.614 144.483 126.204 129.207C129.028 112.555 131.577 91.2568 131.577 91.2568L148.517 94.602Z" fill="#132F2D"/>
<path fill-rule="evenodd" clip-rule="evenodd" d="M104.449 167.299L112.109 174.022L114.712 171.877L106.63 164.268L104.449 167.299Z" fill="#3769A4"/>
<path fill-rule="evenodd" clip-rule="evenodd" d="M112.109 174.022L104.449 167.299L106.63 164.268L114.712 171.877L112.109 174.022Z" fill="#729DC7"/>
<path fill-rule="evenodd" clip-rule="evenodd" d="M165.791 55.1367C165.791 55.1367 168.573 70.6655 157.6 96.3966C149.758 94.8475 135.388 92.0103 131.572 91.2565C132.198 87.3074 138.637 68.7104 138.578 49.5073C138.578 49.5073 143.221 49.5112 147.513 50.1502C150.872 50.65 155.708 51.4964 158.578 52.3352C162.362 53.4411 165.791 55.1367 165.791 55.1367Z" fill="#021A13"/>
<path fill-rule="evenodd" clip-rule="evenodd" d="M136.969 67.7558C137.275 65.9235 137.553 64.0321 137.79 62.1L141.793 58.6616C142.11 61.5416 139.144 66.7678 136.969 67.7558Z" fill="black"/>
<path fill-rule="evenodd" clip-rule="evenodd" d="M151.124 38.1626C151.104 41.7881 150.486 48.3149 147.516 50.1504C147.516 50.1504 148.515 54.1824 156.177 56.9252C159.934 55.2976 158.581 52.3354 158.581 52.3354C154.802 50.6227 155.498 47.7581 156.747 45.1848L151.124 38.1626Z" fill="#FFA39B"/>
<path fill-rule="evenodd" clip-rule="evenodd" d="M156.007 47.0367C156.006 47.0367 156.006 47.0362 156.006 47.0362C156.019 46.9895 156.033 46.9429 156.048 46.8963C156.034 46.9434 156.02 46.9901 156.007 47.0367ZM156.743 45.1809L155.844 44.0569L156.744 45.1803C156.744 45.1803 156.744 45.1809 156.743 45.1809Z" fill="#BABBB7"/>
<path fill-rule="evenodd" clip-rule="evenodd" d="M156.006 47.0362C154.533 46.5222 152.786 44.4798 152.946 42.8928C153.025 42.1018 153.212 41.3623 153.415 41.0266L155.844 44.0569L156.743 45.1809C156.468 45.7437 156.222 46.3203 156.048 46.8963C156.033 46.9429 156.019 46.9895 156.006 47.0362Z" fill="#DB6E60"/>
<path fill-rule="evenodd" clip-rule="evenodd" d="M162.082 37.1076C162.773 35.4553 162.877 33.5775 161.533 32.3224C161.614 31.2483 162.444 29.9773 163.59 28.9959C165.235 28.1023 168.54 34.3258 162.082 37.1076Z" fill="#132529"/>
<path fill-rule="evenodd" clip-rule="evenodd" d="M164.022 31.7833C163.721 31.7833 163.473 31.5496 163.463 31.2528C163.453 30.9505 163.694 30.6977 164.002 30.6867C164.111 30.6823 166.666 30.5435 167.491 27.6153C167.572 27.3229 167.88 27.1512 168.179 27.2318C168.477 27.3125 168.652 27.6147 168.57 27.9066C167.731 30.8869 165.241 31.7454 164.041 31.7827L164.022 31.7833Z" fill="#132529"/>
<path fill-rule="evenodd" clip-rule="evenodd" d="M151.78 32.8312C151.105 37.6114 150.461 40.3757 152.397 43.2803C155.309 47.6491 161.705 46.6617 163.825 42.1755C165.733 38.1364 166.517 30.9974 162.186 28.1865C157.918 25.4168 152.456 28.0504 151.78 32.8312Z" fill="#FFA39B"/>
<path fill-rule="evenodd" clip-rule="evenodd" d="M151.622 37.0629C152.326 37.0904 152.875 37.1683 153.299 37.2632C153.892 37.3959 154.446 36.9203 154.4 36.3257C154.31 35.1583 154.632 33.9668 155.728 33.4501C155.9 32.7638 155.644 31.8071 155.131 30.9684C154.869 30.5405 155.308 30.0314 155.783 30.2124C158.212 31.1362 161.879 32.5866 163.724 31.6458C166.113 30.428 168.855 26.0812 165.238 25.7844C163.512 25.6423 163.708 24.6747 162.402 23.8057C161.095 22.9373 157.938 23.0421 155.495 24.2172C153.121 25.3604 149.358 23.2116 147.912 24.9489C146.856 26.2172 147.518 28.0116 147.518 28.0116C147.518 28.0116 145.438 28.2859 145.087 32.1302C144.824 35.0014 149.53 40.4432 150.996 41.0274C151.832 38.046 151.622 37.0629 151.622 37.0629Z" fill="#132529"/>
<path fill-rule="evenodd" clip-rule="evenodd" d="M148.195 29.3711C147.963 29.3711 147.746 29.229 147.665 29.0024C147.578 28.7638 147.065 27.5981 145.525 28.1187C145.233 28.218 144.913 28.0644 144.814 27.7786C144.713 27.4917 144.868 27.1795 145.161 27.0814C145.98 26.8043 146.723 26.8224 147.368 27.1324C148.354 27.6063 148.71 28.6031 148.724 28.6459C148.825 28.9328 148.668 29.2438 148.375 29.3414C148.316 29.3617 148.254 29.3711 148.195 29.3711Z" fill="#132529"/>
<path fill-rule="evenodd" clip-rule="evenodd" d="M158.82 35.5938C158.742 35.9778 158.885 36.3305 159.142 36.3815C159.398 36.432 159.671 36.1616 159.75 35.777C159.828 35.3925 159.685 35.0397 159.428 34.9887C159.172 34.9383 158.899 35.2087 158.82 35.5938Z" fill="#132529"/>
<path fill-rule="evenodd" clip-rule="evenodd" d="M163.258 36.47C163.179 36.8551 163.323 37.2073 163.579 37.2583C163.836 37.3088 164.108 37.0378 164.187 36.6538C164.266 36.2692 164.122 35.9165 163.866 35.866C163.609 35.815 163.337 36.0855 163.258 36.47Z" fill="#132529"/>
<path fill-rule="evenodd" clip-rule="evenodd" d="M161.808 36.3833C161.808 36.3833 162.244 38.7778 163.007 40.0422C162.182 40.5398 161.061 40.0165 161.061 40.0165L161.808 36.3833Z" fill="#E15B5A"/>
<path fill-rule="evenodd" clip-rule="evenodd" d="M159.7 40.8532H159.697C157.85 40.4884 157.259 39.0802 157.235 39.021C157.211 38.9617 157.24 38.8948 157.301 38.8712C157.361 38.8476 157.43 38.8767 157.453 38.936C157.459 38.9491 158.026 40.2876 159.744 40.6272C159.807 40.6393 159.848 40.7001 159.835 40.7627C159.823 40.8241 159.763 40.8642 159.7 40.8532Z" fill="#132529"/>
<path fill-rule="evenodd" clip-rule="evenodd" d="M159.838 33.3888C159.879 33.419 159.911 33.4618 159.926 33.5139C159.96 33.6362 159.887 33.7629 159.761 33.7969C158.507 34.1349 157.686 33.4398 157.652 33.4102C157.554 33.3257 157.545 33.1798 157.631 33.0849C157.717 32.99 157.866 32.9823 157.962 33.0641C157.989 33.0871 158.636 33.623 159.636 33.3526C159.709 33.3334 159.782 33.3488 159.838 33.3888Z" fill="#132529"/>
<path fill-rule="evenodd" clip-rule="evenodd" d="M165.758 34.4558C165.669 34.4569 165.583 34.4081 165.542 34.3241C165.093 33.396 164.236 33.2725 164.227 33.2709C164.098 33.2544 164.008 33.1381 164.026 33.0125C164.043 32.8858 164.164 32.798 164.29 32.8145C164.336 32.8205 165.41 32.9752 165.968 34.1272C166.023 34.2419 165.973 34.3795 165.856 34.4339L165.758 34.4558Z" fill="#132529"/>
<path fill-rule="evenodd" clip-rule="evenodd" d="M142.514 57.9812C141.349 59.1738 140.088 60.4492 138.907 61.718C137.716 62.9951 136.519 64.2683 135.366 65.569C133.053 68.1593 130.814 70.8116 128.866 73.538L128.161 74.5386C128.019 74.7311 127.896 74.9423 127.789 75.1755C127.575 75.6396 127.402 76.1881 127.317 76.8129C127.151 78.0664 127.258 79.5684 127.583 81.0967C128.21 84.1621 129.557 87.4167 131.019 90.4075L127.901 92.5398C127.225 91.7757 126.663 91.0631 126.094 90.2896C125.541 89.5199 125 88.7382 124.508 87.9203C123.509 86.2911 122.631 84.5604 121.94 82.6755C121.272 80.7884 120.753 78.7318 120.795 76.424C120.822 75.2753 120.987 74.0564 121.404 72.8506C121.611 72.2489 121.876 71.652 122.202 71.081L122.947 69.8231C123.433 68.9948 123.955 68.2169 124.475 67.4242C125.012 66.6562 125.542 65.8751 126.101 65.1301C127.194 63.6122 128.36 62.17 129.54 60.7421C130.724 59.3191 131.947 57.9368 133.208 56.5895C134.487 55.24 135.724 53.9311 137.135 52.614L142.514 57.9812Z" fill="#FFA39B"/>
<path fill-rule="evenodd" clip-rule="evenodd" d="M138.582 49.5067C133.84 49.6757 126.781 62.4946 126.781 62.4946C127.711 64.7086 131.766 68.1597 133.925 68.7236C133.925 68.7236 139.567 65.2073 142.635 60.0041C145.85 54.5519 143.663 49.3263 138.582 49.5067Z" fill="#021A13"/>
<path fill-rule="evenodd" clip-rule="evenodd" d="M129.78 89.3735L135.026 90.3302L130.838 94.9596C130.838 94.9596 127.258 93.4104 127.252 91.5107L129.78 89.3735Z" fill="#FFA39B"/>
<path fill-rule="evenodd" clip-rule="evenodd" d="M136.517 95.1979L135.449 96.272C134.689 97.0367 133.457 97.0993 132.62 96.4163L130.836 94.9604L135.024 90.3311L136.701 92.561C137.307 93.3657 137.228 94.4815 136.517 95.1979Z" fill="#FFA39B"/>
<path fill-rule="evenodd" clip-rule="evenodd" d="M148.974 36.1452C148.941 37.4464 149.524 38.6406 150.289 39.4037C151.44 40.5513 152.83 39.7361 153.193 38.2544C153.52 36.9203 153.316 34.7156 151.832 34.1232C150.371 33.5395 149.013 34.658 148.974 36.1452Z" fill="#FFA39B"/>
<path fill-rule="evenodd" clip-rule="evenodd" d="M51.5356 170.783H42.9743C41.6578 170.783 40.5898 169.737 40.5898 168.447V153.693C40.5898 152.402 41.6578 151.357 42.9743 151.357H51.5356C52.8522 151.357 53.9195 152.402 53.9195 153.693V168.447C53.9195 169.737 52.8522 170.783 51.5356 170.783Z" fill="#00C389"/>
<path fill-rule="evenodd" clip-rule="evenodd" d="M66.994 170.783H58.4333C57.1162 170.783 56.0488 169.737 56.0488 168.447V143.357C56.0488 142.066 57.1162 141.021 58.4333 141.021H66.994C68.3106 141.021 69.3785 142.066 69.3785 143.357V168.447C69.3785 169.737 68.3106 170.783 66.994 170.783Z" fill="#00C389"/>
<path fill-rule="evenodd" clip-rule="evenodd" d="M82.4491 170.783H73.8884C72.5718 170.783 71.5039 169.738 71.5039 168.447V147.842C71.5039 146.551 72.5718 145.506 73.8884 145.506H82.4491C83.7662 145.506 84.8336 146.551 84.8336 147.842V168.447C84.8336 169.738 83.7662 170.783 82.4491 170.783Z" fill="#00C389"/>
<path fill-rule="evenodd" clip-rule="evenodd" d="M97.9095 170.783H89.3488C88.0322 170.783 86.9648 169.738 86.9648 168.447V141.442C86.9648 140.151 88.0322 139.106 89.3488 139.106H97.9095C99.2266 139.106 100.294 140.151 100.294 141.442V168.447C100.294 169.738 99.2266 170.783 97.9095 170.783Z" fill="#00C389"/>
<path fill-rule="evenodd" clip-rule="evenodd" d="M113.365 170.783H104.804C103.487 170.783 102.42 169.737 102.42 168.447V134.675C102.42 133.385 103.487 132.34 104.804 132.34H113.365C114.682 132.34 115.75 133.385 115.75 134.675V168.447C115.75 169.737 114.682 170.783 113.365 170.783Z" fill="#00C389"/>
<path fill-rule="evenodd" clip-rule="evenodd" d="M128.823 170.783H120.261C118.944 170.783 117.877 169.737 117.877 168.447V127.544C117.877 126.254 118.944 125.208 120.261 125.208H128.823C130.139 125.208 131.207 126.254 131.207 127.544V168.447C131.207 169.737 130.139 170.783 128.823 170.783Z" fill="#00C389"/>
<path fill-rule="evenodd" clip-rule="evenodd" d="M144.281 170.783H135.72C134.403 170.783 133.336 169.737 133.336 168.447V138.333C133.336 137.043 134.403 135.997 135.72 135.997H144.281C145.598 135.997 146.665 137.043 146.665 138.333V168.447C146.665 169.737 145.598 170.783 144.281 170.783Z" fill="#00C389"/>
<path fill-rule="evenodd" clip-rule="evenodd" d="M159.738 170.783H151.177C149.86 170.783 148.793 169.738 148.793 168.447V124.436C148.793 123.146 149.86 122.1 151.177 122.1H159.738C161.055 122.1 162.123 123.146 162.123 124.436V168.447C162.123 169.738 161.055 170.783 159.738 170.783Z" fill="#00C389"/>
<path fill-rule="evenodd" clip-rule="evenodd" d="M175.193 170.784H166.633C165.315 170.784 164.248 169.738 164.248 168.448V120.231C164.248 118.941 165.315 117.895 166.633 117.895H175.193C176.51 117.895 177.578 118.941 177.578 120.231V168.448C177.578 169.738 176.51 170.784 175.193 170.784Z" fill="#00C389"/>
<path fill-rule="evenodd" clip-rule="evenodd" d="M190.65 170.784H182.09C180.772 170.784 179.705 169.738 179.705 168.448V122.791C179.705 121.5 180.772 120.455 182.09 120.455H190.65C191.967 120.455 193.034 121.5 193.034 122.791V168.448C193.034 169.738 191.967 170.784 190.65 170.784Z" fill="#00C389"/>
<path fill-rule="evenodd" clip-rule="evenodd" d="M206.111 170.783H197.55C196.233 170.783 195.166 169.737 195.166 168.447V107.822C195.166 106.532 196.233 105.486 197.55 105.486H206.111C207.428 105.486 208.496 106.532 208.496 107.822V168.447C208.496 169.737 207.428 170.783 206.111 170.783Z" fill="#00C389"/>
<path fill-rule="evenodd" clip-rule="evenodd" d="M221.568 170.783H213.008C211.691 170.783 210.623 169.737 210.623 168.447V114.039C210.623 112.749 211.691 111.703 213.008 111.703H221.568C222.885 111.703 223.953 112.749 223.953 114.039V168.447C223.953 169.737 222.885 170.783 221.568 170.783Z" fill="#00C389"/>
<path fill-rule="evenodd" clip-rule="evenodd" d="M237.025 170.783H228.464C227.147 170.783 226.08 169.738 226.08 168.447V98.8924C226.08 97.6028 227.147 96.5566 228.464 96.5566H237.025C238.342 96.5566 239.41 97.6028 239.41 98.8924V168.447C239.41 169.738 238.342 170.783 237.025 170.783Z" fill="#00C389"/>
<path fill-rule="evenodd" clip-rule="evenodd" d="M47.2568 160.008C47.17 160.008 47.0855 159.969 47.03 159.895C46.9393 159.773 46.9668 159.601 47.0916 159.512L47.7709 159.028C47.8964 158.939 48.0711 158.966 48.1624 159.089C48.2531 159.211 48.2256 159.383 48.1008 159.472L47.4215 159.956C47.3716 159.991 47.314 160.008 47.2568 160.008Z" fill="#132529"/>
<path fill-rule="evenodd" clip-rule="evenodd" d="M104.768 118.997C104.682 118.997 104.597 118.957 104.542 118.884C104.451 118.761 104.478 118.59 104.603 118.5L105.967 117.528C106.092 117.439 106.267 117.466 106.358 117.588C106.45 117.71 106.422 117.882 106.297 117.972L104.933 118.944C104.883 118.979 104.826 118.997 104.768 118.997ZM101.131 121.59C101.044 121.59 100.959 121.551 100.904 121.477C100.813 121.355 100.841 121.183 100.966 121.094L102.33 120.122C102.455 120.032 102.63 120.059 102.721 120.182C102.812 120.305 102.784 120.476 102.66 120.565L101.296 121.538C101.246 121.573 101.188 121.59 101.131 121.59ZM97.4935 124.184C97.4073 124.184 97.3222 124.145 97.2667 124.071C97.176 123.949 97.2034 123.777 97.3283 123.688L98.6925 122.715C98.8179 122.626 98.9921 122.653 99.0839 122.775C99.1752 122.898 99.1472 123.069 99.0223 123.159L97.6582 124.131C97.6083 124.167 97.5506 124.184 97.4935 124.184ZM93.8563 126.778C93.7701 126.778 93.6844 126.739 93.6295 126.665C93.5388 126.543 93.5662 126.371 93.6911 126.282L95.0553 125.309C95.1802 125.22 95.3549 125.246 95.4462 125.369C95.5374 125.492 95.51 125.663 95.3851 125.752L94.021 126.726C93.9711 126.761 93.9134 126.778 93.8563 126.778ZM90.2191 129.371C90.1323 129.371 90.0472 129.332 89.9923 129.258C89.9016 129.136 89.929 128.964 90.0539 128.875L91.4181 127.903C91.5435 127.814 91.7182 127.841 91.809 127.963C91.9002 128.085 91.8728 128.258 91.7474 128.347L90.3838 129.319C90.3339 129.354 90.2762 129.371 90.2191 129.371ZM86.5814 131.965C86.4951 131.965 86.41 131.926 86.3551 131.852C86.2638 131.73 86.2913 131.558 86.4162 131.469L87.7803 130.496C87.9058 130.408 88.081 130.434 88.1718 130.557C88.263 130.679 88.235 130.851 88.1102 130.94L86.746 131.913C86.6962 131.948 86.6385 131.965 86.5814 131.965ZM82.9442 134.559C82.8579 134.559 82.7728 134.52 82.7174 134.446C82.6266 134.324 82.6541 134.153 82.779 134.063L84.1431 133.09C84.268 133.001 84.4427 133.028 84.5346 133.151C84.6253 133.273 84.5978 133.444 84.473 133.534L83.1088 134.506C83.059 134.542 83.0013 134.559 82.9442 134.559ZM79.307 137.152C79.2202 137.152 79.135 137.113 79.0802 137.039C78.9894 136.917 79.0169 136.745 79.1418 136.656L80.5059 135.684C80.6308 135.595 80.8066 135.622 80.8968 135.745C80.9881 135.867 80.9606 136.039 80.8358 136.127L79.4716 137.1C79.4218 137.135 79.3641 137.152 79.307 137.152ZM75.6692 139.746C75.583 139.746 75.4978 139.707 75.443 139.633C75.3517 139.511 75.3791 139.339 75.5046 139.25L76.8687 138.277C76.9942 138.188 77.1689 138.215 77.2596 138.338C77.3509 138.46 77.3234 138.632 77.198 138.721L75.8338 139.694C75.7846 139.729 75.7269 139.746 75.6692 139.746ZM72.032 142.34C71.9458 142.34 71.8606 142.301 71.8058 142.227C71.7145 142.105 71.7419 141.933 71.8668 141.844L73.231 140.871C73.3558 140.783 73.5311 140.809 73.6224 140.932C73.7131 141.054 73.6857 141.225 73.5608 141.315L72.1966 142.288C72.1468 142.323 72.0891 142.34 72.032 142.34ZM68.3948 144.934C68.3086 144.934 68.2234 144.895 68.168 144.821C68.0773 144.699 68.1047 144.528 68.2296 144.438L69.5938 143.465C69.7186 143.376 69.8939 143.403 69.9852 143.526C70.0759 143.648 70.0485 143.819 69.9236 143.909L68.5594 144.881C68.5096 144.917 68.4519 144.934 68.3948 144.934ZM64.7576 147.528C64.6708 147.528 64.5857 147.488 64.5308 147.414C64.4395 147.292 64.4675 147.12 64.5924 147.031L65.9566 146.059C66.0809 145.97 66.2567 145.997 66.3474 146.12C66.4387 146.242 66.4113 146.414 66.2859 146.502L64.9217 147.475C64.8724 147.51 64.8147 147.528 64.7576 147.528ZM61.1204 150.121C61.0336 150.121 60.9485 150.082 60.8936 150.008C60.8023 149.886 60.8298 149.715 60.9552 149.625L62.3188 148.652C62.4443 148.564 62.619 148.59 62.7102 148.713C62.801 148.835 62.7735 149.007 62.6486 149.096L61.2845 150.069C61.2352 150.104 61.1775 150.121 61.1204 150.121ZM57.4827 152.716C57.3964 152.716 57.3113 152.676 57.2564 152.602C57.1651 152.48 57.1926 152.308 57.3174 152.219L58.6816 151.246C58.8065 151.158 58.9818 151.184 59.073 151.307C59.1638 151.429 59.1363 151.6 59.0114 151.69L57.6473 152.663C57.5975 152.698 57.5398 152.716 57.4827 152.716ZM53.8455 155.309C53.7587 155.309 53.6735 155.27 53.6187 155.196C53.5274 155.073 53.5554 154.902 53.6803 154.813L55.0444 153.84C55.1693 153.751 55.3446 153.778 55.4359 153.901C55.5266 154.023 55.4991 154.195 55.3737 154.284L54.0095 155.256C53.9603 155.292 53.9026 155.309 53.8455 155.309ZM50.2083 157.903C50.1215 157.903 50.0363 157.863 49.9815 157.79C49.8902 157.667 49.9182 157.496 50.0431 157.406L51.4067 156.434C51.5321 156.345 51.7068 156.372 51.7981 156.494C51.8894 156.616 51.8614 156.788 51.7365 156.877L50.3729 157.85C50.3231 157.885 50.2654 157.903 50.2083 157.903Z" fill="#132529"/>
<path fill-rule="evenodd" clip-rule="evenodd" d="M108.407 116.402C108.32 116.402 108.235 116.363 108.18 116.289C108.09 116.167 108.117 115.995 108.242 115.906L108.921 115.421C108.989 115.374 109.076 115.357 109.156 115.377L109.97 115.583C110.119 115.621 110.209 115.771 110.17 115.917C110.131 116.064 109.978 116.15 109.83 116.115L109.144 115.941L108.572 116.35C108.522 116.385 108.464 116.402 108.407 116.402Z" fill="#132529"/>
<path fill-rule="evenodd" clip-rule="evenodd" d="M228.106 99.4348C228.01 99.4348 227.915 99.3854 227.863 99.2971C227.787 99.1649 227.833 98.9976 227.967 98.9224L229.433 98.0996C229.567 98.0239 229.738 98.0683 229.815 98.2011C229.892 98.3327 229.845 98.5 229.711 98.5752L228.246 99.398L228.106 99.4348ZM224.198 101.629C224.102 101.629 224.007 101.58 223.956 101.491C223.878 101.359 223.925 101.192 224.059 101.117L225.525 100.294C225.659 100.218 225.83 100.263 225.907 100.395C225.984 100.527 225.938 100.694 225.804 100.769L224.338 101.592L224.198 101.629ZM220.291 103.823C220.194 103.823 220.099 103.774 220.047 103.686C219.971 103.553 220.017 103.386 220.151 103.311L221.617 102.488C221.75 102.413 221.922 102.457 221.999 102.59C222.076 102.721 222.029 102.889 221.895 102.964L220.43 103.787L220.291 103.823ZM216.383 106.018C216.286 106.018 216.192 105.968 216.14 105.88C216.063 105.748 216.11 105.58 216.243 105.505L217.709 104.682C217.843 104.607 218.015 104.652 218.091 104.784C218.168 104.916 218.122 105.083 217.988 105.158L216.522 105.981L216.383 106.018ZM212.475 108.212C212.378 108.212 212.284 108.162 212.232 108.074C212.155 107.942 212.202 107.775 212.336 107.699L213.801 106.877C213.935 106.801 214.106 106.846 214.183 106.978C214.26 107.11 214.213 107.277 214.08 107.352L212.615 108.175L212.475 108.212ZM208.567 110.406C208.471 110.406 208.376 110.357 208.324 110.268C208.247 110.136 208.294 109.969 208.427 109.894L209.894 109.071C210.027 108.996 210.198 109.04 210.275 109.172C210.353 109.304 210.306 109.471 210.172 109.547L208.706 110.369L208.567 110.406ZM204.659 112.6C204.562 112.6 204.468 112.551 204.416 112.463C204.339 112.33 204.386 112.163 204.52 112.088L205.985 111.265C206.119 111.189 206.291 111.234 206.368 111.367C206.445 111.498 206.398 111.666 206.264 111.741L204.799 112.564L204.659 112.6ZM200.751 114.795C200.655 114.795 200.56 114.745 200.508 114.657C200.431 114.525 200.478 114.357 200.612 114.282L202.078 113.459C202.211 113.384 202.382 113.429 202.46 113.561C202.537 113.693 202.49 113.86 202.356 113.935L200.89 114.758L200.751 114.795ZM196.843 116.989C196.746 116.989 196.652 116.94 196.6 116.851C196.524 116.719 196.57 116.552 196.704 116.477L198.169 115.654C198.303 115.579 198.475 115.622 198.552 115.755C198.629 115.887 198.582 116.054 198.448 116.129L196.983 116.952L196.843 116.989ZM114.259 117.226L114.189 117.218L112.554 116.804C112.404 116.766 112.314 116.616 112.353 116.469C112.391 116.322 112.544 116.236 112.694 116.272L114.329 116.686C114.479 116.724 114.569 116.874 114.531 117.02C114.497 117.144 114.384 117.226 114.259 117.226ZM118.621 118.329L118.551 118.32L116.915 117.906C116.765 117.868 116.675 117.719 116.714 117.572C116.753 117.425 116.907 117.338 117.055 117.375L118.691 117.789C118.84 117.827 118.93 117.976 118.892 118.123C118.859 118.247 118.746 118.329 118.621 118.329ZM192.936 119.183C192.839 119.183 192.745 119.134 192.693 119.045C192.616 118.913 192.662 118.746 192.796 118.671L194.261 117.848C194.395 117.772 194.566 117.817 194.644 117.949C194.721 118.081 194.674 118.248 194.541 118.324L193.075 119.146L192.936 119.183ZM122.983 119.431L122.912 119.422L121.277 119.009C121.127 118.971 121.037 118.821 121.076 118.675C121.114 118.527 121.266 118.44 121.417 118.477L123.052 118.891C123.202 118.929 123.292 119.078 123.254 119.225C123.221 119.349 123.107 119.431 122.983 119.431ZM127.344 120.534L127.274 120.525L125.638 120.111C125.489 120.074 125.398 119.924 125.437 119.777C125.476 119.63 125.628 119.544 125.778 119.58L127.414 119.993C127.563 120.031 127.654 120.181 127.615 120.328C127.582 120.451 127.469 120.534 127.344 120.534ZM189.028 121.377C188.931 121.377 188.836 121.328 188.785 121.24C188.708 121.108 188.755 120.94 188.888 120.865L190.353 120.042C190.488 119.967 190.659 120.011 190.736 120.144C190.813 120.275 190.766 120.443 190.632 120.518L189.167 121.341L189.028 121.377ZM131.705 121.636L131.635 121.628L130 121.214C129.85 121.176 129.76 121.026 129.798 120.879C129.838 120.732 129.99 120.646 130.14 120.682L131.775 121.096C131.925 121.134 132.015 121.284 131.976 121.43C131.944 121.554 131.83 121.636 131.705 121.636ZM136.067 122.738L135.997 122.73L134.361 122.317C134.212 122.278 134.121 122.129 134.16 121.982C134.199 121.835 134.351 121.745 134.501 121.785L136.137 122.199C136.287 122.237 136.377 122.386 136.338 122.533C136.305 122.657 136.191 122.738 136.067 122.738ZM185.12 123.572C185.023 123.572 184.928 123.522 184.877 123.434C184.8 123.302 184.846 123.135 184.98 123.059L186.446 122.237C186.58 122.161 186.752 122.205 186.828 122.338C186.906 122.47 186.859 122.637 186.725 122.712L185.259 123.535L185.12 123.572ZM140.428 123.841L140.358 123.832L138.723 123.419C138.573 123.381 138.483 123.231 138.522 123.085C138.56 122.937 138.712 122.848 138.863 122.888L140.498 123.301C140.648 123.339 140.737 123.488 140.699 123.635C140.666 123.759 140.553 123.841 140.428 123.841ZM144.79 124.944L144.72 124.935L143.084 124.522C142.934 124.484 142.845 124.334 142.883 124.188C142.922 124.041 143.073 123.951 143.224 123.99L144.86 124.403C145.009 124.442 145.099 124.591 145.061 124.738C145.028 124.861 144.914 124.944 144.79 124.944ZM181.212 125.766C181.115 125.766 181.02 125.717 180.969 125.628C180.892 125.496 180.938 125.329 181.073 125.254L182.538 124.431C182.671 124.355 182.844 124.4 182.921 124.532C182.997 124.664 182.951 124.831 182.817 124.906L181.351 125.729L181.212 125.766ZM149.151 126.046L149.081 126.038L147.446 125.624C147.296 125.586 147.206 125.437 147.245 125.29C147.283 125.143 147.434 125.053 147.586 125.093L149.221 125.506C149.37 125.544 149.461 125.694 149.422 125.84C149.389 125.964 149.275 126.046 149.151 126.046ZM153.513 127.148L153.443 127.14L151.807 126.727C151.657 126.689 151.567 126.539 151.606 126.392C151.645 126.246 151.795 126.159 151.947 126.196L153.583 126.609C153.732 126.646 153.822 126.796 153.784 126.943C153.751 127.067 153.638 127.148 153.513 127.148ZM177.304 127.96C177.207 127.96 177.112 127.911 177.061 127.823C176.984 127.69 177.03 127.523 177.164 127.448L178.63 126.625C178.765 126.55 178.935 126.594 179.012 126.727C179.09 126.858 179.043 127.025 178.909 127.101L177.443 127.924L177.304 127.96ZM157.874 128.252L157.804 128.243L156.168 127.829C156.018 127.791 155.929 127.642 155.967 127.495C156.006 127.348 156.156 127.261 156.308 127.298L157.944 127.711C158.094 127.75 158.184 127.899 158.145 128.046C158.113 128.169 157.999 128.252 157.874 128.252ZM162.235 129.354L162.165 129.345L160.53 128.932C160.38 128.894 160.29 128.744 160.328 128.598C160.367 128.451 160.518 128.363 160.67 128.4L162.305 128.814C162.455 128.852 162.545 129.001 162.506 129.148C162.474 129.272 162.36 129.354 162.235 129.354ZM173.396 130.155C173.299 130.155 173.205 130.105 173.153 130.017C173.076 129.885 173.122 129.717 173.257 129.642L174.722 128.819C174.856 128.744 175.027 128.789 175.105 128.921C175.181 129.052 175.135 129.22 175.001 129.295L173.536 130.118L173.396 130.155ZM166.597 130.456L166.527 130.448L164.891 130.034C164.742 129.997 164.652 129.847 164.69 129.7C164.729 129.554 164.881 129.465 165.031 129.503L166.667 129.916C166.817 129.954 166.906 130.104 166.868 130.251C166.835 130.374 166.721 130.456 166.597 130.456ZM170.891 131.544L170.844 131.539L169.253 131.137C169.103 131.099 169.014 130.949 169.052 130.802C169.09 130.656 169.242 130.568 169.393 130.605L170.939 130.997C171.035 130.999 171.129 131.044 171.177 131.127C171.254 131.258 171.227 131.415 171.092 131.49C171.042 131.518 170.958 131.544 170.891 131.544Z" fill="#132529"/>
<path fill-rule="evenodd" clip-rule="evenodd" d="M232.015 97.2404C231.918 97.2404 231.823 97.1911 231.772 97.1028C231.694 96.9705 231.741 96.8032 231.875 96.7281L232.604 96.3188C232.738 96.2437 232.909 96.2876 232.986 96.4198C233.064 96.552 233.017 96.7193 232.883 96.7945L232.154 97.2037L232.015 97.2404Z" fill="#132529"/>
<path fill-rule="evenodd" clip-rule="evenodd" d="M49.5563 159.733C49.5563 160.976 48.5276 161.984 47.2586 161.984C45.9897 161.984 44.9609 160.976 44.9609 159.733C44.9609 158.49 45.9897 157.482 47.2586 157.482C48.5276 157.482 49.5563 158.49 49.5563 159.733Z" fill="#FFFFFE"/>
<path fill-rule="evenodd" clip-rule="evenodd" d="M47.2554 157.757C46.1427 157.757 45.2377 158.643 45.2377 159.733C45.2377 160.823 46.1427 161.71 47.2554 161.71C48.3681 161.71 49.2731 160.823 49.2731 159.733C49.2731 158.643 48.3681 157.757 47.2554 157.757ZM47.2554 162.258C45.8341 162.258 44.6777 161.126 44.6777 159.733C44.6777 158.341 45.8341 157.208 47.2554 157.208C48.6767 157.208 49.8331 158.341 49.8331 159.733C49.8331 161.126 48.6767 162.258 47.2554 162.258Z" fill="#132529"/>
<path fill-rule="evenodd" clip-rule="evenodd" d="M111.384 115.644C111.384 116.887 110.356 117.895 109.087 117.895C107.818 117.895 106.789 116.887 106.789 115.644C106.789 114.401 107.818 113.394 109.087 113.394C110.356 113.394 111.384 114.401 111.384 115.644Z" fill="#FFFFFE"/>
<path fill-rule="evenodd" clip-rule="evenodd" d="M109.085 113.668C107.973 113.668 107.068 114.554 107.068 115.644C107.068 116.734 107.973 117.621 109.085 117.621C110.198 117.621 111.103 116.734 111.103 115.644C111.103 114.554 110.198 113.668 109.085 113.668ZM109.085 118.169C107.664 118.169 106.508 117.037 106.508 115.644C106.508 114.252 107.664 113.119 109.085 113.119C110.507 113.119 111.663 114.252 111.663 115.644C111.663 117.037 110.507 118.169 109.085 118.169Z" fill="#132529"/>
<path fill-rule="evenodd" clip-rule="evenodd" d="M173.215 131.273C173.215 132.516 172.186 133.523 170.917 133.523C169.648 133.523 168.619 132.516 168.619 131.273C168.619 130.03 169.648 129.022 170.917 129.022C172.186 129.022 173.215 130.03 173.215 131.273Z" fill="#FFFFFE"/>
<path fill-rule="evenodd" clip-rule="evenodd" d="M170.914 129.297C169.801 129.297 168.896 130.183 168.896 131.273C168.896 132.363 169.801 133.249 170.914 133.249C172.026 133.249 172.931 132.363 172.931 131.273C172.931 130.183 172.026 129.297 170.914 129.297ZM170.914 133.798C169.492 133.798 168.336 132.666 168.336 131.273C168.336 129.881 169.492 128.748 170.914 128.748C172.335 128.748 173.491 129.881 173.491 131.273C173.491 132.666 172.335 133.798 170.914 133.798Z" fill="#132529"/>
<path fill-rule="evenodd" clip-rule="evenodd" d="M235.041 96.5566C235.041 97.7997 234.012 98.8074 232.743 98.8074C231.474 98.8074 230.445 97.7997 230.445 96.5566C230.445 95.3141 231.474 94.3064 232.743 94.3064C234.012 94.3064 235.041 95.3141 235.041 96.5566Z" fill="#FFFFFE"/>
<path fill-rule="evenodd" clip-rule="evenodd" d="M232.743 94.5815C231.631 94.5815 230.726 95.468 230.726 96.5575C230.726 97.6475 231.631 98.534 232.743 98.534C233.856 98.534 234.761 97.6475 234.761 96.5575C234.761 95.468 233.856 94.5815 232.743 94.5815ZM232.743 99.0825C231.322 99.0825 230.166 97.9503 230.166 96.5575C230.166 95.1652 231.322 94.033 232.743 94.033C234.164 94.033 235.321 95.1652 235.321 96.5575C235.321 97.9503 234.164 99.0825 232.743 99.0825Z" fill="#132529"/>
</g>
<defs>
<clipPath id="clip0">
<rect width="280" height="204.615" fill="white"/>
</clipPath>
</defs>
</svg>
