<svg width="208" height="206" viewBox="0 0 208 206" fill="none" xmlns="http://www.w3.org/2000/svg">
<path fill-rule="evenodd" clip-rule="evenodd" d="M208.001 199.197C208.001 202.487 161.621 205.154 104.408 205.154C47.1947 205.154 0.814453 202.487 0.814453 199.197C0.814453 195.906 47.1947 193.239 104.408 193.239C161.621 193.239 208.001 195.906 208.001 199.197Z" fill="#E0F4EE"/>
<path fill-rule="evenodd" clip-rule="evenodd" d="M149.977 191.089H90.5366V190.93H149.977V191.089Z" fill="#E4E4DE"/>
<path fill-rule="evenodd" clip-rule="evenodd" d="M69.9269 80.0111H83.627C83.627 81.7825 82.1904 83.2183 80.4175 83.2183H73.1357C71.3634 83.2183 69.9269 81.7825 69.9269 80.0111Z" fill="#DDDED8"/>
<path fill-rule="evenodd" clip-rule="evenodd" d="M73.1377 83.2184H78.8027C78.3484 81.3862 78.0864 80.3316 78.0864 80.3316H69.9448C69.9479 80.3614 69.9511 80.3912 69.9549 80.4204C70.156 81.9982 71.5044 83.2184 73.1377 83.2184Z" fill="#B0C4DA"/>
<path fill-rule="evenodd" clip-rule="evenodd" d="M109.901 197.63L114.375 196.179L111.594 185.635L107.119 187.086L109.901 197.63Z" fill="#FEB1AA"/>
<path fill-rule="evenodd" clip-rule="evenodd" d="M114.445 195.585L109.418 197.216C109.235 197.275 109.138 197.447 109.185 197.628L110.232 201.683C110.341 202.103 110.855 202.368 111.274 202.224C113.014 201.626 113.817 201.252 116.027 200.536C117.387 200.094 121.87 198.937 123.748 198.327C125.585 197.732 124.97 195.879 124.119 195.97C120.305 196.373 116.89 196.192 115.305 195.61C115.019 195.505 114.712 195.498 114.445 195.585Z" fill="#132529"/>
<path fill-rule="evenodd" clip-rule="evenodd" d="M108.55 192.525L108.553 192.524L108.179 191.109L108.176 191.11L108.55 192.525Z" fill="#BEBFBB"/>
<path fill-rule="evenodd" clip-rule="evenodd" d="M108.557 192.524L113.029 191.073L112.709 189.86L108.183 191.11L108.557 192.524Z" fill="#DB6E60"/>
<path fill-rule="evenodd" clip-rule="evenodd" d="M94.8986 80.3313C94.8986 80.3313 102.925 117.463 104.809 130.814C106.87 145.434 114.615 189.333 114.615 189.333L106.31 191.626C106.31 191.626 94.8021 149.05 91.4404 134.838C87.7919 119.413 78.0868 80.3313 78.0868 80.3313H94.8986Z" fill="#132F2D"/>
<path fill-rule="evenodd" clip-rule="evenodd" d="M83.9336 103.999C83.0554 100.431 82.207 96.9927 81.4412 93.894C81.4412 93.8953 81.4405 93.8966 81.4405 93.8978C82.2064 96.9946 83.0548 100.433 83.9336 103.999Z" fill="#9B9E9A"/>
<path fill-rule="evenodd" clip-rule="evenodd" d="M88.4771 122.538C89.7087 115.365 88.1351 99.7006 84.9688 92.5088C84.3768 91.165 83.8476 90.6468 83.3793 90.6468C82.5379 90.6468 81.8939 92.3217 81.4415 93.8939C82.2073 96.9926 83.0557 100.431 83.9339 103.999C85.4504 110.155 87.0551 116.696 88.4771 122.538Z" fill="#012017"/>
<path fill-rule="evenodd" clip-rule="evenodd" d="M106.099 191.79L114.994 189.341L114.822 185.72L104.807 189.181L106.099 191.79Z" fill="#132529"/>
<path fill-rule="evenodd" clip-rule="evenodd" d="M115.274 195.833C116.127 195.733 116.708 195.517 116.849 195.242C116.908 195.127 116.892 194.998 116.802 194.846C116.761 194.775 116.709 194.74 116.639 194.736C116.308 194.716 115.686 195.334 115.274 195.833ZM116.281 195.851C115.868 195.985 115.382 196.048 115.036 196.077L114.931 196.021L114.939 195.902C115.05 195.757 116.037 194.48 116.652 194.518C116.795 194.526 116.912 194.601 116.991 194.734C117.12 194.954 117.139 195.158 117.044 195.342C116.923 195.575 116.627 195.738 116.281 195.851Z" fill="#132529"/>
<path fill-rule="evenodd" clip-rule="evenodd" d="M115.084 194.062C114.997 194.091 114.933 194.144 114.889 194.227C114.704 194.573 114.906 195.322 115.057 195.743C115.339 195.288 115.553 194.434 115.382 194.136C115.349 194.08 115.291 194.018 115.133 194.049L115.084 194.062ZM115.061 196.073L115.009 196.077L114.926 196.012C114.904 195.959 114.385 194.704 114.696 194.124C114.78 193.967 114.913 193.87 115.091 193.834C115.305 193.792 115.475 193.861 115.571 194.028C115.833 194.482 115.469 195.632 115.109 196.041L115.061 196.073Z" fill="#132529"/>
<path fill-rule="evenodd" clip-rule="evenodd" d="M86.3554 45.0775C86.599 45.6445 86.7976 46.0745 87.0235 46.559C87.2456 47.0283 87.4823 47.4862 87.7171 47.9441C88.1898 48.858 88.6828 49.7579 89.1955 50.6496C90.2361 52.4241 91.3567 54.1637 92.6239 55.8354C93.8789 57.5135 95.2609 59.1371 96.8454 60.6534C98.4184 62.1755 100.22 63.5872 102.351 64.7193L102.51 64.8043C102.767 64.9406 103.049 65.0396 103.319 65.0992C104.847 65.4251 106.399 65.3015 107.679 64.9241C108.972 64.5506 110.054 63.9893 111.005 63.3805C112.901 62.1501 114.318 60.6921 115.602 59.2182C116.866 57.7241 117.959 56.1747 118.942 54.5784C119.924 52.9669 120.792 51.377 121.566 49.6057C122.02 48.5656 121.546 47.3549 120.505 46.9008C119.644 46.5241 118.665 46.7854 118.096 47.4767L118.033 47.5528C116.985 48.8275 115.85 50.1746 114.707 51.4055C113.56 52.6473 112.38 53.8345 111.163 54.8816C109.965 55.9344 108.69 56.8432 107.522 57.4184C106.941 57.7012 106.389 57.8801 105.957 57.9353C105.519 57.9879 105.246 57.9467 105.043 57.8579L106.011 58.2371C104.785 57.4425 103.586 56.3605 102.45 55.1296C101.321 53.8922 100.255 52.5091 99.2477 51.0548C98.2458 49.5962 97.2959 48.0652 96.398 46.4968C95.945 45.7142 95.5078 44.9202 95.0903 44.1186L94.4779 42.9155C94.2812 42.5312 94.0623 42.0898 93.9126 41.774L93.8732 41.6903C92.8999 39.6323 90.4411 38.7533 88.382 39.7261C86.3712 40.6768 85.4886 43.0506 86.3554 45.0775Z" fill="#132529"/>
<path fill-rule="evenodd" clip-rule="evenodd" d="M96.7344 60.5478C96.5021 60.3233 96.2737 60.0962 96.0497 59.8673C96.0497 59.8686 96.0497 59.8692 96.0497 59.8698C96.1424 59.965 96.2356 60.0601 96.3302 60.1546C96.4634 60.2865 96.5986 60.4178 96.7344 60.5478Z" fill="#A2A5A2"/>
<path fill-rule="evenodd" clip-rule="evenodd" d="M97.7431 61.4775C97.8446 58.9851 97.6542 56.163 96.7278 53.6896C96.4137 52.8556 96.0438 52.151 95.6364 51.5612C95.8655 53.9116 96.0191 56.6557 96.0476 59.8648C96.2716 60.0937 96.5 60.3208 96.7323 60.5453C97.061 60.8611 97.3972 61.1725 97.7431 61.4775Z" fill="#051317"/>
<path fill-rule="evenodd" clip-rule="evenodd" d="M121.733 49.9386L125.855 50.085L124.824 45.6837C124.824 45.6837 122.371 45.7839 120.619 46.2944C119.558 46.6046 119.124 47.8787 119.728 48.8046L119.73 48.8078C120.174 49.4876 120.921 49.91 121.733 49.9386Z" fill="#FEB1AA"/>
<path fill-rule="evenodd" clip-rule="evenodd" d="M119.417 46.2085C119.757 45.9371 120.203 45.6796 120.777 45.5064C121.125 47.3057 123.293 50.3492 123.293 50.3492H121.575C121.125 50.3492 120.698 50.1494 120.41 49.8038L119.207 48.3635C118.663 47.7122 118.752 46.7374 119.417 46.2085Z" fill="#045940"/>
<path fill-rule="evenodd" clip-rule="evenodd" d="M129.004 48.0586L127.844 44.9497L124.824 45.6816L125.855 50.0829L129.004 48.0586Z" fill="#FEB1AA"/>
<path fill-rule="evenodd" clip-rule="evenodd" d="M77.1475 199.687H81.8519L82.0137 188.799H77.3099L77.1475 199.687Z" fill="#FEB1AA"/>
<path fill-rule="evenodd" clip-rule="evenodd" d="M82.0941 199.143H76.8091C76.6169 199.143 76.4722 199.277 76.4601 199.465L76.2044 203.644C76.1778 204.077 76.5845 204.488 77.0274 204.48C78.8675 204.448 79.747 204.341 82.0706 204.341C83.5009 204.341 88.2801 204.489 90.2548 204.489C92.1856 204.489 92.1729 202.538 91.336 202.361C87.584 201.569 84.2325 200.476 82.9044 199.433C82.6652 199.245 82.3758 199.143 82.0941 199.143Z" fill="#132529"/>
<path fill-rule="evenodd" clip-rule="evenodd" d="M77.2197 194.415H77.2229L77.3066 188.803H77.3054L77.2197 194.415Z" fill="#99A9B8"/>
<path fill-rule="evenodd" clip-rule="evenodd" d="M81.9794 191.044L82.0137 188.803H82.0124L81.9794 191.044Z" fill="#BEBFBB"/>
<path fill-rule="evenodd" clip-rule="evenodd" d="M77.2262 194.415H81.9286L81.9807 191.044L82.0137 188.803H77.3099L77.2262 194.415Z" fill="#DB6E60"/>
<path fill-rule="evenodd" clip-rule="evenodd" d="M85.7211 80.3313C85.7211 80.3313 87.5174 121.181 86.7547 134.642C85.919 149.383 84.1646 193.06 84.1646 193.06H75.549C75.549 193.06 73.3763 150.573 72.8573 135.978C72.2945 120.138 69.7392 80.3313 69.7392 80.3313H85.7211Z" fill="#132F2D"/>
<path fill-rule="evenodd" clip-rule="evenodd" d="M75.2015 193.061H84.5113L85.2207 189.6L74.9452 190.111L75.2015 193.061Z" fill="#132529"/>
<path fill-rule="evenodd" clip-rule="evenodd" d="M82.8113 199.636C83.6526 199.803 84.2726 199.777 84.4921 199.559C84.5835 199.468 84.6089 199.34 84.5702 199.168C84.5518 199.088 84.5137 199.038 84.449 199.014C84.1393 198.893 83.357 199.288 82.8113 199.636ZM83.7637 199.962C83.329 199.962 82.8481 199.873 82.5099 199.794L82.4274 199.709L82.4724 199.598C82.6222 199.494 83.954 198.584 84.5283 198.809C84.6615 198.861 84.7497 198.969 84.784 199.12C84.8392 199.369 84.7935 199.569 84.6463 199.714C84.4598 199.9 84.1279 199.962 83.7637 199.962Z" fill="#132529"/>
<path fill-rule="evenodd" clip-rule="evenodd" d="M83.1801 197.894C83.0894 197.894 83.012 197.925 82.9447 197.99C82.6611 198.262 82.623 199.037 82.6357 199.484C83.045 199.138 83.512 198.392 83.4409 198.056C83.4276 197.992 83.3908 197.916 83.2315 197.897L83.1801 197.894ZM82.5374 199.799L82.4872 199.787L82.4282 199.699C82.4238 199.641 82.3178 198.289 82.7931 197.832C82.9206 197.709 83.0774 197.658 83.2576 197.679C83.4739 197.705 83.6154 197.823 83.6548 198.011C83.7633 198.523 83.0621 199.505 82.5938 199.784L82.5374 199.799Z" fill="#132529"/>
<path fill-rule="evenodd" clip-rule="evenodd" d="M67.3758 42.4197C67.0789 40.7562 68.2172 39.1796 69.8892 38.9355L69.9438 38.9272C71.4603 38.7052 73.3639 38.4769 75.2294 38.3881C78.4401 38.2359 83.0918 38.1345 85.9218 38.3881C87.5646 38.5404 89.1706 38.8131 90.4523 39.0604L90.5012 39.0705C92.1345 39.401 93.4498 40.6072 93.9238 42.2048C95.4575 47.3754 97.2875 57.9278 94.894 80.3341H69.7344C69.5567 78.089 70.058 70.7843 69.69 61.4793C69.4101 54.3902 68.1481 46.7507 67.3758 42.4197Z" fill="#132529"/>
<path fill-rule="evenodd" clip-rule="evenodd" d="M69.2318 55.1998C69.2318 55.1998 69.2324 55.1998 69.2324 55.1986C69.0053 52.9916 68.7248 50.8416 68.4348 48.8642C68.7242 50.8416 69.0046 52.9928 69.2318 55.1998ZM67.9767 45.9063C67.8555 45.1605 67.7369 44.4571 67.6239 43.8046L67.6233 43.8052C67.7362 44.4578 67.8555 45.1605 67.9767 45.9063Z" fill="#A2A5A2"/>
<path fill-rule="evenodd" clip-rule="evenodd" d="M69.2288 55.1942C69.2719 55.1099 71.5277 50.6578 71.942 46.8424C72.2276 44.2118 70.7866 43.2516 69.3798 43.2516C68.7275 43.2516 68.0822 43.4577 67.6203 43.8002C67.7332 44.4528 67.8519 45.1561 67.9731 45.9019C68.1241 46.8285 68.2789 47.8204 68.4312 48.8598C68.7212 50.8373 69.0016 52.9872 69.2288 55.1942Z" fill="#051317"/>
<path fill-rule="evenodd" clip-rule="evenodd" d="M84.4962 44.3954C84.5825 44.3954 84.6656 44.3491 84.7075 44.2673C84.7684 44.1506 84.7221 44.0073 84.606 43.947L82.7792 43.0002L82.4245 43.3522L84.3864 44.3694L84.4962 44.3954ZM81.9809 43.1226L82.3356 42.77L80.7297 41.9379C80.2569 41.9119 79.8147 41.8593 79.4003 41.785L81.9809 43.1226Z" fill="#415051"/>
<path fill-rule="evenodd" clip-rule="evenodd" d="M80.9014 44.7673C80.9623 44.7673 81.0226 44.7445 81.0695 44.6982L82.4224 43.3524L82.7771 43.0004L84.2422 41.5424C83.9617 41.6464 83.6521 41.7308 83.3139 41.7955L80.7332 44.3614C80.6406 44.454 80.64 44.6043 80.7326 44.6976C80.7796 44.7445 80.8398 44.7673 80.9014 44.7673Z" fill="#415051"/>
<path fill-rule="evenodd" clip-rule="evenodd" d="M74.0992 38.4582C74.155 38.4537 74.2115 38.4499 74.2673 38.4461C74.2109 38.4493 74.155 38.4531 74.0985 38.4569L74.0992 38.4582ZM85.9648 38.3922L85.9204 38.3872C85.751 38.3719 85.5759 38.3586 85.3944 38.3453C85.3963 38.3459 85.3976 38.3466 85.3995 38.3466C85.5797 38.3593 85.7548 38.3732 85.9236 38.3884C85.9369 38.3897 85.9509 38.391 85.9648 38.3922Z" fill="#FFFFFE"/>
<path fill-rule="evenodd" clip-rule="evenodd" d="M81.3963 41.9576C81.6254 41.9576 81.8595 41.9513 82.1013 41.9386C82.5404 41.9151 82.9446 41.8675 83.3151 41.7971C83.6533 41.7325 83.963 41.6481 84.2434 41.5441C84.9674 41.2765 85.496 40.8782 85.8253 40.3531C86.2949 39.6047 86.2003 38.8247 86.0982 38.4061L85.9655 38.3921C85.9516 38.3909 85.9376 38.3896 85.9243 38.3883C85.7555 38.3731 85.5804 38.3592 85.4002 38.3465C85.4053 38.3477 85.411 38.349 85.416 38.3503C85.416 38.3503 86.5633 41.0596 82.0689 41.3025C81.8386 41.3152 81.6146 41.3209 81.397 41.3209C76.5841 41.3209 74.8201 38.4137 74.8201 38.4137C74.8213 38.4124 74.8226 38.4112 74.8239 38.4099C74.6386 38.4213 74.454 38.4334 74.268 38.446C74.2122 38.4498 74.1557 38.4537 74.0999 38.4581L74.2776 38.7428C74.348 38.857 75.7757 41.1382 79.3995 41.787C79.8138 41.8612 80.2561 41.9138 80.7288 41.9398C80.9452 41.9519 81.1679 41.9576 81.3963 41.9576Z" fill="#415051"/>
<path fill-rule="evenodd" clip-rule="evenodd" d="M85.4119 38.3498C82.3027 37.6148 81.757 35.6925 81.9671 33.5813C82.0109 33.0676 82.0997 32.5342 82.2145 32.0078L78.3185 28.7741L75.4562 26.4015C76.2493 29.8459 77.144 36.1181 74.816 38.4132C74.816 38.4132 76.743 41.5893 82.0648 41.302C86.5591 41.0591 85.4119 38.3498 85.4119 38.3498Z" fill="#FEB1AA"/>
<path fill-rule="evenodd" clip-rule="evenodd" d="M82.2227 32.0079L79.5481 29.7882L82.2227 32.0079ZM79.3895 29.6569V29.6562L78.3267 28.7734C78.3267 28.7734 78.3267 28.7741 78.326 28.7741H78.3267L79.3895 29.6569Z" fill="#BEBFBB"/>
<path fill-rule="evenodd" clip-rule="evenodd" d="M79.541 29.7896L79.3824 29.6577V29.6583L79.541 29.7896Z" fill="#ACAEAB"/>
<path fill-rule="evenodd" clip-rule="evenodd" d="M81.9752 33.5812C82.019 33.0675 82.1078 32.5348 82.2227 32.0084L79.3895 29.6574L78.3266 28.7746C78.2879 29.1615 78.3013 29.6999 78.3774 30.258C78.5798 31.742 80.5215 33.2895 81.9752 33.5812Z" fill="#DB6E60"/>
<path fill-rule="evenodd" clip-rule="evenodd" d="M84.3015 15.5053C86.4163 16.7477 86.0794 19.9466 86.6543 22.2177C85.3059 22.3496 83.1872 19.96 83.1872 19.96L81.922 16.3247L84.3015 15.5053Z" fill="#132529"/>
<path fill-rule="evenodd" clip-rule="evenodd" d="M73.0455 21.8835C74.3971 26.3628 74.9593 29.0455 77.8172 30.9125C82.1161 33.7214 87.2659 30.5187 87.287 25.7736C87.3059 21.5023 85.092 14.8946 80.1929 13.982C75.366 13.0833 71.694 17.4035 73.0455 21.8835Z" fill="#FEB1AA"/>
<path fill-rule="evenodd" clip-rule="evenodd" d="M77.2717 25.686C74.1022 22.0064 78.0661 20.192 74.8224 17.6381C78.4709 17.8099 84.478 17.5499 85.5504 15.048C86.6227 12.5467 83.3232 9.16388 80.5769 8.84678C77.3815 8.47831 78.0915 12.4059 78.0915 12.4059C78.0915 12.4059 65.9473 11.648 69.8027 16.8098C66.8813 16.6335 67.6853 21.3551 72.7653 25.336C74.0375 25.7945 77.2717 25.686 77.2717 25.686Z" fill="#132529"/>
<path fill-rule="evenodd" clip-rule="evenodd" d="M70.5273 16.9054C70.5273 16.9054 68.0273 16.1652 68.1143 14.1834C67.2094 14.8042 67.1168 16.6935 70.5273 16.9054Z" fill="#132529"/>
<path fill-rule="evenodd" clip-rule="evenodd" d="M72.3105 26.5589C73.1176 27.5501 74.2369 28.1418 75.1944 28.3156C76.6341 28.5775 76.9736 27.2451 76.2541 25.9469C75.6068 24.7787 74.0783 23.2344 72.7864 23.561C71.5135 23.8832 71.3879 25.4255 72.3105 26.5589Z" fill="#FEB1AA"/>
<path fill-rule="evenodd" clip-rule="evenodd" d="M80.2771 21.7693C80.3647 22.139 80.6324 22.399 80.8755 22.3502C81.1185 22.302 81.2454 21.9633 81.1578 21.5936C81.0709 21.2245 80.8031 20.9645 80.5595 21.0127C80.3164 21.0615 80.1902 21.4002 80.2771 21.7693Z" fill="#132529"/>
<path fill-rule="evenodd" clip-rule="evenodd" d="M84.4822 20.9296C84.5697 21.2987 84.8375 21.5587 85.0805 21.5106C85.3236 21.4617 85.4505 21.1231 85.3629 20.7539C85.276 20.3842 85.0082 20.1242 84.7646 20.173C84.5215 20.2212 84.3953 20.5605 84.4822 20.9296Z" fill="#132529"/>
<path fill-rule="evenodd" clip-rule="evenodd" d="M83.1874 21.3763C83.1874 21.3763 84.5371 23.3372 85.7109 24.1794C85.197 24.9208 84.0117 24.8656 84.0117 24.8656L83.1874 21.3763Z" fill="#E15B5A"/>
<path fill-rule="evenodd" clip-rule="evenodd" d="M82.7283 26.1642C81.2378 26.2815 80.3317 25.419 80.2904 25.3784L80.2885 25.2211L80.4459 25.2192C80.456 25.2287 81.4871 26.213 83.123 25.8845C83.1839 25.8718 83.2416 25.9111 83.2537 25.972C83.2657 26.0322 83.227 26.0906 83.1661 26.1026C83.0151 26.1331 82.8691 26.1527 82.7283 26.1642Z" fill="#132529"/>
<path fill-rule="evenodd" clip-rule="evenodd" d="M78.6485 20.7426L78.5388 20.7236C78.4264 20.6722 78.377 20.5403 78.4284 20.428C78.9341 19.3207 79.9582 19.178 80.0007 19.173C80.1149 19.147 80.2348 19.2427 80.2501 19.3651C80.2659 19.4875 80.1796 19.5985 80.0578 19.6144C80.0153 19.6201 79.231 19.7431 78.8344 20.6132C78.7989 20.6893 78.7266 20.7363 78.6485 20.7426Z" fill="#132529"/>
<path fill-rule="evenodd" clip-rule="evenodd" d="M85.5237 18.4019C85.4558 18.4234 85.3784 18.4127 85.3181 18.3657C84.518 17.7442 83.7242 17.9839 83.7165 17.9865C83.5992 18.0233 83.4742 17.9586 83.4373 17.8412C83.3999 17.7245 83.4646 17.5996 83.5814 17.5622L83.5827 17.5616C83.6239 17.5489 84.6093 17.2502 85.5916 18.0144C85.6887 18.0892 85.7064 18.23 85.6309 18.3264L85.5237 18.4019Z" fill="#132529"/>
<path fill-rule="evenodd" clip-rule="evenodd" d="M67.131 40.6056L66.6005 41.3273L66.1259 42.0009C65.8125 42.4486 65.525 42.9008 65.2293 43.3517C64.6481 44.2535 64.1062 45.1738 63.5758 46.0984C62.5275 47.9541 61.5611 49.8522 60.7096 51.8075C60.2654 52.7759 59.8809 53.7741 59.4755 54.7603C59.1189 55.7706 58.7292 56.7631 58.4164 57.7911C57.7235 59.8174 57.2248 61.9204 56.7667 64.024L56.7146 64.2631C56.5198 65.1555 56.7115 66.0503 57.1696 66.7625C57.9672 67.9929 58.9399 69.1509 60.056 70.1821C61.1633 71.2203 62.4698 72.0815 63.8505 72.736C65.2389 73.3842 66.7243 73.7882 68.2046 73.9417C68.9451 74.0197 69.6863 74.0285 70.4217 73.9822C70.7903 73.9543 71.1571 73.9118 71.5258 73.8541C71.7104 73.8237 71.8951 73.7863 72.0841 73.7444L72.7225 73.5897C72.8792 73.5516 72.9763 73.3937 72.9382 73.2364L72.06 69.56C72.0531 69.5308 71.8932 69.5213 71.7935 69.4972L71.4433 69.4261C71.206 69.378 70.9661 69.3202 70.7294 69.2537C70.2548 69.1281 69.7922 68.9606 69.3493 68.7767C68.4648 68.4 67.6539 67.9352 66.9477 67.3599C65.5162 66.2393 64.4978 64.1849 64.4978 64.1849L64.0098 65.7567C64.5536 63.9632 65.1284 62.1811 65.8321 60.43C66.5174 58.6765 67.2858 56.947 68.1196 55.2467C68.9553 53.5477 69.8385 51.8658 70.796 50.2315C71.2669 49.4102 71.7637 48.6067 72.2561 47.8057L73.0112 46.6292L73.3875 46.0566L73.8602 45.3621C75.1407 43.4811 74.6521 40.9189 72.7701 39.6391C70.9318 38.3891 68.4388 38.8318 67.131 40.6056Z" fill="#132529"/>
<path fill-rule="evenodd" clip-rule="evenodd" d="M75.5363 73.1994L76.9062 75.435L70.981 75.1959C70.981 75.1959 69.4296 71.2138 71.5508 70.5853L72.3694 70.8123C73.6892 71.1789 74.8206 72.0319 75.5363 73.1994Z" fill="#FEB1AA"/>
<path fill-rule="evenodd" clip-rule="evenodd" d="M73.1023 70.0738C73.4634 70.3161 73.8434 70.663 74.1816 71.1589C72.5706 72.0329 70.3212 75.0168 70.3212 75.0168L69.8034 73.3799C69.6676 72.9505 69.7291 72.4838 69.9715 72.1045L70.983 70.5241C71.4405 69.8087 72.3973 69.6007 73.1023 70.0738Z" fill="#045940"/>
<path fill-rule="evenodd" clip-rule="evenodd" d="M76.3843 78.8722C75.0846 80.2776 74.4864 77.924 72.5383 77.6457C71.2688 77.4644 70.9806 75.197 70.9806 75.197L76.9059 75.4361C76.9059 75.4361 77.3057 77.8757 76.3843 78.8722Z" fill="#FEB1AA"/>
<path fill-rule="evenodd" clip-rule="evenodd" d="M170.762 15.5708C170.863 15.5708 170.963 15.5328 171.039 15.4561L174.063 12.4339C174.216 12.2808 174.216 12.033 174.063 11.8804C173.91 11.7273 173.662 11.7273 173.509 11.8804L170.485 14.9026C170.332 15.0557 170.332 15.3034 170.485 15.4561C170.562 15.5328 170.662 15.5708 170.762 15.5708Z" fill="#4968A3"/>
<path fill-rule="evenodd" clip-rule="evenodd" d="M168.833 14.9393C169.008 14.9393 169.163 14.8046 169.197 14.6102L169.724 11.6162C169.762 11.3962 169.631 11.1836 169.429 11.1414C169.227 11.0996 169.033 11.2432 168.994 11.4636L168.468 14.4572C168.429 14.6771 168.561 14.8898 168.763 14.932C168.786 14.9373 168.81 14.9393 168.833 14.9393Z" fill="#4968A3"/>
<path fill-rule="evenodd" clip-rule="evenodd" d="M171.405 17.4725C171.43 17.4725 171.456 17.4702 171.482 17.4658L174.477 16.9394C174.697 16.9008 174.842 16.7064 174.799 16.5052C174.757 16.3036 174.543 16.173 174.324 16.2105L171.329 16.7368C171.109 16.7754 170.964 16.9699 171.007 17.1711C171.044 17.3489 171.214 17.4725 171.405 17.4725Z" fill="#4968A3"/>
<path fill-rule="evenodd" clip-rule="evenodd" d="M134.509 0H188.818C193.634 0 197.572 3.19267 197.572 7.09465V38.5033C197.572 42.4052 193.634 45.5979 188.818 45.5979H134.509C129.695 45.5979 125.756 42.4052 125.756 38.5033V7.09465C125.756 3.19267 129.695 0 134.509 0Z" fill="#00C389"/>
<path fill-rule="evenodd" clip-rule="evenodd" d="M126.584 31.7213L117.066 34.6561L126.584 24.5089V31.7213Z" fill="#00C389"/>
<path d="M160.328 39.7835C163.079 39.7835 165.381 37.858 165.909 35.3093H154.746C155.275 37.858 157.577 39.7835 160.328 39.7835Z" fill="#B6FFE9"/>
<path d="M171.836 25.6093C171.797 25.6093 171.76 25.6153 171.721 25.6153C165.02 25.6153 159.567 20.263 159.567 13.6846C159.567 11.1 160.418 8.71247 161.846 6.75561V5.48199C161.846 4.6573 161.165 3.99072 160.327 3.99072C159.488 3.99072 158.808 4.6573 158.808 5.48199V7.09286C153.662 7.8206 149.692 12.165 149.692 17.4129V21.5708C149.692 24.5222 148.375 27.3081 146.064 29.2259C145.474 29.7226 145.135 30.4444 145.135 31.2079C145.135 32.6473 146.327 33.8179 147.793 33.8179H172.86C174.326 33.8179 175.519 32.6473 175.519 31.2079C175.519 30.4444 175.18 29.7226 174.574 29.2141C173.377 28.2193 172.453 26.9815 171.836 25.6093Z" fill="#B6FFE9"/>
<circle cx="172.209" cy="14.5353" r="6.5547" fill="white"/>
<path d="M172.728 3.99072C167.283 3.99072 162.854 8.33946 162.854 13.6847C162.854 19.0296 167.283 23.3783 172.728 23.3783C178.173 23.3783 182.603 19.0296 182.603 13.6847C182.603 8.33946 178.173 3.99072 172.728 3.99072V3.99072ZM174.627 15.9217C175.256 15.9217 175.767 16.4228 175.767 17.0402C175.767 17.6576 175.256 18.1587 174.627 18.1587H170.829C170.2 18.1587 169.69 17.6576 169.69 17.0402V15.7426C169.69 13.9919 171.142 12.5661 172.926 12.5661C173.236 12.5661 173.488 12.3185 173.488 12.0143C173.488 11.695 173.236 11.4476 172.926 11.4476H170.829C170.2 11.4476 169.69 10.9465 169.69 10.3291C169.69 9.71167 170.2 9.21058 170.829 9.21058H172.926C174.492 9.21058 175.767 10.4618 175.767 11.9992C175.767 13.5519 174.492 14.8032 172.926 14.8032C172.399 14.8032 171.969 15.2251 171.969 15.7426V15.9217H174.627Z" fill="#132F2D"/>
<path d="M142.197 16.0609C141.983 15.9137 141.718 15.8556 141.46 15.8992C141.202 15.9428 140.972 16.0845 140.821 16.2934C139.675 17.8992 139.06 19.8104 139.06 21.7689C139.06 23.7273 139.675 25.6385 140.821 27.2443C140.972 27.455 141.202 27.5984 141.461 27.643C141.72 27.6875 141.987 27.6295 142.202 27.4817C142.418 27.3339 142.564 27.1084 142.61 26.8549C142.655 26.6014 142.596 26.3405 142.445 26.1298C141.534 24.8504 141.045 23.3284 141.045 21.7689C141.045 20.2093 141.534 18.6873 142.445 17.4079C142.594 17.197 142.652 16.9368 142.606 16.6843C142.559 16.4318 142.413 16.2076 142.197 16.0609Z" fill="white"/>
<path d="M135.145 21.7688C135.142 19.0261 136.003 16.3492 137.612 14.1032C137.694 13.9993 137.754 13.88 137.788 13.7527C137.821 13.6254 137.828 13.4928 137.808 13.3628C137.788 13.2328 137.74 13.1082 137.669 12.9966C137.598 12.885 137.505 12.7888 137.394 12.7137C137.284 12.6387 137.159 12.5864 137.027 12.56C136.896 12.5337 136.76 12.5338 136.628 12.5605C136.497 12.5871 136.372 12.6397 136.262 12.715C136.152 12.7902 136.058 12.8867 135.987 12.9984C134.152 15.5706 133.168 18.6319 133.168 21.7688C133.168 24.9057 134.152 27.967 135.987 30.5391C136.065 30.6435 136.162 30.7319 136.275 30.7993C136.387 30.8668 136.512 30.9119 136.642 30.9321C136.772 30.9524 136.905 30.9474 137.033 30.9173C137.161 30.8873 137.282 30.8329 137.389 30.7572C137.495 30.6814 137.586 30.5859 137.655 30.476C137.724 30.3661 137.77 30.244 137.79 30.1167C137.811 29.9894 137.806 29.8593 137.775 29.7339C137.745 29.6085 137.689 29.4902 137.612 29.3859C136.01 27.1546 135.149 24.4953 135.145 21.7688Z" fill="white"/>
<path d="M183.559 16.0608C183.346 16.209 183.201 16.4339 183.156 16.6864C183.112 16.9388 183.171 17.1982 183.322 17.4079C184.233 18.6873 184.722 20.2093 184.722 21.7688C184.722 23.3283 184.233 24.8503 183.322 26.1298C183.171 26.3405 183.111 26.6013 183.157 26.8549C183.202 27.1084 183.349 27.3339 183.564 27.4816C183.78 27.6294 184.046 27.6874 184.305 27.6429C184.564 27.5984 184.795 27.455 184.946 27.2442C186.092 25.6384 186.706 23.7272 186.706 21.7688C186.706 19.8104 186.092 17.8992 184.946 16.2934C184.871 16.1886 184.775 16.0994 184.665 16.0309C184.554 15.9624 184.431 15.916 184.302 15.8944C184.173 15.8728 184.041 15.8763 183.914 15.9049C183.786 15.9335 183.666 15.9865 183.559 16.0608Z" fill="white"/>
<path d="M188.393 12.7562C188.178 12.9029 188.031 13.1271 187.984 13.3797C187.938 13.6322 187.996 13.8924 188.145 14.1033C189.75 16.3495 190.61 19.0236 190.61 21.764C190.61 24.5043 189.75 27.1785 188.145 29.4247C187.994 29.6355 187.935 29.8963 187.98 30.1498C188.026 30.4034 188.173 30.6288 188.388 30.7766C188.603 30.9244 188.87 30.9824 189.129 30.9379C189.388 30.8933 189.619 30.7499 189.77 30.5392C191.605 27.967 192.589 24.9057 192.589 21.7688C192.589 18.6319 191.605 15.5706 189.77 12.9985C189.62 12.788 189.391 12.6443 189.132 12.5989C188.874 12.5535 188.608 12.6101 188.393 12.7562Z" fill="white"/>
</svg>
