<svg width="280" height="205" viewBox="0 0 280 205" fill="none" xmlns="http://www.w3.org/2000/svg">
<path fill-rule="evenodd" clip-rule="evenodd" d="M206.573 171.272H47.0055L37.4902 65.4468H197.058L206.573 171.272Z" fill="#CBFFF0"/>
<path fill-rule="evenodd" clip-rule="evenodd" d="M44.1863 174.642L47.0058 171.272L37.4906 65.4468L34.6758 68.8692L44.1863 174.642Z" fill="#EEF7F4"/>
<path fill-rule="evenodd" clip-rule="evenodd" d="M49.1139 167.253L40.3488 69.7724C40.2564 68.7451 41.0848 67.8613 42.1393 67.8613H193.159C194.09 67.8613 194.868 68.5571 194.949 69.4646L203.715 166.946C203.806 167.973 202.979 168.857 201.924 168.857H50.9043C49.9724 168.857 49.1958 168.16 49.1139 167.253Z" fill="white"/>
<path fill-rule="evenodd" clip-rule="evenodd" d="M69.4329 171.271H45.3915L43.6914 176.025H67.7328L69.4329 171.271Z" fill="#EEF7F4"/>
<path fill-rule="evenodd" clip-rule="evenodd" d="M69.4325 171.271H227.513L225.812 176.025H67.7324L69.4325 171.271Z" fill="#F1F1F1"/>
<path fill-rule="evenodd" clip-rule="evenodd" d="M134.529 171.271H164.831L164.505 174.384H134.203L134.529 171.271Z" fill="#EEF7F4"/>
<path fill-rule="evenodd" clip-rule="evenodd" d="M180.445 58.502H218.731C221.904 79.0364 207.231 95.933 186.228 95.933C179.508 95.933 172.638 94.2037 166.311 90.9182L180.445 58.502Z" fill="#24D7A1"/>
<path fill-rule="evenodd" clip-rule="evenodd" d="M180.445 58.5017L200.625 29.8276C205.45 33.3409 209.572 37.7287 212.7 42.6826C215.828 47.6359 217.887 53.036 218.731 58.5017H180.445Z" fill="#ABE7D5"/>
<path fill-rule="evenodd" clip-rule="evenodd" d="M180.445 58.5018L174.662 21.0703C179.128 21.0703 183.678 21.8342 188.106 23.3275C192.533 24.8212 196.77 27.0205 200.625 29.8277L180.445 58.5018Z" fill="#9CFFE1"/>
<path fill-rule="evenodd" clip-rule="evenodd" d="M180.446 58.5018L166.311 90.9181C153.449 84.2401 144.223 71.8578 142.16 58.5018C138.988 37.9674 153.66 21.0703 174.663 21.0703L180.446 58.5018Z" fill="#CBFFF0"/>
<path fill-rule="evenodd" clip-rule="evenodd" d="M133.184 125.3H167.145C167.594 128.202 167.651 131.091 167.316 133.894C166.981 136.697 166.256 139.389 165.161 141.901L133.184 125.3Z" fill="#ABE7D5"/>
<path fill-rule="evenodd" clip-rule="evenodd" d="M133.184 125.299L134.029 92.6001C142.1 93.9549 149.848 97.9775 155.902 103.956C161.957 109.935 165.94 117.495 167.145 125.299H133.184Z" fill="#00C389"/>
<path fill-rule="evenodd" clip-rule="evenodd" d="M133.183 125.3L103.023 136.656C101.106 133.016 99.8187 129.173 99.2206 125.3C96.4064 107.084 109.422 92.0962 128.053 92.0962C130.03 92.0962 132.029 92.2646 134.028 92.6003L133.183 125.3Z" fill="#CBFFF0"/>
<path fill-rule="evenodd" clip-rule="evenodd" d="M133.183 125.3L165.16 141.901C160.685 152.163 150.431 158.504 138.312 158.504C124.068 158.504 109.917 149.743 103.023 136.656L133.183 125.3Z" fill="#EEFFFA"/>
<path fill-rule="evenodd" clip-rule="evenodd" d="M234.477 193.504C234.477 196.735 188.617 199.353 132.045 199.353C75.4736 199.353 29.6133 196.735 29.6133 193.504C29.6133 190.274 75.4736 187.655 132.045 187.655C188.617 187.655 234.477 190.274 234.477 193.504Z" fill="#E0F4EE"/>
<path fill-rule="evenodd" clip-rule="evenodd" d="M127.07 102.159H79.483C76.4627 102.159 73.791 99.7429 73.5454 96.791L71.1627 68.1836C70.9171 65.2307 73.1867 62.8149 76.207 62.8149H123.794C126.814 62.8149 129.486 65.2307 129.731 68.1836L132.113 96.791C132.36 99.7429 130.09 102.159 127.07 102.159Z" fill="#EEFFFA"/>
<path fill-rule="evenodd" clip-rule="evenodd" d="M76.2072 63.0386C74.8146 63.0386 73.5456 63.5711 72.6343 64.537C71.7187 65.5085 71.2771 66.7967 71.3912 68.1655L73.7733 96.7724C74.0105 99.6189 76.5717 101.935 79.4832 101.935H127.07C128.463 101.935 129.732 101.402 130.642 100.437C131.558 99.465 132 98.1768 131.886 96.8091L129.503 68.2016C129.267 65.3546 126.705 63.0386 123.794 63.0386H76.2072ZM127.07 102.382H79.4832C76.3393 102.382 73.5731 99.8823 73.3174 96.8091L70.9353 68.2016C70.8106 66.7068 71.2945 65.2983 72.2983 64.2338C73.2968 63.1749 74.6852 62.5918 76.2072 62.5918H123.794C126.938 62.5918 129.704 65.0917 129.96 68.1655L132.342 96.7724C132.466 98.2667 131.982 99.6752 130.979 100.74C129.98 101.799 128.592 102.382 127.07 102.382Z" fill="#00C389"/>
<path fill-rule="evenodd" clip-rule="evenodd" d="M114.157 93.806C112.291 95.7925 109.879 97.2196 107.163 97.9489L106.375 95.7434C112.234 94.1774 116.2 88.8361 115.672 82.4882C115.356 78.6991 113.501 75.2679 110.755 72.7851L112.272 71.1699C119.14 77.3794 119.991 87.597 114.157 93.806Z" fill="#00C389"/>
<path fill-rule="evenodd" clip-rule="evenodd" d="M112.27 71.1698L110.753 72.7849C108.007 70.3021 104.369 68.768 100.494 68.768C96.618 68.768 93.2369 70.3067 90.9087 72.7896L89.1172 71.1698C91.9373 68.1683 95.9656 66.4819 100.303 66.4819C104.646 66.4819 108.95 68.1683 112.27 71.1698Z" fill="#043224"/>
<path fill-rule="evenodd" clip-rule="evenodd" d="M107.162 97.949C101.643 99.4251 95.4713 97.8415 91.0034 93.806C84.1403 87.597 83.2892 77.3794 89.1185 71.1699L90.9099 72.7897C88.577 75.272 87.2932 78.6991 87.6086 82.4882C88.2394 90.0618 95.0328 96.2042 102.779 96.2042C104.033 96.2042 105.242 96.043 106.374 95.7434L107.162 97.949Z" fill="#00C389"/>
<path fill-rule="evenodd" clip-rule="evenodd" d="M95.1401 57.6908H47.5528C44.533 57.6908 41.8609 55.2751 41.6152 52.3227L39.2331 23.7153C38.9869 20.7629 41.257 18.3472 44.2768 18.3472H91.8636C94.8839 18.3472 97.5555 20.7629 97.8017 23.7153L100.184 52.3227C100.429 55.2751 98.1599 57.6908 95.1401 57.6908Z" fill="#EEFFFA"/>
<path fill-rule="evenodd" clip-rule="evenodd" d="M44.277 18.5698C42.8844 18.5698 41.6159 19.1024 40.7046 20.0687C39.7891 21.0398 39.3474 22.328 39.4615 23.6967L41.8436 52.3042C42.0808 55.1507 44.642 57.4672 47.553 57.4672H95.1402C96.5323 57.4672 97.8013 56.9352 98.7126 55.9683C99.6282 54.9967 100.07 53.7086 99.9557 52.3403L97.5736 23.7329C97.3364 20.8864 94.7752 18.5698 91.8637 18.5698H44.277ZM95.1402 57.914H47.553C44.4096 57.914 41.6434 55.4136 41.3872 52.3403L39.0056 23.7329C38.8809 22.2391 39.3648 20.8296 40.3681 19.7655C41.3671 18.7062 42.7555 18.123 44.277 18.123H91.8637C95.0076 18.123 97.7738 20.6235 98.0301 23.6967L100.412 52.3042C100.536 53.7984 100.052 55.2075 99.0486 56.2715C98.0501 57.3309 96.6618 57.914 95.1402 57.914Z" fill="#00C389"/>
<path fill-rule="evenodd" clip-rule="evenodd" d="M43.5349 26.5555H68.7523L68.5494 24.1196H43.332L43.5349 26.5555Z" fill="#00C389"/>
<path fill-rule="evenodd" clip-rule="evenodd" d="M93.9706 26.5555H68.7537L68.5508 24.1196H93.7677L93.9706 26.5555Z" fill="#00C389"/>
<path fill-rule="evenodd" clip-rule="evenodd" d="M44.0642 32.8958H51.2581L51.0552 30.4604H43.8613L44.0642 32.8958Z" fill="#00C389"/>
<path fill-rule="evenodd" clip-rule="evenodd" d="M94.4975 32.8958H51.2576L51.0547 30.4604H94.2946L94.4975 32.8958Z" fill="#00C389"/>
<path fill-rule="evenodd" clip-rule="evenodd" d="M44.5915 39.2366H67.038L66.8352 36.8008H44.3887L44.5915 39.2366Z" fill="#00C389"/>
<path fill-rule="evenodd" clip-rule="evenodd" d="M95.0266 39.2366H67.0388L66.8359 36.8008H94.8238L95.0266 39.2366Z" fill="#00C389"/>
<path fill-rule="evenodd" clip-rule="evenodd" d="M45.1208 45.577H83.4291L83.2262 43.1411H44.918L45.1208 45.577Z" fill="#00C389"/>
<path fill-rule="evenodd" clip-rule="evenodd" d="M95.5531 45.577H83.4275L83.2246 43.1411H95.3502L95.5531 45.577Z" fill="#00C389"/>
<path fill-rule="evenodd" clip-rule="evenodd" d="M45.6482 51.9173H63.3658L63.1635 49.4819H45.4453L45.6482 51.9173Z" fill="#00C389"/>
<path fill-rule="evenodd" clip-rule="evenodd" d="M96.0806 51.9173H63.3645L63.1621 49.4819H95.8777L96.0806 51.9173Z" fill="#00C389"/>
<path fill-rule="evenodd" clip-rule="evenodd" d="M160.192 57.6908H112.606C109.586 57.6908 106.914 55.2751 106.667 52.3227L104.286 23.7153C104.04 20.7629 106.309 18.3472 109.329 18.3472H156.916C159.936 18.3472 162.608 20.7629 162.854 23.7153L165.236 52.3227C165.482 55.2751 163.213 57.6908 160.192 57.6908Z" fill="#EEFFFA"/>
<path fill-rule="evenodd" clip-rule="evenodd" d="M109.33 18.5698C107.937 18.5698 106.669 19.1018 105.758 20.0682C104.842 21.0398 104.4 22.328 104.514 23.6967L106.896 52.3042C107.133 55.1507 109.695 57.4672 112.606 57.4672H160.193C161.585 57.4672 162.854 56.9342 163.765 55.9678C164.681 54.9967 165.122 53.7086 165.008 52.3403L162.627 23.7329C162.39 20.8864 159.828 18.5698 156.917 18.5698H109.33ZM160.193 57.914H112.606C109.462 57.914 106.697 55.4136 106.44 52.3403L104.058 23.7329C103.934 22.2386 104.418 20.8296 105.421 19.7655C106.42 18.7062 107.808 18.123 109.33 18.123H156.917C160.061 18.123 162.827 20.6235 163.083 23.6967L165.465 52.3042C165.589 53.7979 165.106 55.2075 164.102 56.271C163.103 57.3309 161.715 57.914 160.193 57.914Z" fill="#00C389"/>
<path fill-rule="evenodd" clip-rule="evenodd" d="M136.338 51.9172H135.499L133.184 24.1196H134.024L136.338 51.9172Z" fill="#00C389"/>
<path fill-rule="evenodd" clip-rule="evenodd" d="M137.607 40.366H132.307L131.402 29.5054H136.702L137.607 40.366Z" fill="#00C389"/>
<path fill-rule="evenodd" clip-rule="evenodd" d="M125.908 51.9172H125.068L122.754 24.1196H123.594L125.908 51.9172Z" fill="#00C389"/>
<path fill-rule="evenodd" clip-rule="evenodd" d="M127.378 42.7786H122.078L121.285 33.2588H126.585L127.378 42.7786Z" fill="#00C389"/>
<path fill-rule="evenodd" clip-rule="evenodd" d="M115.477 51.9172H114.637L112.322 24.1196H113.162L115.477 51.9172Z" fill="#00C389"/>
<path fill-rule="evenodd" clip-rule="evenodd" d="M116.295 34.9466H110.995L110.451 28.4102H115.751L116.295 34.9466Z" fill="#043224"/>
<path fill-rule="evenodd" clip-rule="evenodd" d="M146.77 51.9172H145.93L143.615 24.1196H144.455L146.77 51.9172Z" fill="#00C389"/>
<path fill-rule="evenodd" clip-rule="evenodd" d="M148.549 46.5316H143.249L141.832 29.5054H147.132L148.549 46.5316Z" fill="#043224"/>
<path fill-rule="evenodd" clip-rule="evenodd" d="M157.199 51.9172H156.359L154.045 24.1196H154.885L157.199 51.9172Z" fill="#00C389"/>
<path fill-rule="evenodd" clip-rule="evenodd" d="M159.15 48.5714H153.85L152.715 34.936H158.015L159.15 48.5714Z" fill="#00C389"/>
<path fill-rule="evenodd" clip-rule="evenodd" d="M109.269 146.261H61.6822C58.6624 146.261 55.9903 143.845 55.7441 140.893L53.362 112.286C53.1163 109.333 55.3859 106.917 58.4062 106.917H105.993C109.013 106.917 111.685 109.333 111.931 112.286L114.313 140.893C114.559 143.845 112.289 146.261 109.269 146.261Z" fill="#EEFFFA"/>
<path fill-rule="evenodd" clip-rule="evenodd" d="M58.4064 107.141C57.0138 107.141 55.7448 107.673 54.834 108.639C53.918 109.611 53.4763 110.899 53.5904 112.267L55.9725 140.875C56.2097 143.721 58.7715 146.037 61.6824 146.037H109.269C110.662 146.037 111.931 145.504 112.842 144.538C113.758 143.567 114.199 142.279 114.085 140.911L111.703 112.304C111.466 109.457 108.905 107.141 105.993 107.141H58.4064ZM109.269 146.484H61.6824C58.5385 146.484 55.7723 143.984 55.5166 140.911L53.1345 112.304C53.0098 110.809 53.4937 109.4 54.4975 108.336C55.496 107.277 56.8844 106.693 58.4064 106.693H105.993C109.137 106.693 111.903 109.194 112.159 112.267L114.541 140.875C114.666 142.369 114.182 143.777 113.179 144.842C112.18 145.901 110.791 146.484 109.269 146.484Z" fill="#00C389"/>
<path fill-rule="evenodd" clip-rule="evenodd" d="M64.8437 125.906L75.1002 137.491L86.8618 119.754L94.1354 128.92L95.9105 126.243L107.799 140.175L62.1367 140.158L64.8437 125.906Z" fill="#33334F"/>
<path fill-rule="evenodd" clip-rule="evenodd" d="M99.0838 126.625L94.317 136.605L79.113 113.003L71.9535 127.992L69.6596 124.43L62.1387 140.175L107.798 140.152L99.0838 126.625Z" fill="#33334F"/>
<path fill-rule="evenodd" clip-rule="evenodd" d="M196.961 60.6691C198.233 63.0043 199.327 65.3115 200.357 67.7154C201.361 70.1208 202.289 72.5639 203.014 75.1454C203.199 75.7864 203.359 76.4465 203.513 77.1102C203.574 77.3354 203.723 78.0544 203.722 78.511C203.746 79.0182 203.706 79.4753 203.642 79.9123C203.355 81.6297 202.74 82.9457 202.071 84.1895C200.702 86.6517 199.052 88.6919 197.132 90.6185C196.556 91.1965 195.61 91.2089 195.019 90.6459C194.536 90.1862 194.439 89.4858 194.734 88.929L194.771 88.8593C195.903 86.7209 197.025 84.4658 197.783 82.3254C198.147 81.2645 198.436 80.1793 198.435 79.3803C198.429 79.1897 198.422 79.0141 198.393 78.8927C198.381 78.8291 198.369 78.7718 198.348 78.7403L198.25 78.4361C198.074 77.8798 197.894 77.3235 197.683 76.7626C196.882 74.5199 195.893 72.2679 194.866 70.034C193.842 67.8063 192.741 65.5419 191.651 63.3891L191.629 63.3457C190.896 61.8948 191.504 60.1377 192.988 59.4202C194.442 58.7172 196.201 59.2797 196.961 60.6691Z" fill="#E77E75"/>
<path fill-rule="evenodd" clip-rule="evenodd" d="M195.308 88.6392L192.787 89.4156L195.755 92.8121C195.755 92.8121 196.9 91.8272 197.313 90.4005C197.452 89.9192 197.248 89.4042 196.833 89.1108L196.413 88.8138C196.094 88.5886 195.684 88.5235 195.308 88.6392Z" fill="#E77E75"/>
<path fill-rule="evenodd" clip-rule="evenodd" d="M189.314 91.5095L192.494 93.9763L195.756 92.8121L192.788 89.4155L189.314 91.5095Z" fill="#E77E75"/>
<path fill-rule="evenodd" clip-rule="evenodd" d="M178.457 43.3931C178.393 43.6984 178.176 43.9138 177.972 43.8725C177.767 43.8322 177.653 43.5512 177.717 43.2459C177.78 42.9407 177.997 42.7258 178.202 42.7661C178.406 42.8069 178.52 43.0874 178.457 43.3931Z" fill="#043224"/>
<path fill-rule="evenodd" clip-rule="evenodd" d="M178.205 43.9194C178.205 43.9194 177.127 45.5413 176.168 46.2365C176.616 46.8506 177.604 46.8072 177.604 46.8072L178.205 43.9194Z" fill="#E77E75"/>
<path fill-rule="evenodd" clip-rule="evenodd" d="M179.952 41.9238L180.079 41.8747C180.155 41.8061 180.16 41.6909 180.09 41.616C179.386 40.8722 178.533 41.0044 178.496 41.0101C178.394 41.0277 178.325 41.1217 178.343 41.2219C178.361 41.321 178.458 41.3877 178.558 41.3717C178.586 41.367 179.253 41.2715 179.814 41.8649C179.851 41.9042 179.902 41.9238 179.952 41.9238Z" fill="#043224"/>
<path fill-rule="evenodd" clip-rule="evenodd" d="M187.136 48.9546C186.569 51.7835 186.227 55.7018 188.251 57.5891C188.251 57.5891 187.46 60.4578 182.084 60.4578C176.174 60.4578 179.241 57.9403 179.241 57.9403C181.698 57.1945 181.676 54.458 181.114 52.2613L187.136 48.9546Z" fill="#E77E75"/>
<path fill-rule="evenodd" clip-rule="evenodd" d="M178.203 57.4975C178.203 57.4975 179.065 55.5012 179.945 55.1567C180.826 54.8127 186.431 53.9114 187.723 54.7063C189.014 55.5012 189.886 58.0548 189.886 58.0548L178.203 57.4975Z" fill="#4AB5AE"/>
<path fill-rule="evenodd" clip-rule="evenodd" d="M183.501 189.005C183.435 189.005 183.374 189.011 183.32 189.026C183.234 189.049 183.173 189.091 183.136 189.154C183.07 189.268 183.095 189.324 183.118 189.356C183.302 189.606 184.302 189.612 185.037 189.51C184.671 189.326 183.963 189.005 183.501 189.005ZM184.128 189.755C183.62 189.755 183.131 189.686 182.966 189.463C182.909 189.385 182.863 189.253 182.974 189.063C183.036 188.957 183.136 188.885 183.271 188.849C183.929 188.674 185.311 189.444 185.369 189.477L185.415 189.571L185.341 189.646C185.089 189.696 184.601 189.755 184.128 189.755Z" fill="#00C389"/>
<path fill-rule="evenodd" clip-rule="evenodd" d="M184.357 188.081L184.301 188.084C184.133 188.1 184.122 188.165 184.119 188.186C184.075 188.449 184.718 189.106 185.204 189.392C185.153 189.088 185.013 188.465 184.683 188.199C184.583 188.12 184.476 188.081 184.357 188.081ZM185.322 189.648L185.284 189.639C184.807 189.43 183.861 188.594 183.934 188.157C183.951 188.055 184.025 187.927 184.282 187.901C184.475 187.882 184.648 187.935 184.802 188.058C185.305 188.462 185.411 189.504 185.415 189.548L185.377 189.631L185.322 189.648Z" fill="#00C389"/>
<path fill-rule="evenodd" clip-rule="evenodd" d="M189.672 189.556H185.718L185.324 180.603H189.279L189.672 189.556Z" fill="#E77E75"/>
<path fill-rule="evenodd" clip-rule="evenodd" d="M185.743 189.108H190.061C190.222 189.108 190.362 189.218 190.398 189.373L191.179 192.809C191.26 193.165 190.983 193.503 190.61 193.497C189.052 193.471 186.801 193.382 184.843 193.382C182.554 193.382 182.277 193.504 179.592 193.504C177.969 193.504 177.518 191.899 178.198 191.753C181.291 191.092 182.117 191.021 184.79 189.41C185.08 189.234 185.402 189.108 185.743 189.108Z" fill="#043224"/>
<path fill-rule="evenodd" clip-rule="evenodd" d="M195.33 57.6021C199.036 58.4332 201.481 68.2118 201.481 68.2118L195.293 72.756C195.293 72.756 191.918 70.7112 190.702 66.0837C189.428 61.2363 191.54 56.753 195.33 57.6021Z" fill="#043224"/>
<path fill-rule="evenodd" clip-rule="evenodd" d="M195.297 72.7577C195.297 72.7577 195.296 72.7577 195.295 72.7567L195.417 72.6675L195.297 72.7577Z" fill="#A4A6A3"/>
<path fill-rule="evenodd" clip-rule="evenodd" d="M195.293 72.7556C195.253 72.7308 194.498 72.2623 193.586 71.297C193.671 69.8099 193.788 68.2857 193.944 66.7388C194.919 68.4438 195.52 70.4742 195.624 72.5092L195.414 72.6673L195.293 72.7556Z" fill="#09181B"/>
<path fill-rule="evenodd" clip-rule="evenodd" d="M217.576 93.9791L187.555 105.709L178.633 83.8808L208.654 72.1509L217.576 93.9791Z" fill="#00C389"/>
<path fill-rule="evenodd" clip-rule="evenodd" d="M200.232 100.755L217.133 94.1519L200.232 100.755Z" fill="#EEFFFA"/>
<path fill-rule="evenodd" clip-rule="evenodd" d="M197.848 101.687L200.234 100.755L197.848 101.687Z" fill="#00C389"/>
<path fill-rule="evenodd" clip-rule="evenodd" d="M196.861 102.072L197.846 101.687L196.861 102.072Z" fill="#FFFEFD"/>
<path fill-rule="evenodd" clip-rule="evenodd" d="M196.863 102.072C195.264 95.7868 194.094 91.2167 194.094 91.2167H190.375H194.094C194.052 90.897 193.998 90.4275 193.937 89.8252L196.713 88.74L195.92 86.7995L193.746 87.6487C193.711 87.2045 193.677 86.7272 193.645 86.2221L195.403 85.5351L194.61 83.5946L193.525 84.0186C193.504 83.5538 193.485 83.0724 193.468 82.5755L194.093 82.3307L193.416 80.6752C193.401 79.8524 193.392 78.9971 193.393 78.1134L208.212 72.3228L217.135 94.151L196.863 102.072ZM199.85 96.4133L197.049 97.5073L197.843 99.4483L200.643 98.3539L199.85 96.4133ZM204.474 94.6066L201.673 95.7005L202.467 97.6416L205.267 96.5471L204.474 94.6066ZM198.54 93.2084L195.739 94.3029L196.532 96.2434L199.333 95.1494L198.54 93.2084ZM209.099 92.7993L206.297 93.8938L207.091 95.8348L209.891 94.7403L209.099 92.7993ZM203.164 91.4016L200.364 92.4961L201.157 94.4366L203.958 93.3427L203.164 91.4016ZM213.723 90.9925L210.922 92.087L211.715 94.0281L214.516 92.9336L213.723 90.9925ZM197.23 90.0039L194.429 91.0979L195.223 93.039L198.023 91.945L197.23 90.0039ZM207.788 89.5949L204.988 90.6888L205.781 92.6299L208.582 91.5359L207.788 89.5949ZM201.854 88.1972L199.053 89.2912L199.847 91.2322L202.647 90.1382L201.854 88.1972ZM212.413 87.7881L209.612 88.8821L210.406 90.8231L213.206 89.7292L212.413 87.7881ZM206.479 86.3904L203.678 87.4844L204.471 89.4255L207.272 88.331L206.479 86.3904ZM200.544 84.9922L197.744 86.0867L198.537 88.0278L201.338 86.9333L200.544 84.9922ZM211.103 84.5837L208.302 85.6777L209.095 87.6187L211.896 86.5242L211.103 84.5837ZM205.168 83.1855L202.368 84.28L203.161 86.2205L205.962 85.1265L205.168 83.1855ZM199.234 81.7878L196.434 82.8818L197.227 84.8228L200.028 83.7283L199.234 81.7878ZM209.793 81.3787L206.992 82.4732L207.786 84.4137L210.586 83.3193L209.793 81.3787ZM203.858 79.9811L201.058 81.075L201.851 83.0161L204.652 81.9216L203.858 79.9811ZM197.924 78.5829L195.123 79.6773L195.917 81.6179L198.717 80.5234L197.924 78.5829ZM208.483 78.1743L205.682 79.2683L206.476 81.2093L209.276 80.1148L208.483 78.1743ZM202.549 76.7761L199.748 77.8706L200.541 79.8111L203.342 78.7166L202.549 76.7761ZM207.173 74.9694L204.372 76.0638L205.165 78.0044L207.966 76.9099L207.173 74.9694Z" fill="#148B68"/>
<path fill-rule="evenodd" clip-rule="evenodd" d="M193.468 82.5756C193.446 81.9645 193.429 81.3302 193.416 80.6753L194.097 82.3307L193.468 82.5756Z" fill="#09694D"/>
<path fill-rule="evenodd" clip-rule="evenodd" d="M195.917 81.618L195.123 79.6775L197.924 78.583L198.717 80.5235L195.917 81.618Z" fill="#09694D"/>
<path fill-rule="evenodd" clip-rule="evenodd" d="M200.541 79.8114L199.748 77.8709L202.549 76.7764L203.342 78.7169L200.541 79.8114Z" fill="#09694D"/>
<path fill-rule="evenodd" clip-rule="evenodd" d="M205.164 78.0047L204.371 76.0642L207.172 74.9697L207.965 76.9103L205.164 78.0047Z" fill="#09694D"/>
<path fill-rule="evenodd" clip-rule="evenodd" d="M193.645 86.2222C193.602 85.5389 193.561 84.8028 193.525 84.0188L194.61 83.5947L195.404 85.5353L193.645 86.2222Z" fill="#09694D"/>
<path fill-rule="evenodd" clip-rule="evenodd" d="M197.227 84.8231L196.434 82.8821L199.234 81.7881L200.028 83.7286L197.227 84.8231Z" fill="#09694D"/>
<path fill-rule="evenodd" clip-rule="evenodd" d="M201.85 83.016L201.057 81.0749L203.857 79.981L204.651 81.9215L201.85 83.016Z" fill="#09694D"/>
<path fill-rule="evenodd" clip-rule="evenodd" d="M206.475 81.2098L205.682 79.2688L208.482 78.1748L209.276 80.1153L206.475 81.2098Z" fill="#09694D"/>
<path fill-rule="evenodd" clip-rule="evenodd" d="M193.935 89.8255C193.875 89.2259 193.809 88.495 193.744 87.649L195.919 86.7998L196.712 88.7403L193.935 89.8255Z" fill="#09694D"/>
<path fill-rule="evenodd" clip-rule="evenodd" d="M198.537 88.0282L197.744 86.0872L200.545 84.9927L201.338 86.9337L198.537 88.0282Z" fill="#09694D"/>
<path fill-rule="evenodd" clip-rule="evenodd" d="M203.16 86.221L202.367 84.2805L205.168 83.186L205.961 85.1271L203.16 86.221Z" fill="#09694D"/>
<path fill-rule="evenodd" clip-rule="evenodd" d="M207.786 84.4139L206.992 82.4734L209.793 81.3789L210.586 83.3194L207.786 84.4139Z" fill="#09694D"/>
<path fill-rule="evenodd" clip-rule="evenodd" d="M195.221 93.0394L194.428 91.0984L197.228 90.0044L198.022 91.9454L195.221 93.0394Z" fill="#09694D"/>
<path fill-rule="evenodd" clip-rule="evenodd" d="M199.846 91.2323L199.053 89.2912L201.853 88.1973L202.647 90.1383L199.846 91.2323Z" fill="#09694D"/>
<path fill-rule="evenodd" clip-rule="evenodd" d="M204.471 89.4256L203.678 87.4846L206.479 86.3906L207.272 88.3311L204.471 89.4256Z" fill="#09694D"/>
<path fill-rule="evenodd" clip-rule="evenodd" d="M209.094 87.619L208.301 85.6779L211.102 84.584L211.895 86.5245L209.094 87.619Z" fill="#09694D"/>
<path fill-rule="evenodd" clip-rule="evenodd" d="M196.531 96.244L195.738 94.3035L198.539 93.209L199.332 95.15L196.531 96.244Z" fill="#09694D"/>
<path fill-rule="evenodd" clip-rule="evenodd" d="M201.156 94.4369L200.363 92.4963L203.164 91.4019L203.957 93.3429L201.156 94.4369Z" fill="#09694D"/>
<path fill-rule="evenodd" clip-rule="evenodd" d="M205.782 92.6307L204.988 90.6897L207.789 89.5957L208.582 91.5367L205.782 92.6307Z" fill="#09694D"/>
<path fill-rule="evenodd" clip-rule="evenodd" d="M210.405 90.8236L209.611 88.8825L212.412 87.7886L213.205 89.7296L210.405 90.8236Z" fill="#09694D"/>
<path fill-rule="evenodd" clip-rule="evenodd" d="M197.842 99.4486L197.049 97.5075L199.849 96.4136L200.643 98.3541L197.842 99.4486Z" fill="#09694D"/>
<path fill-rule="evenodd" clip-rule="evenodd" d="M202.465 97.6419L201.672 95.7009L204.473 94.6069L205.266 96.5475L202.465 97.6419Z" fill="#09694D"/>
<path fill-rule="evenodd" clip-rule="evenodd" d="M207.09 95.8353L206.297 93.8943L209.098 92.7998L209.891 94.7409L207.09 95.8353Z" fill="#09694D"/>
<path fill-rule="evenodd" clip-rule="evenodd" d="M211.715 94.0282L210.922 92.0872L213.722 90.9927L214.515 92.9337L211.715 94.0282Z" fill="#09694D"/>
<path fill-rule="evenodd" clip-rule="evenodd" d="M206.169 79.0783C205.998 78.6579 206.206 78.1811 206.636 78.0133C207.066 77.8454 207.554 78.0499 207.725 78.4704C207.897 78.8903 207.688 79.3671 207.258 79.5344C206.829 79.7028 206.341 79.4983 206.169 79.0783Z" fill="#EEFFFA"/>
<path fill-rule="evenodd" clip-rule="evenodd" d="M205.476 90.4987C205.304 90.0782 205.513 89.602 205.943 89.4336C206.373 89.2658 206.861 89.4708 207.032 89.8907C207.204 90.3112 206.995 90.7874 206.565 90.9558C206.135 91.1231 205.648 90.9186 205.476 90.4987Z" fill="#EEFFFA"/>
<path fill-rule="evenodd" clip-rule="evenodd" d="M194.917 90.9078C194.746 90.4874 194.955 90.0112 195.384 89.8428C195.815 89.6749 196.302 89.88 196.473 90.2994C196.645 90.7198 196.436 91.1961 196.006 91.3644C195.577 91.5323 195.089 91.3278 194.917 90.9078Z" fill="#EEFFFA"/>
<path fill-rule="evenodd" clip-rule="evenodd" d="M188.289 100.931C188.117 100.511 188.326 100.034 188.756 99.8661C189.185 99.6977 189.673 99.9023 189.844 100.322C190.016 100.743 189.807 101.219 189.377 101.387C188.948 101.555 188.46 101.351 188.289 100.931Z" fill="#EEFFFA"/>
<path fill-rule="evenodd" clip-rule="evenodd" d="M189.066 100.93C189.008 100.93 188.95 100.915 188.898 100.881C188.754 100.791 188.713 100.602 188.806 100.462L195.434 90.4391C195.489 90.3564 195.582 90.3043 195.683 90.3006L205.96 89.9024L206.637 78.7561C206.648 78.5888 206.799 78.4638 206.966 78.471C207.137 78.4808 207.268 78.6249 207.258 78.7923L206.563 90.2128C206.554 90.3688 206.425 90.4917 206.266 90.4979L195.868 90.9008L189.327 100.792C189.268 100.881 189.168 100.93 189.066 100.93Z" fill="#EEFFFA"/>
<path fill-rule="evenodd" clip-rule="evenodd" d="M171.91 61.4784C171.101 65.6549 170.596 74.232 172.942 91.217H194.092C193.71 88.2708 192.198 72.5586 195.33 57.602C195.33 57.602 191.704 56.8912 188.249 56.728C185.547 56.601 181.635 56.5162 179.259 56.7285C178.267 56.8169 177.293 56.9573 176.426 57.1066C174.14 57.5023 172.341 59.2476 171.91 61.4784Z" fill="#043224"/>
<path fill-rule="evenodd" clip-rule="evenodd" d="M171.447 76.7837C171.241 73.4103 171.198 70.6165 171.261 68.3057C171.199 70.616 171.241 73.4103 171.447 76.7837Z" fill="#B1B3AF"/>
<path fill-rule="evenodd" clip-rule="evenodd" d="M173.133 91.2151H172.943C172.154 85.5041 171.687 80.7444 171.446 76.7833C171.24 73.41 171.199 70.6157 171.261 68.3053C171.261 68.2769 171.263 68.248 171.263 68.2196L175.236 67.9097C178.675 72.6047 175.516 83.5553 173.133 91.2151Z" fill="#09181B"/>
<path fill-rule="evenodd" clip-rule="evenodd" d="M189.483 185.22H189.481L189.277 180.605H189.279L189.483 185.22Z" fill="#BEBFBB"/>
<path fill-rule="evenodd" clip-rule="evenodd" d="M189.481 185.22H185.527L185.324 180.605H189.278L189.481 185.22Z" fill="#5B2A2A"/>
<path fill-rule="evenodd" clip-rule="evenodd" d="M189.015 44.8172C187.999 48.5226 187.597 50.7426 185.258 52.2839C181.739 54.6015 177.358 51.9414 177.221 48.0134C177.098 44.4773 178.78 39.0106 182.848 38.2637C186.856 37.5282 190.031 41.1112 189.015 44.8172Z" fill="#E77E75"/>
<path fill-rule="evenodd" clip-rule="evenodd" d="M180.141 44.841L178.086 45.3631L179.998 40.5152C179.791 40.1454 179.246 38.4605 179.822 36.7756C179.974 36.332 180.391 36.0313 180.87 36.022C185.129 35.9415 189.58 38.2782 191.824 40.0457C192.256 40.386 192.362 40.9857 192.073 41.449C191.581 42.2352 190.945 42.8369 190.144 43.6339C190.102 44.9913 187.834 51.1248 186.579 51.8139C185.325 52.5024 182.926 52.2224 182.287 51.1037C181.649 49.9844 179.492 48.4994 180.141 44.841Z" fill="#043224"/>
<path fill-rule="evenodd" clip-rule="evenodd" d="M182.042 44.9178C181.811 45.8972 181.18 46.7509 180.511 47.2664C179.503 48.0422 178.714 47.3263 178.755 46.1859C178.792 45.1601 179.362 43.5197 180.488 43.186C181.598 42.8575 182.306 43.7981 182.042 44.9178Z" fill="#E77E75"/>
<path fill-rule="evenodd" clip-rule="evenodd" d="M218.964 187.802C218.964 187.738 218.957 187.678 218.941 187.625C218.918 187.541 218.874 187.482 218.809 187.446C218.693 187.382 218.635 187.407 218.602 187.43C218.348 187.611 218.348 188.588 218.457 189.307C218.642 188.947 218.967 188.254 218.964 187.802ZM218.201 188.42C218.198 187.924 218.265 187.444 218.492 187.282C218.571 187.225 218.707 187.18 218.901 187.287C219.01 187.347 219.085 187.444 219.122 187.575C219.305 188.218 218.527 189.574 218.493 189.632L218.397 189.677L218.32 189.605C218.268 189.358 218.204 188.882 218.201 188.42Z" fill="#00C389"/>
<path fill-rule="evenodd" clip-rule="evenodd" d="M219.914 188.634L219.91 188.579C219.892 188.414 219.826 188.404 219.804 188.401C219.535 188.36 218.867 188.992 218.577 189.47C218.888 189.419 219.525 189.277 219.794 188.952C219.874 188.855 219.914 188.75 219.914 188.634ZM218.316 189.587L218.324 189.549C218.536 189.081 219.385 188.152 219.832 188.22C219.937 188.236 220.069 188.308 220.096 188.559C220.117 188.747 220.064 188.917 219.939 189.068C219.529 189.562 218.464 189.673 218.419 189.678L218.334 189.64L218.316 189.587Z" fill="#00C389"/>
<path fill-rule="evenodd" clip-rule="evenodd" d="M218.378 189.613L214.519 189.88L212.352 180.855L216.21 180.588L218.378 189.613Z" fill="#E77E75"/>
<path fill-rule="evenodd" clip-rule="evenodd" d="M218.364 188.746L214.063 188.374C213.902 188.36 213.752 188.457 213.704 188.608L212.615 191.964C212.503 192.311 212.748 192.672 213.12 192.698C214.674 192.806 216.925 192.911 218.875 193.08C221.155 193.277 219.678 193.272 222.353 193.504C223.969 193.643 224.563 192.084 223.899 191.88C220.878 190.955 220.33 190.316 219.286 189.128C219.063 188.875 218.704 188.775 218.364 188.746Z" fill="#043224"/>
<path fill-rule="evenodd" clip-rule="evenodd" d="M217.331 185.242L216.754 182.85L216.755 182.85L217.333 185.242H217.331Z" fill="#BEBFBB"/>
<path fill-rule="evenodd" clip-rule="evenodd" d="M213.469 185.509L213.023 183.651L216.754 182.85L217.328 185.242L213.469 185.509Z" fill="#5B2A2A"/>
<path fill-rule="evenodd" clip-rule="evenodd" d="M180.445 91.2173C180.445 91.2173 189.541 120.913 192.992 131.936C196.771 144.007 211.151 184.054 211.151 184.054L218.123 182.555C218.123 182.555 208.274 148.148 204.189 131.313C201.052 118.383 194.093 91.2173 194.093 91.2173H180.445Z" fill="#4BB5AE"/>
<path fill-rule="evenodd" clip-rule="evenodd" d="M209.928 181.946L210.614 184.608L219 183.728L218.962 181.291L209.928 181.946Z" fill="#043224"/>
<path fill-rule="evenodd" clip-rule="evenodd" d="M193.275 132.841C193.179 132.522 193.079 132.22 192.992 131.934C192.585 130.635 192.1 129.076 191.561 127.335C192.1 129.077 192.586 130.636 192.993 131.936C193.081 132.217 193.175 132.513 193.274 132.823C193.274 132.829 193.275 132.835 193.275 132.841Z" fill="#A0A29F"/>
<path fill-rule="evenodd" clip-rule="evenodd" d="M193.273 132.823C193.174 132.513 193.081 132.217 192.993 131.936C192.586 130.636 192.1 129.076 191.56 127.335C189.601 121.016 186.925 112.314 184.689 105.035C184.845 104.984 185.014 104.96 185.194 104.96C185.288 104.96 185.385 104.967 185.484 104.98C190.513 105.628 192.518 122.756 193.273 132.823Z" fill="#307D78"/>
<path fill-rule="evenodd" clip-rule="evenodd" d="M172.943 91.2173C172.943 91.2173 175.994 120.138 177.308 131.912C178.675 144.159 183.806 184.327 183.806 184.327H190.505C190.505 184.327 189.693 144.892 189.423 132.848C189.129 119.718 186.846 91.2173 186.846 91.2173H172.943Z" fill="#4BB5AE"/>
<path fill-rule="evenodd" clip-rule="evenodd" d="M182.764 181.718L183.141 184.437H191.29L191.511 182.01L182.764 181.718Z" fill="#043224"/>
<path fill-rule="evenodd" clip-rule="evenodd" d="M162.804 107.043C165.743 111.6 164.346 117.625 159.685 120.498C155.023 123.371 148.861 122.006 145.922 117.449C142.983 112.89 144.38 106.866 149.042 103.993C153.703 101.119 159.865 102.485 162.804 107.043ZM144.335 118.427C147.826 123.842 155.148 125.462 160.685 122.049C166.224 118.636 167.882 111.479 164.391 106.065C160.9 100.651 153.58 99.0278 148.041 102.441C142.504 105.854 140.844 113.013 144.335 118.427Z" fill="#043224"/>
<path fill-rule="evenodd" clip-rule="evenodd" d="M163.342 113.943C161.439 110.33 158.93 106.946 155.902 103.956C155.694 103.751 155.485 103.549 155.273 103.348C155.643 103.385 156.015 103.444 156.386 103.526C161.216 104.597 164.278 109.222 163.342 113.943Z" fill="#C3D6E5"/>
<path fill-rule="evenodd" clip-rule="evenodd" d="M154.371 121.188C153.702 121.188 153.022 121.116 152.342 120.965C147.417 119.873 144.329 115.084 145.445 110.27C146.407 106.119 150.179 103.303 154.355 103.303C154.659 103.303 154.965 103.318 155.272 103.349C155.484 103.549 155.694 103.752 155.901 103.957C158.929 106.946 161.438 110.33 163.341 113.943C163.323 114.036 163.303 114.129 163.281 114.223C162.319 118.372 158.547 121.188 154.371 121.188Z" fill="#05A978"/>
<path fill-rule="evenodd" clip-rule="evenodd" d="M164.716 104.659L165.827 106.383C165.996 106.645 165.916 106.991 165.648 107.156C165.38 107.32 165.026 107.242 164.858 106.981L163.746 105.257C163.578 104.995 163.658 104.649 163.926 104.484C164.193 104.32 164.547 104.398 164.716 104.659Z" fill="#043224"/>
<path fill-rule="evenodd" clip-rule="evenodd" d="M171.906 99.7609C170.621 100.619 169.346 101.492 168.087 102.388C166.829 103.287 165.581 104.202 164.37 105.174C164.098 105.392 164.001 105.77 164.156 106.095C164.341 106.481 164.81 106.647 165.204 106.467C166.623 105.817 168.005 105.111 169.377 104.388C170.747 103.664 172.103 102.916 173.448 102.153C174.593 101.502 175.728 100.837 176.858 100.163C177.183 99.9685 177.283 99.5501 177.08 99.2351L176.164 97.8157C175.961 97.5006 175.532 97.4082 175.213 97.6112C174.104 98.3172 173 99.0316 171.906 99.7609Z" fill="#043224"/>
<path fill-rule="evenodd" clip-rule="evenodd" d="M177.797 62.9251C177.15 66.0257 176.456 69.1154 175.736 72.198L173.545 81.4208C172.836 84.4269 172.229 87.4758 171.673 90.5682L170.01 99.8675L170.006 99.8886C169.864 100.682 169.092 101.212 168.281 101.074C167.573 100.953 167.07 100.363 167.047 99.6877C166.933 96.4595 166.984 93.267 167.168 90.0543C167.365 86.8504 167.668 83.6191 168.208 80.4043C168.722 77.2438 169.301 74.1199 169.92 70.9986C170.537 67.8789 171.209 64.7716 171.94 61.6787C172.313 60.1018 173.922 59.1194 175.535 59.4835C177.121 59.8415 178.118 61.375 177.797 62.9251Z" fill="#E77E75"/>
<path fill-rule="evenodd" clip-rule="evenodd" d="M169.557 99.0283C169.29 98.7514 168.888 98.6367 168.509 98.7251L167.65 98.925C167.21 99.0277 166.88 99.3852 166.822 99.8242L166.573 101.689C166.502 102.223 166.618 102.765 166.904 103.226L168.083 105.134C168.393 105.536 168.914 105.726 169.418 105.621L170.647 105.366C171.418 105.206 171.878 104.429 171.635 103.696L171.313 102.724C171.313 102.724 171.293 100.823 169.557 99.0283Z" fill="#E77E75"/>
<path fill-rule="evenodd" clip-rule="evenodd" d="M181.912 61.1323C183.835 66.1192 177.185 73.2294 177.185 73.2294L168.771 70.509C168.771 70.509 169.415 63.7055 172.335 59.8694C175.943 55.1314 180.449 57.3369 181.912 61.1323Z" fill="#043224"/>
</svg>
