<svg width="50" height="50" viewBox="0 0 50 50" fill="none" xmlns="http://www.w3.org/2000/svg">
<path d="M36.7754 24.0214L36.2609 23.3009L36.0369 23.117L30.5041 23.1391L24.8384 6.65648C23.9893 7.38245 23.6228 8.56895 24.0281 9.68082L26.4066 16.2177L26.4011 16.4196L28.7768 23.1819L24.0446 23.1611L23.7376 23.5911C23.6228 23.634 22.8802 24.0239 22.6686 24.1995C22.5068 24.3337 22.4459 24.3876 22.4459 24.3876C22.4459 24.3876 20.8902 25.1261 20.8902 27.7161C20.9511 28.6537 21.4336 29.8375 21.8845 30.1693C21.388 30.9603 20.5072 31.4361 19.6802 31.4361C18.1536 31.4361 17.0445 30.3699 17.0445 28.8432L17.4524 18.9196C16.3225 19.4231 15.5315 20.5528 15.5315 21.8693V23.1969L15.3808 23.2039V28.9581C15.1651 31.609 12.6496 31.4791 12.6496 31.4791C11.1865 31.4791 10 30.4225 10 28.9581V31.609C10 31.7391 10.0208 31.8649 10.0388 31.9907C10.751 32.6047 11.6665 33.1219 12.6801 33.1219C12.6801 33.1219 14.9052 33.2504 16.2411 31.3712C16.4111 31.6242 17.6281 33.1426 19.6804 33.1426C22.0147 33.1426 23.1763 31.1997 23.175 31.1983C23.4529 31.3573 23.8291 31.7169 25.2119 31.7169H28.3884C25.5798 34.1149 24.4126 37.9787 24.4126 41.2893C24.4126 41.6709 24.8302 42.0664 25.2119 42.0664C25.595 42.0664 26.0111 41.6709 26.0111 41.2893C26.0111 37.7656 27.2544 34.8699 29.1905 33.1428C30.7655 31.7392 32.8178 31.7171 32.8178 31.7171C33.2009 31.7171 33.617 31.2994 33.617 30.9178C33.617 30.5362 33.2008 30.1185 32.8178 30.1185H25.2119C23.6852 30.1185 22.5761 28.9873 22.5761 27.4607C22.5761 25.9326 23.6852 24.8249 25.2119 24.8249L36.2749 24.8028C37.3342 24.8028 38.3755 25.6796 38.4087 25.721C38.0146 25.0238 37.4573 24.4403 36.7754 24.0214Z" fill="#E0AA94"/>
<path d="M29.8186 5.83973L30.687 4.22868H30.8737L33.6851 11.9797L33.6823 12.3834L32.9729 14.2725H32.8733L29.8186 5.98351V5.83973Z" fill="#E0AA94"/>
<path d="M25.2125 23.3086C24.2403 23.3086 23.7383 23.5879 23.7383 23.5879L26.4072 16.2157L28.989 23.3086H25.2125Z" fill="#F7DECE"/>
<path d="M12.6501 20.5455H12.8824C14.3468 20.5455 15.532 21.732 15.532 23.1964V28.8427V28.9574C15.532 30.4219 14.3468 31.6084 12.8824 31.6084H12.6501C11.1856 31.6084 10.0005 30.4219 10.0005 28.9574V28.8427V23.1964C10.0005 21.732 11.1856 20.5455 12.6501 20.5455Z" fill="#F7DECE"/>
<path d="M22.2168 24.6388C22.1906 24.6665 22.1643 24.6954 22.1394 24.7245C21.4839 25.4546 21.0635 26.3991 21.0635 27.4598C21.0635 27.5469 21.0815 27.6298 21.087 27.7156C21.1479 28.6532 21.5129 29.5023 22.0937 30.1689C21.9955 30.3473 21.8683 30.5049 21.7355 30.657C21.2308 31.2337 20.5061 31.6084 19.6806 31.6084C18.1526 31.6084 16.9148 30.3694 16.9148 28.8426V20.5452C16.9148 19.9353 17.1181 19.3767 17.4527 18.919C17.9547 18.2317 18.7624 17.7795 19.6806 17.7795C21.2073 17.7795 22.4464 19.0172 22.4464 20.5454V21.8688V24.3248V24.3871C22.3621 24.4632 22.2943 24.5559 22.2168 24.6388Z" fill="#F7DECE"/>
<path d="M12.8489 32.9895C14.265 32.9895 15.5109 32.2621 16.237 31.1614C16.4071 31.4131 16.6117 31.6385 16.8331 31.8487C16.9009 31.9123 16.9742 31.9663 17.0475 32.0257C17.212 32.1612 17.3835 32.2857 17.5688 32.3963C17.66 32.4502 17.7513 32.5 17.8467 32.547C18.0403 32.6424 18.2409 32.7198 18.4497 32.7849C18.5423 32.8126 18.6308 32.8471 18.7263 32.8692C19.0333 32.9425 19.3486 32.9895 19.6764 32.9895C20.0042 32.9895 20.3139 32.9397 20.6181 32.8664C20.7233 32.843 20.8242 32.8083 20.9265 32.7751C21.1145 32.7142 21.2971 32.6383 21.4727 32.5525C21.5861 32.4972 21.6982 32.446 21.806 32.381C22.0328 32.2427 22.2457 32.0865 22.4421 31.9094C22.5002 31.8554 22.5403 31.7849 22.5956 31.7296C22.8058 31.5195 23.0146 31.3064 23.175 31.0548C23.1737 31.0535 23.1722 31.052 23.1709 31.0507C23.4489 31.2097 23.825 31.6066 25.2093 31.6066H28.7176C28.2059 31.9924 27.7386 32.4681 27.3015 32.9895C25.6033 35.0182 24.5178 37.9762 24.5178 41.2869C24.5178 41.6685 24.8262 41.9783 25.2093 41.9783C25.5909 41.9783 25.9007 41.6685 25.9007 41.2869C25.9007 37.7632 27.2228 34.6836 29.1878 32.9895C30.1987 32.117 31.3783 31.6066 32.6423 31.6066H32.8152C33.1968 31.6066 33.5066 31.2968 33.5066 30.9152C33.5066 30.5335 33.1968 30.2237 32.8152 30.2237H30.7408H25.2093C23.6812 30.2237 22.4421 28.9847 22.4421 27.4579C22.4421 25.9311 23.6811 24.6921 25.2093 24.6921H36.271C36.3166 24.6921 36.3581 24.7031 36.4024 24.7059C36.5019 24.7101 36.6015 24.7183 36.7011 24.735C36.7868 24.7488 36.8698 24.7654 36.9528 24.7862C37.04 24.8096 37.1257 24.8345 37.21 24.8664C37.2957 24.8968 37.3787 24.9314 37.4603 24.97C37.5392 25.0074 37.6138 25.0503 37.6884 25.0945C37.7658 25.1401 37.8391 25.1871 37.9111 25.2411C37.983 25.2936 38.0522 25.3517 38.1185 25.4126C38.1821 25.4707 38.243 25.5288 38.3011 25.5923C38.3384 25.6325 38.3716 25.6767 38.4062 25.7181C38.4297 25.7472 38.4546 25.7748 38.4782 25.8053C38.5307 25.8744 38.5792 25.9464 38.6248 26.021C38.6718 26.0984 38.7133 26.1759 38.7534 26.2575C38.7948 26.3419 38.8308 26.4304 38.864 26.5203C38.8792 26.5632 38.9027 26.6033 38.9179 26.6489L40.4197 31.6065C40.5622 32.0698 41.0821 34.1939 40.988 34.6364C40.988 41.2867 34.494 48.2012 26.5922 48.2012C17.5509 48.2012 10.2134 40.9673 10.0156 31.9744C10.0226 31.9785 10.0295 31.9827 10.035 31.9883C10.7472 32.6036 11.6626 32.9895 12.6763 32.9895H12.8489Z" fill="#F7DECE"/>
<path d="M31.0626 3.54619C31.678 2.29747 33.1383 1.6793 34.4755 2.16608C35.9109 2.68737 36.6522 4.27496 36.1295 5.71038V5.71184L33.6928 12.3787L33.6915 12.3828L30.6948 4.22805L31.0626 3.54619Z" fill="#F7DECE"/>
<path d="M36.2749 23.3096L32.9726 14.2696L30.1099 6.40375C30.0353 6.19773 29.933 6.01104 29.8181 5.83675C29.1308 4.78711 27.7949 4.30313 26.5642 4.75114C25.6778 5.07334 25.0583 5.80491 24.8356 6.654C24.6987 7.17809 24.7125 7.74789 24.9117 8.29543L30.3727 23.3094H36.2749V23.3096Z" fill="#F7DECE"/>
</svg>
