<svg width="18" height="17" viewBox="0 0 18 17" fill="none" xmlns="http://www.w3.org/2000/svg">
<path d="M6.56288 13.0177V16.4457C6.56288 16.6851 6.71888 16.8973 6.94987 16.9727C7.00762 16.9911 7.06687 17 7.12537 17C7.30087 17 7.47037 16.9187 7.57837 16.7738L9.61311 14.0451L6.56288 13.0177Z" fill="white"/>
<path d="M17.7637 0.1028C17.5912 -0.0176729 17.3647 -0.0339331 17.1772 0.062889L0.302282 8.74731C0.102783 8.85005 -0.0149666 9.05995 0.00153335 9.28094C0.0187833 9.50267 0.168033 9.69188 0.380282 9.76358L5.07152 11.3438L15.0622 2.92542L7.33126 12.1043L15.1935 14.7525C15.252 14.7717 15.3135 14.7821 15.375 14.7821C15.477 14.7821 15.5782 14.7547 15.6675 14.7015C15.81 14.6158 15.9067 14.4716 15.9315 14.3098L17.994 0.636431C18.0247 0.429483 17.9362 0.224013 17.7637 0.1028Z" fill="white"/>
</svg>
