<svg width="11" height="11" viewBox="0 0 11 11" fill="none" xmlns="http://www.w3.org/2000/svg">
  <path fill-rule="evenodd" clip-rule="evenodd"
        d="M8.3428 6.34203C8.20798 8.07703 6.77015 9.4476 4.99663 9.4476C3.13415 9.4476 1.62416 7.94129 1.62416 6.08339C1.62416 4.22549 3.13415 2.71918 4.99663 2.71918C5.65241 2.71918 6.25928 2.91393 6.77688 3.23677L7.08841 3.44864L6.81601 3.73144L6.01134 4.53214L5.89638 4.64678L5 5.50008H5.89638H10V5.4906H10.0095L10 0.5L9.40306 1.15753L8.20829 2.3465C7.34797 1.60267 6.23054 1.14989 5.00489 1.14989C2.28912 1.14989 0.0878906 3.35509 0.0878906 6.07514C0.0878906 8.79518 2.28943 11.0004 5.00489 11.0004C7.63046 11.0004 9.76932 8.93734 9.90843 6.34203H8.3428Z"
        fill="#3654FF"/>
</svg>
