<svg width="14" height="15" viewBox="0 0 14 15" fill="none" xmlns="http://www.w3.org/2000/svg">
<path d="M13.207 1.49341L11.7852 2.91528C10.5547 1.68481 8.85938 0.919189 7 0.919189C3.36328 0.919189 0.382812 3.79028 0.21875 7.37231C0.191406 7.56372 0.355469 7.70044 0.546875 7.70044H1.3125C1.47656 7.70044 1.61328 7.59106 1.64062 7.39966C1.80469 4.58325 4.12891 2.34106 7 2.34106C8.47656 2.34106 9.81641 2.94263 10.7734 3.927L9.29688 5.40356C9.07812 5.62231 9.24219 5.95044 9.51562 5.95044H13.4531C13.6172 5.95044 13.7812 5.81372 13.7812 5.62231V1.71216C13.7812 1.43872 13.4258 1.27466 13.207 1.49341ZM13.4258 7.70044H12.6602C12.4961 7.70044 12.3594 7.83716 12.332 8.02856C12.168 10.845 9.84375 13.0598 7 13.0598C5.49609 13.0598 4.15625 12.4856 3.19922 11.5012L4.67578 10.0247C4.89453 9.80591 4.73047 9.45044 4.45703 9.45044H0.546875C0.355469 9.45044 0.21875 9.6145 0.21875 9.77856V13.7161C0.21875 13.9895 0.546875 14.1536 0.765625 13.9348L2.1875 12.5129C3.41797 13.7434 5.11328 14.4817 7 14.4817C10.6094 14.4817 13.5898 11.6379 13.7539 8.05591C13.7812 7.8645 13.6172 7.70044 13.4258 7.70044Z" fill="#33334F"/>
</svg>
