<svg width="15" height="15" viewBox="0 0 15 15" fill="none" xmlns="http://www.w3.org/2000/svg">
<g clip-path="url(#clip0)">
<path d="M8.16968 14.4607C10.9781 14.1462 13.2288 11.9012 13.5491 9.09277C13.9695 5.4207 11.1153 2.29487 7.53765 2.25483V0.607546C7.53765 0.51603 7.42325 0.467412 7.34604 0.52461L3.95423 3.01555C3.89704 3.05845 3.89704 3.14139 3.95423 3.18429L7.34604 5.67523C7.42325 5.73243 7.53765 5.68095 7.53765 5.59229V3.94787C10.0515 3.98791 12.0648 6.12709 11.8932 8.68381C11.7474 10.883 9.95424 12.6676 7.755 12.8077C5.42421 12.9565 3.44232 11.292 3.08769 9.08991C3.02192 8.68095 2.66443 8.38353 2.25261 8.38353C1.7407 8.38353 1.34031 8.83824 1.42039 9.34444C1.91801 12.4817 4.81505 14.8354 8.16968 14.4607Z" fill="#33334F"/>
</g>
<defs>
<clipPath id="clip0">
<rect width="14" height="14" fill="white" transform="translate(0.5 0.5)"/>
</clipPath>
</defs>
</svg>
