<svg width="48" height="48" viewBox="0 0 48 48" fill="none"
     xmlns="http://www.w3.org/2000/svg">
  <circle opacity="0.2" cx="24" cy="24" r="24" fill="#FFD983"/>
  <path d="M35.2001 9.59961H17.6001C15.8329 9.59961 14.4001 11.0324 14.4001 12.7996V31.9996H12.8001C11.0329 31.9996 9.6001 33.4324 9.6001 35.1996C9.6001 36.9668 11.0329 38.3996 12.8001 38.3996H32.0001C33.7673 38.3996 35.2001 36.9668 35.2001 35.1996V15.9996C36.9673 15.9996 38.4001 14.5668 38.4001 12.7996C38.4001 11.0324 36.9673 9.59961 35.2001 9.59961Z"
        fill="#FFD983"/>
  <path d="M16 17.6012H35.2V16.0012H17.6L16 15.2012V17.6012Z" fill="#E39F3D"/>
  <path d="M17.6001 9.59961C15.8329 9.59961 14.4001 11.0324 14.4001 12.7996V32.4436C13.9281 32.1684 13.3857 31.9996 12.8001 31.9996C11.0329 31.9996 9.6001 33.4324 9.6001 35.1996C9.6001 36.9668 11.0329 38.3996 12.8001 38.3996C14.5673 38.3996 16.0001 36.9668 16.0001 35.1996V15.5556C16.4721 15.8308 17.0145 15.9996 17.6001 15.9996C19.3673 15.9996 20.8001 14.5668 20.8001 12.7996C20.8001 11.0324 19.3673 9.59961 17.6001 9.59961Z"
        fill="#FFE8B6"/>
  <path d="M19.1997 12.7992C19.1997 13.6824 18.4829 14.3992 17.5997 14.3992C16.7165 14.3992 15.9997 13.6824 15.9997 12.7992C15.9997 11.916 16.7165 11.1992 17.5997 11.1992C18.4829 11.1992 19.1997 11.916 19.1997 12.7992ZM14.3997 35.1992C14.3997 36.0824 13.6829 36.7992 12.7997 36.7992C11.9165 36.7992 11.1997 36.0824 11.1997 35.1992C11.1997 34.316 11.9165 33.5992 12.7997 33.5992C13.6829 33.5992 14.3997 34.316 14.3997 35.1992ZM33.5997 21.5992C33.5997 22.0408 33.2421 22.3992 32.7997 22.3992H18.3997C17.9581 22.3992 17.5997 22.0408 17.5997 21.5992C17.5997 21.1576 17.9581 20.7992 18.3997 20.7992H32.7997C33.2421 20.7992 33.5997 21.1576 33.5997 21.5992ZM33.5997 24.7992C33.5997 25.2416 33.2421 25.5992 32.7997 25.5992H18.3997C17.9581 25.5992 17.5997 25.2416 17.5997 24.7992C17.5997 24.3568 17.9581 23.9992 18.3997 23.9992H32.7997C33.2421 23.9992 33.5997 24.3568 33.5997 24.7992ZM33.5997 27.9992C33.5997 28.4416 33.2421 28.7992 32.7997 28.7992H18.3997C17.9581 28.7992 17.5997 28.4416 17.5997 27.9992C17.5997 27.5568 17.9581 27.1992 18.3997 27.1992H32.7997C33.2421 27.1992 33.5997 27.5568 33.5997 27.9992ZM33.5997 31.1992C33.5997 31.6416 33.2421 31.9992 32.7997 31.9992H18.3997C17.9581 31.9992 17.5997 31.6416 17.5997 31.1992C17.5997 30.7568 17.9581 30.3992 18.3997 30.3992H32.7997C33.2421 30.3992 33.5997 30.7568 33.5997 31.1992Z"
        fill="#C1694F"/>
</svg>
