<svg width="50" height="50" viewBox="0 0 50 50" fill="none" xmlns="http://www.w3.org/2000/svg">
<rect opacity="0.1" x="6.43652" y="11.6538" width="40.5635" height="33.1384" rx="1" fill="#6D6DA7"/>
<path d="M9.96982 40.0197H6.83782C5.56078 40.0197 4.51678 38.9757 4.51678 37.6987V11.7479C4.51678 10.4708 5.56078 9.42684 6.83782 9.42684H28.0254L25.2663 12.186C24.7722 12.68 24.7722 13.4723 25.2663 13.9664C25.5086 14.2087 25.8349 14.3392 26.1518 14.3392C26.4781 14.3392 26.795 14.2181 27.0373 13.9664L31.9497 9.05399C32.1828 8.82095 32.3226 8.4947 32.3226 8.16845C32.3226 7.8422 32.1921 7.51595 31.9497 7.28292L27.0373 2.37053C26.5433 1.87649 25.751 1.87649 25.257 2.37053C24.7629 2.86456 24.7629 3.65688 25.257 4.15092L28.0161 6.91006H6.83782C4.17189 6.91006 2 9.08195 2 11.7479V37.708C2 40.374 4.17189 42.5459 6.83782 42.5459H9.97914C10.6782 42.5459 11.2375 41.9866 11.2375 41.2875C11.2375 40.5884 10.6689 40.0197 9.96982 40.0197Z" fill="#6D6DA7"/>
<path d="M39.9853 6.909H36.844C36.1449 6.909 35.5856 7.46828 35.5856 8.16739C35.5856 8.86649 36.1449 9.42578 36.844 9.42578H39.9853C41.2624 9.42578 42.3064 10.4698 42.3064 11.7468V37.707C42.3064 38.984 41.2624 40.028 39.9853 40.028H18.7977L21.5569 37.2689C22.0509 36.7748 22.0509 35.9825 21.5569 35.4885C21.0629 34.9944 20.2705 34.9944 19.7765 35.4885L14.8641 40.4009C14.6311 40.6339 14.4913 40.9601 14.4913 41.2864C14.4913 41.6126 14.6218 41.9389 14.8641 42.1719L19.7765 47.0843C20.0189 47.3267 20.3451 47.4572 20.662 47.4572C20.979 47.4572 21.3052 47.336 21.5476 47.0843C22.0416 46.5903 22.0416 45.798 21.5476 45.3039L18.7884 42.5448H39.976C42.642 42.5448 44.8138 40.3729 44.8138 37.707V11.7468C44.8232 9.07156 42.6513 6.909 39.9853 6.909Z" fill="#6D6DA7"/>
</svg>
