<svg width="137" height="158" viewBox="0 0 137 158" fill="none" xmlns="http://www.w3.org/2000/svg">
<g opacity="0.78">
<path d="M101.243 30.5623C104.685 26.6045 107.85 22.3754 110.68 18.0326C114.436 12.2748 117.726 6.21872 120.647 0C126.1 2.55906 131.547 5.11809 137 7.67173C131.39 19.6375 124.496 31.202 116.008 41.2919C116.398 41.6768 116.783 42.0618 117.157 42.4576C122.989 48.557 127.461 55.7408 130.566 63.9981C133.672 72.2608 135.222 81.0873 135.222 90.4832C135.222 99.8791 133.672 108.689 130.566 116.909C127.461 125.133 122.989 132.274 117.157 138.335C111.325 144.397 104.219 149.19 95.8502 152.714C87.4815 156.238 78.0287 158 67.4973 158C56.9659 158 47.5403 156.26 39.2041 152.773C30.8733 149.287 23.8108 144.494 18.0112 138.395C12.217 132.296 7.76172 125.15 4.66139 116.968C1.55564 108.782 0 99.955 0 90.4832C0 81.0114 1.55564 72.1415 4.66139 63.8842C7.76172 55.6269 12.217 48.4432 18.0112 42.3437C23.8108 36.2443 30.8896 31.4515 39.2637 27.9653C47.6325 24.4791 57.0472 22.7387 67.4973 22.7387C78.0287 22.7387 87.4815 24.5008 95.8502 28.0249C97.7093 28.8056 99.5088 29.6515 101.243 30.5623ZM102.978 54.4071C96.6577 59.7366 89.6495 64.2692 81.8824 67.7445C68.1206 73.8982 52.0823 76.5006 37.952 70.7969C33.6213 69.0511 29.6321 66.2264 26.6727 62.6644C25.4423 64.9794 24.3745 67.4354 23.4639 70.0216C21.2308 76.3867 20.1143 83.2072 20.1143 90.4832C20.1143 97.6833 21.2308 104.428 23.4639 110.717C25.7024 117.006 28.9003 122.52 33.0684 127.253C37.2365 131.992 42.2123 135.722 48.0118 138.449C53.806 141.176 60.2993 142.543 67.4973 142.543C74.6953 142.543 81.2321 141.176 87.1021 138.449C92.9721 135.722 97.9695 131.992 102.1 127.253C106.23 122.52 109.411 117.006 111.644 110.717C113.883 104.428 115 97.6833 115 90.4832C115 83.2072 113.883 76.3867 111.644 70.0216C109.574 64.1173 106.68 58.9125 102.978 54.4071ZM88.392 42.8479C87.9638 42.6365 87.5357 42.4304 87.1021 42.2298C81.2321 39.5406 74.6953 38.1961 67.4973 38.1961C60.2993 38.1961 53.806 39.5406 48.0118 42.2298C45.5565 43.3684 43.2529 44.6913 41.0903 46.1986C39.822 47.8576 39.1065 49.6685 40.3044 51.1378C43.7245 55.3396 50.7274 56.0715 57.0094 55.7245C68.3538 55.0902 79.0043 50.1672 88.392 42.8479Z" fill="#DEE2E6"/>
<path fill-rule="evenodd" clip-rule="evenodd" d="M52 124.257L57.5779 127.531L58.5175 125.328C60.1819 121.42 63.4909 118.992 67.1535 118.992C70.8161 118.992 74.125 121.42 75.7894 125.327L76.7284 127.531L82.3064 124.257L81.4853 122.33C78.7733 115.959 73.2812 112 67.1535 112C61.0264 112 55.5348 115.959 52.8217 122.33L52 124.257Z" fill="#DEE2E6"/>
<path fill-rule="evenodd" clip-rule="evenodd" d="M44.5006 83C38.7011 83 34 87.702 34 93.5C34 99.2991 38.7011 104 44.5006 104C50.2989 104 55 99.2991 55 93.5C55 87.702 50.2989 83 44.5006 83Z" fill="#DEE2E6"/>
<path fill-rule="evenodd" clip-rule="evenodd" d="M92.5005 83C86.7011 83 82 87.702 82 93.5C82 99.2991 86.7011 104 92.5005 104C98.2989 104 103 99.2991 103 93.5C103 87.702 98.2989 83 92.5005 83Z" fill="#DEE2E6"/>
</g>
</svg>
