<svg width="25" height="24" viewBox="0 0 25 24" fill="none" xmlns="http://www.w3.org/2000/svg">
<rect x="0.587891" width="24" height="24" rx="3" fill="#9999A7"/>
<g clip-path="url(#clip0)">
<path d="M15.1191 12.2812H14.2754V14.5312L15.9629 15.6562L16.3848 14.9644L15.1191 14.1094V12.2812ZM14.8379 10.3125L6.96289 6.9375V10.875L12.0254 12L6.96289 13.125V17.0625L11.0523 15.3131C11.5135 16.9669 13.0323 18.1875 14.8379 18.1875C17.0091 18.1875 18.7754 16.4213 18.7754 14.25C18.7754 12.0788 17.0091 10.3125 14.8379 10.3125ZM14.8379 17.0625C13.291 17.0625 12.0366 15.8138 12.0254 14.2669V14.2275C12.0366 12.6863 13.291 11.4319 14.8379 11.4319C16.3904 11.4319 17.6504 12.6919 17.6504 14.2444C17.6504 15.7969 16.3904 17.0625 14.8379 17.0625Z" fill="white"/>
</g>
<defs>
<clipPath id="clip0">
<rect width="13.5" height="13.5" fill="white" transform="translate(5.83789 5.25)"/>
</clipPath>
</defs>
</svg>
