<svg width="98" height="121" viewBox="0 0 98 121" fill="none" xmlns="http://www.w3.org/2000/svg">
<rect width="13.7069" height="41.207" rx="6.85345" transform="matrix(0.715302 0.698816 -0.698817 0.7153 29.7963 81.7324)" fill="#D5D6E1"/>
<circle opacity="0.06" r="25.5" transform="matrix(-1 0 0 1 65.5002 56.2324)" fill="#33334F"/>
<path d="M64.0004 8.73242C62.896 8.73242 62.0004 7.81383 62.0004 6.68114V2.7837C62.0004 1.65101 62.896 0.732422 64.0004 0.732422C65.105 0.732422 66.0004 1.65101 66.0004 2.7837V6.68114C66.0004 7.81383 65.105 8.73242 64.0004 8.73242Z" fill="#A6A6BF"/>
<path d="M46.9833 13.4747C46.6629 13.6492 46.3134 13.7324 45.9685 13.7324C45.2656 13.7324 44.5821 13.388 44.2053 12.7721L42.2733 9.61266C41.7115 8.69428 42.045 7.52002 43.0176 6.99001C43.9907 6.45964 45.2343 6.77465 45.7955 7.69267L47.7275 10.8521C48.2893 11.7705 47.9558 12.9447 46.9833 13.4747Z" fill="#A6A6BF"/>
<path d="M83.7955 12.7721C83.4189 13.388 82.7354 13.7324 82.0325 13.7324C81.6876 13.7324 81.3377 13.6492 81.0176 13.4747C80.0448 12.9446 79.7116 11.7703 80.2733 10.8521L82.2053 7.69281C82.7671 6.77445 84.0107 6.45963 84.9832 6.99017C85.956 7.52034 86.2893 8.69458 85.7275 9.61275L83.7955 12.7721Z" fill="#A6A6BF"/>
<path d="M64.2402 18.7324C45.6248 18.7324 30.4799 33.8771 30.4799 52.4927C30.4799 60.1523 33.0457 67.2229 37.3604 72.894L30.5214 79.7331C30.478 79.7765 30.4384 79.8222 30.401 79.8692C29.8411 79.7526 29.2658 79.6914 28.6808 79.6914C26.4477 79.6914 24.348 80.5611 22.7684 82.1407L2.44894 102.46C0.869726 104.039 0.000213623 106.138 0.000213623 108.372C0.000213623 110.605 0.869725 112.705 2.44873 114.283C4.02837 115.863 6.12807 116.732 8.36112 116.732C10.5942 116.732 12.6939 115.863 14.2735 114.283L34.5929 93.9636C36.1722 92.385 37.0417 90.2855 37.0417 88.0521C37.0417 87.4668 36.9805 86.8913 36.8639 86.3315C36.9109 86.2942 36.9564 86.2546 36.9998 86.2112L43.8386 79.3724C49.5099 83.6874 56.5805 86.2529 64.2402 86.2529C82.8555 86.2529 98.0004 71.1082 98.0004 52.4927C98.0004 33.8771 82.8555 18.7324 64.2402 18.7324ZM12.0282 112.038C11.0484 113.018 9.74624 113.557 8.36112 113.557C6.97599 113.557 5.67384 113.018 4.69384 112.038C3.71448 111.059 3.17516 109.757 3.17516 108.372C3.17516 106.986 3.71448 105.684 4.69405 104.705L23.0448 86.3545L30.3783 93.688L12.0282 112.038ZM32.6122 91.4319L25.3039 84.1236C26.2723 83.2905 27.4751 82.8693 28.6808 82.8693C30.0087 82.8693 31.3371 83.375 32.348 84.3861C33.3274 85.365 33.8667 86.667 33.8667 88.0523C33.8667 89.3066 33.4231 90.4919 32.6122 91.4319ZM35.5025 83.2188C35.232 82.8386 34.9297 82.4773 34.5932 82.141C34.2562 81.8042 33.8945 81.5017 33.5141 81.231L39.407 75.3381C40.042 76.0279 40.7053 76.6913 41.3952 77.3263L35.5025 83.2188ZM64.2402 83.078C47.3753 83.078 33.6549 69.3576 33.6549 52.4927C33.6549 35.6278 47.3753 21.9074 64.2402 21.9074C81.1051 21.9074 94.8255 35.6278 94.8255 52.4927C94.8255 69.3576 81.1051 83.078 64.2402 83.078Z" fill="#A6A6BF"/>
<path d="M64.24 25.5057C49.3593 25.5057 37.253 37.6119 37.253 52.4927C37.253 67.3735 49.3593 79.4797 64.24 79.4797C79.1208 79.4797 91.2271 67.3735 91.2271 52.4927C91.2271 37.6119 79.1208 25.5057 64.24 25.5057ZM64.24 76.3048C51.1101 76.3048 40.4279 65.6228 40.4279 52.4927C40.4279 39.3626 51.1101 28.6806 64.24 28.6806C77.3699 28.6806 88.0521 39.3626 88.0521 52.4927C88.0521 65.6228 77.3699 76.3048 64.24 76.3048Z" fill="#A6A6BF"/>
<path d="M75.2632 35.5466C74.5287 35.0678 73.5453 35.275 73.0665 36.0097C72.5877 36.7442 72.7952 37.7277 73.5296 38.2063C78.3818 41.3686 81.2786 46.7092 81.2786 52.4927C81.2786 56.4438 79.8956 60.2946 77.3842 63.3354C76.8259 64.0112 76.9213 65.012 77.5974 65.5703C77.8933 65.8148 78.2514 65.9338 78.6074 65.9338C79.0646 65.9338 79.5184 65.7371 79.8323 65.3572C82.8123 61.749 84.4536 57.1802 84.4536 52.4929C84.4538 45.6321 81.0181 39.2972 75.2632 35.5466Z" fill="#A6A6BF"/>
<path d="M67.9135 32.6122C66.7095 32.391 65.4736 32.2788 64.2401 32.2788C63.3631 32.2788 62.6526 32.9896 62.6526 33.8663C62.6526 34.743 63.3631 35.4538 64.2401 35.4538C65.2819 35.4538 66.3247 35.5484 67.3399 35.7348C67.437 35.7526 67.5333 35.7613 67.6286 35.7613C68.3798 35.7613 69.0473 35.2256 69.1881 34.4604C69.3464 33.5981 68.7758 32.7707 67.9135 32.6122Z" fill="#A6A6BF"/>
</svg>
