<svg width="51" height="51" viewBox="0 0 51 51" fill="none"
     xmlns="http://www.w3.org/2000/svg">
  <g style="mix-blend-mode:luminosity" opacity="0.7">
    <path d="M38.2173 34.2623L34.2581 38.2215L27.3281 31.2915L31.2873 27.3323L38.2173 34.2623Z"
          fill="#9AAAB4"/>
    <path d="M48.4339 40.5174L40.2033 32.2868C39.1099 31.1934 37.3375 31.1934 36.2441 32.2868L32.2849 36.246C31.1915 37.3394 31.1915 39.1118 32.2849 40.2052L40.5155 48.4358C42.7023 50.624 46.2499 50.624 48.4367 48.4358C50.6207 46.2504 50.6193 42.7042 48.4339 40.5174Z"
          fill="#66757F"/>
    <path d="M18.9 37.8C29.3382 37.8 37.8 29.3382 37.8 18.9C37.8 8.46182 29.3382 0 18.9 0C8.46182 0 0 8.46182 0 18.9C0 29.3382 8.46182 37.8 18.9 37.8Z"
          fill="#8899A6"/>
    <path d="M18.8977 32.2001C26.243 32.2001 32.1977 26.2455 32.1977 18.9001C32.1977 11.5547 26.243 5.6001 18.8977 5.6001C11.5523 5.6001 5.59766 11.5547 5.59766 18.9001C5.59766 26.2455 11.5523 32.2001 18.8977 32.2001Z"
          fill="#C2E6FF"/>
  </g>
</svg>
