<svg width="30" height="31" viewBox="0 0 30 31" fill="none" xmlns="http://www.w3.org/2000/svg">
<rect opacity="0.1" x="6.78418" y="7.52734" width="18.5625" height="16.3125" rx="2" fill="#6D6DA7"/>
<ellipse cx="15.5828" cy="16.326" rx="1.48615" ry="1.48615" fill="white"/>
<g clip-path="url(#clip0)">
<path d="M24.5434 5.91055H21.3084C21.2623 4.93351 20.4531 4.15273 19.4649 4.15273C18.4767 4.15273 17.6675 4.93351 17.6214 5.91055H12.1821C12.136 4.93351 11.3268 4.15273 10.3386 4.15273C9.35036 4.15273 8.5412 4.93351 8.49514 5.91055H6.26215C5.50884 5.91055 4.89593 6.52341 4.89593 7.27672V21.9057H3.84902C3.60631 21.9057 3.40957 22.1025 3.40957 22.3452C3.40957 23.3403 4.02551 24.1937 4.89593 24.5457V26.2133C4.89593 26.456 5.09268 26.6527 5.33539 26.6527H25.4701C25.7128 26.6527 25.9096 26.456 25.9096 26.2133V7.27672C25.9096 6.52341 25.2967 5.91055 24.5434 5.91055ZM19.4649 5.03164C19.9683 5.03164 20.383 5.41849 20.4275 5.91055H18.5023C18.5468 5.41849 18.9614 5.03164 19.4649 5.03164ZM10.3386 5.03164C10.842 5.03164 11.2567 5.41849 11.3012 5.91055H9.37598C9.42054 5.41849 9.83517 5.03164 10.3386 5.03164ZM5.77484 10.6127H21.515C21.7577 10.6127 21.9545 10.416 21.9545 10.1732C21.9545 9.93053 21.7577 9.73379 21.515 9.73379H5.77484V7.27672C5.77484 7.00804 5.99342 6.78945 6.26215 6.78945H8.49514C8.5412 7.76649 9.35036 8.54727 10.3386 8.54727C10.5813 8.54727 10.7781 8.35052 10.7781 8.10781C10.7781 7.8651 10.5813 7.66836 10.3386 7.66836C9.83517 7.66836 9.42054 7.28151 9.37598 6.78945H17.6214C17.6675 7.76649 18.4767 8.54727 19.4649 8.54727C19.7076 8.54727 19.9044 8.35052 19.9044 8.10781C19.9044 7.8651 19.7076 7.66836 19.4649 7.66836C18.9615 7.66836 18.5468 7.28151 18.5023 6.78945H24.5434C24.8121 6.78945 25.0307 7.00804 25.0307 7.27672V22.521C25.0307 23.247 24.4407 23.8377 23.715 23.8392C22.8924 23.8377 22.2236 23.1681 22.2236 22.3452C22.2236 22.1025 22.0269 21.9057 21.7842 21.9057H5.77484V10.6127ZM4.35439 22.7846H21.3855C21.4597 23.179 21.6318 23.5394 21.8754 23.8393H5.78262C5.11162 23.8393 4.54248 23.3947 4.35439 22.7846ZM5.77484 25.7738V24.718C5.77743 24.718 5.77998 24.7182 5.78262 24.7182H23.6411C23.6488 24.7182 23.6565 24.718 23.6641 24.7176C23.6796 24.718 23.6952 24.7181 23.7107 24.7181C23.7112 24.7181 23.7118 24.7182 23.7123 24.7182C23.7129 24.7182 23.7134 24.7182 23.714 24.7182C23.7152 24.7182 23.7165 24.7182 23.7178 24.7182C23.7197 24.7182 23.7215 24.718 23.7233 24.718C24.2133 24.7155 24.6659 24.552 25.0307 24.2776V25.7738H5.77484Z" fill="#6D6DA7"/>
<path fill-rule="evenodd" clip-rule="evenodd" d="M4.38918 22.8846C4.37645 22.8518 4.36483 22.8185 4.35439 22.7846H21.3855C21.4516 23.1361 21.5955 23.4606 21.7985 23.7393C21.8233 23.7733 21.8489 23.8067 21.8754 23.8393H5.78262C5.14886 23.8393 4.60597 23.4427 4.38918 22.8846ZM4.49705 22.8846C4.70841 23.3864 5.20531 23.7393 5.78262 23.7393H21.6761C21.5016 23.4846 21.3735 23.1956 21.304 22.8846H4.49705ZM23.7107 24.7181C23.6952 24.7181 23.6796 24.718 23.6641 24.7176C23.6565 24.718 23.6488 24.7182 23.6411 24.7182H5.78262L5.77484 24.718V25.7738H25.0307V24.2776C24.998 24.3021 24.9647 24.3258 24.9307 24.3486C24.5846 24.58 24.1695 24.7158 23.7233 24.718L23.7178 24.7182L23.714 24.7182C23.7134 24.7182 23.7129 24.7182 23.7123 24.7182C23.7118 24.7182 23.7112 24.7181 23.7107 24.7181ZM24.9307 24.4677C24.5809 24.6873 24.1681 24.8153 23.7262 24.8179C23.7243 24.8181 23.7212 24.8182 23.7178 24.8182L23.7142 24.8182L23.7123 24.8182L23.7104 24.8181C23.7101 24.8181 23.7097 24.8181 23.7094 24.8181C23.6994 24.8181 23.6892 24.818 23.6789 24.8179C23.6745 24.8178 23.6701 24.8178 23.6657 24.8177C23.6572 24.8181 23.649 24.8182 23.6411 24.8182H5.87484V25.6738H24.9307V24.4677ZM23.7178 24.8182C23.718 24.8182 23.7172 24.8181 23.7167 24.8181L23.7178 24.8182ZM21.4014 5.81055H24.5434C25.3519 5.81055 26.0096 6.46818 26.0096 7.27672V26.2133C26.0096 26.5112 25.7681 26.7527 25.4701 26.7527H5.33539C5.03745 26.7527 4.79593 26.5112 4.79593 26.2133V24.6121C3.92232 24.2305 3.30957 23.3586 3.30957 22.3452C3.30957 22.0472 3.55109 21.8057 3.84902 21.8057H4.79593V7.27672C4.79593 6.46818 5.45361 5.81055 6.26215 5.81055H8.40208C8.49693 4.82546 9.32901 4.05273 10.3386 4.05273C11.3482 4.05273 12.1803 4.82546 12.2751 5.81055H17.5284C17.6232 4.82546 18.4553 4.05273 19.4649 4.05273C20.4745 4.05273 21.3066 4.82546 21.4014 5.81055ZM21.3084 5.91055H24.5434C25.2967 5.91055 25.9096 6.52341 25.9096 7.27672V26.2133C25.9096 26.456 25.7128 26.6527 25.4701 26.6527H5.33539C5.09268 26.6527 4.89593 26.456 4.89593 26.2133V24.5457C4.02551 24.1937 3.40957 23.3403 3.40957 22.3452C3.40957 22.1025 3.60631 21.9057 3.84902 21.9057H4.89593V7.27672C4.89593 6.52341 5.50884 5.91055 6.26215 5.91055H8.49514C8.5412 4.93351 9.35036 4.15273 10.3386 4.15273C11.3268 4.15273 12.136 4.93351 12.1821 5.91055H17.6214C17.6675 4.93351 18.4767 4.15273 19.4649 4.15273C20.4531 4.15273 21.2623 4.93351 21.3084 5.91055ZM20.311 5.81055C20.2249 5.42266 19.8782 5.13164 19.4649 5.13164C19.0516 5.13164 18.7049 5.42266 18.6188 5.81055H20.311ZM20.4132 5.81055C20.3255 5.36708 19.9337 5.03164 19.4649 5.03164C18.9961 5.03164 18.6043 5.36708 18.5166 5.81055C18.5102 5.84332 18.5053 5.87668 18.5023 5.91055H20.4275C20.4245 5.87668 20.4196 5.84332 20.4132 5.81055ZM11.1847 5.81055C11.0986 5.42266 10.7519 5.13164 10.3386 5.13164C9.92534 5.13164 9.57857 5.42266 9.49252 5.81055H11.1847ZM11.2869 5.81055C11.1992 5.36708 10.8074 5.03164 10.3386 5.03164C9.86981 5.03164 9.47803 5.36708 9.39035 5.81055C9.38387 5.84332 9.37905 5.87668 9.37598 5.91055H11.3012C11.2982 5.87668 11.2933 5.84332 11.2869 5.81055ZM21.515 10.7127H5.87484V21.8057H21.7842C22.0821 21.8057 22.3236 22.0472 22.3236 22.3452C22.3236 23.1128 22.9476 23.7377 23.715 23.7392C24.3855 23.7377 24.9307 23.1917 24.9307 22.521V7.27672C24.9307 7.06327 24.7569 6.88945 24.5434 6.88945H18.6188C18.7049 7.27734 19.0516 7.56836 19.4649 7.56836C19.7628 7.56836 20.0044 7.80987 20.0044 8.10781C20.0044 8.40575 19.7628 8.64727 19.4649 8.64727C18.4553 8.64727 17.6232 7.87454 17.5284 6.88945H9.49252C9.57857 7.27734 9.92534 7.56836 10.3386 7.56836C10.6365 7.56836 10.8781 7.80987 10.8781 8.10781C10.8781 8.40575 10.6365 8.64727 10.3386 8.64727C9.32901 8.64727 8.49693 7.87454 8.40208 6.88945H6.26215C6.04865 6.88945 5.87484 7.06327 5.87484 7.27672V9.63379H21.515C21.813 9.63379 22.0545 9.8753 22.0545 10.1732C22.0545 10.4712 21.813 10.7127 21.515 10.7127ZM8.49514 6.78945H6.26215C5.99342 6.78945 5.77484 7.00804 5.77484 7.27672V9.73379H21.515C21.7577 9.73379 21.9545 9.93053 21.9545 10.1732C21.9545 10.416 21.7577 10.6127 21.515 10.6127H5.77484V21.9057H21.7842C22.0269 21.9057 22.2236 22.1025 22.2236 22.3452C22.2236 23.1681 22.8924 23.8377 23.715 23.8392C24.4407 23.8377 25.0307 23.247 25.0307 22.521V7.27672C25.0307 7.00804 24.8121 6.78945 24.5434 6.78945H18.5023C18.5053 6.82332 18.5102 6.85668 18.5166 6.88945C18.6043 7.33292 18.9961 7.66836 19.4649 7.66836C19.7076 7.66836 19.9044 7.8651 19.9044 8.10781C19.9044 8.35052 19.7076 8.54727 19.4649 8.54727C18.4767 8.54727 17.6675 7.76649 17.6214 6.78945H9.37598C9.37905 6.82332 9.38387 6.85668 9.39035 6.88945C9.47803 7.33292 9.86981 7.66836 10.3386 7.66836C10.5813 7.66836 10.7781 7.8651 10.7781 8.10781C10.7781 8.35052 10.5813 8.54727 10.3386 8.54727C9.35036 8.54727 8.5412 7.76649 8.49514 6.78945Z" fill="#6D6DA7"/>
<path d="M23.4922 10.6133C23.6078 10.6133 23.7211 10.5663 23.8029 10.4845C23.8846 10.4028 23.9316 10.2894 23.9316 10.1738C23.9316 10.0583 23.8846 9.94487 23.8029 9.86313C23.7211 9.7814 23.6078 9.73438 23.4922 9.73438C23.3766 9.73438 23.2632 9.7814 23.1815 9.86313C23.0998 9.94487 23.0527 10.0583 23.0527 10.1738C23.0527 10.2894 23.0998 10.4028 23.1815 10.4845C23.2632 10.5663 23.3766 10.6133 23.4922 10.6133Z" fill="#6D6DA7"/>
<path d="M15.4023 14.2363C14.2877 14.2363 13.3809 15.1432 13.3809 16.2578C13.3809 17.3724 14.2877 18.2793 15.4023 18.2793C16.517 18.2793 17.4238 17.3724 17.4238 16.2578C17.4238 15.1432 16.517 14.2363 15.4023 14.2363ZM15.4023 17.4004C14.7723 17.4004 14.2598 16.8878 14.2598 16.2578C14.2598 15.6278 14.7723 15.1152 15.4023 15.1152C16.0323 15.1152 16.5449 15.6278 16.5449 16.2578C16.5449 16.8878 16.0323 17.4004 15.4023 17.4004Z" fill="#6D6DA7"/>
<path d="M15.4023 13.3575C15.6451 13.3575 15.8418 13.1607 15.8418 12.918V11.9297C15.8418 11.687 15.6451 11.4902 15.4023 11.4902C15.1596 11.4902 14.9629 11.687 14.9629 11.9297V12.918C14.9629 13.1607 15.1596 13.3575 15.4023 13.3575Z" fill="#6D6DA7"/>
<path d="M15.4023 19.1582C15.1596 19.1582 14.9629 19.3549 14.9629 19.5977V20.5859C14.9629 20.8287 15.1596 21.0254 15.4023 21.0254C15.6451 21.0254 15.8418 20.8287 15.8418 20.5859V19.5977C15.8418 19.3549 15.6451 19.1582 15.4023 19.1582Z" fill="#6D6DA7"/>
<path d="M19.7305 15.8184H18.7422C18.4995 15.8184 18.3027 16.0151 18.3027 16.2578C18.3027 16.5005 18.4995 16.6973 18.7422 16.6973H19.7305C19.9732 16.6973 20.17 16.5005 20.17 16.2578C20.17 16.0151 19.9732 15.8184 19.7305 15.8184Z" fill="#6D6DA7"/>
<path d="M12.502 16.2578C12.502 16.0151 12.3053 15.8184 12.0625 15.8184H11.0742C10.8315 15.8184 10.6348 16.0151 10.6348 16.2578C10.6348 16.5005 10.8315 16.6973 11.0742 16.6973H12.0625C12.3053 16.6973 12.502 16.5005 12.502 16.2578Z" fill="#6D6DA7"/>
<path d="M17.7647 14.3375C17.8771 14.3375 17.9896 14.2946 18.0754 14.2088L18.7742 13.51C18.9458 13.3384 18.9458 13.0601 18.7742 12.8885C18.6026 12.7169 18.3244 12.7169 18.1527 12.8885L17.4539 13.5873C17.2823 13.7589 17.2823 14.0372 17.4539 14.2088C17.5397 14.2946 17.6522 14.3375 17.7647 14.3375Z" fill="#6D6DA7"/>
<path d="M12.7299 18.3104L12.031 19.0092C11.8594 19.1808 11.8594 19.4591 12.031 19.6307C12.1169 19.7165 12.2293 19.7594 12.3418 19.7594C12.4542 19.7594 12.5667 19.7165 12.6525 19.6307L13.3513 18.9318C13.523 18.7602 13.523 18.482 13.3513 18.3104C13.1797 18.1388 12.9015 18.1387 12.7299 18.3104Z" fill="#6D6DA7"/>
<path d="M18.0744 18.3103C17.9028 18.1387 17.6245 18.1387 17.4529 18.3103C17.2813 18.482 17.2813 18.7602 17.4529 18.9318L18.1518 19.6307C18.2376 19.7165 18.35 19.7594 18.4625 19.7594C18.575 19.7594 18.6875 19.7165 18.7732 19.6307C18.9448 19.4591 18.9449 19.1808 18.7732 19.0092L18.0744 18.3103Z" fill="#6D6DA7"/>
<path d="M12.7309 14.2088C12.8167 14.2946 12.9292 14.3375 13.0416 14.3375C13.1541 14.3375 13.2666 14.2946 13.3524 14.2088C13.524 14.0372 13.524 13.7589 13.3524 13.5873L12.6535 12.8885C12.4819 12.7169 12.2037 12.7169 12.032 12.8885C11.8604 13.0601 11.8604 13.3383 12.032 13.51L12.7309 14.2088Z" fill="#6D6DA7"/>
</g>
<defs>
<clipPath id="clip0">
<rect width="22.5" height="22.5" fill="white" transform="translate(3.40918 4.15234)"/>
</clipPath>
</defs>
</svg>
