<svg width="14" height="13" viewBox="0 0 14 13" fill="none" xmlns="http://www.w3.org/2000/svg">
<path d="M11.6666 5.66659C12.4199 5.66659 13.1066 5.40659 13.6666 4.98659V10.9999C13.6666 11.7333 13.0666 12.3333 12.3333 12.3333H1.66659C0.933252 12.3333 0.333252 11.7333 0.333252 10.9999V2.99992C0.333252 2.26659 0.933252 1.66659 1.66659 1.66659H8.39992C8.35992 1.87992 8.33325 2.10659 8.33325 2.33325C8.33325 3.31992 8.76659 4.19325 9.44659 4.80659L6.99992 6.33325L2.53325 3.53992C2.15325 3.30659 1.66659 3.57325 1.66659 4.01992C1.66659 4.21325 1.76659 4.39325 1.93325 4.49992L6.64659 7.44659C6.85992 7.57992 7.13992 7.57992 7.35325 7.44659L10.5333 5.45992C10.8933 5.58659 11.2666 5.66659 11.6666 5.66659ZM9.66659 2.33325C9.66659 3.43992 10.5599 4.33325 11.6666 4.33325C12.7733 4.33325 13.6666 3.43992 13.6666 2.33325C13.6666 1.22659 12.7733 0.333252 11.6666 0.333252C10.5599 0.333252 9.66659 1.22659 9.66659 2.33325Z" fill="white"/>
</svg>
