<svg width="36" height="36" viewBox="0 0 36 36" fill="none" xmlns="http://www.w3.org/2000/svg">
<g opacity="0.05">
<path d="M34 23.0345C34 27.8019 30.1506 31.6666 25.402 31.6666C20.6535 31.6666 16.804 27.8019 16.804 23.0345C16.804 18.2672 20.6535 14.4024 25.402 14.4024C30.1506 14.4024 34 18.2672 34 23.0345Z" fill="#33334F"/>
<path d="M21.3293 15.7654C21.3293 20.5328 17.4798 24.3975 12.7313 24.3975C7.98278 24.3975 4.13333 20.5328 4.13333 15.7654C4.13333 10.998 7.98278 7.1333 12.7313 7.1333C17.4798 7.1333 21.3293 10.998 21.3293 15.7654Z" fill="#33334F"/>
</g>
<path d="M23.645 11.6744C18.5231 11.6744 14.3567 15.919 14.3567 21.1372C14.3567 26.3554 18.5231 30.5999 23.645 30.5999C28.767 30.5999 32.9333 26.3554 32.9333 21.1372C32.9333 15.919 28.767 11.6744 23.645 11.6744ZM23.645 29.2481C19.2549 29.2481 15.6836 25.6098 15.6836 21.1372C15.6836 16.6646 19.2549 13.0263 23.645 13.0263C28.0352 13.0263 31.6064 16.6646 31.6064 21.1372C31.6064 25.6098 28.0352 29.2481 23.645 29.2481Z" fill="#33334F"/>
<path d="M23.645 26.5445C21.4496 26.5445 19.6643 24.7257 19.6643 22.489H18.3374C18.3374 25.4705 20.7185 27.8963 23.645 27.8963C26.5716 27.8963 28.9526 25.4705 28.9526 22.489H27.6257C27.6257 24.7257 25.8404 26.5445 23.645 26.5445Z" fill="#33334F"/>
<path d="M20.3278 18.4336C21.0596 18.4336 21.6547 19.0398 21.6547 19.7854H22.9816C22.9816 18.2943 21.7914 17.0817 20.3278 17.0817C18.8642 17.0817 17.674 18.2943 17.674 19.7854H19.0009C19.0009 19.0398 19.596 18.4336 20.3278 18.4336Z" fill="#33334F"/>
<path d="M26.9623 17.0817C25.4987 17.0817 24.3085 18.2943 24.3085 19.7854H25.6354C25.6354 19.0398 26.2305 18.4336 26.9623 18.4336C27.6941 18.4336 28.2892 19.0398 28.2892 19.7854H29.6161C29.6161 18.2943 28.4259 17.0817 26.9623 17.0817Z" fill="#33334F"/>
<path d="M13.2003 23.7239C12.5831 23.856 11.9435 23.9255 11.2883 23.9255C6.1663 23.9255 1.99998 19.6809 1.99998 14.4627C1.99998 9.24453 6.1663 4.99995 11.2883 4.99995C15.3298 4.99995 18.7763 7.64264 20.0505 11.3211C19.6225 11.4484 19.2064 11.6042 18.8043 11.7861C17.7166 8.62476 14.7583 6.35177 11.2883 6.35177C6.8981 6.35177 3.32688 9.99008 3.32688 14.4627C3.32688 18.9353 6.8981 22.5736 11.2883 22.5736C11.8562 22.5736 12.4104 22.5128 12.9449 22.3971C13.0016 22.8493 13.0874 23.2922 13.2003 23.7239Z" fill="#33334F"/>
<path d="M14.0515 16.2772C13.8219 16.7119 13.6223 17.1656 13.4557 17.6354C12.9747 16.9431 12.1825 16.4904 11.2883 16.4904C9.82466 16.4904 8.63447 17.703 8.63447 19.1941H7.30757C7.30757 16.9574 9.09286 15.1386 11.2883 15.1386C12.3606 15.1386 13.3351 15.5726 14.0515 16.2772Z" fill="#33334F"/>
<path d="M9.29792 11.0832H10.6248C10.6248 12.5742 9.43463 13.7868 7.97102 13.7868C6.50742 13.7868 5.31723 12.5742 5.31723 11.0832H6.64412C6.64412 11.8287 7.23922 12.435 7.97102 12.435C8.70282 12.435 9.29792 11.8287 9.29792 11.0832Z" fill="#33334F"/>
<path d="M14.6055 13.7868C16.0691 13.7868 17.2593 12.5742 17.2593 11.0832H15.9324C15.9324 11.8287 15.3373 12.435 14.6055 12.435C13.8737 12.435 13.2786 11.8287 13.2786 11.0832H11.9517C11.9517 12.5742 13.1419 13.7868 14.6055 13.7868Z" fill="#33334F"/>
<path fill-rule="evenodd" clip-rule="evenodd" d="M1.94998 14.4627C1.94998 9.21779 6.13781 4.94995 11.2883 4.94995C15.3523 4.94995 18.8169 7.60728 20.0977 11.3047L20.1148 11.3541L20.0648 11.369C19.639 11.4957 19.225 11.6506 18.825 11.8317L18.7749 11.8543L18.7571 11.8024C17.6759 8.66006 14.7357 6.40177 11.2883 6.40177C6.92659 6.40177 3.37688 10.0168 3.37688 14.4627C3.37688 18.9086 6.92659 22.5236 11.2883 22.5236C11.8526 22.5236 12.4033 22.4631 12.9344 22.3482L12.9878 22.3366L12.9945 22.3908C13.0509 22.8409 13.1363 23.2817 13.2487 23.7113L13.2619 23.7619L13.2108 23.7728C12.5901 23.9056 11.947 23.9755 11.2883 23.9755C6.13781 23.9755 1.94998 19.7076 1.94998 14.4627ZM11.2883 5.04995C6.19479 5.04995 2.04998 9.27126 2.04998 14.4627C2.04998 19.6542 6.19479 23.8755 11.2883 23.8755C11.9219 23.8755 12.5408 23.8101 13.1388 23.6858C13.0362 23.2853 12.9568 22.8753 12.9022 22.4573C12.3807 22.5663 11.8409 22.6236 11.2883 22.6236C6.86961 22.6236 3.27688 18.9621 3.27688 14.4627C3.27688 9.96334 6.86961 6.30177 11.2883 6.30177C14.7618 6.30177 17.7251 8.56469 18.8336 11.7182C19.2065 11.5519 19.5912 11.408 19.9861 11.2882C18.7048 7.65445 15.2892 5.04995 11.2883 5.04995ZM5.26723 11.0332H6.69412V11.0832C6.69412 11.802 7.26771 12.385 7.97102 12.385C8.67434 12.385 9.24792 11.802 9.24792 11.0832V11.0332H10.6748V11.0832C10.6748 12.601 9.46311 13.8368 7.97102 13.8368C6.47893 13.8368 5.26723 12.601 5.26723 11.0832V11.0332ZM5.36768 11.1332C5.39392 12.5745 6.55227 13.7368 7.97102 13.7368C9.38977 13.7368 10.5481 12.5745 10.5744 11.1332H9.34706C9.32113 11.8824 8.71484 12.485 7.97102 12.485C7.22721 12.485 6.62092 11.8824 6.59499 11.1332H5.36768ZM11.9017 11.0332H13.3286V11.0832C13.3286 11.802 13.9022 12.385 14.6055 12.385C15.3088 12.385 15.8824 11.802 15.8824 11.0832V11.0332H17.3093V11.0832C17.3093 12.601 16.0976 13.8368 14.6055 13.8368C13.1134 13.8368 11.9017 12.601 11.9017 11.0832V11.0332ZM12.0022 11.1332C12.0284 12.5745 13.1868 13.7368 14.6055 13.7368C16.0243 13.7368 17.1826 12.5745 17.2089 11.1332H15.9815C15.9556 11.8824 15.3493 12.485 14.6055 12.485C13.8617 12.485 13.2554 11.8824 13.2295 11.1332H12.0022ZM14.3067 21.1372C14.3067 15.8923 18.4946 11.6244 23.645 11.6244C28.7955 11.6244 32.9833 15.8923 32.9833 21.1372C32.9833 26.3821 28.7955 30.65 23.645 30.65C18.4946 30.65 14.3067 26.3821 14.3067 21.1372ZM23.645 11.7244C18.5515 11.7244 14.4067 15.9457 14.4067 21.1372C14.4067 26.3286 18.5515 30.5499 23.645 30.5499C28.7385 30.5499 32.8833 26.3286 32.8833 21.1372C32.8833 15.9457 28.7385 11.7244 23.645 11.7244ZM23.645 13.0763C19.2833 13.0763 15.7336 16.6913 15.7336 21.1372C15.7336 25.5831 19.2833 29.1981 23.645 29.1981C28.0067 29.1981 31.5564 25.5831 31.5564 21.1372C31.5564 16.6913 28.0067 13.0763 23.645 13.0763ZM15.6336 21.1372C15.6336 16.6378 19.2264 12.9763 23.645 12.9763C28.0637 12.9763 31.6564 16.6378 31.6564 21.1372C31.6564 25.6366 28.0637 29.2981 23.645 29.2981C19.2264 29.2981 15.6336 25.6366 15.6336 21.1372ZM7.25757 19.1941C7.25757 16.9307 9.06437 15.0886 11.2883 15.0886C12.3744 15.0886 13.3613 15.5282 14.0866 16.2415L14.1131 16.2676L14.0957 16.3005C13.8672 16.7332 13.6686 17.1846 13.5029 17.6521L13.4703 17.744L13.4147 17.6639C12.9424 16.9843 12.1652 16.5404 11.2883 16.5404C9.85315 16.5404 8.68447 17.7297 8.68447 19.1941V19.2441H7.25757V19.1941ZM7.35787 19.1441C7.38424 16.9572 9.13771 15.1886 11.2883 15.1886C12.3336 15.1886 13.2849 15.6063 13.9899 16.2869C13.7809 16.686 13.5972 17.1008 13.4408 17.5292C12.9468 16.8683 12.166 16.4404 11.2883 16.4404C9.81259 16.4404 8.61117 17.6492 8.58491 19.1441H7.35787ZM17.624 19.7854C17.624 18.2675 18.8357 17.0317 20.3278 17.0317C21.8199 17.0317 23.0316 18.2675 23.0316 19.7854V19.8354H21.6047V19.7854C21.6047 19.0666 21.0311 18.4836 20.3278 18.4836C19.6245 18.4836 19.0509 19.0666 19.0509 19.7854V19.8354H17.624V19.7854ZM17.7244 19.7354H18.9517C18.9777 18.9861 19.584 18.3836 20.3278 18.3836C21.0716 18.3836 21.6779 18.9861 21.7038 19.7354H22.9311C22.9049 18.294 21.7465 17.1317 20.3278 17.1317C18.909 17.1317 17.7507 18.294 17.7244 19.7354ZM24.2585 19.7854C24.2585 18.2675 25.4702 17.0317 26.9623 17.0317C28.4544 17.0317 29.6661 18.2675 29.6661 19.7854V19.8354H28.2392V19.7854C28.2392 19.0666 27.6656 18.4836 26.9623 18.4836C26.259 18.4836 25.6854 19.0666 25.6854 19.7854V19.8354H24.2585V19.7854ZM24.3589 19.7354H25.5862C25.6122 18.9861 26.2185 18.3836 26.9623 18.3836C27.7061 18.3836 28.3124 18.9861 28.3383 19.7354H29.5656C29.5394 18.294 28.381 17.1317 26.9623 17.1317C25.5435 17.1317 24.3852 18.294 24.3589 19.7354ZM18.2874 22.439H19.7143V22.489C19.7143 24.6989 21.4781 26.4945 23.645 26.4945C25.8119 26.4945 27.5757 24.6989 27.5757 22.489V22.439H29.0026V22.489C29.0026 25.4973 26.6001 27.9463 23.645 27.9463C20.69 27.9463 18.2874 25.4973 18.2874 22.489V22.439ZM18.3877 22.539C18.4141 25.4709 20.7633 27.8463 23.645 27.8463C26.5267 27.8463 28.876 25.4709 28.9024 22.539H27.6754C27.6491 24.7795 25.8525 26.5945 23.645 26.5945C21.4375 26.5945 19.641 24.7795 19.6146 22.539H18.3877Z" fill="#33334F"/>
</svg>
