<svg width="36" height="36" viewBox="0 0 36 36" fill="none" xmlns="http://www.w3.org/2000/svg">
<path opacity="0.05" d="M18.5269 32.4447C25.1146 32.4447 30.4551 27.1043 30.4551 20.5165L18.5269 20.5166V8.58838C11.9392 8.58838 6.59875 13.9288 6.59875 20.5165C6.59875 27.1043 11.9392 32.4447 18.5269 32.4447Z" fill="#33334F"/>
<path d="M28.3297 18.1778H17.8123V7.6605C17.8123 7.2355 17.4723 6.8955 17.0473 6.8955C10.406 6.8955 5 12.3015 5 18.9428C5 25.5842 10.406 30.9902 17.0473 30.9902C23.6887 30.9902 29.0947 25.5842 29.0947 18.9428C29.0947 18.5235 28.749 18.1778 28.3297 18.1778ZM17.0473 29.4602C11.2503 29.4602 6.53 24.7398 6.53 18.9428C6.53 13.4008 10.8367 8.84483 16.2823 8.45383V18.9428C16.2823 19.3678 16.6223 19.7078 17.0473 19.7078H27.5364C27.1454 25.1535 22.5893 29.4602 17.0473 29.4602Z" fill="#33334F"/>
<path d="M31.9847 16.0077C31.9733 13.0837 30.9023 10.2673 28.97 8.07434C26.6807 5.48467 23.394 4 19.9373 4C19.5123 4 19.1723 4.34 19.1723 4.765V16.0473C19.1723 16.4723 19.5123 16.8123 19.9373 16.8123H31.2197C31.6447 16.8123 31.9847 16.4723 31.9847 16.0473C31.9847 16.036 31.9847 16.0247 31.9847 16.0077ZM20.7023 15.288V5.564C23.4336 5.76233 25.995 7.026 27.8197 9.09434C29.3497 10.8227 30.2563 12.9987 30.4263 15.288H20.7023Z" fill="#33334F"/>
</svg>
