<svg fill="none" height="40" viewBox="0 0 40 40" width="40" xmlns="http://www.w3.org/2000/svg">
  <path
    d="M20.4999 37C28.1598 37 34.4325 31.2653 34.9636 24.0001C35.0038 23.4493 34.5523 23 34 23L21.4999 23.0001C20.9476 23.0001 20.4999 22.5524 20.4999 22.0001V10C20.4999 9.44772 20.0508 8.99654 19.4997 9.03279C11.9582 9.5289 6 15.5926 6 23C6 30.732 12.4919 37 20.4999 37Z"
    fill="#B8B8D2" opacity="0.2"/>
  <path
    d="M32.3407 20.3216H19.6815V7.665C19.6815 7.15355 19.2723 6.7444 18.7607 6.7444C10.7669 6.7444 4.25999 13.25 4.25999 21.2422C4.25999 29.2345 10.7669 35.7401 18.7607 35.7401C26.7546 35.7401 33.2615 29.2345 33.2615 21.2422C33.2615 20.7376 32.8454 20.3216 32.3407 20.3216ZM18.7607 33.8989C11.7832 33.8989 6.10157 28.2184 6.10157 21.2422C6.10157 14.573 11.2853 9.09024 17.84 8.6197V21.2422C17.84 21.7537 18.2492 22.1628 18.7607 22.1628H31.3858C30.9152 28.7162 25.4314 33.8989 18.7607 33.8989Z"
    fill="#B8B8D2"/>
  <path
    d="M36.74 17.71C36.7264 14.1913 35.4373 10.8021 33.1114 8.16302C30.3559 5.04659 26.3999 3.25994 22.2392 3.25994C21.7277 3.25994 21.3185 3.66909 21.3185 4.18054V17.7578C21.3185 18.2692 21.7277 18.6784 22.2392 18.6784H35.8192C36.3308 18.6784 36.74 18.2692 36.74 17.7578C36.74 17.7441 36.74 17.7305 36.74 17.71ZM23.16 16.844V5.14206C26.4476 5.38074 29.5306 6.90144 31.7268 9.39049C33.5684 11.4704 34.6597 14.089 34.8643 16.844H23.16Z"
    fill="#B8B8D2"/>
  <path clip-rule="evenodd"
        d="M21.0585 4.18054C21.0585 3.52554 21.5841 3 22.2392 3C26.4745 3 30.5014 4.81875 33.3062 7.99085C35.6736 10.6771 36.9861 14.1273 37 17.709L37 17.71L37 17.7574C37 18.4124 36.4744 18.9383 35.8192 18.9383H22.2392C21.5841 18.9383 21.0585 18.4128 21.0585 17.7578V4.18054ZM22.2392 3.51987C21.8713 3.51987 21.5784 3.81265 21.5784 4.18054V17.7578C21.5784 18.1257 21.8713 18.4184 22.2392 18.4184H35.8192C36.1872 18.4184 36.48 18.1257 36.48 17.7578V17.7104C36.4664 14.2551 35.2005 10.9268 32.9166 8.33518C30.2103 5.27444 26.3252 3.51987 22.2392 3.51987ZM22.9 4.86257L23.1789 4.88281C26.534 5.12639 29.6801 6.67824 31.9215 9.2182C33.8012 11.3412 34.9148 14.0137 35.1236 16.8247L35.1443 17.1039H22.9V4.86257ZM23.42 5.42474V16.5841H34.5812C34.3299 13.9877 33.2733 11.5292 31.5321 9.56279C29.4432 7.19535 26.5349 5.72201 23.42 5.42474ZM4 21.2422C4 13.1065 10.6233 6.48446 18.7607 6.48446C19.4159 6.48446 19.9415 7.00999 19.9415 7.665V20.0617H32.3407C32.989 20.0617 33.5215 20.594 33.5215 21.2422C33.5215 29.378 26.8982 36 18.7607 36C10.6233 36 4 29.378 4 21.2422ZM18.7607 7.00433C10.9105 7.00433 4.51998 13.3936 4.51998 21.2422C4.51998 29.0909 10.9105 35.4801 18.7607 35.4801C26.611 35.4801 33.0015 29.0909 33.0015 21.2422C33.0015 20.8812 32.7019 20.5816 32.3407 20.5816H19.4215V7.665C19.4215 7.29711 19.1287 7.00433 18.7607 7.00433ZM18.0999 8.34044V21.2422C18.0999 21.6101 18.3928 21.9029 18.7607 21.9029H31.6651L31.6451 22.1815C31.1648 28.8699 25.5687 34.1588 18.7607 34.1588C11.6396 34.1588 5.84158 28.3619 5.84158 21.2422C5.84158 14.4357 11.1316 8.84066 17.8213 8.36044L18.0999 8.34044ZM17.58 8.90212C11.2927 9.49591 6.36156 14.805 6.36156 21.2422C6.36156 28.0748 11.9268 33.6389 18.7607 33.6389C25.1993 33.6389 30.5094 28.7088 31.1033 22.4228H18.7607C18.1056 22.4228 17.58 21.8972 17.58 21.2422V8.90212Z"
        fill="#B8B8D2" fill-rule="evenodd"/>
  <path
    d="M32.3407 20.3216H19.6815V7.665C19.6815 7.15355 19.2723 6.7444 18.7607 6.7444C10.7669 6.7444 4.25999 13.25 4.25999 21.2422C4.25999 29.2345 10.7669 35.7401 18.7607 35.7401C26.7546 35.7401 33.2615 29.2345 33.2615 21.2422C33.2615 20.7376 32.8454 20.3216 32.3407 20.3216ZM18.7607 33.8989C11.7832 33.8989 6.10157 28.2184 6.10157 21.2422C6.10157 14.573 11.2853 9.09024 17.84 8.6197V21.2422C17.84 21.7537 18.2492 22.1628 18.7607 22.1628H31.3858C30.9152 28.7162 25.4314 33.8989 18.7607 33.8989Z"
    stroke="#B8B8D2"/>
  <path
    d="M36.74 17.71C36.7264 14.1913 35.4373 10.8021 33.1114 8.16302C30.3559 5.04659 26.3999 3.25994 22.2392 3.25994C21.7277 3.25994 21.3185 3.66909 21.3185 4.18054V17.7578C21.3185 18.2692 21.7277 18.6784 22.2392 18.6784H35.8192C36.3308 18.6784 36.74 18.2692 36.74 17.7578C36.74 17.7441 36.74 17.7305 36.74 17.71ZM23.16 16.844V5.14206C26.4476 5.38074 29.5306 6.90144 31.7268 9.39049C33.5684 11.4704 34.6597 14.089 34.8643 16.844H23.16Z"
    stroke="#B8B8D2"/>
  <path clip-rule="evenodd"
        d="M21.0585 4.18054C21.0585 3.52554 21.5841 3 22.2392 3C26.4745 3 30.5014 4.81875 33.3062 7.99085C35.6736 10.6771 36.9861 14.1273 37 17.709L37 17.71L37 17.7574C37 18.4124 36.4744 18.9383 35.8192 18.9383H22.2392C21.5841 18.9383 21.0585 18.4128 21.0585 17.7578V4.18054ZM22.2392 3.51987C21.8713 3.51987 21.5784 3.81265 21.5784 4.18054V17.7578C21.5784 18.1257 21.8713 18.4184 22.2392 18.4184H35.8192C36.1872 18.4184 36.48 18.1257 36.48 17.7578V17.7104C36.4664 14.2551 35.2005 10.9268 32.9166 8.33518C30.2103 5.27444 26.3252 3.51987 22.2392 3.51987ZM22.9 4.86257L23.1789 4.88281C26.534 5.12639 29.6801 6.67824 31.9215 9.2182C33.8012 11.3412 34.9148 14.0137 35.1236 16.8247L35.1443 17.1039H22.9V4.86257ZM23.42 5.42474V16.5841H34.5812C34.3299 13.9877 33.2733 11.5292 31.5321 9.56279C29.4432 7.19535 26.5349 5.72201 23.42 5.42474ZM4 21.2422C4 13.1065 10.6233 6.48446 18.7607 6.48446C19.4159 6.48446 19.9415 7.00999 19.9415 7.665V20.0617H32.3407C32.989 20.0617 33.5215 20.594 33.5215 21.2422C33.5215 29.378 26.8982 36 18.7607 36C10.6233 36 4 29.378 4 21.2422ZM18.7607 7.00433C10.9105 7.00433 4.51998 13.3936 4.51998 21.2422C4.51998 29.0909 10.9105 35.4801 18.7607 35.4801C26.611 35.4801 33.0015 29.0909 33.0015 21.2422C33.0015 20.8812 32.7019 20.5816 32.3407 20.5816H19.4215V7.665C19.4215 7.29711 19.1287 7.00433 18.7607 7.00433ZM18.0999 8.34044V21.2422C18.0999 21.6101 18.3928 21.9029 18.7607 21.9029H31.6651L31.6451 22.1815C31.1648 28.8699 25.5687 34.1588 18.7607 34.1588C11.6396 34.1588 5.84158 28.3619 5.84158 21.2422C5.84158 14.4357 11.1316 8.84066 17.8213 8.36044L18.0999 8.34044ZM17.58 8.90212C11.2927 9.49591 6.36156 14.805 6.36156 21.2422C6.36156 28.0748 11.9268 33.6389 18.7607 33.6389C25.1993 33.6389 30.5094 28.7088 31.1033 22.4228H18.7607C18.1056 22.4228 17.58 21.8972 17.58 21.2422V8.90212Z"
        fill-rule="evenodd" stroke="#B8B8D2"/>
</svg>
