<svg width="64" height="64" viewBox="0 0 64 64" fill="none" xmlns="http://www.w3.org/2000/svg">
<circle cx="32" cy="32" r="32" fill="#00BD85"/>
<path d="M36.3262 31.6191H28.2646C26.0359 31.6191 24.2227 33.4324 24.2227 35.6611V43.8451C24.2227 44.2915 24.5846 44.6535 25.031 44.6535H39.5597C40.0062 44.6535 40.3681 44.2916 40.3681 43.8451V35.6611C40.3681 33.4324 38.5549 31.6191 36.3262 31.6191Z" fill="white"/>
<path d="M32.1949 20.124C29.5146 20.124 27.334 22.3919 27.334 25.1796C27.334 27.0705 28.3374 28.7219 29.8194 29.5889C30.5223 30.0001 31.3326 30.2351 32.1949 30.2351C33.0573 30.2351 33.8676 30.0001 34.5705 29.5889C36.0525 28.7219 37.0559 27.0704 37.0559 25.1796C37.0559 22.392 34.8753 20.124 32.1949 20.124Z" fill="white"/>
</svg>
