<svg width="175" height="165" viewBox="0 0 175 165" fill="none" xmlns="http://www.w3.org/2000/svg">
<path d="M101.733 37.5623C105.175 33.6045 108.341 29.3754 111.17 25.0326C114.926 19.2748 118.216 13.2187 121.138 7C126.59 9.55906 132.038 12.1181 137.49 14.6717C131.88 26.6375 124.986 38.202 116.498 48.2919C116.888 48.6768 117.273 49.0618 117.647 49.4576C123.479 55.557 127.951 62.7408 131.057 70.9981C134.162 79.2608 135.712 88.0873 135.712 97.4832C135.712 106.879 134.162 115.689 131.057 123.909C127.951 132.133 123.479 139.274 117.647 145.335C111.815 151.397 104.709 156.19 96.3404 159.714C87.9717 163.238 78.5189 165 67.9875 165C57.4561 165 48.0305 163.26 39.6943 159.773C31.3635 156.287 24.301 151.494 18.5014 145.395C12.7073 139.296 8.25196 132.15 5.15163 123.968C2.04587 115.782 0.490234 106.955 0.490234 97.4832C0.490234 88.0114 2.04587 79.1415 5.15163 70.8842C8.25196 62.6269 12.7073 55.4432 18.5014 49.3437C24.301 43.2443 31.3798 38.4515 39.754 34.9653C48.1227 31.4791 57.5374 29.7387 67.9875 29.7387C78.5189 29.7387 87.9717 31.5008 96.3404 35.0249C98.1995 35.8056 99.999 36.6515 101.733 37.5623ZM103.468 61.4071C97.148 66.7366 90.1397 71.2692 82.3726 74.7445C68.6109 80.8982 52.5726 83.5006 38.4422 77.7969C34.1115 76.0511 30.1224 73.2264 27.163 69.6644C25.9326 71.9794 24.8647 74.4354 23.9541 77.0216C21.721 83.3867 20.6045 90.2072 20.6045 97.4832C20.6045 104.683 21.721 111.428 23.9541 117.717C26.1927 124.006 29.3905 129.52 33.5586 134.253C37.7267 138.992 42.7025 142.722 48.5021 145.449C54.2962 148.176 60.7895 149.543 67.9875 149.543C75.1855 149.543 81.7223 148.176 87.5923 145.449C93.4624 142.722 98.4597 138.992 102.59 134.253C106.72 129.52 109.902 124.006 112.135 117.717C114.373 111.428 115.49 104.683 115.49 97.4832C115.49 90.2072 114.373 83.3867 112.135 77.0216C110.064 71.1173 107.17 65.9125 103.468 61.4071ZM88.8823 49.8479C88.4541 49.6365 88.0259 49.4304 87.5923 49.2298C81.7223 46.5406 75.1855 45.1961 67.9875 45.1961C60.7895 45.1961 54.2962 46.5406 48.5021 49.2298C46.0467 50.3684 43.7432 51.6913 41.5805 53.1986C40.3122 54.8576 39.5968 56.6685 40.7946 58.1378C44.2147 62.3396 51.2176 63.0715 57.4996 62.7245C68.844 62.0902 79.4945 57.1672 88.8823 49.8479Z" fill="#DEE2E6"/>
<path fill-rule="evenodd" clip-rule="evenodd" d="M97.305 92.6722L96.1612 92.0005L95.6406 93.2208L95.2216 94.2035C93.5572 98.1118 90.2477 100.539 86.5851 100.539C82.9225 100.539 79.6135 98.1118 77.9491 94.2041L77.5307 93.2214L77.0107 92.0005L75.8663 92.6722L72.318 94.755L71.4327 95.275L71.8348 96.2193L72.2533 97.2014C74.9658 103.573 80.4574 107.531 86.5851 107.531C92.7122 107.531 98.2043 103.573 100.917 97.2014L101.336 96.2198L101.739 95.275L100.853 94.755L97.305 92.6722Z" fill="#DEE2E6"/>
<path fill-rule="evenodd" clip-rule="evenodd" d="M65.394 96.2194L65.7966 95.2745L64.9113 94.7551L61.3625 92.6717L60.2187 92.0006L59.6981 93.2203L59.2791 94.2031C57.6147 98.1114 54.3058 100.539 50.6431 100.539C46.9805 100.539 43.6716 98.1114 42.0072 94.2036L41.5882 93.2209L41.0682 92L39.9238 92.6717L36.3755 94.7551L35.4902 95.2745L35.8923 96.2194L36.3113 97.2015C39.0233 103.573 44.5155 107.531 50.6431 107.531C56.7703 107.531 62.2618 103.573 64.975 97.201L65.394 96.2194Z" fill="#DEE2E6"/>
<path fill-rule="evenodd" clip-rule="evenodd" d="M69.1982 127.843C66.1291 127.843 63.6412 130.332 63.6412 133.4C63.6412 136.469 66.1291 138.957 69.1982 138.957C72.2667 138.957 74.7545 136.469 74.7545 133.4C74.7545 130.332 72.2667 127.843 69.1982 127.843Z" fill="#DEE2E6"/>
<path opacity="0.5" fill-rule="evenodd" clip-rule="evenodd" d="M155.905 44H140.719V47.927H149.457L140.49 58.5302V61.6057H156.198V57.6793H146.938L155.905 47.0761V44Z" fill="#DEE2E6"/>
<path fill-rule="evenodd" clip-rule="evenodd" d="M147.492 29.8069L174.075 29.7958L174.072 23.1504L158.4 23.1563L173.569 5.20562L173.567 0L147.868 0.0105046L147.87 6.65643L162.658 6.65001L147.49 24.6012L147.492 29.8069Z" fill="#DEE2E6"/>
</svg>
