<svg width="50" height="50" viewBox="0 0 50 50" fill="none" xmlns="http://www.w3.org/2000/svg">
<path d="M24.5 43C34.7173 43 43 34.7173 43 24.5C43 14.2827 34.7173 6 24.5 6C14.2827 6 6 14.2827 6 24.5C6 34.7173 14.2827 43 24.5 43Z" fill="#FBD971"/>
<path d="M24.4994 37.7141C18.6701 37.7141 13.928 32.9719 13.928 27.1427C13.928 26.6555 14.3218 26.2617 14.8089 26.2617C15.2961 26.2617 15.6899 26.6555 15.6899 27.1427C15.6899 32.0002 19.6418 35.9522 24.4994 35.9522C29.357 35.9522 33.3089 32.0002 33.3089 27.1427C33.3089 26.6555 33.7027 26.2617 34.1899 26.2617C34.677 26.2617 35.0708 26.6555 35.0708 27.1427C35.0708 32.9719 30.3287 37.7141 24.4994 37.7141Z" fill="#AF8066"/>
<path d="M17.0113 21.8571C18.7142 21.8571 20.0946 20.4766 20.0946 18.7738C20.0946 17.0709 18.7142 15.6904 17.0113 15.6904C15.3084 15.6904 13.928 17.0709 13.928 18.7738C13.928 20.4766 15.3084 21.8571 17.0113 21.8571Z" fill="#AF8066"/>
<path d="M31.1073 21.8571C32.8101 21.8571 34.1906 20.4766 34.1906 18.7738C34.1906 17.0709 32.8101 15.6904 31.1073 15.6904C29.4044 15.6904 28.0239 17.0709 28.0239 18.7738C28.0239 20.4766 29.4044 21.8571 31.1073 21.8571Z" fill="#AF8066"/>
</svg>
