<svg width="11" height="13" viewBox="0 0 11 13" fill="none" xmlns="http://www.w3.org/2000/svg">
<path d="M1.3639 5.31739H9.6365C9.79655 5.31739 9.93508 5.25896 10.052 5.14199C10.1688 5.02505 10.2275 4.88658 10.2275 4.72654C10.2275 4.56649 10.1689 4.42809 10.052 4.31099L5.91567 0.174671C5.7988 0.0578649 5.66036 -0.000732422 5.50022 -0.000732422C5.34008 -0.000732422 5.20164 0.0578649 5.08467 0.174671L0.948353 4.31099C0.831385 4.42796 0.772949 4.56649 0.772949 4.72654C0.772949 4.88655 0.831385 5.02505 0.948353 5.14199C1.06545 5.25896 1.20389 5.31739 1.3639 5.31739Z" fill="#33334F"/>
<path d="M9.6365 7.68091H1.3639C1.20376 7.68091 1.06532 7.73938 0.948353 7.85621C0.831385 7.97318 0.772949 8.11162 0.772949 8.27167C0.772949 8.43171 0.831385 8.57025 0.948353 8.68715L5.08467 12.8234C5.20177 12.9404 5.34021 12.9989 5.50022 12.9989C5.66023 12.9989 5.7988 12.9404 5.91567 12.8234L10.052 8.68712C10.1688 8.57025 10.2275 8.43171 10.2275 8.27163C10.2275 8.11162 10.1689 7.97318 10.052 7.85618C9.93512 7.73925 9.79655 7.68091 9.6365 7.68091Z" fill="#33334F"/>
</svg>
