<svg width="80" height="80" viewBox="0 0 80 80" fill="none" xmlns="http://www.w3.org/2000/svg">
<circle cx="40.0017" cy="39.9998" r="31.1111" fill="#EB5757"/>
<g clip-path="url(#clip0_5616_231581)">
<path d="M39.6667 49.4495L49.9667 55.6662L47.2333 43.9495L56.3333 36.0662L44.35 35.0495L39.6667 23.9995L34.9833 35.0495L23 36.0662L32.1 43.9495L29.3667 55.6662L39.6667 49.4495Z" fill="white"/>
</g>
<path d="M72.2214 1.11133L74.022 5.97739L78.888 7.778L74.022 9.5786L72.2214 14.4447L70.4207 9.5786L65.5547 7.778L70.4207 5.97739L72.2214 1.11133Z" fill="#EB5757"/>
<path d="M14.4442 66.6665L15.937 70.7293L19.9998 72.2221L15.937 73.7148L14.4442 77.7776L12.9514 73.7148L8.88867 72.2221L12.9514 70.7293L14.4442 66.6665Z" fill="#EB5757"/>
<path d="M7.22287 4.44434L7.99833 7.55776L11.1118 8.33322L7.99833 9.10869L7.22287 12.2221L6.44741 9.10869L3.33398 8.33322L6.44741 7.55776L7.22287 4.44434Z" fill="#EB5757"/>
<defs>
<clipPath id="clip0_5616_231581">
<rect width="44.4444" height="44.4444" fill="white" transform="translate(17.7793 17.7773)"/>
</clipPath>
</defs>
</svg>
