<svg width="34" height="34" viewBox="0 0 34 34" fill="none" xmlns="http://www.w3.org/2000/svg">
<g style="mix-blend-mode:luminosity">
<path d="M30 1H4C2.343 1 1 2.343 1 4V30C1 31.657 2.343 33 4 33H30C31.657 33 33 31.657 33 30V4C33 2.343 31.657 1 30 1Z" fill="#CCD6DD"/>
<path d="M30 0H4C1.791 0 0 1.791 0 4V30C0 32.209 1.791 34 4 34H30C32.209 34 34 32.209 34 30V4C34 1.791 32.209 0 30 0ZM30 2C31.103 2 32 2.897 32 4V8H26V2H30ZM26 18H32V24H26V18ZM26 16V10H32V16H26ZM24 2V8H18V2H24ZM18 10H24V16H18V10ZM18 18H24V24H18V18ZM16 2V8H10V2H16ZM10 10H16V16H10V10ZM10 18H16V24H10V18ZM2 4C2 2.897 2.897 2 4 2H8V8H2V4ZM2 10H8V16H2V10ZM2 18H8V24H2V18ZM4 32C2.897 32 2 31.103 2 30V26H8V32H4ZM10 32V26H16V32H10ZM18 32V26H24V32H18ZM30 32H26V26H32V30C32 31.103 31.103 32 30 32Z" fill="#E1E8ED"/>
<path d="M12 32H6V15C6 13.896 6.896 13 8 13H10C11.104 13 12 13.896 12 15V32Z" fill="#5C913B"/>
<path d="M28 32H22V8C22 6.896 22.896 6 24 6H26C27.104 6 28 6.896 28 8V32Z" fill="#3B94D9"/>
<path d="M20 32H14V22C14 20.896 14.896 20 16 20H18C19.104 20 20 20.896 20 22V32Z" fill="#DD2E44"/>
</g>
</svg>
