<svg width="22" height="22" viewBox="0 0 22 22" fill="none" xmlns="http://www.w3.org/2000/svg">
<path d="M10.541 20.0004C15.2581 20.0004 19.082 16.1765 19.082 11.4594C19.082 10.008 18.7211 8.64234 18.0831 7.44613C18.0133 7.4561 17.9416 7.46008 17.8718 7.46008C17.8319 7.46008 17.79 7.45809 17.7482 7.4561L16.6616 7.37236L15.8801 8.15389C16.4762 9.11485 16.8211 10.2473 16.8211 11.4594C16.8211 14.9264 14.01 17.7375 10.543 17.7375C7.07596 17.7375 4.26284 14.9264 4.26284 11.4594C4.26284 7.9924 7.07394 5.1813 10.541 5.1813C11.7551 5.1813 12.8875 5.5262 13.8465 6.12232L14.5543 5.41456L14.4586 4.1685C14.4506 4.06882 14.4526 3.96913 14.4625 3.87144C13.2883 3.26337 11.9545 2.91846 10.539 2.91846C5.8239 2.91846 2 6.74236 2 11.4594C2 16.1765 5.82392 20.0004 10.541 20.0004Z"/>
<path d="M10.5406 9.25163C10.5965 9.25163 10.6523 9.25364 10.7081 9.25761L12.2851 7.6806L12.319 7.6467C11.7787 7.3935 11.1766 7.25195 10.5406 7.25195C8.21798 7.25195 6.33594 9.134 6.33594 11.4566C6.33594 13.7793 8.21798 15.6633 10.5406 15.6633C12.8633 15.6633 14.7453 13.7813 14.7453 11.4586C14.7453 10.8227 14.6037 10.2206 14.3506 9.68027L14.3167 9.71416L12.7396 11.2912C12.7437 11.347 12.7456 11.4028 12.7456 11.4586C12.7456 12.6768 11.7588 13.6657 10.5386 13.6657C9.3185 13.6657 8.33359 12.6767 8.33359 11.4586C8.33363 10.2405 9.3225 9.25163 10.5406 9.25163Z"/>
<path d="M19.3424 3.843L19.8488 3.33661C20.08 3.10534 20.08 2.73252 19.8488 2.50125L19.4979 2.14837C19.3822 2.03273 19.2307 1.97491 19.0812 1.97491C18.9317 1.97491 18.7781 2.03273 18.6645 2.14837L18.0844 2.72853L17.9647 1.18342C17.9568 1.06978 17.863 1 17.7654 1C17.7155 1 17.6657 1.01794 17.6258 1.05782L15.343 3.34059C15.1377 3.54594 15.032 3.83104 15.054 4.12212L15.0599 4.21184L15.1696 5.64131L14.3442 6.4667L12.8589 7.952L12.825 7.98589L11.3876 9.42336L10.7496 10.0613C10.6658 10.1451 10.614 10.2567 10.606 10.3743L10.5662 10.8748C10.5422 11.1659 10.7735 11.4131 11.0626 11.4131C11.0705 11.4131 11.0785 11.4131 11.0885 11.4131L11.6168 11.3871C11.7404 11.3811 11.8581 11.3293 11.9438 11.2416L12.5758 10.6096L14.0132 9.17214L14.0472 9.13825L15.5325 7.65295L16.4296 6.75579L17.7335 6.85547L17.7913 6.85946C17.8172 6.86145 17.8431 6.86145 17.8671 6.86145C18.1302 6.86145 18.3834 6.75778 18.5728 6.57037L20.8536 4.28959C20.9732 4.16997 20.8975 3.96262 20.728 3.95066L19.3424 3.843Z"/>
</svg>
