<svg fill="none" height="31" viewBox="0 0 25 31" width="25" xmlns="http://www.w3.org/2000/svg">
  <g opacity="0.4">
    <path
      d="M10.1863 4.62754C10.587 4.62754 10.9117 4.30277 10.9117 3.90215C10.9117 3.50153 10.587 3.17676 10.1863 3.17676C9.78571 3.17676 9.46094 3.50153 9.46094 3.90215C9.46094 4.30277 9.78571 4.62754 10.1863 4.62754Z"
      fill="#33334F" stroke="#33334F" stroke-width="0.4"/>
    <path
      d="M19.8438 6.80308C19.8438 5.73476 18.9778 4.8687 17.9094 4.8687H15.224C14.8658 4.47076 14.4057 4.16628 13.877 4.01419C13.4316 3.88616 13.0889 3.54341 12.9608 3.09808C12.6123 1.88637 11.4956 1 10.1718 1C8.84812 1 7.7315 1.88637 7.38307 3.09796C7.2548 3.54383 6.9112 3.88616 6.46533 4.01461C5.93724 4.16682 5.47753 4.47101 5.1196 4.8687H2.43438C1.366 4.8687 0.5 5.73476 0.5 6.80308V24.2125C0.5 25.2808 1.366 26.1468 2.43438 26.1468C6.87536 26.1468 12.3335 26.1468 17.9094 26.1468C18.9778 26.1468 19.8438 25.2808 19.8438 24.2125C19.8438 18.7189 19.8438 13.4584 19.8438 6.80308ZM5.33601 6.78755C5.34266 5.93727 5.91717 5.17923 6.73312 4.94408C7.50143 4.72272 8.09184 4.13249 8.31248 3.36539C8.54932 2.54206 9.31389 1.96719 10.1718 1.96719C11.0299 1.96719 11.7944 2.54206 12.0311 3.36539C12.2519 4.13297 12.842 4.72302 13.6095 4.94372C14.4327 5.1805 15.0077 5.94513 15.0077 6.80302V7.77021H5.33601V6.78755ZM17.9094 25.1796C12.7437 25.1796 7.58648 25.1796 2.43438 25.1796C1.90104 25.1796 1.46719 24.7457 1.46719 24.2125V6.80308C1.46719 6.2698 1.90104 5.83589 2.43438 5.83589H4.53451C4.42994 6.13161 4.37142 6.44903 4.36888 6.77993V8.73746H15.975V6.80308C15.975 6.46366 15.9151 6.13868 15.808 5.83589H17.9094C18.4427 5.83589 18.8766 6.2698 18.8766 6.80308C18.8766 9.56822 18.8765 22.5353 18.8767 24.2125C18.8766 24.7457 18.4428 25.1796 17.9094 25.1796Z"
      fill="#33334F" stroke="#33334F" stroke-width="0.4"/>
    <path
      d="M14.1922 12.7578L8.37901 18.571L5.81668 16.0087L5.13281 16.6926L8.37901 19.9388L14.8761 13.4417L14.1922 12.7578Z"
      fill="#33334F" stroke="#33334F" stroke-width="0.4"/>
    <circle cx="18.9951" cy="25.4854" fill="#F4F6F8" r="4.91466" stroke="#33334F" stroke-width="1.2"/>
    <path
      d="M21.2528 25.2211H19.4514V23.4196C19.4514 23.2207 19.29 23.0593 19.0911 23.0593C18.8922 23.0593 18.7308 23.2207 18.7308 23.4196V25.2211H16.9294C16.7305 25.2211 16.5691 25.3825 16.5691 25.5813C16.5691 25.7802 16.7305 25.9416 16.9294 25.9416H18.7308V27.7431C18.7308 27.9419 18.8922 28.1034 19.0911 28.1034C19.29 28.1034 19.4514 27.9419 19.4514 27.7431V25.9416H21.2528C21.4517 25.9416 21.6131 25.7802 21.6131 25.5813C21.6131 25.3825 21.4518 25.2211 21.2528 25.2211Z"
      fill="#33334F"/>
    <path clip-rule="evenodd"
          d="M18.6426 23.4196C18.6426 23.172 18.8435 22.9711 19.0911 22.9711C19.3387 22.9711 19.5396 23.172 19.5396 23.4196V25.1328H21.2528C21.5005 25.1328 21.7014 25.3338 21.7014 25.5813C21.7014 25.8289 21.5004 26.0299 21.2528 26.0299H19.5396V27.7431C19.5396 27.9907 19.3387 28.1916 19.0911 28.1916C18.8435 28.1916 18.6426 27.9907 18.6426 27.7431V26.0299H16.9294C16.6818 26.0299 16.4809 25.8289 16.4809 25.5813C16.4809 25.3337 16.6818 25.1328 16.9294 25.1328H18.6426V23.4196ZM19.0911 23.1476C18.941 23.1476 18.8191 23.2695 18.8191 23.4196V25.3093H16.9294C16.7792 25.3093 16.6573 25.4312 16.6573 25.5813C16.6573 25.7315 16.7792 25.8534 16.9294 25.8534H18.8191V27.7431C18.8191 27.8932 18.941 28.0151 19.0911 28.0151C19.2412 28.0151 19.3631 27.8932 19.3631 27.7431V25.8534H21.2528C21.403 25.8534 21.5249 25.7315 21.5249 25.5813C21.5249 25.4312 21.403 25.3093 21.2528 25.3093H19.3631V23.4196C19.3631 23.2695 19.2412 23.1476 19.0911 23.1476Z"
          fill="#33334F" fill-rule="evenodd"/>
    <path clip-rule="evenodd"
          d="M18.5426 23.4196C18.5426 23.1168 18.7883 22.8711 19.0911 22.8711C19.3939 22.8711 19.6396 23.1168 19.6396 23.4196V25.0328H21.2528C21.5557 25.0328 21.8014 25.2785 21.8014 25.5813C21.8014 25.8842 21.5557 26.1299 21.2528 26.1299H19.6396V27.7431C19.6396 28.0459 19.3939 28.2916 19.0911 28.2916C18.7883 28.2916 18.5426 28.0459 18.5426 27.7431V26.1299H16.9294C16.6265 26.1299 16.3809 25.8842 16.3809 25.5813C16.3809 25.2785 16.6265 25.0328 16.9294 25.0328H18.5426V23.4196ZM19.0911 23.2476C18.9962 23.2476 18.9191 23.3247 18.9191 23.4196V25.4093H16.9294C16.8345 25.4093 16.7573 25.4864 16.7573 25.5813C16.7573 25.6762 16.8345 25.7534 16.9294 25.7534H18.9191V27.7431C18.9191 27.838 18.9962 27.9151 19.0911 27.9151C19.186 27.9151 19.2631 27.838 19.2631 27.7431V25.7534H21.2528C21.3477 25.7534 21.4249 25.6762 21.4249 25.5813C21.4249 25.4864 21.3478 25.4093 21.2528 25.4093H19.2631V23.4196C19.2631 23.3247 19.186 23.2476 19.0911 23.2476Z"
          fill="#33334F" fill-rule="evenodd"/>
    <path
      d="M21.2528 25.2211H19.4514V23.4196C19.4514 23.2207 19.29 23.0593 19.0911 23.0593C18.8922 23.0593 18.7308 23.2207 18.7308 23.4196V25.2211H16.9294C16.7305 25.2211 16.5691 25.3825 16.5691 25.5813C16.5691 25.7802 16.7305 25.9416 16.9294 25.9416H18.7308V27.7431C18.7308 27.9419 18.8922 28.1034 19.0911 28.1034C19.29 28.1034 19.4514 27.9419 19.4514 27.7431V25.9416H21.2528C21.4517 25.9416 21.6131 25.7802 21.6131 25.5813C21.6131 25.3825 21.4518 25.2211 21.2528 25.2211Z"
      stroke="#33334F" stroke-width="0.2"/>
    <path clip-rule="evenodd"
          d="M18.6426 23.4196C18.6426 23.172 18.8435 22.9711 19.0911 22.9711C19.3387 22.9711 19.5396 23.172 19.5396 23.4196V25.1328H21.2528C21.5005 25.1328 21.7014 25.3338 21.7014 25.5813C21.7014 25.8289 21.5004 26.0299 21.2528 26.0299H19.5396V27.7431C19.5396 27.9907 19.3387 28.1916 19.0911 28.1916C18.8435 28.1916 18.6426 27.9907 18.6426 27.7431V26.0299H16.9294C16.6818 26.0299 16.4809 25.8289 16.4809 25.5813C16.4809 25.3337 16.6818 25.1328 16.9294 25.1328H18.6426V23.4196ZM19.0911 23.1476C18.941 23.1476 18.8191 23.2695 18.8191 23.4196V25.3093H16.9294C16.7792 25.3093 16.6573 25.4312 16.6573 25.5813C16.6573 25.7315 16.7792 25.8534 16.9294 25.8534H18.8191V27.7431C18.8191 27.8932 18.941 28.0151 19.0911 28.0151C19.2412 28.0151 19.3631 27.8932 19.3631 27.7431V25.8534H21.2528C21.403 25.8534 21.5249 25.7315 21.5249 25.5813C21.5249 25.4312 21.403 25.3093 21.2528 25.3093H19.3631V23.4196C19.3631 23.2695 19.2412 23.1476 19.0911 23.1476Z"
          fill-rule="evenodd" stroke="#33334F" stroke-width="0.2"/>
    <path clip-rule="evenodd"
          d="M18.5426 23.4196C18.5426 23.1168 18.7883 22.8711 19.0911 22.8711C19.3939 22.8711 19.6396 23.1168 19.6396 23.4196V25.0328H21.2528C21.5557 25.0328 21.8014 25.2785 21.8014 25.5813C21.8014 25.8842 21.5557 26.1299 21.2528 26.1299H19.6396V27.7431C19.6396 28.0459 19.3939 28.2916 19.0911 28.2916C18.7883 28.2916 18.5426 28.0459 18.5426 27.7431V26.1299H16.9294C16.6265 26.1299 16.3809 25.8842 16.3809 25.5813C16.3809 25.2785 16.6265 25.0328 16.9294 25.0328H18.5426V23.4196ZM19.0911 23.2476C18.9962 23.2476 18.9191 23.3247 18.9191 23.4196V25.4093H16.9294C16.8345 25.4093 16.7573 25.4864 16.7573 25.5813C16.7573 25.6762 16.8345 25.7534 16.9294 25.7534H18.9191V27.7431C18.9191 27.838 18.9962 27.9151 19.0911 27.9151C19.186 27.9151 19.2631 27.838 19.2631 27.7431V25.7534H21.2528C21.3477 25.7534 21.4249 25.6762 21.4249 25.5813C21.4249 25.4864 21.3478 25.4093 21.2528 25.4093H19.2631V23.4196C19.2631 23.3247 19.186 23.2476 19.0911 23.2476Z"
          fill-rule="evenodd" stroke="#33334F" stroke-width="0.2"/>
  </g>
</svg>
