<svg width="40" height="40" viewBox="0 0 40 40" fill="none" xmlns="http://www.w3.org/2000/svg">
<rect width="40" height="40" rx="20" fill="#DDEEFC"/>
<path d="M18.213 21.2957C16.6186 22.2163 16.0727 24.2552 16.9929 25.8492C17.9132 27.4431 19.9519 27.9898 21.5463 27.0692C23.1408 26.1487 23.6867 24.1098 22.7664 22.5158C21.8462 20.9219 19.807 20.3755 18.213 21.2957ZM20.9908 26.107C19.928 26.7206 18.5688 26.3564 17.9552 25.2936C17.3416 24.2308 17.7058 22.8716 18.7686 22.258C19.8314 21.6444 21.1906 22.0086 21.8042 23.0714C22.4178 24.1342 22.0536 25.4934 20.9908 26.107Z" fill="#3B88C3"/>
<path d="M10.9526 22.2949L10.9582 22.3046C10.5377 22.6885 10.627 23.712 11.1995 24.7036C11.772 25.6952 12.6138 26.2844 13.1562 26.1117L13.1621 26.1218L29.1853 21.9848L22.5506 10.4932L10.9526 22.2949Z" fill="#55ACEE"/>
<path d="M29.4477 21.8661C30.7763 21.0991 30.3609 17.8923 28.52 14.7037C26.679 11.5151 24.1096 9.55206 22.781 10.3191C21.4524 11.0862 21.8678 14.2929 23.7087 17.4815C25.5497 20.6701 28.1191 22.6332 29.4477 21.8661Z" fill="#226699"/>
</svg>
