<svg width="30" height="31" viewBox="0 0 30 31" fill="none" xmlns="http://www.w3.org/2000/svg">
<path d="M21.9551 7.16797L26.3428 11.5381L26.7818 11.0974C27.7651 10.1101 27.7619 8.51267 26.7746 7.52935L25.9621 6.72008C24.9748 5.73677 23.3774 5.73997 22.3941 6.72723L21.9551 7.16797Z" fill="#D3D3EA"/>
<path d="M25.4697 19.0596V12.2331L26.6116 10.9771V25.3697C26.6122 25.4086 26.6092 25.447 26.6019 25.4847C26.5952 25.5188 26.5854 25.5523 26.5726 25.5845C26.5452 25.6527 26.5051 25.7142 26.4527 25.7653C26.4326 25.786 26.4107 25.8049 26.3876 25.8213C26.3517 25.8463 26.3127 25.867 26.2726 25.8834C26.2285 25.9001 26.1826 25.9111 26.1361 25.9155H2.47137C2.42366 25.9112 2.37687 25.9 2.33174 25.8828C2.2654 25.856 2.20392 25.8158 2.1534 25.7647C2.1248 25.7355 2.10045 25.7038 2.07915 25.6691C2.06332 25.6424 2.04871 25.6131 2.03715 25.5833C2.01098 25.5158 1.9988 25.4427 2.00185 25.3697V11.1396H2V9.97459H2.00185V8.20336C1.9988 8.12971 2.01037 8.05667 2.03654 7.98789C2.06271 7.91911 2.10228 7.85703 2.15219 7.80468C2.20271 7.75233 2.26418 7.71094 2.33053 7.68295C2.39748 7.65616 2.4693 7.64277 2.54113 7.6446H20.9041C20.5183 8.03199 20.1163 8.44823 19.7909 8.8102H3.1431L3.14308 24.7541H25.4689V24.7525H25.4697V20.4869L25.4689 20.4863V19.059L25.4697 19.0596Z" fill="#6D6DA7"/>
<path d="M26.9046 6.44115C25.5097 5.04276 23.2412 5.04276 21.8462 6.44115L12.5719 15.712C12.4994 15.7845 12.4545 15.8778 12.4407 15.9779L11.7536 21.0674C11.7329 21.2124 11.7847 21.3574 11.8848 21.4575C11.9711 21.5439 12.092 21.5957 12.2128 21.5957C12.2335 21.5957 12.2542 21.5957 12.275 21.5922L15.3411 21.1779C15.5966 21.1433 15.7761 20.9085 15.7416 20.653C15.7071 20.3975 15.4723 20.218 15.2168 20.2525L12.7584 20.584L13.2383 17.0345L16.9743 20.7704C17.0606 20.8567 17.1814 20.9085 17.3023 20.9085C17.4231 20.9085 17.544 20.8602 17.6303 20.7704L26.9046 11.4996C27.5814 10.8228 27.9543 9.92507 27.9543 8.96863C27.9543 8.0122 27.5814 7.11446 26.9046 6.44115ZM22.0258 7.58059L23.583 9.13782L15.1201 17.6007L13.5629 16.0435L22.0258 7.58059ZM17.3057 19.7829L15.783 18.2602L24.2459 9.79731L25.7686 11.32L17.3057 19.7829ZM26.4178 10.6536L22.6922 6.928C23.1652 6.53783 23.7556 6.32376 24.3772 6.32376C25.085 6.32376 25.7479 6.59999 26.2486 7.09719C26.7493 7.5944 27.022 8.2608 27.022 8.96863C27.022 9.59359 26.8079 10.1806 26.4178 10.6536Z" fill="#6D6DA7"/>
<path fill-rule="evenodd" clip-rule="evenodd" d="M21.758 6.35287C23.2016 4.90585 25.5489 4.90581 26.9925 6.35275C27.6928 7.04948 28.0788 7.979 28.0788 8.96851C28.0788 9.95811 27.6927 10.8875 26.9927 11.5876L17.7191 20.8577C17.6083 20.9724 17.4549 21.0331 17.3022 21.0331C17.1469 21.0331 16.9947 20.9672 16.886 20.8584L13.328 17.3004L12.9037 20.4385L15.2 20.1288C15.524 20.0851 15.8213 20.3127 15.865 20.6362C15.9088 20.9602 15.6811 21.2576 15.3577 21.3013L12.2932 21.7154C12.2629 21.7202 12.2341 21.7202 12.2153 21.7202H12.2127C12.0574 21.7202 11.9053 21.6543 11.7965 21.5456C11.6698 21.4188 11.6037 21.2352 11.63 21.0501L12.317 15.9611C12.3344 15.835 12.3913 15.7161 12.4836 15.6238L21.758 6.35287ZM26.8163 6.52907C25.47 5.1795 23.2806 5.1795 21.9344 6.52907L12.6599 15.8C12.6073 15.8526 12.5743 15.9206 12.5641 15.9946L11.877 21.0839L11.8769 21.0849C11.8619 21.1896 11.8994 21.2959 11.9728 21.3693C12.0367 21.4332 12.1263 21.4709 12.2127 21.4709C12.2351 21.4709 12.2455 21.4706 12.2544 21.4691L12.2581 21.4685L15.3243 21.0542C15.5118 21.0289 15.6432 20.8566 15.618 20.6696C15.5926 20.4821 15.4204 20.3506 15.2334 20.3759L12.6128 20.7292L13.1484 16.7682L17.0623 20.6822C17.1262 20.7461 17.2157 20.7838 17.3022 20.7838C17.3907 20.7838 17.4786 20.7481 17.5403 20.6839L17.5421 20.6821L26.8164 11.4113C27.4698 10.7578 27.8295 9.89177 27.8295 8.96851C27.8295 8.04518 27.4695 7.17893 26.8163 6.52907ZM22.8798 6.93939L26.4062 10.4657C26.7242 10.0351 26.8973 9.51746 26.8973 8.96851C26.8973 8.29327 26.6373 7.6589 26.1606 7.18552C25.6831 6.71129 25.0517 6.44829 24.377 6.44829C23.8312 6.44829 23.3109 6.62141 22.8798 6.93939ZM22.6127 6.83172C23.1081 6.42317 23.7265 6.19898 24.377 6.19898C25.1181 6.19898 25.8125 6.48844 26.3363 7.00862C26.861 7.52966 27.1466 8.22808 27.1466 8.96851C27.1466 9.62257 26.9223 10.2376 26.5138 10.7328L26.4265 10.8387L22.5069 6.91902L22.6127 6.83172ZM22.0257 7.40418L23.7592 9.1377L15.12 17.7769L13.3865 16.0434L22.0257 7.40418ZM13.739 16.0434L15.12 17.4243L23.4066 9.1377L22.0257 7.75676L13.739 16.0434ZM24.2458 9.6209L25.9448 11.3199L17.3056 19.9591L15.6066 18.2601L24.2458 9.6209ZM15.9592 18.2601L17.3056 19.6065L25.5922 11.3199L24.2458 9.97348L15.9592 18.2601Z" fill="#6D6DA7"/>
<path fill-rule="evenodd" clip-rule="evenodd" d="M7.06619 11.5539C7.06619 11.2097 7.34524 10.9306 7.68947 10.9306L17.0594 10.9306C17.4037 10.9306 17.6827 11.2097 17.6827 11.5539C17.6827 11.8982 17.4037 12.1772 17.0594 12.1772L7.68947 12.1772C7.34524 12.1772 7.06619 11.8981 7.06619 11.5539Z" fill="#6D6DA7"/>
<path fill-rule="evenodd" clip-rule="evenodd" d="M8.57181 14.2869C8.57181 13.9426 8.85086 13.6636 9.19509 13.6636H14.4791C14.8233 13.6636 15.1023 13.9426 15.1023 14.2869C15.1023 14.6311 14.8233 14.9101 14.4791 14.9101H9.19509C8.85086 14.9101 8.57181 14.6311 8.57181 14.2869Z" fill="#6D6DA7"/>
<rect opacity="0.1" x="4.27734" y="10.0957" width="23.3205" height="16.8446" rx="1" fill="#6D6DA7"/>
</svg>
