<svg width="80" height="80" viewBox="0 0 80 80" fill="none" xmlns="http://www.w3.org/2000/svg">
<circle cx="40" cy="40" r="40" fill="white"/>
<path d="M14.592 53.827H28.4192V71.111H14.592V53.827ZM52.6167 53.827H66.4439V71.111H52.6167V53.827Z" fill="#FFDC5D"/>
<path d="M66.4439 58.5284C66.4439 58.5284 61.2587 61.9852 52.6167 60.2568V51.6149H66.4439V58.5284ZM14.592 58.5284C14.592 58.5284 19.7772 61.9852 28.4192 60.2568V51.6149H14.592V58.5284Z" fill="#F9CA55"/>
<path d="M16.2935 41.0441H30.1206V54.8712H16.2935V41.0441ZM50.9011 40.1799H64.7283V54.007H50.9011V40.1799Z" fill="#EF9645"/>
<path d="M10.0519 29.3445C10.0519 29.3445 10.0571 27.2272 12.1727 27.2324C14.2917 27.2393 14.2848 29.3566 14.2848 29.3566L14.2519 39.1808C14.589 39.0252 14.9415 38.8852 15.3114 38.7642L15.3546 25.1289C15.3546 25.1289 15.3615 23.0116 17.4754 23.0185C19.5909 23.0237 19.5857 25.1427 19.5857 25.1427L19.5494 37.9674C19.8934 37.9363 20.2477 37.9121 20.6038 37.8948L20.6522 23.0272C20.6522 23.0272 20.6574 20.9099 22.7746 20.9185C24.8919 20.9255 24.8833 23.0427 24.8833 23.0427L24.8349 37.9069C25.1978 37.9277 25.547 37.964 25.8961 37.9968L25.9393 24.1022C25.9393 24.1022 25.9462 21.985 28.0601 21.9936C30.1756 21.9988 30.167 24.1143 30.167 24.1143L30.1255 38.8074L30.1203 39.9845V41.0405C23.7702 41.025 19.5201 46.2983 19.5011 51.5906C19.5011 52.6484 20.5588 52.6553 20.5588 52.6553C20.5761 46.2983 24.8228 42.0862 31.1746 42.1052L34.2875 34.8667C34.2875 34.8667 34.9702 32.8635 36.9769 33.5497C38.9783 34.2272 38.2991 36.2339 38.2991 36.2339L36.7556 41.6005C36.1438 43.7334 35.5717 45.88 35.2709 48.0716C34.4102 54.2662 29.0815 59.0297 22.6554 59.0124C15.6467 58.983 9.9776 53.2827 10.0001 46.2741C10.0018 45.9042 10.0243 45.5516 10.0588 45.2198L10.0035 45.2129L10.0519 29.3445ZM70.9675 29.3445C70.9675 29.3445 70.9623 27.2272 68.8467 27.2324C66.7277 27.2393 66.7329 29.3566 66.7329 29.3566L66.7657 39.1808C66.4304 39.0252 66.0761 38.8852 65.708 38.7642L65.6648 25.1289C65.6648 25.1289 65.6578 23.0116 63.544 23.0185C61.4267 23.0237 61.4319 25.1427 61.4319 25.1427L61.4699 37.9674C61.1277 37.9363 60.7734 37.9121 60.4156 37.8948L60.369 23.0272C60.369 23.0272 60.362 20.9099 58.2448 20.9185C56.1275 20.9255 56.1361 23.0427 56.1361 23.0427L56.1845 37.9069C55.8215 37.9277 55.4724 37.964 55.1233 37.9968L55.0801 24.1022C55.0801 24.1022 55.0714 21.985 52.9576 21.9936C50.842 21.9988 50.8507 24.1143 50.8507 24.1143L50.8922 38.8074L50.8973 39.9845V41.0405C57.2475 41.025 61.4976 46.2983 61.5183 51.5906C61.5183 52.6484 60.4606 52.6553 60.4606 52.6553C60.4415 46.2983 56.1949 42.0862 49.8448 42.1052L46.7319 34.8667C46.7319 34.8667 46.0509 32.8635 44.0425 33.5497C42.0428 34.2272 42.7203 36.2339 42.7203 36.2339L44.2638 41.6005C44.8756 43.7334 45.4477 45.88 45.7485 48.0716C46.6092 54.2662 51.9361 59.0297 58.364 59.0124C65.3727 58.983 71.0435 53.2827 71.0193 46.2741C71.0176 45.9042 70.9951 45.5516 70.9606 45.2198L71.0159 45.2129L70.9675 29.3445Z" fill="#FFDC5D"/>
<path d="M50.0951 20.0509C49.727 20.0509 49.3537 19.9334 49.0408 19.6914C48.2838 19.1072 48.1455 18.0218 48.7297 17.2664L53.8786 10.6035C54.4576 9.8499 55.5465 9.70472 56.3018 10.2924C57.0588 10.8766 57.1971 11.962 56.6129 12.7173L51.464 19.3803C51.1253 19.821 50.6137 20.0509 50.0951 20.0509ZM31.0482 20.0509C30.5314 20.0509 30.0198 19.8193 29.6793 19.3785L24.5305 12.7173C23.948 11.962 24.088 10.8766 24.8433 10.2924C25.5986 9.7099 26.6823 9.84818 27.2682 10.6035L32.4171 17.2664C32.9996 18.0218 32.8613 19.1072 32.106 19.6914C31.7897 19.9351 31.4181 20.0509 31.0482 20.0509ZM40.5181 19.2593C39.564 19.2593 38.7897 18.485 38.7897 17.5309V10.6173C38.7897 9.66324 39.564 8.88892 40.5181 8.88892C41.4739 8.88892 42.2465 9.66324 42.2465 10.6173V17.5309C42.2465 18.485 41.4739 19.2593 40.5181 19.2593Z" fill="#5DADEC"/>
</svg>
