<svg width="16" height="16" viewBox="0 0 16 16" fill="none" xmlns="http://www.w3.org/2000/svg">
<path d="M8.7465 1.37335L5.05317 5.06669C4.8065 5.31335 4.6665 5.65335 4.6665 6.00669V12.6667C4.6665 13.4 5.2665 14 5.99984 14H11.9998C12.5332 14 13.0132 13.68 13.2265 13.1934L15.3998 8.12002C15.9598 6.80002 14.9932 5.33335 13.5598 5.33335H9.79317L10.4265 2.28002C10.4932 1.94669 10.3932 1.60669 10.1532 1.36669C9.75984 0.98002 9.13317 0.98002 8.7465 1.37335ZM1.99984 14C2.73317 14 3.33317 13.4 3.33317 12.6667V7.33335C3.33317 6.60002 2.73317 6.00002 1.99984 6.00002C1.2665 6.00002 0.666504 6.60002 0.666504 7.33335V12.6667C0.666504 13.4 1.2665 14 1.99984 14Z" fill="#ADADB9"/>
</svg>
