<svg width="24" height="24" viewBox="0 0 24 24" fill="none" xmlns="http://www.w3.org/2000/svg">
<ellipse cx="12" cy="12" rx="12" ry="12" fill="#1DA1F2"/>
<path fill-rule="evenodd" clip-rule="evenodd" d="M18 8.15432C17.5588 8.35031 17.0841 8.4823 16.5861 8.54189C17.0945 8.23712 17.4848 7.75475 17.6684 7.17999C17.1933 7.46237 16.6657 7.66676 16.1053 7.77755C15.6562 7.29918 15.0158 7 14.3082 7C12.9487 7 11.8464 8.10233 11.8464 9.46183C11.8464 9.65462 11.8684 9.84261 11.9104 10.023C9.86414 9.9206 8.05026 8.94027 6.83594 7.45077C6.62396 7.81434 6.50277 8.23712 6.50277 8.68829C6.50277 9.54223 6.93674 10.2958 7.59789 10.7374C7.19392 10.7246 6.81474 10.6138 6.48237 10.4294V10.4602C6.48237 11.6533 7.33151 12.648 8.45704 12.8748C8.25065 12.9308 8.03306 12.9612 7.80868 12.9612C7.64989 12.9612 7.4955 12.9456 7.34511 12.9168C7.65829 13.8947 8.56783 14.6067 9.64496 14.6267C8.80261 15.2866 7.74108 15.6806 6.58756 15.6806C6.38837 15.6806 6.19239 15.669 6 15.6458C7.08953 16.3442 8.38344 16.7521 9.77375 16.7521C14.3018 16.7521 16.7781 13.0008 16.7781 9.74781C16.7781 9.64102 16.7761 9.53463 16.7709 9.42944C17.2525 9.08146 17.67 8.64789 18 8.15432Z" fill="white"/>
</svg>
