<svg width="48" height="48" viewBox="0 0 48 48" fill="none" xmlns="http://www.w3.org/2000/svg">
<circle cx="24" cy="24" r="24" fill="#F4EDFF"/>
<path d="M13.0124 6.5069C13.0768 6.33278 13.3231 6.33278 13.3876 6.5069L13.8163 7.66553C13.8365 7.72028 13.8797 7.76344 13.9345 7.7837L15.0931 8.21243C15.2672 8.27686 15.2672 8.52314 15.0931 8.58757L13.9345 9.0163C13.8797 9.03656 13.8365 9.07972 13.8163 9.13447L13.3876 10.2931C13.3231 10.4672 13.0768 10.4672 13.0124 10.2931L12.5837 9.13447C12.5634 9.07972 12.5203 9.03656 12.4655 9.0163L11.3069 8.58757C11.1328 8.52314 11.1328 8.27686 11.3069 8.21243L12.4655 7.7837C12.5203 7.76344 12.5634 7.72028 12.5837 7.66553L13.0124 6.5069Z" fill="#B5A6D6" fill-opacity="0.5"/>
<path d="M14.1186 34.3604C14.2153 34.0993 14.5847 34.0993 14.6813 34.3604L15.3244 36.0984C15.3548 36.1805 15.4196 36.2453 15.5017 36.2756L17.2396 36.9187C17.5008 37.0154 17.5008 37.3848 17.2396 37.4815L15.5017 38.1246C15.4196 38.1549 15.3548 38.2197 15.3244 38.3018L14.6813 40.0397C14.5847 40.3009 14.2153 40.3009 14.1186 40.0397L13.4755 38.3018C13.4451 38.2197 13.3804 38.1549 13.2983 38.1246L11.5603 37.4815C11.2992 37.3848 11.2992 37.0154 11.5603 36.9187L13.2983 36.2756C13.3804 36.2453 13.4451 36.1805 13.4755 36.0984L14.1186 34.3604Z" fill="#B5A6D6" fill-opacity="0.5"/>
<path d="M34.5187 12.7602C34.6153 12.4991 34.9847 12.4991 35.0814 12.7602L35.7246 14.4982C35.7549 14.5803 35.8197 14.6451 35.9018 14.6755L37.6398 15.3186C37.9009 15.4153 37.9009 15.7847 37.6398 15.8814L35.9018 16.5245C35.8197 16.5549 35.7549 16.6197 35.7246 16.7018L35.0814 18.4398C34.9847 18.7009 34.6153 18.7009 34.5187 18.4398L33.8755 16.7018C33.8451 16.6197 33.7803 16.5549 33.6982 16.5245L31.9603 15.8814C31.6991 15.7847 31.6991 15.4153 31.9603 15.3186L33.6982 14.6755C33.7803 14.6451 33.8451 14.5803 33.8755 14.4982L34.5187 12.7602Z" fill="#B5A6D6" fill-opacity="0.5"/>
<path d="M22.6 36.5999H21.2L22.6 26.7999H17.7C16.888 26.7999 16.902 26.3519 17.168 25.8759C17.434 25.3999 17.238 25.7639 17.266 25.7079C19.072 22.5159 21.788 17.7559 25.4 11.3999H26.8L25.4 21.1999H30.3C30.986 21.1999 31.084 21.6619 30.958 21.9139L30.86 22.1239C25.344 31.7699 22.6 36.5999 22.6 36.5999Z" fill="#6447A6"/>
</svg>
