<svg width="7" height="9" viewBox="0 0 7 9" fill="none" xmlns="http://www.w3.org/2000/svg">
<g opacity="0.6">
<path d="M5.72727 2.01724C5.72727 3.13133 4.80132 4.03448 3.65909 4.03448C2.51687 4.03448 1.59091 3.13133 1.59091 2.01724C1.59091 0.90315 2.51687 0 3.65909 0C4.80132 0 5.72727 0.90315 5.72727 2.01724Z" fill="#858595"/>
<path d="M6.68182 6.82759C6.68182 8.02738 5.25727 9 3.5 9C1.74273 9 0.318182 8.02738 0.318182 6.82759C0.318182 5.62779 1.74273 4.65517 3.5 4.65517C5.25727 4.65517 6.68182 5.62779 6.68182 6.82759Z" fill="#858595"/>
<path d="M0 7.60345C0 7.19749 0.530841 7.20142 1.14903 7.29623C2.17663 7.45382 3.19531 7.31288 4.1376 6.87368C5.07989 6.43449 6.38027 6.05696 6.8516 6.9836C6.94659 7.17037 7 7.38083 7 7.60345C7 8.37474 6.35895 9 5.56818 9H1.43182C0.641047 9 0 8.37474 0 7.60345Z" fill="#858595"/>
<path d="M4.56629 7.39281C4.56629 8.69576 4.42073 7.61292 3.15978 7.61292C1.89884 7.61292 0 8.69576 0 7.39281C0 6.08987 1.34898 4.85222 2.60993 4.85222C3.87087 4.85222 4.56629 6.08987 4.56629 7.39281Z" fill="#858595"/>
<path d="M2.43371 7.39277C2.43371 8.69571 2.57927 7.61287 3.84021 7.61287C5.10116 7.61287 7 8.69571 7 7.39277C7 6.08982 5.65102 4.85217 4.39007 4.85217C3.12913 4.85217 2.43371 6.08982 2.43371 7.39277Z" fill="#858595"/>
</g>
</svg>
