<svg width="24" height="24" viewBox="0 0 24 24" fill="none" xmlns="http://www.w3.org/2000/svg">
<ellipse cx="12" cy="12" rx="12" ry="12" fill="#33334F"/>
<path d="M11.994 6C8.682 6 6 8.688 6 12C6 15.312 8.682 18 11.994 18C15.312 18 18 15.312 18 12C18 8.688 15.312 6 11.994 6ZM16.152 9.6H14.382C14.19 8.85 13.914 8.13 13.554 7.464C14.658 7.842 15.576 8.61 16.152 9.6ZM12 7.224C12.498 7.944 12.888 8.742 13.146 9.6H10.854C11.112 8.742 11.502 7.944 12 7.224ZM7.356 13.2C7.26 12.816 7.2 12.414 7.2 12C7.2 11.586 7.26 11.184 7.356 10.8H9.384C9.336 11.196 9.3 11.592 9.3 12C9.3 12.408 9.336 12.804 9.384 13.2H7.356ZM7.848 14.4H9.618C9.81 15.15 10.086 15.87 10.446 16.536C9.342 16.158 8.424 15.396 7.848 14.4ZM9.618 9.6H7.848C8.424 8.604 9.342 7.842 10.446 7.464C10.086 8.13 9.81 8.85 9.618 9.6ZM12 16.776C11.502 16.056 11.112 15.258 10.854 14.4H13.146C12.888 15.258 12.498 16.056 12 16.776ZM13.404 13.2H10.596C10.542 12.804 10.5 12.408 10.5 12C10.5 11.592 10.542 11.19 10.596 10.8H13.404C13.458 11.19 13.5 11.592 13.5 12C13.5 12.408 13.458 12.804 13.404 13.2ZM13.554 16.536C13.914 15.87 14.19 15.15 14.382 14.4H16.152C15.576 15.39 14.658 16.158 13.554 16.536ZM14.616 13.2C14.664 12.804 14.7 12.408 14.7 12C14.7 11.592 14.664 11.196 14.616 10.8H16.644C16.74 11.184 16.8 11.586 16.8 12C16.8 12.414 16.74 12.816 16.644 13.2H14.616Z" fill="white"/>
</svg>
