<svg width="24" height="24" viewBox="0 0 24 24" fill="none" xmlns="http://www.w3.org/2000/svg">
<ellipse cx="12" cy="12.0001" rx="12" ry="12" fill="#33334F"/>
<path d="M6.02832 18L6.87182 14.9185C6.35132 14.0165 6.07782 12.994 6.07832 11.9455C6.07982 8.6675 8.74732 6 12.0248 6C13.6153 6.0005 15.1083 6.62 16.2313 7.744C17.3538 8.868 17.9718 10.362 17.9713 11.951C17.9698 15.2295 15.3023 17.897 12.0248 17.897C11.0298 17.8965 10.0493 17.647 9.18082 17.173L6.02832 18ZM9.32682 16.0965C10.1648 16.594 10.9648 16.892 12.0228 16.8925C14.7468 16.8925 16.9658 14.6755 16.9673 11.95C16.9683 9.219 14.7598 7.005 12.0268 7.004C9.30082 7.004 7.08332 9.221 7.08232 11.946C7.08182 13.0585 7.40782 13.8915 7.95532 14.763L7.45582 16.587L9.32682 16.0965ZM15.0203 13.3645C14.9833 13.3025 14.8843 13.2655 14.7353 13.191C14.5868 13.1165 13.8563 12.757 13.7198 12.7075C13.5838 12.658 13.4848 12.633 13.3853 12.782C13.2863 12.9305 13.0013 13.2655 12.9148 13.3645C12.8283 13.4635 12.7413 13.476 12.5928 13.4015C12.4443 13.327 11.9653 13.1705 11.3978 12.664C10.9563 12.27 10.6578 11.7835 10.5713 11.6345C10.4848 11.486 10.5623 11.4055 10.6363 11.3315C10.7033 11.265 10.7848 11.158 10.8593 11.071C10.9348 10.985 10.9593 10.923 11.0093 10.8235C11.0588 10.7245 11.0343 10.6375 10.9968 10.563C10.9593 10.489 10.6623 9.7575 10.5388 9.46C10.4178 9.1705 10.2953 9.2095 10.2043 9.205L9.91932 9.2C9.82032 9.2 9.65932 9.237 9.52332 9.386C9.38732 9.535 9.00332 9.894 9.00332 10.6255C9.00332 11.357 9.53582 12.0635 9.60982 12.1625C9.68432 12.2615 10.6573 13.7625 12.1478 14.406C12.5023 14.559 12.7793 14.6505 12.9948 14.719C13.3508 14.832 13.6748 14.816 13.9308 14.778C14.2163 14.7355 14.8098 14.4185 14.9338 14.0715C15.0578 13.724 15.0578 13.4265 15.0203 13.3645Z" fill="white"/>
</svg>
