<svg width="24" height="24" viewBox="0 0 24 24" fill="none" xmlns="http://www.w3.org/2000/svg">
<ellipse cx="12" cy="12.0001" rx="12" ry="12" fill="#33334F"/>
<path fill-rule="evenodd" clip-rule="evenodd" d="M8.60451 8.15175C8.60451 8.77964 8.08738 9.28778 7.27868 9.28778C6.50149 9.28778 5.98436 8.77964 6.00036 8.15175C5.98436 7.49334 6.50147 7 7.29417 7C8.08737 7 8.58901 7.49334 8.60451 8.15175ZM6.06538 17.4989V10.1852H8.52399V17.4985L6.06538 17.4989Z" fill="white"/>
<path fill-rule="evenodd" clip-rule="evenodd" d="M10.4941 12.5194C10.4941 11.6071 10.4616 10.8294 10.4291 10.1863H12.5646L12.6782 11.1882H12.7267C13.0503 10.7245 13.859 10.0222 15.1693 10.0222C16.7867 10.0222 18 11.0093 18 13.1621V17.5H15.5414V13.4469C15.5414 12.5041 15.1858 11.8614 14.2961 11.8614C13.6164 11.8614 13.2123 12.2951 13.0508 12.7136C12.9858 12.8634 12.9537 13.0724 12.9537 13.2823V17.5H10.4951L10.4941 12.5194Z" fill="white"/>
</svg>
