<svg width="30" height="31" viewBox="0 0 30 31" fill="none" xmlns="http://www.w3.org/2000/svg">
<rect opacity="0.1" x="4.46289" y="7.05859" width="23.5423" height="18.2302" rx="1" fill="#6D6DA7"/>
<path opacity="0.4" d="M18.5029 15.6183L12.9243 19.2444L12.9243 11.9922L18.5029 15.6183Z" fill="#6D6DA7"/>
<path d="M2.0459 4.83398V24.1729H26.8181V4.83398H2.0459ZM25.7023 5.9497V23.0572H3.16162V5.9497H25.7023ZM3.16162 23.0572V24.1729H25.7023V23.0572H3.16162Z" fill="#6D6DA7"/>
<path d="M11.1842 19.1067C11.2679 19.1525 11.3605 19.1753 11.4525 19.1753C11.5568 19.1753 11.6606 19.1458 11.7521 19.0883L17.8885 15.1833C18.0492 15.0806 18.1468 14.9032 18.1468 14.7125C18.1468 14.5217 18.0492 14.3443 17.8885 14.2416L11.7521 10.3366C11.5791 10.2278 11.3633 10.2206 11.1836 10.3182C11.0057 10.4164 10.8947 10.6038 10.8947 10.8074V18.6175C10.8947 18.8211 11.0057 19.0085 11.1842 19.1067ZM12.0104 11.8233L16.5502 14.7125L12.0104 17.6016V11.8233Z" fill="#6D6DA7"/>
</svg>
