<svg width="17" height="16" viewBox="0 0 17 16" fill="none" xmlns="http://www.w3.org/2000/svg">
<path d="M8.50033 4.33335C10.3403 4.33335 11.8337 5.82668 11.8337 7.66668C11.8337 8.00668 11.767 8.33335 11.6737 8.64002L13.7137 10.68C14.6403 9.86002 15.3737 8.83335 15.8337 7.66002C14.6803 4.74002 11.8337 2.66668 8.50033 2.66668C7.65366 2.66668 6.84032 2.80002 6.07366 3.04668L7.52033 4.49335C7.83366 4.40002 8.16033 4.33335 8.50033 4.33335ZM2.30699 2.10668C2.04699 2.36668 2.04699 2.78668 2.30699 3.04668L3.62033 4.36002C2.54033 5.22002 1.68033 6.35335 1.16699 7.66668C2.32033 10.5933 5.16699 12.6667 8.50033 12.6667C9.51366 12.6667 10.4803 12.4667 11.3737 12.12L13.187 13.9333C13.447 14.1933 13.867 14.1933 14.127 13.9333C14.387 13.6733 14.387 13.2534 14.127 12.9934L3.25366 2.10668C2.99366 1.84668 2.56699 1.84668 2.30699 2.10668ZM8.50033 11C6.66033 11 5.16699 9.50668 5.16699 7.66668C5.16699 7.15335 5.28699 6.66668 5.49366 6.24002L6.54033 7.28668C6.52033 7.40668 6.50033 7.53335 6.50033 7.66668C6.50033 8.77335 7.39366 9.66668 8.50033 9.66668C8.63366 9.66668 8.75366 9.64668 8.88032 9.62002L9.92699 10.6667C9.49366 10.88 9.01366 11 8.50033 11ZM10.4803 7.44668C10.3803 6.51335 9.64699 5.78668 8.72032 5.68668L10.4803 7.44668Z" fill="#33334F"/>
</svg>
