<svg width="18" height="18" viewBox="0 0 18 18" fill="none" xmlns="http://www.w3.org/2000/svg">
<g clip-path="url(#clip0)">
<path d="M8.8628 6.14904L11.4395 8.72573L11.4518 8.59076C11.4518 7.23697 10.3516 6.13677 8.99777 6.13677L8.8628 6.14904Z" fill="#33334F"/>
<path d="M8.99795 4.50084C11.2556 4.50084 13.0879 6.33316 13.0879 8.59083C13.0879 9.11844 12.9816 9.6215 12.7976 10.0837L15.1902 12.4763C16.4254 11.4456 17.3988 10.1123 18 8.59083C16.5808 4.99984 13.092 2.45586 8.99799 2.45586C7.85278 2.45586 6.75669 2.66035 5.73829 3.02844L7.50516 4.79121C7.96727 4.61127 8.47034 4.50084 8.99795 4.50084Z" fill="#33334F"/>
<path d="M0.818227 2.27175L3.05546 4.50898C1.70577 5.5642 0.638281 6.96707 0.000244141 8.59077C1.41539 12.1818 4.90822 14.7257 8.99821 14.7257C10.2661 14.7257 11.4767 14.4803 12.5851 14.0345L15.3173 16.7707L16.3602 15.7319L1.86117 1.22881L0.818227 2.27175ZM5.34177 6.79119L6.60557 8.05499C6.56876 8.23088 6.54422 8.40672 6.54422 8.59077C6.54422 9.94456 7.64442 11.0448 8.99821 11.0448C9.18226 11.0448 9.35814 11.0202 9.52992 10.9834L10.7937 12.2472C10.2497 12.5171 9.64446 12.6808 8.99821 12.6808C6.74054 12.6808 4.90822 10.8484 4.90822 8.59077C4.90822 7.94456 5.07183 7.33923 5.34177 6.79119Z" fill="#33334F"/>
</g>
<defs>
<clipPath id="clip0">
<rect width="18" height="18" fill="white" transform="translate(0.000244141)"/>
</clipPath>
</defs>
</svg>
