<svg width="18" height="18" viewBox="0 0 18 18" fill="none" xmlns="http://www.w3.org/2000/svg">
<g clip-path="url(#clip0)">
<path d="M9.00024 2.86354C4.90933 2.86354 1.39115 5.3999 0.000244141 8.9999C1.39115 12.5999 4.90933 15.1363 9.00024 15.1363C13.0912 15.1363 16.6093 12.5999 18.0002 8.9999C16.6093 5.3999 13.0912 2.86354 9.00024 2.86354ZM9.00024 13.0908C6.70933 13.0908 4.90933 11.2908 4.90933 8.9999C4.90933 6.70899 6.70933 4.90899 9.00024 4.90899C11.2912 4.90899 13.0912 6.70899 13.0912 8.9999C13.0912 11.2908 11.2912 13.0908 9.00024 13.0908ZM9.00024 6.54536C7.60933 6.54536 6.5457 7.60899 6.5457 8.9999C6.5457 10.3908 7.60933 11.4544 9.00024 11.4544C10.3912 11.4544 11.4548 10.3908 11.4548 8.9999C11.4548 7.60899 10.3912 6.54536 9.00024 6.54536Z" fill="#33334F"/>
</g>
<defs>
<clipPath id="clip0">
<rect width="18" height="18" fill="white" transform="translate(0.000244141)"/>
</clipPath>
</defs>
</svg>
