<svg width="120" height="120" viewBox="0 0 120 120" fill="none" xmlns="http://www.w3.org/2000/svg">
<path d="M79.5728 14.1514H54.5436C54.5436 16.126 52.9426 17.727 50.968 17.727C48.9933 17.727 47.3924 16.126 47.3924 14.1514H22.3634C19.4013 14.1514 17 16.5527 17 19.5148V94.6019C17 97.564 19.4013 99.9653 22.3634 99.9653H79.5728C82.5348 99.9653 84.9362 97.564 84.9362 94.6019V19.5148C84.9362 16.5525 82.5348 14.1514 79.5728 14.1514Z" fill="#9B735A"/>
<path d="M83.1491 69.5729C82.5455 69.5729 81.9532 69.618 81.3613 69.6632V19.5148C81.3613 18.5275 80.5608 17.727 79.5735 17.727H70.6345C69.6473 17.727 68.8467 16.9264 68.8467 15.9392V14.1514H54.5443C54.5443 16.126 52.9434 17.727 50.9687 17.727C48.9941 17.727 47.3932 16.126 47.3932 14.1514H33.0908V15.9392C33.0908 16.9264 32.2902 17.727 31.303 17.727H22.364C21.3767 17.727 20.5762 18.5275 20.5762 19.5148V94.6019C20.5762 95.5891 21.3767 96.3897 22.364 96.3897H60.1896C60.3818 97.6151 60.6667 98.81 61.0404 99.9653H79.5733C82.5354 99.9653 84.9367 97.564 84.9367 94.6019V69.6632C84.3448 69.618 83.7525 69.5729 83.1491 69.5729Z" fill="#8C5F50"/>
<path d="M75.9981 92.8143H25.9399C24.9527 92.8143 24.1521 92.0137 24.1521 91.0265V23.0905C24.1521 22.1033 24.9527 21.3027 25.9399 21.3027H75.9981C76.9853 21.3027 77.7859 22.1033 77.7859 23.0905V91.0267C77.7859 92.0139 76.9853 92.8143 75.9981 92.8143Z" fill="#F1F4FB"/>
<path d="M77.7858 91.0262V70.2197C67.5403 72.6445 59.9078 81.8276 59.9078 92.814H75.998C76.9853 92.814 77.7858 92.0137 77.7858 91.0262Z" fill="#E4EAF8"/>
<path d="M67.0581 44.5434H49.1801C48.1919 44.5434 47.3923 43.7438 47.3923 42.7556C47.3923 41.7673 48.1919 40.9678 49.1801 40.9678H67.0581C68.0464 40.9678 68.8459 41.7673 68.8459 42.7556C68.8459 43.7438 68.0464 44.5434 67.0581 44.5434Z" fill="#7F8499"/>
<path d="M61.6947 37.392H49.1801C48.1919 37.392 47.3923 36.5925 47.3923 35.6042C47.3923 34.6159 48.1919 33.8164 49.1801 33.8164H61.6947C62.683 33.8164 63.4825 34.6159 63.4825 35.6042C63.4825 36.5925 62.683 37.392 61.6947 37.392Z" fill="#5B5D6E"/>
<path d="M67.0581 62.4213H49.1801C48.1919 62.4213 47.3923 61.6217 47.3923 60.6335C47.3923 59.6452 48.1919 58.8457 49.1801 58.8457H67.0581C68.0464 58.8457 68.8459 59.6452 68.8459 60.6335C68.8459 61.6217 68.0464 62.4213 67.0581 62.4213Z" fill="#7F8499"/>
<path d="M61.6947 55.2699H49.1801C48.1919 55.2699 47.3923 54.4704 47.3923 53.4821C47.3923 52.4939 48.1919 51.6943 49.1801 51.6943H61.6947C62.683 51.6943 63.4825 52.4939 63.4825 53.4821C63.4825 54.4704 62.683 55.2699 61.6947 55.2699Z" fill="#5B5D6E"/>
<path d="M67.0581 80.2992H49.1801C48.1919 80.2992 47.3923 79.4997 47.3923 78.5114C47.3923 77.5232 48.1919 76.7236 49.1801 76.7236H67.0581C68.0464 76.7236 68.8459 77.5232 68.8459 78.5114C68.8459 79.4995 68.0464 80.2992 67.0581 80.2992Z" fill="#7F8499"/>
<path d="M61.6947 73.1488H49.1801C48.1919 73.1488 47.3923 72.3493 47.3923 71.361C47.3923 70.3728 48.1919 69.5732 49.1801 69.5732H61.6947C62.683 69.5732 63.4825 70.3728 63.4825 71.361C63.4825 72.3493 62.683 73.1488 61.6947 73.1488Z" fill="#5B5D6E"/>
<path d="M61.695 10.5756H57.1276C55.8888 8.44705 53.6082 7 50.9682 7C48.3281 7 46.0475 8.44705 44.8087 10.5756H40.2414C38.2667 10.5756 36.6658 12.1763 36.6658 14.1512V21.3024C36.6658 22.2896 37.4663 23.0902 38.4536 23.0902H63.4827C64.47 23.0902 65.2705 22.2896 65.2705 21.3024V14.1512C65.2705 12.1763 63.6696 10.5756 61.695 10.5756ZM50.9682 16.8329C49.4871 16.8329 48.2865 15.6322 48.2865 14.1512C48.2865 12.6702 49.4871 11.4695 50.9682 11.4695C52.4492 11.4695 53.6499 12.6702 53.6499 14.1512C53.6499 15.6322 52.4492 16.8329 50.9682 16.8329Z" fill="#FFF082"/>
<path d="M38.4536 23.0902H63.4827C64.47 23.0902 65.2705 22.2897 65.2705 21.3024C65.2705 20.3152 64.47 19.5146 63.4827 19.5146H38.4536C37.4663 19.5146 36.6658 20.3152 36.6658 21.3024C36.6658 22.2897 37.4663 23.0902 38.4536 23.0902Z" fill="#FFDC64"/>
<path d="M83.1477 112.48C94.0088 112.48 102.814 103.675 102.814 92.8142C102.814 81.9531 94.0088 73.1484 83.1477 73.1484C72.2866 73.1484 63.4819 81.9531 63.4819 92.8142C63.4819 103.675 72.2866 112.48 83.1477 112.48Z" fill="#FFDC64"/>
<path d="M83.1484 108.904C92.0348 108.904 99.2386 101.7 99.2386 92.8138C99.2386 83.9275 92.0348 76.7236 83.1484 76.7236C74.262 76.7236 67.0582 83.9275 67.0582 92.8138C67.0582 101.7 74.262 108.904 83.1484 108.904Z" fill="white"/>
<path d="M38.4547 44.5432C41.4168 44.5432 43.8181 42.1419 43.8181 39.1798C43.8181 36.2177 41.4168 33.8164 38.4547 33.8164C35.4926 33.8164 33.0913 36.2177 33.0913 39.1798C33.0913 42.1419 35.4926 44.5432 38.4547 44.5432Z" fill="#FFDC64"/>
<path d="M38.4547 80.2991C41.4168 80.2991 43.8181 77.8978 43.8181 74.9357C43.8181 71.9735 41.4168 69.5723 38.4547 69.5723C35.4926 69.5723 33.0913 71.9735 33.0913 74.9357C33.0913 77.8978 35.4926 80.2991 38.4547 80.2991Z" fill="#FFDC64"/>
<path d="M38.4547 62.4211C41.4168 62.4211 43.8181 60.0199 43.8181 57.0577C43.8181 54.0956 41.4168 51.6943 38.4547 51.6943C35.4926 51.6943 33.0913 54.0956 33.0913 57.0577C33.0913 60.0199 35.4926 62.4211 38.4547 62.4211Z" fill="#FFDC64"/>
<path d="M63.5903 80.2992H67.0598C68.0481 80.2992 68.8476 79.4997 68.8476 78.5114C68.8476 77.5232 68.0481 76.7236 67.0598 76.7236H66.408C65.3542 77.8167 64.4148 79.0166 63.5903 80.2992Z" fill="#5B5D6E"/>
<path d="M86.1518 99.7458C81.165 98.8188 77.14 94.7916 76.2159 89.8044C75.9075 88.1404 75.9355 86.5265 76.2385 85.0114C76.4618 83.8946 75.1553 83.1291 74.3457 83.9296C71.6617 86.5842 70.1722 90.4412 70.7626 94.6315C71.5243 100.037 75.9258 104.439 81.3314 105.2C85.5218 105.791 89.3792 104.301 92.0337 101.617C92.8345 100.807 92.0687 99.5011 90.9523 99.7242C89.4346 100.028 87.818 100.055 86.1518 99.7458Z" fill="#E4EAF8"/>
<path d="M90.5983 102.051C90.1409 102.051 89.6833 101.877 89.3344 101.527L81.8846 94.0774C81.1862 93.379 81.1862 92.2476 81.8846 91.5492C82.583 90.8508 83.7145 90.8508 84.4129 91.5492L91.8626 98.9989C92.561 99.6973 92.561 100.829 91.8626 101.527C91.5132 101.877 91.0556 102.051 90.5983 102.051Z" fill="#5B5D6E"/>
<path d="M83.1486 94.6019C82.1614 94.6019 81.3608 93.8013 81.3608 92.8141V80.2995C81.3608 79.3123 82.1614 78.5117 83.1486 78.5117C84.1359 78.5117 84.9364 79.3123 84.9364 80.2995V92.8141C84.9364 93.8015 84.1359 94.6019 83.1486 94.6019Z" fill="#464655"/>
</svg>
