<svg width="33" height="33" viewBox="0 0 33 33" fill="none" xmlns="http://www.w3.org/2000/svg">
<circle cx="16.4746" cy="16.9375" r="16" fill="#FF9C28"/>
<path d="M16.4944 22.1799C15.4172 22.1799 14.5142 23.0366 14.5142 24.0587C14.5142 25.0808 15.4172 25.9375 16.4944 25.9375C17.532 25.9375 18.4746 25.0808 18.4271 24.1038C18.4746 23.0291 17.5796 22.1799 16.4944 22.1799Z" fill="white"/>
<path d="M16.0033 8.99054C15.0607 9.24606 14.4746 10.0577 14.4746 11.0422C14.5221 11.6359 14.5617 12.2371 14.6093 12.8308C14.7439 15.0929 14.8786 17.31 15.0132 19.5721C15.0607 20.3386 15.6865 20.8947 16.4944 20.8947C17.3023 20.8947 17.936 20.301 17.9756 19.527C17.9756 19.061 17.9756 18.6326 18.0231 18.1592C18.1103 16.7087 18.2053 15.2583 18.2924 13.8078C18.34 12.8684 18.4271 11.929 18.4746 10.9896C18.4746 10.6514 18.4271 10.3508 18.2924 10.0502C17.8885 9.20848 16.9459 8.78011 16.0033 8.99054Z" fill="white"/>
</svg>
