<svg width="81" height="80" viewBox="0 0 81 80" fill="none" xmlns="http://www.w3.org/2000/svg">
<circle cx="40.5" cy="40" r="40" fill="white"/>
<g filter="url(#filter0_d)">
<path d="M31.251 39.6261L31.269 39.7481L23.705 23.5201C23.133 22.2981 21.409 21.8921 19.855 22.6181L19.733 22.6741C18.373 23.3081 17.591 24.6001 17.805 25.7341C17.805 25.7341 15.255 23.4401 13.757 24.1401L13.637 24.1941C12.139 24.8941 11.391 26.4661 11.971 27.7081L13.037 30.0921C12.435 28.8041 10.657 28.3601 9.06705 29.1041L8.94305 29.1621C7.35305 29.9041 6.54905 31.5501 7.15105 32.8381L17.413 59.1381L31.001 59.5621L35.063 47.0621L31.251 39.6261ZM72.207 29.1641L72.083 29.1061C70.491 28.3621 68.713 28.8061 68.113 30.0941L69.179 27.7101C69.759 26.4681 69.011 24.8941 67.515 24.1961L67.395 24.1421C65.897 23.4421 64.213 23.8841 63.631 25.1261L63.345 25.7381C63.559 24.6041 62.779 23.3121 61.417 22.6781L61.293 22.6221C59.739 21.8961 58.015 22.3021 57.445 23.5261L49.903 39.7021L49.837 39.4741L45.795 48.5141L52.501 61.2981L64.891 52.3721L73.999 32.8401C74.601 31.5521 73.795 29.9061 72.207 29.1641Z" fill="#EF9645"/>
<path d="M76.1181 37.8916C76.1181 37.8916 77.4241 35.8056 75.2101 34.7756C72.9981 33.7456 72.2461 36.0896 72.2461 36.0896L67.4661 46.3736C67.1841 46.0456 66.0561 45.3416 65.7341 45.0316L72.3641 30.7596C72.3641 30.7596 73.6701 28.6736 71.4541 27.6436C69.2401 26.6156 68.4881 28.9576 68.4881 28.9576L62.2521 42.3796C61.9021 42.1816 60.9921 41.7256 60.6281 41.5336L67.8601 25.9716C67.8601 25.9716 69.1641 23.8856 66.9501 22.8556C64.7381 21.8256 63.9861 24.1696 63.9861 24.1696L56.7502 39.7296C56.3642 39.5736 55.1562 39.0596 54.7742 38.9216L61.5342 24.3776C61.5342 24.3776 62.8361 22.2916 60.6242 21.2616C58.4082 20.2316 57.6582 22.5756 57.6582 22.5756L50.5102 37.9536L49.9382 39.1876L49.6822 39.7396C56.3282 42.8276 58.6542 50.9716 56.0822 56.5076C55.5662 57.6156 53.7282 57.1076 53.7282 57.1076C56.8162 50.4656 54.4442 43.9756 47.8002 40.8896L48.0882 31.7996C48.0882 31.7996 48.3562 29.3736 45.9302 29.1036C43.5002 28.8356 43.2322 31.2636 43.2322 31.2636L42.2142 37.6296C41.8082 40.1536 41.3522 42.6796 40.5942 45.1216C38.4622 52.0156 41.6962 59.5976 48.4242 62.7276C55.7622 66.1376 64.4781 62.9516 67.8881 55.6156L68.4021 54.5036L76.1181 37.8916Z" fill="#FFDC5D"/>
<path d="M4.8837 37.8906C4.8837 37.8906 3.5757 35.8046 5.7897 34.7746C8.0037 33.7446 8.7537 36.0886 8.7537 36.0886L13.5337 46.3726C13.8157 46.0446 14.9437 45.3406 15.2657 45.0306L8.6357 30.7586C8.6357 30.7586 7.3277 28.6726 9.54569 27.6426C11.7557 26.6146 12.5097 28.9566 12.5097 28.9566L18.7477 42.3786C19.0977 42.1806 20.0077 41.7246 20.3717 41.5326L13.1417 25.9726C13.1417 25.9726 11.8357 23.8866 14.0517 22.8566C16.2657 21.8266 17.0177 24.1706 17.0177 24.1706L24.2537 39.7306C24.6397 39.5746 25.8477 39.0606 26.2297 38.9226L19.4697 24.3786C19.4697 24.3786 18.1677 22.2926 20.3797 21.2626C22.5937 20.2326 23.3457 22.5766 23.3457 22.5766L30.4937 37.9546L31.0657 39.1886L31.3217 39.7406C24.6757 42.8286 22.3497 50.9726 24.9217 56.5086C25.4377 57.6166 27.2757 57.1086 27.2757 57.1086C24.1877 50.4666 26.5597 43.9766 33.2017 40.8906L32.9157 31.8006C32.9157 31.8006 32.6477 29.3746 35.0717 29.1046C37.5017 28.8366 37.7717 31.2646 37.7717 31.2646L38.7877 37.6306C39.1937 40.1546 39.6517 42.6806 40.4097 45.1226C42.5437 52.0166 39.3057 59.5986 32.5777 62.7286C25.2397 66.1386 16.5237 62.9526 13.1137 55.6166L12.6017 54.5046L4.8837 37.8906Z" fill="#FFDC5D"/>
</g>
<defs>
<filter id="filter0_d" x="0.5" y="19" width="80" height="51.0963" filterUnits="userSpaceOnUse" color-interpolation-filters="sRGB">
<feFlood flood-opacity="0" result="BackgroundImageFix"/>
<feColorMatrix in="SourceAlpha" type="matrix" values="0 0 0 0 0 0 0 0 0 0 0 0 0 0 0 0 0 0 127 0" result="hardAlpha"/>
<feOffset dy="2"/>
<feGaussianBlur stdDeviation="2"/>
<feColorMatrix type="matrix" values="0 0 0 0 0.937255 0 0 0 0 0.588235 0 0 0 0 0.270588 0 0 0 0.2 0"/>
<feBlend mode="normal" in2="BackgroundImageFix" result="effect1_dropShadow"/>
<feBlend mode="normal" in="SourceGraphic" in2="effect1_dropShadow" result="shape"/>
</filter>
</defs>
</svg>
