<svg width="43" height="44" viewBox="0 0 43 44" fill="none" xmlns="http://www.w3.org/2000/svg">
<g filter="url(#filter0_d)">
<path d="M12.792 35.1979C15.4288 36.7904 18.5081 37.7 21.8039 37.7C31.4548 37.7 39.2999 29.8499 39.2999 20.2C39.2999 10.5501 31.4548 2.70001 21.8039 2.70001H21.7959C12.1451 2.70001 4.29993 10.548 4.29993 20.2C4.29993 23.7457 5.35951 27.0547 7.18448 29.8144L5.42981 35.0449L4.48798 37.8525L7.30867 36.9508L12.792 35.1979Z" fill="#43C553" stroke="#FAFAFA" stroke-width="3"/>
<path d="M31.1138 26.7941C30.7278 27.8841 29.1958 28.7881 27.9738 29.0521C27.1378 29.2301 26.0458 29.3721 22.3698 27.8481C17.6678 25.9001 14.6398 21.1221 14.4038 20.8121C14.1778 20.5021 12.5038 18.2821 12.5038 15.9861C12.5038 13.6901 13.6698 12.5721 14.1398 12.0921C14.5258 11.6981 15.1638 11.5181 15.7758 11.5181C15.9738 11.5181 16.1518 11.5281 16.3118 11.5361C16.7818 11.5561 17.0178 11.5841 17.3278 12.3261C17.7138 13.2561 18.6538 15.5521 18.7658 15.7881C18.8798 16.0241 18.9938 16.3441 18.8338 16.6541C18.6838 16.9741 18.5518 17.1161 18.3158 17.3881C18.0798 17.6601 17.8558 17.8681 17.6198 18.1601C17.4038 18.4141 17.1598 18.6861 17.4318 19.1561C17.7038 19.6161 18.6438 21.1501 20.0278 22.3821C21.8138 23.9721 23.2618 24.4801 23.7798 24.6961C24.1658 24.8561 24.6258 24.8181 24.9078 24.5181C25.2658 24.1321 25.7078 23.4921 26.1578 22.8621C26.4778 22.4101 26.8818 22.3541 27.3058 22.5141C27.7378 22.6641 30.0238 23.7941 30.4938 24.0281C30.9638 24.2641 31.2738 24.3761 31.3878 24.5741C31.4998 24.7721 31.4998 25.7021 31.1138 26.7941Z" fill="#FAFAFA"/>
</g>
<defs>
<filter id="filter0_d" x="-1" y="0" width="44" height="44" filterUnits="userSpaceOnUse" color-interpolation-filters="sRGB">
<feFlood flood-opacity="0" result="BackgroundImageFix"/>
<feColorMatrix in="SourceAlpha" type="matrix" values="0 0 0 0 0 0 0 0 0 0 0 0 0 0 0 0 0 0 127 0"/>
<feOffset dy="1"/>
<feGaussianBlur stdDeviation="1"/>
<feColorMatrix type="matrix" values="0 0 0 0 0 0 0 0 0 0 0 0 0 0 0 0 0 0 0.12 0"/>
<feBlend mode="normal" in2="BackgroundImageFix" result="effect1_dropShadow"/>
<feBlend mode="normal" in="SourceGraphic" in2="effect1_dropShadow" result="shape"/>
</filter>
</defs>
</svg>
