<svg width="21" height="20" viewBox="0 0 21 20" fill="none" xmlns="http://www.w3.org/2000/svg">
<path fill-rule="evenodd" clip-rule="evenodd" d="M10.414 0H10.419C15.9328 0 20.4165 4.48625 20.4165 10C20.4165 15.5138 15.9328 20 10.419 20C8.38525 20 6.49901 19.395 4.91775 18.3475L1.074 19.5763L2.32025 15.8613C1.1215 14.215 0.416504 12.1875 0.416504 10C0.416504 4.485 4.90025 0 10.414 0ZM14.2753 15.5326C15.039 15.3676 15.9965 14.8026 16.2378 14.1213C16.479 13.4388 16.479 12.8576 16.409 12.7338C16.3525 12.6356 16.2188 12.5713 16.0193 12.4752C15.9674 12.4502 15.9109 12.423 15.8503 12.3926C15.5565 12.2463 14.1278 11.5401 13.8578 11.4463C13.5928 11.3463 13.3403 11.3813 13.1403 11.6638C13.1022 11.7171 13.0643 11.7704 13.0265 11.8235C12.7853 12.1629 12.5525 12.4902 12.359 12.6988C12.1828 12.8863 11.8953 12.9101 11.654 12.8101C11.6277 12.7991 11.5976 12.7869 11.5638 12.7733C11.1818 12.619 10.3346 12.2768 9.30901 11.3638C8.44401 10.5938 7.85651 9.63506 7.68651 9.34756C7.5196 9.05915 7.66357 8.89003 7.79663 8.73373C7.7991 8.73084 7.80156 8.72795 7.80401 8.72506C7.8898 8.61892 7.97305 8.53053 8.05672 8.44171C8.1169 8.37781 8.1773 8.31369 8.23901 8.24256C8.24818 8.232 8.25709 8.22175 8.26577 8.21177C8.39681 8.0611 8.47484 7.97139 8.56276 7.78381C8.66276 7.59006 8.59151 7.39006 8.52026 7.24256C8.47124 7.13926 8.1684 6.40449 7.90843 5.77373C7.7972 5.50384 7.69381 5.25299 7.62151 5.07881C7.42776 4.61506 7.28026 4.59756 6.98651 4.58506C6.97752 4.58461 6.96843 4.58415 6.95925 4.58369C6.8664 4.57899 6.76413 4.57381 6.65151 4.57381C6.26901 4.57381 5.87026 4.68631 5.62901 4.93256C5.62058 4.94117 5.61179 4.95011 5.60268 4.95938C5.29404 5.27327 4.60651 5.97249 4.60651 7.36631C4.60651 8.76283 5.5974 10.1144 5.78073 10.3644C5.78579 10.3713 5.79023 10.3774 5.79401 10.3826C5.80504 10.3971 5.82584 10.4272 5.8561 10.471C6.23045 11.0131 8.0538 13.6536 10.7728 14.7801C13.0703 15.7326 13.7528 15.6438 14.2753 15.5326Z" fill="#36BA49"/>
</svg>
