<svg width="51" height="50" viewBox="0 0 51 50" fill="none" xmlns="http://www.w3.org/2000/svg">
<ellipse cx="25.536" cy="25" rx="25" ry="25" fill="#37C982"/>
<path d="M13.0954 37.5L14.8527 31.0802C13.7683 29.201 13.1985 27.0708 13.1996 24.8865C13.2027 18.0573 18.76 12.5 25.5881 12.5C28.9016 12.501 32.0121 13.7917 34.3517 16.1333C36.6902 18.475 37.9777 21.5875 37.9767 24.8979C37.9735 31.7281 32.4162 37.2854 25.5881 37.2854C23.5152 37.2844 21.4725 36.7646 19.6631 35.7771L13.0954 37.5ZM19.9673 33.5344C21.7131 34.5708 23.3798 35.1917 25.5839 35.1927C31.2589 35.1927 35.8819 30.574 35.885 24.8958C35.8871 19.2062 31.286 14.5937 25.5923 14.5917C19.9131 14.5917 15.2933 19.2104 15.2912 24.8875C15.2902 27.2052 15.9694 28.9406 17.11 30.7562L16.0694 34.5562L19.9673 33.5344ZM31.8287 27.8427C31.7516 27.7135 31.5454 27.6365 31.235 27.4812C30.9256 27.326 29.4037 26.5771 29.1194 26.474C28.836 26.3708 28.6298 26.3187 28.4225 26.6292C28.2162 26.9385 27.6225 27.6365 27.4423 27.8427C27.2621 28.049 27.0808 28.075 26.7714 27.9198C26.4621 27.7646 25.4641 27.4385 24.2819 26.3833C23.3621 25.5625 22.7402 24.549 22.56 24.2385C22.3798 23.9292 22.5412 23.7615 22.6954 23.6073C22.835 23.4688 23.0048 23.2458 23.16 23.0646C23.3173 22.8854 23.3683 22.7563 23.4725 22.549C23.5756 22.3427 23.5246 22.1615 23.4464 22.0063C23.3683 21.8521 22.7496 20.3281 22.4923 19.7083C22.2402 19.1052 21.985 19.1865 21.7954 19.1771L21.2016 19.1667C20.9954 19.1667 20.66 19.2437 20.3766 19.5542C20.0933 19.8646 19.2933 20.6125 19.2933 22.1365C19.2933 23.6604 20.4027 25.1323 20.5569 25.3385C20.7121 25.5448 22.7391 28.6719 25.8444 30.0125C26.5829 30.3312 27.16 30.5219 27.6089 30.6646C28.3506 30.9 29.0256 30.8667 29.5589 30.7875C30.1537 30.699 31.3902 30.0385 31.6485 29.3156C31.9069 28.5917 31.9069 27.9719 31.8287 27.8427Z" fill="white"/>
</svg>
