<svg width="20" height="20" viewBox="0 0 20 20" fill="none" xmlns="http://www.w3.org/2000/svg">
<g clip-path="url(#clip0_124:2516)">
<path d="M0.4646 19.5744L1.81104 14.6576C0.980499 13.2185 0.54364 11.5862 0.54425 9.91379C0.546387 4.68201 4.80389 0.425568 10.0355 0.425568C12.5743 0.426636 14.9572 1.41479 16.7492 3.20831C18.5411 5.00183 19.5276 7.38586 19.5266 9.92142C19.5244 15.153 15.2662 19.4101 10.0355 19.4101C10.0352 19.4101 10.0357 19.4101 10.0355 19.4101H10.0314C8.44296 19.4095 6.88229 19.0111 5.49603 18.255L0.4646 19.5744ZM5.72903 16.5373L6.01727 16.7081C7.22821 17.4268 8.61661 17.8069 10.0325 17.8076H10.0355C14.3834 17.8076 17.9222 14.2694 17.924 9.92081C17.9248 7.81342 17.1051 5.83176 15.6157 4.34113C14.1261 2.85049 12.1457 2.02911 10.0384 2.0282C5.68707 2.0282 2.14841 5.56595 2.14673 9.9144C2.14612 11.4046 2.56299 12.8557 3.35278 14.1115L3.54047 14.4099L2.74335 17.3201L5.72903 16.5373Z" fill="#33334F"/>
<path fill-rule="evenodd" clip-rule="evenodd" d="M1.81104 14.6576L0.4646 19.5744L5.49603 18.255C6.88229 19.0111 8.44296 19.4095 10.0314 19.4101H10.0355C15.2662 19.4101 19.5244 15.153 19.5266 9.92142C19.5276 7.38586 18.5411 5.00183 16.7492 3.20831C14.9572 1.41479 12.5743 0.426636 10.0355 0.425568C4.80389 0.425568 0.546387 4.68201 0.54425 9.91379C0.54364 11.5862 0.980499 13.2185 1.81104 14.6576ZM6.01727 16.7081L5.72903 16.5373L2.74335 17.3201L3.54047 14.4099L3.35278 14.1115C2.56299 12.8557 2.14612 11.4046 2.14673 9.9144C2.14841 5.56595 5.68707 2.0282 10.0384 2.0282C12.1457 2.02911 14.1261 2.85049 15.6157 4.34113C17.1051 5.83176 17.9248 7.81342 17.924 9.92081C17.9222 14.2694 14.3834 17.8076 10.0355 17.8076H10.0325C8.61661 17.8069 7.22821 17.4268 6.01727 16.7081ZM7.12964 5.53742C7.2987 5.54428 7.48578 5.55222 7.66339 5.94712C7.78426 6.21616 7.98746 6.71675 8.14998 7.11711C8.2708 7.41473 8.36913 7.65697 8.39444 7.70752C8.45364 7.82624 8.49316 7.96463 8.41412 8.12302C8.33508 8.2811 8.01327 8.70056 7.82147 8.93387C7.81124 8.94631 7.80075 8.95864 7.79024 8.97096C7.69138 9.08703 7.59228 9.20337 7.71725 9.41773C7.85565 9.65515 8.33172 10.4315 9.03668 11.06C9.79421 11.7355 10.4523 12.0212 10.7863 12.1662C10.8518 12.1946 10.9048 12.2176 10.9437 12.2371C11.1808 12.3558 11.3192 12.336 11.4576 12.1774C11.596 12.0194 12.0501 11.4853 12.2084 11.2482C12.3664 11.0107 12.5245 11.0501 12.742 11.1293C12.9594 11.2083 14.1253 11.7822 14.3625 11.9008C14.4086 11.9239 14.4518 11.9447 14.4919 11.9641C14.6574 12.044 14.7692 12.0979 14.817 12.1774C14.8764 12.2768 14.8764 12.7513 14.6786 13.3051C14.481 13.8588 13.5128 14.393 13.078 14.4325C13.0361 14.4363 12.9945 14.4412 12.9517 14.4463C12.5499 14.4935 12.0427 14.5532 10.2322 13.8391C8.00398 12.9603 6.53489 10.7824 6.23187 10.3331C6.20709 10.2964 6.19011 10.2712 6.18115 10.2592L6.17876 10.2561C6.05165 10.0863 5.21268 8.96585 5.21268 7.8064C5.21268 6.71412 5.74966 6.14157 5.99665 5.87822C6.01351 5.86025 6.02901 5.84372 6.04291 5.82855C6.26019 5.59128 6.51715 5.53177 6.67523 5.53177L6.69727 5.53177C6.84784 5.53176 6.99782 5.53174 7.12964 5.53742Z" fill="#3654FF"/>
</g>
<defs>
<clipPath id="clip0_124:2516">
<rect width="20" height="20" fill="white"/>
</clipPath>
</defs>
</svg>
