<svg width="88" height="88" viewBox="0 0 88 88" fill="none" xmlns="http://www.w3.org/2000/svg">
<ellipse opacity="0.2" cx="44.4316" cy="85.998" rx="21" ry="2" fill="#707084"/>
<rect x="22" width="43.7273" height="80" rx="5" fill="#707084"/>
<rect x="24.1819" y="6.54544" width="39.3636" height="63.2727" rx="1" fill="white"/>
<path d="M38.9927 47.5818C40.5476 48.5591 42.3796 49.12 44.3465 49.12C49.916 49.12 54.4441 44.5892 54.4441 39.02C54.4441 33.4508 49.916 28.92 44.3465 28.92H44.3417C38.7723 28.92 34.2441 33.4496 34.2441 39.02C34.2441 41.1358 34.8976 43.1047 36.0169 44.7286L34.9013 48.0542L34.5874 48.99L35.5276 48.6895L38.9927 47.5818Z" fill="#43C553" stroke="#FAFAFA"/>
<path d="M49.9319 42.9764C49.7003 43.6304 48.7811 44.1728 48.0479 44.3312C47.5463 44.438 46.8911 44.5232 44.6855 43.6088C41.8643 42.44 40.0475 39.5732 39.9059 39.3872C39.7703 39.2012 38.7659 37.8692 38.7659 36.4916C38.7659 35.114 39.4655 34.4432 39.7475 34.1552C39.9791 33.9188 40.3619 33.8108 40.7291 33.8108C40.8479 33.8108 40.9547 33.8168 41.0507 33.8216C41.3327 33.8336 41.4743 33.8504 41.6603 34.2956C41.8919 34.8536 42.4559 36.2312 42.5231 36.3728C42.5915 36.5144 42.6599 36.7064 42.5639 36.8924C42.4739 37.0844 42.3947 37.1696 42.2531 37.3328C42.1115 37.496 41.9771 37.6208 41.8355 37.796C41.7059 37.9484 41.5595 38.1116 41.7227 38.3936C41.8859 38.6696 42.4499 39.59 43.2803 40.3292C44.3519 41.2832 45.2207 41.588 45.5315 41.7176C45.7631 41.8136 46.0391 41.7908 46.2083 41.6108C46.4231 41.3792 46.6883 40.9952 46.9583 40.6172C47.1503 40.346 47.3927 40.3124 47.6471 40.4084C47.9063 40.4984 49.2779 41.1764 49.5599 41.3168C49.8419 41.4584 50.0279 41.5256 50.0963 41.6444C50.1635 41.7632 50.1635 42.3212 49.9319 42.9764Z" fill="#FAFAFA"/>
<rect x="40.5" y="2.5" width="7" height="1.5" rx="0.75" fill="#ADADB9"/>
<circle cx="43.7729" cy="74.9091" r="2.90909" fill="#ADADB9"/>
</svg>
