<svg width="36" height="36" viewBox="0 0 36 36" fill="none" xmlns="http://www.w3.org/2000/svg">
<path opacity="0.05" d="M17.0448 11.3351C10.2448 6.53506 7.21147 11.6684 6.5448 14.8351C0.944803 21.2351 5.87814 24.5017 9.0448 25.3351C8.71147 27.3351 9.5448 31.4351 15.5448 31.8351C21.5448 32.2351 23.7115 27.6684 24.0448 25.3351C25.7115 26.3351 29.5448 27.2351 31.5448 22.8351C34.0448 17.3351 30.5448 15.335 27.0448 13.835C25.5448 7.33504 19.0448 8.33507 17.0448 11.3351Z" fill="#33334F"/>
<path d="M15.8706 29.7539C12.208 29.7539 8.94613 27.4566 7.66011 24.0056C4.77081 23.2712 2.70445 20.6104 2.70445 17.5643C2.70445 15.3204 3.79743 13.2715 5.64058 12.0345C6.22398 8.86686 9.0022 6.50837 12.2031 6.50837C13.7403 6.50837 15.2109 7.04003 16.399 8.01527C17.6041 6.78984 19.2368 6.09678 20.9565 6.09678C23.9536 6.09678 26.5292 8.18027 27.2138 11.1021C30.168 11.7973 32.2759 14.4581 32.2759 17.5643C32.2759 21.2266 29.3348 24.2059 25.7194 24.2059C25.1719 24.2059 24.625 24.1343 24.0878 23.993C22.8078 27.4605 19.569 29.7539 15.8706 29.7539ZM12.2034 7.58678C9.44365 7.58678 7.05755 9.6728 6.65301 12.4393L6.61646 12.6888L6.40389 12.8203C4.75414 13.8423 3.76868 15.6156 3.76868 17.5643C3.76868 20.2024 5.61894 22.4955 8.16756 23.0167L8.46813 23.0782L8.56643 23.3719C9.62818 26.5442 12.5633 28.6752 15.8699 28.6752C19.2765 28.6752 22.2386 26.4615 23.2407 23.1673L23.4029 22.6342L23.9238 22.8169C24.5111 23.0232 25.1151 23.1274 25.7191 23.1274C28.7471 23.1274 31.2109 20.632 31.2109 17.5643C31.2109 14.8592 29.3021 12.5576 26.6722 12.0906L26.3057 12.0255L26.24 11.6546C25.7815 9.05918 23.5594 7.17519 20.9561 7.17519C19.3695 7.17519 17.8716 7.88263 16.8461 9.11562L16.4816 9.55381L16.0721 9.15875C15.021 8.14504 13.647 7.58678 12.2034 7.58678Z" fill="#33334F"/>
<path fill-rule="evenodd" clip-rule="evenodd" d="M10.3616 14.0418C10.3616 13.5913 10.7268 13.226 11.1773 13.226H17.2955C17.7461 13.226 18.1113 13.5913 18.1113 14.0418C18.1113 14.4923 17.7461 14.8576 17.2955 14.8576H11.1773C10.7268 14.8576 10.3616 14.4923 10.3616 14.0418ZM18.5192 14.0418C18.5192 13.5913 18.8844 13.226 19.335 13.226H20.3547C20.8052 13.226 21.1704 13.5913 21.1704 14.0418C21.1704 14.4923 20.8052 14.8576 20.3547 14.8576H19.335C18.8844 14.8576 18.5192 14.4923 18.5192 14.0418ZM10.3616 17.1009C10.3616 16.6504 10.7268 16.2852 11.1773 16.2852H24.4335C24.884 16.2852 25.2492 16.6504 25.2492 17.1009C25.2492 17.5515 24.884 17.9167 24.4335 17.9167H11.1773C10.7268 17.9167 10.3616 17.5515 10.3616 17.1009ZM10.3616 20.16C10.3616 19.7095 10.7268 19.3443 11.1773 19.3443H20.3547C20.8052 19.3443 21.1704 19.7095 21.1704 20.16C21.1704 20.6106 20.8052 20.9758 20.3547 20.9758H11.1773C10.7268 20.9758 10.3616 20.6106 10.3616 20.16Z" fill="#33334F"/>
<path fill-rule="evenodd" clip-rule="evenodd" d="M20.9565 6.3007C19.2922 6.3007 17.7116 6.97131 16.5444 8.15826L16.4137 8.29117L16.2696 8.1729C15.1176 7.22728 13.6927 6.7123 12.2031 6.7123C9.10297 6.7123 6.40717 8.99819 5.84116 12.0714L5.8256 12.156L5.75424 12.2038C3.96783 13.4027 2.9084 15.388 2.9084 17.5642C2.9084 20.5185 4.91276 23.0969 7.71036 23.808L7.81391 23.8343L7.85122 23.9344C9.10804 27.3069 12.2947 29.55 15.8706 29.55C19.4822 29.55 22.6456 27.3111 23.8965 23.9224L23.9606 23.7487L24.1397 23.7958C24.6603 23.9327 25.1897 24.0019 25.7195 24.0019C29.2197 24.0019 32.072 21.1164 32.072 17.5642C32.072 14.5514 30.0279 11.9738 27.1671 11.3006L27.044 11.2716L27.0152 11.1486C26.3518 8.31697 23.8569 6.3007 20.9565 6.3007ZM16.3845 7.74269C17.6136 6.55955 19.243 5.89282 20.9565 5.89282C24.0085 5.89282 26.6346 7.9856 27.3826 10.9334C30.3659 11.6944 32.4798 14.4076 32.4798 17.5642C32.4798 21.3367 29.4499 24.4098 25.7195 24.4098C25.2146 24.4098 24.7106 24.3509 24.2141 24.2346C22.8628 27.6852 19.5946 29.9579 15.8706 29.9579C12.1567 29.9579 8.8471 27.6502 7.50669 24.1762C4.5799 23.382 2.50052 20.666 2.50052 17.5642C2.50052 15.2817 3.59906 13.193 5.45607 11.9134C6.09018 8.69376 8.92992 6.30442 12.2031 6.30442C13.7265 6.30442 15.1864 6.81101 16.3845 7.74269ZM16.6893 8.98519C17.7531 7.70623 19.3082 6.97124 20.9561 6.97124C23.6602 6.97124 25.9655 8.92808 26.4409 11.6191L26.4817 11.8496L26.7079 11.8898C29.437 12.3743 31.4149 14.7622 31.4149 17.5642C31.4149 20.7421 28.8622 23.3314 25.7191 23.3314C25.0915 23.3314 24.4648 23.223 23.8564 23.0093M23.8564 23.0093L23.5361 22.897L23.4359 23.2267C22.408 26.6055 19.3677 28.8791 15.8699 28.8791C12.4742 28.8791 9.46219 26.6908 8.37305 23.4366L8.31207 23.2544L8.12671 23.2165C5.48123 22.6755 3.56475 20.2973 3.56475 17.5642C3.56475 15.5453 4.58647 13.7063 6.29651 12.6469L6.42844 12.5653L6.45123 12.4098C6.87015 9.54513 9.34044 7.38283 12.2034 7.38283C13.7005 7.38283 15.1251 7.96204 16.2137 9.01194L16.4653 9.25459L16.6893 8.98519M20.9561 7.37912C19.4309 7.37912 17.9902 8.059 17.0029 9.24601L16.4981 9.853L15.9306 9.30553C14.917 8.32803 13.5935 7.79071 12.2034 7.79071C9.54691 7.79071 7.245 9.80046 6.85482 12.4688L6.8045 12.8122L6.51131 12.9937C4.92183 13.9783 3.97263 15.6859 3.97263 17.5642C3.97263 20.1075 5.75667 22.3155 8.20844 22.8169L8.62422 22.9019L8.75984 23.3071C9.7942 26.3976 12.6523 28.4712 15.8699 28.4712C19.1854 28.4712 22.0692 26.3176 23.0456 23.108L23.2697 22.3714L23.9913 22.6244C24.5575 22.8233 25.1388 22.9235 25.7191 22.9235C28.632 22.9235 31.007 20.5218 31.007 17.5642C31.007 14.9562 29.1673 12.7407 26.6366 12.2914L26.1297 12.2014L26.0392 11.6901C25.5976 9.19031 23.4586 7.37912 20.9561 7.37912Z" fill="#33334F"/>
</svg>
