<svg width="17" height="16" viewBox="0 0 17 16" fill="none" xmlns="http://www.w3.org/2000/svg">
<path d="M15.6836 6.24919C15.6448 6.13126 15.5458 6.04609 15.4281 6.02969L10.8939 5.40071L8.78015 0.966388C8.67497 0.744277 8.32499 0.744277 8.2198 0.966388L6.10609 5.40074L1.57185 6.02972C1.45413 6.04609 1.35458 6.13129 1.3164 6.24922C1.27822 6.36716 1.30701 6.49753 1.39153 6.58598L4.71676 10.0657L3.81079 14.8073C3.78764 14.9305 3.83272 15.0556 3.92787 15.1323C4.02304 15.2083 4.152 15.2207 4.25783 15.1651L8.50031 12.9453L12.7428 15.1651C12.7873 15.188 12.8348 15.1998 12.8824 15.1998C12.9494 15.1998 13.017 15.1769 13.0727 15.1323C13.1673 15.0563 13.213 14.9305 13.1898 14.8074L12.2838 10.0657L15.6091 6.58601C15.6923 6.49818 15.7211 6.3678 15.6836 6.24919ZM8.81273 11.114C8.81273 11.2378 8.74573 11.3518 8.63993 11.4069L5.98714 12.7946C5.94267 12.8175 5.8951 12.8293 5.84688 12.8293C5.77988 12.8293 5.71226 12.8064 5.65656 12.7618C5.56202 12.6858 5.5163 12.56 5.53948 12.4369L6.0748 9.6346L4.07 7.536C3.98548 7.44755 3.95669 7.31718 3.99487 7.19924C4.0337 7.08131 4.1326 6.99614 4.25032 6.97974L6.92879 6.60825L8.21918 3.90229C8.28366 3.76602 8.42956 3.69526 8.57104 3.72932C8.71318 3.76405 8.81273 3.89639 8.81273 4.04839V11.114Z" fill="white"/>
</svg>
