<svg width="32" height="32" viewBox="0 0 32 32" fill="none" xmlns="http://www.w3.org/2000/svg">
<path d="M16 0C7.164 0 0 7.164 0 16C0 24.836 7.164 32 16 32C24.836 32 32 24.836 32 16C32 7.164 24.836 0 16 0ZM21.9213 22.5227C19.1187 22.7147 12.876 22.7147 10.0773 22.5227C7.04267 22.3147 6.68933 20.8293 6.66667 16C6.68933 11.1613 7.04667 9.68533 10.0773 9.47733C12.876 9.28533 19.12 9.28533 21.9213 9.47733C24.9573 9.68533 25.3093 11.1707 25.3333 16C25.3093 20.8387 24.9533 22.3147 21.9213 22.5227ZM13.3333 12.8773L19.8893 15.9947L13.3333 19.1227V12.8773Z" fill="#FF2D3D"/>
</svg>
