<svg width="24" height="24" viewBox="0 0 24 24" fill="none" xmlns="http://www.w3.org/2000/svg">
<path d="M12.1713 0C5.67062 0 0.400024 5.2706 0.400024 11.7713C0.400024 18.272 5.67062 23.5426 12.1713 23.5426C18.672 23.5426 23.9426 18.272 23.9426 11.7713C23.9426 5.2706 18.672 0 12.1713 0Z" fill="#47B9BC"/>
<path d="M12.2058 13.6279L11.3414 9.5231C11.2273 9.55837 11.1161 9.60076 11.0002 9.63079L7.64853 10.3366C7.46286 10.3757 7.34389 10.5581 7.38299 10.7438L7.45383 11.0801L6.44471 11.2927C6.25903 11.3318 6.14007 11.5142 6.17917 11.6998L6.60416 13.718C6.64326 13.9036 6.82568 14.0226 7.01136 13.9835L8.02048 13.771L8.09131 14.1073C8.13041 14.293 8.31284 14.4119 8.49851 14.3728L8.70236 14.3299L10.8136 17.6495C10.9418 17.848 11.1598 17.9658 11.3969 17.9636C11.4439 17.9636 11.49 17.9588 11.5344 17.9494C11.714 17.9116 11.8699 17.8043 11.9654 17.6507L12.6046 16.6794C12.7677 16.4294 12.7489 16.0968 12.5645 15.875L10.9601 13.8545L11.8535 13.6663C11.9703 13.6473 12.0885 13.6414 12.2058 13.6279Z" fill="white"/>
<path d="M16.1431 5.90765C16.1339 5.89763 16.1259 5.88949 16.1149 5.88057C16.068 5.84127 16.0135 5.8127 15.9516 5.80255C15.9494 5.8023 15.9475 5.79989 15.9454 5.79964C15.9382 5.79904 15.9329 5.80368 15.9257 5.80308C15.8936 5.80071 15.8612 5.79699 15.8276 5.80408C15.8047 5.80889 15.7863 5.82189 15.7651 5.83127C15.7529 5.83666 15.741 5.83988 15.729 5.84661C15.6751 5.87763 15.6322 5.9204 15.6018 5.97316C15.5997 5.97641 15.5958 5.97794 15.5937 5.98119C14.813 7.47549 13.5298 8.63513 11.9937 9.28459L12.8991 13.5838C14.5667 13.5587 16.2084 14.1016 17.5254 15.1542C17.5288 15.157 17.5338 15.1573 17.538 15.1607C17.5671 15.1819 17.6004 15.1967 17.635 15.2077C17.6464 15.2116 17.6563 15.2187 17.6674 15.2212C17.7136 15.2305 17.7617 15.2323 17.8108 15.2219C17.8492 15.2139 17.8855 15.1992 17.9204 15.1785C17.9223 15.1774 17.9231 15.1744 17.925 15.1733C17.9775 15.1391 18.016 15.0916 18.0429 15.0361C18.0487 15.0236 18.0528 15.0129 18.0578 14.9999C18.0792 14.9413 18.09 14.8793 18.0764 14.8147L16.2348 6.06959C16.2212 6.00501 16.1863 5.95265 16.1431 5.90765Z" fill="white"/>
</svg>
