<svg width="24" height="24" viewBox="0 0 24 24" fill="none" xmlns="http://www.w3.org/2000/svg">
<path d="M12.1713 0C5.67062 0 0.400024 5.2706 0.400024 11.7713C0.400024 18.272 5.67062 23.5426 12.1713 23.5426C18.672 23.5426 23.9426 18.272 23.9426 11.7713C23.9426 5.2706 18.672 0 12.1713 0Z" fill="#E63B3B"/>
<path d="M17.534 12.4112C17.4957 12.3195 17.4065 12.2597 17.3074 12.2597H14.6211V6.13084C14.6211 5.99552 14.5112 5.88568 14.3759 5.88568H10.4535C10.3181 5.88568 10.2083 5.99552 10.2083 6.13084V12.2597H7.51162C7.41258 12.2597 7.32334 12.3195 7.28509 12.4107C7.24733 12.5024 7.26793 12.6078 7.33805 12.6779L12.2289 17.5849C12.2749 17.631 12.3372 17.657 12.4024 17.657C12.4676 17.657 12.5299 17.631 12.576 17.5854L17.481 12.6784C17.5511 12.6083 17.5722 12.5029 17.534 12.4112Z" fill="white"/>
</svg>
