<svg width="24" height="24" viewBox="0 0 24 24" fill="none" xmlns="http://www.w3.org/2000/svg">
<path d="M12.1713 0C5.67062 0 0.400024 5.2706 0.400024 11.7713C0.400024 18.272 5.67062 23.5426 12.1713 23.5426C18.672 23.5426 23.9426 18.272 23.9426 11.7713C23.9426 5.2706 18.672 0 12.1713 0Z" fill="#47B9BC"/>
<path d="M7.28534 11.1313C7.32359 11.2229 7.41283 11.2828 7.51186 11.2828H10.1982V17.4116C10.1982 17.5469 10.3081 17.6567 10.4434 17.6567H14.3659C14.5012 17.6567 14.611 17.5469 14.611 17.4116V11.2827H17.3077C17.4067 11.2827 17.496 11.2229 17.5342 11.1317C17.572 11.04 17.5514 10.9346 17.4813 10.8645L12.5905 5.95751C12.5444 5.91143 12.4821 5.88544 12.4169 5.88544C12.3517 5.88544 12.2894 5.91143 12.2433 5.95703L7.3383 10.864C7.26817 10.9342 7.2471 11.0396 7.28534 11.1313Z" fill="white"/>
</svg>
