<svg width="25" height="24" viewBox="0 0 25 24" fill="none" xmlns="http://www.w3.org/2000/svg">
<circle cx="12.4" cy="12" r="12" fill="#2F86EB"/>
<rect x="8.65002" y="4.875" width="6.75" height="13.5" fill="white"/>
<path d="M19.8686 7.67057C19.0973 6.3492 18.0511 5.303 16.7297 4.53174C15.408 3.76053 13.9653 3.375 12.4003 3.375C10.8355 3.375 9.39229 3.76053 8.07089 4.53174C6.7494 5.30288 5.70319 6.34909 4.93189 7.67057C4.16055 8.99212 3.77502 10.4353 3.77502 12C3.77502 13.5648 4.16067 15.0077 4.93177 16.3294C5.70303 17.6507 6.74924 18.6969 8.07073 19.4683C9.39229 20.2394 10.8354 20.625 12.4001 20.625C13.9649 20.625 15.4081 20.2394 16.7296 19.4683C18.051 18.6972 19.0972 17.6507 19.8684 16.3294C20.6395 15.0078 21.025 13.5647 21.025 12C21.0251 10.4352 20.6395 8.99193 19.8686 7.67057ZM10.9627 5.5311C10.9627 5.42623 10.9964 5.34021 11.0638 5.27286C11.1312 5.20556 11.2174 5.17177 11.3221 5.17177H13.4785C13.5832 5.17177 13.6694 5.20556 13.7366 5.27286C13.8039 5.34021 13.8378 5.42623 13.8378 5.5311V7.32803C13.8378 7.43282 13.8039 7.51897 13.7366 7.58623C13.6694 7.65357 13.5833 7.68724 13.4785 7.68724H11.3221C11.2174 7.68724 11.1312 7.65357 11.0638 7.58623C10.9964 7.51901 10.9627 7.43282 10.9627 7.32803V5.5311ZM15.2752 17.3906C15.2752 17.4953 15.2412 17.5815 15.1741 17.6487C15.1071 17.7161 15.0209 17.7498 14.9159 17.7498H9.88454C9.77963 17.7498 9.6936 17.7161 9.62622 17.6487C9.55888 17.5815 9.52521 17.4954 9.52521 17.3905V15.5936C9.52521 15.4886 9.55888 15.4027 9.62622 15.3353C9.6936 15.2681 9.77975 15.2342 9.88454 15.2342H10.9627V11.6406H9.88454C9.77963 11.6406 9.69364 11.6069 9.62622 11.5395C9.55888 11.4722 9.52521 11.3861 9.52521 11.2812V9.48441C9.52521 9.37954 9.55888 9.29351 9.62622 9.22609C9.69368 9.15871 9.77983 9.12508 9.88454 9.12508H13.4785C13.5832 9.12508 13.6694 9.15871 13.7366 9.22609C13.8039 9.29351 13.8378 9.37954 13.8378 9.48441V15.2344H14.9157C15.0207 15.2344 15.1068 15.2681 15.1741 15.3354C15.2411 15.4027 15.275 15.4888 15.275 15.5937V17.3907H15.2752V17.3906Z" fill="#2F86EB"/>
</svg>
