<svg width="24" height="24" viewBox="0 0 24 24" fill="none" xmlns="http://www.w3.org/2000/svg">
<circle cx="12.1713" cy="11.7713" r="11.7713" fill="#FF9C28"/>
<path d="M12.1857 15.6279C11.3932 15.6279 10.7289 16.2582 10.7289 17.0102C10.7289 17.7621 11.3932 18.3924 12.1857 18.3924C12.9491 18.3924 13.6426 17.7621 13.6076 17.0434C13.6426 16.2527 12.9841 15.6279 12.1857 15.6279Z" fill="white"/>
<path d="M11.8244 5.92446C11.131 6.11245 10.6997 6.70958 10.6997 7.43389C10.7347 7.87068 10.7638 8.313 10.7988 8.7498C10.8979 10.414 10.9969 12.0451 11.096 13.7093C11.131 14.2733 11.5913 14.6825 12.1857 14.6825C12.7801 14.6825 13.2463 14.2457 13.2754 13.6762C13.2754 13.3334 13.2754 13.0182 13.3104 12.6699C13.3745 11.6028 13.4444 10.5357 13.5085 9.46857C13.5435 8.77744 13.6076 8.08631 13.6426 7.39518C13.6426 7.14638 13.6076 6.92522 13.5085 6.70405C13.2113 6.0848 12.5179 5.76965 11.8244 5.92446Z" fill="white"/>
</svg>
