<svg width="56" height="57" viewBox="0 0 56 57" fill="none"
     xmlns="http://www.w3.org/2000/svg">
  <rect y="0.5" width="56" height="56" rx="8" fill="#507CEE"
        fill-opacity="0.1"/>
  <path d="M28 29.625C30.445 29.625 32.605 30.21 34.36 30.975C35.98 31.695 37 33.315 37 35.07V37.5H19V35.085C19 33.315 20.02 31.695 21.64 30.99C23.395 30.21 25.555 29.625 28 29.625ZM16 30C17.65 30 19 28.65 19 27C19 25.35 17.65 24 16 24C14.35 24 13 25.35 13 27C13 28.65 14.35 30 16 30ZM17.695 31.65C17.14 31.56 16.585 31.5 16 31.5C14.515 31.5 13.105 31.815 11.83 32.37C10.72 32.85 10 33.93 10 35.145V37.5H16.75V35.085C16.75 33.84 17.095 32.67 17.695 31.65ZM40 30C41.65 30 43 28.65 43 27C43 25.35 41.65 24 40 24C38.35 24 37 25.35 37 27C37 28.65 38.35 30 40 30ZM46 35.145C46 33.93 45.28 32.85 44.17 32.37C42.895 31.815 41.485 31.5 40 31.5C39.415 31.5 38.86 31.56 38.305 31.65C38.905 32.67 39.25 33.84 39.25 35.085V37.5H46V35.145ZM28 19.5C30.49 19.5 32.5 21.51 32.5 24C32.5 26.49 30.49 28.5 28 28.5C25.51 28.5 23.5 26.49 23.5 24C23.5 21.51 25.51 19.5 28 19.5Z"
        fill="#507CEE"/>
</svg>
