<svg width="56" height="57" viewBox="0 0 56 57" fill="none"
     xmlns="http://www.w3.org/2000/svg">
  <rect y="0.5" width="56" height="56" rx="8" fill="#EEF2FD"/>
  <path d="M42.115 27.87L28.615 14.37C28.075 13.83 27.325 13.5 26.5 13.5H16C14.35 13.5 13 14.85 13 16.5V27C13 27.825 13.33 28.575 13.885 29.13L27.385 42.63C27.925 43.17 28.675 43.5 29.5 43.5C30.325 43.5 31.075 43.17 31.615 42.615L42.115 32.115C42.67 31.575 43 30.825 43 30C43 29.175 42.655 28.41 42.115 27.87ZM18.25 21C17.005 21 16 19.995 16 18.75C16 17.505 17.005 16.5 18.25 16.5C19.495 16.5 20.5 17.505 20.5 18.75C20.5 19.995 19.495 21 18.25 21ZM35.905 33.405L30.025 39.285C29.725 39.585 29.26 39.585 28.96 39.285L23.08 33.405C22.225 32.535 21.775 31.26 22.075 29.895C22.36 28.575 23.41 27.48 24.715 27.135C26.125 26.76 27.49 27.195 28.375 28.11L29.5 29.19L30.595 28.095C31.27 27.42 32.215 27 33.25 27C35.32 27 37 28.68 37 30.75C37 31.785 36.58 32.73 35.905 33.405Z"
        fill="#507CEE"/>
</svg>
