<svg width="56" height="57" viewBox="0 0 56 57" fill="none"
     xmlns="http://www.w3.org/2000/svg">
  <rect y="0.5" width="56" height="56" rx="8" fill="#EEF2FD"/>
  <g clip-path="url(#clip0)">
    <path d="M25.09 18.0001H18.73L19.72 13.2301C19.84 12.6751 19.66 12.1051 19.27 11.7001C18.61 11.0401 17.545 11.0401 16.9 11.7001L10.9 17.7001C10.315 18.2551 10 19.0201 10 19.8151V28.5001C10 30.1501 11.35 31.5001 13 31.5001H21.88C23.08 31.5001 24.16 30.7801 24.64 29.6851L27.85 22.1851C28.69 20.2051 27.235 18.0001 25.09 18.0001ZM43 25.5001H34.12C32.92 25.5001 31.84 26.2201 31.36 27.3151L28.15 34.8151C27.31 36.7951 28.75 39.0001 30.91 39.0001H37.27L36.28 43.7701C36.16 44.3251 36.34 44.8951 36.73 45.3001C37.39 45.9601 38.455 45.9601 39.1 45.3001L45.1 39.3001C45.67 38.7301 45.985 37.9801 45.985 37.1851V28.5001C46 26.8501 44.65 25.5001 43 25.5001Z"
          fill="#507CEE"/>
  </g>
  <defs>
    <clipPath id="clip0">
      <rect width="36" height="36" fill="white" transform="translate(10 10.5)"/>
    </clipPath>
  </defs>
</svg>
