<svg width="56" height="57" viewBox="0 0 56 57" fill="none"
     xmlns="http://www.w3.org/2000/svg">
  <rect y="0.5" width="56" height="56" rx="8" fill="#EEF2FD"/>
  <path d="M28 19.5C29.6569 19.5 31 18.1569 31 16.5C31 14.8431 29.6569 13.5 28 13.5C26.3431 13.5 25 14.8431 25 16.5C25 18.1569 26.3431 19.5 28 19.5Z"
        fill="#507CEE"/>
  <path d="M33.835 22.665C33.25 22.08 32.245 21 30.295 21C29.98 21 28.165 21 26.485 21C22.36 20.985 19 17.625 19 13.5H16C16 18.24 19.165 22.26 23.5 23.565V43.5H26.5V34.5H29.5V43.5H32.5V25.575L38.425 31.5L40.54 29.385L33.835 22.665Z"
        fill="#507CEE"/>
</svg>
