<svg width="56" height="57" viewBox="0 0 56 57" fill="none"
     xmlns="http://www.w3.org/2000/svg">
  <rect y="0.5" width="56" height="56" rx="8" fill="#EEF2FD"/>
  <path d="M37 36H19V33H37V36ZM37 30H19V27H37V30ZM37 24H19V21H37V24ZM14.5 43.5L16.75 41.25L19 43.5L21.25 41.25L23.5 43.5L25.75 41.25L28 43.5L30.25 41.25L32.5 43.5L34.75 41.25L37 43.5L39.25 41.25L41.5 43.5V13.5L39.25 15.75L37 13.5L34.75 15.75L32.5 13.5L30.25 15.75L28 13.5L25.75 15.75L23.5 13.5L21.25 15.75L19 13.5L16.75 15.75L14.5 13.5V43.5Z"
        fill="#507CEE"/>
</svg>
