<svg width="16" height="16" viewBox="0 0 16 16" fill="none"
     xmlns="http://www.w3.org/2000/svg">
  <path d="M7.99301 1.33301C4.31301 1.33301 1.33301 4.31967 1.33301 7.99967C1.33301 11.6797 4.31301 14.6663 7.99301 14.6663C11.6797 14.6663 14.6663 11.6797 14.6663 7.99967C14.6663 4.31967 11.6797 1.33301 7.99301 1.33301ZM10.1463 11.593L7.99967 10.2997L5.85301 11.593C5.59967 11.7463 5.28634 11.5197 5.35301 11.233L5.91967 8.79301L4.03301 7.15967C3.81301 6.96634 3.93301 6.59967 4.22634 6.57301L6.71967 6.35967L7.69301 4.05967C7.80634 3.78634 8.19301 3.78634 8.30634 4.05967L9.27967 6.35301L11.773 6.56634C12.0663 6.59301 12.1863 6.95967 11.9597 7.15301L10.073 8.78634L10.6397 11.233C10.7063 11.5197 10.3997 11.7463 10.1463 11.593Z"
        fill="#9999A7"/>
</svg>
