<svg width="40" height="40" viewBox="0 0 40 40" fill="none"
     xmlns="http://www.w3.org/2000/svg">
  <path d="M38 34C38 36.209 36.209 38 34 38H6C3.791 38 2 36.209 2 34V25C2 22.791 2.791 22 5 22H35C37.209 22 38 22.791 38 25V34Z"
        fill="#D99E82"/>
  <path d="M27 22C27 25.866 23.866 29 20 29C16.134 29 13 25.866 13 22H27Z"
        fill="#662113"/>
  <path d="M6 38H34C36.209 38 38 36.209 38 34H2C2 36.209 3.791 38 6 38Z"
        fill="#C1694F"/>
  <path d="M28.7162 10H23.9332V4C23.9332 2.895 23.0372 2 21.9332 2H17.9322C16.8282 2 15.9332 2.896 15.9332 4V10H11.1482C9.92519 10 9.63219 10.623 10.4972 11.489L18.3602 19.352C19.2252 20.217 20.6402 20.217 21.5062 19.352L29.3692 11.489C30.2322 10.623 29.9402 10 28.7162 10Z"
        fill="#77B255"/>
</svg>
