<svg width="40" height="40" viewBox="0 0 40 40" fill="none"
     xmlns="http://www.w3.org/2000/svg">
  <path d="M33 4H7C5.343 4 4 5.343 4 7V33C4 34.657 5.343 36 7 36H33C34.657 36 36 34.657 36 33V7C36 5.343 34.657 4 33 4Z"
        fill="#CCD6DD"/>
  <path d="M33 3H7C4.791 3 3 4.791 3 7V33C3 35.209 4.791 37 7 37H33C35.209 37 37 35.209 37 33V7C37 4.791 35.209 3 33 3ZM33 5C34.103 5 35 5.897 35 7V11H29V5H33ZM29 21H35V27H29V21ZM29 19V13H35V19H29ZM27 5V11H21V5H27ZM21 13H27V19H21V13ZM21 21H27V27H21V21ZM19 5V11H13V5H19ZM13 13H19V19H13V13ZM13 21H19V27H13V21ZM5 7C5 5.897 5.897 5 7 5H11V11H5V7ZM5 13H11V19H5V13ZM5 21H11V27H5V21ZM7 35C5.897 35 5 34.103 5 33V29H11V35H7ZM13 35V29H19V35H13ZM21 35V29H27V35H21ZM33 35H29V29H35V33C35 34.103 34.103 35 33 35Z"
        fill="#E1E8ED"/>
  <path d="M6.99818 35C6.67818 35 6.35318 34.924 6.05218 34.761C5.07918 34.238 4.71618 33.025 5.23918 32.052L12.2392 19.052C12.5382 18.495 13.0842 18.113 13.7092 18.021C14.3352 17.929 14.9672 18.139 15.4142 18.586L21.4902 24.662L31.2282 6.072C31.7402 5.094 32.9492 4.715 33.9272 5.229C34.9062 5.741 35.2832 6.95 34.7712 7.929L23.7712 28.929C23.4762 29.493 22.9302 29.882 22.3012 29.979C21.6742 30.07 21.0352 29.866 20.5852 29.416L14.4852 23.317L8.76118 33.948C8.40018 34.619 7.71018 35 6.99818 35Z"
        fill="#DD2E44"/>
</svg>
