<svg width="40" height="40" viewBox="0 0 40 40" fill="none"
     xmlns="http://www.w3.org/2000/svg">
  <path d="M37.77 13.868C37.77 8.418 33.352 4 27.903 4C24.595 4 21.676 5.633 19.885 8.129C18.094 5.633 15.175 4 11.868 4C6.418 4 2 8.417 2 13.868C2 14.64 2.098 15.388 2.266 16.109C3.636 24.622 13.101 33.603 19.885 36.069C26.668 33.603 36.134 24.622 37.502 16.11C37.672 15.389 37.77 14.641 37.77 13.868Z"
        fill="#F4ABBA"/>
  <path d="M33.3079 15.407C33.3079 11.316 29.9929 8.00101 25.9029 8.00101C23.4209 8.00101 21.2299 9.22601 19.8849 11.1C18.5409 9.22601 16.3499 8.00101 13.8679 8.00101C9.77791 8.00101 6.46191 11.316 6.46191 15.407C6.46191 15.986 6.53591 16.548 6.66091 17.088C7.68991 23.477 14.7929 30.219 19.8849 32.069C24.9759 30.218 32.0799 23.477 33.1079 17.089C33.2349 16.548 33.3079 15.986 33.3079 15.407Z"
        fill="#EA596E"/>
  <path d="M29.0764 16.866C29.0764 14.065 26.8064 11.794 24.0064 11.794C22.3064 11.794 20.8064 12.633 19.8854 13.917C18.9654 12.633 17.4644 11.794 15.7644 11.794C12.9634 11.794 10.6924 14.065 10.6924 16.866C10.6924 17.263 10.7424 17.647 10.8284 18.017C11.5334 22.393 16.3974 27.009 19.8844 28.276C23.3694 27.008 28.2364 22.392 28.9394 18.017C29.0274 17.647 29.0764 17.262 29.0764 16.866Z"
        fill="#DD2E44"/>
</svg>
