<svg width="40" height="40" viewBox="0 0 40 40" fill="none"
     xmlns="http://www.w3.org/2000/svg">
  <path d="M6 7C6 7 6 6 7 6H13C13 6 14 6 14 7V9H6V7Z" fill="#66757F"/>
  <path d="M2 12C2 12 2 8 6 8H34C34 8 38 8 38 12V30C38 30 38 34 34 34H6C6 34 2 34 2 30V12Z"
        fill="#31373D"/>
  <path d="M23 31C28.5228 31 33 26.5228 33 21C33 15.4772 28.5228 11 23 11C17.4772 11 13 15.4772 13 21C13 26.5228 17.4772 31 23 31Z"
        fill="#CCD6DD"/>
  <path d="M23 29C27.4183 29 31 25.4183 31 21C31 16.5817 27.4183 13 23 13C18.5817 13 15 16.5817 15 21C15 25.4183 18.5817 29 23 29Z"
        fill="#31373D"/>
  <path d="M23 26C25.7614 26 28 23.7614 28 21C28 18.2386 25.7614 16 23 16C20.2386 16 18 18.2386 18 21C18 23.7614 20.2386 26 23 26Z"
        fill="#3B88C3"/>
  <path d="M34.5 13C35.3284 13 36 12.3284 36 11.5C36 10.6716 35.3284 10 34.5 10C33.6716 10 33 10.6716 33 11.5C33 12.3284 33.6716 13 34.5 13Z"
        fill="white"/>
  <path d="M14 11.5C14 12.329 13.329 13 12.5 13H7.5C6.671 13 6 12.329 6 11.5C6 10.671 6.671 10 7.5 10H12.5C13.329 10 14 10.671 14 11.5Z"
        fill="#F5F8FA"/>
</svg>
