<svg width="40" height="40" viewBox="0 0 40 40" fill="none"
     xmlns="http://www.w3.org/2000/svg">
  <path d="M33 34C33 36.209 31.209 38 29 38H7C4.791 38 3 36.209 3 34V6C3 3.791 4.791 2 7 2H29C31.209 2 33 3.791 33 6V34Z"
        fill="#CCD6DD"/>
  <path d="M29 26C29 26.553 28.553 27 28 27H8C7.448 27 7 26.553 7 26C7 25.447 7.448 25 8 25H28C28.553 25 29 25.447 29 26ZM13 30C13 30.553 12.552 31 12 31H8C7.448 31 7 30.553 7 30C7 29.447 7.448 29 8 29H12C12.552 29 13 29.447 13 30ZM29 10C29 10.552 28.553 11 28 11H8C7.448 11 7 10.552 7 10C7 9.448 7.448 9 8 9H28C28.553 9 29 9.448 29 10ZM29 14C29 14.553 28.553 15 28 15H8C7.448 15 7 14.553 7 14C7 13.447 7.448 13 8 13H28C28.553 13 29 13.447 29 14ZM29 18C29 18.553 28.553 19 28 19H8C7.448 19 7 18.553 7 18C7 17.447 7.448 17 8 17H28C28.553 17 29 17.447 29 18ZM29 22C29 22.553 28.553 23 28 23H8C7.448 23 7 22.553 7 22C7 21.447 7.448 21 8 21H28C28.553 21 29 21.447 29 22Z"
        fill="#99AAB5"/>
  <path d="M33.0003 8.27202C32.1733 7.73702 31.1633 7.69302 30.4793 8.24902L29.6873 8.89502L28.2033 10.106L28.1033 10.186L25.7273 12.124L13.8493 21.81C13.4123 22.167 13.0563 23.029 12.6763 23.884C12.2983 24.734 11.7073 26.736 11.2333 28.275C11.0853 28.525 10.1683 30.121 10.6823 30.728C11.2023 31.343 13.0083 30.738 13.2503 30.652C14.8763 30.478 16.9813 30.279 17.8983 30.072C18.8223 29.861 19.7523 29.677 20.1893 29.32C20.1973 29.314 20.1993 29.302 20.2063 29.297L32.0643 19.631L32.8563 18.985L33.0003 18.867V8.27202Z"
        fill="#66757F"/>
  <path d="M20.1453 24.526C20.1453 24.526 18.8713 22.645 18.0283 21.973C17.3563 21.13 15.4793 19.857 15.4793 19.857C15.0313 19.411 14.2883 19.377 13.8503 19.814C13.4133 20.252 13.0573 21.18 12.6773 22.105C12.2053 23.251 11.4013 26.259 10.9093 27.857C10.8263 28.129 11.4263 27.407 11.4123 27.647C11.4023 27.834 11.4393 28.041 11.4863 28.228L11.3403 28.387L11.5483 28.454C11.5733 28.536 11.5983 28.608 11.6163 28.664L11.7753 28.518C11.9623 28.565 12.1693 28.602 12.3553 28.592C12.5953 28.578 11.8723 29.179 12.1453 29.095C13.7433 28.602 16.7523 27.799 17.8973 27.327C18.8213 26.946 19.7513 26.591 20.1883 26.153C20.6273 25.718 20.5943 24.975 20.1453 24.526Z"
        fill="#D99E82"/>
  <path d="M27.3123 6.35098C26.4363 7.22598 26.4363 8.64398 27.3123 9.51898L30.4793 12.687C31.3553 13.561 32.7733 13.561 33.6473 12.687L36.8163 9.51898C37.6903 8.64398 37.6903 7.22598 36.8163 6.35098L33.6473 3.18298C32.7733 2.30798 31.3553 2.30798 30.4793 3.18298L27.3123 6.35098Z"
        fill="#EA596E"/>
  <path d="M13.8486 19.815L17.0186 22.985L20.1836 26.151L32.0646 14.272L25.7276 7.93597L13.8486 19.815Z"
        fill="#FFCC4D"/>
  <path d="M13.2978 28.742C13.2978 28.742 11.2378 29.875 10.6818 29.318C10.1248 28.76 11.2628 26.707 11.2628 26.707C11.2628 26.707 13.2138 26.743 13.2978 28.742Z"
        fill="#292F33"/>
  <path d="M25.7275 7.93498L29.6875 3.97498L36.0235 10.312L32.0635 14.272L25.7275 7.93498Z"
        fill="#CCD6DD"/>
  <path d="M28.1025 5.55799L28.8945 4.76599L35.2305 11.101L34.4385 11.893L28.1025 5.55799ZM26.5195 7.14199L27.3105 6.35099L33.6465 12.686L32.8545 13.478L26.5195 7.14199Z"
        fill="#99AAB5"/>
</svg>
