<svg width="40" height="40" viewBox="0 0 40 40" fill="none"
     xmlns="http://www.w3.org/2000/svg">
  <path d="M31 18H18C14.332 18 13 15.01 13 13V11H9C6 11 6 14 6 14C6 14 4 13 3 13C2 13 2 14 2 14V24C2 24 2 25 3 25C4 25 6 24 6 24V31C6 35 10 35 10 35H28C32 35 32 31 32 31V17.894C31.653 17.963 31.315 18 31 18Z"
        fill="#31373D"/>
  <path d="M37 6C36.441 6 34.95 6.934 33.74 7.76C33.413 6.934 32.674 6 31 6H20C20 6 15 6 15 11V13C15 13 15 16 18 16H31C31 16 33.075 15.994 33.771 14.261C34.976 15.082 36.446 16 37 16C38 16 38 15 38 15V7C38 7 38 6 37 6ZM11 35V26C11 26 11 23 13.75 23H24C24 23 27 23 27 26V35H25V26C25 26 25 25 24 25H14C14 25 13 25 13 26V35H11Z"
        fill="#66757F"/>
</svg>
