<svg fill="none" height="30" viewBox="0 0 30 30" width="30" xmlns="http://www.w3.org/2000/svg">
<circle cx="15" cy="15" fill="#5ACAB4" r="15"/>
<path d="M11.6828 19.4282C11.1947 18.9755 10.8964 18.3608 10.843 17.6972L10.8423 17.6889L10.7911 16.8695L9.78581 14.4186C9.15863 12.8 9.17322 11.5349 9.17947 10.9947L9.17866 10.9921C9.17866 10.584 9.22459 10.0647 9.31134 9.66882C8.75362 10.2841 8.31434 11.0397 8.20156 11.9419C8.16125 12.2642 8.12019 12.6433 8.07672 13.0446C7.96081 14.1143 7.82944 15.3266 7.6615 15.9607C7.569 16.3099 7.47575 16.5911 7.38556 16.8631C7.17866 17.487 7 18.0257 7 18.9323C7 19.7409 7.31866 20.5073 7.89734 21.0901C8.47988 21.6769 9.25069 22 10.0677 22C11.3563 22 12.4618 21.2013 12.9153 20.073C12.4576 19.9725 12.0323 19.7524 11.6828 19.4282Z" fill="white"/>
<path d="M18.3173 19.4282C18.8054 18.9755 19.1037 18.3608 19.1571 17.6972L19.1577 17.6889L19.209 16.8695L20.2142 14.4186C20.8414 12.8 20.8268 11.5349 20.8206 10.9947L20.8214 10.9921C20.8214 10.584 20.7755 10.0647 20.6887 9.66882C21.2464 10.2841 21.6857 11.0397 21.7985 11.9419C21.8388 12.2642 21.8799 12.6433 21.9233 13.0446C22.0392 14.1143 22.1706 15.3266 22.3386 15.9607C22.4311 16.3099 22.5243 16.5911 22.6145 16.8631C22.8214 17.487 23 18.0258 23 18.9323C23 19.7409 22.6814 20.5073 22.1027 21.0901C21.5202 21.6769 20.7494 22 19.9323 22C18.6437 22 17.5383 21.2013 17.0847 20.073C17.5424 19.9725 17.9677 19.7524 18.3173 19.4282Z" fill="white"/>
<path d="M18.2226 17.622L18.283 16.6567L19.3401 14.0799C19.9533 12.4974 19.8821 11.3326 19.8821 10.8762C19.8821 8.26116 17.6941 6 15.0002 6C15.0002 6 15.0001 6 15.0001 6C15 6 15 6 14.9999 6C12.306 6 10.118 8.26116 10.118 10.8762C10.118 11.3326 10.0468 12.4974 10.66 14.0799L11.7171 16.6567L11.7775 17.622C11.8489 18.5088 12.5871 19.1934 13.4768 19.1979C13.4795 19.1979 13.4823 19.1979 13.4851 19.1979C14.0153 19.1979 14.5072 18.9422 14.813 18.5208H14.7703L13.9754 18.0438C13.5488 17.7878 13.2837 17.3197 13.2837 16.8222C13.2837 16.0367 13.9228 15.3976 14.7083 15.3976H15.2917C16.0773 15.3976 16.7163 16.0367 16.7163 16.8222C16.7163 17.3197 16.4513 17.7878 16.0247 18.0438L15.2297 18.5208H15.1871C15.4929 18.9422 15.9848 19.1979 16.515 19.1979C16.5178 19.1979 16.5206 19.1979 16.5233 19.1979C17.413 19.1934 18.1512 18.5088 18.2226 17.622ZM12.8899 13.052H11.9524V12.1145H12.8899V13.052ZM18.0478 13.052H17.1103V12.1145H18.0478V13.052Z" fill="white"/>
<path d="M15.7788 16.8222C15.7788 16.5536 15.5603 16.3351 15.2917 16.3351H14.7083C14.4397 16.3351 14.2212 16.5536 14.2212 16.8222C14.2212 16.9923 14.3118 17.1524 14.4577 17.2399L15 17.5653L15.5423 17.2399C15.6882 17.1524 15.7788 16.9923 15.7788 16.8222Z" fill="white"/>
</svg>
