<svg fill="none" height="30" viewBox="0 0 30 30" width="30" xmlns="http://www.w3.org/2000/svg">
<circle cx="15" cy="15" fill="#8D73CC" r="15"/>
<g clip-path="url(#clip0)">
<path d="M11.7187 20.1562C11.7187 19.1221 10.8778 18.2812 9.84371 18.2812C8.80963 18.2812 7.96874 19.1221 7.96874 20.1562V21.0937C7.96874 21.6105 7.51681 22.0624 7 22.0624V22.9999H8.90622C10.4571 22.9999 11.7187 21.7071 11.7187 20.1562Z" fill="white"/>
<path d="M14.8457 10.925C14.5955 10.9923 14.4469 11.2485 14.5143 11.4991C14.5789 11.7401 14.8263 11.8987 15.0883 11.8305C15.3402 11.7627 15.4864 11.5053 15.4197 11.2564C15.352 11.005 15.0931 10.8583 14.8457 10.925Z" fill="white"/>
<path d="M12.1939 14.4823C12.4427 14.5483 12.7 14.4035 12.768 14.1509C12.8356 13.8983 12.685 13.6435 12.437 13.5769H12.4365C12.3036 13.541 12.2676 13.568 12.1736 13.5987C12.1789 13.8812 12.1826 14.1743 12.1846 14.4777C12.188 14.4787 12.1904 14.4814 12.1939 14.4823Z" fill="white"/>
<path d="M17.3605 18.5005C17.2927 18.2484 17.034 18.1027 16.7865 18.1695C16.532 18.2379 16.3889 18.4976 16.4551 18.7435C16.5219 18.993 16.7764 19.1404 17.0291 19.0749C17.2793 19.0077 17.4279 18.7515 17.3605 18.5009V18.5005Z" fill="white"/>
<path d="M18.9206 12.6801C19.1033 12.497 19.1033 12.1995 18.9206 12.0168C18.7379 11.834 18.4408 11.8333 18.2573 12.0168C18.0746 12.1995 18.0746 12.4975 18.2578 12.6801C18.44 12.8623 18.7375 12.8623 18.9206 12.6801Z" fill="white"/>
<path d="M15.9648 7.94415C14.4249 7.99965 13.0114 8.60836 11.8848 9.38116C12.011 10.2408 12.1003 11.3107 12.1478 12.634C12.3233 12.6131 12.5028 12.6241 12.6785 12.6714C13.4297 12.8723 13.875 13.6423 13.6732 14.3935C13.5032 15.0289 12.9292 15.4363 12.3174 15.4363C12.2723 15.4363 12.2274 15.4228 12.1824 15.4184C12.1768 16.1682 12.1598 16.91 12.1274 17.6184C12.6075 17.8178 12.9828 18.0835 13.2278 18.4277C13.724 19.1249 13.5917 19.9425 13.5396 20.1768C13.3657 20.9553 13.8247 21.7479 14.6112 21.8994C15.0557 21.9845 15.5024 22.0266 15.946 22.0266C19.8012 22.0266 23.0311 18.8951 22.9997 14.9437C22.9668 10.9362 19.4989 7.811 15.9648 7.94415ZM17.5939 11.354C18.1432 10.8056 19.0349 10.8056 19.5833 11.354C20.1317 11.9024 20.1317 12.7946 19.5833 13.3429V13.3434C19.035 13.8908 18.1428 13.8909 17.5944 13.3434C17.0464 12.7945 17.0464 11.9024 17.5939 11.354ZM13.6087 11.7412C13.4091 11.0002 13.8443 10.2224 14.6029 10.0196C15.3486 9.81956 16.1236 10.2645 16.325 11.0138C16.5263 11.7635 16.0821 12.5348 15.3307 12.7359C14.5813 12.9367 13.81 12.4944 13.6087 11.7412ZM17.2717 19.9804C16.5224 20.1811 15.7505 19.7349 15.5496 18.9862C15.3482 18.2365 15.7925 17.4652 16.5438 17.2641C17.2983 17.0634 18.0655 17.5091 18.2659 18.2588C18.4678 19.0096 18.0214 19.78 17.2717 19.9804ZM20.9177 16.3344C20.7169 17.0856 19.945 17.5301 19.1956 17.3286C18.4464 17.1281 17.9992 16.3591 18.2014 15.6065C18.4043 14.8485 19.1807 14.4133 19.9234 14.6123C20.6728 14.8132 21.1187 15.586 20.9177 16.3344Z" fill="white"/>
<path d="M19.6808 15.5177C19.4353 15.4515 19.1753 15.5946 19.1068 15.8491C19.0391 16.1017 19.1898 16.3565 19.4378 16.4232C19.6944 16.4895 19.9458 16.339 20.0123 16.0918C20.0791 15.8423 19.9303 15.5846 19.6808 15.5177Z" fill="white"/>
<path d="M11.2443 15.4688C11.2456 15.3119 11.25 15.1576 11.25 15C11.25 11.365 11.006 7.00014 9.84373 7.00014C8.6815 7.00014 8.4375 11.365 8.4375 15C8.4375 15.1576 8.44184 15.3119 8.44316 15.4688H11.2443Z" fill="white"/>
<path d="M9.84378 17.3437C10.3322 17.3437 10.785 17.48 11.1857 17.6999C11.2059 17.2792 11.2214 16.8459 11.2322 16.4062H8.45532C8.46613 16.8459 8.48157 17.2792 8.50185 17.6999C8.9025 17.48 9.35534 17.3437 9.84378 17.3437Z" fill="white"/>
</g>
<defs>
<clipPath id="clip0">
<rect fill="white" height="16" transform="translate(7 7)" width="16"/>
</clipPath>
</defs>
</svg>
