<svg fill="none" height="30" viewBox="0 0 30 30" width="30" xmlns="http://www.w3.org/2000/svg">
<circle cx="15" cy="15" fill="#F79338" r="15"/>
<circle cx="15" cy="15" fill="#40C3EB" r="15"/>
<g clip-path="url(#clip0)">
<path d="M13.25 11.7917C13.572 11.7917 13.8334 11.5303 13.8334 11.2083V10.3333H16.1667V11.2083C16.1667 11.5303 16.428 11.7917 16.75 11.7917C17.072 11.7917 17.3334 11.5303 17.3334 11.2083V10.3333C17.3334 9.68992 16.8101 9.16667 16.1667 9.16667H13.8334C13.19 9.16667 12.6667 9.68992 12.6667 10.3333V11.2083C12.6667 11.5303 12.928 11.7917 13.25 11.7917Z" fill="white"/>
<path d="M14.5858 16.9717C14.6908 17.0125 14.8425 17.0417 15 17.0417C15.1575 17.0417 15.3092 17.0125 15.4492 16.96L22 14.7783V19.2292C22 20.1158 21.2825 20.8333 20.3958 20.8333H9.60417C8.7175 20.8333 8 20.1158 8 19.2292V14.7783L14.5858 16.9717Z" fill="white"/>
<path d="M8 12.5208V13.8567L14.86 16.1433C14.9067 16.1608 14.9533 16.1667 15 16.1667C15.0467 16.1667 15.0933 16.1608 15.14 16.1433L22 13.8567V12.5208C22 11.6342 21.2825 10.9167 20.3958 10.9167H9.60417C8.7175 10.9167 8 11.6342 8 12.5208Z" fill="white"/>
</g>
<defs>
<clipPath id="clip0">
<rect fill="white" height="14" transform="matrix(-1 0 0 1 22 8)" width="14"/>
</clipPath>
</defs>
</svg>
