<svg fill="none" height="30" viewBox="0 0 30 30" width="30" xmlns="http://www.w3.org/2000/svg">
<circle cx="15" cy="15" fill="#40C3EB" r="15"/>
<g clip-path="url(#clip0)">
<path d="M21.8782 11.1415C21.7693 11.002 21.6021 10.9204 21.425 10.9204H10.4785L10.3158 9.10768C10.2892 8.81125 10.0408 8.58411 9.74316 8.58411H8.57497C8.25742 8.58411 8 8.84153 8 9.15907C8 9.47662 8.25742 9.73404 8.57497 9.73404H9.21751L9.84772 16.7552C9.84786 16.7634 9.84745 16.7716 9.84792 16.7799C9.8492 16.802 9.85208 16.8235 9.85575 16.8448L9.8788 17.1015C9.87924 17.1063 9.87973 17.1112 9.88031 17.116C9.95018 17.7213 10.2595 18.2458 10.7069 18.6002C10.4751 18.8962 10.3364 19.2685 10.3364 19.6727C10.3364 20.6339 11.1184 21.4159 12.0795 21.4159C13.0407 21.4159 13.8227 20.6339 13.8227 19.6727C13.8227 19.4645 13.7859 19.2648 13.7186 19.0795H16.8655C16.7982 19.2648 16.7614 19.4645 16.7614 19.6727C16.7614 20.6339 17.5434 21.4159 18.5046 21.4159C19.4658 21.4159 20.2477 20.6339 20.2477 19.6727C20.2477 18.7115 19.4658 17.9296 18.5046 17.9296H12.0834C11.6467 17.9296 11.2661 17.6661 11.1018 17.2821L20.2905 16.7421C20.5414 16.7274 20.7536 16.5514 20.8146 16.3076L21.9829 11.6348C22.0258 11.463 21.9872 11.2811 21.8782 11.1415Z" fill="white"/>
</g>
<defs>
<clipPath id="clip0">
<rect fill="white" height="14" transform="translate(8 8)" width="14"/>
</clipPath>
</defs>
</svg>
