<svg fill="none" height="30" viewBox="0 0 30 30" width="30" xmlns="http://www.w3.org/2000/svg">
<circle cx="15" cy="15" fill="#F79338" r="15"/>
<path d="M21.9852 10.0822C21.9331 9.7793 21.7594 9.51004 21.5162 9.32492L18.5282 7.22133C17.9897 6.8511 17.2427 6.95207 16.8605 7.47376L15.0713 9.82978C14.7933 10.2 14.7586 10.7049 15.0018 11.0919L15.6445 12.1858C15.714 12.2868 15.6966 12.4214 15.6272 12.5392C15.5229 12.6738 15.4708 12.8421 15.5056 13.0272C15.5056 13.0777 15.5403 13.1282 15.5577 13.1787L14.7412 14.2557L15.5056 15.2823L16.5479 13.8855C16.5652 13.8855 16.5652 13.8855 16.5826 13.8855C16.6173 13.8855 16.6521 13.8855 16.6868 13.8855C16.8605 13.8687 17.0169 13.7677 17.1211 13.6331C17.208 13.5321 17.3296 13.4816 17.4512 13.5153L18.7193 13.7845C19.1884 13.8855 19.6574 13.7004 19.9527 13.3302L21.742 10.9741C21.9505 10.7049 22.0373 10.3851 21.9852 10.0822ZM16.8432 10.7554C16.7563 10.8563 16.6347 10.9237 16.5131 10.9237C16.4263 10.9237 16.3394 10.9068 16.2699 10.8395C16.0788 10.7049 16.0441 10.4524 16.1831 10.2842L17.6075 8.38252C17.7465 8.1974 18.0071 8.16374 18.1808 8.29837C18.3719 8.433 18.4066 8.68543 18.2677 8.85372L16.8432 10.7554ZM17.6944 11.7651C17.6075 11.7651 17.5207 11.7483 17.4512 11.6809C17.2601 11.5463 17.2254 11.2939 17.3643 11.1256L18.7888 9.22395C18.9278 9.03883 19.1884 9.00518 19.3621 9.13981C19.5532 9.27444 19.5879 9.52687 19.4489 9.69515L18.0245 11.5968C17.955 11.7146 17.816 11.7651 17.6944 11.7651ZM20.6476 10.5366L19.2231 12.4382C19.1363 12.5392 19.0147 12.6065 18.893 12.6065C18.8062 12.6065 18.7193 12.5897 18.6498 12.5224C18.4588 12.3877 18.424 12.1353 18.563 11.967L19.9875 10.0654C20.1264 9.88027 20.387 9.84661 20.5607 9.98124C20.7518 10.1159 20.7866 10.3683 20.6476 10.5366Z" fill="white"/>
<path d="M12.9691 16.6287L12.031 17.8571C11.7531 17.7393 11.4057 17.8067 11.2146 18.0423L8.71303 21.1051C8.55669 21.2902 8.50457 21.509 8.52194 21.7446C8.55669 21.9802 8.67829 22.1821 8.86938 22.3168L9.58162 22.8216C9.77271 22.9562 10.0159 23.0067 10.2418 22.9731C10.485 22.9394 10.676 22.8048 10.815 22.6028L13.1081 19.3717C13.2818 19.1193 13.2471 18.7827 13.056 18.564L13.7335 17.6552L12.9691 16.6287Z" fill="white"/>
<path d="M17.26 18.0423C17.0689 17.8067 16.7214 17.7225 16.4435 17.8571L12.9691 13.2629C13.0907 13.061 13.0907 12.8085 12.9344 12.6066L12.8649 12.472C13.1081 12.1859 13.2644 11.883 13.3513 11.5632C13.5424 10.8732 13.3339 10.1328 12.7607 9.37548C11.6662 7.91138 9.18207 6.43045 7.77496 7.42335C6.38521 8.41624 7.08009 11.1593 8.17451 12.6066C8.74778 13.3639 9.40791 13.7678 10.1549 13.8183C10.207 13.8183 10.2418 13.8183 10.2939 13.8183C10.5892 13.8183 10.8845 13.7509 11.1972 13.65L11.2841 13.7678C11.3883 13.8856 11.5273 13.9697 11.6836 14.0034C11.7184 14.0034 11.7531 14.0034 11.7705 14.0034C11.84 14.0034 11.9094 13.9865 11.9616 13.9697L15.4185 18.564C15.2101 18.7827 15.1753 19.1193 15.3664 19.3717L17.6248 22.6197C17.7637 22.8048 17.9548 22.9394 18.198 22.9899C18.4412 23.0236 18.6671 22.9731 18.8582 22.8384L19.5878 22.3336C19.7789 22.199 19.9005 21.997 19.9352 21.7614C19.97 21.5258 19.9005 21.307 19.7615 21.1219L17.26 18.0423ZM9.46002 11.7652C9.39053 11.7988 9.32105 11.8325 9.25156 11.8325C9.11258 11.8325 8.97361 11.7652 8.88675 11.6305C8.33085 10.7218 8.12239 9.66157 8.15714 9.02207C8.17451 8.8033 8.3656 8.63501 8.59143 8.65184C8.81726 8.66867 8.99098 8.85379 8.97361 9.07256C8.93887 9.49328 9.07784 10.4189 9.58162 11.2098C9.7206 11.4118 9.65111 11.6474 9.46002 11.7652Z" fill="white"/>
</svg>
