<svg width="40" height="40" viewBox="0 0 40 40" fill="none"
     xmlns="http://www.w3.org/2000/svg">
  <path d="M24 35C24 37.209 16 37.209 16 35V25C16 22.791 17.791 21 20 21C22.209 21 24 22.791 24 25V35Z"
        fill="#C1694F"/>
  <path d="M28 5H12V25H36V13C36 8.582 32.418 5 28 5Z" fill="#99AAB5"/>
  <path d="M12 5C7.582 5 4 8.582 4 13V25H20V13C20 8.582 16.418 5 12 5Z"
        fill="#292F33"/>
  <path d="M11 5C7.134 5 4 8.582 4 13V25H18V13C18 8.582 14.866 5 11 5Z"
        fill="#99AAB5"/>
  <path d="M28 3H24C22.896 3 22 3.896 22 5V17C22 18.104 22.896 19 24 19C25.104 19 26 18.104 26 17V9H28C29.104 9 30 8.104 30 7V5C30 3.896 29.104 3 28 3Z"
        fill="#DD2E44"/>
</svg>
