<svg width="48" height="48" viewBox="0 0 48 48" fill="none"
     xmlns="http://www.w3.org/2000/svg">
  <path d="M3.6123 34.6667H14.4892V48H3.6123V34.6667ZM33.5239 34.6667H44.4008V48H33.5239V34.6667Z"
        fill="#FFDC5D"/>
  <path d="M44.4008 38.2934C44.4008 38.2934 40.3219 40.96 33.5239 39.6267V32.96H44.4008V38.2934ZM3.6123 38.2934C3.6123 38.2934 7.69115 40.96 14.4892 39.6267V32.96H3.6123V38.2934Z"
        fill="#F9CA55"/>
  <path d="M4.94922 24.8054H15.8261V35.472H4.94922V24.8054ZM32.1728 24.1387H43.0497V34.8054H32.1728V24.1387Z"
        fill="#EF9645"/>
  <path d="M0.0408408 15.78C0.0408408 15.78 0.0449198 14.1467 1.70909 14.1507C3.37598 14.156 3.37054 15.7893 3.37054 15.7893L3.34471 23.368C3.60983 23.248 3.88719 23.14 4.17815 23.0467L4.21214 12.528C4.21214 12.528 4.21758 10.8947 5.88039 10.9C7.54456 10.904 7.54048 12.5387 7.54048 12.5387L7.51193 22.432C7.7825 22.408 8.06122 22.3893 8.3413 22.376L8.37937 10.9067C8.37937 10.9067 8.38345 9.27332 10.049 9.27999C11.7145 9.28532 11.7077 10.9187 11.7077 10.9187L11.6696 22.3853C11.9552 22.4013 12.2298 22.4293 12.5044 22.4547L12.5384 11.736C12.5384 11.736 12.5439 10.1027 14.2067 10.1093C15.8709 10.1133 15.8641 11.7453 15.8641 11.7453L15.8314 23.08L15.8273 23.988V24.8027C10.8321 24.7907 7.48882 28.8587 7.47386 32.9413C7.47386 33.7573 8.30595 33.7627 8.30595 33.7627C8.31954 28.8587 11.6601 25.6093 16.6567 25.624L19.1054 20.04C19.1054 20.04 19.6424 18.4947 21.2209 19.024C22.7954 19.5467 22.261 21.0947 22.261 21.0947L21.0469 25.2347C20.5656 26.88 20.1156 28.536 19.879 30.2267C19.2019 35.0053 15.0102 38.68 9.95516 38.6667C4.44192 38.644 -0.0176227 34.2467 5.2359e-05 28.84C0.00141198 28.5547 0.019087 28.2827 0.0462793 28.0267L0.0027716 28.0213L0.0408408 15.78ZM47.9592 15.78C47.9592 15.78 47.9551 14.1467 46.2909 14.1507C44.624 14.156 44.6281 15.7893 44.6281 15.7893L44.6539 23.368C44.3902 23.248 44.1114 23.14 43.8218 23.0467L43.7879 12.528C43.7879 12.528 43.7824 10.8947 42.1196 10.9C40.4541 10.904 40.4581 12.5387 40.4581 12.5387L40.4881 22.432C40.2189 22.408 39.9401 22.3893 39.6587 22.376L39.622 10.9067C39.622 10.9067 39.6165 9.27332 37.951 9.27999C36.2855 9.28532 36.2923 10.9187 36.2923 10.9187L36.3304 22.3853C36.0448 22.4013 35.7702 22.4293 35.4956 22.4547L35.4616 11.736C35.4616 11.736 35.4548 10.1027 33.792 10.1093C32.1278 10.1133 32.1346 11.7453 32.1346 11.7453L32.1672 23.08L32.1713 23.988V24.8027C37.1665 24.7907 40.5098 28.8587 40.5261 32.9413C40.5261 33.7573 39.694 33.7627 39.694 33.7627C39.6791 28.8587 36.3385 25.6093 31.3433 25.624L28.8946 20.04C28.8946 20.04 28.3589 18.4947 26.7791 19.024C25.206 19.5467 25.7389 21.0947 25.7389 21.0947L26.9531 25.2347C27.4344 26.88 27.8844 28.536 28.121 30.2267C28.7981 35.0053 32.9884 38.68 38.0448 38.6667C43.5581 38.644 48.019 34.2467 47.9999 28.84C47.9986 28.5547 47.9809 28.2827 47.9537 28.0267L47.9972 28.0213L47.9592 15.78Z"
        fill="#FFDC5D"/>
  <path d="M31.5409 8.61067C31.2513 8.61067 30.9576 8.52 30.7115 8.33333C30.116 7.88267 30.0072 7.04533 30.4668 6.46267L34.5171 1.32267C34.9725 0.741333 35.8291 0.629333 36.4233 1.08267C37.0188 1.53333 37.1275 2.37067 36.668 2.95333L32.6177 8.09333C32.3512 8.43333 31.9488 8.61067 31.5409 8.61067ZM16.5579 8.61067C16.1514 8.61067 15.7489 8.432 15.4811 8.092L11.4308 2.95333C10.9726 2.37067 11.0827 1.53333 11.6769 1.08267C12.271 0.633333 13.1235 0.74 13.5844 1.32267L17.6347 6.46267C18.0929 7.04533 17.9841 7.88267 17.39 8.33333C17.1412 8.52133 16.8489 8.61067 16.5579 8.61067ZM24.0072 8C23.2567 8 22.6476 7.40267 22.6476 6.66667V1.33333C22.6476 0.597333 23.2567 0 24.0072 0C24.7591 0 25.3669 0.597333 25.3669 1.33333V6.66667C25.3669 7.40267 24.7591 8 24.0072 8Z"
        fill="#5DADEC"/>
</svg>
