<svg width="16" height="16" viewBox="0 0 16 16" fill="none"
     xmlns="http://www.w3.org/2000/svg">
  <path d="M0.979912 15.8343C0.137338 15.8343 -0.23409 15.2223 0.153805 14.4744L7.29373 0.726565C7.68208 -0.0213225 8.31744 -0.0213225 8.70579 0.726565L15.8457 14.4749C16.2345 15.2223 15.8626 15.8343 15.0201 15.8343H0.979912Z"
        fill="#FFCC4D"/>
  <path d="M6.89453 13.0683C6.89453 12.4585 7.39084 11.9622 8.00104 11.9622C8.61078 11.9622 9.10709 12.4585 9.10709 13.0683C9.10709 13.6785 8.61033 14.1748 8.00104 14.1748C7.39084 14.1748 6.89453 13.6785 6.89453 13.0683ZM6.97961 4.70065C6.97961 4.10508 7.4192 3.7364 8.00058 3.7364C8.56824 3.7364 9.02201 4.11926 9.02201 4.70065V10.1614C9.02201 10.7428 8.56824 11.1256 8.00058 11.1256C7.4192 11.1256 6.97961 10.7565 6.97961 10.1614V4.70065Z"
        fill="#231F20"/>
</svg>
