<svg fill="none" height="30" viewBox="0 0 30 30" width="30" xmlns="http://www.w3.org/2000/svg">
<circle cx="15" cy="15" fill="#40C3EB" r="15"/>
<path d="M24.982 12.9632L23.6825 18.2581C23.3215 19.9264 22.0942 21.232 20.506 21.8123L17.4017 22.9728C17.1129 23.0453 16.8241 22.9728 16.6075 22.7552L14.3696 20.2891C13.2145 19.056 12.7813 17.3152 13.1423 15.6469L14.3696 10.352C14.4418 10.0619 14.7305 9.77173 15.0915 9.77173C18.4124 9.77173 21.5889 10.5696 24.5488 12.0203C24.9098 12.3104 25.0541 12.6731 24.982 12.9632ZM15.9578 16.5173C15.5968 17.8955 16.4632 19.2736 17.8348 19.5637C19.2065 19.9264 20.5782 19.056 20.8669 17.6779L15.9578 16.5173ZM21.7333 14.1963C21.1557 14.0512 20.5782 14.4139 20.4338 14.9941C20.2894 15.5744 20.6504 16.1547 21.2279 16.2997C21.8055 16.4448 22.383 16.0821 22.5274 15.5019C22.6718 14.9216 22.3108 14.3413 21.7333 14.1963ZM16.8241 13.0357C16.2466 12.8907 15.669 13.2533 15.5246 13.8336C15.3803 14.4139 15.7412 14.9941 16.3188 15.1392C16.8963 15.2843 17.4739 14.9216 17.6183 14.3413C17.7626 13.7611 17.4017 13.1808 16.8241 13.0357ZM12.1316 19.4912L10.6155 19.1285C8.95507 18.6933 7.6556 17.4603 7.07805 15.8645L5.05664 10.0619C4.91226 9.77173 5.05664 9.40907 5.34542 9.19147C8.16095 7.37813 11.1931 6.29013 14.5139 6C14.8749 6 15.1637 6.14507 15.2359 6.50773L15.9578 8.53867C15.669 8.53867 15.3803 8.53867 15.0915 8.53867C14.0808 8.53867 13.2145 9.19147 12.9979 10.2069L12.2038 13.616C12.1316 13.616 12.0594 13.616 11.9872 13.6885C10.6877 14.1237 9.96578 15.5744 10.4711 16.9525L11.6262 16.5173C11.554 17.4603 11.6984 18.4757 12.1316 19.4912ZM10.1102 12.3104C9.89358 11.7301 9.31604 11.44 8.73849 11.6576C8.16095 11.8027 7.79998 12.4555 8.01656 13.0357C8.23314 13.616 8.81069 13.9061 9.38823 13.6885C9.96578 13.4709 10.2545 12.8907 10.1102 12.3104Z" fill="white"/>
</svg>
