<svg fill="none" height="30" viewBox="0 0 30 30" width="30" xmlns="http://www.w3.org/2000/svg">
<circle cx="15" cy="15" fill="#5ACAB4" r="15"/>
<path d="M14.167 9.82731C14.2938 9.82731 14.4163 9.84588 14.5323 9.87984V6H13.5854L11.1648 10.8458C10.8581 11.4598 10.7687 12.1676 10.9131 12.8386L11.7676 16.8085C11.328 17.1613 10.302 17.9849 9.18486 18.8821L8.76245 19.2213L11.747 22L14.5323 18.6855V11.1299C14.5323 10.9285 14.3684 10.7646 14.167 10.7646C13.9655 10.7646 13.8016 10.9285 13.8016 11.1299V12.9013H12.8643V11.1299C12.8643 10.4117 13.4487 9.82731 14.167 9.82731Z" fill="white"/>
<path d="M20.8152 18.8807C19.6995 17.9846 18.6738 17.1612 18.2344 16.8085L19.0889 12.8386C19.2333 12.1676 19.1439 11.4598 18.8372 10.8458L16.4166 6H15.4697V9.87984C15.5857 9.84587 15.7082 9.82731 15.835 9.82731C16.5533 9.82731 17.1377 10.4117 17.1377 11.1299V12.9013H16.2004V11.1299C16.2004 10.9285 16.0365 10.7646 15.8351 10.7646C15.6336 10.7646 15.4698 10.9285 15.4698 11.1299V18.6849L18.2557 21.9962L21.2376 19.22L20.8152 18.8807Z" fill="white"/>
</svg>
