<svg fill="none" height="30" viewBox="0 0 30 30" width="30" xmlns="http://www.w3.org/2000/svg">
<circle cx="15" cy="15" fill="#F79338" r="15"/>
<path d="M7.93968 18.6728C7.93968 19.9568 8.93016 21 10.1492 21H19.8254C20.4603 21 21.0444 20.7058 21.4508 20.251C21.8064 19.8498 22.0349 19.2881 22.0349 18.6728V17.7634H7.93968V18.6728Z" fill="white"/>
<path d="M23 15.8107V15.463C23 14.9815 22.619 14.607 22.1873 14.607H7.8127C7.35556 14.607 7 15.0082 7 15.463V15.8107C7 16.2922 7.38095 16.6667 7.8127 16.6667H22.1619C22.619 16.6934 23 16.2922 23 15.8107Z" fill="white"/>
<path d="M22.0349 12.7613C22.0349 11.3169 21.4254 10.0329 20.4857 9.17696C19.6984 8.42798 18.6317 8 17.4889 8H12.4857C9.97143 8 7.93968 10.1399 7.93968 12.7881V13.537H22.0349V12.7613ZM12.0032 12.0391C11.7238 12.0391 11.4952 11.7984 11.4952 11.5041C11.4952 11.2099 11.7238 10.9691 12.0032 10.9691C12.2825 10.9691 12.4857 11.2099 12.4857 11.5041C12.4857 11.7984 12.2825 12.0391 12.0032 12.0391ZM13.5016 10.5144C13.2222 10.5144 12.9937 10.2737 12.9937 9.97942C12.9937 9.68519 13.2222 9.44445 13.5016 9.44445C13.781 9.44445 14.0095 9.68519 14.0095 9.97942C14.0095 10.2737 13.781 10.5144 13.5016 10.5144ZM15 12.0391C14.7206 12.0391 14.4921 11.7984 14.4921 11.5041C14.4921 11.2099 14.7206 10.9691 15 10.9691C15.2794 10.9691 15.4825 11.2099 15.4825 11.5041C15.4825 11.7984 15.2794 12.0391 15 12.0391ZM16.4984 10.5144C16.219 10.5144 15.9905 10.2737 15.9905 9.97942C15.9905 9.68519 16.219 9.44445 16.4984 9.44445C16.7778 9.44445 17.0064 9.68519 17.0064 9.97942C16.981 10.2737 16.7778 10.5144 16.4984 10.5144ZM17.9968 12.0391C17.7175 12.0391 17.5143 11.7984 17.5143 11.5041C17.5143 11.2099 17.7429 10.9691 17.9968 10.9691C18.2762 10.9691 18.5048 11.2099 18.5048 11.5041C18.5048 11.7984 18.2508 12.0391 17.9968 12.0391Z" fill="white"/>
</svg>
