<svg width="14" height="14" viewBox="0 0 14 14" fill="none" xmlns="http://www.w3.org/2000/svg">
<path d="M6.99955 0.333328C3.31955 0.333328 0.332886 3.31999 0.332886 6.99999C0.332886 10.68 3.31955 13.6667 6.99955 13.6667C10.6796 13.6667 13.6662 10.68 13.6662 6.99999C13.6662 3.31999 10.6796 0.333328 6.99955 0.333328ZM6.33289 12.2867C3.69955 11.96 1.66622 9.71999 1.66622 6.99999C1.66622 6.58666 1.71955 6.19333 1.80622 5.80666L4.99955 8.99999V9.66666C4.99955 10.4 5.59955 11 6.33289 11V12.2867ZM10.9329 10.5933C10.7596 10.0533 10.2662 9.66666 9.66622 9.66666H8.99955V7.66666C8.99955 7.29999 8.69955 6.99999 8.33289 6.99999H4.33289V5.66666H5.66622C6.03289 5.66666 6.33289 5.36666 6.33289 4.99999V3.66666H7.66622C8.39955 3.66666 8.99955 3.06666 8.99955 2.33333V2.05999C10.9529 2.85333 12.3329 4.76666 12.3329 6.99999C12.3329 8.38666 11.7996 9.64666 10.9329 10.5933Z" fill="#33334F"/>
</svg>
