<svg fill="none" height="30" viewBox="0 0 30 30" width="30" xmlns="http://www.w3.org/2000/svg">
<circle cx="15" cy="15" fill="#F79338" r="15"/>
<g clip-path="url(#clip0)">
<path d="M15 7C13.4178 7 11.871 7.46919 10.5554 8.34824C9.23985 9.22729 8.21447 10.4767 7.60897 11.9385C7.00347 13.4003 6.84504 15.0089 7.15372 16.5607C7.4624 18.1126 8.22433 19.538 9.34315 20.6569C10.462 21.7757 11.8874 22.5376 13.4393 22.8463C14.9911 23.155 16.5997 22.9965 18.0615 22.391C19.5233 21.7855 20.7727 20.7602 21.6518 19.4446C22.5308 18.129 23 16.5823 23 15C22.9976 12.879 22.154 10.8456 20.6542 9.34578C19.1545 7.846 17.121 7.00238 15 7V7ZM11.6667 11.6667C12.1969 11.6673 12.7053 11.8782 13.0802 12.2531C13.4552 12.6281 13.6661 13.1364 13.6667 13.6667H12.3333C12.3333 13.4899 12.2631 13.3203 12.1381 13.1953C12.0131 13.0702 11.8435 13 11.6667 13C11.4899 13 11.3203 13.0702 11.1953 13.1953C11.0702 13.3203 11 13.4899 11 13.6667H9.66667C9.66727 13.1364 9.87817 12.6281 10.2531 12.2531C10.6281 11.8782 11.1364 11.6673 11.6667 11.6667ZM15 20.3333C13.9395 20.3321 12.9228 19.9103 12.1729 19.1604C11.423 18.4106 11.0012 17.3938 11 16.3333C11 16.1565 11.0702 15.987 11.1953 15.8619C11.3203 15.7369 11.4899 15.6667 11.6667 15.6667H18.3333C18.5102 15.6667 18.6797 15.7369 18.8047 15.8619C18.9298 15.987 19 16.1565 19 16.3333C18.9988 17.3938 18.577 18.4106 17.8271 19.1604C17.0772 19.9103 16.0605 20.3321 15 20.3333ZM19 13.6667C19 13.4899 18.9298 13.3203 18.8047 13.1953C18.6797 13.0702 18.5102 13 18.3333 13C18.1565 13 17.987 13.0702 17.8619 13.1953C17.7369 13.3203 17.6667 13.4899 17.6667 13.6667H16.3333C16.3333 13.1362 16.5441 12.6275 16.9191 12.2525C17.2942 11.8774 17.8029 11.6667 18.3333 11.6667C18.8638 11.6667 19.3725 11.8774 19.7476 12.2525C20.1226 12.6275 20.3333 13.1362 20.3333 13.6667H19Z" fill="white"/>
</g>
<defs>
<clipPath id="clip0">
<rect fill="white" height="16" transform="translate(7 7)" width="16"/>
</clipPath>
</defs>
</svg>
