<svg width="32" height="32" viewBox="0 0 32 32" fill="none" xmlns="http://www.w3.org/2000/svg">
<circle cx="16" cy="16" r="16" fill="#EFEFF1"/>
<path d="M16.8332 14.3333H15.1665V11H16.8332V14.3333ZM16.8332 16H15.1665V17.6666H16.8332V16ZM24.3332 9.33329V19.3333C24.3332 19.7753 24.1576 20.1992 23.845 20.5118C23.5325 20.8244 23.1085 21 22.6665 21H10.9998L7.6665 24.3333V9.33329C7.6665 8.89127 7.8421 8.46734 8.15466 8.15478C8.46722 7.84222 8.89114 7.66663 9.33317 7.66663H22.6665C23.1085 7.66663 23.5325 7.84222 23.845 8.15478C24.1576 8.46734 24.3332 8.89127 24.3332 9.33329ZM22.6665 9.33329H9.33317V20.3333L10.3332 19.3333H22.6665V9.33329Z" fill="#707084"/>
</svg>
