<svg width="60" height="60" viewBox="0 0 60 60" fill="none"
     xmlns="http://www.w3.org/2000/svg">
  <path fill-rule="evenodd" clip-rule="evenodd"
        d="M53.3333 0H6.66667C3 0 0 3 0 6.66667V53.3333C0 57 3 60 6.66667 60H53.3333C57 60 60 57 60 53.3333V6.66667C60 3 57 0 53.3333 0ZM53.3333 53.3333H6.66667V6.66667H53.3333V53.3333ZM20 30H13.3334V46.6667H20V30ZM40 13.3335H46.6667V46.6668H40V13.3335ZM33.3333 36.6665H26.6666V46.6665H33.3333V36.6665ZM26.6666 23.3335H33.3333V30.0002H26.6666V23.3335Z"
        fill="#D6D6DC"/>
</svg>
