<svg width="32" height="32" viewBox="0 0 32 32" fill="none" xmlns="http://www.w3.org/2000/svg">
<circle cx="16" cy="16" r="16" fill="#EFEFF1"/>
<path d="M22.6667 10.1667V21.8333H9.33341V10.1667H22.6667ZM22.6667 8.5H9.33341C8.40841 8.5 7.66675 9.24167 7.66675 10.1667V21.8333C7.66675 22.7583 8.40841 23.5 9.33341 23.5H22.6667C23.5917 23.5 24.3334 22.7583 24.3334 21.8333V10.1667C24.3334 9.24167 23.5917 8.5 22.6667 8.5ZM21.0001 18.5H11.0001V20.1667H21.0001V18.5ZM14.3334 11.8333H11.0001V16.8333H14.3334V11.8333ZM16.0001 13.5H21.0001V11.8333H16.0001V13.5ZM21.0001 15.1667H16.0001V16.8333H21.0001V15.1667Z" fill="#707084"/>
</svg>
