<svg width="32" height="32" viewBox="0 0 32 32" fill="none" xmlns="http://www.w3.org/2000/svg">
<circle cx="16" cy="16" r="16" fill="#EFEFF1"/>
<path d="M15.9999 11V13.5L19.3333 10.1667L15.9999 6.83337V9.33337C12.3166 9.33337 9.33325 12.3167 9.33325 16C9.33325 17.3084 9.71659 18.525 10.3666 19.55L11.5833 18.3334C11.2083 17.6417 10.9999 16.8417 10.9999 16C10.9999 13.2417 13.2416 11 15.9999 11ZM21.6333 12.45L20.4166 13.6667C20.7832 14.3667 20.9999 15.1584 20.9999 16C20.9999 18.7584 18.7583 21 15.9999 21V18.5L12.6666 21.8334L15.9999 25.1667V22.6667C19.6833 22.6667 22.6666 19.6834 22.6666 16C22.6666 14.6917 22.2832 13.475 21.6333 12.45Z" fill="#707084"/>
</svg>
