<svg width="14" height="12" viewBox="0 0 14 12" fill="none"
     xmlns="http://www.w3.org/2000/svg">
  <path d="M12.3334 1.33333V10.6667H1.66671V1.33333H12.3334ZM12.3334 0H1.66671C0.926708 0 0.333374 0.593333 0.333374 1.33333V10.6667C0.333374 11.4067 0.926708 12 1.66671 12H12.3334C13.0734 12 13.6667 11.4067 13.6667 10.6667V1.33333C13.6667 0.593333 13.0734 0 12.3334 0ZM11 8H3.00004V9.33333H11V8ZM5.66671 2.66667H3.00004V6.66667H5.66671V2.66667ZM7.00004 4H11V2.66667H7.00004V4ZM11 5.33333H7.00004V6.66667H11V5.33333Z"
        fill="#707084"/>
</svg>
