<svg width="32" height="32" viewBox="0 0 32 32" fill="none" xmlns="http://www.w3.org/2000/svg">
<circle cx="16" cy="16" r="16" fill="#EFEFF1"/>
<path d="M19.7501 16.4167H18.5001V19.75L21.0001 21.4167L21.6251 20.3917L19.7501 19.125V16.4167ZM19.3334 13.5L7.66675 8.5V14.3333L15.1667 16L7.66675 17.6667V23.5L13.7251 20.9083C14.4084 23.3583 16.6584 25.1667 19.3334 25.1667C22.5501 25.1667 25.1667 22.55 25.1667 19.3333C25.1667 16.1167 22.5501 13.5 19.3334 13.5ZM19.3334 23.5C17.0417 23.5 15.1834 21.65 15.1667 19.3583V19.3C15.1834 17.0167 17.0417 15.1583 19.3334 15.1583C21.6334 15.1583 23.5001 17.025 23.5001 19.325C23.5001 21.625 21.6334 23.5 19.3334 23.5Z" fill="#707084"/>
</svg>
