<svg width="15" height="14" viewBox="0 0 15 14" fill="none"
     xmlns="http://www.w3.org/2000/svg">
  <path d="M10 6.33333H9.00004V9L11 10.3333L11.5 9.51333L10 8.5V6.33333ZM9.66671 4L0.333374 0V4.66667L6.33337 6L0.333374 7.33333V12L5.18004 9.92667C5.72671 11.8867 7.52671 13.3333 9.66671 13.3333C12.24 13.3333 14.3334 11.24 14.3334 8.66667C14.3334 6.09333 12.24 4 9.66671 4ZM9.66671 12C7.83337 12 6.34671 10.52 6.33337 8.68667V8.64C6.34671 6.81333 7.83337 5.32667 9.66671 5.32667C11.5067 5.32667 13 6.82 13 8.66C13 10.5 11.5067 12 9.66671 12Z"
        fill="#707084"/>
</svg>
