<svg width="14" height="14" viewBox="0 0 14 14" fill="none"
     xmlns="http://www.w3.org/2000/svg">
  <path d="M7.66671 5.66667H6.33338V3H7.66671V5.66667ZM7.66671 7H6.33338V8.33334H7.66671V7ZM13.6667 1.66667V9.66667C13.6667 10.0203 13.5262 10.3594 13.2762 10.6095C13.0261 10.8595 12.687 11 12.3334 11H3.00004L0.333374 13.6667V1.66667C0.333374 1.31305 0.47385 0.973909 0.723898 0.72386C0.973947 0.473812 1.31309 0.333336 1.66671 0.333336H12.3334C12.687 0.333336 13.0261 0.473812 13.2762 0.72386C13.5262 0.973909 13.6667 1.31305 13.6667 1.66667ZM12.3334 1.66667H1.66671V10.4667L2.46671 9.66667H12.3334V1.66667Z"
        fill="#707084"/>
</svg>
