<svg width="12" height="16" viewBox="0 0 12 16" fill="none"
     xmlns="http://www.w3.org/2000/svg">
  <path d="M5.99996 4V6L8.66662 3.33333L5.99996 0.666668V2.66667C3.05329 2.66667 0.666626 5.05333 0.666626 8C0.666626 9.04667 0.973292 10.02 1.49329 10.84L2.46663 9.86667C2.16663 9.31334 1.99996 8.67334 1.99996 8C1.99996 5.79333 3.79329 4 5.99996 4ZM10.5066 5.16L9.53329 6.13333C9.82662 6.69333 9.99996 7.32667 9.99996 8C9.99996 10.2067 8.20662 12 5.99996 12V10L3.33329 12.6667L5.99996 15.3333V13.3333C8.94662 13.3333 11.3333 10.9467 11.3333 8C11.3333 6.95333 11.0266 5.98 10.5066 5.16Z"
        fill="#707084"/>
</svg>
