<svg width="57" height="56" viewBox="0 0 57 56" fill="none" xmlns="http://www.w3.org/2000/svg">
<g clip-path="url(#clip0)">
<path d="M43.1305 15.6826L25.6717 44.0575C25.4223 44.4622 25.01 44.7389 24.5408 44.8165C10.4048 47.1505 11.3301 47.0083 11.1333 47.0083C10.1277 47.0083 9.34838 46.104 9.51463 45.1009L11.6845 31.9602C11.7622 31.4898 12.04 31.0764 12.4469 30.8282L40.8765 13.4243C41.5109 13.0349 42.3278 13.1235 42.8648 13.6365C42.8747 13.6452 42.8845 13.6551 42.8943 13.6649C43.4302 14.2017 43.5275 15.0362 43.1305 15.6826Z" fill="#DFE7F4"/>
<path d="M43.1292 15.6826L25.6705 44.0575C25.4211 44.4621 25.0088 44.7389 24.5395 44.8165C10.4036 47.1505 11.3289 47.0083 11.132 47.0083C10.6748 47.0083 10.2669 46.8234 9.97266 46.527L42.8635 13.6362C42.8733 13.645 42.8832 13.6548 42.893 13.6647C43.4289 14.2017 43.5263 15.0362 43.1292 15.6826Z" fill="#C7CFE1"/>
<path d="M56.3963 2.21124L36.9755 54.9275C36.5632 56.0474 35.1239 56.3657 34.2751 55.5203C19.6645 40.9096 20.545 41.8764 20.3634 41.3984C19.9325 40.2489 19.7629 40.9238 32.8043 23.6959C15.4778 36.8115 16.5868 36.0296 16.1755 36.1663C15.5926 36.3435 14.9813 36.21 14.5186 35.7638L0.979746 22.2249C0.13209 21.374 0.45584 19.9369 1.57256 19.5245L54.2888 0.103693C54.9439 -0.136932 55.5913 0.0621308 56.0146 0.485412C56.4379 0.908693 56.637 1.55619 56.3963 2.21124Z" fill="#7ED8F6"/>
<path d="M56.3934 2.21118L36.9725 54.9274C36.5601 56.0473 35.1209 56.3656 34.2721 55.5202C19.6615 40.9096 20.5419 41.8764 20.3604 41.3984C19.9294 40.2489 19.7599 40.9237 32.8012 23.6958L56.0117 0.485352C56.4349 0.908633 56.634 1.55613 56.3934 2.21118Z" fill="#6AA9FF"/>
</g>
<defs>
<clipPath id="clip0">
<rect width="56" height="56" fill="white" transform="translate(0.5)"/>
</clipPath>
</defs>
</svg>
