<svg width="16" height="16" viewBox="0 0 16 16" fill="none" xmlns="http://www.w3.org/2000/svg">
<path d="M7.3346 4.66646H8.66793V5.9998H7.3346V4.66646ZM7.3346 7.33313H8.66793V11.3331H7.3346V7.33313ZM8.00126 1.33313C4.32126 1.33313 1.33459 4.3198 1.33459 7.9998C1.33459 11.6798 4.32126 14.6665 8.00126 14.6665C11.6813 14.6665 14.6679 11.6798 14.6679 7.9998C14.6679 4.3198 11.6813 1.33313 8.00126 1.33313ZM8.00126 13.3331C5.06126 13.3331 2.66793 10.9398 2.66793 7.9998C2.66793 5.0598 5.06126 2.66646 8.00126 2.66646C10.9413 2.66646 13.3346 5.0598 13.3346 7.9998C13.3346 10.9398 10.9413 13.3331 8.00126 13.3331Z" fill="#9999A7"/>
</svg>
