<svg fill="none" height="30" viewBox="0 0 30 30" width="30" xmlns="http://www.w3.org/2000/svg">
<circle cx="15" cy="15" fill="#5ACAB4" r="15"/>
<path d="M17.2114 15.3501V15.4749C17.2114 16.4114 16.4385 17.1761 15.4921 17.1761C14.5457 17.1761 13.7729 16.4114 13.7729 15.4749V15.3501L8.31546 14.3043C8.20505 14.2887 8.09464 14.2575 8 14.1951V18.9086C8 20.0635 8.94637 21 10.1136 21H20.8864C22.0536 21 23 20.0635 23 18.9086V14.1951C22.9054 14.2419 22.795 14.2731 22.6845 14.3043L17.2114 15.3501Z" fill="white"/>
<path d="M20.9022 9.96544H18.9779V9.18506C18.9779 7.98328 17.9842 7 16.7697 7H14.2145C13 7 12.0063 7.98328 12.0063 9.18506V9.96544H10.082C8.9306 9.96544 8 10.8863 8 12.0256V12.8997C8 13.1806 8.20505 13.4147 8.47319 13.4771L13.7729 14.4916C13.7886 13.5708 14.5457 12.8372 15.4921 12.8372C16.4227 12.8372 17.1956 13.5708 17.2114 14.4916L22.4953 13.4771C22.7792 13.4147 22.9842 13.1806 22.9842 12.8997V12.01C22.9842 10.8863 22.0536 9.96544 20.9022 9.96544ZM13.6309 9.16945C13.6309 8.8573 13.8991 8.60758 14.1987 8.60758H16.7697C17.0852 8.60758 17.3375 8.87291 17.3375 9.16945V9.94983H13.6309V9.16945Z" fill="white"/>
<path d="M16.3596 15.4749V14.5385C16.3596 14.0702 15.9653 13.68 15.4921 13.68C15.0189 13.68 14.6246 14.0702 14.6246 14.5385V15.4749C14.6246 15.9431 15.0189 16.3333 15.4921 16.3333C15.9653 16.3333 16.3596 15.9431 16.3596 15.4749Z" fill="white"/>
</svg>
