<svg fill="none" height="30" viewBox="0 0 30 30" width="30" xmlns="http://www.w3.org/2000/svg">
<circle cx="15" cy="15" fill="#8D73CC" r="15"/>
<g clip-path="url(#clip0)">
<path d="M11.4509 11.8627C11.7975 11.8627 12.0784 11.5818 12.0784 11.2353C12.0784 10.8888 11.7975 10.6078 11.4509 10.6078C11.1044 10.6078 10.8235 10.8888 10.8235 11.2353C10.8235 11.5818 11.1044 11.8627 11.4509 11.8627Z" fill="white"/>
<path d="M21.647 12.6471H23.0587V13.5882H21.647V12.6471Z" fill="white"/>
<path d="M21.647 10.7647H23.9999V11.7059H21.647V10.7647Z" fill="white"/>
<path d="M21.647 8.88236H23.0587V9.82353H21.647V8.88236Z" fill="white"/>
<path d="M17.8823 9.04756V13.423L20.7059 14.2073V8.26325L17.8823 9.04756Z" fill="white"/>
<path d="M16.9412 9.03338C15.7262 8.67875 12.9948 7.94118 11.2941 7.94118C9.47774 7.94118 8 9.41892 8 11.2353C8 13.0517 9.47774 14.5294 11.2941 14.5294C12.9985 14.5294 15.727 13.7922 16.9412 13.4374V9.03338ZM11.451 12.8039C10.586 12.8039 9.88235 12.1002 9.88235 11.2353C9.88235 10.3704 10.586 9.66667 11.451 9.66667C12.3159 9.66667 13.0196 10.3704 13.0196 11.2353C13.0196 12.1002 12.3159 12.8039 11.451 12.8039Z" fill="white"/>
<path d="M13.4652 15.2404C12.6951 15.3766 11.9322 15.4706 11.2941 15.4706C10.6495 15.4706 10.0162 15.3198 9.44165 15.0364L9.94069 18.8245C10.009 19.432 10.4266 19.9212 10.9804 20.1015V22.0588H11.9216V20.1027C12.4747 19.9242 12.8937 19.4374 12.965 18.8326L13.2366 16.8824H14.1177V15.9412H13.3676L13.4652 15.2404Z" fill="white"/>
</g>
<defs>
<clipPath id="clip0">
<rect fill="white" height="16" transform="translate(8 7)" width="16"/>
</clipPath>
</defs>
</svg>
