<svg fill="none" height="30" viewBox="0 0 30 30" width="30" xmlns="http://www.w3.org/2000/svg">
<circle cx="15" cy="15" fill="#5ACAB4" r="15"/>
<path d="M21.4625 12.845H17.4225V8.5375C17.4225 8.39495 17.3659 8.25823 17.2651 8.15743C17.1643 8.05663 17.0276 8 16.885 8H13.385C13.2424 8 13.1057 8.05663 13.0049 8.15743C12.9041 8.25823 12.8475 8.39495 12.8475 8.5375V12.845H8.53751C8.46671 12.845 8.39661 12.859 8.33123 12.8862C8.26586 12.9133 8.20649 12.9531 8.15655 13.0033C8.1066 13.0535 8.06707 13.113 8.0402 13.1785C8.01334 13.244 7.99968 13.3142 8.00001 13.385V16.885C8.00001 17.0276 8.05664 17.1643 8.15744 17.2651C8.25824 17.3659 8.39495 17.4225 8.53751 17.4225H12.845V21.4625C12.845 21.5333 12.859 21.6034 12.8862 21.6688C12.9133 21.7341 12.9531 21.7935 13.0033 21.8435C13.0535 21.8934 13.113 21.9329 13.1785 21.9598C13.244 21.9867 13.3142 22.0003 13.385 22H16.885C17.0276 22 17.1643 21.9434 17.2651 21.8426C17.3659 21.7418 17.4225 21.605 17.4225 21.4625V17.4225H21.4625C21.605 17.4225 21.7418 17.3659 21.8426 17.2651C21.9434 17.1643 22 17.0276 22 16.885V13.385C22.0003 13.3142 21.9867 13.244 21.9598 13.1785C21.9329 13.113 21.8934 13.0535 21.8435 13.0033C21.7935 12.9531 21.7341 12.9133 21.6688 12.8862C21.6034 12.859 21.5333 12.845 21.4625 12.845Z" fill="white"/>
</svg>
