<svg fill="none" height="30" viewBox="0 0 30 30" width="30" xmlns="http://www.w3.org/2000/svg">
<circle cx="15" cy="15" fill="#40C3EB" r="15"/>
<path d="M11.6307 14.3866C11.3846 13.8953 11.2521 13.3285 11.2521 12.7427C11.2521 11.5523 11.8011 10.4942 12.6718 9.81395C12.3311 8.75581 11.3468 8 10.1921 8C8.75355 8 7.57997 9.17151 7.57997 10.6076C7.57997 11.439 7.97747 12.1948 8.60212 12.6672C7.37175 12.9506 6.40639 13.9709 6.25496 15.2936L6.00889 17.2209C5.93317 17.8445 6.3496 18.4113 6.93639 18.5436C7.82604 18.7326 8.77247 18.827 9.71891 18.8459L9.90819 17.2776C10.0596 16.1061 10.7032 15.0669 11.6307 14.3866Z" fill="white"/>
<path d="M23.9911 17.2209L23.764 15.2936C23.6125 13.9898 22.6472 12.9695 21.3979 12.686C22.0225 12.2137 22.42 11.4578 22.42 10.6265C22.42 9.19041 21.2465 8.0189 19.8079 8.0189C18.6532 8.0189 17.6689 8.77471 17.3282 9.83285C18.1989 10.5131 18.7479 11.5712 18.7479 12.7616C18.7479 13.3474 18.6154 13.8953 18.3693 14.4055C19.2968 15.0858 19.9404 16.125 20.0729 17.2965L20.2622 18.8459C21.2086 18.8081 22.155 18.7137 23.0447 18.5436C23.6504 18.4113 24.0668 17.8445 23.9911 17.2209Z" fill="white"/>
<path d="M18.9372 17.4288C18.7857 16.125 17.8204 15.1047 16.5711 14.8212C17.1957 14.3488 17.5932 13.593 17.5932 12.7616C17.6122 11.3256 16.4386 10.1541 15 10.1541C13.5614 10.1541 12.3878 11.3256 12.3878 12.7616C12.3878 13.593 12.7854 14.3488 13.41 14.8212C12.1796 15.1047 11.2143 16.125 11.0439 17.4288L10.8168 19.375C10.7411 19.9985 11.1575 20.5654 11.7443 20.6788C12.7854 20.8866 13.8832 21 14.9811 21C16.0979 21 17.1768 20.8866 18.2179 20.6788C18.8236 20.5654 19.2211 19.9797 19.1454 19.375L18.9372 17.4288Z" fill="white"/>
</svg>
