<svg fill="none" height="30" viewBox="0 0 30 30" width="30" xmlns="http://www.w3.org/2000/svg">
<circle cx="15" cy="15" fill="#8D73CC" r="15"/>
<path d="M20.5809 19.4958C20.2756 19.6019 19.9982 19.7758 19.7697 20.0044C19.5412 20.233 19.3673 20.5103 19.2613 20.8157L18.8602 21.9698C18.8576 21.9787 18.8522 21.9865 18.8448 21.992C18.8374 21.9976 18.8284 22.0005 18.8191 22.0005C18.8099 22.0005 18.8009 21.9976 18.7935 21.992C18.7861 21.9865 18.7807 21.9787 18.7781 21.9698L18.378 20.8157C18.2718 20.5102 18.0978 20.2328 17.8691 20.0042C17.6404 19.7756 17.3629 19.6018 17.0574 19.4958L15.9038 19.0949C15.8954 19.092 15.8881 19.0865 15.8829 19.0793C15.8778 19.072 15.875 19.0634 15.875 19.0545C15.875 19.0456 15.8778 19.0369 15.8829 19.0296C15.8881 19.0224 15.8954 19.0169 15.9038 19.014L17.0574 18.6131C17.3629 18.5071 17.6404 18.3333 17.8691 18.1047C18.0978 17.8762 18.2718 17.5987 18.378 17.2932L18.7781 16.1391C18.7807 16.1302 18.7861 16.1224 18.7935 16.1169C18.8009 16.1114 18.8099 16.1084 18.8191 16.1084C18.8284 16.1084 18.8374 16.1114 18.8448 16.1169C18.8522 16.1224 18.8576 16.1302 18.8602 16.1391L19.2613 17.2932C19.3673 17.5986 19.5412 17.876 19.7697 18.1045C19.9982 18.3331 20.2756 18.507 20.5809 18.6131L21.7355 19.014C21.7439 19.0169 21.7512 19.0224 21.7563 19.0296C21.7615 19.0369 21.7643 19.0456 21.7643 19.0545C21.7643 19.0634 21.7615 19.072 21.7563 19.0793C21.7512 19.0865 21.7439 19.092 21.7355 19.0949L20.5809 19.4958Z" fill="white"/>
<path d="M21.5112 11.2327C21.1295 11.3653 20.7828 11.5826 20.4971 11.8683C20.2114 12.1541 19.9941 12.5008 19.8615 12.8825L19.3603 14.3252C19.3567 14.3359 19.3499 14.3452 19.3408 14.3518C19.3317 14.3584 19.3207 14.362 19.3094 14.362C19.2981 14.362 19.2872 14.3584 19.278 14.3518C19.2689 14.3452 19.2621 14.3359 19.2586 14.3252L18.7574 12.8825C18.6248 12.5008 18.4074 12.154 18.1217 11.8683C17.8359 11.5826 17.4892 11.3653 17.1075 11.2327L15.6648 10.7315C15.6543 10.7279 15.6452 10.7211 15.6388 10.712C15.6324 10.703 15.6289 10.6921 15.6289 10.681C15.6289 10.6699 15.6324 10.6591 15.6388 10.65C15.6452 10.641 15.6543 10.6341 15.6648 10.6304L17.1075 10.1293C17.4892 9.99672 17.8359 9.77945 18.1217 9.49372C18.4074 9.20799 18.6248 8.86125 18.7574 8.47953L19.2586 7.0368C19.2621 7.0261 19.2689 7.01675 19.278 7.01014C19.2872 7.00353 19.2981 7 19.3094 7C19.3207 7 19.3317 7.00353 19.3408 7.01014C19.3499 7.01675 19.3567 7.0261 19.3603 7.0368L19.8615 8.47953C19.9941 8.86123 20.2114 9.20795 20.4971 9.49368C20.7828 9.7794 21.1295 9.99669 21.5112 10.1293L22.9538 10.6304C22.9643 10.6341 22.9734 10.641 22.9798 10.65C22.9863 10.6591 22.9897 10.6699 22.9897 10.681C22.9897 10.6921 22.9863 10.703 22.9798 10.712C22.9734 10.7211 22.9643 10.7279 22.9538 10.7315L21.5112 11.2327Z" fill="white"/>
<path d="M15.1696 15.7356C14.6395 15.9197 14.158 16.2216 13.7612 16.6184C13.3644 17.0153 13.0626 17.4968 12.8785 18.027L12.1821 20.0307C12.1771 20.0455 12.1676 20.0582 12.155 20.0673C12.1424 20.0763 12.1272 20.0812 12.1117 20.0812C12.0961 20.0812 12.081 20.0763 12.0684 20.0673C12.0557 20.0582 12.0463 20.0455 12.0413 20.0307L11.3449 18.027C11.1608 17.4968 10.859 17.0153 10.4622 16.6184C10.0654 16.2216 9.58387 15.9197 9.05377 15.7356L7.0499 15.0395C7.03533 15.0345 7.02269 15.0249 7.01375 15.0124C7.0048 14.9998 7 14.9848 7 14.9693C7 14.9539 7.0048 14.9388 7.01375 14.9263C7.02269 14.9137 7.03533 14.9042 7.0499 14.8991L9.05377 14.2031C9.58387 14.0189 10.0654 13.7171 10.4622 13.3202C10.859 12.9234 11.1608 12.4418 11.3449 11.9117L12.0413 9.90789C12.0463 9.89318 12.0557 9.88043 12.0684 9.87138C12.081 9.86233 12.0961 9.85742 12.1117 9.85742C12.1272 9.85742 12.1424 9.86233 12.155 9.87138C12.1676 9.88043 12.1771 9.89318 12.1821 9.90789L12.8785 11.9117C13.0626 12.4418 13.3644 12.9234 13.7612 13.3202C14.158 13.7171 14.6395 14.0189 15.1696 14.2031L17.1735 14.8991C17.188 14.9042 17.2007 14.9137 17.2096 14.9263C17.2186 14.9388 17.2234 14.9539 17.2234 14.9693C17.2234 14.9848 17.2186 14.9998 17.2096 15.0124C17.2007 15.0249 17.188 15.0345 17.1735 15.0395L15.1696 15.7356Z" fill="white"/>
</svg>
