<svg width="30" height="30" viewBox="0 0 30 30" fill="none" xmlns="http://www.w3.org/2000/svg">
<circle cx="15" cy="15" fill="#8D73CC" r="15"/>
<path d="M11.1335 15.0616C12.0325 15.0616 12.7613 14.3382 12.7613 13.4458C12.7613 12.5533 12.0325 11.8299 11.1335 11.8299C10.2344 11.8299 9.50562 12.5533 9.50562 13.4458C9.50562 14.3382 10.2344 15.0616 11.1335 15.0616Z" fill="white"/>
<path d="M14.4068 14.7952L12.7074 15.3279C12.3854 15.4344 12.0634 15.4699 11.7235 15.4699H10.364C9.9168 15.4699 9.50536 15.6298 9.16548 15.9316L7.21562 17.6895C6.94729 17.9381 6.9294 18.3643 7.16196 18.6306C7.28718 18.7727 7.48395 18.8437 7.66284 18.8437C7.82383 18.8437 7.98483 18.7905 8.11005 18.6662L9.30859 17.583V22.324C9.30859 22.6969 9.61269 22.981 9.97046 22.981C10.3461 22.981 10.6323 22.6792 10.6323 22.324V19.696C10.6323 19.6073 10.7039 19.5185 10.8112 19.5185H11.4194C11.5089 19.5185 11.5983 19.5895 11.5983 19.696V22.3418C11.5983 22.7147 11.9024 22.9988 12.2602 22.9988C12.618 22.9988 12.9221 22.6969 12.9221 22.3418V16.6241C12.9757 16.6064 13.0115 16.6064 13.0652 16.5886L14.5321 16.1269C14.4247 15.9671 14.3353 15.7718 14.2995 15.5765C14.2816 15.3279 14.2995 15.0438 14.4068 14.7952Z" fill="white"/>
<path d="M23.8341 14.8307L21.7769 11.8298C21.4192 11.2971 20.8109 10.9775 20.167 10.9775H18.8253C18.1813 10.9775 17.5731 11.2971 17.2153 11.8298L15.1403 14.8307C14.9077 15.1503 14.9256 15.612 15.2297 15.8784C15.6054 16.2335 16.1778 16.1447 16.4461 15.7541L17.7341 13.8718L16.5356 17.512C16.4104 17.8671 16.6787 18.24 17.0722 18.24H17.5552L17.3585 22.1287C17.3406 22.5194 17.591 22.8923 17.9846 22.981C18.4854 23.0876 18.9326 22.7324 18.9505 22.2353L19.1473 18.311C19.1473 18.2578 19.1831 18.2222 19.2368 18.2222H19.7734C19.8271 18.2222 19.8629 18.2578 19.8629 18.311L20.0596 22.2353C20.0775 22.6614 20.4353 22.9988 20.8646 22.9988C20.8825 22.9988 20.8825 22.9988 20.9004 22.9988C21.3476 22.981 21.6875 22.6081 21.6517 22.1642L21.4549 18.24H21.9379C22.3136 18.24 22.5998 17.8671 22.4746 17.512L21.2761 13.8718L22.564 15.7541C22.725 15.9849 22.9755 16.1092 23.2259 16.1092C23.4048 16.1092 23.5837 16.0559 23.7447 15.9316C24.0488 15.6653 24.0846 15.1681 23.8341 14.8307Z" fill="white"/>
<path d="M19.4872 10.5158C20.4653 10.5158 21.2582 9.72878 21.2582 8.75791C21.2582 7.78704 20.4653 7 19.4872 7C18.5091 7 17.7162 7.78704 17.7162 8.75791C17.7162 9.72878 18.5091 10.5158 19.4872 10.5158Z" fill="white"/>
</svg>
