<svg width="16" height="10" viewBox="0 0 16 10" fill="none" xmlns="http://www.w3.org/2000/svg">
<path d="M10.6662 4.33333C11.7729 4.33333 12.6595 3.43999 12.6595 2.33333C12.6595 1.22666 11.7729 0.333328 10.6662 0.333328C9.55953 0.333328 8.6662 1.22666 8.6662 2.33333C8.6662 3.43999 9.55953 4.33333 10.6662 4.33333ZM5.33286 4.33333C6.43953 4.33333 7.3262 3.43999 7.3262 2.33333C7.3262 1.22666 6.43953 0.333328 5.33286 0.333328C4.2262 0.333328 3.33286 1.22666 3.33286 2.33333C3.33286 3.43999 4.2262 4.33333 5.33286 4.33333ZM5.33286 5.66666C3.77953 5.66666 0.666199 6.44666 0.666199 7.99999V8.99999C0.666199 9.36666 0.966199 9.66666 1.33287 9.66666H9.33286C9.69953 9.66666 9.99953 9.36666 9.99953 8.99999V7.99999C9.99953 6.44666 6.8862 5.66666 5.33286 5.66666ZM10.6662 5.66666C10.4729 5.66666 10.2529 5.67999 10.0195 5.69999C10.0329 5.70666 10.0395 5.71999 10.0462 5.72666C10.8062 6.27999 11.3329 7.01999 11.3329 7.99999V8.99999C11.3329 9.23333 11.2862 9.45999 11.2129 9.66666H14.6662C15.0329 9.66666 15.3329 9.36666 15.3329 8.99999V7.99999C15.3329 6.44666 12.2195 5.66666 10.6662 5.66666Z" fill="#33334F"/>
</svg>
