<svg width="30" height="30" viewBox="0 0 30 30" fill="none" xmlns="http://www.w3.org/2000/svg">
<circle cx="15" cy="15" fill="#F79338" r="15"/>
<circle cx="15" cy="15" fill="#8D73CC" r="15"/>
<path clip-rule="evenodd" d="M22.3194 21.0896H23.5V23H6.5V21.0896H7.68056V19.4179H9.33333V13.6866H7.68056V11.863L15 7L22.3194 11.863V13.6866H20.6667V19.4179H22.3194V21.0896ZM18.7778 13.6866H15.9444V19.4179H18.7778V13.6866ZM14.0556 13.6866H11.2222V19.4179H14.0556V13.6866Z" fill="white" fill-rule="evenodd"/>
<path clip-rule="evenodd" d="M22.3194 21.0896H23.5V23H6.5V21.0896H7.68056V19.4179H9.33333V13.6866H7.68056V11.863L15 7L22.3194 11.863V13.6866H20.6667V19.4179H22.3194V21.0896ZM18.7778 13.6866H15.9444V19.4179H18.7778V13.6866ZM14.0556 13.6866H11.2222V19.4179H14.0556V13.6866Z" fill="white" fill-rule="evenodd"/>
</svg>
