<svg fill="none" height="30" viewBox="0 0 30 30" width="30" xmlns="http://www.w3.org/2000/svg">
<circle cx="15" cy="15" fill="#8D73CC" r="15"/>
<g clip-path="url(#clip0)">
<path d="M21.7354 17.2424L20.5624 10.8317C20.4911 10.4422 20.1769 10.1621 19.8098 10.1621C19.2863 10.1621 18.9545 10.1621 18.4828 10.1621C18.1166 10.1621 17.8014 10.443 17.7303 10.8317L17.3535 12.8908L17.4685 12.8573L18.2773 12.0486L17.5398 13.245L15.9224 13.7171C16.1824 14.0193 16.2576 14.4571 16.0784 14.842C16.0456 14.9125 16.0057 14.9775 15.9603 15.0368C16.0373 15.0238 15.9212 15.0512 18.1358 14.4068C18.2882 14.3623 18.4187 14.2629 18.502 14.1277L19.3688 12.7214L18.8358 14.3335C18.7057 14.7269 18.3191 14.748 18.2457 14.7832L16.9374 15.1651L16.5573 17.2424C16.5173 17.461 16.672 17.6641 16.8773 17.6641H17.3922L17.0863 18.8187C17.0721 18.8724 17.0637 18.9274 17.0613 18.9829L16.9244 22.1979C16.9058 22.6346 17.2545 23 17.6936 23C18.1034 22.9999 18.4441 22.6767 18.4617 22.2633L18.5951 19.1319L18.9839 17.6641H19.2519V22.2306C19.2519 22.6555 19.5964 22.9999 20.0213 22.9999C20.4462 22.9999 20.7906 22.6555 20.7906 22.2306V17.6641H21.4154C21.6195 17.6641 21.7754 17.4614 21.7354 17.2424Z" fill="white"/>
<path d="M19.1464 9.67309C19.8734 9.67309 20.4627 9.08375 20.4627 8.35677C20.4627 7.62979 19.8734 7.04045 19.1464 7.04045C18.4194 7.04045 17.8301 7.62979 17.8301 8.35677C17.8301 9.08375 18.4194 9.67309 19.1464 9.67309Z" fill="white"/>
<path d="M15.4102 13.7974L13.2676 12.8001L12.3361 11.6L13.0064 12.1503V11.873C13.0064 10.9093 12.2252 10.128 11.2615 10.128C10.2933 10.128 9.50854 10.9129 9.50854 11.881V16.1431L9.98227 18.6177L8.34154 21.8716C8.14808 22.2553 8.30228 22.7231 8.68594 22.9166C9.06796 23.1092 9.53662 22.9575 9.73089 22.5722L11.4913 19.0809C11.5689 18.927 11.5932 18.7517 11.5604 18.5825L11.0873 16.1431H11.3864L12.0283 18.7017L11.4859 22.0993C11.4182 22.5236 11.7072 22.9225 12.1315 22.9902C12.5547 23.0578 12.9545 22.7699 13.0224 22.3446L13.5899 18.7896C13.6065 18.6858 13.6019 18.5796 13.5763 18.4776L12.9906 16.1431H13.0064V14.5666L12.3993 14.284C12.3218 14.2368 12.1188 14.2004 12.0142 13.9769L11.2854 12.4156L12.3156 13.7429C12.3805 13.8265 12.4644 13.8934 12.5604 13.938L14.8489 15.0033C15.1837 15.1591 15.5783 15.0122 15.7325 14.681C15.8874 14.348 15.7432 13.9524 15.4102 13.7974Z" fill="white"/>
<path d="M12.6568 9.5848C13.3229 9.21827 13.5658 8.38113 13.1993 7.71498C12.8327 7.04884 11.9956 6.80596 11.3294 7.17249C10.6633 7.53902 10.4204 8.37617 10.787 9.04231C11.1535 9.70845 11.9906 9.95133 12.6568 9.5848Z" fill="white"/>
</g>
<defs>
<clipPath id="clip0">
<rect fill="white" height="16" transform="translate(7 7)" width="16"/>
</clipPath>
</defs>
</svg>
