<svg width="30" height="30" viewBox="0 0 30 30" fill="none" xmlns="http://www.w3.org/2000/svg">
<circle cx="15" cy="15" fill="#F79338" r="15"/>
<path d="M20.3242 9.03385C19.1041 7.91039 17.5548 7.25181 16.0056 7.05811C15.9668 8.7433 16.5478 10.4091 17.671 11.6875L20.3242 9.03385Z" fill="white"/>
<path d="M22.9385 13.9732C22.7449 12.4236 22.0864 10.8934 20.9632 9.65368L18.3101 12.3074C19.5882 13.4115 21.2343 14.0119 22.9385 13.9732Z" fill="white"/>
<path d="M17.0513 12.3267C15.7538 10.8546 15.0566 8.95637 15.1147 7C15.076 7 15.0179 7 14.9792 7C13.0426 7 11.1447 7.67795 9.63418 9.03385L14.9985 14.38L17.0513 12.3267Z" fill="white"/>
<path d="M12.326 17.053L14.3788 14.9998L9.03383 9.65368C7.63949 11.2033 6.98105 13.179 7.00041 15.1354C8.97574 15.0579 10.8542 15.7746 12.326 17.053Z" fill="white"/>
<path d="M22.7449 14.8642C20.8664 14.8642 19.0847 14.1863 17.671 12.9272L15.6182 14.9998L20.9632 20.3459C22.3576 18.7963 23.0547 16.8206 22.9966 14.8642C22.9192 14.8642 22.8224 14.8642 22.7449 14.8642Z" fill="white"/>
<path d="M12.9457 17.6728C14.2433 19.145 14.9404 21.0432 14.8823 22.9996C16.8383 23.019 18.8136 22.3604 20.3629 20.9657L14.9985 15.6196L12.9457 17.6728Z" fill="white"/>
<path d="M7.05851 16.007C7.25217 17.5954 7.91061 19.1062 9.03383 20.3459L11.687 17.6728C10.4088 16.5494 8.76271 15.9683 7.05851 16.007Z" fill="white"/>
<path d="M9.65354 20.9657C10.893 22.0892 12.4422 22.7478 13.9915 22.9415C14.0302 21.2369 13.4493 19.5905 12.3067 18.3121L9.65354 20.9657Z" fill="white"/>
</svg>
