<svg fill="none" height="30" viewBox="0 0 30 30" width="30" xmlns="http://www.w3.org/2000/svg">
<circle cx="15" cy="15" fill="#F79338" r="15"/>
<circle cx="15" cy="15" fill="#5ACAB4" r="15"/>
<g clip-path="url(#clip0)">
<path d="M21.794 13.1662L20.6719 9.42578C20.416 8.57275 19.646 8 18.7559 8H11.2441C10.354 8 9.58398 8.57275 9.32812 9.42578L8.20599 13.1662C7.49743 13.4741 7 14.1793 7 15V19C7 19.5522 7.44775 20 8 20H8.00006L8 20.9999C8 21.5522 8.44769 22 9 22H10.0001C10.5523 22 11.0001 21.5522 11.0001 21L10.9996 20H19L18.9999 20.9999C18.9999 21.5522 19.4476 22 19.9999 22H21C21.5523 22 22 21.5522 22 21V20.0001L21.9996 20H22C22.5522 20 23 19.5522 23 19V15C23 14.1793 22.5026 13.4741 21.794 13.1662L21.794 13.1662ZM11.2441 10H18.7558L19.6559 13H10.3441L11.2441 10H11.2441ZM11 17.5C10.4477 17.5 9.99997 17.0522 9.99997 16.5C9.99997 15.9477 10.4477 15.5 11 15.5C11.5523 15.5 12 15.9477 12 16.5C12 17.0522 11.5523 17.5 11 17.5ZM19 17.5C18.4477 17.5 18 17.0522 18 16.5C18 15.9477 18.4477 15.5 19 15.5C19.5523 15.5 20 15.9477 20 16.5C20 17.0522 19.5523 17.5 19 17.5Z" fill="white"/>
</g>
<defs>
<clipPath id="clip0">
<rect fill="white" height="16" transform="translate(7 7)" width="16"/>
</clipPath>
</defs>
</svg>
