<svg width="587" height="390" viewBox="0 0 587 390" fill="none" xmlns="http://www.w3.org/2000/svg">
<g opacity="0.34">
<circle cx="418.153" cy="113.847" r="1.1533" fill="#33334F"/>
<circle cx="418.153" cy="101.325" r="1.1533" fill="#33334F"/>
<circle cx="418.153" cy="88.8037" r="1.1533" fill="#33334F"/>
<circle cx="418.153" cy="76.2824" r="1.1533" fill="#33334F"/>
<circle cx="418.153" cy="63.7607" r="1.1533" fill="#33334F"/>
<circle cx="418.153" cy="51.2392" r="1.1533" fill="#33334F"/>
<circle cx="418.153" cy="38.7178" r="1.1533" fill="#33334F"/>
<circle cx="418.153" cy="26.1963" r="1.1533" fill="#33334F"/>
<circle cx="418.153" cy="13.6745" r="1.1533" fill="#33334F"/>
<circle cx="418.153" cy="1.1533" r="1.1533" fill="#33334F"/>
<circle cx="430.677" cy="113.847" r="1.1533" fill="#33334F"/>
<circle cx="430.677" cy="101.325" r="1.1533" fill="#33334F"/>
<circle cx="430.677" cy="88.8037" r="1.1533" fill="#33334F"/>
<circle cx="430.677" cy="76.2824" r="1.1533" fill="#33334F"/>
<circle cx="430.677" cy="63.7607" r="1.1533" fill="#33334F"/>
<circle cx="430.677" cy="51.2392" r="1.1533" fill="#33334F"/>
<circle cx="430.677" cy="38.7178" r="1.1533" fill="#33334F"/>
<circle cx="430.677" cy="26.1963" r="1.1533" fill="#33334F"/>
<circle cx="430.677" cy="13.6745" r="1.1533" fill="#33334F"/>
<circle cx="430.677" cy="1.1533" r="1.1533" fill="#33334F"/>
<circle cx="443.196" cy="113.847" r="1.1533" fill="#33334F"/>
<circle cx="443.196" cy="101.325" r="1.1533" fill="#33334F"/>
<circle cx="443.196" cy="88.8037" r="1.1533" fill="#33334F"/>
<circle cx="443.196" cy="76.2824" r="1.1533" fill="#33334F"/>
<circle cx="443.196" cy="63.7607" r="1.1533" fill="#33334F"/>
<circle cx="443.196" cy="51.2392" r="1.1533" fill="#33334F"/>
<circle cx="443.196" cy="38.7178" r="1.1533" fill="#33334F"/>
<circle cx="443.196" cy="26.1963" r="1.1533" fill="#33334F"/>
<circle cx="443.196" cy="13.6745" r="1.1533" fill="#33334F"/>
<circle cx="443.196" cy="1.1533" r="1.1533" fill="#33334F"/>
<circle cx="455.716" cy="113.847" r="1.1533" fill="#33334F"/>
<circle cx="455.716" cy="101.325" r="1.1533" fill="#33334F"/>
<circle cx="455.716" cy="88.8037" r="1.1533" fill="#33334F"/>
<circle cx="455.716" cy="76.2824" r="1.1533" fill="#33334F"/>
<circle cx="455.716" cy="63.7607" r="1.1533" fill="#33334F"/>
<circle cx="455.716" cy="51.2392" r="1.1533" fill="#33334F"/>
<circle cx="455.716" cy="38.7178" r="1.1533" fill="#33334F"/>
<circle cx="455.716" cy="26.1963" r="1.1533" fill="#33334F"/>
<circle cx="455.716" cy="13.6745" r="1.1533" fill="#33334F"/>
<circle cx="455.716" cy="1.1533" r="1.1533" fill="#33334F"/>
<circle cx="468.239" cy="113.847" r="1.1533" fill="#33334F"/>
<circle cx="468.239" cy="101.325" r="1.1533" fill="#33334F"/>
<circle cx="468.239" cy="88.8037" r="1.1533" fill="#33334F"/>
<circle cx="468.239" cy="76.2824" r="1.1533" fill="#33334F"/>
<circle cx="468.239" cy="63.7607" r="1.1533" fill="#33334F"/>
<circle cx="468.239" cy="51.2392" r="1.1533" fill="#33334F"/>
<circle cx="468.239" cy="38.7178" r="1.1533" fill="#33334F"/>
<circle cx="468.239" cy="26.1963" r="1.1533" fill="#33334F"/>
<circle cx="468.239" cy="13.6745" r="1.1533" fill="#33334F"/>
<circle cx="468.239" cy="1.1533" r="1.1533" fill="#33334F"/>
<circle cx="480.759" cy="113.847" r="1.1533" fill="#33334F"/>
<circle cx="480.759" cy="101.325" r="1.1533" fill="#33334F"/>
<circle cx="480.759" cy="88.8037" r="1.1533" fill="#33334F"/>
<circle cx="480.759" cy="76.2824" r="1.1533" fill="#33334F"/>
<circle cx="480.759" cy="63.7607" r="1.1533" fill="#33334F"/>
<circle cx="480.759" cy="51.2392" r="1.1533" fill="#33334F"/>
<circle cx="480.759" cy="38.7178" r="1.1533" fill="#33334F"/>
<circle cx="480.759" cy="26.1963" r="1.1533" fill="#33334F"/>
<circle cx="480.759" cy="13.6745" r="1.1533" fill="#33334F"/>
<circle cx="480.759" cy="1.1533" r="1.1533" fill="#33334F"/>
<circle cx="493.282" cy="113.847" r="1.1533" fill="#33334F"/>
<circle cx="493.282" cy="101.325" r="1.1533" fill="#33334F"/>
<circle cx="493.282" cy="88.8037" r="1.1533" fill="#33334F"/>
<circle cx="493.282" cy="76.2824" r="1.1533" fill="#33334F"/>
<circle cx="493.282" cy="63.7607" r="1.1533" fill="#33334F"/>
<circle cx="493.282" cy="51.2392" r="1.1533" fill="#33334F"/>
<circle cx="493.282" cy="38.7178" r="1.1533" fill="#33334F"/>
<circle cx="493.282" cy="26.1963" r="1.1533" fill="#33334F"/>
<circle cx="493.282" cy="13.6745" r="1.1533" fill="#33334F"/>
<circle cx="493.282" cy="1.1533" r="1.1533" fill="#33334F"/>
<circle cx="505.806" cy="113.847" r="1.1533" fill="#33334F"/>
<circle cx="505.806" cy="101.325" r="1.1533" fill="#33334F"/>
<circle cx="505.806" cy="88.8037" r="1.1533" fill="#33334F"/>
<circle cx="505.806" cy="76.2824" r="1.1533" fill="#33334F"/>
<circle cx="505.806" cy="63.7607" r="1.1533" fill="#33334F"/>
<circle cx="505.806" cy="51.2392" r="1.1533" fill="#33334F"/>
<circle cx="505.806" cy="38.7178" r="1.1533" fill="#33334F"/>
<circle cx="505.806" cy="26.1963" r="1.1533" fill="#33334F"/>
<circle cx="505.806" cy="13.6745" r="1.1533" fill="#33334F"/>
<circle cx="505.806" cy="1.1533" r="1.1533" fill="#33334F"/>
<circle cx="518.325" cy="113.847" r="1.1533" fill="#33334F"/>
<circle cx="518.325" cy="101.325" r="1.1533" fill="#33334F"/>
<circle cx="518.325" cy="88.8037" r="1.1533" fill="#33334F"/>
<circle cx="518.325" cy="76.2824" r="1.1533" fill="#33334F"/>
<circle cx="518.325" cy="63.7607" r="1.1533" fill="#33334F"/>
<circle cx="518.325" cy="51.2392" r="1.1533" fill="#33334F"/>
<circle cx="518.325" cy="38.7178" r="1.1533" fill="#33334F"/>
<circle cx="518.325" cy="26.1963" r="1.1533" fill="#33334F"/>
<circle cx="518.325" cy="13.6745" r="1.1533" fill="#33334F"/>
<circle cx="518.325" cy="1.1533" r="1.1533" fill="#33334F"/>
<circle cx="530.849" cy="113.847" r="1.1533" fill="#33334F"/>
<circle cx="530.849" cy="101.325" r="1.1533" fill="#33334F"/>
<circle cx="530.849" cy="88.8037" r="1.1533" fill="#33334F"/>
<circle cx="530.849" cy="76.2824" r="1.1533" fill="#33334F"/>
<circle cx="530.849" cy="63.7607" r="1.1533" fill="#33334F"/>
<circle cx="530.849" cy="51.2392" r="1.1533" fill="#33334F"/>
<circle cx="530.849" cy="38.7178" r="1.1533" fill="#33334F"/>
<circle cx="530.849" cy="26.1963" r="1.1533" fill="#33334F"/>
<circle cx="530.849" cy="13.6745" r="1.1533" fill="#33334F"/>
<circle cx="530.849" cy="1.1533" r="1.1533" fill="#33334F"/>
</g>
<path d="M434.332 62.395H33.8477V350.031H434.332V62.395Z" fill="#00C389"/>
<path d="M139.059 276.213V319.386L114.453 319.486V276.213H139.059Z" fill="#1FDBA3"/>
<path d="M356.271 215.122V319.245L330.816 319.486V215.122H356.271Z" fill="#1FDBA3"/>
<path d="M193.364 236.334V319.294L168.758 319.486V236.334H193.364Z" fill="#1FDBA3"/>
<path d="M247.669 256.698V319.341L223.062 319.486V256.698H247.669Z" fill="#1FDBA3"/>
<path d="M301.97 193.91V319.196L276.516 319.486V193.91H301.97Z" fill="#1FDBA3"/>
<path fill-rule="evenodd" clip-rule="evenodd" d="M346.963 144.03C347.264 144.382 347.407 144.455 347.496 144.933C347.655 145.79 346.913 146.736 346.004 146.745C345.519 146.749 345.419 146.624 345.016 146.396L289.496 100.7L232.732 198.509L175.574 166.413L119.482 228.977L119.063 229.306C118.623 229.45 118.5 229.553 118.025 229.454C117.338 229.309 116.786 228.619 116.809 227.904C116.825 227.419 116.955 227.325 117.2 226.931L174.932 162.538L231.598 194.358L288.658 96.0398C308.093 112.036 327.528 128.033 346.963 144.03Z" fill="#157E5F"/>
<path d="M118.254 240.185C125.024 240.185 130.512 234.697 130.512 227.927C130.512 221.157 125.024 215.669 118.254 215.669C111.484 215.669 105.996 221.157 105.996 227.927C105.996 234.697 111.484 240.185 118.254 240.185Z" fill="#00C389"/>
<path fill-rule="evenodd" clip-rule="evenodd" d="M118.256 214.866C121.704 214.897 125.112 216.34 127.521 218.807C130.553 221.911 131.872 226.579 130.924 230.805C129.648 236.492 124.2 241.005 118.171 241.005C113.284 241.005 108.519 238.011 106.392 233.6C104.652 229.991 104.699 225.563 106.533 221.986C108.704 217.752 113.328 214.91 118.087 214.866C118.143 214.866 118.199 214.866 118.256 214.866ZM118.097 216.489C113.913 216.527 109.88 219.015 107.977 222.727C106.375 225.852 106.326 229.726 107.854 232.895C110.026 237.399 115.332 240.169 120.407 239.163C124.683 238.315 128.335 234.802 129.325 230.519C130.185 226.797 129.031 222.675 126.36 219.941C124.25 217.78 121.264 216.517 118.245 216.489C118.196 216.489 118.147 216.489 118.097 216.489Z" fill="white"/>
<path d="M175.223 176.719C181.993 176.719 187.481 171.231 187.481 164.461C187.481 157.691 181.993 152.203 175.223 152.203C168.453 152.203 162.965 157.691 162.965 164.461C162.965 171.231 168.453 176.719 175.223 176.719Z" fill="#00C389"/>
<path fill-rule="evenodd" clip-rule="evenodd" d="M175.222 151.399C180.043 151.446 184.707 154.358 186.847 158.661C188.609 162.205 188.637 166.565 186.917 170.134C184.474 175.2 178.559 178.36 172.826 177.334C168.748 176.604 165.1 173.804 163.324 170.062C161.639 166.513 161.675 162.186 163.428 158.661C165.564 154.366 170.191 151.447 175.053 151.399C175.109 151.399 175.165 151.399 175.222 151.399ZM175.063 153.022C170.945 153.062 166.971 155.471 165.04 159.076C163.358 162.216 163.265 166.155 164.79 169.366C166.912 173.836 172.101 176.642 177.163 175.736C181.861 174.895 185.808 170.819 186.473 166.07C186.972 162.506 185.678 158.737 183.082 156.232C180.996 154.219 178.141 153.051 175.211 153.022C175.162 153.022 175.113 153.022 175.063 153.022Z" fill="white"/>
<path d="M231.895 208.708C238.665 208.708 244.153 203.22 244.153 196.45C244.153 189.68 238.665 184.192 231.895 184.192C225.125 184.192 219.637 189.68 219.637 196.45C219.637 203.22 225.125 208.708 231.895 208.708Z" fill="#00C389"/>
<path fill-rule="evenodd" clip-rule="evenodd" d="M232.156 183.388C237.007 183.433 241.688 186.377 243.816 190.721C245.546 194.253 245.561 198.575 243.851 202.122C241.39 207.227 235.374 210.4 229.599 209.293C225.611 208.528 222.056 205.781 220.292 202.122C217.866 197.09 219.073 190.57 223.343 186.732C225.688 184.625 228.817 183.418 231.987 183.388C232.043 183.388 232.099 183.388 232.156 183.388ZM231.997 185.011C227.824 185.05 223.739 187.56 221.846 191.311C220.285 194.403 220.237 198.22 221.724 201.355C223.865 205.868 229.141 208.676 234.238 207.699C238.907 206.804 242.785 202.706 243.417 197.987C243.887 194.468 242.609 190.752 240.066 188.269C237.977 186.229 235.093 185.038 232.145 185.011C232.096 185.011 232.047 185.011 231.997 185.011Z" fill="white"/>
<path d="M288.863 110.623C295.633 110.623 301.121 105.135 301.121 98.3652C301.121 91.5953 295.633 86.1072 288.863 86.1072C282.094 86.1072 276.605 91.5953 276.605 98.3652C276.605 105.135 282.094 110.623 288.863 110.623Z" fill="#00C389"/>
<path fill-rule="evenodd" clip-rule="evenodd" d="M288.861 85.3037C293.663 85.3479 298.296 88.2255 300.451 92.4948C302.246 96.0513 302.287 100.448 300.556 104.038C298.092 109.148 292.079 112.316 286.304 111.208C282.316 110.444 278.769 107.711 276.997 104.038C275.24 100.396 275.311 95.9349 277.175 92.3538C279.354 88.1651 283.893 85.3479 288.692 85.3037C288.748 85.3037 288.804 85.3037 288.861 85.3037ZM288.702 86.9266C284.574 86.9647 280.533 89.4167 278.614 93.1033C276.991 96.2221 276.924 100.099 278.429 103.27C280.58 107.804 285.902 110.614 291.013 109.601C295.621 108.687 299.456 104.649 300.112 99.9735C300.612 96.4086 299.314 92.6384 296.722 90.1364C294.631 88.1191 291.74 86.9533 288.85 86.9266C288.801 86.9266 288.752 86.9266 288.702 86.9266Z" fill="white"/>
<path d="M349.336 159.045C356.106 159.045 361.594 153.556 361.594 146.787C361.594 140.017 356.106 134.529 349.336 134.529C342.566 134.529 337.078 140.017 337.078 146.787C337.078 153.556 342.566 159.045 349.336 159.045Z" fill="#00C389"/>
<path fill-rule="evenodd" clip-rule="evenodd" d="M349.334 133.725C354.37 133.774 359.17 136.939 361.195 141.49C362.837 145.178 362.636 149.635 360.663 153.161C358.003 157.917 352.186 160.703 346.697 159.614C342.737 158.829 339.224 156.099 337.47 152.459C335.73 148.851 335.777 144.423 337.611 140.846C339.78 136.614 344.365 133.772 349.165 133.725C349.221 133.725 349.277 133.725 349.334 133.725ZM349.175 135.348C345.112 135.388 341.133 137.756 339.184 141.341C337.463 144.51 337.366 148.508 338.932 151.755C341.103 156.259 346.41 159.029 351.485 158.022C355.786 157.17 359.451 153.618 360.418 149.31C361.249 145.605 360.094 141.52 357.438 138.8C355.333 136.645 352.393 135.378 349.323 135.348C349.274 135.348 349.225 135.348 349.175 135.348Z" fill="white"/>
<path d="M476.193 76.3778C481.321 76.3778 485.479 72.2202 485.479 67.0915C485.479 61.9628 481.321 57.8052 476.193 57.8052C471.064 57.8052 466.906 61.9628 466.906 67.0915C466.906 72.2202 471.064 76.3778 476.193 76.3778Z" fill="#292940"/>
<path d="M464.665 64.2863C464.666 59.7231 468.029 55.8024 472.539 55.1071C472.074 55.0357 471.604 55 471.134 55C466.04 55 461.848 59.1919 461.848 64.2863C461.848 69.3807 466.04 73.5727 471.134 73.5727C471.604 73.5727 472.074 73.5369 472.539 73.466C468.029 72.7703 464.666 68.8495 464.665 64.2863Z" fill="#292940"/>
<path d="M475.178 116.374C487.888 116.374 498.191 106.071 498.191 93.3605C498.191 80.6505 487.888 70.3469 475.178 70.3469C462.468 70.3469 452.164 80.6505 452.164 93.3605C452.164 106.071 462.468 116.374 475.178 116.374Z" fill="#292940"/>
<path d="M466.02 112.922C466.02 112.922 466.424 126.246 457.541 130.283C448.659 134.321 492.264 133.917 492.264 133.917C492.264 133.917 479.344 118.171 482.978 112.922H466.02Z" fill="#FFB8B8"/>
<path d="M466.02 112.922C466.02 112.922 466.424 126.246 457.541 130.283C448.659 134.321 492.264 133.917 492.264 133.917C492.264 133.917 479.344 118.171 482.978 112.922H466.02Z" fill="black" fill-opacity="0.1"/>
<path d="M474.954 120.597C483.65 120.597 490.7 113.547 490.7 104.851C490.7 96.154 483.65 89.104 474.954 89.104C466.257 89.104 459.207 96.154 459.207 104.851C459.207 113.547 466.257 120.597 474.954 120.597Z" fill="#FFB8B8"/>
<path d="M472.752 127.466L459.226 124.437L451.353 132.715L442.47 133.925L454.179 181.972L453.775 194.085C453.775 194.085 440.856 203.775 441.663 248.591C442.47 293.407 435.203 382.233 444.086 383.04C452.968 383.848 471.541 387.885 472.752 384.252C473.963 380.618 475.982 237.286 475.982 237.286C475.982 237.286 475.578 381.022 481.634 382.637C487.691 384.252 506.263 387.481 508.686 382.233C511.108 376.984 508.686 240.112 508.686 240.112C508.686 240.112 508.282 204.582 493.747 194.085L492.132 184.798L504.648 133.925H494.554L488.498 123.428L475.982 127.869L472.752 127.466Z" fill="#292940"/>
<path d="M439.941 182.505L422.636 211.698C422.636 211.698 409.98 224.684 416.314 228.271C422.647 231.857 429.381 213.15 429.381 213.15L447.999 188.638L439.941 182.505Z" fill="#FFB8B8"/>
<path d="M510.792 183.111L524.785 214.028C524.785 214.028 535.941 228.325 529.25 231.195C522.559 234.064 517.921 214.73 517.921 214.73L502.109 188.321L510.792 183.111Z" fill="#FFB8B8"/>
<path d="M447.886 136.761L442.637 133.934C442.637 133.934 433.351 149.277 434.966 175.117C434.966 175.117 433.351 188.845 436.581 189.652C439.811 190.46 449.098 192.075 449.501 190.46C449.905 188.845 454.75 158.967 454.75 158.967L447.886 136.761Z" fill="#292940"/>
<path d="M499.915 135.953L504.76 133.934C508.292 138.197 510.533 143.381 511.22 148.873C512.432 158.16 518.084 188.038 513.643 188.845C509.202 189.652 498.704 191.267 498.704 188.845C498.704 186.422 495.07 158.16 495.07 158.16L499.915 135.953Z" fill="#292940"/>
<path d="M490.35 90.7111L478.672 84.5935L462.544 87.0962L459.207 101.834L467.513 101.515L469.833 96.0998V101.425L473.666 101.278L475.891 92.6579L477.281 101.834L490.907 101.556L490.35 90.7111Z" fill="#292940"/>
<path d="M313.548 349.728C315.736 349.728 317.51 348.521 317.51 347.032C317.51 345.542 315.736 344.335 313.548 344.335C311.36 344.335 309.586 345.542 309.586 347.032C309.586 348.521 311.36 349.728 313.548 349.728Z" fill="#6C63FF"/>
<path d="M313.547 347.03C313.547 347.03 332.366 379.727 331.871 384.447L313.547 347.03Z" fill="#6C63FF"/>
<path d="M326.003 349.285V368.413C322.061 362.951 314.198 357.326 299.465 352.761L326.003 389.213V389.49C326.003 389.49 326.053 389.463 326.146 389.41L326.191 389.472C326.191 389.472 326.23 389.421 326.297 389.324C329.389 387.533 355.321 371.384 326.003 349.285Z" fill="#292940"/>
<path d="M586.4 388.722H102V390H586.4V388.722Z" fill="#3F3D56"/>
<path d="M382.005 389.415H372.074V379.484H382.005V389.415ZM372.838 388.651H381.241V380.248H372.838V388.651Z" fill="#3F3D56"/>
<path d="M456.536 389.089C461.259 389.089 465.088 387.062 465.088 384.562C465.088 382.061 461.259 380.034 456.536 380.034C451.813 380.034 447.984 382.061 447.984 384.562C447.984 387.062 451.813 389.089 456.536 389.089Z" fill="#2F2E41"/>
<path d="M495.7 389.089C500.423 389.089 504.252 387.062 504.252 384.562C504.252 382.061 500.423 380.034 495.7 380.034C490.977 380.034 487.148 382.061 487.148 384.562C487.148 387.062 490.977 389.089 495.7 389.089Z" fill="#2F2E41"/>
<path d="M0 10H132.765V82.8593H123.243L125.479 106.336L105.915 82.8593H0V10Z" fill="#FAE53F"/>
<path d="M112.914 34.6992H19.8164V41.4069H112.914V34.6992Z" fill="#E3CE2A"/>
<path d="M84.2865 51.4568H19.8164V58.1645H84.2865V51.4568Z" fill="#E3CE2A" fill-opacity="0.5"/>
<path d="M124.5 116.808C138.031 116.808 149 115.689 149 114.308C149 112.928 138.031 111.808 124.5 111.808C110.969 111.808 100 112.928 100 114.308C100 115.689 110.969 116.808 124.5 116.808Z" fill="black" fill-opacity="0.1"/>
</svg>
