<svg width="566" height="458" viewBox="0 0 566 458" fill="none" xmlns="http://www.w3.org/2000/svg">
<g opacity="0.34">
<circle cx="1.2235" cy="144.776" r="1.2235" fill="#33334F"/>
<circle cx="1.2235" cy="131.493" r="1.2235" fill="#33334F"/>
<circle cx="1.2235" cy="118.209" r="1.2235" fill="#33334F"/>
<circle cx="1.2235" cy="104.926" r="1.2235" fill="#33334F"/>
<circle cx="1.2235" cy="91.6417" r="1.2235" fill="#33334F"/>
<circle cx="1.2235" cy="78.3583" r="1.2235" fill="#33334F"/>
<circle cx="1.2235" cy="65.0743" r="1.2235" fill="#33334F"/>
<circle cx="1.2235" cy="51.7909" r="1.2235" fill="#33334F"/>
<circle cx="1.2235" cy="38.5069" r="1.2235" fill="#33334F"/>
<circle cx="1.2235" cy="25.2235" r="1.2235" fill="#33334F"/>
<circle cx="14.5087" cy="144.776" r="1.2235" fill="#33334F"/>
<circle cx="14.5087" cy="131.493" r="1.2235" fill="#33334F"/>
<circle cx="14.5087" cy="118.209" r="1.2235" fill="#33334F"/>
<circle cx="14.5087" cy="104.926" r="1.2235" fill="#33334F"/>
<circle cx="14.5087" cy="91.6417" r="1.2235" fill="#33334F"/>
<circle cx="14.5087" cy="78.3583" r="1.2235" fill="#33334F"/>
<circle cx="14.5087" cy="65.0743" r="1.2235" fill="#33334F"/>
<circle cx="14.5087" cy="51.7909" r="1.2235" fill="#33334F"/>
<circle cx="14.5087" cy="38.5069" r="1.2235" fill="#33334F"/>
<circle cx="14.5087" cy="25.2235" r="1.2235" fill="#33334F"/>
<circle cx="27.7899" cy="144.776" r="1.2235" fill="#33334F"/>
<circle cx="27.7899" cy="131.493" r="1.2235" fill="#33334F"/>
<circle cx="27.7899" cy="118.209" r="1.2235" fill="#33334F"/>
<circle cx="27.7899" cy="104.926" r="1.2235" fill="#33334F"/>
<circle cx="27.7899" cy="91.6417" r="1.2235" fill="#33334F"/>
<circle cx="27.7899" cy="78.3583" r="1.2235" fill="#33334F"/>
<circle cx="27.7899" cy="65.0743" r="1.2235" fill="#33334F"/>
<circle cx="27.7899" cy="51.7909" r="1.2235" fill="#33334F"/>
<circle cx="27.7899" cy="38.5069" r="1.2235" fill="#33334F"/>
<circle cx="27.7899" cy="25.2235" r="1.2235" fill="#33334F"/>
<circle cx="41.0751" cy="144.776" r="1.2235" fill="#33334F"/>
<circle cx="41.0751" cy="131.493" r="1.2235" fill="#33334F"/>
<circle cx="41.0751" cy="118.209" r="1.2235" fill="#33334F"/>
<circle cx="41.0751" cy="104.926" r="1.2235" fill="#33334F"/>
<circle cx="41.0751" cy="91.6417" r="1.2235" fill="#33334F"/>
<circle cx="41.0751" cy="78.3583" r="1.2235" fill="#33334F"/>
<circle cx="41.0751" cy="65.0743" r="1.2235" fill="#33334F"/>
<circle cx="41.0751" cy="51.7909" r="1.2235" fill="#33334F"/>
<circle cx="41.0751" cy="38.5069" r="1.2235" fill="#33334F"/>
<circle cx="41.0751" cy="25.2235" r="1.2235" fill="#33334F"/>
<circle cx="54.3602" cy="144.776" r="1.2235" fill="#33334F"/>
<circle cx="54.3602" cy="131.493" r="1.2235" fill="#33334F"/>
<circle cx="54.3602" cy="118.209" r="1.2235" fill="#33334F"/>
<circle cx="54.3602" cy="104.926" r="1.2235" fill="#33334F"/>
<circle cx="54.3602" cy="91.6417" r="1.2235" fill="#33334F"/>
<circle cx="54.3602" cy="78.3583" r="1.2235" fill="#33334F"/>
<circle cx="54.3602" cy="65.0743" r="1.2235" fill="#33334F"/>
<circle cx="54.3602" cy="51.7909" r="1.2235" fill="#33334F"/>
<circle cx="54.3602" cy="38.5069" r="1.2235" fill="#33334F"/>
<circle cx="54.3602" cy="25.2235" r="1.2235" fill="#33334F"/>
<circle cx="67.6415" cy="144.776" r="1.2235" fill="#33334F"/>
<circle cx="67.6415" cy="131.493" r="1.2235" fill="#33334F"/>
<circle cx="67.6415" cy="118.209" r="1.2235" fill="#33334F"/>
<circle cx="67.6415" cy="104.926" r="1.2235" fill="#33334F"/>
<circle cx="67.6415" cy="91.6417" r="1.2235" fill="#33334F"/>
<circle cx="67.6415" cy="78.3583" r="1.2235" fill="#33334F"/>
<circle cx="67.6415" cy="65.0743" r="1.2235" fill="#33334F"/>
<circle cx="67.6415" cy="51.7909" r="1.2235" fill="#33334F"/>
<circle cx="67.6415" cy="38.5069" r="1.2235" fill="#33334F"/>
<circle cx="67.6415" cy="25.2235" r="1.2235" fill="#33334F"/>
<circle cx="80.9266" cy="144.776" r="1.2235" fill="#33334F"/>
<circle cx="80.9266" cy="131.493" r="1.2235" fill="#33334F"/>
<circle cx="80.9266" cy="118.209" r="1.2235" fill="#33334F"/>
<circle cx="80.9266" cy="104.926" r="1.2235" fill="#33334F"/>
<circle cx="80.9266" cy="91.6417" r="1.2235" fill="#33334F"/>
<circle cx="80.9266" cy="78.3583" r="1.2235" fill="#33334F"/>
<circle cx="80.9266" cy="65.0743" r="1.2235" fill="#33334F"/>
<circle cx="80.9266" cy="51.7909" r="1.2235" fill="#33334F"/>
<circle cx="80.9266" cy="38.5069" r="1.2235" fill="#33334F"/>
<circle cx="80.9266" cy="25.2235" r="1.2235" fill="#33334F"/>
<circle cx="94.2079" cy="144.776" r="1.2235" fill="#33334F"/>
<circle cx="94.2079" cy="131.493" r="1.2235" fill="#33334F"/>
<circle cx="94.2079" cy="118.209" r="1.2235" fill="#33334F"/>
<circle cx="94.2079" cy="104.926" r="1.2235" fill="#33334F"/>
<circle cx="94.2079" cy="91.6417" r="1.2235" fill="#33334F"/>
<circle cx="94.2079" cy="78.3583" r="1.2235" fill="#33334F"/>
<circle cx="94.2079" cy="65.0743" r="1.2235" fill="#33334F"/>
<circle cx="94.2079" cy="51.7909" r="1.2235" fill="#33334F"/>
<circle cx="94.2079" cy="38.5069" r="1.2235" fill="#33334F"/>
<circle cx="94.2079" cy="25.2235" r="1.2235" fill="#33334F"/>
<circle cx="107.493" cy="144.776" r="1.2235" fill="#33334F"/>
<circle cx="107.493" cy="131.493" r="1.2235" fill="#33334F"/>
<circle cx="107.493" cy="118.209" r="1.2235" fill="#33334F"/>
<circle cx="107.493" cy="104.926" r="1.2235" fill="#33334F"/>
<circle cx="107.493" cy="91.6417" r="1.2235" fill="#33334F"/>
<circle cx="107.493" cy="78.3583" r="1.2235" fill="#33334F"/>
<circle cx="107.493" cy="65.0743" r="1.2235" fill="#33334F"/>
<circle cx="107.493" cy="51.7909" r="1.2235" fill="#33334F"/>
<circle cx="107.493" cy="38.5069" r="1.2235" fill="#33334F"/>
<circle cx="107.493" cy="25.2235" r="1.2235" fill="#33334F"/>
<circle cx="120.778" cy="144.776" r="1.2235" fill="#33334F"/>
<circle cx="120.778" cy="131.493" r="1.2235" fill="#33334F"/>
<circle cx="120.778" cy="118.209" r="1.2235" fill="#33334F"/>
<circle cx="120.778" cy="104.926" r="1.2235" fill="#33334F"/>
<circle cx="120.778" cy="91.6417" r="1.2235" fill="#33334F"/>
<circle cx="120.778" cy="78.3583" r="1.2235" fill="#33334F"/>
<circle cx="120.778" cy="65.0743" r="1.2235" fill="#33334F"/>
<circle cx="120.778" cy="51.7909" r="1.2235" fill="#33334F"/>
<circle cx="120.778" cy="38.5069" r="1.2235" fill="#33334F"/>
<circle cx="120.778" cy="25.2235" r="1.2235" fill="#33334F"/>
</g>
<path fill-rule="evenodd" clip-rule="evenodd" d="M565.406 84.18C565.406 79.1124 561.286 75 556.211 75H56.6012C51.5264 75 47.4062 79.1124 47.4062 84.18V371.82C47.4062 376.886 51.5264 381 56.6012 381H556.211C561.286 381 565.406 376.886 565.406 371.82V84.18Z" fill="#E8E8E8"/>
<path d="M559.837 80.5825V370.7C559.837 373.973 557.518 376.667 554.7 376.667H45.5364C42.722 376.667 40.4062 373.977 40.4062 370.708C40.4062 370.706 40.4062 370.703 40.4062 370.7V80.5825C40.4062 80.58 40.4062 80.5767 40.4062 80.5742C40.4062 77.3055 42.722 74.616 45.5364 74.616H554.7C557.518 74.616 559.837 77.3096 559.837 80.5825Z" fill="#FAFAFC"/>
<path d="M559.42 80.5825V370.7C559.42 373.706 557.288 376.183 554.7 376.183H45.5364C42.9521 376.183 40.8229 373.71 40.8229 370.708V370.708V370.708V370.708V370.708V370.708V370.708V370.707V370.707V370.707V370.707V370.707V370.707V370.707V370.706V370.706V370.706V370.706V370.706V370.706V370.706V370.705V370.705V370.705V370.705V370.705V370.705V370.704V370.704V370.704V370.704V370.704V370.704V370.704V370.703V370.703V370.703V370.703V370.703V370.703V370.703V370.702V370.702V370.702V370.702V370.702V370.702V370.702V370.701V370.701V370.701V370.701V370.701V370.701V370.701V370.7V370.7V80.5825V80.5825V80.5825V80.5825V80.5824V80.5824V80.5824V80.5824V80.5824V80.5824V80.5824V80.5823V80.5823V80.5823V80.5823V80.5823V80.5823V80.5822V80.5822V80.5822V80.5822V80.5822V80.5822V80.5822V80.5821V80.5821V80.5821V80.5821V80.5821V80.5821V80.5821V80.582V80.582V80.582V80.582V80.582V80.582V80.5819V80.5819V80.5819V80.5819V80.5819V80.5819V80.5819V80.5818V80.5818V80.5818V80.5818V80.5818V80.5818V80.5817V80.5817V80.5817V80.5817V80.5817V80.5817V80.5817V80.5816V80.5816V80.5816V80.5816V80.5816V80.5816V80.5815V80.5815V80.5815V80.5815V80.5815V80.5815V80.5815V80.5814V80.5814V80.5814V80.5814V80.5814V80.5814V80.5813V80.5813V80.5813V80.5813V80.5813V80.5813V80.5812V80.5812V80.5812V80.5812V80.5812V80.5812V80.5812V80.5811V80.5811V80.5811V80.5811V80.5811V80.5811V80.581V80.581V80.581V80.581V80.581V80.581V80.5809V80.5809V80.5809V80.5809V80.5809V80.5809V80.5808V80.5808V80.5808V80.5808V80.5808V80.5808V80.5808V80.5807V80.5807V80.5807V80.5807V80.5807V80.5807V80.5806V80.5806V80.5806V80.5806V80.5806V80.5806V80.5805V80.5805V80.5805V80.5805V80.5805V80.5805V80.5804V80.5804V80.5804V80.5804V80.5804V80.5804V80.5803V80.5803V80.5803V80.5803V80.5803V80.5803V80.5802V80.5802V80.5802V80.5802V80.5802V80.5802V80.5801V80.5801V80.5801V80.5801V80.5801V80.5801V80.58V80.58V80.58V80.58V80.58V80.58V80.5799V80.5799V80.5799V80.5799V80.5799V80.5799V80.5798V80.5798V80.5798V80.5798V80.5798V80.5798V80.5797V80.5797V80.5797V80.5797V80.5797V80.5797V80.5796V80.5796V80.5796V80.5796V80.5796V80.5796V80.5795V80.5795V80.5795V80.5795V80.5795V80.5795V80.5794V80.5794V80.5794V80.5794V80.5794V80.5794V80.5793V80.5793V80.5793V80.5793V80.5793V80.5793V80.5792V80.5792V80.5792V80.5792V80.5792V80.5792V80.5791V80.5791V80.5791V80.5791V80.5791V80.5791V80.579V80.579V80.579V80.579V80.579V80.579V80.5789V80.5789V80.5789V80.5789V80.5789V80.5789V80.5788V80.5788V80.5788V80.5788V80.5788V80.5788V80.5787V80.5787V80.5787V80.5787V80.5787V80.5787V80.5786V80.5786V80.5786V80.5786V80.5786V80.5786V80.5785V80.5785V80.5785V80.5785V80.5785V80.5785V80.5784V80.5784V80.5784V80.5784V80.5784V80.5784V80.5783V80.5783V80.5783V80.5783V80.5783V80.5783V80.5782V80.5782V80.5782V80.5782V80.5782V80.5781V80.5781V80.5781V80.5781V80.5781V80.5781V80.578V80.578V80.578V80.578V80.578V80.578V80.5779V80.5779V80.5779V80.5779V80.5779V80.5779V80.5778V80.5778V80.5778V80.5778V80.5778V80.5778V80.5777V80.5777V80.5777V80.5777V80.5777V80.5777V80.5776V80.5776V80.5776V80.5776V80.5776V80.5776V80.5775V80.5775V80.5775V80.5775V80.5775V80.5775V80.5774V80.5774V80.5774V80.5774V80.5774V80.5774V80.5773V80.5773V80.5773V80.5773V80.5773V80.5773V80.5772V80.5772V80.5772V80.5772V80.5772V80.5772V80.5771V80.5771V80.5771V80.5771V80.5771V80.5771V80.577V80.577V80.577V80.577V80.577V80.577V80.5769V80.5769V80.5769V80.5769V80.5769V80.5769V80.5768V80.5768V80.5768V80.5768V80.5768V80.5768V80.5767V80.5767V80.5767V80.5767V80.5767V80.5767V80.5766V80.5766V80.5766V80.5766V80.5766V80.5766V80.5765V80.5765V80.5765V80.5765V80.5765V80.5765V80.5764V80.5764V80.5764V80.5764V80.5764V80.5764V80.5763V80.5763V80.5763V80.5763V80.5763V80.5763V80.5762V80.5762V80.5762V80.5762V80.5762V80.5762V80.5761V80.5761V80.5761V80.5761V80.5761V80.5761V80.576V80.576V80.576V80.576V80.576V80.576V80.576V80.5759V80.5759V80.5759V80.5759V80.5759V80.5759V80.5758V80.5758V80.5758V80.5758V80.5758V80.5758V80.5757V80.5757V80.5757V80.5757V80.5757V80.5757V80.5756V80.5756V80.5756V80.5756V80.5756V80.5756V80.5756V80.5755V80.5755V80.5755V80.5755V80.5755V80.5755V80.5754V80.5754V80.5754V80.5754V80.5754V80.5754V80.5753V80.5753V80.5753V80.5753V80.5753V80.5753V80.5753V80.5752V80.5752V80.5752V80.5752V80.5752V80.5752V80.5751V80.5751V80.5751V80.5751V80.5751V80.5751V80.575V80.575V80.575V80.575V80.575V80.575V80.575V80.5749V80.5749V80.5749V80.5749V80.5749V80.5749V80.5749V80.5748V80.5748V80.5748V80.5748V80.5748V80.5748V80.5747V80.5747V80.5747V80.5747V80.5747V80.5747V80.5747V80.5746V80.5746V80.5746V80.5746V80.5746V80.5746V80.5745V80.5745V80.5745V80.5745V80.5745V80.5745V80.5745V80.5744V80.5744V80.5744V80.5744V80.5744V80.5744V80.5744V80.5743V80.5743V80.5743V80.5743V80.5743V80.5743V80.5743V80.5742C40.8229 77.5727 42.9521 75.0999 45.5364 75.0999H554.7C557.288 75.0999 559.42 77.5769 559.42 80.5825Z" stroke="black" stroke-opacity="0.1" stroke-width="0.2"/>
<path d="M362.405 6.73506L285.518 11.1198C285.469 11.1217 285.421 11.1257 285.372 11.1328C284.62 11.2415 284.119 11.9805 284.264 12.7695C284.317 13.0601 284.453 13.3313 284.654 13.5482L293.739 22.8077C294.272 23.3471 294.588 24.0752 294.617 24.8293L295.928 46.2718C295.78 47.1128 297.096 47.9931 297.426 47.2218L301.96 32.1552C302.464 31.1233 303.276 30.2986 304.281 29.7969L350.002 12.9867C350.263 12.8936 350.559 12.9423 350.793 13.116C350.961 13.2504 351.077 13.4448 351.117 13.6584C351.182 14.018 351.02 14.3708 350.714 14.5301L308.504 36.0084C307.566 36.5782 306.788 37.3846 306.238 38.3588L299.535 50.0032C299.24 51.1606 299.896 51.9739 300.974 51.3235L309.951 47.0068C310.593 46.6326 311.445 46.8794 311.855 47.5585L322.811 66.6032C323.122 67.1091 323.688 67.3883 324.242 67.3082C324.595 67.2572 324.909 67.065 325.117 66.7721L363.668 9.05532C363.872 8.74974 363.947 8.36609 363.878 7.98849C363.745 7.26277 363.108 6.7206 362.405 6.73506Z" fill="#7D7D88"/>
<rect x="207" y="274" width="186" height="35" rx="17.5" fill="#00C389"/>
<rect x="273" y="289" width="54" height="5" rx="2.5" fill="#CCF3E7"/>
<path d="M315.661 308.854L304.546 298.634L304.539 313.733L307.912 310.506L309.893 315.022L312.984 313.666L311.003 309.15L315.661 308.854Z" fill="white"/>
<path d="M315.661 308.854L304.546 298.634L304.539 313.733L307.912 310.506L309.893 315.022L312.984 313.666L311.003 309.15L315.661 308.854ZM311.719 313.173L310.386 313.757L308.24 308.864L305.5 311.485L305.505 300.82L313.356 308.039L309.572 308.279L311.719 313.173Z" fill="black"/>
<g opacity="0.6">
<g opacity="0.6">
<path opacity="0.6" d="M230.941 157.536H143.547V243.075H230.941V157.536Z" stroke="#9898A1" stroke-width="2.05386e-05" stroke-miterlimit="2"/>
</g>
</g>
<path d="M338.148 157.536H250.754V243.075H338.148V157.536Z" stroke="#9898A1" stroke-width="2.05386e-05" stroke-miterlimit="2"/>
<g opacity="0.6">
<g opacity="0.6">
<path opacity="0.6" d="M450.844 157.536H363.449V243.075H450.844V157.536Z" stroke="#9898A1" stroke-width="2.05386e-05" stroke-miterlimit="2"/>
</g>
</g>
<path opacity="0.6" d="M505.245 457.163C536.593 457.163 562.005 450.886 562.005 443.142C562.005 435.398 536.593 429.12 505.245 429.12C473.897 429.12 448.484 435.398 448.484 443.142C448.484 450.886 473.897 457.163 505.245 457.163Z" fill="#6C63FF" fill-opacity="0.1"/>
<path d="M463.852 299.235C463.852 299.235 465.796 289.029 472.039 289.029L476.609 298.424L473.564 300.522C473.564 300.522 466.947 300.703 463.852 299.235Z" fill="#65617D"/>
<path d="M476.609 298.413L473.564 300.51C473.564 300.51 468.909 300.658 465.581 299.841C464.987 299.71 464.408 299.52 463.852 299.274L463.886 299.11V299.076C464.17 297.797 464.564 296.545 465.065 295.334C465.258 294.875 465.473 294.404 465.711 293.933C466.624 292.176 467.911 290.447 469.68 289.596C470.328 289.268 471.036 289.076 471.761 289.029H472.039L472.141 289.239L473.683 292.414L476.609 298.413Z" fill="black" fill-opacity="0.1"/>
<path d="M528.272 340.703C528.272 340.703 534.832 340.074 535.41 340.55C535.988 341.027 539.713 343.436 541.913 341.911C544.113 340.386 542.65 335.107 542.65 334.88C542.65 334.654 542.441 327.164 542.441 327.164L538.506 321.862L533.573 312.575L523.492 311.577L523.753 326.319L523.702 333.877L528.272 340.703Z" fill="#65617D"/>
<path d="M528.272 340.703C528.272 340.703 534.832 340.074 535.41 340.55C535.988 341.027 539.713 343.436 541.913 341.911C544.113 340.386 542.65 335.107 542.65 334.88C542.65 334.654 542.441 327.164 542.441 327.164L538.506 321.862L533.573 312.575L523.492 311.577L523.753 326.319L523.702 333.877L528.272 340.703Z" fill="black" fill-opacity="0.1"/>
<path d="M470.784 288.721C470.784 288.721 470.256 295.122 466.248 295.23C466.248 295.23 465.114 294.55 463.594 293.41C460.09 290.785 454.523 285.745 456.065 281.056C458.27 274.337 468.975 286.725 468.975 286.725L469.803 287.65L470.784 288.721Z" fill="#FBBEBE"/>
<path d="M470.651 288.751C470.651 288.751 470.123 295.153 466.115 295.26C466.115 295.26 464.981 294.58 463.461 293.44L463.121 293.004C463.8 293.35 464.548 293.544 465.31 293.571C466.534 293.619 467.666 292.9 468.145 291.773C468.574 290.949 468.953 290.098 469.278 289.228C469.466 288.719 469.601 288.193 469.681 287.657L470.651 288.751Z" fill="black" fill-opacity="0.1"/>
<path d="M468.939 300.318L468.043 299.184L465.021 295.295L463.484 293.305C464.161 293.652 464.907 293.846 465.667 293.872C466.893 293.925 468.028 293.205 468.502 292.074C468.923 291.252 469.293 290.403 469.608 289.534C470.107 288.117 470.095 287.391 469.92 287.142C469.744 286.892 471.054 288.094 471.655 288.684L471.944 288.956L472.051 289.172L473.633 292.233C473.637 292.277 473.637 292.32 473.633 292.364C473.747 293.328 474.257 299.445 468.939 300.318Z" fill="#E7EFFD"/>
<path d="M500.383 435.396C500.383 435.396 495.972 438.288 493.766 437.862C492.241 437.67 490.688 437.927 489.304 438.6C487.79 440.26 485.874 441.506 483.742 442.223C480.17 443.43 475.186 442.954 472.351 442.013C471.013 441.565 470.906 440.987 471.552 440.278C472.198 439.569 473.911 438.526 475.816 437.392C479.439 435.237 483.323 430.991 483.323 430.991C483.345 430.415 483.589 429.869 484.003 429.465C484.394 429.124 484.751 428.744 485.063 428.331C485.63 427.668 486.157 426.971 486.157 426.971L499.147 427.458C499.147 427.458 499.368 428.394 499.544 429.352C499.691 429.97 499.754 430.606 499.725 431.24C499.663 431.709 499.793 432.184 500.094 432.55L500.326 434.693L500.383 435.396Z" fill="#65617D"/>
<path d="M527.515 439.062C527.362 439.691 527.169 440.814 527.084 441.33C527.084 441.506 527.044 441.619 527.044 441.619C527.044 441.619 525.995 443.927 520.167 444.766C514.338 445.605 514.344 442.827 514.344 442.827L514.4 442.073C514.502 440.848 514.712 438.495 514.865 437.996C515.075 437.316 514.712 434.322 514.712 434.322L514.65 431.192L514.605 429.021L524.243 428.023C524.306 428.744 524.408 429.462 524.555 430.172C524.612 430.576 524.754 430.964 524.98 431.306C525.502 431.873 525.819 434.452 525.819 434.452C525.819 434.452 527.742 438.223 527.515 439.062Z" fill="#65617D"/>
<path d="M499.209 427.487C499.209 427.487 499.43 428.423 499.606 429.381C498.205 429.636 492.082 430.697 490.534 429.948C488.799 429.109 485.074 428.638 485.074 428.638L485.137 428.423C485.704 427.76 486.231 427.062 486.231 427.062L499.209 427.487Z" fill="black" fill-opacity="0.1"/>
<path d="M524.678 430.172C522.235 429.758 516.865 430.739 514.756 431.192L514.711 429.021L524.35 428.023C524.418 428.745 524.525 429.462 524.678 430.172Z" fill="black" fill-opacity="0.1"/>
<path d="M529.963 350.611L529.758 357.982C529.758 357.982 530.019 369.265 529.231 371.022C528.443 372.78 528.443 379.998 528.443 379.998C528.443 379.998 528.97 383.399 528.392 384.142C527.814 384.885 528.233 387.606 528.653 389.024C529.072 390.441 528.704 393.957 528.704 393.957L528.602 413.801C528.602 413.801 528.035 418.944 527.286 419.681C526.85 420.129 526.685 420.781 526.867 421.382C527.048 421.982 526.238 424.319 526.396 424.846C526.555 425.373 526.867 426.575 525.665 427.153C524.463 427.732 524.769 429.569 524.769 429.569C521.883 428.883 513.696 430.703 513.696 430.703C512.811 428.878 512.04 427.002 511.383 425.084C511.269 424.765 511.207 424.43 511.207 424.091C511.207 422.732 512.159 421.545 513.486 421.251C514.586 421.098 512.698 419.153 512.698 419.153C512.698 419.153 512.908 418.893 512.38 416.999C511.853 415.105 512.488 410.28 512.647 409.021C512.806 407.763 513.588 401.651 513.588 401.651C513.588 401.651 513.169 393.934 513.486 393.622C513.804 393.31 514.847 390.26 514.325 389.268C513.804 388.276 512.959 381.71 512.959 381.33C512.959 380.95 512.278 372.457 512.278 372.457C512.278 372.457 511.649 366.526 511.808 365.267C511.967 364.009 511.383 359.337 511.383 359.337C511.383 355.453 509.115 351.252 509.115 351.252L509.058 351.405L504.182 364.309C504.182 364.309 503.394 368.193 502.714 370.399C502.283 371.889 501.942 373.404 501.687 374.934L501.642 375.218L501.597 375.513L501.563 375.723C501.563 375.723 501.925 378.501 501.347 379.397C500.701 380.752 500.298 382.207 500.145 383.7C500.145 384.437 500.196 387.272 500.196 387.272C500.196 387.272 500.406 392.885 499.828 393.509C499.504 393.788 499.397 394.249 499.567 394.643C499.737 395.036 500.508 398.895 500.088 399.995C499.669 401.095 499.986 403.669 499.986 403.669C499.986 403.669 499.147 411.805 499.039 412.225C498.932 412.644 498.359 415.899 498.988 416.16C499.618 416.42 500.825 417.997 500.825 417.997C500.825 417.997 501.086 424.874 500.145 425.396C499.204 425.917 499.72 428.599 499.72 428.599C499.72 428.599 492.111 430.068 490.382 429.229C488.652 428.389 484.922 427.919 484.922 427.919L485.443 426.218C485.409 426.28 485.063 426.842 484.82 424.693C484.553 422.425 486.759 423.559 486.759 423.559C486.759 423.559 488.494 423.978 485.71 421.251C482.926 418.524 484.292 415.74 484.451 415.74C484.61 415.74 484.973 411.698 484.973 411.698C485.239 410.278 485.279 408.825 485.08 407.394C484.712 405.506 484.4 399.626 484.4 399.626C484.4 399.626 484.661 395.164 484.185 393.537C483.708 391.91 484.502 389.001 484.661 388.287C484.82 387.572 484.185 381.358 484.185 381.358C484.479 379.674 484.553 377.959 484.4 376.255C484.083 374.101 484.712 366.175 484.712 366.175L485.659 357.046C485.659 357.046 486.339 354.211 486.226 353.077C486.112 351.943 487.014 347.884 487.014 347.884C486.963 347.022 487.105 346.159 487.433 345.361C487.961 344.312 488.17 340.825 488.17 340.825L493.211 329.281L495.677 319.075L529.004 318.758C529.004 318.758 529.123 319.642 529.328 321.247C529.532 322.851 529.815 325.216 530.133 328.158C530.422 330.823 530.739 333.959 531.051 337.446C532.066 348.615 529.963 350.611 529.963 350.611Z" fill="#3F3D56"/>
<path d="M526.929 258.703L519.168 267.009C519.168 267.009 509.2 263.04 510.249 261.651C510.651 261.124 510.589 259.457 510.357 257.62C509.988 254.712 509.223 251.383 509.223 251.383C509.223 251.383 526.646 248.548 525.172 251.485C524.701 252.593 524.667 253.838 525.064 254.972C525.484 256.307 526.113 257.566 526.929 258.703Z" fill="#FBBEBE"/>
<path d="M525.149 251.485C524.616 252.562 524.361 252.664 524.696 253.821C522.428 256.265 519.519 258.924 515.913 258.924C513.985 258.926 512.08 258.479 510.357 257.62C509.988 254.711 509.223 251.383 509.223 251.383C509.223 251.383 526.623 248.548 525.149 251.485Z" fill="black" fill-opacity="0.1"/>
<path d="M528.354 246.132C528.354 252.986 522.712 258.626 515.863 258.626C509.009 258.626 503.367 252.986 503.367 246.132V245.951C503.418 239.133 509.043 233.551 515.858 233.551C522.712 233.551 528.348 239.189 528.348 246.042C528.348 246.072 528.348 246.102 528.348 246.132H528.354Z" fill="#FBBEBE"/>
<path d="M530.093 328.539C528.437 328.539 522.926 328.596 516.769 328.698H516.695L514.66 328.732H514.597C507.295 328.846 500.1 327.422 497.208 327.689C491.068 328.256 499.414 322.019 499.414 322.019C503.989 323.127 508.695 323.602 513.401 323.431L515.17 323.34C520.749 323.023 526.357 322.501 529.288 321.639C529.492 323.249 529.775 325.608 530.093 328.539Z" fill="black" fill-opacity="0.1"/>
<path d="M530.093 328.214C528.437 328.214 522.926 328.276 516.769 328.373H516.695L514.66 328.407H514.597C507.295 328.526 500.1 327.097 497.208 327.369C491.068 327.936 499.414 321.699 499.414 321.699C503.989 322.81 508.695 323.285 513.401 323.111L515.17 323.02C520.749 322.708 526.357 322.181 529.288 321.319C529.492 322.924 529.775 325.283 530.093 328.214Z" fill="#5F5D7E"/>
<path d="M512.415 262.161L502.776 266.697L495.32 324.325C495.32 324.325 499.731 322.329 502.249 323.588C504.766 324.846 512.534 323.695 512.534 323.695C512.534 323.695 518.204 323.378 519.043 324.013C519.882 324.648 529.753 321.388 529.753 321.388C529.753 321.388 531.539 317.419 530.173 316.767C528.806 316.115 530.592 309.963 530.592 309.963L529.753 268.392L528.052 263.04L523.516 260.307L518.901 263.981L516.695 264.298L512.415 262.161Z" fill="black" fill-opacity="0.1"/>
<path d="M512.432 261.56L502.793 266.096L495.32 323.73C495.32 323.73 499.731 321.734 502.249 322.993C504.766 324.251 512.534 323.1 512.534 323.1C512.534 323.1 518.204 322.783 519.043 323.412C519.882 324.042 529.753 320.793 529.753 320.793C529.753 320.793 531.539 316.824 530.173 316.172C528.806 315.52 530.592 309.368 530.592 309.368L529.753 267.797L528.052 262.445L523.516 259.712L518.901 263.386L516.696 263.703L512.432 261.56Z" fill="#E7EFFD"/>
<path d="M512.362 264.239C512.362 264.239 515.145 267.544 515.094 268.208C515.043 268.871 514.936 270.521 514.936 270.521L512.838 274.768C512.838 274.768 511.704 280.069 511.704 281.175C511.704 282.28 509.867 291.828 509.867 291.828L507.616 306.541L504.832 325.819L507.667 330.701L511.029 327.866L515.491 293.541L516.432 286.771C516.432 286.771 517.43 274.592 517.43 273.333C517.323 271.803 517.136 270.279 516.863 268.769C516.591 267.259 517.549 265.617 520.384 264.885C523.219 264.154 520.169 264.726 520.169 264.726L518.547 263.417L517.13 263.984C517.13 263.984 513.201 262.77 512.362 264.239Z" fill="black" fill-opacity="0.1"/>
<path d="M511.949 263.901C511.949 263.901 514.727 267.207 514.676 267.87C514.625 268.533 514.517 270.178 514.517 270.178L512.42 274.43C512.42 274.43 511.286 279.731 511.286 280.831C511.286 281.931 509.449 291.485 509.449 291.485L507.249 306.181L504.465 325.459L507.3 330.34L510.656 327.505L515.118 293.18L516.065 286.41C516.065 286.41 517.063 274.232 517.063 272.973C516.955 271.44 516.768 269.915 516.496 268.403C516.224 266.891 517.177 265.256 520.011 264.519C522.846 263.782 519.802 264.366 519.802 264.366L518.174 263.051L516.757 263.618C516.757 263.618 512.788 262.433 511.949 263.901Z" fill="#6C63FF"/>
<path d="M510.228 258.386C510.228 258.386 509.809 258.703 509.701 260.801C509.593 262.899 508.125 267.605 508.125 267.605C508.125 267.605 513.585 263.829 516.312 264.248L510.228 258.386Z" fill="black" fill-opacity="0.1"/>
<path d="M510.228 257.791C510.228 257.791 509.809 258.109 509.701 260.206C509.593 262.304 508.125 267.01 508.125 267.01C508.125 267.01 513.585 263.234 516.312 263.654L510.228 257.791Z" fill="#E7EFFD"/>
<path d="M525.146 256.739L516.539 264.297C516.539 264.297 523.779 268.6 524.726 269.649C525.673 270.698 526.614 259.364 526.614 259.364L525.146 256.739Z" fill="black" fill-opacity="0.1"/>
<path d="M525.513 256.099L516.906 263.657C516.906 263.657 524.152 267.96 525.093 269.009C526.035 270.058 526.982 258.724 526.982 258.724L525.513 256.099Z" fill="#E7EFFD"/>
<path d="M510.436 258.418C510.436 258.418 509.495 257.948 508.599 259.314C507.947 260.204 507.056 260.893 506.03 261.304C505.004 261.715 496.477 262.829 496.108 264.088L491.646 264.349C491.646 264.349 490.07 264.559 489.945 267.87C489.82 271.181 488.947 271.487 488.947 271.487C488.947 271.487 487.11 274.742 487.246 276.42C487.286 277.459 486.736 278.438 485.829 278.943L492.389 295.998C492.389 295.998 492.598 303.034 491.391 305.602C490.183 308.171 487.927 319.567 487.927 319.567C487.927 319.567 488.873 319.357 488.817 319.987C488.76 320.616 487.683 327.494 487.683 327.494C487.683 327.494 487.365 330.221 486.844 331.168C486.322 332.115 486.277 337.042 486.277 337.042L485.438 340.614C485.438 340.614 487.428 345.076 490.472 344.446C493.517 343.817 499.022 331.899 499.022 331.899L502.538 319.04L505.271 306.34L506.059 297.733L507.317 278.676L509.154 266.084C509.154 266.084 511.173 259.314 510.436 258.418Z" fill="black" fill-opacity="0.1"/>
<path d="M510.078 257.778C510.078 257.778 509.131 257.307 508.241 258.674C507.583 259.563 506.693 260.252 505.667 260.664C504.641 261.075 496.113 262.189 495.745 263.448L491.288 263.708C491.288 263.708 489.712 263.918 489.553 267.224C489.395 270.529 488.555 270.847 488.555 270.847C488.555 270.847 486.718 274.101 486.855 275.779C486.9 276.819 486.35 277.799 485.437 278.303L492.02 295.38C492.02 295.38 492.23 302.416 491.022 304.985C489.814 307.553 487.558 318.949 487.558 318.949C487.558 318.949 488.504 318.74 488.453 319.369C488.402 319.998 487.319 326.87 487.319 326.87C487.319 326.87 487.008 329.603 486.48 330.544C485.953 331.485 485.913 336.424 485.913 336.424L485.074 339.996C485.074 339.996 487.07 344.458 490.115 343.823C493.159 343.188 498.67 331.281 498.67 331.281L502.186 318.422L504.913 305.722L505.667 297.081L506.926 278.025L508.763 265.432C508.763 265.432 510.809 258.674 510.078 257.778Z" fill="#65617D"/>
<path d="M476.553 298.399L473.509 300.497C473.509 300.497 468.854 300.644 465.526 299.827L463.825 299.073L463.484 298.926L463.836 299.039C465.188 299.521 466.656 299.572 468.037 299.187C472.346 297.735 471.87 290.625 471.7 289.015C471.7 288.851 471.672 288.749 471.666 288.709V288.749C471.727 288.845 471.793 288.938 471.864 289.026L472.057 289.231L473.633 292.258C473.637 292.302 473.637 292.345 473.633 292.389L476.553 298.399Z" fill="black" fill-opacity="0.1"/>
<path d="M487.166 277.869L485.697 278.289L485.488 281.277C485.488 281.277 483.787 281.016 483.282 283.063C483.078 284.148 482.63 285.172 481.972 286.057C481.315 286.941 479.086 288.472 478.928 290.519L477.142 291.619C477.142 291.619 472.997 290.672 472.039 288.994C472.039 288.994 473.932 302.533 463.852 299.199C463.852 299.199 475.134 304.132 475.662 304.818C476.189 305.504 479.631 307.494 482.8 305.816C485.969 304.138 486.633 301.564 486.633 301.564C486.633 301.564 489.678 297.311 489.78 296.682C489.882 296.052 492.246 295.315 492.246 295.315L496.782 284.401L487.166 277.869Z" fill="#65617D"/>
<path d="M523.799 263.027L525.319 256.099C525.319 256.099 526.005 258.367 526.685 258.883L528.953 260.584C528.953 260.584 531.221 261.633 531.998 261.633C532.775 261.633 537.038 262.767 537.56 263.334C538.082 263.901 540.185 263.492 540.185 263.492C540.185 263.492 541.914 264.059 543.439 264.439C544.965 264.819 545.707 267.325 545.379 268.323C545.123 269.331 545.401 270.403 546.116 271.158C546.745 271.787 547.062 273.834 547.062 273.834C547.834 274.086 548.474 274.632 548.843 275.354C549.37 276.488 549.211 279.028 549.211 279.028L541.393 290.05C541.393 290.05 541.495 294.302 541.183 295.249C540.871 296.196 542.283 312.258 542.283 312.258L543.91 339.865C543.077 340.597 542.198 341.281 541.285 341.912C540.814 342.121 540.344 332.148 540.344 331.785C540.344 331.422 528.216 313.642 528.216 313.642C528.216 313.642 526.589 311.017 526.589 310.438C526.589 309.86 525.069 304.559 525.069 304.559L522.762 294.353L523.799 263.027Z" fill="black" fill-opacity="0.1"/>
<path d="M549.959 278.427V279.028L542.146 290.038C542.146 290.038 542.254 294.291 541.936 295.238C541.755 295.805 542.151 301.435 542.503 306.073C542.77 309.418 543.013 312.242 543.013 312.242L543.705 323.95L544.641 339.825C543.807 340.558 542.928 341.241 542.015 341.872C541.545 342.082 541.074 332.109 541.074 331.74C541.074 331.372 528.947 313.597 528.947 313.597C528.947 313.597 527.319 310.971 527.319 310.393C527.319 309.815 525.8 304.514 525.8 304.514L523.492 294.308L524.541 263.027L525.431 256.099C525.431 256.099 526.747 258.367 527.427 258.877L529.695 260.612C529.695 260.612 531.963 261.661 532.74 261.661C533.516 261.661 537.78 262.795 538.302 263.362C538.823 263.929 540.927 263.521 540.927 263.521C540.927 263.521 542.662 264.088 544.181 264.468C545.701 264.847 546.449 267.354 546.12 268.351C545.865 269.359 546.143 270.431 546.857 271.186C547.487 271.816 547.804 273.862 547.804 273.862C548.575 274.114 549.216 274.661 549.585 275.382C549.891 276.366 550.021 277.398 549.959 278.427Z" fill="#65617D"/>
<path d="M485.805 418.281C486.065 418.281 497.088 418.7 496.878 420.486C496.668 422.272 485.805 418.281 485.805 418.281Z" fill="black" fill-opacity="0.1"/>
<path d="M488.367 421.254C488.367 421.254 495.766 422.461 493.827 423.561C491.888 424.661 488.367 421.254 488.367 421.254Z" fill="black" fill-opacity="0.1"/>
<path d="M515.809 417.137C515.809 417.137 528.089 418.186 526.252 419.547C524.415 420.908 520.061 421.123 519.851 421.174C519.641 421.225 515.809 417.137 515.809 417.137Z" fill="black" fill-opacity="0.1"/>
<path d="M514.344 422.534C514.344 422.534 521.147 423.668 521.374 425.001C521.601 426.333 514.344 422.534 514.344 422.534Z" fill="black" fill-opacity="0.1"/>
<path d="M518.004 390.93C518.004 390.93 524.241 392.399 524.621 393.397L518.004 390.93Z" fill="black" fill-opacity="0.1"/>
<path d="M493.868 395.458C493.868 395.458 490.613 396.405 493.766 398.293C496.918 400.181 493.868 395.458 493.868 395.458Z" fill="black" fill-opacity="0.1"/>
<path d="M508.492 344.994C508.861 344.994 514.581 343.106 516.577 343.945C518.006 344.478 519.514 344.761 521.034 344.784L508.492 344.994Z" fill="black" fill-opacity="0.1"/>
<path d="M508.983 350.973L508.927 351.494L504.034 364.308C504.034 364.308 503.246 368.192 502.565 370.397C502.134 371.888 501.794 373.402 501.539 374.933L505.871 348.075L508.983 350.973Z" fill="black" fill-opacity="0.1"/>
<path d="M516.907 328.364L514.872 328.398H514.81L513.613 323.108L515.382 323.011L516.907 328.364Z" fill="#3F3D56"/>
<path d="M541.695 321.969L540.391 323.046L536.026 326.635C536.026 326.635 524.221 332.934 520.967 326.953C518.098 321.68 531.484 317.915 534.71 317.093L535.396 316.928L541.695 321.969Z" fill="#FBBEBE"/>
<path d="M490.926 270.369C490.926 270.369 493.233 271.418 493.761 272.886C494.288 274.355 490.926 270.369 490.926 270.369Z" fill="black" fill-opacity="0.1"/>
<path d="M484.102 286.102C484.102 286.102 480.745 290.196 482.106 291.772C483.467 293.348 484.102 286.102 484.102 286.102Z" fill="black" fill-opacity="0.1"/>
<path d="M543.942 272.701C543.942 272.701 540.795 273.019 540.688 275.746L543.942 272.701Z" fill="black" fill-opacity="0.1"/>
<path d="M514.711 315.721C515.028 315.403 522.269 304.698 523.953 305.645L514.711 315.721Z" fill="black" fill-opacity="0.1"/>
<path d="M528.326 246.104C528.326 248.162 527.815 250.188 526.846 252.001H526.755C525.961 251.831 525.548 250.912 524.947 250.334C524.187 249.609 523.041 249.449 522.112 249.937C521.176 250.497 520.632 251.542 520.717 252.63C520.32 250.929 520.445 249.16 520.053 247.476C519.662 245.792 518.489 244.074 516.878 244.074C516.187 244.074 515.376 244.329 514.877 243.808C514.576 243.496 514.514 243.003 514.31 242.623C513.176 240.757 509.661 241.699 508.232 242.657C506.803 243.615 505.142 245.135 503.367 245.951C503.418 239.133 509.043 233.551 515.858 233.551C522.713 233.551 528.348 239.189 528.348 246.042C528.348 246.072 528.348 246.102 528.348 246.132L528.326 246.104Z" fill="black" fill-opacity="0.1"/>
<path d="M514.209 242.291C514.436 242.671 514.498 243.164 514.776 243.482C515.275 243.998 516.086 243.731 516.777 243.743C518.388 243.771 519.567 245.478 519.953 247.145C520.338 248.811 520.219 250.614 520.622 252.293C520.531 251.206 521.069 250.157 522.011 249.605C522.941 249.119 524.08 249.277 524.846 249.996C525.447 250.563 525.861 251.499 526.654 251.663C527.448 251.828 528.208 251.068 528.491 250.235C528.695 249.373 528.848 248.5 528.945 247.621C529.302 245.988 530.374 244.644 530.963 243.085C531.666 241.191 531.649 239.104 530.912 237.222C530.515 236.236 529.931 235.351 529.535 234.387C528.928 232.896 528.769 231.207 528.032 229.784C526.813 227.412 524.029 226.267 521.495 227.096C520.361 227.527 519.363 228.355 518.206 228.729C516.653 229.228 514.997 228.854 513.393 228.627C511.788 228.4 509.991 228.383 508.721 229.438C507.235 230.657 506.827 232.942 505.432 234.274C504.865 234.841 504.117 235.193 503.499 235.708C502.824 236.208 502.422 236.999 502.416 237.84C502.512 238.929 503.55 239.916 503.181 240.925C503.045 241.215 502.852 241.476 502.614 241.69C501.446 242.917 500.579 244.398 500.074 246.016C502.909 246.889 505.925 243.794 508.12 242.331C509.56 241.373 513.058 240.431 514.209 242.291Z" fill="#7C5C5C"/>
<path d="M541.658 321.969L540.354 323.046C539.22 321.124 534.469 317.291 534.469 317.291L534.673 317.093L535.359 316.928L541.658 321.969Z" fill="black" fill-opacity="0.1"/>
<path d="M542.599 320.016C542.599 320.016 542.134 321.184 541.647 322.193C541.159 323.202 540.632 324.121 540.609 323.378C540.552 321.904 534.469 316.971 534.469 316.971L535.291 316.166L536.249 315.236L542.599 320.016Z" fill="#E7EFFD"/>
<path d="M543.125 312.258L543.817 323.966C542.184 321.431 537.711 314.934 534.836 315.144L541.815 307.115C542.105 306.792 542.371 306.449 542.615 306.089C542.881 309.434 543.125 312.258 543.125 312.258Z" fill="black" fill-opacity="0.1"/>
<path d="M542.875 320.016C542.875 320.016 542.41 321.184 541.922 322.193C540.091 319.687 537.579 316.722 535.566 316.166L536.525 315.236L542.875 320.016Z" fill="black" fill-opacity="0.1"/>
<path d="M547.854 277.549L549.742 279.018C549.742 279.018 552.894 279.074 553.206 281.694C553.518 284.313 556.41 285.527 556.41 285.527C556.41 285.527 558.558 287.681 558.558 288.679C558.558 289.677 560.186 291.457 560.186 291.616C560.186 291.775 561.762 294.973 561.552 295.551C561.342 296.129 563.253 298.647 562.652 299.594C562.181 300.443 561.762 301.319 561.393 302.219C561.025 303.118 558.927 306.942 557.668 307.832C556.41 308.722 550.638 316.235 550.638 316.235C550.638 316.235 544.441 323.367 544.441 325.573C544.441 325.573 538.408 315.497 534.836 315.758L541.815 307.73C541.815 307.73 543.023 306.414 543.08 305.632C543.137 304.85 546.436 301.221 548.013 301.062C548.013 301.062 548.273 298.913 547.593 298.856C546.913 298.8 546.334 297.156 546.334 297.156C546.334 297.156 541.713 291.696 541.662 288.231C541.611 284.767 547.854 277.549 547.854 277.549Z" fill="#65617D"/>
<path d="M550.871 282.535C550.871 282.535 546.46 285.789 547.407 286.844C548.354 287.898 550.871 282.535 550.871 282.535Z" fill="black" fill-opacity="0.1"/>
<path d="M550.934 295.959C550.934 295.959 559.121 293.334 559.96 295.959H550.934Z" fill="black" fill-opacity="0.1"/>
<path d="M500.383 435.397C500.383 435.397 495.972 438.289 493.766 437.864C492.241 437.671 490.688 437.928 489.304 438.601C487.79 440.261 485.874 441.508 483.742 442.224C480.17 443.431 475.186 442.955 472.351 442.014C471.013 441.566 470.906 440.988 471.552 440.279C474.631 440.891 481.52 442.11 483.374 441.226C485.415 440.141 487.382 438.913 489.253 437.552C491.124 436.19 493.789 436.922 494.396 436.922C494.844 436.922 498.331 435.482 500.298 434.655L500.383 435.397Z" fill="black" fill-opacity="0.1"/>
<path d="M527.084 441.332C527.084 441.508 527.044 441.621 527.044 441.621C527.044 441.621 525.995 443.929 520.167 444.768C514.338 445.607 514.344 442.829 514.344 442.829L514.4 442.075C516.243 442.778 520.269 443.555 527.084 441.332Z" fill="black" fill-opacity="0.1"/>
<path d="M493.33 281.894C493.33 281.894 493.33 293.863 492.309 295.043C491.289 296.222 493.33 281.894 493.33 281.894Z" fill="black" fill-opacity="0.1"/>
<path d="M540.688 285.782L542.213 290.057C542.213 290.057 542.814 285.861 540.688 285.782Z" fill="black" fill-opacity="0.1"/>
<path d="M503.566 239.894C503.951 238.914 502.942 237.944 502.812 236.889C502.676 237.185 502.619 237.511 502.642 237.836C502.71 238.636 503.299 239.378 503.452 240.104C503.498 240.038 503.532 239.968 503.566 239.894Z" fill="black"/>
<path d="M531.152 242.082C530.585 243.636 529.491 244.98 529.134 246.618C529.066 246.947 529.02 247.287 528.98 247.627C529.343 245.994 530.404 244.656 530.993 243.092C531.254 242.392 531.419 241.659 531.475 240.914C531.396 241.311 531.288 241.702 531.152 242.082Z" fill="black"/>
<path d="M455.569 280.099C455.641 280.099 455.7 280.04 455.7 279.967C455.7 279.895 455.641 279.836 455.569 279.836C455.496 279.836 455.438 279.895 455.438 279.967C455.438 280.04 455.496 280.099 455.569 280.099Z" fill="#E6E8EC"/>
<path fill-rule="evenodd" clip-rule="evenodd" d="M509.132 283.985C509.132 283.361 508.627 282.855 508.004 282.855H407.537C406.913 282.855 406.406 283.361 406.406 283.985V399.781C406.406 400.405 406.913 400.912 407.537 400.912H508.004C508.627 400.912 509.132 400.405 509.132 399.781V283.985Z" fill="white"/>
<path fill-rule="evenodd" clip-rule="evenodd" d="M509.132 283.985C509.132 283.361 508.627 282.855 508.004 282.855H407.537C406.913 282.855 406.406 283.361 406.406 283.985V399.781C406.406 400.405 406.913 400.912 407.537 400.912H508.004C508.627 400.912 509.132 400.405 509.132 399.781V283.985Z" fill="#5A5773" fill-opacity="0.1"/>
<path fill-rule="evenodd" clip-rule="evenodd" d="M503.775 290.022C503.775 289.398 503.27 288.892 502.647 288.892H412.658C412.034 288.892 411.527 289.398 411.527 290.022V393.776C411.527 394.4 412.034 394.906 412.658 394.906H502.647C503.27 394.906 503.775 394.4 503.775 393.776V290.022Z" fill="white"/>
<path d="M484.785 356.308H430.922V362.507H484.785V356.308Z" fill="#6C63FF" fill-opacity="0.2"/>
<path d="M478.384 368.428H437.141V374.628H478.384V368.428Z" fill="#6C63FF" fill-opacity="0.2"/>
<path d="M481.778 340.942C481.778 340.943 481.778 340.945 481.778 340.946C481.778 341.485 481.307 341.929 480.734 341.931H434.896C434.322 341.929 433.852 341.485 433.852 340.946C433.852 340.945 433.852 340.943 433.852 340.941V311.514C433.852 311.513 433.852 311.511 433.852 311.51C433.852 310.971 434.322 310.527 434.896 310.525H480.734C481.307 310.527 481.778 310.971 481.778 311.51C481.778 311.512 481.778 311.513 481.778 311.515" fill="#F0F0F0"/>
<path d="M428.717 344.495L443.36 328.405C443.914 327.797 444.715 327.448 445.557 327.448C446.267 327.448 446.953 327.696 447.485 328.147L451.587 331.616C452.664 332.528 454.291 332.547 455.391 331.66L467.923 321.558C469.116 320.598 470.91 320.714 471.957 321.82L487.338 338.053C487.766 338.504 488.028 339.077 488.084 339.685L488.677 346.088C488.685 346.171 488.689 346.253 488.689 346.336C488.689 347.869 487.373 349.131 485.774 349.131C485.773 349.131 485.773 349.131 485.773 349.131H430.912C429.345 349.131 428.044 347.92 427.997 346.419C427.975 345.714 428.232 345.026 428.717 344.495Z" fill="#6C63FF"/>
<path d="M446.039 316.152C448.729 316.152 450.91 313.971 450.91 311.28C450.91 308.59 448.729 306.409 446.039 306.409C443.349 306.409 441.168 308.59 441.168 311.28C441.168 313.971 443.349 316.152 446.039 316.152Z" fill="#FFCB52"/>
<path d="M559.431 78.0432V89.579H40V78.0432C40 76.1629 41.5469 74.616 43.4272 74.616H556.003C557.884 74.616 559.431 76.1629 559.431 78.0432Z" fill="#292940"/>
<path d="M48.3204 85.3089C50.288 85.3089 51.8831 83.7138 51.8831 81.7462C51.8831 79.7786 50.288 78.1836 48.3204 78.1836C46.3529 78.1836 44.7578 79.7786 44.7578 81.7462C44.7578 83.7138 46.3529 85.3089 48.3204 85.3089Z" fill="#E3E3E3"/>
<path d="M57.8322 85.3089C59.7997 85.3089 61.3948 83.7138 61.3948 81.7462C61.3948 79.7786 59.7997 78.1836 57.8322 78.1836C55.8646 78.1836 54.2695 79.7786 54.2695 81.7462C54.2695 83.7138 55.8646 85.3089 57.8322 85.3089Z" fill="#E3E3E3"/>
<path d="M67.7111 85.3089C69.6786 85.3089 71.2737 83.7138 71.2737 81.7462C71.2737 79.7786 69.6786 78.1836 67.7111 78.1836C65.7435 78.1836 64.1484 79.7786 64.1484 81.7462C64.1484 83.7138 65.7435 85.3089 67.7111 85.3089Z" fill="#E3E3E3"/>
<path d="M161.406 161H241.406V248H161.406V161Z" fill="white"/>
<path opacity="0.1" fill-rule="evenodd" clip-rule="evenodd" d="M240.406 162H162.406V247H240.406V162ZM161.406 161V248H241.406V161H161.406Z" fill="black"/>
<path d="M228.269 201H174.406V207.2H228.269V201Z" fill="#8F8484" fill-opacity="0.2"/>
<path d="M359.406 161H439.406V248H359.406V161Z" fill="white"/>
<path opacity="0.1" fill-rule="evenodd" clip-rule="evenodd" d="M438.406 162H360.406V247H438.406V162ZM359.406 161V248H439.406V161H359.406Z" fill="black"/>
<path d="M426.269 201H372.406V207.2H426.269V201Z" fill="#8F8484" fill-opacity="0.2"/>
<path opacity="0.03" d="M260.406 161H340.406V248H260.406V161Z" fill="#33334F"/>
<path opacity="0.6" fill-rule="evenodd" clip-rule="evenodd" d="M339.406 162H261.406V247H339.406V162ZM260.406 161V248H340.406V161H260.406Z" fill="#00C389"/>
<path d="M327.269 201H273.406V207.2H327.269V201Z" fill="#8F8484" fill-opacity="0.2"/>
</svg>
