<svg width="581" height="538" viewBox="0 0 581 538" fill="none" xmlns="http://www.w3.org/2000/svg">
<path fill-rule="evenodd" clip-rule="evenodd" d="M377.456 420.088C377.456 420.088 396.527 403.006 489.851 338.734C583.182 274.533 563.151 163.641 510.319 91.8239C457.488 20.0073 287.459 -52.4497 124.881 53.8872C-37.69 160.224 -7.8264 344.285 29.0111 437.953C65.8564 531.62 228.927 613.331 377.456 420.088Z" fill="#F8F8FA"/>
<g opacity="0.34">
<circle cx="465.173" cy="205.335" r="1.17334" fill="#33334F"/>
<circle cx="465.173" cy="192.596" r="1.17334" fill="#33334F"/>
<circle cx="465.173" cy="179.857" r="1.17334" fill="#33334F"/>
<circle cx="465.173" cy="167.118" r="1.17334" fill="#33334F"/>
<circle cx="465.173" cy="154.379" r="1.17334" fill="#33334F"/>
<circle cx="465.173" cy="141.64" r="1.17334" fill="#33334F"/>
<circle cx="465.173" cy="128.9" r="1.17334" fill="#33334F"/>
<circle cx="465.173" cy="116.162" r="1.17334" fill="#33334F"/>
<circle cx="465.173" cy="103.422" r="1.17334" fill="#33334F"/>
<circle cx="465.173" cy="90.6833" r="1.17334" fill="#33334F"/>
<circle cx="477.912" cy="205.335" r="1.17334" fill="#33334F"/>
<circle cx="477.912" cy="192.596" r="1.17334" fill="#33334F"/>
<circle cx="477.912" cy="179.857" r="1.17334" fill="#33334F"/>
<circle cx="477.912" cy="167.118" r="1.17334" fill="#33334F"/>
<circle cx="477.912" cy="154.379" r="1.17334" fill="#33334F"/>
<circle cx="477.912" cy="141.64" r="1.17334" fill="#33334F"/>
<circle cx="477.912" cy="128.9" r="1.17334" fill="#33334F"/>
<circle cx="477.912" cy="116.162" r="1.17334" fill="#33334F"/>
<circle cx="477.912" cy="103.422" r="1.17334" fill="#33334F"/>
<circle cx="477.912" cy="90.6833" r="1.17334" fill="#33334F"/>
<circle cx="490.65" cy="205.335" r="1.17334" fill="#33334F"/>
<circle cx="490.65" cy="192.596" r="1.17334" fill="#33334F"/>
<circle cx="490.65" cy="179.857" r="1.17334" fill="#33334F"/>
<circle cx="490.65" cy="167.118" r="1.17334" fill="#33334F"/>
<circle cx="490.65" cy="154.379" r="1.17334" fill="#33334F"/>
<circle cx="490.65" cy="141.64" r="1.17334" fill="#33334F"/>
<circle cx="490.65" cy="128.9" r="1.17334" fill="#33334F"/>
<circle cx="490.65" cy="116.162" r="1.17334" fill="#33334F"/>
<circle cx="490.65" cy="103.422" r="1.17334" fill="#33334F"/>
<circle cx="490.65" cy="90.6833" r="1.17334" fill="#33334F"/>
<circle cx="503.388" cy="205.335" r="1.17334" fill="#33334F"/>
<circle cx="503.388" cy="192.596" r="1.17334" fill="#33334F"/>
<circle cx="503.388" cy="179.857" r="1.17334" fill="#33334F"/>
<circle cx="503.388" cy="167.118" r="1.17334" fill="#33334F"/>
<circle cx="503.388" cy="154.379" r="1.17334" fill="#33334F"/>
<circle cx="503.388" cy="141.64" r="1.17334" fill="#33334F"/>
<circle cx="503.388" cy="128.9" r="1.17334" fill="#33334F"/>
<circle cx="503.388" cy="116.162" r="1.17334" fill="#33334F"/>
<circle cx="503.388" cy="103.422" r="1.17334" fill="#33334F"/>
<circle cx="503.388" cy="90.6833" r="1.17334" fill="#33334F"/>
<circle cx="516.13" cy="205.335" r="1.17334" fill="#33334F"/>
<circle cx="516.13" cy="192.596" r="1.17334" fill="#33334F"/>
<circle cx="516.13" cy="179.857" r="1.17334" fill="#33334F"/>
<circle cx="516.13" cy="167.118" r="1.17334" fill="#33334F"/>
<circle cx="516.13" cy="154.379" r="1.17334" fill="#33334F"/>
<circle cx="516.13" cy="141.64" r="1.17334" fill="#33334F"/>
<circle cx="516.13" cy="128.9" r="1.17334" fill="#33334F"/>
<circle cx="516.13" cy="116.162" r="1.17334" fill="#33334F"/>
<circle cx="516.13" cy="103.422" r="1.17334" fill="#33334F"/>
<circle cx="516.13" cy="90.6833" r="1.17334" fill="#33334F"/>
<circle cx="528.869" cy="205.335" r="1.17334" fill="#33334F"/>
<circle cx="528.869" cy="192.596" r="1.17334" fill="#33334F"/>
<circle cx="528.869" cy="179.857" r="1.17334" fill="#33334F"/>
<circle cx="528.869" cy="167.118" r="1.17334" fill="#33334F"/>
<circle cx="528.869" cy="154.379" r="1.17334" fill="#33334F"/>
<circle cx="528.869" cy="141.64" r="1.17334" fill="#33334F"/>
<circle cx="528.869" cy="128.9" r="1.17334" fill="#33334F"/>
<circle cx="528.869" cy="116.162" r="1.17334" fill="#33334F"/>
<circle cx="528.869" cy="103.422" r="1.17334" fill="#33334F"/>
<circle cx="528.869" cy="90.6833" r="1.17334" fill="#33334F"/>
<circle cx="541.607" cy="205.335" r="1.17334" fill="#33334F"/>
<circle cx="541.607" cy="192.596" r="1.17334" fill="#33334F"/>
<circle cx="541.607" cy="179.857" r="1.17334" fill="#33334F"/>
<circle cx="541.607" cy="167.118" r="1.17334" fill="#33334F"/>
<circle cx="541.607" cy="154.379" r="1.17334" fill="#33334F"/>
<circle cx="541.607" cy="141.64" r="1.17334" fill="#33334F"/>
<circle cx="541.607" cy="128.9" r="1.17334" fill="#33334F"/>
<circle cx="541.607" cy="116.162" r="1.17334" fill="#33334F"/>
<circle cx="541.607" cy="103.422" r="1.17334" fill="#33334F"/>
<circle cx="541.607" cy="90.6833" r="1.17334" fill="#33334F"/>
<circle cx="554.345" cy="205.335" r="1.17334" fill="#33334F"/>
<circle cx="554.345" cy="192.596" r="1.17334" fill="#33334F"/>
<circle cx="554.345" cy="179.857" r="1.17334" fill="#33334F"/>
<circle cx="554.345" cy="167.118" r="1.17334" fill="#33334F"/>
<circle cx="554.345" cy="154.379" r="1.17334" fill="#33334F"/>
<circle cx="554.345" cy="141.64" r="1.17334" fill="#33334F"/>
<circle cx="554.345" cy="128.9" r="1.17334" fill="#33334F"/>
<circle cx="554.345" cy="116.162" r="1.17334" fill="#33334F"/>
<circle cx="554.345" cy="103.422" r="1.17334" fill="#33334F"/>
<circle cx="554.345" cy="90.6833" r="1.17334" fill="#33334F"/>
<circle cx="567.087" cy="205.335" r="1.17334" fill="#33334F"/>
<circle cx="567.087" cy="192.596" r="1.17334" fill="#33334F"/>
<circle cx="567.087" cy="179.857" r="1.17334" fill="#33334F"/>
<circle cx="567.087" cy="167.118" r="1.17334" fill="#33334F"/>
<circle cx="567.087" cy="154.379" r="1.17334" fill="#33334F"/>
<circle cx="567.087" cy="141.64" r="1.17334" fill="#33334F"/>
<circle cx="567.087" cy="128.9" r="1.17334" fill="#33334F"/>
<circle cx="567.087" cy="116.162" r="1.17334" fill="#33334F"/>
<circle cx="567.087" cy="103.422" r="1.17334" fill="#33334F"/>
<circle cx="567.087" cy="90.6833" r="1.17334" fill="#33334F"/>
<circle cx="579.826" cy="205.335" r="1.17334" fill="#33334F"/>
<circle cx="579.826" cy="192.596" r="1.17334" fill="#33334F"/>
<circle cx="579.826" cy="179.857" r="1.17334" fill="#33334F"/>
<circle cx="579.826" cy="167.118" r="1.17334" fill="#33334F"/>
<circle cx="579.826" cy="154.379" r="1.17334" fill="#33334F"/>
<circle cx="579.826" cy="141.64" r="1.17334" fill="#33334F"/>
<circle cx="579.826" cy="128.9" r="1.17334" fill="#33334F"/>
<circle cx="579.826" cy="116.162" r="1.17334" fill="#33334F"/>
<circle cx="579.826" cy="103.422" r="1.17334" fill="#33334F"/>
<circle cx="579.826" cy="90.6833" r="1.17334" fill="#33334F"/>
</g>
<path fill-rule="evenodd" clip-rule="evenodd" d="M521.517 160.962C521.517 157.87 519 155.361 515.919 155.361H105.868C102.763 155.361 100.27 157.87 100.27 160.962V289.77C100.27 292.86 102.763 295.37 105.868 295.37H515.919C519 295.37 521.517 292.86 521.517 289.77V160.962Z" fill="#E8E8E8"/>
<path fill-rule="evenodd" clip-rule="evenodd" d="M519.996 158.681C519.996 154.045 516.223 150.28 511.583 150.28H108.66C104.019 150.28 100.27 154.045 100.27 158.681V281.887C100.27 286.525 104.019 290.288 108.66 290.288H511.583C516.223 290.288 519.996 286.525 519.996 281.887V158.681Z" fill="white"/>
<path fill-rule="evenodd" clip-rule="evenodd" d="M513.168 150.272C517.372 150.313 521.319 153.849 521.507 158.295C521.507 158.403 521.525 158.511 521.525 158.618C521.645 199.723 521.645 240.83 521.525 281.934C521.473 286.14 517.938 290.076 513.494 290.272C513.391 290.277 513.288 290.279 513.168 290.281C416.305 290.588 205.592 290.588 108.712 290.281C104.508 290.241 100.578 286.704 100.372 282.259C100.372 282.151 100.372 282.042 100.372 281.934C100.235 240.83 100.235 199.723 100.372 158.618C100.407 154.414 103.942 150.479 108.386 150.281C108.489 150.275 108.609 150.274 108.712 150.272C205.592 149.966 416.305 149.966 513.168 150.272ZM108.763 151.697C105.898 151.705 103.101 153.622 102.157 156.437C101.917 157.141 101.797 157.884 101.797 158.627C101.539 199.727 101.539 240.828 101.797 281.926C101.814 285.496 104.902 288.822 108.712 288.858C205.592 289.155 416.288 289.157 513.168 288.858C516.703 288.825 519.963 285.771 520.083 282.151C520.1 282.076 520.1 282.001 520.1 281.926V158.627C520.049 155.016 516.977 151.731 513.168 151.697C416.305 151.398 205.626 151.697 108.763 151.697Z" fill="#DDDDDF"/>
<path d="M290.052 226.497H159.074V238.533H290.052V226.497Z" fill="#E8E8E8"/>
<path d="M349.052 202.04H159.074V214.076H349.052V202.04Z" fill="#D3D3D7"/>
<path d="M522.481 314.946C540.442 314.946 555.002 300.386 555.002 282.425C555.002 264.465 540.442 249.905 522.481 249.905C504.521 249.905 489.961 264.465 489.961 282.425C489.961 300.386 504.521 314.946 522.481 314.946Z" fill="#DC4D41"/>
<path fill-rule="evenodd" clip-rule="evenodd" d="M531.544 293.531L523.959 281.859L517.844 285.838L515.452 287.384L503.512 268.995L508.688 265.623L517.28 278.825L525.77 273.306L526.197 273.954V273.952L536.822 290.293L541.383 287.491L538.803 299.245L527.154 296.23L531.544 293.531Z" fill="white"/>
<path fill-rule="evenodd" clip-rule="evenodd" d="M521.517 332.028C521.517 328.937 519 326.427 515.919 326.427H105.868C102.763 326.427 100.27 328.937 100.27 332.028V460.836C100.27 463.927 102.763 466.436 105.868 466.436H515.919C519 466.436 521.517 463.927 521.517 460.836V332.028Z" fill="#E8E8E8"/>
<path fill-rule="evenodd" clip-rule="evenodd" d="M521.517 329.747C521.517 325.111 517.754 321.346 513.12 321.346H108.667C104.033 321.346 100.27 325.111 100.27 329.747V452.954C100.27 457.591 104.033 461.355 108.667 461.355H513.12C517.754 461.355 521.517 457.591 521.517 452.954V329.747Z" fill="white"/>
<path fill-rule="evenodd" clip-rule="evenodd" d="M513.168 321.338C517.372 321.379 521.319 324.915 521.507 329.362C521.507 329.469 521.525 329.577 521.525 329.685C521.645 370.789 521.645 411.896 521.525 453.001C521.473 457.206 517.938 461.142 513.494 461.338C513.391 461.343 513.288 461.345 513.168 461.347C416.305 461.654 205.592 461.654 108.712 461.347C104.508 461.308 100.578 457.77 100.372 453.325C100.372 453.217 100.372 453.108 100.372 453.001C100.235 411.896 100.235 370.789 100.372 329.685C100.407 325.481 103.942 321.545 108.386 321.347C108.489 321.342 108.609 321.34 108.712 321.338C205.592 321.032 416.305 321.032 513.168 321.338ZM108.763 322.763C105.863 322.771 103.084 324.744 102.157 327.503C101.917 328.207 101.797 328.95 101.797 329.693C101.539 370.793 101.539 411.894 101.797 452.992C101.814 456.487 104.731 459.772 108.489 459.919C108.575 459.922 108.643 459.922 108.712 459.924C205.592 460.221 416.288 460.223 513.168 459.924C515.931 459.898 518.607 458.159 519.637 455.426C519.929 454.651 520.083 453.82 520.1 452.992V329.693C520.066 327.688 519.174 325.699 517.561 324.355C516.343 323.352 514.781 322.792 513.202 322.763H513.168C416.305 322.464 205.626 322.763 108.763 322.763Z" fill="#DDDDDF"/>
<path d="M290.052 397.564H159.074V409.6H290.052V397.564Z" fill="#E8E8E8"/>
<path d="M349.052 373.106H159.074V385.142H349.052V373.106Z" fill="#D3D3D7"/>
<path d="M520.583 487.807C538.544 487.807 553.104 473.247 553.104 455.287C553.104 437.326 538.544 422.766 520.583 422.766C502.622 422.766 488.062 437.326 488.062 455.287C488.062 473.247 502.622 487.807 520.583 487.807Z" fill="#DC4D41"/>
<path fill-rule="evenodd" clip-rule="evenodd" d="M529.645 466.393L522.061 454.721L515.945 458.699L513.554 460.245L501.613 441.856L506.789 438.484L515.381 451.687L523.871 446.168L524.299 446.815V446.813L534.924 463.154L539.484 460.353L536.905 472.107L525.255 469.092L529.645 466.393Z" fill="white"/>
<path d="M54.9923 203.75C91.3281 210.021 111.559 210.021 147.895 203.75L180.118 198.188C164.21 182.375 155.273 162.823 155.273 140.463V109.903C155.402 89.3706 141.837 74.3249 128.292 68.1348C111.318 60.376 91.5692 60.3454 74.622 68.162C61.196 74.352 46.6596 89.3875 46.5306 109.903V140.463C46.5306 162.823 38.6699 182.375 22.7617 198.188L54.9923 203.75Z" fill="#E7ECED"/>
<path d="M63.5558 113.311H63.5354C61.661 113.298 60.15 111.77 60.1602 109.895C60.2621 93.9974 72.9003 83.9432 80.357 80.5103C93.4264 74.4832 109.538 74.4934 122.696 80.5035C124.401 81.2811 125.151 83.2946 124.373 85.0026C123.593 86.7071 121.579 87.461 119.871 86.6766C108.486 81.4712 94.5096 81.4576 83.2024 86.6766C77.2025 89.4406 67.0328 97.4507 66.9547 109.936C66.9411 111.807 65.4233 113.311 63.5558 113.311Z" fill="white"/>
<path d="M114.422 63.6757V58.9865C114.422 51.4857 108.341 45.4043 100.84 45.4043C93.3392 45.4043 87.2578 51.4857 87.2578 58.9865V63.9202C96.1847 61.9135 105.461 61.8422 114.422 63.6757Z" fill="#C7CAC7"/>
<path d="M73.4375 206.556C78.3441 217.652 89.0638 225.367 101.542 225.367C114.025 225.367 124.748 217.649 129.651 206.545C109.522 209.099 93.5528 209.102 73.4375 206.556Z" fill="#C7CAC7"/>
<path d="M167.21 76.031C167.21 86.9589 158.351 95.8177 147.423 95.8177C136.496 95.8177 127.637 86.9589 127.637 76.031C127.637 65.1032 136.496 56.2444 147.423 56.2444C158.351 56.2444 167.21 65.1032 167.21 76.031Z" fill="#F8D50D"/>
<path d="M155.357 84.5841C155.357 84.0576 155.144 83.6298 154.753 83.235C154.361 82.873 153.863 82.7085 153.293 82.7085H146.745L153.898 73.0671C153.97 72.9684 154.041 72.8697 154.076 72.771C154.503 71.8825 154.717 70.9941 154.717 70.0398C154.717 68.23 154.005 66.6505 152.617 65.3672C151.194 64.0839 149.521 63.4258 147.528 63.4258C145.571 63.4258 143.863 64.0839 142.475 65.3672C141.087 66.6505 140.375 68.23 140.375 70.0398C140.375 70.2043 140.375 70.336 140.375 70.5005C140.411 71.027 140.66 71.4547 141.087 71.7838C141.514 72.1458 142.012 72.2774 142.546 72.2445C143.115 72.2116 143.613 72.0141 143.969 71.6193C144.361 71.2244 144.539 70.7637 144.503 70.2372C144.468 70.1714 144.468 70.1056 144.468 70.0398C144.468 69.283 144.788 68.592 145.393 68.0326C145.962 67.5061 146.71 67.2428 147.528 67.2428C148.382 67.2428 149.094 67.5061 149.699 68.0326C150.304 68.592 150.624 69.283 150.624 70.0398C150.624 70.4018 150.553 70.7308 150.411 71.0599L141.122 83.5311C140.66 84.1563 140.624 84.8144 141.016 85.4725C141.407 86.1636 142.012 86.4926 142.831 86.4926H153.293C153.863 86.4926 154.361 86.2952 154.753 85.9332C155.144 85.5713 155.357 85.1106 155.357 84.5841Z" fill="#54547B"/>
<path d="M31.519 88.5763C30.7723 88.0528 29.8491 87.8458 28.9513 88.001C28.0524 88.1563 27.252 88.6605 26.7244 89.4041C22.7333 95.1208 20.5938 101.924 20.5938 108.895C20.5938 115.866 22.7333 122.67 26.7244 128.386C27.2499 129.136 28.0524 129.647 28.9553 129.806C29.8582 129.964 30.7865 129.757 31.5362 129.232C32.287 128.705 32.7972 127.903 32.9555 127.001C33.1138 126.098 32.9078 125.169 32.3813 124.419C29.2069 119.865 27.5056 114.446 27.5056 108.895C27.5056 103.343 29.2069 97.9259 32.3813 93.3718C32.9017 92.6211 33.1036 91.6948 32.9413 90.796C32.78 89.8971 32.2687 89.0987 31.519 88.5763Z" fill="#54547B"/>
<path d="M6.88748 108.877C6.87429 99.1147 9.87419 89.5855 15.4773 81.5902C15.7634 81.2199 15.9724 80.7958 16.0901 80.3423C16.2077 79.8898 16.2311 79.4171 16.1611 78.9545C16.0901 78.4919 15.9257 78.0485 15.6782 77.6508C15.4296 77.2542 15.104 76.9113 14.7195 76.6444C14.335 76.3766 13.9008 76.191 13.4422 76.0966C12.9836 76.0033 12.5099 76.0033 12.0523 76.0986C11.5938 76.193 11.1596 76.3807 10.7751 76.6485C10.3916 76.9163 10.0659 77.2602 9.8194 77.6579C3.42802 86.8138 0 97.7106 0 108.877C0 120.044 3.42802 130.942 9.8194 140.098C10.0893 140.469 10.4291 140.784 10.8207 141.024C11.2113 141.263 11.6465 141.425 12.099 141.497C12.5525 141.569 13.0161 141.55 13.4625 141.444C13.9089 141.337 14.3299 141.144 14.7012 140.874C15.0725 140.604 15.387 140.264 15.6275 139.872C15.8669 139.482 16.0282 139.047 16.1002 138.594C16.1722 138.141 16.154 137.677 16.0475 137.231C15.9399 136.784 15.7461 136.364 15.4773 135.992C9.89955 128.049 6.90067 118.583 6.88748 108.877Z" fill="#54547B" fill-opacity="0.7"/>
<path d="M175.435 88.559C174.691 89.0865 174.186 89.887 174.03 90.7858C173.876 91.6837 174.083 92.6079 174.607 93.3546C177.781 97.9087 179.482 103.326 179.482 108.878C179.482 114.429 177.781 119.847 174.607 124.401C174.08 125.152 173.874 126.08 174.033 126.982C174.191 127.885 174.701 128.688 175.452 129.214C176.202 129.74 177.131 129.947 178.033 129.789C178.936 129.629 179.738 129.119 180.264 128.369C184.255 122.652 186.394 115.849 186.394 108.878C186.394 101.907 184.255 95.1036 180.264 89.3868C180.003 89.0135 179.67 88.696 179.285 88.4525C178.9 88.209 178.471 88.0436 178.022 87.9665C177.573 87.8894 177.113 87.9026 176.669 88.0041C176.225 88.1055 175.805 88.2942 175.435 88.559Z" fill="#54547B"/>
<path d="M192.27 76.8111C191.521 77.3335 191.009 78.1309 190.847 79.0298C190.686 79.9286 190.887 80.8549 191.407 81.6056C196.995 89.602 199.992 99.1211 199.992 108.876C199.992 118.631 196.995 128.15 191.407 136.146C190.882 136.896 190.675 137.824 190.833 138.727C190.991 139.629 191.503 140.433 192.252 140.958C193.003 141.485 193.931 141.691 194.834 141.532C195.736 141.374 196.539 140.863 197.065 140.113C203.457 130.957 206.885 120.059 206.885 108.893C206.885 97.7271 203.457 86.8293 197.065 77.6734C196.543 76.9237 195.744 76.4124 194.846 76.2511C193.947 76.0887 193.02 76.2906 192.27 76.8111Z" fill="#54547B" fill-opacity="0.7"/>
</svg>
