<svg width="715" height="545" viewBox="0 0 715 545" fill="none" xmlns="http://www.w3.org/2000/svg">
<path d="M349.824 544.389C542.479 544.389 698.657 537.477 698.657 528.951C698.657 520.425 542.479 513.513 349.824 513.513C157.17 513.513 0.992188 520.425 0.992188 528.951C0.992188 537.477 157.17 544.389 349.824 544.389Z" fill="#AEAEAE"/>
<path d="M227.51 353.761L222.886 350.886C222.445 350.614 222.011 350.32 221.57 350.041C242.598 346.423 258.115 328.008 258.115 306.672C258.115 287.013 244.943 269.626 226.018 264.307L226.246 282.436L216.284 262.711H216.159C192.048 261.592 171.285 280.505 170.153 304.615C170.109 305.461 170.153 306.284 170.153 307.115C166.691 303.16 163.537 298.918 161.456 294.272C157.244 284.869 157.163 274.217 157.494 261.263C158.155 235.606 159.265 209.743 160.706 183.968C182.102 181.586 198.765 163.833 199.787 142.329C199.846 140.983 199.824 139.66 199.787 138.337C199.787 138.006 199.787 137.683 199.736 137.352C199.648 136.073 199.53 134.808 199.332 133.558C199.332 133.353 199.258 133.154 199.221 132.956C199.045 131.897 198.824 130.853 198.574 129.824C198.479 129.434 198.383 129.052 198.28 128.67C197.972 127.545 197.633 126.464 197.236 125.347C197.104 124.986 196.95 124.611 196.81 124.273C196.501 123.472 196.163 122.678 195.803 121.899C195.612 121.487 195.428 121.075 195.229 120.671C195.171 120.568 195.134 120.458 195.075 120.355C185.525 101.506 163.678 92.0681 143.408 98.0354L143.702 121.634L133.851 102.138C117.272 111.618 108.718 130.902 112.818 149.555H112.774C112.84 149.872 112.936 150.173 113.009 150.482C113.149 151.063 113.296 151.636 113.458 152.209C113.664 152.945 113.899 153.68 114.142 154.415C114.325 154.959 114.502 155.496 114.708 156.032C115.009 156.811 115.347 157.569 115.685 158.326C115.884 158.767 116.06 159.223 116.273 159.657C116.832 160.794 117.44 161.904 118.097 162.987C118.325 163.369 118.582 163.722 118.832 164.097C119.302 164.832 119.773 165.567 120.302 166.251C120.618 166.685 120.956 167.104 121.287 167.523C121.772 168.133 122.265 168.736 122.758 169.317C123.118 169.736 123.493 170.14 123.868 170.537C124.412 171.11 124.963 171.662 125.536 172.198C125.919 172.559 126.272 172.934 126.691 173.272C127.338 173.853 128.014 174.397 128.698 174.933C129.043 175.205 129.381 175.485 129.734 175.749C130.778 176.484 131.851 177.22 132.962 177.955C133.167 178.08 133.395 178.183 133.601 178.308C134.535 178.852 135.476 179.374 136.446 179.844C136.865 180.05 137.292 180.234 137.718 180.425C138.512 180.778 139.313 181.123 140.137 181.439L141.607 181.954C142.416 182.226 143.239 182.483 144.07 182.689C144.555 182.821 145.048 182.961 145.54 183.079C146.437 183.292 147.356 183.468 148.282 183.63L148.459 183.667C147.856 194.542 147.317 205.42 146.841 216.301C139.489 201.192 124.095 191.563 107.291 191.563C99.7552 191.563 92.3441 193.5 85.7718 197.186L93.5498 218.506L77.5454 203.141C68.9683 210.984 63.8509 221.922 63.3274 233.533C63.1231 237.606 63.4995 241.688 64.4449 245.656C69.1028 265.462 86.9223 279.577 107.269 279.577C122.948 279.577 137.486 271.194 145.342 257.624C145.342 258.727 145.268 259.829 145.239 260.94C144.945 272.364 144.577 286.582 150.274 299.278C154.134 307.88 160.339 314.871 166.448 321.135C170.44 325.207 174.579 329.155 178.821 332.971C182.997 338.577 188.445 343.112 194.715 346.203C201.684 351.57 208.903 356.621 216.365 361.282L221.026 364.178C225.216 366.773 229.51 369.442 233.715 372.213C232.98 372.14 232.245 372.059 231.509 372.022C212.417 371.133 194.825 382.773 188.179 400.694L215.689 423.035L185.444 416.022C185.471 440.157 205.338 460.002 229.473 460.002C236.072 460.002 242.587 458.518 248.536 455.661L246.529 458.198C245.176 459.879 243.84 461.55 242.522 463.212C224.628 485.877 219.651 507.387 228.51 523.789L239.287 517.974C230.627 502.006 243.588 481.569 252.094 470.82C253.388 469.188 254.701 467.547 256.034 465.895C267.466 451.692 280.419 435.592 280.103 415.845C279.611 386.064 250.726 368.155 227.51 353.761Z" fill="#F2F2F2"/>
<path d="M426.708 321.215L432.472 317.627C433.023 317.282 433.56 316.892 434.111 316.569C408.809 312.217 389.771 290.673 388.568 265.027C388.152 256.438 389.776 247.871 393.31 240.031C399.98 225.171 412.918 214.018 428.598 209.61L428.311 232.231L440.713 207.625H440.86C470.949 206.226 496.862 229.829 498.269 259.917C498.32 260.969 498.269 261.998 498.269 263.034C502.599 258.101 506.524 252.808 509.12 247.015C514.383 235.253 514.486 222.02 514.067 205.846C513.244 173.83 511.862 141.571 510.061 109.415C483.365 106.444 462.576 84.2919 461.305 57.4615C461.231 55.7853 461.253 54.1312 461.305 52.4844C461.305 52.0728 461.327 51.6611 461.371 51.2494C461.474 49.6541 461.628 48.0735 461.864 46.5223C461.9 46.265 461.959 46.015 462.003 45.7871C462.229 44.4638 462.501 43.1604 462.819 41.8761C462.937 41.3982 463.055 40.913 463.18 40.4058C463.569 39.009 463.988 37.6195 464.481 36.2668C464.643 35.811 464.834 35.3773 465.01 34.9288C465.407 33.9217 465.826 32.9365 466.275 31.9882C466.51 31.4809 466.738 30.9663 467.01 30.459C467.069 30.3341 467.127 30.1944 467.194 30.0694C479.097 6.54355 506.364 -5.23371 531.652 2.2289L531.285 31.6353L543.576 7.3162C564.26 19.1435 574.924 43.2075 569.792 66.4745H569.851C569.77 66.8642 569.645 67.2097 569.557 67.6287C569.38 68.3639 569.197 69.0991 568.998 69.7828C568.741 70.7017 568.447 71.5986 568.145 72.4955C567.917 73.1719 567.697 73.8482 567.41 74.5172C567.035 75.4876 566.616 76.436 566.19 77.377C565.94 77.9283 565.719 78.4944 565.455 79.0384C564.72 80.4573 563.984 81.8467 563.183 83.1921C562.904 83.6699 562.58 84.1184 562.279 84.5815C561.691 85.4931 561.095 86.39 560.456 87.2649C560.059 87.8089 559.64 88.3235 559.228 88.8528C558.625 89.588 558.015 90.3672 557.368 91.0951C556.917 91.5854 556.454 92.0927 555.978 92.6168C555.309 93.352 554.611 94.0136 553.905 94.69C553.428 95.1384 552.957 95.5942 552.435 96.028C551.619 96.7631 550.781 97.4248 549.921 98.0938C549.494 98.4319 549.075 98.7922 548.634 99.1156C547.333 100.071 545.995 100.983 544.606 101.828C544.348 101.983 544.069 102.115 543.804 102.269C542.652 102.955 541.472 103.595 540.261 104.188C539.739 104.446 539.202 104.666 538.673 104.923C537.68 105.372 536.681 105.798 535.659 106.188C535.056 106.416 534.453 106.629 533.85 106.835C532.836 107.18 531.814 107.489 530.777 107.776C530.167 107.945 529.557 108.114 528.932 108.268C527.807 108.533 526.668 108.754 525.514 108.952L525.286 108.996C526.05 122.567 526.724 136.141 527.307 149.717C536.478 130.875 555.677 118.868 576.632 118.868C586.042 118.868 595.295 121.289 603.499 125.898L593.861 152.488L613.821 133.323C624.522 143.105 630.908 156.751 631.56 171.235C631.811 176.299 631.344 181.373 630.171 186.306C624.375 211.036 602.132 228.667 576.732 228.667C557.161 228.667 539.016 218.201 529.219 201.259C529.219 202.634 529.314 204.023 529.351 205.398C529.719 219.653 530.175 237.392 523.073 253.227C518.258 263.968 510.509 272.68 502.849 280.494C497.864 285.582 492.718 290.505 487.41 295.264C482.193 302.254 475.389 307.906 467.561 311.753C458.864 318.451 449.859 324.751 440.551 330.573L434.744 334.198C429.517 337.433 424.165 340.763 418.908 344.218C419.835 344.13 420.746 344.027 421.687 343.983C445.5 342.87 467.443 357.38 475.743 379.726L441.441 407.662L479.177 398.921C479.134 429.031 454.347 453.783 424.238 453.783C416.006 453.783 407.877 451.932 400.456 448.368C401.309 449.427 402.154 450.485 403.007 451.537C404.69 453.632 406.374 455.72 408.013 457.793C430.333 486.06 436.545 512.93 425.488 533.367L412.049 526.111C422.805 506.189 406.624 480.693 396.016 467.299C394.406 465.262 392.759 463.211 391.105 461.153C376.843 443.435 360.677 423.351 361.074 398.715C361.684 361.509 397.736 339.167 426.708 321.215Z" fill="#F2F2F2"/>
<g opacity="0.34">
<circle cx="599.173" cy="197.825" r="1.17334" fill="#33334F"/>
<circle cx="599.173" cy="185.086" r="1.17334" fill="#33334F"/>
<circle cx="599.173" cy="172.347" r="1.17334" fill="#33334F"/>
<circle cx="599.173" cy="159.608" r="1.17334" fill="#33334F"/>
<circle cx="599.173" cy="146.868" r="1.17334" fill="#33334F"/>
<circle cx="599.173" cy="134.13" r="1.17334" fill="#33334F"/>
<circle cx="599.173" cy="121.39" r="1.17334" fill="#33334F"/>
<circle cx="599.173" cy="108.651" r="1.17334" fill="#33334F"/>
<circle cx="599.173" cy="95.9122" r="1.17334" fill="#33334F"/>
<circle cx="599.173" cy="83.1733" r="1.17334" fill="#33334F"/>
<circle cx="611.912" cy="197.825" r="1.17334" fill="#33334F"/>
<circle cx="611.912" cy="185.086" r="1.17334" fill="#33334F"/>
<circle cx="611.912" cy="172.347" r="1.17334" fill="#33334F"/>
<circle cx="611.912" cy="159.608" r="1.17334" fill="#33334F"/>
<circle cx="611.912" cy="146.868" r="1.17334" fill="#33334F"/>
<circle cx="611.912" cy="134.13" r="1.17334" fill="#33334F"/>
<circle cx="611.912" cy="121.39" r="1.17334" fill="#33334F"/>
<circle cx="611.912" cy="108.651" r="1.17334" fill="#33334F"/>
<circle cx="611.912" cy="95.9122" r="1.17334" fill="#33334F"/>
<circle cx="611.912" cy="83.1733" r="1.17334" fill="#33334F"/>
<circle cx="624.65" cy="197.825" r="1.17334" fill="#33334F"/>
<circle cx="624.65" cy="185.086" r="1.17334" fill="#33334F"/>
<circle cx="624.65" cy="172.347" r="1.17334" fill="#33334F"/>
<circle cx="624.65" cy="159.608" r="1.17334" fill="#33334F"/>
<circle cx="624.65" cy="146.868" r="1.17334" fill="#33334F"/>
<circle cx="624.65" cy="134.13" r="1.17334" fill="#33334F"/>
<circle cx="624.65" cy="121.39" r="1.17334" fill="#33334F"/>
<circle cx="624.65" cy="108.651" r="1.17334" fill="#33334F"/>
<circle cx="624.65" cy="95.9122" r="1.17334" fill="#33334F"/>
<circle cx="624.65" cy="83.1733" r="1.17334" fill="#33334F"/>
<circle cx="637.388" cy="197.825" r="1.17334" fill="#33334F"/>
<circle cx="637.388" cy="185.086" r="1.17334" fill="#33334F"/>
<circle cx="637.388" cy="172.347" r="1.17334" fill="#33334F"/>
<circle cx="637.388" cy="159.608" r="1.17334" fill="#33334F"/>
<circle cx="637.388" cy="146.868" r="1.17334" fill="#33334F"/>
<circle cx="637.388" cy="134.13" r="1.17334" fill="#33334F"/>
<circle cx="637.388" cy="121.39" r="1.17334" fill="#33334F"/>
<circle cx="637.388" cy="108.651" r="1.17334" fill="#33334F"/>
<circle cx="637.388" cy="95.9122" r="1.17334" fill="#33334F"/>
<circle cx="637.388" cy="83.1733" r="1.17334" fill="#33334F"/>
<circle cx="650.13" cy="197.825" r="1.17334" fill="#33334F"/>
<circle cx="650.13" cy="185.086" r="1.17334" fill="#33334F"/>
<circle cx="650.13" cy="172.347" r="1.17334" fill="#33334F"/>
<circle cx="650.13" cy="159.608" r="1.17334" fill="#33334F"/>
<circle cx="650.13" cy="146.868" r="1.17334" fill="#33334F"/>
<circle cx="650.13" cy="134.13" r="1.17334" fill="#33334F"/>
<circle cx="650.13" cy="121.39" r="1.17334" fill="#33334F"/>
<circle cx="650.13" cy="108.651" r="1.17334" fill="#33334F"/>
<circle cx="650.13" cy="95.9122" r="1.17334" fill="#33334F"/>
<circle cx="650.13" cy="83.1733" r="1.17334" fill="#33334F"/>
<circle cx="662.869" cy="197.825" r="1.17334" fill="#33334F"/>
<circle cx="662.869" cy="185.086" r="1.17334" fill="#33334F"/>
<circle cx="662.869" cy="172.347" r="1.17334" fill="#33334F"/>
<circle cx="662.869" cy="159.608" r="1.17334" fill="#33334F"/>
<circle cx="662.869" cy="146.868" r="1.17334" fill="#33334F"/>
<circle cx="662.869" cy="134.13" r="1.17334" fill="#33334F"/>
<circle cx="662.869" cy="121.39" r="1.17334" fill="#33334F"/>
<circle cx="662.869" cy="108.651" r="1.17334" fill="#33334F"/>
<circle cx="662.869" cy="95.9122" r="1.17334" fill="#33334F"/>
<circle cx="662.869" cy="83.1733" r="1.17334" fill="#33334F"/>
<circle cx="675.607" cy="197.825" r="1.17334" fill="#33334F"/>
<circle cx="675.607" cy="185.086" r="1.17334" fill="#33334F"/>
<circle cx="675.607" cy="172.347" r="1.17334" fill="#33334F"/>
<circle cx="675.607" cy="159.608" r="1.17334" fill="#33334F"/>
<circle cx="675.607" cy="146.868" r="1.17334" fill="#33334F"/>
<circle cx="675.607" cy="134.13" r="1.17334" fill="#33334F"/>
<circle cx="675.607" cy="121.39" r="1.17334" fill="#33334F"/>
<circle cx="675.607" cy="108.651" r="1.17334" fill="#33334F"/>
<circle cx="675.607" cy="95.9122" r="1.17334" fill="#33334F"/>
<circle cx="675.607" cy="83.1733" r="1.17334" fill="#33334F"/>
<circle cx="688.345" cy="197.825" r="1.17334" fill="#33334F"/>
<circle cx="688.345" cy="185.086" r="1.17334" fill="#33334F"/>
<circle cx="688.345" cy="172.347" r="1.17334" fill="#33334F"/>
<circle cx="688.345" cy="159.608" r="1.17334" fill="#33334F"/>
<circle cx="688.345" cy="146.868" r="1.17334" fill="#33334F"/>
<circle cx="688.345" cy="134.13" r="1.17334" fill="#33334F"/>
<circle cx="688.345" cy="121.39" r="1.17334" fill="#33334F"/>
<circle cx="688.345" cy="108.651" r="1.17334" fill="#33334F"/>
<circle cx="688.345" cy="95.9122" r="1.17334" fill="#33334F"/>
<circle cx="688.345" cy="83.1733" r="1.17334" fill="#33334F"/>
<circle cx="701.087" cy="197.825" r="1.17334" fill="#33334F"/>
<circle cx="701.087" cy="185.086" r="1.17334" fill="#33334F"/>
<circle cx="701.087" cy="172.347" r="1.17334" fill="#33334F"/>
<circle cx="701.087" cy="159.608" r="1.17334" fill="#33334F"/>
<circle cx="701.087" cy="146.868" r="1.17334" fill="#33334F"/>
<circle cx="701.087" cy="134.13" r="1.17334" fill="#33334F"/>
<circle cx="701.087" cy="121.39" r="1.17334" fill="#33334F"/>
<circle cx="701.087" cy="108.651" r="1.17334" fill="#33334F"/>
<circle cx="701.087" cy="95.9122" r="1.17334" fill="#33334F"/>
<circle cx="701.087" cy="83.1733" r="1.17334" fill="#33334F"/>
<circle cx="713.826" cy="197.825" r="1.17334" fill="#33334F"/>
<circle cx="713.826" cy="185.086" r="1.17334" fill="#33334F"/>
<circle cx="713.826" cy="172.347" r="1.17334" fill="#33334F"/>
<circle cx="713.826" cy="159.608" r="1.17334" fill="#33334F"/>
<circle cx="713.826" cy="146.868" r="1.17334" fill="#33334F"/>
<circle cx="713.826" cy="134.13" r="1.17334" fill="#33334F"/>
<circle cx="713.826" cy="121.39" r="1.17334" fill="#33334F"/>
<circle cx="713.826" cy="108.651" r="1.17334" fill="#33334F"/>
<circle cx="713.826" cy="95.9122" r="1.17334" fill="#33334F"/>
<circle cx="713.826" cy="83.1733" r="1.17334" fill="#33334F"/>
</g>
<path d="M665.984 138.27V396.002C665.984 398.91 663.591 401.303 660.684 401.303H135.348C132.444 401.303 130.055 398.913 130.055 396.01C130.055 396.007 130.055 396.004 130.055 396.002V138.27C130.055 138.268 130.055 138.265 130.055 138.262C130.055 135.359 132.444 132.969 135.348 132.969H660.684C663.591 132.969 665.984 135.362 665.984 138.27Z" fill="#00C389"/>
<path d="M665.984 136.505V148.408H130.055V136.505C130.055 134.565 131.651 132.969 133.591 132.969H662.448C664.388 132.969 665.984 134.565 665.984 136.505Z" fill="#CBCEDA"/>
<path d="M141.904 144.065C143.934 144.065 145.578 142.42 145.578 140.391C145.578 138.362 143.934 136.717 141.904 136.717C139.875 136.717 138.23 138.362 138.23 140.391C138.23 142.42 139.875 144.065 141.904 144.065Z" fill="#E3E3E3"/>
<path d="M152.127 144.065C154.156 144.065 155.801 142.42 155.801 140.391C155.801 138.362 154.156 136.717 152.127 136.717C150.098 136.717 148.453 138.362 148.453 140.391C148.453 142.42 150.098 144.065 152.127 144.065Z" fill="#E3E3E3"/>
<path d="M162.35 144.065C164.379 144.065 166.024 142.42 166.024 140.391C166.024 138.362 164.379 136.717 162.35 136.717C160.321 136.717 158.676 138.362 158.676 140.391C158.676 142.42 160.321 144.065 162.35 144.065Z" fill="#E3E3E3"/>
<path d="M579.959 321.163V365.405L215.909 365.604L215.578 277.164C219.423 288.493 228.914 290.529 245.624 270.547C286.462 221.777 341.974 208.941 384.944 207.596C414.35 206.669 443.69 212.742 471.692 224.806C483.322 229.827 529.284 235.23 559.617 237.642C570.972 238.537 579.845 248.116 579.871 259.505L579.959 321.163Z" fill="#00FFB3" fill-opacity="0.2"/>
<path d="M579.959 277.915V365.84H215.578V346.726C225.995 344.101 264.959 334.008 283.639 306.13C305.988 272.754 336.364 263.976 359.867 263.057C375.975 262.418 392.009 266.557 407.315 274.82C424.532 284.112 457.724 295.323 482.94 262.778C510.832 226.792 553.677 256.448 564.543 267.351C568.424 271.203 579.959 277.915 579.959 277.915Z" fill="#00FFB3" fill-opacity="0.2"/>
<path d="M215.578 184.675V364.466H579.959" stroke="#00FFB3" stroke-width="0.000505689" stroke-miterlimit="10"/>
<path fill-rule="evenodd" clip-rule="evenodd" d="M262.279 254.865V364.47H260.195V254.865H262.279Z" fill="#00D998"/>
<path fill-rule="evenodd" clip-rule="evenodd" d="M306.572 225.562V364.485H304.488V225.562H306.572Z" fill="#00D998"/>
<path fill-rule="evenodd" clip-rule="evenodd" d="M350.865 211.592V364.461H348.781V211.592H350.865Z" fill="#00D998"/>
<path fill-rule="evenodd" clip-rule="evenodd" d="M395.161 207.248V364.44H393.078V207.248H395.161Z" fill="#00D998"/>
<path fill-rule="evenodd" clip-rule="evenodd" d="M439.454 212.104V364.488H437.371V212.104H439.454Z" fill="#00D998"/>
<path fill-rule="evenodd" clip-rule="evenodd" d="M483.411 229.906V364.507H481.328V229.906H483.411Z" fill="#00D998"/>
<path fill-rule="evenodd" clip-rule="evenodd" d="M527.704 239.021V364.491H525.621V239.021H527.704Z" fill="#00D998"/>
<path d="M261.234 261.589C265.748 261.589 269.409 257.929 269.409 253.414C269.409 248.899 265.748 245.239 261.234 245.239C256.719 245.239 253.059 248.899 253.059 253.414C253.059 257.929 256.719 261.589 261.234 261.589Z" fill="#00FFB3"/>
<path d="M305.187 233.735C309.702 233.735 313.362 230.075 313.362 225.56C313.362 221.045 309.702 217.385 305.187 217.385C300.672 217.385 297.012 221.045 297.012 225.56C297.012 230.075 300.672 233.735 305.187 233.735Z" fill="#00FFB3"/>
<path d="M349.48 220.276C353.995 220.276 357.655 216.616 357.655 212.101C357.655 207.586 353.995 203.926 349.48 203.926C344.965 203.926 341.305 207.586 341.305 212.101C341.305 216.616 344.965 220.276 349.48 220.276Z" fill="#00FFB3"/>
<path d="M393.777 215.421C398.291 215.421 401.951 211.76 401.951 207.246C401.951 202.731 398.291 199.071 393.777 199.071C389.262 199.071 385.602 202.731 385.602 207.246C385.602 211.76 389.262 215.421 393.777 215.421Z" fill="#00FFB3"/>
<path d="M438.069 220.276C442.584 220.276 446.244 216.616 446.244 212.101C446.244 207.586 442.584 203.926 438.069 203.926C433.555 203.926 429.895 207.586 429.895 212.101C429.895 216.616 433.555 220.276 438.069 220.276Z" fill="#00FFB3"/>
<path d="M482.366 238.505C486.881 238.505 490.541 234.845 490.541 230.33C490.541 225.815 486.881 222.155 482.366 222.155C477.851 222.155 474.191 225.815 474.191 230.33C474.191 234.845 477.851 238.505 482.366 238.505Z" fill="#00FFB3"/>
<path d="M526.319 248.13C530.834 248.13 534.494 244.47 534.494 239.955C534.494 235.44 530.834 231.78 526.319 231.78C521.805 231.78 518.145 235.44 518.145 239.955C518.145 244.47 521.805 248.13 526.319 248.13Z" fill="#00FFB3"/>
<path d="M62.2329 259.213C62.2035 259.85 61.9969 260.466 61.6374 260.992C64.5781 260.904 67.1879 258.97 69.9006 258.051C69.4154 260.904 69.9006 264.286 70.2682 266.712C70.6225 269.065 71.2085 271.377 72.0179 273.615C73.8778 281.606 77.2669 289.465 80.3031 297.14C81.6117 300.182 82.5975 303.353 83.2437 306.601C85.3095 318.989 78.1638 330.972 76.8111 343.448C76.7082 344.135 76.7082 344.833 76.8111 345.521C76.6898 345.649 76.581 345.79 76.4876 345.94C71.4959 353.6 72.1429 366.421 73.0397 375.493C73.9366 384.565 76.8111 393.314 79.5238 402.025C80.3318 404.426 80.9633 406.883 81.4132 409.377C81.844 412.791 81.9131 416.241 81.619 419.669C80.7221 435.629 78.4726 451.729 81.1265 467.454C83.0599 478.916 87.2797 489.34 87.7429 500.948C88.0928 500.092 88.6486 499.334 89.3602 498.743L90.1542 529.23C90.08 529.807 90.2946 530.385 90.7276 530.774C91.2937 531.134 92.0288 530.774 92.6978 530.678C94.6387 530.443 95.8811 532.553 97.1676 534.016C99.1011 536.221 102.078 537.265 104.997 537.493C107.935 537.603 110.875 537.337 113.745 536.699C115.091 536.457 116.517 536.177 117.524 535.229C118.568 534.165 119.044 532.664 118.803 531.193C118.23 526.701 113.393 524.143 110.959 520.312C108.085 515.784 108.754 509.719 105.945 505.139C104.982 503.573 103.652 502.25 102.792 500.625C102.358 499.624 102.016 498.586 101.77 497.523C102.642 497.786 103.47 498.18 104.225 498.691C103.96 496.309 103.688 493.92 103.424 491.531L103.306 490.502C102.946 487.274 102.571 484.054 102.306 480.82C101.402 470.175 104.424 459.743 102.306 449.267C101.865 447.061 102.571 444.76 103.225 442.591C106.942 430.237 109.209 417.491 109.981 404.613C110.246 400.07 110.239 395.688 111.694 391.38C113.4 398.327 118.671 403.804 121.987 410.178C124.03 414.148 125.302 418.485 127.53 422.352C128.603 424.234 129.912 426.028 130.595 428.072C131.654 431.27 131.095 434.74 130.595 438.077C128.206 455.354 128.485 472.939 129.25 490.362C128.524 497.029 126.991 503.583 124.685 509.881C123.773 512.365 122.78 515.262 124.192 517.504C124.787 518.326 125.537 519.025 126.397 519.563C128.487 521.049 130.683 522.378 132.97 523.54C133.648 523.985 134.465 524.174 135.271 524.069C135.771 523.896 136.241 523.648 136.668 523.334C138.454 522.261 140.762 522.43 142.733 523.121C144.703 523.812 146.482 524.966 148.393 525.797C152.4 527.519 156.873 527.835 161.082 526.694C162.861 526.201 164.758 525.26 165.309 523.518C165.861 521.775 164.846 519.938 163.442 518.791C162.038 517.644 160.303 517.026 158.693 516.188C155.165 514.348 152.283 511.472 150.437 507.947C149.328 505.623 148.456 503.191 147.835 500.691C146.982 497.692 146.131 494.692 145.284 491.693C145.768 492.011 146.23 492.362 146.666 492.744C147.864 477.894 149.077 462.999 152.26 448.443C153.782 441.481 155.767 434.431 154.995 427.351C154.591 423.632 153.429 420.037 152.326 416.456C148.895 405.287 145.892 393.999 143.313 382.595C144.274 381.52 145.023 380.273 145.519 378.919C146.346 376.401 146.8 373.776 146.864 371.126C148.097 353.257 148.049 335.322 146.717 317.46C146.379 312.931 145.85 308.175 144.071 304.058H145.115C143.872 304.058 141.843 291.722 141.601 290.347C140.77 285.583 140.189 280.79 139.329 276.033C138.91 273.718 138.439 271.402 137.859 269.123C137.462 267.608 135.874 258.206 134.609 257.155C134.473 257.041 134.319 256.952 134.153 256.89C133.519 254.778 132.129 252.971 130.25 251.817C128.213 250.67 125.787 250.634 123.413 250.817C122.742 249.837 122.07 248.869 121.398 247.914C120.165 246.33 119.222 244.541 118.612 242.628C118.422 241.827 118.309 241.01 118.274 240.187C118.274 239.636 118.237 239.084 118.215 238.533V237.702C118.189 237.153 118.131 236.605 118.039 236.063C117.965 235.614 117.855 235.181 117.737 234.739C117.686 234.556 117.62 234.365 117.561 234.181C117.223 233.071 116.826 231.975 116.532 230.858C115.627 227.248 116.083 223.462 116.223 219.742C116.363 216.022 116.12 212.082 114.017 208.979C112.481 206.7 110.018 204.973 109.195 202.363C108.805 201.121 108.827 199.753 108.254 198.577C107.509 197.27 106.319 196.273 104.901 195.769C103.24 195.033 99.9024 194.063 98.116 194.923C97.7815 195.089 97.4852 195.325 97.2485 195.614C95.3591 195.71 93.4551 195.967 91.7936 195.136C90.5144 194.497 89.5881 193.284 88.3457 192.585C85.4051 190.939 81.6558 192.585 79.0386 194.732C74.8791 198.14 71.8378 202.72 70.3123 207.877C69.1508 211.854 68.6803 216.5 65.35 219.007C63.9679 220.044 62.1888 220.617 61.1817 222.006C60.4965 223.137 60.1164 224.427 60.0789 225.748C59.7334 228.763 59.4467 231.865 60.248 234.791C60.8508 236.996 62.0344 238.967 62.7696 241.113C64.7678 247.305 62.9615 254.124 58.1602 258.515C59.3746 259.268 60.8369 259.52 62.2329 259.213ZM132.926 348.41C134.95 347.314 136.398 345.388 136.888 343.139C136.969 343.426 137.035 343.712 137.109 343.999C138.052 347.837 137.86 351.868 136.557 355.6C135.582 353.091 134.365 350.684 132.926 348.41ZM134.396 332.133C133.171 330.378 132.136 328.498 131.308 326.524C130.176 323.348 130.433 319.908 130.705 316.511C130.851 313.948 131.205 311.401 131.764 308.895C132.089 316.695 132.976 324.461 134.418 332.133H134.396Z" fill="url(#paint0_linear)"/>
<path d="M105.899 197.785C107.295 198.289 108.464 199.278 109.193 200.571C109.752 201.74 109.737 203.1 110.119 204.335C110.928 206.938 113.354 208.658 114.854 210.952C116.897 214.032 117.14 217.958 117 221.648C116.861 225.339 116.419 229.11 117.309 232.676C117.743 234.418 118.493 236.087 118.779 237.859C119.147 240.02 118.838 242.27 119.375 244.394C119.972 246.292 120.9 248.069 122.117 249.643L126.903 256.642C124.766 256.128 122.662 255.485 120.602 254.716C121.238 256.715 122.42 258.497 124.014 259.862L120.551 255.671C119.849 254.708 118.977 253.881 117.978 253.231C116.706 252.496 115.206 252.393 113.78 252.106C111.031 251.547 108.289 250.143 106.943 247.695C105.157 244.402 106.296 240.27 105.304 236.668C104.569 234.036 102.76 231.867 101.51 229.434C98.6874 223.942 98.8565 217.458 97.9743 211.334C97.5994 208.739 97.0186 206.188 97.0039 203.527C97.0039 201.593 97.195 197.903 99.2094 196.91C100.981 196.087 104.26 197.087 105.899 197.785Z" fill="#3F3D56"/>
<path d="M144.544 487.859L148.22 500.923C148.828 503.407 149.685 505.823 150.778 508.135C152.572 511.63 155.395 514.492 158.865 516.332C160.446 517.162 162.159 517.802 163.533 518.92C164.908 520.037 165.893 521.912 165.364 523.617C164.835 525.323 162.96 526.286 161.21 526.778C157.064 527.912 152.652 527.593 148.713 525.874C146.838 525.043 145.088 523.897 143.155 523.213C141.221 522.529 138.942 522.353 137.193 523.426C136.774 523.738 136.311 523.986 135.818 524.161C135.025 524.269 134.219 524.084 133.554 523.639C131.303 522.484 129.144 521.162 127.092 519.684C126.255 519.148 125.531 518.453 124.96 517.64C123.563 515.435 124.548 512.494 125.438 510.061C127.801 503.541 129.34 496.752 130.018 489.851C129.991 489.234 130.236 488.635 130.687 488.212C131.012 488.041 131.378 487.96 131.745 487.977L147.448 487.241" fill="#353868"/>
<path d="M103.83 500.93C104.676 502.54 105.992 503.87 106.933 505.421C109.689 509.972 109.035 516 111.866 520.5C114.255 524.308 119.011 526.859 119.577 531.321C119.813 532.779 119.346 534.265 118.32 535.328C117.328 536.247 115.924 536.519 114.6 536.754C111.782 537.391 108.893 537.657 106.006 537.548C103.132 537.32 100.206 536.261 98.3092 534.085C97.0374 532.615 95.8244 530.534 93.8983 530.777C93.2366 530.858 92.5162 531.225 91.9575 530.865C91.5355 530.476 91.3274 529.906 91.3987 529.336L90.5312 495.908C93.3101 495.607 98.1254 494.504 100.823 495.46C103.147 496.276 102.772 498.893 103.83 500.93Z" fill="#353868"/>
<path d="M131.443 346.467C138.222 354.9 140.229 366.067 142.405 376.668C145.208 390.342 148.653 403.863 152.741 417.234C153.829 420.792 154.946 424.365 155.365 428.063C156.101 435.106 154.175 442.112 152.675 449.029C149.55 463.505 148.359 478.311 147.183 493.073C142.364 488.966 135.339 488.594 130.113 492.169C129.319 474.37 128.959 456.388 131.37 438.73C131.826 435.414 132.377 431.966 131.37 428.79C130.694 426.747 129.414 424.975 128.348 423.108C126.143 419.255 124.908 414.947 122.901 411C119.674 404.663 114.491 399.237 112.815 392.312C111.381 396.605 111.388 400.957 111.131 405.471C110.384 418.284 108.164 430.968 104.515 443.273C103.868 445.435 103.177 447.684 103.61 449.89C105.669 460.314 102.699 470.68 103.61 481.266C103.875 484.479 104.235 487.684 104.588 490.889L104.706 491.919L105.5 499.035C102.559 497.028 99.4494 497.315 95.8986 497.499C94.7003 497.499 93.5115 497.708 92.3845 498.116C90.9421 498.698 89.7975 499.842 89.216 501.285C88.7896 489.743 84.636 479.377 82.7393 467.989C80.1295 452.316 82.3349 436.304 83.2245 420.439C83.5126 417.023 83.4443 413.586 83.0186 410.184C82.5753 407.691 81.9541 405.234 81.1587 402.832C78.4974 394.172 75.667 385.475 74.7849 376.454C73.9027 367.434 73.2704 354.694 78.1739 347.048C79.6884 344.696 83.4156 345.754 85.7681 344.225C87.6214 343.063 89.6608 342.228 91.7964 341.755C104.654 338.77 118.299 345.335 131.443 346.467Z" fill="#3C354C"/>
<path d="M108.212 241.801C108.499 245.014 109.175 248.8 112.101 250.152C113.762 250.887 115.689 250.63 117.482 250.924C120.879 251.476 123.672 254.085 125.246 257.144C126.819 260.202 127.363 263.679 127.73 267.098C128.186 271.384 128.333 276.03 125.981 279.64C124.084 282.58 120.835 284.337 117.423 285.242C110.568 287.038 103.257 285.69 97.4934 281.566C94.7711 279.442 92.3039 277.009 90.1418 274.317C85.2603 268.634 80.3422 262.407 79.3423 254.982C79.2247 254.137 79.2321 253.115 79.9231 252.615C80.401 252.346 80.9523 252.237 81.4963 252.306L86.1793 252.387C87.3629 252.387 88.7009 252.387 89.5096 251.498C90.3182 250.608 90.2447 249.476 90.2447 248.388L89.9286 234.795C89.8595 234.313 89.972 233.823 90.2447 233.42C90.5403 233.15 90.9189 232.986 91.3181 232.957C93.8985 232.523 96.5965 232.957 99.1181 232.259C101.522 231.597 105.293 228.84 107.058 231.67C108.528 234.104 107.969 239.059 108.212 241.801Z" fill="#FFC1C7"/>
<path d="M108.212 241.801C108.499 245.014 109.175 248.8 112.101 250.152C113.762 250.887 115.689 250.63 117.482 250.924C120.879 251.476 123.672 254.085 125.246 257.144C126.819 260.202 127.363 263.679 127.73 267.098C128.186 271.384 128.333 276.03 125.981 279.64C124.084 282.58 120.835 284.337 117.423 285.242C110.568 287.038 103.257 285.69 97.4934 281.566C94.7711 279.442 92.3039 277.009 90.1418 274.317C85.2603 268.634 80.3422 262.407 79.3423 254.982C79.2247 254.137 79.2321 253.115 79.9231 252.615C80.401 252.346 80.9523 252.237 81.4963 252.306L86.1793 252.387C87.3629 252.387 88.7009 252.387 89.5096 251.498C90.3182 250.608 90.2447 249.476 90.2447 248.388L89.9286 234.795C89.8595 234.313 89.972 233.823 90.2447 233.42C90.5403 233.15 90.9189 232.986 91.3181 232.957C93.8985 232.523 96.5965 232.957 99.1181 232.259C101.522 231.597 105.293 228.84 107.058 231.67C108.528 234.104 107.969 239.059 108.212 241.801Z" fill="black" fill-opacity="0.1"/>
<path d="M96.4918 240.891C106.37 240.891 114.378 232.883 114.378 223.005C114.378 213.126 106.37 205.118 96.4918 205.118C86.6135 205.118 78.6055 213.126 78.6055 223.005C78.6055 232.883 86.6135 240.891 96.4918 240.891Z" fill="#FFC1C7"/>
<path d="M115.652 272.741C118.541 272.793 121.806 272.006 123.202 269.448C124.158 267.713 124.004 265.603 123.82 263.633L122.783 252.605C125.592 252.311 128.613 252.061 131.061 253.451C134.318 255.296 135.472 259.384 135.854 263.103C136.538 270.087 135.428 277.138 135.81 284.144C136.134 290.025 137.494 296.097 135.759 301.736C135.024 304.089 133.803 306.257 133.009 308.588C132.017 311.528 131.76 314.69 131.539 317.799C131.267 321.137 131.01 324.592 132.127 327.753C133.061 330.4 134.884 332.628 136.185 335.105C138.317 339.207 138.773 344.736 135.568 348.066C132.627 351.11 127.79 351.234 123.68 350.271C119.571 349.308 115.594 347.47 111.403 347.294C103.963 346.978 97.3322 351.808 90.0836 353.374C89.1117 353.634 88.0935 353.669 87.1062 353.477C86.2328 353.194 85.4197 352.75 84.7096 352.168L80.725 349.301C79.9288 348.825 79.2657 348.154 78.7989 347.353C78.4651 346.461 78.3791 345.496 78.5489 344.559C79.8869 332.15 86.9077 320.24 84.8786 307.926C84.2479 304.698 83.2819 301.544 81.9968 298.516C76.9463 285.592 70.8886 272.168 72.8515 258.428C73.2779 255.384 74.1747 252.275 76.2699 250.025C78.3651 247.775 81.9086 246.658 84.6213 248.099C87.3341 249.54 88.2971 252.745 89.4954 255.531C91.8046 260.947 95.4715 265.677 100.141 269.264C102.111 270.779 104.5 272.712 107.08 272.778C109.771 272.874 112.712 272.683 115.652 272.741Z" fill="#D55660"/>
<path d="M141.644 300.562C145.982 305.377 146.834 312.324 147.312 318.779C148.627 336.539 148.674 354.37 147.452 372.137C147.389 374.773 146.947 377.385 146.136 379.893C145.21 382.356 143.475 384.635 141.034 385.62C139.468 386.252 137.285 386.083 136.579 384.547C135.932 383.142 136.895 381.606 137.623 380.209C139.295 377.071 139.854 373.457 139.211 369.961C138.321 370.608 138.005 371.777 137.74 372.85L136.322 378.82C134.403 378.54 133.682 376.195 133.381 374.284C132.822 370.814 132.286 367.116 133.675 363.889C134.41 362.168 135.66 360.705 136.402 358.985C138.277 354.662 139.012 349.722 137.807 345.164C133.743 329.776 131.969 313.872 132.543 297.967C135.327 299.543 138.448 300.433 141.644 300.562Z" fill="#FFC1C7"/>
<path d="M145.594 305.423C140.255 305.477 134.943 306.178 129.773 307.511C129.089 304.144 129.42 300.659 129.773 297.219L132.052 273.693C132.221 271.951 131.898 255.947 135.272 258.777C136.515 259.821 138.08 269.172 138.47 270.679C139.058 272.944 139.521 275.237 139.94 277.546C140.786 282.273 141.359 287.044 142.146 291.778C142.374 293.183 144.373 305.423 145.594 305.423Z" fill="#D55660"/>
<path d="M103.324 200.239C103.346 199.68 103.219 199.124 102.956 198.629C102.486 198.04 101.79 197.675 101.038 197.622C98.4499 197.218 95.6196 198.261 93.2891 197.078C92.0246 196.438 91.1278 195.24 89.9 194.542C86.9594 192.902 83.2836 194.542 80.7473 196.681C76.651 200.08 73.6656 204.628 72.1754 209.737C71.0285 213.693 70.5654 218.317 67.2939 220.809C65.9339 221.838 64.1842 222.412 63.1918 223.794C62.5242 224.907 62.1515 226.172 62.1111 227.469C61.7729 230.469 61.4862 233.557 62.2728 236.468C62.8683 238.673 64.0299 240.614 64.7577 242.746C66.7433 248.913 64.9635 255.703 60.207 260.103C61.3995 260.85 62.8396 261.098 64.2136 260.794C64.1828 261.426 63.9821 262.038 63.6329 262.566C67.8159 262.434 71.4549 258.353 75.5498 259.243C78.6815 259.919 80.4239 263.147 82.7543 265.345C85.7611 268.168 90.4294 269.351 94.2007 267.675C97.9721 265.999 100.266 261.235 98.6631 257.427C96.8399 253.097 91.216 251.384 89.2678 247.135C87.7607 243.827 88.8782 239.952 88.5326 236.328C88.2606 233.218 86.9153 230.314 86.0772 227.3C85.2391 224.286 84.9671 220.846 86.6727 218.228C88.4812 215.442 91.9438 214.361 95.0976 213.332C102.221 211.017 103.589 207.429 103.324 200.239Z" fill="#3F3D56"/>
<path d="M98.8453 264.537C99.3526 262.037 99.8599 259.39 98.9556 256.994C97.2868 252.583 91.8099 251.164 88.0238 248.304C85.8308 246.638 84.1451 244.392 83.1571 241.82C82.4734 240.012 82.3778 237.527 84.0687 236.601C84.7266 236.292 85.4544 236.162 86.1786 236.226C92.0598 236.365 97.4926 239.571 102.014 243.371C104.646 245.577 107.16 248.106 108.454 251.282C109.275 253.57 109.77 255.964 109.924 258.391L110.873 266.397C111.494 270.992 111.862 275.618 111.975 280.254C111.978 282.906 111.811 285.556 111.475 288.187C111.24 290.054 110.887 291.988 109.792 293.517C107.755 296.369 103.822 297.009 100.316 297.104C98.9894 297.18 97.6595 297.096 96.3532 296.854C90.5234 295.59 86.0977 287.422 90.516 282.379C92.3907 280.24 95.199 280.173 96.2723 277.233C97.6544 273.329 98.0073 268.602 98.8453 264.537Z" fill="#FFC1C7"/>
<path d="M94.0542 265.96L98.6931 273.481C98.9688 273.868 99.1621 274.309 99.2592 274.775C99.3841 275.752 98.6563 276.62 98.0756 277.421C94.1057 282.832 95.1349 290.287 96.3112 296.888C83.4121 292.813 73.9448 281.665 72.0142 268.276C71.4335 264.343 70.4998 257.866 73.9918 255.308C82.3652 249.132 90.1138 259.513 94.0542 265.96Z" fill="#D55660"/>
<path d="M117.228 250.898C115.434 250.604 113.508 250.898 111.847 250.126C108.906 248.773 108.244 244.98 107.958 241.775C107.958 241.473 107.921 241.15 107.906 240.804C108.955 239.729 110.094 238.746 111.31 237.863C112.407 237.221 113.574 236.706 114.787 236.327L118.037 235.188C118.347 236.048 118.592 236.93 118.772 237.827C119.139 239.988 118.831 242.238 119.367 244.362C119.964 246.26 120.893 248.037 122.109 249.611L126.895 256.61C126.028 256.404 125.168 256.176 124.315 255.926C122.646 253.39 120.169 251.376 117.228 250.898Z" fill="#3F3D56"/>
<path d="M62.8836 525.329C60.6781 521.278 63.1777 516.309 66.0374 512.699C68.8972 509.089 72.3671 505.347 72.2936 500.723C72.1834 494.107 65.1626 490.203 59.5534 486.689C55.388 484.089 51.5482 481.002 48.1143 477.492C46.6749 476.143 45.4854 474.55 44.6003 472.787C43.4387 470.199 43.4681 467.259 43.5416 464.428C43.7916 454.989 44.2599 445.557 44.9458 436.132" stroke="#3F3D56" stroke-width="0.3" stroke-miterlimit="10"/>
<path d="M34.3294 435.664C34.4882 432.156 36.432 428.963 39.4755 427.21L41.7839 431.783L41.7104 426.247C42.8146 425.923 43.9644 425.784 45.1142 425.835C50.5617 426.105 54.8969 430.661 54.8969 436.115C54.8969 441.761 50.2507 446.407 44.6047 446.407C38.958 446.407 34.3125 441.761 34.3125 436.115C34.3125 435.964 34.3154 435.814 34.3221 435.664H34.3294Z" fill="#57B894"/>
<path d="M52.805 505.49C54.5687 508.907 58.1055 511.063 61.9519 511.063C67.5979 511.063 72.2441 506.417 72.2441 500.771C72.2441 495.124 67.5979 490.478 61.9519 490.478C57.6615 490.478 53.8012 493.161 52.3051 497.182L58.7524 502.424L51.6876 500.784C51.681 502.419 52.064 504.032 52.805 505.49Z" fill="#57B894"/>
<path d="M57.7428 485.465C57.984 485.482 58.2258 485.49 58.4677 485.49C64.1144 485.49 68.7599 480.844 68.7599 475.198C68.7599 470.51 65.5568 466.386 61.0143 465.226L61.0731 469.475L58.7353 464.851C58.5677 464.843 58.4001 464.838 58.2324 464.838C52.7592 464.838 48.1939 469.205 47.9505 474.673C47.8902 475.863 48.0395 477.055 48.3916 478.194C49.659 482.338 53.4142 485.258 57.7428 485.465Z" fill="#57B894"/>
<path d="M32.9162 468.721C33.0419 468.725 33.1684 468.727 33.2941 468.727C38.9401 468.727 43.5863 464.082 43.5863 458.435C43.5863 452.789 38.9401 448.143 33.2941 448.143C31.5665 448.143 29.866 448.578 28.3509 449.408L30.1741 454.407L26.4248 450.805C24.4112 452.642 23.207 455.206 23.0798 457.929C23.0305 458.884 23.1173 459.842 23.3371 460.774C24.3818 465.258 28.3156 468.521 32.9162 468.721Z" fill="#57B894"/>
<path d="M35.8212 438.387C38.2032 438.644 40.5189 439.387 42.9082 439.534C45.2974 439.681 47.9219 439.115 49.4364 437.255C50.245 436.255 50.6567 434.991 51.3404 433.895C51.9932 432.878 52.8872 432.037 53.9429 431.447C54.606 432.834 54.9508 434.352 54.9508 435.889C54.9508 441.535 50.3046 446.181 44.6586 446.181C39.9183 446.181 35.7624 442.907 34.6523 438.299C35.0398 438.313 35.4294 438.343 35.8212 438.387Z" fill="black" fill-opacity="0.1"/>
<path d="M32.6087 468.723C32.7822 468.732 32.9565 468.737 33.13 468.737C38.7767 468.737 43.4222 464.09 43.4222 458.444C43.4222 456.914 43.0811 455.402 42.4231 454.02C41.6041 454.571 40.9006 455.274 40.35 456.093C39.6148 457.204 39.1664 458.49 38.3062 459.505C36.6962 461.394 33.9541 462.011 31.4619 461.901C28.9697 461.791 26.5658 461.078 24.1103 460.85C23.7648 460.85 23.4193 460.798 23.0664 460.791C24.1133 465.258 28.0258 468.51 32.6087 468.723Z" fill="black" fill-opacity="0.1"/>
<path d="M57.6545 485.413C57.828 485.422 58.0015 485.426 58.175 485.426C63.821 485.426 68.4672 480.78 68.4672 475.134C68.4672 473.669 68.154 472.221 67.5497 470.886C66.694 471.445 65.9464 472.155 65.3443 472.982C64.5429 474.114 64.043 475.422 63.1388 476.466C61.3965 478.4 58.4705 479.084 55.8387 479.025C53.2068 478.966 50.8175 478.341 48.2812 478.143C49.5516 482.294 53.3178 485.215 57.6545 485.413Z" fill="black" fill-opacity="0.1"/>
<path d="M52.7109 505.455C54.3672 509.157 58.0614 511.551 62.1173 511.551C67.7706 511.551 72.422 506.899 72.422 501.246C72.422 499.795 72.1161 498.361 71.5236 497.037C70.6723 497.594 69.9085 498.275 69.2593 499.059C68.2742 500.25 67.6273 501.61 66.4951 502.735C64.3852 504.808 60.9815 505.675 57.9453 505.741C56.1963 505.75 54.4488 505.654 52.7109 505.455Z" fill="black" fill-opacity="0.1"/>
<path d="M78.5882 520.688C78.5882 520.688 70.4426 520.438 67.9872 518.688C65.5318 516.939 55.4895 514.858 54.8573 517.659C54.225 520.46 42.6169 531.627 51.8064 531.671C60.9958 531.716 73.17 530.245 75.6255 528.731C78.0809 527.216 78.5882 520.688 78.5882 520.688Z" fill="#656380"/>
<path d="M51.6136 530.668C60.8104 530.741 72.9772 529.197 75.4253 527.727C77.2926 526.587 78.0351 522.515 78.2851 520.633H78.5571C78.5571 520.633 78.0425 527.205 75.6165 528.719C73.1904 530.234 60.9942 531.711 51.7973 531.66C49.1434 531.66 48.2318 530.697 48.2833 529.3C48.6288 530.124 49.636 530.645 51.6136 530.668Z" fill="black" fill-opacity="0.2"/>
<defs>
<linearGradient id="paint0_linear" x1="111.819" y1="537.581" x2="111.819" y2="191.865" gradientUnits="userSpaceOnUse">
<stop stop-color="#808080" stop-opacity="0.25"/>
<stop offset="0.54" stop-color="#808080" stop-opacity="0.12"/>
<stop offset="1" stop-color="#808080" stop-opacity="0.1"/>
</linearGradient>
</defs>
</svg>
