<svg width="729" height="301" viewBox="0 0 729 301" fill="none" xmlns="http://www.w3.org/2000/svg">
<path fill-rule="evenodd" clip-rule="evenodd" d="M93.7219 210.682L93.9253 210.936C93.9253 210.936 93.854 211.86 93.7626 212.703L93.712 212.937L93.458 213.141L93.143 213.11L92.9297 212.866C92.9297 212.866 92.9804 211.992 93.082 211.129L93.143 210.845L93.2546 210.723C93.4172 210.631 93.346 210.56 93.7219 210.682ZM94.3825 205.653C94.5044 205.764 94.5043 205.764 94.5754 205.907C94.5754 205.907 94.5146 206.557 94.4333 207.167L94.3926 207.461L94.3519 207.746C94.3011 207.908 94.3012 207.909 94.1895 208.03L94.0471 208.101C93.8744 208.112 93.8743 208.111 93.7219 208.061C93.7219 208.061 93.5696 207.979 93.5289 207.807C93.4172 207.39 93.6406 206.669 93.7219 206.09C93.7524 205.937 93.8034 205.795 93.9151 205.683L94.22 205.602C94.2809 205.612 94.3317 205.632 94.3825 205.653ZM326.765 204.342C327.313 204.352 327.872 204.353 328.431 204.353L328.725 204.475L328.817 204.606C328.858 204.769 328.858 204.769 328.817 204.931L328.736 205.074C328.593 205.165 328.593 205.165 328.431 205.196C327.872 205.196 327.313 205.196 326.754 205.196L326.439 205.063C326.124 204.596 326.439 204.464 326.439 204.464C326.439 204.464 326.693 204.342 326.765 204.342ZM333.663 204.281L333.897 204.505L333.907 204.83L333.683 205.063C333.683 205.063 332.84 205.124 331.956 205.145C331.956 205.145 331.865 205.246 331.529 205.033L331.397 204.738L331.509 204.434L331.804 204.301C332.342 204.291 332.871 204.282 333.409 204.261C333.409 204.261 333.521 204.261 333.663 204.281ZM321.918 204.261C322.386 204.282 322.853 204.291 323.321 204.301C323.321 204.301 323.381 204.241 323.656 204.434L323.778 204.729L323.646 205.033L323.341 205.145C322.863 205.135 322.376 205.125 321.898 205.114C321.685 205.104 321.685 205.114 321.482 205.063L321.268 204.83V204.505L321.37 204.373C321.705 204.159 321.776 204.261 321.918 204.261ZM316.91 204.078C317.377 204.099 317.834 204.119 318.291 204.139L318.586 204.271L318.698 204.576L318.556 204.87L318.261 204.983C317.794 204.962 317.336 204.942 316.869 204.922C316.635 204.911 316.635 204.921 316.402 204.87L316.27 204.769C316.188 204.627 316.188 204.627 316.158 204.464L316.3 204.169L316.605 204.058C316.707 204.068 316.808 204.068 316.91 204.078ZM338.723 204.027L338.956 204.241C339.007 204.403 339.007 204.403 338.987 204.566L338.773 204.809L338.611 204.85C338.123 204.881 337.625 204.911 337.138 204.942C337.138 204.942 336.823 205.135 336.508 204.718L336.467 204.555C336.498 204.393 336.497 204.393 336.579 204.251L336.863 204.108C337.412 204.078 337.961 204.048 338.509 204.007C338.509 204.007 338.621 204.017 338.723 204.027ZM311.728 203.784C312.104 203.814 312.48 203.834 312.856 203.854L313.222 203.875C313.77 204.017 313.628 204.332 313.628 204.332L313.486 204.616C313.344 204.698 313.344 204.698 313.181 204.729C312.673 204.698 312.175 204.667 311.677 204.637L311.484 204.616C311.322 204.576 311.322 204.576 311.19 204.475L311.109 204.332C311.088 204.17 311.088 204.17 311.129 204.007L311.373 203.793C311.373 203.793 311.525 203.773 311.728 203.784ZM343.762 203.58L344.016 203.784L344.046 204.099L343.843 204.353C343.843 204.353 342.878 204.494 342.004 204.576L341.689 204.475L341.537 204.19C341.557 204.027 341.557 204.027 341.628 203.885L341.923 203.733C342.126 203.713 342.329 203.692 342.532 203.672C342.939 203.631 343.376 203.539 343.762 203.58ZM306.74 203.438C307.126 203.469 307.512 203.499 307.908 203.53L308.162 203.55C308.325 203.59 308.325 203.591 308.457 203.692L308.538 203.834C308.559 203.997 308.559 203.997 308.508 204.16L308.264 204.373C308.264 204.373 306.842 204.383 306.252 204.221L306.039 203.976L306.069 203.652L306.171 203.519C306.527 203.326 306.598 203.428 306.74 203.438ZM301.579 203.022C301.985 203.052 302.381 203.093 302.788 203.123L303.103 203.153C303.641 203.306 303.489 203.611 303.489 203.611C303.448 203.763 303.448 203.763 303.336 203.895L303.032 203.997C302.524 203.956 302.016 203.906 301.508 203.865C301.345 203.855 301.345 203.855 301.183 203.804C301.183 203.804 300.796 203.499 301.111 203.103L301.416 203.011C301.477 203.011 301.528 203.011 301.579 203.022ZM348.781 202.9L349.035 203.092L349.085 203.407C349.045 203.519 349.004 203.631 348.74 203.733C348.212 203.814 347.694 203.895 347.165 203.967C347.165 203.967 347.125 204.078 346.749 203.906L346.637 203.773C346.586 203.621 346.586 203.621 346.596 203.459L346.789 203.194C346.789 203.194 347.724 203.032 348.516 202.91C348.516 202.91 348.638 202.9 348.781 202.9ZM296.661 202.575C297.24 202.636 298.043 202.707 298.043 202.707L298.338 202.859C298.409 203.001 298.409 203.001 298.429 203.164L298.277 203.448L297.972 203.55C297.505 203.509 297.048 203.459 296.58 203.418C296.438 203.408 296.204 203.408 295.991 203.245C295.991 203.245 295.686 203.103 296.052 202.646L296.367 202.544C296.458 202.554 296.56 202.564 296.661 202.575ZM353.901 202.046C353.982 202.117 354.084 202.188 354.084 202.473L353.911 202.747L353.759 202.808C353.231 202.92 352.702 203.032 352.164 203.133C352.164 203.133 352.133 203.235 351.778 203.083L351.656 202.961C351.595 202.808 351.595 202.808 351.595 202.646L351.666 202.493C351.778 202.381 351.778 202.381 351.93 202.31C352.438 202.219 352.936 202.117 353.434 202.015L353.749 201.975C353.8 202.006 353.85 202.016 353.901 202.046ZM95.1546 200.634L95.3374 200.898C95.3374 200.898 95.2358 201.731 95.1037 202.584C95.1037 202.584 95.1648 202.737 94.9108 203.011L94.7582 203.072C94.5957 203.082 94.5959 203.082 94.4435 203.031L94.2502 202.768L94.2401 202.605C94.3214 202.077 94.4128 201.548 94.4941 201.03C94.4941 201.03 94.4028 200.959 94.6771 200.654L94.9919 200.573C95.0427 200.593 95.1038 200.614 95.1546 200.634ZM291.572 202.087C292.171 202.138 292.994 202.219 292.994 202.219L293.278 202.371C293.36 202.524 293.359 202.524 293.37 202.686L293.217 202.971L292.913 203.062C292.435 203.022 291.968 202.971 291.49 202.92C291.348 202.91 291.145 202.91 290.942 202.747L290.86 202.595C290.85 202.432 290.85 202.432 290.891 202.28L291.145 202.077C291.145 202.077 291.338 202.056 291.572 202.087ZM286.4 201.508C286.888 201.579 287.396 201.64 287.894 201.701C287.894 201.701 287.945 201.619 288.229 201.863C288.229 201.863 288.524 202.036 288.158 202.463C288.158 202.463 287.823 202.544 287.355 202.483C286.847 202.422 286.156 202.33 286.156 202.33L285.882 202.168L285.801 201.853C285.831 201.752 285.862 201.629 286.116 201.508C286.116 201.508 286.258 201.487 286.4 201.508ZM358.818 200.837C358.94 200.949 358.94 200.949 359.022 201.091L359.032 201.264C358.981 201.416 358.981 201.416 358.869 201.538L358.717 201.62C358.26 201.742 357.792 201.863 357.315 201.985L357.183 202.015C357.051 202.056 357.051 202.046 356.908 202.056C356.908 202.056 356.583 202.158 356.553 201.569L356.614 201.416C356.715 201.294 356.715 201.294 356.868 201.223C357.365 201.101 357.863 200.969 358.361 200.837L358.666 200.786C358.717 200.807 358.768 200.817 358.818 200.837ZM281.3 200.624C281.828 200.736 282.347 200.837 282.865 200.939L283.109 201.01L283.291 201.284C283.291 201.284 283.505 201.548 282.966 201.782C282.966 201.782 281.493 201.609 280.975 201.386L280.863 201.264C280.802 201.112 280.802 201.111 280.802 200.949L280.985 200.685C280.985 200.685 281.117 200.614 281.3 200.624ZM363.654 199.344L363.868 199.588L363.847 199.913C363.695 200.106 363.421 200.187 363.167 200.278C362.679 200.431 361.988 200.654 361.988 200.654C361.826 200.675 361.816 200.675 361.663 200.624L361.531 200.522C361.46 200.38 361.46 200.38 361.439 200.217L361.582 199.923C361.582 199.923 362.527 199.598 363.309 199.334C363.309 199.334 363.472 199.293 363.654 199.344ZM276.413 199.384C276.921 199.537 277.419 199.679 277.927 199.811L278.181 199.913L278.293 200.035C278.344 200.187 278.344 200.197 278.334 200.36L278.14 200.614C278.14 200.614 276.789 200.522 276.027 200.116L275.875 199.842L275.966 199.527L276.251 199.374C276.302 199.374 276.352 199.384 276.413 199.384ZM271.638 197.769C271.76 197.82 271.892 197.871 272.024 197.911C272.522 198.104 273.213 198.348 273.213 198.348C273.691 198.632 273.467 198.887 273.467 198.887C273.386 199.029 273.386 199.029 273.254 199.13C273.254 199.13 272.817 199.11 272.451 198.978C272.085 198.846 271.719 198.714 271.364 198.572L271.1 198.338C271.059 198.176 271.059 198.175 271.09 198.013L271.313 197.779C271.313 197.779 271.455 197.739 271.638 197.769ZM368.389 197.556L368.612 197.789V198.114C368.521 198.246 368.521 198.247 368.389 198.338C367.871 198.551 367.363 198.754 366.844 198.947C366.844 198.947 366.814 199.039 366.479 198.958C366.479 198.958 366.143 198.948 366.265 198.399C366.265 198.399 367.078 197.952 367.871 197.637L368.226 197.525C368.277 197.535 368.338 197.546 368.389 197.556ZM96.018 195.635C96.1399 195.747 96.1401 195.747 96.2011 195.899C96.2011 195.899 96.1298 196.479 96.0485 196.926C95.9876 197.271 95.9064 197.728 95.9064 197.728L95.8454 197.881C95.7336 198.003 95.7336 198.003 95.5812 198.074C95.5812 198.074 95.0834 198.084 95.0732 197.576C95.1647 197.068 95.2561 196.56 95.3476 196.052L95.4289 195.757L95.5507 195.645C95.7234 195.564 95.6523 195.483 96.018 195.635ZM267.005 195.767C267.513 196.011 268.021 196.245 268.529 196.479L268.662 196.57C268.753 196.712 268.753 196.713 268.783 196.875C268.783 196.875 268.926 197.19 268.346 197.281C268.346 197.281 267.483 196.936 266.67 196.55L266.426 196.286L266.436 195.96C266.518 195.859 266.568 195.656 267.005 195.767ZM373.001 195.473L373.245 195.686L373.265 196.011L373.052 196.255C372.544 196.499 372.046 196.733 371.538 196.966C371.538 196.966 371.508 197.047 371.183 196.997L370.949 196.773L370.939 196.448C370.939 196.448 371.813 195.91 372.635 195.513L372.839 195.452C372.89 195.463 372.95 195.463 373.001 195.473ZM262.556 193.38C262.82 193.532 263.074 193.685 263.328 193.837C263.622 194 264.018 194.223 264.018 194.223L264.222 194.477L264.181 194.792C264.079 194.924 264.079 194.924 263.927 194.996C263.927 194.996 262.942 194.589 262.271 194.203C262.139 194.121 262.017 194.02 261.936 193.858L261.976 193.533L262.088 193.411C262.261 193.329 262.18 193.258 262.556 193.38ZM377.482 193.116L377.736 193.319L377.776 193.634L377.573 193.888C377.157 194.132 376.73 194.356 376.303 194.589C376.303 194.589 376.212 194.782 375.755 194.742L375.511 194.538L375.47 194.213L375.683 193.959C375.846 193.878 375.998 193.786 376.161 193.705C376.648 193.441 377.309 193.105 377.309 193.105C377.37 193.105 377.421 193.106 377.482 193.116ZM96.8308 190.586L97.095 190.769L97.156 191.084C97.0544 191.622 96.9426 192.171 96.841 192.71L96.648 193.014L96.4957 193.075C96.3332 193.075 96.3331 193.075 96.1807 193.014L96.0587 192.892C95.9977 192.74 95.9979 192.74 95.9979 192.578C96.0995 192.049 96.2111 191.511 96.3127 190.972C96.3127 190.972 96.2418 190.911 96.5059 190.647C96.5059 190.647 96.648 190.586 96.8308 190.586ZM258.177 190.576C258.725 190.83 259.162 191.236 259.67 191.572L259.894 191.866L259.833 192.181L259.558 192.364C259.315 192.364 259.101 192.212 258.898 192.07C258.553 191.836 258.207 191.592 257.862 191.358L257.659 191.064C257.679 190.505 258.014 190.576 258.014 190.576C258.065 190.576 258.116 190.576 258.177 190.576ZM381.81 190.495C381.962 190.566 381.962 190.566 382.074 190.688L382.135 190.84C382.135 191.002 382.135 191.002 382.064 191.155C382.064 191.155 381.556 191.521 381.16 191.765C380.865 191.947 380.509 192.171 380.509 192.171C379.981 192.364 379.92 192.029 379.92 192.029L379.869 191.714C379.94 191.562 379.94 191.561 380.062 191.45C380.235 191.338 380.408 191.236 380.58 191.125C380.885 190.942 381.19 190.749 381.485 190.556C381.485 190.556 381.627 190.495 381.81 190.495ZM386.158 187.711L386.341 187.975L386.29 188.29C386.29 188.29 385.518 188.879 384.807 189.367C384.807 189.367 384.787 189.448 384.461 189.458L384.197 189.276L384.126 188.961L384.299 188.686C384.746 188.382 385.183 188.077 385.62 187.762C385.62 187.762 385.66 187.518 386.158 187.711ZM254.174 187.498C254.448 187.65 254.682 187.884 254.682 187.884C254.946 188.097 255.23 188.32 255.23 188.32C255.474 188.513 255.738 188.768 255.738 188.768L255.769 189.082L255.576 189.336C254.966 189.529 254.438 188.778 253.869 188.31L253.676 188.107C253.676 188.107 253.391 187.904 253.849 187.528C253.849 187.528 253.991 187.488 254.174 187.498ZM97.8773 185.618C98.0297 185.679 98.0297 185.679 98.1516 185.801L98.2025 186.116C98.0907 186.614 97.9891 187.101 97.8875 187.599C97.8875 187.599 98.0095 187.904 97.5117 188.097H97.3388C97.1966 188.036 97.1864 188.036 97.0747 187.914L97.0139 187.599C97.0952 187.254 97.1663 186.919 97.2374 186.573C97.2983 186.309 97.3795 185.933 97.3795 185.933C97.4405 185.791 97.4404 185.791 97.5623 185.669C97.5623 185.669 97.7046 185.608 97.8773 185.618ZM390.202 184.653C390.323 184.765 390.323 184.765 390.405 184.907L390.415 185.069C390.364 185.232 390.364 185.232 390.252 185.354C389.836 185.689 389.409 186.014 388.982 186.339C388.982 186.339 389.003 186.451 388.596 186.482C388.596 186.482 388.271 186.563 388.231 186.004L388.403 185.72C388.81 185.405 389.226 185.079 389.633 184.764L389.876 184.612C389.876 184.612 390.029 184.592 390.202 184.653ZM250.415 184.135C250.902 184.45 251.298 184.937 251.756 185.354C251.756 185.354 251.959 185.384 251.888 185.831C251.888 185.831 251.928 186.167 251.349 186.085L251.207 185.994C250.801 185.628 250.404 185.252 250.018 184.886L249.866 184.704V184.378L250.09 184.145C250.09 184.145 250.232 184.104 250.415 184.135ZM394.113 181.422C394.205 181.493 394.306 181.554 394.347 181.829L394.194 182.123C393.768 182.489 393.341 182.844 392.914 183.21C392.914 183.21 392.863 183.281 392.589 183.312L392.294 183.16C392.294 183.16 391.99 183.017 392.356 182.57C392.792 182.205 393.219 181.849 393.646 181.483L393.95 181.382C394.001 181.392 394.062 181.412 394.113 181.422ZM99.0255 180.67C99.1779 180.741 99.1779 180.742 99.2897 180.853L99.3403 181.178C99.2183 181.686 99.0966 182.194 98.9848 182.702L98.8831 182.977L98.6088 183.139L98.2938 183.068L98.1211 182.793L98.1313 182.631C98.2532 182.093 98.3854 181.554 98.5073 181.016L98.7105 180.721C98.7105 180.721 98.8426 180.66 99.0255 180.67ZM246.879 180.518C246.879 180.518 247.468 181.107 247.986 181.656L248.251 181.981C248.281 182.143 248.281 182.143 248.251 182.306C248.251 182.306 247.926 182.814 247.499 182.367C247.133 181.981 246.767 181.595 246.402 181.209L246.28 180.884C246.32 180.721 246.32 180.721 246.412 180.589L246.717 180.477C246.777 180.487 246.828 180.508 246.879 180.518ZM397.892 178.039L398.116 178.283L398.106 178.608C398.106 178.608 397.567 179.136 396.988 179.664L396.856 179.786C396.744 179.888 396.744 179.888 396.602 179.969C396.602 179.969 396.368 180.213 396.064 179.705L396.084 179.38C396.084 179.38 396.775 178.719 397.425 178.12L397.73 178.008C397.791 178.018 397.842 178.029 397.892 178.039ZM243.577 176.688C243.577 176.688 244.187 177.378 244.705 177.988L244.867 178.232L244.878 178.394C244.837 178.557 244.837 178.557 244.735 178.689L244.593 178.77C244.43 178.78 244.421 178.781 244.268 178.74C244.268 178.74 243.211 177.632 242.968 177.185L243.008 176.86L243.252 176.657C243.252 176.657 243.404 176.637 243.577 176.688ZM100.275 175.743L100.529 175.936L100.58 176.261C100.437 176.8 100.295 177.338 100.163 177.876C100.163 177.876 99.9601 178.354 99.4928 178.13L99.3199 177.856L99.3301 177.683C99.4622 177.165 99.6045 176.637 99.7366 176.119C99.7366 176.119 99.6349 175.895 100.112 175.733C100.163 175.733 100.224 175.743 100.275 175.743ZM401.56 174.534C401.702 174.625 401.702 174.625 401.794 174.767L401.824 174.93C401.784 175.093 401.784 175.093 401.692 175.225C401.367 175.55 401.042 175.865 400.707 176.19C400.595 176.301 400.473 176.414 400.341 176.495H400.016L399.792 176.261V175.936C399.792 175.936 400.483 175.225 401.052 174.666L401.235 174.534C401.235 174.534 401.387 174.493 401.56 174.534ZM240.479 172.685C240.915 173.081 241.22 173.629 241.606 174.137C241.606 174.137 241.677 174.178 241.698 174.463C241.698 174.463 241.809 174.788 241.22 174.828C241.22 174.828 240.956 174.676 240.926 174.645C240.895 174.595 240.854 174.554 240.824 174.504C240.753 174.412 240.682 174.31 240.6 174.219C240.316 173.843 239.92 173.305 239.92 173.305L239.838 172.99C239.899 172.837 239.9 172.827 240.011 172.705L240.326 172.634C240.377 172.654 240.428 172.665 240.479 172.685ZM101.616 170.846L101.87 171.049L101.911 171.364C101.768 171.862 101.626 172.37 101.484 172.867L101.382 173.142C101.21 173.284 101.017 173.335 100.783 173.213L100.62 172.929C100.62 172.929 100.905 171.507 101.169 170.988L101.454 170.836C101.504 170.836 101.565 170.836 101.616 170.846ZM405.126 170.917C405.593 171.222 405.36 171.476 405.36 171.476C405.36 171.476 404.821 172.085 404.202 172.715C404.202 172.715 404.181 173.02 403.633 172.919L403.399 172.695V172.37C403.399 172.37 403.948 171.77 404.537 171.151L404.801 170.927C404.801 170.927 404.943 170.886 405.126 170.917ZM237.573 168.55C237.573 168.55 238.081 169.251 238.579 169.962L238.701 170.206L238.65 170.521L238.528 170.643C238.386 170.714 238.376 170.714 238.213 170.714C238.213 170.714 237.888 170.46 237.675 170.155C237.38 169.718 236.983 169.129 236.983 169.129L236.923 168.814C236.984 168.662 236.984 168.661 237.095 168.55L237.421 168.479C237.471 168.499 237.522 168.529 237.573 168.55ZM408.591 167.219C408.733 167.3 408.733 167.3 408.834 167.432L408.845 167.757L408.763 167.9C408.276 168.428 407.605 169.149 407.605 169.149L407.311 169.281L407.006 169.17C406.945 169.078 406.853 168.987 406.904 168.712C406.904 168.712 407.331 168.194 407.666 167.839C407.869 167.615 408.134 167.331 408.134 167.331L408.428 167.188C408.489 167.199 408.54 167.209 408.591 167.219ZM103.059 165.979L103.313 166.182C103.364 166.335 103.364 166.335 103.343 166.497C103.191 167.016 103.028 167.524 102.876 168.042L102.774 168.265L102.49 168.418L102.327 168.408C102.185 168.326 102.175 168.326 102.073 168.204L102.043 167.879C102.114 167.636 102.185 167.392 102.266 167.138C102.327 166.924 102.398 166.701 102.459 166.487C102.52 166.294 102.52 166.284 102.612 166.111L102.896 165.959C102.957 165.959 103.008 165.969 103.059 165.979ZM234.667 164.222L234.931 164.415C235.226 164.872 235.521 165.339 235.815 165.807C235.815 165.807 236.008 165.888 235.825 166.304L235.551 166.487L235.236 166.417C235.236 166.417 234.809 165.807 234.525 165.349C234.393 165.146 234.22 164.862 234.22 164.862L234.159 164.537L234.352 164.272C234.352 164.272 234.484 164.212 234.667 164.222ZM411.974 163.429C412.075 163.49 412.187 163.531 412.258 163.805L412.157 164.11C411.791 164.527 411.425 164.943 411.059 165.349L410.744 165.522L410.44 165.42L410.297 165.126L410.399 164.821C410.734 164.445 411.07 164.069 411.405 163.694L411.659 163.449C411.659 163.449 411.791 163.409 411.974 163.429ZM104.623 161.143C104.756 161.224 104.766 161.225 104.867 161.347C104.867 161.347 104.623 162.464 104.359 163.277L104.278 163.429C104.146 163.531 104.146 163.531 103.993 163.572L103.678 163.47L103.536 163.186L103.557 163.023C103.719 162.525 103.882 162.027 104.044 161.53C104.044 161.53 103.943 161.255 104.451 161.123C104.512 161.123 104.563 161.133 104.623 161.143ZM232.066 159.873C232.209 159.944 232.209 159.945 232.32 160.067C232.605 160.554 232.889 161.042 233.174 161.53L233.235 161.682C233.224 161.845 233.225 161.845 233.154 161.997L232.879 162.159L232.706 162.149C232.564 162.078 232.564 162.078 232.452 161.956C232.178 161.499 231.904 161.032 231.63 160.564C231.63 160.564 231.518 160.575 231.548 160.178L231.741 159.914C231.741 159.914 231.883 159.863 232.066 159.873ZM415.286 159.579C415.428 159.66 415.428 159.66 415.53 159.792L415.58 159.945C415.56 160.107 415.56 160.117 415.479 160.26C415.134 160.666 414.778 161.083 414.432 161.489L414.25 161.651L413.924 161.672L413.681 161.469L413.64 161.306C413.65 161.143 413.66 161.144 413.742 161.001C414.087 160.595 414.432 160.189 414.778 159.772C414.778 159.772 414.747 159.518 415.286 159.579ZM106.29 156.338C106.381 156.399 106.503 156.45 106.574 156.724L106.452 157.14L106.33 157.476C106.218 157.801 106.096 158.136 105.985 158.471L105.761 158.715L105.436 158.736L105.202 158.522C105.101 158.147 105.284 157.882 105.416 157.527C105.497 157.303 105.578 157.079 105.66 156.846C105.731 156.643 105.721 156.643 105.832 156.46L106.127 156.317C106.178 156.328 106.239 156.338 106.29 156.338ZM418.527 155.668L418.781 155.881C418.821 156.033 418.821 156.033 418.811 156.196L418.73 156.348C418.395 156.755 418.059 157.171 417.714 157.577L417.521 157.76L417.206 157.791L417.054 157.709C416.952 157.587 416.952 157.588 416.911 157.425L417.003 157.12C417.165 156.917 417.328 156.714 417.501 156.521C417.724 156.236 418.08 155.809 418.08 155.809C418.222 155.687 418.131 155.637 418.527 155.668ZM229.567 155.454C229.709 155.535 229.709 155.535 229.821 155.657C230.095 156.155 230.37 156.643 230.644 157.14L230.685 157.455L230.481 157.709L230.329 157.76C230.156 157.75 230.156 157.75 230.014 157.679C230.014 157.679 229.211 156.49 229.029 155.911L229.039 155.749C229.12 155.607 229.12 155.596 229.242 155.495C229.242 155.495 229.384 155.444 229.567 155.454ZM108.088 151.593L108.311 151.817C108.352 151.98 108.352 151.979 108.321 152.142C108.128 152.64 107.935 153.127 107.752 153.625L107.631 153.859L107.498 153.951C107.336 153.991 107.336 153.991 107.174 153.961C107.174 153.961 106.828 153.971 106.929 153.412C107.102 152.934 107.285 152.467 107.468 151.99L107.621 151.695L107.925 151.563C107.976 151.573 108.027 151.583 108.088 151.593ZM421.707 151.715L421.961 151.919L422.001 152.244C422.001 152.244 421.483 152.945 421.067 153.463C420.975 153.565 420.833 153.788 420.579 153.869L420.274 153.777L420.162 153.656C420.112 153.493 420.112 153.493 420.132 153.33C420.132 153.33 420.437 152.894 420.701 152.569L420.996 152.193L421.26 151.858L421.544 151.705C421.595 151.705 421.656 151.715 421.707 151.715ZM227.159 150.994L227.403 151.197C227.576 151.512 227.738 151.827 227.901 152.142L228.074 152.457L228.246 152.853L228.155 153.158L227.87 153.31C227.708 153.3 227.708 153.29 227.566 153.219L227.454 153.087C227.24 152.691 227.027 152.305 226.824 151.898C226.753 151.776 226.499 151.512 226.702 151.126L226.987 150.974C227.047 150.984 227.098 150.984 227.159 150.994ZM424.836 147.722C424.978 147.793 424.988 147.793 425.09 147.915L425.131 148.241L425.059 148.383C424.724 148.83 424.379 149.267 424.033 149.704C424.033 149.704 424.003 149.795 423.739 149.887L423.424 149.795L423.322 149.673C423.261 149.521 423.261 149.511 423.281 149.348C423.281 149.348 423.789 148.637 424.267 148.027L424.511 147.763C424.511 147.763 424.653 147.702 424.836 147.722ZM110.008 146.889C110.14 146.981 110.14 146.981 110.231 147.123V147.448C110.018 147.946 109.805 148.454 109.602 148.962L109.348 149.236C108.799 149.338 108.799 149.003 108.799 149.003C108.768 148.84 108.768 148.84 108.799 148.677C109.012 148.159 109.226 147.641 109.449 147.133L109.683 146.889C109.683 146.889 109.825 146.849 110.008 146.889ZM225.402 147.377C225.605 147.763 225.828 148.2 225.828 148.2L225.859 148.525C225.777 148.667 225.777 148.677 225.656 148.779L225.33 148.799L225.076 148.596C224.934 148.322 224.792 148.048 224.65 147.773C224.182 146.859 224.233 147.072 224.274 146.767L224.477 146.524L224.802 146.493L225.046 146.706C225.168 146.93 225.29 147.154 225.402 147.377ZM427.925 143.679C428.067 143.75 428.067 143.76 428.179 143.882L428.219 144.197C428.219 144.197 427.731 144.898 427.366 145.386C427.193 145.609 427.213 145.62 427 145.803L426.685 145.853L426.533 145.782C426.421 145.66 426.421 145.65 426.37 145.497L426.451 145.182C426.797 144.735 427.132 144.289 427.477 143.842L427.752 143.669C427.813 143.679 427.864 143.679 427.925 143.679ZM112.07 142.247C112.202 142.348 112.202 142.348 112.294 142.49L112.284 142.805C112.05 143.313 111.827 143.811 111.593 144.309L111.349 144.573L111.024 144.563C110.892 144.461 110.882 144.461 110.8 144.329L110.811 144.004C111.044 143.476 111.278 142.958 111.512 142.45L111.745 142.236C111.745 142.236 111.898 142.206 112.07 142.247ZM222.486 141.972C222.628 142.054 222.628 142.054 222.73 142.186C222.974 142.653 223.207 143.11 223.441 143.577L223.552 143.851C223.532 144.014 223.532 144.014 223.451 144.157L223.319 144.258C223.156 144.309 223.156 144.309 222.994 144.289L222.75 144.075C222.516 143.618 222.272 143.161 222.039 142.694C221.968 142.562 221.978 142.561 221.937 142.409L222.028 142.104L222.323 141.952C222.374 141.962 222.435 141.972 222.486 141.972ZM430.962 139.615L431.216 139.808C431.277 139.96 431.277 139.961 431.267 140.133C431.267 140.133 430.8 140.804 430.444 141.291C430.271 141.525 430.292 141.545 430.058 141.749L429.906 141.799C429.743 141.799 429.743 141.799 429.591 141.728L429.479 141.606C429.428 141.444 429.428 141.444 429.438 141.281C429.438 141.281 429.794 140.753 430.078 140.367L430.393 139.94L430.637 139.666C430.637 139.666 430.779 139.605 430.962 139.615ZM113.483 139.971L113.158 139.95C113.066 139.889 112.964 139.828 112.924 139.544C112.924 139.544 113.32 138.66 113.706 137.888L113.96 137.654C114.072 137.644 114.194 137.603 114.417 137.776L114.499 137.918C114.519 138.081 114.519 138.091 114.478 138.243C114.214 138.772 113.95 139.31 113.686 139.839L113.727 139.757C113.727 139.757 113.645 139.879 113.483 139.971ZM220.169 137.451C220.312 137.532 220.322 137.532 220.423 137.664C220.677 138.162 220.931 138.66 221.185 139.158L221.216 139.493L221.002 139.737L220.85 139.788C220.687 139.767 220.687 139.768 220.535 139.686L220.434 139.554C220.22 139.137 220.007 138.711 219.793 138.294L219.661 138.05C219.621 137.888 219.621 137.888 219.641 137.725L219.844 137.481C219.844 137.481 219.987 137.431 220.169 137.451ZM433.969 135.521C434.112 135.592 434.112 135.592 434.223 135.714L434.285 135.866C434.274 136.029 434.274 136.029 434.203 136.181C433.898 136.608 433.594 137.024 433.279 137.451C433.116 137.675 432.771 137.715 432.771 137.715L432.507 137.522C432.446 137.37 432.446 137.36 432.456 137.197C432.456 137.197 432.893 136.547 433.238 136.079L433.523 135.684C433.665 135.551 433.563 135.501 433.969 135.521ZM116.663 133.184C117.099 133.55 116.835 133.763 116.835 133.763C116.744 133.926 116.653 134.088 116.571 134.24C116.46 134.454 116.338 134.668 116.226 134.881C116.033 135.247 115.921 135.378 115.921 135.378L115.779 135.449C115.616 135.47 115.616 135.47 115.454 135.419L115.332 135.317C115.25 135.175 115.25 135.175 115.23 135.002L115.281 134.85C115.545 134.352 115.819 133.855 116.083 133.357C116.083 133.357 116.124 133.265 116.348 133.154C116.348 133.154 116.49 133.133 116.663 133.184ZM217.833 132.94C217.975 133.022 217.985 133.022 218.087 133.144C218.32 133.591 218.554 134.038 218.777 134.485C218.869 134.657 219.001 134.789 218.818 135.115L218.686 135.216C218.523 135.267 218.524 135.267 218.361 135.247L218.117 135.043C217.853 134.535 217.599 134.037 217.335 133.54L217.284 133.387C217.304 133.214 217.304 133.214 217.386 133.072L217.67 132.92C217.721 132.93 217.782 132.93 217.833 132.94ZM436.936 131.406L437.2 131.589C437.251 131.741 437.251 131.741 437.251 131.914L437.18 132.067C436.855 132.524 436.52 132.981 436.194 133.438L435.92 133.611L435.605 133.53L435.432 133.255L435.504 132.94C435.829 132.503 436.144 132.067 436.459 131.62L436.611 131.457C436.611 131.457 436.753 131.396 436.936 131.406ZM119.213 128.795C119.345 128.907 119.345 128.907 119.406 129.059L119.365 129.374C119.264 129.537 119.172 129.699 119.071 129.862C118.837 130.258 118.502 130.827 118.502 130.827C118.39 130.949 118.39 130.949 118.237 131.02L118.075 131.03C117.922 130.98 117.922 130.979 117.801 130.868L117.709 130.553L117.77 130.4C118.055 129.923 118.339 129.435 118.623 128.958L118.898 128.744C118.898 128.744 119.05 128.734 119.213 128.795ZM215.445 128.45C215.587 128.531 215.587 128.531 215.689 128.653C215.811 128.876 215.923 129.09 216.045 129.303C216.156 129.506 216.258 129.709 216.37 129.902C216.471 130.095 216.481 130.096 216.542 130.309L216.532 130.471C216.451 130.614 216.451 130.624 216.329 130.725C216.329 130.725 216.126 131 215.75 130.553C215.496 130.065 215.232 129.588 214.978 129.11C214.978 129.11 214.886 129.11 214.917 128.734L214.988 128.592C215.14 128.47 215.049 128.419 215.445 128.45ZM439.872 127.261L440.136 127.454L440.197 127.769C440.197 127.769 439.771 128.419 439.445 128.886L439.151 129.303L439.029 129.415C438.877 129.476 438.877 129.476 438.714 129.466L438.45 129.283L438.389 128.968L438.46 128.815C438.775 128.358 439.1 127.911 439.415 127.454L439.71 127.261C439.771 127.261 439.822 127.261 439.872 127.261ZM121.803 124.457L122.078 124.64C122.118 124.741 122.179 124.853 122.078 125.107C121.763 125.575 121.458 126.042 121.153 126.509L120.889 126.702L120.564 126.641C120.442 126.529 120.442 126.53 120.381 126.377C120.381 126.377 120.432 126.072 120.442 126.052C120.818 125.473 121.336 124.69 121.336 124.69C121.448 124.528 121.621 124.457 121.803 124.457ZM212.956 124.02C213.179 124.121 213.301 124.366 213.423 124.579C213.759 125.168 214.256 125.686 214.013 126.153L213.738 126.316L213.576 126.306C213.423 126.224 213.423 126.225 213.322 126.103C213.058 125.635 212.793 125.168 212.529 124.711L212.428 124.477L212.509 124.162L212.793 124C212.844 124.01 212.905 124.01 212.956 124.02ZM442.788 123.106L443.052 123.289C443.093 123.39 443.164 123.502 443.052 123.756C442.727 124.223 442.453 124.741 442.077 125.148C441.792 125.453 441.488 125.25 441.488 125.25L441.315 124.975L441.386 124.66C441.62 124.325 441.864 123.979 442.097 123.634L442.351 123.278C442.493 123.146 442.392 123.095 442.788 123.106ZM124.76 120.312C124.902 120.383 124.902 120.383 125.014 120.505C125.014 120.505 125.105 120.647 125.065 120.83C124.983 121.155 124.699 121.378 124.485 121.663C124.272 121.958 123.998 122.334 123.998 122.334C123.591 122.72 123.409 122.435 123.409 122.435L123.236 122.161L123.307 121.846C123.673 121.338 123.978 120.769 124.435 120.363C124.435 120.363 124.567 120.301 124.76 120.312ZM210.497 119.712C210.833 120.078 211.056 120.566 211.33 121.013C211.412 121.145 211.656 121.358 211.473 121.754L211.198 121.927L211.026 121.917C210.883 121.846 210.883 121.846 210.772 121.724C210.487 121.267 210.213 120.8 209.928 120.342L209.827 120.129L209.908 119.814L210.03 119.702C210.203 119.631 210.132 119.55 210.497 119.712ZM445.684 118.93L445.948 119.113C446.009 119.265 446.009 119.266 446.009 119.428C446.009 119.428 445.541 120.16 445.186 120.678L444.983 120.972C444.861 121.094 444.861 121.094 444.708 121.155L444.546 121.145C444.393 121.084 444.393 121.084 444.271 120.962L444.221 120.647L444.281 120.495C444.586 120.058 444.881 119.631 445.186 119.194L445.358 118.991C445.358 118.991 445.501 118.92 445.684 118.93ZM127.92 116.329C128.062 116.41 128.072 116.41 128.174 116.542C128.174 116.542 128.285 116.807 128.051 117.081C127.899 117.264 127.757 117.447 127.605 117.63C127.381 117.894 127.056 118.31 127.056 118.31C126.924 118.412 126.924 118.412 126.771 118.463L126.457 118.371L126.355 118.249C126.304 118.087 126.304 118.087 126.314 117.924C126.314 117.924 126.975 117.05 127.401 116.542C127.533 116.38 127.706 116.309 127.92 116.329ZM207.703 115.445C208.12 115.851 208.394 116.4 208.73 116.908L208.841 117.132V117.294C208.77 117.447 208.77 117.447 208.658 117.558C208.658 117.558 208.323 117.822 207.937 117.243C207.673 116.847 207.409 116.461 207.145 116.065L207.063 115.73L207.236 115.456C207.409 115.384 207.338 115.303 207.703 115.445ZM448.599 114.764L448.863 114.948C448.914 115.11 448.914 115.11 448.914 115.272C448.914 115.272 448.437 116.004 447.959 116.685L447.756 116.918L447.431 116.969L447.167 116.786L447.116 116.471C447.116 116.471 447.492 115.882 447.786 115.456C447.939 115.242 448.152 114.927 448.152 114.927C448.295 114.805 448.193 114.754 448.599 114.764ZM131.323 112.54C131.79 112.844 131.567 113.088 131.567 113.088C131.242 113.596 130.754 113.992 130.337 114.449C130.337 114.449 130.297 114.541 130.043 114.602C130.043 114.602 129.728 114.744 129.596 114.195C129.596 114.195 129.698 113.901 129.718 113.88C129.83 113.748 129.951 113.627 130.073 113.495C130.398 113.139 130.856 112.651 130.856 112.651L131.16 112.509C131.211 112.519 131.262 112.529 131.323 112.54ZM204.696 111.331C205.143 111.717 205.468 112.276 205.844 112.784C205.844 112.784 205.915 112.834 205.926 113.109L205.875 113.261C205.763 113.383 205.763 113.383 205.611 113.454C205.611 113.454 205.448 113.505 205.296 113.413C204.879 113.159 204.645 112.601 204.239 112.072L204.076 111.808L204.066 111.646C204.117 111.493 204.117 111.483 204.229 111.361L204.544 111.28C204.595 111.3 204.645 111.31 204.696 111.331ZM451.576 110.65L451.84 110.843L451.891 111.158C451.647 111.666 451.241 112.103 450.895 112.57L450.692 112.784C450.174 112.977 450.113 112.651 450.113 112.651C450.062 112.489 450.063 112.489 450.063 112.326L450.133 112.174C450.448 111.747 450.764 111.32 451.078 110.894L451.261 110.701C451.261 110.701 451.393 110.64 451.576 110.65ZM134.96 108.984L135.184 109.217C135.204 109.39 135.204 109.39 135.163 109.542C135.163 109.542 134.544 110.173 133.944 110.731C133.944 110.731 133.914 110.883 133.548 110.955L133.385 110.914C133.243 110.822 133.243 110.823 133.162 110.691C133.162 110.691 133.091 110.528 133.162 110.365C133.253 110.162 133.446 110.04 133.609 109.888C133.944 109.563 134.239 109.218 134.635 108.974C134.635 108.974 134.787 108.943 134.96 108.984ZM201.405 107.419C201.872 107.764 202.207 108.263 202.603 108.72L202.745 108.943L202.766 109.106C202.725 109.268 202.725 109.268 202.624 109.39L202.481 109.471C202.319 109.492 202.319 109.492 202.156 109.451C202.156 109.451 201.557 108.801 200.978 108.161L200.825 107.947L200.846 107.622L200.937 107.491C201.11 107.389 201.018 107.328 201.405 107.419ZM454.634 106.586C454.777 106.657 454.777 106.657 454.888 106.779L454.929 107.104C454.929 107.104 454.502 107.724 454.167 108.161L453.994 108.394L453.72 108.709L453.395 108.75L453.131 108.557C453.08 108.405 453.08 108.405 453.09 108.242L453.161 108.09C453.496 107.643 453.842 107.195 454.187 106.748L454.472 106.576C454.522 106.576 454.573 106.586 454.634 106.586ZM138.851 105.702C138.983 105.814 138.983 105.814 139.054 105.956L139.014 106.281C139.014 106.281 138.333 106.861 137.642 107.429L137.297 107.561L137.002 107.409L136.911 107.104L137.063 106.809C137.338 106.586 137.622 106.353 137.907 106.119C137.998 106.048 138.089 105.977 138.181 105.906C138.384 105.743 138.699 105.652 138.699 105.652C138.75 105.672 138.801 105.692 138.851 105.702ZM626.251 105.346C626.8 105.377 627.349 105.397 627.897 105.407L628.212 105.539C628.293 105.682 628.294 105.682 628.324 105.845L628.192 106.139C628.192 106.139 627.907 106.261 627.877 106.261C627.846 106.261 627.806 106.261 627.775 106.261C627.735 106.251 627.704 106.251 627.664 106.251C627.186 106.241 626.698 106.22 626.211 106.19C626.211 106.19 626.119 106.22 625.896 106.047L625.784 105.743L625.825 105.591C625.926 105.458 625.926 105.458 626.069 105.367C626.069 105.367 626.201 105.346 626.251 105.346ZM633.119 105.346L633.363 105.57C633.404 105.723 633.404 105.733 633.384 105.885C633.384 105.885 633.109 106.17 632.53 106.2C632.124 106.221 631.727 106.23 631.321 106.251C631.321 106.251 631.24 106.281 630.996 106.129C630.996 106.129 630.671 106.027 630.976 105.539C630.976 105.539 631.27 105.398 631.28 105.398C631.321 105.398 631.362 105.398 631.402 105.398C631.504 105.398 631.616 105.387 631.717 105.387C632.266 105.367 632.957 105.326 632.957 105.326C633.007 105.336 633.069 105.346 633.119 105.346ZM621.304 104.869C621.842 104.94 622.381 105.011 622.919 105.072L623.173 105.224C623.244 105.367 623.244 105.377 623.254 105.539L623.204 105.692C623.102 105.824 623.102 105.824 622.95 105.895L622.787 105.915C622.248 105.855 621.72 105.783 621.182 105.702C621.182 105.702 620.765 105.662 620.735 105.215L620.796 105.052C620.907 104.93 620.907 104.93 621.05 104.859C621.05 104.859 621.192 104.849 621.304 104.869ZM638.148 104.869C638.291 104.94 638.291 104.94 638.402 105.062L638.443 105.387C638.443 105.387 638.331 105.662 637.986 105.713C637.478 105.774 636.98 105.834 636.472 105.885C636.472 105.885 636.431 105.987 636.086 105.804L635.934 105.519L636.025 105.205C636.025 105.205 637.021 104.981 637.986 104.859C638.037 104.859 638.087 104.859 638.148 104.869ZM197.788 103.813C198.285 104.107 198.692 104.605 199.139 105.031C199.139 105.031 199.23 105.022 199.301 105.357L199.271 105.519C199.179 105.661 199.179 105.661 199.047 105.753C199.047 105.753 198.824 105.906 198.346 105.438C198.032 105.144 197.716 104.849 197.401 104.554C197.401 104.554 197.31 104.595 197.219 104.229L197.33 103.924L197.625 103.782C197.676 103.792 197.737 103.802 197.788 103.813ZM643.137 104.036C643.279 104.097 643.289 104.107 643.401 104.219L643.462 104.534L643.279 104.808L643.127 104.869C642.598 104.971 642.07 105.072 641.532 105.164C641.532 105.164 641.379 105.357 641.024 104.991L640.973 104.676L641.156 104.402C641.156 104.402 642.07 104.219 642.954 104.046C642.954 104.046 643.055 104.036 643.137 104.036ZM616.275 103.884C616.396 103.924 616.529 103.954 616.651 103.975C617.169 104.107 617.91 104.269 617.91 104.269C618.012 104.31 618.134 104.341 618.235 104.605V104.768C618.174 104.92 618.174 104.92 618.053 105.031C618.053 105.031 617.636 105.072 617.189 104.97C616.823 104.889 616.458 104.808 616.092 104.716L615.807 104.514L615.767 104.199C615.828 104.046 615.838 104.046 615.96 103.935C615.96 103.935 616.092 103.884 616.275 103.884ZM457.763 102.583L458.017 102.786C458.068 102.939 458.068 102.939 458.048 103.101C458.048 103.101 457.54 103.802 457.083 104.382L456.808 104.686L456.483 104.727C456.331 104.646 456.331 104.645 456.229 104.523L456.178 104.371C456.189 104.209 456.189 104.198 456.26 104.056C456.605 103.629 456.94 103.193 457.286 102.766L457.601 102.573C457.652 102.573 457.702 102.573 457.763 102.583ZM142.844 102.685L143.108 102.858C143.179 103.01 143.179 103.02 143.179 103.183C143.179 103.183 142.356 103.873 141.605 104.392L141.29 104.473L141.015 104.29C141.015 104.29 140.782 103.945 141.208 103.64C141.3 103.579 141.391 103.507 141.493 103.446C141.818 103.213 142.153 102.99 142.488 102.776L142.682 102.685C142.732 102.685 142.793 102.685 142.844 102.685ZM648.217 102.959L648.41 103.223C648.42 103.386 648.42 103.386 648.369 103.538L648.105 103.731C647.556 103.873 647.008 104.016 646.459 104.148L646.134 104.097L645.941 103.833L645.992 103.507C646.103 103.396 646.114 103.386 646.256 103.325C646.469 103.274 646.672 103.223 646.886 103.173C647.221 103.091 647.556 103 647.892 102.919C647.892 102.919 648.044 102.898 648.217 102.959ZM611.459 102.431C611.957 102.613 612.455 102.786 612.963 102.949L613.186 103.051L613.339 103.335L613.237 103.65C613.237 103.65 612.952 103.833 612.444 103.67C612.038 103.538 611.642 103.396 611.235 103.254L611.032 103.142L610.931 103.01C610.89 102.847 610.89 102.847 610.92 102.685L611.134 102.451C611.134 102.451 611.276 102.4 611.459 102.431ZM653.083 101.557L653.286 101.801L653.256 102.126C653.154 102.248 653.154 102.248 653.012 102.329C652.799 102.4 652.585 102.461 652.372 102.532C651.966 102.654 651.386 102.827 651.386 102.827L651.061 102.797C650.939 102.685 650.929 102.685 650.858 102.543L650.838 102.38C650.889 102.217 650.889 102.218 651 102.096C651 102.096 651.894 101.791 652.646 101.557L652.921 101.506C652.971 101.516 653.022 101.537 653.083 101.557ZM193.795 100.592C194.262 100.805 194.658 101.181 195.095 101.516C195.105 101.526 195.308 101.679 195.319 101.689C195.451 101.821 195.471 101.974 195.471 101.974L195.39 102.278C195.309 102.359 195.217 102.451 194.943 102.431L194.689 102.278C194.282 101.963 193.866 101.649 193.449 101.354L193.287 101.08L193.358 100.765L193.632 100.592C193.683 100.592 193.744 100.592 193.795 100.592ZM606.816 100.48C607.324 100.724 607.832 100.957 608.34 101.181C608.34 101.181 608.675 101.201 608.553 101.75L608.319 101.974C608.319 101.974 606.958 101.628 606.318 101.141L606.206 100.836C606.206 100.836 606.074 100.521 606.653 100.439C606.714 100.46 606.765 100.47 606.816 100.48ZM147.233 100.074L147.487 100.287C147.538 100.439 147.538 100.439 147.518 100.602C147.518 100.602 147.325 100.846 147.304 100.866C147.253 100.887 147.203 100.917 147.152 100.947C146.715 101.181 146.278 101.425 145.851 101.679L145.526 101.72C145.526 101.72 145.191 101.79 145.232 101.201C145.232 101.201 145.597 100.846 145.994 100.622C146.298 100.45 146.593 100.287 146.898 100.125C146.898 100.125 147.05 100.063 147.233 100.074ZM657.868 99.9109C658 100.002 658 100.002 658.092 100.145L658.072 100.47L657.838 100.693C657.309 100.876 656.781 101.069 656.253 101.252C656.253 101.252 655.908 101.354 655.694 100.998C655.694 100.998 655.471 100.744 655.958 100.46C656.456 100.287 656.954 100.104 657.462 99.9214L657.706 99.8708C657.767 99.8809 657.817 99.8906 657.868 99.9109ZM460.974 98.641C461.462 98.9051 461.248 99.1693 461.248 99.1693C461.248 99.1693 460.74 99.8402 460.171 100.531L459.968 100.724C459.968 100.724 459.755 100.988 459.399 100.551L459.348 100.399C459.369 100.236 459.369 100.226 459.44 100.084C459.907 99.5151 460.517 98.7734 460.517 98.7734L460.811 98.6206C460.862 98.6308 460.913 98.6308 460.974 98.641ZM602.407 98.0521C602.864 98.3366 603.321 98.6107 603.788 98.8851C603.788 98.8851 603.87 98.8239 604.042 99.1693L604.002 99.4947L603.9 99.6168C603.748 99.6879 603.748 99.6877 603.585 99.708L603.433 99.647C602.966 99.3829 602.498 99.1085 602.041 98.824L601.838 98.6613L601.777 98.509C601.767 98.3465 601.767 98.3464 601.828 98.194L601.939 98.0725C602.112 97.9912 602.031 97.9201 602.407 98.0521ZM189.589 97.9504C190.087 98.2248 190.584 98.4989 191.072 98.7834C191.072 98.7834 191.163 98.8037 191.275 99.0577L191.235 99.3727L190.971 99.5657C190.971 99.5657 190.655 99.5252 190.635 99.5151C190.595 99.4948 190.564 99.464 190.523 99.4436C190.391 99.3624 190.279 99.3018 190.279 99.3018C189.761 99.0071 189.06 98.6008 189.06 98.6008L188.969 98.2858L189.121 98.001C189.294 97.9096 189.213 97.8387 189.589 97.9504ZM662.582 98.0521L662.816 98.2858V98.6107C662.725 98.7428 662.725 98.743 662.582 98.8345C662.085 99.0478 661.587 99.2506 661.079 99.4436L660.845 99.5047L660.551 99.3727L660.459 99.2407C660.429 99.0782 660.429 99.0779 660.469 98.9153L660.693 98.6921C661.14 98.5092 661.587 98.3362 662.024 98.1533L662.42 98.0214C662.481 98.0315 662.532 98.042 662.582 98.0521ZM151.846 97.8894C151.988 97.9809 151.988 97.9806 152.079 98.1127V98.4381C152.079 98.4381 151.165 98.9665 150.332 99.3424C150.332 99.3424 150.22 99.5049 149.854 99.2814L149.722 98.9868C149.722 98.9868 149.702 98.8137 149.834 98.6817C150.22 98.2651 151.012 98.0009 151.683 97.8587C151.744 97.8688 151.795 97.8793 151.846 97.8894ZM667.225 96.0202L667.459 96.2335C667.591 96.7821 667.256 96.8025 667.256 96.8025C666.819 97.0057 666.372 97.1986 665.925 97.4018L665.783 97.4628C665.671 97.5136 665.671 97.5033 665.549 97.5337L665.244 97.4117L665.153 97.2797C665.112 97.1172 665.112 97.1174 665.143 96.9548L665.366 96.7212C665.874 96.4977 666.382 96.2641 666.88 96.0405C666.88 96.0405 667.043 95.9897 667.225 96.0202ZM156.651 96.1522C156.783 96.2538 156.783 96.2535 156.854 96.3957L156.875 96.5689C156.834 96.7213 156.824 96.721 156.722 96.8531C156.722 96.8531 155.818 97.1682 154.985 97.4628L154.67 97.4425L154.446 97.1984L154.426 97.0362C154.467 96.8736 154.467 96.8736 154.568 96.7415L154.71 96.6601C155.239 96.4773 155.767 96.3045 156.295 96.1318C156.295 96.1318 156.468 96.1014 156.651 96.1522ZM184.895 95.8778C185.423 96.0607 185.941 96.2637 186.459 96.4771C186.459 96.4771 186.663 96.4364 186.754 96.8834L186.632 97.1781C186.632 97.1781 186.327 97.3405 185.738 97.0967C185.271 96.9138 184.611 96.6701 184.611 96.6701L184.367 96.4568L184.357 96.1318L184.57 95.8878C184.57 95.8878 184.712 95.8474 184.895 95.8778ZM598.119 95.1159C598.658 95.38 599.095 95.8167 599.593 96.1824L599.785 96.4672L599.714 96.7822L599.44 96.9548C599.166 96.9447 598.932 96.7416 598.698 96.5689C598.383 96.3454 598.068 96.1011 597.764 95.8674C597.764 95.8674 597.672 95.8372 597.591 95.5832L597.601 95.4205C597.672 95.2681 597.672 95.2683 597.794 95.1565C597.794 95.1565 597.937 95.1057 598.119 95.1159ZM464.266 94.7706L464.51 94.9735C464.55 95.136 464.55 95.1364 464.53 95.2989C464.53 95.2989 464.001 95.969 463.412 96.6497L463.219 96.8328C463.057 96.8734 463.057 96.8734 462.894 96.8531L462.752 96.7718C462.65 96.6498 462.65 96.6399 462.599 96.4875L462.701 96.1824C463.067 95.7557 463.432 95.329 463.788 94.9125C463.788 94.9125 463.829 94.7096 464.266 94.7706ZM161.599 94.8921C161.721 95.0039 161.721 95.0041 161.782 95.1565L161.721 95.4716C161.721 95.4716 160.715 95.8066 159.821 96.0301C159.821 96.0301 159.323 96.0609 159.303 95.5529C159.303 95.5529 159.374 95.2681 159.709 95.1868C160.065 95.0954 160.41 95.0143 160.756 94.9432C161.03 94.8823 161.243 94.7499 161.599 94.8921ZM179.947 94.4858C180.496 94.5976 181.034 94.7298 181.583 94.8619L181.877 95.0648L181.918 95.3902L181.725 95.6442L181.41 95.6948C181.349 95.6745 181.288 95.6645 181.227 95.6442C180.75 95.5324 180.272 95.4204 179.795 95.3188C179.795 95.3188 179.703 95.3292 179.51 95.1362L179.449 94.8212L179.51 94.6689C179.642 94.5368 179.551 94.4858 179.947 94.4858ZM671.797 93.8151L672.041 94.029C672.082 94.1915 672.082 94.1913 672.061 94.3539L671.848 94.5975C671.645 94.6991 671.442 94.801 671.239 94.9025C670.934 95.0549 670.639 95.1969 670.334 95.3391L669.999 95.3699L669.765 95.1565L669.745 94.8311L669.958 94.5875C670.162 94.4859 670.365 94.3945 670.568 94.2929C670.761 94.1913 670.964 94.0998 671.157 93.9982C671.655 93.7544 671.655 93.805 671.797 93.8151ZM166.496 94.029C166.648 94.1102 166.648 94.1099 166.75 94.2319L166.79 94.5568L166.587 94.8108C166.587 94.8108 165.642 94.9429 164.809 95.0648L164.444 94.9938C164.342 94.8719 164.342 94.8721 164.281 94.7096L164.291 94.5469C164.362 94.4046 164.362 94.3945 164.484 94.2929L164.636 94.2319C165.205 94.1506 165.764 94.0795 166.323 94.0185C166.323 94.0185 166.425 94.029 166.496 94.029ZM175.02 93.8151C175.589 93.8558 176.168 93.8257 176.727 94.0086L176.93 94.2626L176.889 94.5771C176.889 94.5771 176.595 94.811 175.893 94.7398C175.365 94.689 174.644 94.5975 174.644 94.5975C174.512 94.4959 174.512 94.4961 174.431 94.3539C174.431 94.3539 174.217 94.0996 174.695 93.8151C174.695 93.8151 174.847 93.7948 175.02 93.8151ZM171.606 93.7239L171.84 93.9575C171.87 94.1201 171.87 94.1204 171.84 94.2829C171.84 94.2829 171.596 94.5365 170.905 94.5568C170.357 94.5669 169.615 94.5672 169.615 94.5672C169.513 94.5062 169.401 94.4553 169.33 94.1912L169.442 93.8866C169.442 93.8866 170.478 93.7139 171.393 93.6936C171.393 93.6936 171.505 93.7137 171.606 93.7239ZM594.289 91.8442C594.787 92.1592 595.183 92.6264 595.64 93.0328L595.813 93.3478C595.793 93.5104 595.793 93.5107 595.711 93.6529L595.427 93.7948C595.427 93.7948 595.061 93.6529 594.716 93.3379C594.431 93.0839 594.147 92.8297 593.872 92.5655C593.872 92.5655 593.669 92.5353 593.741 92.0883L593.832 91.9459C593.984 91.8342 593.893 91.7833 594.289 91.8442ZM676.288 91.4786C676.389 91.5294 676.511 91.5699 676.593 91.8442L676.491 92.1493C676.491 92.1493 675.719 92.6064 674.876 93.0433C674.876 93.0433 674.805 93.1043 674.551 93.0839L674.297 92.8706L674.256 92.7183C674.266 92.5558 674.266 92.5455 674.347 92.4033C674.347 92.4033 674.855 92.1087 675.252 91.8953C675.566 91.7226 675.973 91.5089 675.973 91.5089C675.973 91.5089 676.105 91.4583 676.288 91.4786ZM467.639 90.9706C468.116 91.2551 467.893 91.5089 467.893 91.5089C467.893 91.5089 467.385 92.1189 466.806 92.759L466.552 93.0026L466.389 93.0433C466.226 93.0229 466.226 93.0228 466.084 92.9416L465.983 92.8096C465.942 92.647 465.942 92.6472 465.962 92.4847C465.962 92.4847 466.613 91.7121 467.029 91.2549C467.141 91.133 467.222 90.9097 467.639 90.9706ZM590.774 88.2273C591.262 88.5931 591.617 89.1113 592.044 89.5583L592.135 89.7007C592.156 89.8632 592.156 89.8631 592.125 90.0256L591.891 90.2493C591.891 90.2493 591.485 90.2085 591.119 89.8123C590.794 89.4669 590.439 89.1724 590.195 88.7457L590.205 88.4307L590.306 88.2988C590.469 88.1972 590.388 88.1257 590.774 88.2273ZM471.113 87.252L471.347 87.4758V87.8007C471.347 87.8007 470.747 88.4712 470.189 89.0707C470.189 89.0707 470.158 89.3553 469.64 89.2741L469.406 89.0503L469.366 88.8881C469.396 88.7256 469.396 88.7253 469.488 88.583C469.63 88.4408 469.772 88.2885 469.914 88.1361C470.077 87.9532 470.25 87.7807 470.412 87.5978L470.585 87.4252C470.727 87.2728 470.91 87.2114 471.113 87.252ZM587.574 84.3262C588.031 84.7326 588.336 85.2712 588.732 85.7589L588.803 85.9112C588.823 86.0737 588.823 86.0738 588.772 86.2262C588.772 86.2262 588.752 86.5715 588.193 86.3988C588.193 86.3988 587.249 85.4132 586.954 84.7935L586.994 84.4785L587.258 84.2756C587.258 84.2756 587.401 84.2652 587.574 84.3262ZM474.679 83.6252L474.903 83.8589C474.933 84.0214 474.933 84.0213 474.903 84.1838C474.903 84.1838 474.293 84.834 473.714 85.4131L473.48 85.6066H473.155L472.922 85.3828C472.891 85.2203 472.891 85.2205 472.922 85.0579C472.922 85.0579 473.663 84.2655 474.131 83.8083C474.273 83.6559 474.446 83.5846 474.679 83.6252ZM584.546 80.11C584.83 80.2319 584.993 80.5876 585.196 80.8923C585.42 81.2276 585.735 81.695 585.735 81.695L585.806 82.01L585.623 82.2843C585.481 82.3453 585.47 82.3451 585.308 82.3553C585.308 82.3553 584.322 81.3292 584.038 80.5977L584.109 80.2827L584.373 80.11C584.434 80.11 584.485 80.11 584.546 80.11ZM478.337 80.0996L478.56 80.3437C478.591 80.5062 478.591 80.5061 478.55 80.6686C478.55 80.6686 477.829 81.39 477.229 81.9589L476.925 82.0809L476.63 81.949C476.63 81.949 476.305 81.8267 476.64 81.3492C476.813 81.1867 476.975 81.0244 477.148 80.872C477.463 80.5672 477.808 80.242 477.808 80.242C477.961 80.0997 478.144 80.059 478.337 80.0996ZM482.106 76.6965C482.238 76.788 482.238 76.7981 482.319 76.9302L482.299 77.2551C482.299 77.2551 481.669 77.8544 481.049 78.4234L480.796 78.596C480.643 78.6163 480.633 78.6163 480.48 78.5757L480.348 78.4844C480.257 78.3421 480.257 78.3423 480.237 78.1798L480.379 77.8851C480.795 77.5092 481.212 77.1334 481.639 76.7575C481.639 76.7575 481.689 76.5848 482.106 76.6965ZM582.291 76.2897C582.524 76.6453 582.758 77.001 582.981 77.3667C582.981 77.3667 583.083 77.3567 583.083 77.7427L582.89 78.0072L582.575 78.0578C582.575 78.0578 581.945 77.2955 581.437 76.5437C581.285 76.3101 581.295 76.097 581.508 75.8735L581.823 75.8125L582.098 75.9956C582.159 76.0972 582.219 76.1881 582.291 76.2897ZM485.987 73.4046L486.19 73.6585L486.16 73.9835C486.16 73.9835 485.459 74.5934 484.829 75.1319L484.615 75.2639L484.29 75.2336L484.087 74.9895L484.118 74.6646L484.219 74.5426C484.626 74.1971 485.032 73.8514 485.438 73.5162L485.662 73.3743C485.662 73.3743 485.814 73.3538 485.987 73.4046ZM578.958 71.7586C579.405 72.1345 579.71 72.6731 580.076 73.1506C580.076 73.1506 580.309 73.2321 580.147 73.6893L579.893 73.8719L579.568 73.8312C579.568 73.8312 578.989 73.11 578.481 72.4699C578.481 72.4699 578.359 72.5003 578.328 72.0736L578.491 71.7993L578.796 71.708C578.846 71.7181 578.907 71.7383 578.958 71.7586ZM489.98 70.255C490.102 70.3667 490.112 70.367 490.183 70.5194L490.132 70.8344C490.132 70.8344 489.411 71.4334 488.75 71.9515L488.547 72.0637L488.222 72.0329L488.019 71.769L488.06 71.454C488.06 71.454 488.862 70.7834 489.37 70.3973C489.512 70.2856 489.624 70.133 489.98 70.255ZM575.605 67.8981C575.991 68.1724 576.296 68.5888 576.632 68.9647L576.886 69.2494L576.997 69.554C576.957 69.7166 576.946 69.7166 576.855 69.8487L576.55 69.9603C576.55 69.9603 576.266 69.8182 576.246 69.808C576.215 69.7775 576.195 69.7472 576.164 69.7167C575.839 69.3408 575.504 68.975 575.158 68.6194L575.006 68.2741L575.138 67.9795C575.301 67.8779 575.209 67.8067 575.605 67.8981ZM494.094 67.2681L494.287 67.5325L494.227 67.8574C494.227 67.8574 493.495 68.4058 492.794 68.9036C492.794 68.9036 492.814 69.0054 492.418 69.0257L492.144 68.853L492.073 68.538L492.245 68.2637C492.418 68.1316 492.601 67.9997 492.784 67.8778C493.129 67.6238 493.627 67.2785 493.627 67.2785L493.942 67.2071C493.993 67.2274 494.044 67.2478 494.094 67.2681ZM571.928 64.3422C572.426 64.647 572.852 65.1349 573.309 65.5616C573.309 65.5616 573.391 65.5916 573.462 65.8761L573.34 66.1812L573.045 66.3131C573.045 66.3131 572.761 66.2117 572.73 66.1812C572.7 66.1507 572.669 66.1303 572.639 66.0998C572.578 66.0389 572.517 65.9881 572.456 65.9272C572.375 65.8459 572.283 65.7644 572.192 65.6831C571.907 65.419 571.501 65.0635 571.501 65.0635L571.359 64.7688C571.389 64.6063 571.389 64.6065 571.471 64.4643L571.765 64.3219C571.816 64.332 571.867 64.3422 571.928 64.3422ZM498.179 64.3829L498.443 64.5759L498.504 64.8909C498.26 65.4395 497.559 65.6426 496.959 66.0388C496.959 66.0388 496.959 66.1402 496.583 66.1301L496.319 65.9574L496.259 65.6325C496.259 65.6325 496.502 65.3277 496.807 65.1245C497.254 64.8401 497.864 64.4439 497.864 64.4439C497.864 64.4439 497.996 64.3829 498.179 64.3829ZM502.547 61.7616L502.801 61.965L502.842 62.28C502.771 62.4324 502.771 62.4324 502.649 62.534C502.486 62.6356 502.324 62.7268 502.161 62.8183C501.846 63.0011 501.531 63.1841 501.226 63.3669C501.226 63.3669 501.135 63.56 500.718 63.3669L500.607 63.2449C500.556 63.0823 500.556 63.0825 500.566 62.92C500.566 62.92 500.871 62.5946 501.267 62.3609C501.582 62.178 501.897 61.9951 502.212 61.8122C502.212 61.8122 502.364 61.7515 502.547 61.7616ZM567.935 61.142C568.422 61.3757 568.819 61.7617 569.256 62.097C569.256 62.097 569.357 62.1376 569.55 62.3713L569.601 62.5236C569.591 62.6862 569.591 62.6964 569.52 62.8386L569.398 62.9502C569.235 63.001 569.235 63.0011 569.073 62.9909C569.073 62.9909 568.351 62.4628 567.671 61.965C567.671 61.965 567.396 61.9853 567.427 61.457L567.498 61.3042C567.64 61.1722 567.539 61.1319 567.935 61.142ZM507.038 59.3641L507.292 59.567C507.332 59.7295 507.332 59.7299 507.312 59.8924C507.312 59.8924 506.499 60.4407 505.747 60.8369L505.443 60.959L505.138 60.8677L504.985 60.573L505.077 60.2679L505.209 60.1667C505.666 59.9229 506.134 59.6791 506.601 59.4454L506.875 59.3437C506.936 59.3437 506.987 59.3539 507.038 59.3641ZM563.81 58.3987C564.257 58.6527 564.684 58.9273 565.121 59.1915L565.385 59.4048C565.436 59.5064 565.496 59.6079 565.395 59.8721L565.283 59.9941C565.131 60.0551 565.131 60.0549 564.968 60.065C564.968 60.065 564.145 59.5775 563.424 59.1508L563.19 58.866L563.231 58.5411L563.495 58.3481C563.495 58.3481 563.637 58.3378 563.81 58.3987ZM511.66 57.2101L511.894 57.4339L511.904 57.7588C511.569 58.2668 510.858 58.3479 510.198 58.6527L509.974 58.7137L509.669 58.6021L509.578 58.4702C509.537 58.3076 509.537 58.3073 509.568 58.1447C509.568 58.1447 510.695 57.3526 511.498 57.1799C511.549 57.19 511.61 57.2 511.66 57.2101ZM559.279 56.0111C559.767 56.2346 560.244 56.4685 560.722 56.7021C560.722 56.7021 560.986 56.6515 561.047 57.1595L560.904 57.4542C560.904 57.4542 560.539 57.5555 559.797 57.1898C559.36 56.9764 558.791 56.6818 558.791 56.6818C558.71 56.5396 558.71 56.5398 558.679 56.3772L558.822 56.0825L559.126 55.9704C559.177 55.9806 559.228 56.0009 559.279 56.0111ZM516.405 55.3508C516.537 55.4423 516.537 55.4422 516.628 55.5845C516.628 55.5845 516.69 55.8793 516.517 56.0419C516.243 56.2857 515.846 56.3158 515.481 56.4581C515.105 56.6003 514.627 56.7428 514.627 56.7428C514.525 56.7225 514.393 56.7121 514.241 56.4784L514.251 56.1535C514.251 56.1535 514.546 55.9095 514.881 55.7775C515.338 55.6047 515.938 55.3816 515.938 55.3816C516.11 55.3206 516.019 55.2492 516.405 55.3508ZM554.534 54.1012C554.89 54.2231 555.245 54.3553 555.601 54.4772C555.723 54.528 555.835 54.5686 555.957 54.6092C556.19 54.7006 556.373 54.9039 556.373 54.9039C556.414 55.0664 556.414 55.0662 556.383 55.2288L556.292 55.3712C556.16 55.4626 556.16 55.4625 555.997 55.5031C555.997 55.5031 555.093 55.1883 554.27 54.9039L554.016 54.6801C553.975 54.5277 553.975 54.5282 553.996 54.3656L554.077 54.2232C554.23 54.1013 554.138 54.0403 554.534 54.1012ZM521.271 53.8065C521.393 53.9081 521.393 53.9081 521.464 54.0605L521.434 54.3755C521.434 54.3755 520.54 54.7615 519.626 55.0358L519.402 55.0765L519.108 54.9242L519.036 54.7818C519.016 54.6193 519.016 54.6093 519.067 54.4569C519.067 54.4569 519.351 54.2333 519.819 54.1012C520.286 53.959 520.946 53.7659 520.946 53.7659C520.946 53.7659 521.089 53.7456 521.271 53.8065ZM549.617 52.679C550.095 52.7907 550.582 52.9125 551.06 53.0446C551.06 53.0446 551.171 53.0548 551.415 53.1666L551.578 53.4509L551.497 53.7659L551.212 53.9286C551.212 53.9286 550.277 53.7051 549.414 53.5019L549.16 53.3189L549.099 52.994L549.292 52.7296C549.292 52.7296 549.434 52.679 549.617 52.679ZM526.23 52.6179L526.412 52.8823L526.351 53.2073L526.077 53.3903C525.955 53.4106 525.823 53.4409 525.691 53.4613C525.549 53.4917 525.406 53.5221 525.264 53.5525C524.909 53.6338 524.431 53.7455 524.431 53.7455L524.116 53.6845L523.923 53.4206C523.913 52.8618 524.248 52.9126 524.248 52.9126C524.624 52.8313 525 52.7498 525.376 52.6685C525.478 52.6482 525.569 52.6283 525.661 52.608C525.854 52.5674 526.026 52.5367 526.23 52.6179ZM544.669 51.785C545.177 51.8561 545.695 51.927 546.203 52.0083L546.539 52.1913L546.61 52.5063C546.559 52.6587 546.549 52.6587 546.437 52.7807C546.437 52.7807 545.38 52.7299 544.466 52.608L544.182 52.4453L544.1 52.1402L544.263 51.856L544.578 51.7746C544.608 51.7746 544.639 51.7749 544.669 51.785ZM531.126 51.7543L531.38 51.9577C531.431 52.1101 531.431 52.1101 531.411 52.2727C531.411 52.2727 531.045 52.5771 530.202 52.6889C529.775 52.7498 529.227 52.7906 529.227 52.7906C529.074 52.7296 529.074 52.7195 528.962 52.5976L528.912 52.4453C528.922 52.2827 528.922 52.2827 528.993 52.1303C528.993 52.1303 529.399 51.9472 529.806 51.8862C530.182 51.8354 530.557 51.785 530.933 51.7443C530.933 51.7443 531.045 51.7441 531.126 51.7543ZM539.559 51.3584C540.087 51.3787 540.626 51.4088 541.154 51.4393L541.469 51.5816C541.743 52.0693 541.428 52.1809 541.428 52.1809L541.124 52.2826C540.981 52.2826 540.849 52.2724 540.707 52.2623C540.179 52.2318 539.447 52.2012 539.447 52.2012C539.285 52.1708 539.285 52.1709 539.153 52.0693L539.031 51.7746L539.173 51.4799L539.468 51.3584C539.498 51.3584 539.528 51.3584 539.559 51.3584ZM536.226 51.3887C536.359 51.4699 536.359 51.4702 536.46 51.6124L536.47 51.9373C536.47 51.9373 536.409 52.0897 536.247 52.171C535.952 52.303 535.617 52.2218 535.272 52.232C534.916 52.2523 534.408 52.2826 534.408 52.2826L534.103 52.171C534.002 52.0389 534.002 52.0386 533.961 51.8862L534.063 51.5717C534.063 51.5717 534.489 51.4291 534.957 51.3986C535.322 51.3884 535.688 51.3686 536.054 51.3584C536.054 51.3584 536.155 51.3785 536.226 51.3887Z" fill="#42424E" fill-opacity="0.6"/>
<path d="M462.159 150.505C503.72 150.505 537.412 116.814 537.412 75.2527C537.412 33.6918 503.72 0 462.159 0C420.598 0 386.906 33.6918 386.906 75.2527C386.906 116.814 420.598 150.505 462.159 150.505Z" fill="url(#paint0_linear)"/>
<path d="M462.334 148.505C503.016 148.505 535.995 115.526 535.995 74.8432C535.995 34.1609 503.016 1.1814 462.334 1.1814C421.651 1.1814 388.672 34.1609 388.672 74.8432C388.672 115.526 421.651 148.505 462.334 148.505Z" fill="#F5F5F5"/>
<path d="M433.382 75.4985C433.382 75.4985 425.031 116.641 420.473 114.362C420.473 114.362 464.433 152.336 503.251 114.362C503.251 114.362 496.414 85.3686 486.544 75.4985H433.382Z" fill="#333333"/>
<path d="M462.426 148.726C476.819 148.749 490.905 144.534 502.919 136.609C500.205 121.778 489.874 120.927 489.874 120.927H432.913C432.913 120.927 423.173 121.726 420.121 135.375C432.504 144.086 447.286 148.751 462.426 148.726Z" fill="#5E5EB1"/>
<path d="M461.609 105.876C479.644 105.876 494.264 91.2558 494.264 73.2206C494.264 55.1854 479.644 40.5649 461.609 40.5649C443.574 40.5649 428.953 55.1854 428.953 73.2206C428.953 91.2558 443.574 105.876 461.609 105.876Z" fill="#333333"/>
<path d="M450.152 102.838H472.938V121.065C472.938 127.306 467.809 132.444 461.568 132.455C455.32 132.455 450.178 127.313 450.178 121.065V102.838H450.152Z" fill="black" fill-opacity="0.1"/>
<path d="M452.302 101.993H470.737C471.93 101.993 472.912 102.975 472.912 104.169V120.221C472.912 126.461 467.783 131.6 461.542 131.61C455.294 131.61 450.152 126.469 450.152 120.221V104.162C450.156 102.981 451.121 102.008 452.302 101.993Z" fill="#BE7C5E"/>
<path d="M450.152 111.441C457.494 114.185 465.581 114.207 472.938 111.505V108.707H450.152V111.441Z" fill="black" fill-opacity="0.1"/>
<path d="M461.609 112.959C479.644 112.959 494.264 98.339 494.264 80.3038C494.264 62.2686 479.644 47.6482 461.609 47.6482C443.574 47.6482 428.953 62.2686 428.953 80.3038C428.953 98.339 443.574 112.959 461.609 112.959Z" fill="#BE7C5E"/>
<path d="M430.367 67.9012H492.639C492.639 67.9012 487.321 42.7585 463.783 44.3624C440.244 45.9663 430.367 67.9012 430.367 67.9012Z" fill="#333333"/>
<path d="M429.519 84.6107C431.198 84.6107 432.558 82.0611 432.558 78.916C432.558 75.7708 431.198 73.2212 429.519 73.2212C427.841 73.2212 426.48 75.7708 426.48 78.916C426.48 82.0611 427.841 84.6107 429.519 84.6107Z" fill="#BE7C5E"/>
<path d="M493.473 84.6107C495.151 84.6107 496.511 82.0611 496.511 78.916C496.511 75.7708 495.151 73.2212 493.473 73.2212C491.794 73.2212 490.434 75.7708 490.434 78.916C490.434 82.0611 491.794 84.6107 493.473 84.6107Z" fill="#BE7C5E"/>
<path d="M430.367 68.7459H492.639C492.639 68.7459 487.321 43.6033 463.783 45.2071C440.244 46.811 430.367 68.7459 430.367 68.7459Z" fill="black" fill-opacity="0.1"/>
<path d="M75.2527 301C116.814 301 150.505 267.308 150.505 225.747C150.505 184.186 116.814 150.495 75.2527 150.495C33.6918 150.495 0 184.186 0 225.747C0 267.308 33.6918 301 75.2527 301Z" fill="url(#paint1_linear)"/>
<path d="M75.4275 299C116.11 299 149.089 266.02 149.089 225.338C149.089 184.656 116.11 151.676 75.4275 151.676C34.7452 151.676 1.76562 184.656 1.76562 225.338C1.76562 266.02 34.7452 299 75.4275 299Z" fill="#F5F5F5"/>
<path d="M116.159 231.96C116.159 259.09 98.4583 289.291 76.6208 289.291C54.7833 289.291 37.1016 259.09 37.1016 231.96C37.1016 204.831 54.8028 191.052 76.6403 191.052C98.4778 191.052 116.159 204.837 116.159 231.96Z" fill="#E39E51"/>
<path d="M75.5133 299.223C89.906 299.247 103.992 295.032 116.007 287.107C113.292 272.275 102.961 271.425 102.961 271.425H46.007C46.007 271.425 36.2668 272.224 33.2148 285.873C45.5959 294.582 60.3757 299.247 75.5133 299.223Z" fill="#D55660"/>
<path d="M63.2461 253.333H86.0317V271.56C86.0317 277.808 80.8901 282.95 74.6421 282.95C68.3941 282.95 63.2526 277.808 63.2526 271.56V253.333H63.2461Z" fill="black" fill-opacity="0.1"/>
<path d="M65.4149 252.488H83.8498C85.0433 252.488 86.0252 253.47 86.0252 254.663V270.715C86.0252 276.963 80.8836 282.105 74.6356 282.105C68.3876 282.105 63.2461 276.963 63.2461 270.715V254.663C63.2461 253.472 64.224 252.491 65.4149 252.488Z" fill="#FDB797"/>
<path d="M63.2461 261.932C70.5876 264.677 78.6746 264.699 86.0317 261.997V259.199H63.2461V261.932Z" fill="black" fill-opacity="0.1"/>
<path d="M74.7025 263.463C92.7377 263.463 107.358 248.842 107.358 230.807C107.358 212.772 92.7377 198.151 74.7025 198.151C56.6673 198.151 42.0469 212.772 42.0469 230.807C42.0469 248.842 56.6673 263.463 74.7025 263.463Z" fill="#FDB797"/>
<path d="M42.6132 235.105C44.2915 235.105 45.6521 232.556 45.6521 229.411C45.6521 226.265 44.2915 223.716 42.6132 223.716C40.9348 223.716 39.5742 226.265 39.5742 229.411C39.5742 232.556 40.9348 235.105 42.6132 235.105Z" fill="#FDB797"/>
<path d="M106.566 235.105C108.245 235.105 109.605 232.556 109.605 229.411C109.605 226.265 108.245 223.716 106.566 223.716C104.888 223.716 103.527 226.265 103.527 229.411C103.527 232.556 104.888 235.105 106.566 235.105Z" fill="#FDB797"/>
<path d="M45.582 213.089C45.582 213.089 64.043 238.355 106.38 229.725C106.38 229.725 111.108 223.972 99.6012 206.31C88.0947 188.648 56.056 191.524 45.582 213.089Z" fill="black" fill-opacity="0.1"/>
<path d="M45.582 212.68C45.582 212.68 64.043 237.947 106.38 229.317C106.38 229.317 111.108 223.564 99.6012 205.901C88.0947 188.239 56.056 191.116 45.582 212.68Z" fill="#E39E51"/>
<path d="M202.456 150.547C244.017 150.547 277.709 116.855 277.709 75.2943C277.709 33.7333 244.017 0.0415039 202.456 0.0415039C160.895 0.0415039 127.203 33.7333 127.203 75.2943C127.203 116.855 160.895 150.547 202.456 150.547Z" fill="#F5F5F5"/>
<path d="M202.723 148.768C217.107 148.786 231.183 144.571 243.19 136.651C240.476 121.82 230.145 120.969 230.145 120.969H173.21C173.21 120.969 163.47 121.768 160.418 135.417C172.801 144.127 187.583 148.792 202.723 148.768Z" fill="#ABD0CF"/>
<path d="M201.98 108.819C221.618 108.819 237.538 92.8989 237.538 73.2606C237.538 53.6224 221.618 37.7024 201.98 37.7024C182.342 37.7024 166.422 53.6224 166.422 73.2606C166.422 92.8989 182.342 108.819 201.98 108.819Z" fill="#F55F44"/>
<path d="M190.449 102.88H213.235V121.107C213.235 127.355 208.093 132.496 201.845 132.496C195.597 132.496 190.456 127.355 190.456 121.107V102.88H190.449Z" fill="black" fill-opacity="0.1"/>
<path d="M192.618 102.035H211.053C212.246 102.035 213.228 103.017 213.228 104.21V120.262C213.228 126.51 208.087 131.652 201.839 131.652C195.591 131.652 190.449 126.51 190.449 120.262V104.21C190.449 103.017 191.431 102.035 192.625 102.035H192.618Z" fill="#FDA57D"/>
<path d="M190.449 111.482C197.791 114.226 205.878 114.249 213.235 111.547V108.748H190.449V111.482Z" fill="black" fill-opacity="0.1"/>
<path d="M201.906 113.009C219.941 113.009 234.561 98.3888 234.561 80.3536C234.561 62.3184 219.941 47.698 201.906 47.698C183.87 47.698 169.25 62.3184 169.25 80.3536C169.25 98.3888 183.87 113.009 201.906 113.009Z" fill="#FDA57D"/>
<path d="M201.826 50.2352C209.085 50.2352 214.969 44.351 214.969 37.0925C214.969 29.8339 209.085 23.9497 201.826 23.9497C194.568 23.9497 188.684 29.8339 188.684 37.0925C188.684 44.351 194.568 50.2352 201.826 50.2352Z" fill="#F55F44"/>
<path d="M201.907 32.7816C206.673 32.7816 210.537 28.9179 210.537 24.1518C210.537 19.3857 206.673 15.522 201.907 15.522C197.141 15.522 193.277 19.3857 193.277 24.1518C193.277 28.9179 197.141 32.7816 201.907 32.7816Z" fill="#F55F44"/>
<path d="M196.245 44.3019C189.877 41.4455 186.838 33.9903 189.394 27.4968C189.303 27.6786 189.212 27.867 189.128 28.0553C188.369 29.7475 187.977 31.5806 187.977 33.4351C187.977 40.6461 193.91 46.5798 201.121 46.5798C206.29 46.5798 210.999 43.5312 213.115 38.815C213.199 38.6266 213.277 38.4383 213.355 38.2435C210.204 44.4727 202.613 47.1604 196.245 44.3019Z" fill="#F55F44"/>
<path d="M178.789 50.6518C178.789 50.6518 192.549 78.5737 231.386 62.3401L222.347 48.1648L206.328 42.4116L178.789 50.6518Z" fill="black" fill-opacity="0.1"/>
<path d="M178.789 50.2351C178.789 50.2351 192.549 78.157 231.386 61.9233L222.347 47.7481L206.328 41.9949L178.789 50.2351Z" fill="#F55F44"/>
<path d="M189.391 40.068C197.858 39.4018 206.365 39.4018 214.832 40.068C223.299 40.7343 196.04 41.8148 189.391 40.068Z" fill="#333333"/>
<path d="M203.706 14.9951C203.053 14.9711 202.399 15.0211 201.758 15.1445H202.258C206.882 15.2925 210.605 19.1367 210.605 23.7632C210.605 27.9022 207.626 31.4859 203.556 32.2417C203.582 32.2417 203.608 32.2424 203.634 32.2424C208.365 32.2424 212.258 28.3489 212.258 23.6184C212.258 18.9172 208.414 15.0373 203.712 14.9951H203.706Z" fill="#F55F44"/>
<path d="M169.109 86.0158C170.788 86.0158 172.148 83.4661 172.148 80.321C172.148 77.1759 170.788 74.6262 169.109 74.6262C167.431 74.6262 166.07 77.1759 166.07 80.321C166.07 83.4661 167.431 86.0158 169.109 86.0158Z" fill="#FDA57D"/>
<path d="M234.476 86.0158C236.155 86.0158 237.515 83.4661 237.515 80.321C237.515 77.1759 236.155 74.6262 234.476 74.6262C232.798 74.6262 231.438 77.1759 231.438 80.321C231.438 83.4661 232.798 86.0158 234.476 86.0158Z" fill="#FDA57D"/>
<path d="M176.672 51.0611L183.042 47.7754L184.477 53.0416L180.574 55.6974L176.672 51.0611Z" fill="#F55F44"/>
<path d="M336.018 301C377.579 301 411.271 267.308 411.271 225.747C411.271 184.186 377.579 150.495 336.018 150.495C294.457 150.495 260.766 184.186 260.766 225.747C260.766 267.308 294.457 301 336.018 301Z" fill="url(#paint2_linear)"/>
<path d="M336.193 298.928C376.875 298.928 409.855 265.948 409.855 225.266C409.855 184.584 376.875 151.604 336.193 151.604C295.511 151.604 262.531 184.584 262.531 225.266C262.531 265.948 295.511 298.928 336.193 298.928Z" fill="#F5F5F5"/>
<path d="M376.759 232.526C376.759 257.032 359.155 269.09 336.292 269.09C313.428 269.09 293.98 257.032 293.98 232.526C293.98 208.019 312.513 188.156 335.37 188.156C358.227 188.156 376.759 208 376.759 232.526Z" fill="#333333"/>
<path d="M336.279 299.218C350.674 299.243 364.762 295.028 376.779 287.101C374.064 272.27 363.733 271.419 363.733 271.419H306.773C306.773 271.419 297.032 272.218 293.98 285.867C306.362 294.576 321.141 299.241 336.279 299.218Z" fill="#42424E"/>
<path d="M324.031 253.311H346.817V271.538C346.817 271.544 346.817 271.551 346.817 271.557C346.817 277.805 341.675 282.947 335.427 282.947C335.419 282.947 335.41 282.947 335.401 282.947C329.153 282.947 324.012 277.805 324.012 271.557V253.311H324.031Z" fill="black" fill-opacity="0.1"/>
<path d="M326.2 252.486H344.635C345.828 252.486 346.81 253.468 346.81 254.662V270.714C346.81 276.962 341.669 282.103 335.421 282.103C335.414 282.103 335.408 282.103 335.401 282.103C329.153 282.103 324.012 276.962 324.012 270.714V254.655C324.012 253.462 324.994 252.48 326.187 252.48L326.2 252.486Z" fill="#FDA57D"/>
<path d="M324.012 261.932C331.353 264.677 339.44 264.699 346.797 261.997V259.199H324.012V261.932Z" fill="black" fill-opacity="0.1"/>
<path d="M335.468 263.454C353.503 263.454 368.124 248.834 368.124 230.799C368.124 212.763 353.503 198.143 335.468 198.143C317.433 198.143 302.812 212.763 302.812 230.799C302.812 248.834 317.433 263.454 335.468 263.454Z" fill="#FDA57D"/>
<path d="M297.867 232.933C297.867 232.933 318.205 230.466 333.581 210.751C333.581 210.751 353.919 233.141 368.087 230.673C368.087 230.673 376.302 222.044 368.087 213.42C359.873 204.797 353.503 193.907 342.62 195.342C331.737 196.778 318.38 197.394 312.633 202.531C306.887 207.667 297.867 232.933 297.867 232.933Z" fill="black" fill-opacity="0.1"/>
<path d="M297.867 232.525C297.867 232.525 318.205 230.057 333.581 210.343C333.581 210.343 353.919 232.732 368.087 230.265C368.087 230.265 376.302 221.635 368.087 213.012C359.873 204.388 353.503 193.499 342.62 194.934C331.737 196.369 318.406 196.96 312.659 202.155C306.913 207.349 297.867 232.525 297.867 232.525Z" fill="#333333"/>
<path d="M302.672 236.469C304.35 236.469 305.711 233.919 305.711 230.774C305.711 227.629 304.35 225.08 302.672 225.08C300.993 225.08 299.633 227.629 299.633 230.774C299.633 233.919 300.993 236.469 302.672 236.469Z" fill="#FDA57D"/>
<path d="M368.039 236.469C369.717 236.469 371.078 233.919 371.078 230.774C371.078 227.629 369.717 225.08 368.039 225.08C366.361 225.08 365 227.629 365 230.774C365 233.919 366.361 236.469 368.039 236.469Z" fill="#FDA57D"/>
<path opacity="0.5" d="M97.3896 11.1881L52.3936 35.5317C52.1133 35.701 51.9414 36.006 51.9414 36.3333C51.9414 36.6917 52.1461 37.0189 52.4676 37.176L60.1382 40.0699C60.5887 40.236 60.9538 40.5771 61.1494 41.0153L67.1182 53.2899C67.2333 53.8325 68.2281 53.9805 68.2445 53.4297L67.332 43.2762C67.3854 42.5248 67.6723 41.8087 68.1541 41.2291L91.4783 18.3736C91.6123 18.2421 91.8039 18.1862 91.9881 18.2256C92.2191 18.2889 92.3811 18.501 92.3811 18.7411C92.3811 18.8504 92.3473 18.9581 92.284 19.0478L72.1662 43.6462C71.7288 44.2447 71.4468 44.9427 71.344 45.6769L70.1355 54.4409C70.2341 55.2055 70.8343 55.5015 71.3194 54.8109L75.6521 49.73C75.8214 49.4875 76.0985 49.3428 76.3936 49.3428C76.5852 49.3428 76.7718 49.4036 76.9264 49.5163L88.0911 57.6472C88.2457 57.7615 88.4331 57.824 88.6255 57.824C89.053 57.824 89.4246 57.5165 89.5052 57.0964L98.6639 12.1336C98.6795 12.067 98.6869 11.9979 98.6869 11.9297C98.6869 11.429 98.275 11.0171 97.7743 11.0171C97.6264 11.0171 97.48 11.0533 97.3485 11.1223L97.3896 11.1881Z" fill="#777783"/>
<path opacity="0.5" d="M722.668 66.178L672.064 67.3062C671.74 67.3291 671.438 67.524 671.27 67.8181C671.086 68.1402 671.092 68.5288 671.284 68.8181L676.299 74.9567C676.595 75.3137 676.73 75.7887 676.671 76.2728L675.434 90.0576C675.254 90.5984 676.02 91.1902 676.317 90.7027L680.75 81.1561C681.18 80.5054 681.79 79.9941 682.496 79.6954L713.975 69.91C714.156 69.8536 714.347 69.8917 714.483 70.0121C714.646 70.1755 714.675 70.4409 714.552 70.6566C714.496 70.7549 714.412 70.8362 714.312 70.8875L684.656 83.7181C683.978 84.0543 683.381 84.5516 682.918 85.1641L677.4 92.4836C677.092 93.2163 677.449 93.7591 678.214 93.3621L684.49 90.7937C684.757 90.6538 685.066 90.6516 685.316 90.7877C685.479 90.876 685.606 91.0168 685.679 91.1893L690.969 103.646C691.041 103.82 691.168 103.963 691.331 104.052C691.693 104.249 692.166 104.144 692.45 103.803L723.262 67.6154C723.31 67.5628 723.351 67.5041 723.386 67.4428C723.643 66.9928 723.505 66.4327 723.081 66.2017C722.956 66.1335 722.813 66.0985 722.666 66.0999L722.668 66.178Z" fill="#777783"/>
<path d="M408.209 65.8828L311.462 57.8937C311.401 57.8876 311.34 57.884 311.277 57.884C310.315 57.884 309.523 58.6759 309.523 59.638C309.523 59.9923 309.631 60.3378 309.831 60.6298L319.031 73.1879C319.572 73.9202 319.799 74.8392 319.662 75.7399L316.4 101.435C316.023 102.408 317.461 103.68 318.048 102.82L327.134 85.7022C327.998 84.563 329.197 83.7229 330.563 83.2993L391.336 71.1797C391.683 71.1139 392.04 71.2226 392.292 71.4691C392.471 71.6576 392.571 71.9084 392.571 72.1689C392.571 72.6074 392.288 72.9985 391.871 73.1353L334.404 91.4024C333.105 91.9181 331.952 92.7424 331.045 93.8053L320.039 106.486C319.408 107.81 320.039 108.889 321.53 108.301L333.693 104.715C334.579 104.381 335.583 104.82 335.938 105.697L345.234 130.199C345.505 130.853 346.146 131.282 346.855 131.282C347.307 131.282 347.741 131.108 348.067 130.796L409.252 68.8557C409.576 68.5277 409.757 68.0849 409.757 67.6244C409.757 66.7396 409.088 65.9863 408.209 65.8828Z" fill="#7D7D88"/>
<path d="M205.647 199.332V200.033C205.649 200.042 205.649 200.05 205.647 200.059V200.341L205.608 200.654C205.608 200.721 205.586 200.791 205.577 200.857V201.02C205.579 201.038 205.579 201.056 205.577 201.073V201.183C205.571 201.219 205.564 201.254 205.555 201.289V201.369C205.555 201.395 205.555 201.461 205.524 201.505L205.497 201.598L205.471 201.708L205.431 201.845V201.885C205.431 201.898 205.405 201.977 205.387 202.021C205.347 202.167 205.299 202.308 205.25 202.462C205.25 202.511 205.215 202.555 205.202 202.599C205.194 202.624 205.183 202.65 205.171 202.674C204.855 203.514 204.421 204.305 203.884 205.024L203.782 205.161C203.526 205.491 203.25 205.805 202.953 206.1L189.042 219.874L175.282 206.113C174.886 205.718 174.525 205.291 174.201 204.834C173.999 204.55 173.813 204.256 173.641 203.952C172.712 202.265 172.302 200.339 172.464 198.419C172.464 198.243 172.499 198.066 172.526 197.89C172.57 197.581 172.627 197.273 172.702 196.968C172.702 196.907 172.729 196.845 172.746 196.783L172.773 196.691V196.633L172.813 196.497C172.843 196.391 172.879 196.285 172.914 196.179C172.949 196.073 172.945 196.082 172.962 196.034C173.033 195.825 173.112 195.622 173.201 195.425L173.253 195.302L173.333 195.121C173.381 195.024 173.425 194.927 173.478 194.834V194.812L173.549 194.684L173.628 194.539C173.659 194.477 173.694 194.415 173.73 194.354L173.783 194.27L173.809 194.221C173.809 194.186 173.849 194.151 173.871 194.116C173.893 194.08 173.924 194.036 173.946 193.997C173.968 193.957 174.06 193.82 174.122 193.736L174.184 193.644L174.263 193.534L174.347 193.423L174.453 193.287L174.545 193.168L174.581 193.128L174.647 193.044L174.757 192.916L174.801 192.863L174.885 192.771C174.911 192.736 174.947 192.705 174.977 192.669C175.008 192.634 175.149 192.484 175.242 192.392L175.348 192.29L175.511 192.132L175.621 192.03L175.753 191.915L175.837 191.845L175.925 191.77L176.097 191.629L176.19 191.558C176.335 191.448 176.485 191.338 176.631 191.232L176.723 191.17L176.812 191.109L176.9 191.056L177.032 190.972L177.094 190.937L177.191 190.879C177.314 190.804 177.442 190.734 177.57 190.668L177.645 190.628L177.764 190.566L177.861 190.518L177.962 190.469L178.059 190.425L178.156 190.381L178.258 190.337L178.659 190.174L178.76 190.139L178.866 190.099L178.963 190.064L179.043 190.037L179.228 189.98L179.325 189.949L179.4 189.927L179.475 189.905L179.611 189.87L179.788 189.826C179.969 189.777 180.154 189.737 180.339 189.707H180.842C181.018 189.684 181.194 189.662 181.375 189.649H182.852L183.293 189.693L183.487 189.72H183.897C184.082 189.751 184.263 189.79 184.448 189.834L184.669 189.892H184.73L184.827 189.918L185.013 189.975L185.092 189.998C185.229 190.042 185.361 190.086 185.493 190.139L185.586 190.169L185.705 190.218L185.886 190.289L186.088 190.377L186.172 190.416L186.282 190.465L186.6 190.624L186.697 190.677L186.922 190.796L187.014 190.853C187.125 190.915 187.235 190.981 187.341 191.051L187.429 191.104L187.614 191.228L187.676 191.272L188.059 191.55C188.087 191.576 188.116 191.599 188.147 191.62L188.324 191.761L188.408 191.836L188.496 191.907L188.624 192.021L188.734 192.123L188.897 192.281C188.936 192.313 188.973 192.347 189.007 192.383C189.039 192.346 189.075 192.312 189.113 192.281L189.276 192.123L189.386 192.021L189.514 191.907L189.602 191.836L189.686 191.761L189.863 191.62C189.894 191.599 189.923 191.576 189.951 191.55L190.392 191.223L190.484 191.162L190.577 191.1L190.665 191.047L190.793 190.963L190.859 190.928L190.952 190.871C191.078 190.794 191.206 190.724 191.335 190.659L191.41 190.619L191.529 190.557L191.626 190.509L191.723 190.46L191.825 190.416L191.922 190.372L192.023 190.328L192.424 190.165L192.526 190.13L192.631 190.09L192.729 190.055L192.808 190.028L192.993 189.971L193.09 189.94L193.165 189.918L193.24 189.896L193.372 189.861L193.549 189.817C193.734 189.77 193.919 189.73 194.104 189.698H194.602C194.783 189.676 194.96 189.654 195.136 189.64H196.613L197.054 189.684C197.12 189.684 197.182 189.684 197.243 189.711H197.658C197.839 189.742 198.024 189.781 198.205 189.826L198.429 189.883H198.491L198.588 189.909L198.773 189.967L198.853 189.989C198.985 190.033 199.122 190.077 199.254 190.13L199.342 190.161L199.461 190.209L199.642 190.28L199.849 190.368L199.929 190.408L200.039 190.456L200.14 190.505L200.237 190.553L200.356 190.615L200.458 190.668L200.678 190.787L200.775 190.844C200.885 190.906 200.991 190.972 201.101 191.042L201.19 191.095L201.278 191.157L201.37 191.219L201.428 191.263C201.56 191.351 201.688 191.444 201.811 191.541L201.904 191.611L202.076 191.752L202.164 191.827L202.248 191.898L202.362 191.999L202.473 192.101L202.534 192.158L202.64 192.259L202.689 192.303L202.746 192.361L202.852 192.471L203.015 192.639C203.046 192.674 203.077 192.705 203.103 192.74L203.257 192.912L203.416 193.102C203.597 193.322 203.769 193.542 203.928 193.789L203.994 193.886L204.06 193.992L204.117 194.08L204.214 194.239L204.298 194.38L204.351 194.473L204.391 194.543L204.426 194.614C204.447 194.646 204.467 194.68 204.483 194.715L204.536 194.826C204.664 195.072 204.779 195.324 204.884 195.579C204.884 195.619 204.915 195.654 204.929 195.69L205.048 196.007C205.048 196.042 205.048 196.073 205.078 196.109C205.109 196.144 205.109 196.197 205.127 196.245C205.141 196.286 205.153 196.327 205.162 196.369L205.189 196.444C205.189 196.483 205.211 196.519 205.22 196.558L205.259 196.699C205.281 196.774 205.299 196.849 205.317 196.924C205.329 196.964 205.339 197.003 205.347 197.043C205.347 197.101 205.374 197.158 205.383 197.215C205.391 197.273 205.383 197.264 205.383 197.286V198.648C205.38 198.678 205.38 198.707 205.383 198.736V199.032C205.383 199.08 205.652 199.235 205.647 199.332Z" fill="#FF6584"/>
<path d="M205.567 199.331V200.033C205.57 200.041 205.57 200.05 205.567 200.059V200.341L205.528 200.654C205.528 200.72 205.506 200.791 205.497 200.857V201.02C205.499 201.038 205.499 201.055 205.497 201.073V201.183C205.492 201.219 205.485 201.254 205.475 201.289V201.368C205.475 201.395 205.475 201.461 205.444 201.505L205.418 201.598L205.391 201.708L205.351 201.845V201.884C205.351 201.898 205.325 201.977 205.307 202.021C205.268 202.167 205.219 202.308 205.171 202.462C205.171 202.51 205.135 202.555 205.122 202.599C205.114 202.624 205.104 202.649 205.091 202.674C205.28 201.902 205.37 201.109 205.36 200.315C205.33 197.018 203.63 193.952 200.85 192.18C200.673 192.065 200.497 191.964 200.316 191.862C197.401 190.268 193.866 190.268 190.951 191.862C190.632 192.038 190.323 192.231 190.025 192.44C189.572 192.761 189.147 193.122 188.755 193.516C188.386 193.147 187.988 192.808 187.565 192.502C187.243 192.269 186.907 192.056 186.56 191.862C183.125 189.968 178.866 190.335 175.806 192.788C175.523 193.017 175.252 193.259 174.995 193.516C174.603 193.906 174.246 194.329 173.928 194.781C173.734 195.055 173.553 195.337 173.39 195.623C173.238 195.894 173.099 196.172 172.975 196.457C172.905 196.615 172.839 196.774 172.781 196.933C172.781 196.871 172.808 196.809 172.825 196.748L172.852 196.655V196.598L172.891 196.461C172.922 196.355 172.958 196.249 172.993 196.144C173.028 196.038 173.024 196.047 173.041 195.998C173.112 195.79 173.191 195.587 173.279 195.39L173.332 195.266L173.412 195.085C173.46 194.988 173.504 194.891 173.557 194.799V194.777L173.628 194.649L173.707 194.503C173.738 194.442 173.773 194.38 173.809 194.318L173.861 194.235L173.888 194.186C173.888 194.151 173.928 194.115 173.95 194.08C173.972 194.045 174.003 194.001 174.025 193.961C174.047 193.921 174.139 193.785 174.201 193.701L174.263 193.608L174.342 193.498L174.426 193.388L174.532 193.251L174.624 193.132L174.66 193.093L174.726 193.009L174.836 192.881L174.88 192.828L174.964 192.735C174.99 192.7 175.025 192.669 175.056 192.634C175.087 192.599 175.228 192.449 175.321 192.356L175.427 192.255L175.59 192.096L175.7 191.995L175.832 191.88L175.916 191.81L176.004 191.735L176.176 191.593L176.269 191.523C176.414 191.413 176.564 191.302 176.71 191.197L176.802 191.135L176.891 191.073L176.979 191.02L177.111 190.937L177.173 190.901L177.27 190.844C177.393 190.769 177.521 190.698 177.649 190.632L177.724 190.593L177.843 190.531L177.94 190.482L178.041 190.434L178.138 190.39L178.235 190.346L178.337 190.302L178.738 190.138L178.839 190.103L178.945 190.064L179.042 190.028L179.122 190.002L179.307 189.944L179.404 189.914L179.479 189.892L179.554 189.87L179.69 189.834L179.867 189.79C180.047 189.742 180.233 189.702 180.418 189.671H180.92C181.097 189.649 181.273 189.627 181.454 189.614H182.931L183.372 189.658L183.566 189.684H183.976C184.161 189.715 184.342 189.755 184.527 189.799L184.748 189.856H184.809L184.906 189.883L185.091 189.94L185.171 189.962C185.308 190.006 185.44 190.05 185.572 190.103L185.665 190.134L185.784 190.183L185.964 190.253L186.167 190.341L186.251 190.381L186.361 190.429L186.679 190.588L186.776 190.641L187.001 190.76L187.093 190.817C187.203 190.879 187.314 190.945 187.42 191.016L187.508 191.069L187.693 191.192L187.755 191.236L188.138 191.514C188.166 191.54 188.195 191.564 188.226 191.585L188.403 191.726L188.487 191.801L188.575 191.871L188.703 191.986L188.813 192.087L188.976 192.246C189.015 192.277 189.052 192.311 189.086 192.347C189.118 192.31 189.154 192.276 189.192 192.246L189.355 192.087L189.465 191.986L189.593 191.871L189.681 191.801L189.765 191.726L189.942 191.585C189.973 191.564 190.002 191.54 190.03 191.514L190.471 191.188L190.563 191.126L190.656 191.064L190.744 191.011L190.872 190.928L190.938 190.892L191.031 190.835C191.157 190.759 191.285 190.688 191.414 190.623L191.489 190.584L191.608 190.522L191.705 190.474L191.802 190.425L191.904 190.381L192.001 190.337L192.102 190.293L192.503 190.13L192.605 190.094L192.71 190.055L192.807 190.019L192.887 189.993L193.072 189.936L193.169 189.905L193.244 189.883L193.319 189.861L193.451 189.825L193.628 189.781C193.813 189.734 193.998 189.694 194.183 189.662H194.681C194.862 189.64 195.038 189.618 195.215 189.605H196.692L197.133 189.649C197.199 189.649 197.261 189.649 197.322 189.676H197.737C197.918 189.706 198.103 189.746 198.284 189.79L198.508 189.847H198.57L198.667 189.874L198.852 189.931L198.932 189.953C199.064 189.997 199.201 190.041 199.333 190.094L199.421 190.125L199.54 190.174L199.721 190.244L199.928 190.332L200.008 190.372L200.118 190.421L200.219 190.469L200.316 190.518L200.435 190.579L200.537 190.632L200.757 190.751L200.854 190.809C200.964 190.87 201.07 190.937 201.18 191.007L201.269 191.06L201.357 191.122L201.449 191.183L201.507 191.228C201.639 191.316 201.767 191.408 201.89 191.505L201.983 191.576L202.155 191.717L202.243 191.792L202.327 191.862L202.441 191.964L202.552 192.065L202.613 192.123L202.719 192.224L202.768 192.268L202.825 192.325L202.931 192.436L203.094 192.603C203.125 192.638 203.156 192.669 203.182 192.705L203.336 192.877L203.495 193.066C203.676 193.287 203.848 193.507 204.007 193.754L204.073 193.851L204.139 193.957L204.196 194.045L204.293 194.204L204.377 194.345L204.43 194.437L204.47 194.508L204.505 194.578C204.526 194.611 204.546 194.645 204.562 194.68L204.615 194.79C204.743 195.037 204.858 195.288 204.963 195.544C204.963 195.584 204.994 195.619 205.007 195.654L205.127 195.972C205.127 196.007 205.127 196.038 205.157 196.073C205.188 196.108 205.188 196.161 205.206 196.21C205.22 196.25 205.232 196.291 205.241 196.333L205.268 196.408C205.268 196.448 205.29 196.483 205.298 196.523L205.338 196.664C205.36 196.739 205.378 196.814 205.395 196.889C205.408 196.928 205.418 196.968 205.426 197.008C205.426 197.065 205.453 197.123 205.462 197.18C205.47 197.237 205.462 197.228 205.462 197.25V198.613C205.459 198.642 205.459 198.671 205.462 198.701V198.996C205.462 199.045 205.572 199.234 205.567 199.331Z" fill="black" fill-opacity="0.1"/>
<path d="M445.36 10.4017L445.475 10.8882C445.478 10.8941 445.479 10.9002 445.479 10.9066L445.526 11.1025L445.552 11.324C445.563 11.3699 445.56 11.4212 445.566 11.4681L445.593 11.5813C445.597 11.5933 445.6 11.6055 445.601 11.618L445.619 11.6945C445.622 11.7199 445.623 11.7451 445.623 11.7703L445.636 11.8254C445.64 11.8438 445.651 11.8897 445.639 11.9236L445.637 11.9907L445.638 12.07L445.635 12.1691L445.642 12.1967C445.644 12.2059 445.64 12.2638 445.636 12.2963C445.635 12.4015 445.627 12.5047 445.622 12.617C445.63 12.6507 445.614 12.685 445.613 12.7171C445.612 12.7357 445.61 12.7542 445.606 12.7724C445.543 13.3896 445.397 13.9852 445.172 14.5418L445.13 14.6476C445.021 14.9046 444.896 15.1519 444.756 15.3885L438.155 26.4437L427.121 18.3727C426.804 18.1414 426.503 17.8834 426.222 17.6014C426.047 17.4261 425.879 17.2418 425.72 17.0496C424.85 15.9782 424.272 14.6859 424.06 13.3358C424.031 13.2134 424.024 13.0873 424.012 12.962C423.989 12.7431 423.975 12.5227 423.973 12.3035C423.963 12.2607 423.969 12.215 423.971 12.1702L423.972 12.1031L423.963 12.0634L423.966 11.9642C423.968 11.8875 423.973 11.8102 423.978 11.733C423.983 11.6558 423.982 11.6624 423.985 11.6268C423.996 11.4745 424.013 11.3252 424.037 11.1789L424.05 11.0875L424.071 10.9535C424.086 10.881 424.098 10.809 424.116 10.739L424.113 10.7237L424.137 10.6274L424.163 10.5179C424.173 10.4717 424.185 10.4251 424.198 10.3784L424.218 10.3146L424.226 10.2781C424.221 10.2536 424.24 10.2249 424.248 10.198C424.257 10.1712 424.269 10.1373 424.277 10.1073C424.284 10.0774 424.321 9.97262 424.346 9.90785L424.37 9.83695L424.403 9.75192L424.438 9.66641L424.483 9.56017L424.522 9.46759L424.538 9.43626L424.567 9.37101L424.616 9.27041L424.635 9.22895L424.673 9.15569C424.685 9.12836 424.702 9.10315 424.716 9.07535C424.73 9.04755 424.795 8.92835 424.839 8.85413L424.89 8.77237L424.967 8.64466L425.021 8.56244L425.086 8.46865L425.128 8.41068L425.172 8.34919L425.258 8.23278L425.306 8.17386C425.38 8.08172 425.458 7.9891 425.533 7.90002L425.582 7.84722L425.628 7.7949L425.676 7.7487L425.746 7.67634L425.78 7.64522L425.832 7.595C425.898 7.52971 425.968 7.46701 426.039 7.40736L426.08 7.37176L426.146 7.31612L426.2 7.27204L426.256 7.22747L426.311 7.18644L426.366 7.1454L426.423 7.10391L426.652 6.94755L426.711 6.91216L426.772 6.87325L426.828 6.83834L426.874 6.81144L426.983 6.75176L427.039 6.71991L427.083 6.69654L427.128 6.67319L427.209 6.63402L427.314 6.58445C427.421 6.53136 427.533 6.4839 427.646 6.44257L427.966 6.38853C428.075 6.35427 428.184 6.32002 428.297 6.2914L429.238 6.1326L429.526 6.11579L429.654 6.11329L429.916 6.06921C430.039 6.07072 430.161 6.07883 430.286 6.08952L430.436 6.1056L430.475 6.09896L430.541 6.10689L430.669 6.12676L430.723 6.13353C430.817 6.14943 430.909 6.16582 431.002 6.18832L431.066 6.19978L431.15 6.22064L431.277 6.25017L431.421 6.28956L431.48 6.3081L431.559 6.3299L431.787 6.40594L431.858 6.43223L432.021 6.49067L432.089 6.5205C432.169 6.55149 432.251 6.58554 432.33 6.62313L432.394 6.65036L432.533 6.71614L432.579 6.7401L432.87 6.89164C432.891 6.90676 432.914 6.9198 432.937 6.93113L433.073 7.01008L433.139 7.0531L433.207 7.09258L433.307 7.15838L433.394 7.21692L433.524 7.30955C433.554 7.3271 433.583 7.34668 433.611 7.36807C433.625 7.33891 433.642 7.31156 433.662 7.28632L433.74 7.15861L433.793 7.07638L433.856 6.98308L433.9 6.92463L433.941 6.8636L434.031 6.74673C434.047 6.72867 434.062 6.70928 434.075 6.68828L434.303 6.41443L434.351 6.36164L434.4 6.30884L434.448 6.26264L434.516 6.19075L434.552 6.15916L434.601 6.10943C434.67 6.04289 434.739 5.98017 434.811 5.9213L434.852 5.8857L434.918 5.83007L434.972 5.78597L435.026 5.74189L435.083 5.70038L435.138 5.65935L435.195 5.61785L435.424 5.46149L435.483 5.42611L435.544 5.3872L435.6 5.35228L435.646 5.32539L435.755 5.2657L435.811 5.23385L435.856 5.21049L435.9 5.18714L435.978 5.14843L436.083 5.09887C436.194 5.04622 436.305 4.99877 436.418 4.95652L436.735 4.90295C436.847 4.86822 436.956 4.83396 437.066 4.80582L438.007 4.64701L438.296 4.63021C438.338 4.6231 438.377 4.61646 438.421 4.62819L438.685 4.58363C438.805 4.58561 438.93 4.59325 439.052 4.60441L439.205 4.62002L439.245 4.61338L439.311 4.62131L439.438 4.64119L439.492 4.64795C439.584 4.66433 439.678 4.68024 439.771 4.70274L439.833 4.71467L439.916 4.73553L440.043 4.76506L440.19 4.80398L440.247 4.82299L440.325 4.8448L440.398 4.86756L440.468 4.89079L440.554 4.92084L440.627 4.94665L440.787 5.00557L440.858 5.03492C440.939 5.06591 441.017 5.10043 441.099 5.13754L441.164 5.16479L441.23 5.19814L441.299 5.23103L441.343 5.25546C441.442 5.30244 441.539 5.35296 441.633 5.40701L441.704 5.44601L441.837 5.52545L441.905 5.568L441.97 5.60794L442.06 5.666L442.147 5.72453L442.196 5.75768L442.28 5.81668L442.318 5.84207L442.364 5.87568L442.45 5.94081L442.581 6.03955C442.607 6.06071 442.631 6.07881 442.654 6.10045L442.781 6.2032L442.913 6.31772C443.064 6.45128 443.21 6.5858 443.352 6.7401L443.41 6.80031L443.47 6.86663L443.521 6.92167L443.609 7.0214L443.685 7.11032L443.734 7.1689L443.771 7.21359L443.805 7.25876C443.824 7.27877 443.842 7.30025 443.858 7.32298L443.91 7.39379C444.032 7.55141 444.147 7.7135 444.256 7.87961C444.263 7.90715 444.288 7.92831 444.303 7.95137L444.431 8.15889C444.437 8.18337 444.442 8.2048 444.467 8.22596C444.493 8.24712 444.501 8.28384 444.52 8.3156C444.536 8.34219 444.55 8.36942 444.563 8.39749L444.592 8.44666C444.599 8.4742 444.619 8.49632 444.631 8.52291L444.679 8.61657C444.706 8.66622 444.729 8.71635 444.753 8.76647C444.767 8.79238 444.78 8.81882 444.792 8.84577C444.802 8.88555 444.828 8.92248 444.843 8.96131C444.858 9.00015 444.851 8.99498 444.855 9.01028L445.079 9.95583C445.082 9.97657 445.087 9.99677 445.093 10.017L445.142 10.2221C445.15 10.2557 445.347 10.3339 445.36 10.4017Z" fill="#FF6584"/>
<path d="M445.963 10.6354L446.08 11.1387C446.083 11.1448 446.084 11.1511 446.084 11.1577L446.131 11.3603L446.158 11.5895C446.169 11.637 446.166 11.6901 446.171 11.7386L446.199 11.8557C446.203 11.8681 446.206 11.8808 446.208 11.8937L446.226 11.9728C446.228 11.9991 446.23 12.0252 446.229 12.0513L446.242 12.1083C446.247 12.1273 446.258 12.1747 446.245 12.2099L446.243 12.2793L446.245 12.3614L446.241 12.464L446.248 12.4925C446.25 12.502 446.246 12.562 446.242 12.5956C446.241 12.7045 446.232 12.8113 446.227 12.9275C446.235 12.9623 446.219 12.9979 446.218 13.0311C446.217 13.0504 446.214 13.0696 446.21 13.0884C446.204 12.5129 446.131 11.9339 445.992 11.3646C445.421 9.00106 443.8 6.99053 441.69 6.03044C441.556 5.96793 441.424 5.91492 441.289 5.86241C439.121 5.04498 436.814 5.44189 435.178 6.91383C435 7.07593 434.83 7.24896 434.671 7.43247C434.428 7.71413 434.211 8.02048 434.022 8.34745C433.719 8.12397 433.403 7.92524 433.076 7.75302C432.826 7.62206 432.572 7.50651 432.313 7.40686C429.756 6.43217 427.037 7.17379 425.451 9.27899C425.304 9.47475 425.168 9.67925 425.043 9.8924C424.852 10.2165 424.69 10.5605 424.558 10.9207C424.477 11.1388 424.406 11.3617 424.347 11.5857C424.293 11.7972 424.249 12.0122 424.216 12.2306C424.197 12.3525 424.18 12.4738 424.169 12.5942C424.159 12.5499 424.166 12.5026 424.167 12.4563L424.169 12.3869L424.159 12.3457L424.162 12.2431C424.165 12.1637 424.17 12.0838 424.175 12.0038C424.181 11.9239 424.179 11.9307 424.183 11.8939C424.194 11.7363 424.212 11.5817 424.236 11.4303L424.25 11.3358L424.272 11.1971C424.287 11.122 424.3 11.0474 424.319 10.975L424.315 10.9591L424.34 10.8594L424.367 10.746C424.377 10.6982 424.39 10.65 424.403 10.6017L424.423 10.5356L424.432 10.4978C424.427 10.4725 424.447 10.4427 424.455 10.4149C424.464 10.3871 424.476 10.352 424.484 10.321C424.492 10.2901 424.529 10.1815 424.556 10.1145L424.581 10.041L424.614 9.95299L424.65 9.86445L424.696 9.75443L424.737 9.65857L424.753 9.62612L424.782 9.55855L424.833 9.45437L424.853 9.41143L424.892 9.33555C424.904 9.30726 424.921 9.28114 424.936 9.25235C424.95 9.22356 425.017 9.10008 425.062 9.02321L425.114 8.93852L425.194 8.80624L425.249 8.72106L425.316 8.62391L425.359 8.56385L425.404 8.50013L425.493 8.37952L425.541 8.31849C425.618 8.22301 425.697 8.12704 425.774 8.03473L425.825 7.98002L425.872 7.92579L425.921 7.87791L425.993 7.80291L426.027 7.77066L426.081 7.71861C426.149 7.65094 426.221 7.58593 426.293 7.52409L426.335 7.48719L426.403 7.42951L426.458 7.38379L426.516 7.33759L426.572 7.29504L426.628 7.25249L426.687 7.20945L426.921 7.04727L426.981 7.01057L427.044 6.9702L427.101 6.93398L427.149 6.90607L427.26 6.84413L427.318 6.81108L427.363 6.78684L427.409 6.7626L427.492 6.72192L427.6 6.67046C427.709 6.61535 427.824 6.56607 427.939 6.52312L428.267 6.46669C428.379 6.43106 428.49 6.39543 428.606 6.36564L429.57 6.19981L429.865 6.18196L429.996 6.17918L430.263 6.13314C430.389 6.1345 430.514 6.1427 430.642 6.15357L430.795 6.16997L430.836 6.16304L430.903 6.17114L431.034 6.1915L431.089 6.19842C431.186 6.21473 431.279 6.23154 431.375 6.25468L431.44 6.26643L431.526 6.28789L431.656 6.31825L431.803 6.35879L431.864 6.37787L431.944 6.40032L432.178 6.47864L432.25 6.50574L432.416 6.56596L432.486 6.59672C432.569 6.62867 432.652 6.66377 432.732 6.70254L432.799 6.73063L432.94 6.79848L432.988 6.8232L433.285 6.97956C433.307 6.99517 433.33 7.00863 433.354 7.02031L433.493 7.10181L433.56 7.14622L433.629 7.18697L433.732 7.25492L433.821 7.31536L433.953 7.411C433.984 7.42912 434.014 7.44934 434.042 7.47144C434.057 7.44123 434.074 7.41289 434.094 7.38675L434.174 7.25447L434.229 7.16929L434.294 7.07262L434.339 7.01207L434.382 6.94886L434.473 6.82775C434.49 6.80904 434.505 6.78895 434.519 6.7672L434.752 6.48345L434.802 6.42873L434.852 6.37402L434.901 6.32613L434.97 6.25163L435.008 6.21888L435.059 6.16734C435.128 6.09836 435.2 6.03335 435.273 5.97232L435.316 5.93541L435.383 5.87772L435.438 5.83202L435.494 5.7863L435.552 5.74326L435.608 5.70072L435.667 5.65767L435.902 5.4955L435.962 5.45879L436.024 5.41842L436.082 5.38221L436.129 5.3543L436.24 5.29236L436.298 5.25931L436.344 5.23507L436.389 5.21082L436.469 5.17065L436.577 5.11919C436.69 5.06453 436.804 5.01525 436.92 4.97135L437.245 4.91541C437.359 4.87929 437.47 4.84366 437.583 4.81436L438.547 4.64853L438.842 4.63069C438.885 4.62326 438.926 4.61633 438.97 4.62839L439.241 4.58186C439.364 4.58373 439.491 4.59142 439.617 4.60278L439.773 4.61869L439.813 4.61176L439.881 4.61986L440.011 4.64022L440.067 4.64715C440.16 4.66395 440.257 4.68026 440.352 4.70339L440.415 4.71565L440.501 4.73711L440.63 4.76746L440.78 4.80751L440.839 4.82709L440.919 4.84954L440.993 4.87297L441.064 4.89691L441.152 4.92786L441.227 4.95445L441.391 5.01518L441.464 5.04544C441.546 5.07738 441.626 5.11299 441.71 5.15126L441.776 5.17935L441.844 5.21377L441.915 5.24769L441.96 5.27291C442.061 5.32137 442.16 5.3735 442.256 5.42928L442.329 5.46953L442.464 5.55153L442.534 5.59544L442.601 5.63668L442.693 5.69663L442.781 5.75705L442.831 5.79128L442.917 5.85221L442.956 5.87842L443.003 5.91313L443.091 5.98039L443.225 6.08237C443.251 6.10423 443.276 6.12292 443.3 6.14528L443.429 6.25141L443.564 6.36972C443.719 6.5077 443.868 6.64667 444.013 6.80612L444.072 6.86834L444.133 6.93689L444.185 6.99377L444.275 7.09684L444.353 7.18873L444.403 7.24927L444.441 7.29546L444.476 7.34215C444.495 7.36284 444.513 7.38503 444.53 7.40852L444.583 7.48172C444.708 7.64464 444.824 7.81221 444.936 7.98394C444.943 8.01243 444.969 8.03429 444.983 8.05813L445.114 8.27269C445.12 8.29801 445.125 8.32016 445.151 8.34202C445.177 8.36388 445.186 8.40187 445.206 8.43471C445.222 8.4622 445.236 8.49035 445.249 8.51939L445.279 8.57024C445.286 8.59873 445.306 8.62158 445.318 8.64908L445.368 8.74592C445.395 8.79726 445.419 8.8491 445.443 8.90093C445.457 8.92772 445.47 8.95508 445.483 8.98294C445.492 9.0241 445.519 9.06227 445.534 9.10244C445.55 9.1426 445.542 9.13726 445.546 9.15309L445.774 10.1313C445.777 10.1527 445.782 10.1736 445.788 10.1946L445.838 10.4067C445.846 10.4415 445.949 10.5652 445.963 10.6354Z" fill="black" fill-opacity="0.1"/>
<defs>
<linearGradient id="paint0_linear" x1="462.159" y1="150.505" x2="462.159" y2="0" gradientUnits="userSpaceOnUse">
<stop stop-color="#808080" stop-opacity="0.12"/>
<stop offset="0.54" stop-color="#808080" stop-opacity="0.06"/>
<stop offset="1" stop-color="#808080" stop-opacity="0.05"/>
</linearGradient>
<linearGradient id="paint1_linear" x1="75.2527" y1="301" x2="75.2527" y2="150.501" gradientUnits="userSpaceOnUse">
<stop stop-color="#808080" stop-opacity="0.12"/>
<stop offset="0.54" stop-color="#808080" stop-opacity="0.06"/>
<stop offset="1" stop-color="#808080" stop-opacity="0.05"/>
</linearGradient>
<linearGradient id="paint2_linear" x1="336.018" y1="301" x2="336.018" y2="150.501" gradientUnits="userSpaceOnUse">
<stop stop-color="#808080" stop-opacity="0.12"/>
<stop offset="0.54" stop-color="#808080" stop-opacity="0.06"/>
<stop offset="1" stop-color="#808080" stop-opacity="0.05"/>
</linearGradient>
</defs>
</svg>
