<svg width="40" height="40" viewBox="0 0 40 40" fill="none" xmlns="http://www.w3.org/2000/svg">
<rect width="40" height="40" rx="20" fill="#FDDCE1"/>
<path d="M30 20C30 25.5228 25.5228 30 20 30C14.4772 30 10 25.5228 10 20C10 14.4772 14.4772 10 20 10C25.5228 10 30 14.4772 30 20Z" fill="#BE1931"/>
<path d="M27.7778 21.1112C27.7778 21.7245 27.28 22.2223 26.6667 22.2223H13.3333C12.72 22.2223 12.2222 21.7245 12.2222 21.1112V18.8889C12.2222 18.2756 12.72 17.7778 13.3333 17.7778H26.6667C27.28 17.7778 27.7778 18.2756 27.7778 18.8889V21.1112Z" fill="white"/>
</svg>
