<svg width="40" height="40" viewBox="0 0 40 40" fill="none" xmlns="http://www.w3.org/2000/svg">
<rect width="40" height="40" rx="20" fill="#FCE9D4"/>
<path d="M10 20H30V25H10V20Z" fill="#F18F26"/>
<path d="M20 29.4444C25.5229 29.4444 30 27.2058 30 24.4443C30 21.6829 25.5229 19.4443 20 19.4443C14.4772 19.4443 10 21.6829 10 24.4443C10 27.2058 14.4772 29.4444 20 29.4444Z" fill="#F18F26"/>
<path d="M20 30C25.5229 30 30 27.7614 30 25C30 22.2386 25.5229 20 20 20C14.4772 20 10 22.2386 10 25C10 27.7614 14.4772 30 20 30Z" fill="#F18F26"/>
<path d="M10 15.5557V24.4446H10.065C10.6183 26.944 14.8533 28.889 20 28.889C25.1467 28.889 29.3817 26.944 29.935 24.4446H30V15.5557H10Z" fill="#9D0522"/>
<path d="M20 21.1113C25.5229 21.1113 30 18.8728 30 16.1113C30 13.3499 25.5229 11.1113 20 11.1113C14.4772 11.1113 10 13.3499 10 16.1113C10 18.8728 14.4772 21.1113 20 21.1113Z" fill="#F18F26"/>
<path d="M20 21.6665C25.5229 21.6665 30 19.4279 30 16.6665C30 13.9051 25.5229 11.6665 20 11.6665C14.4772 11.6665 10 13.9051 10 16.6665C10 19.4279 14.4772 21.6665 20 21.6665Z" fill="#F18F26"/>
<path d="M10 15.5557H10.5556V16.6668H10V15.5557ZM29.4445 15.5557H30V16.6668H29.4445V15.5557Z" fill="#F18F26"/>
<path d="M20 20.5557C25.5229 20.5557 30 18.3171 30 15.5557C30 12.7942 25.5229 10.5557 20 10.5557C14.4772 10.5557 10 12.7942 10 15.5557C10 18.3171 14.4772 20.5557 20 20.5557Z" fill="#FCAB40"/>
<path d="M20 20.0002C25.216 20.0002 29.4445 18.0104 29.4445 15.5558C29.4445 13.1012 25.216 11.1113 20 11.1113C14.784 11.1113 10.5555 13.1012 10.5555 15.5558C10.5555 18.0104 14.784 20.0002 20 20.0002Z" fill="#F5F8FA"/>
<path d="M20 11.6669C25.0167 11.6669 29.1084 13.5091 29.4145 15.8336C29.4267 15.7413 29.4445 15.6497 29.4445 15.5558C29.4445 13.1013 25.2161 11.1113 20 11.1113C14.7839 11.1113 10.5555 13.1013 10.5555 15.5558C10.5555 15.6497 10.5733 15.7413 10.5855 15.8336C10.8917 13.5091 14.9833 11.6669 20 11.6669Z" fill="#FDD888"/>
<path d="M25.8895 11.4439C26.134 11.2605 26.184 10.9105 26.0006 10.6661L25.6673 10.2216C25.484 9.97718 25.134 9.92718 24.8895 10.1105L17.8651 15.6905C17.4351 15.5978 16.8734 15.7366 16.3801 16.1066C15.6434 16.6589 15.3451 17.5044 15.7134 17.9955C16.0817 18.4866 16.9773 18.4366 17.7134 17.8844C18.1773 17.5366 18.4662 17.0728 18.5256 16.6539L25.8895 11.4439ZM29.1495 13.0655L28.8667 12.5872C28.7112 12.3239 28.369 12.2361 28.1056 12.3916L20.3762 17.2533C19.9767 17.175 19.4728 17.2661 19.0028 17.5444C18.2106 18.0128 17.8212 18.8205 18.1334 19.3489C18.4456 19.8772 19.3412 19.9261 20.1334 19.4578C20.6917 19.1278 21.0434 18.63 21.0973 18.1794L28.954 13.8266C29.2173 13.6705 29.3051 13.3283 29.1495 13.0655Z" fill="#AA695B"/>
<path d="M11.1111 25.5555C10.8055 25.5555 10.5555 25.3055 10.5555 24.9999V19.9999C10.5555 19.6943 10.8055 19.4443 11.1111 19.4443C11.4167 19.4443 11.6667 19.6943 11.6667 19.9999V24.9999C11.6667 25.3055 11.4167 25.5555 11.1111 25.5555ZM16.1111 27.7777C15.8056 27.7777 15.5556 27.5277 15.5556 27.2221V22.2221C15.5556 21.9166 15.8056 21.6666 16.1111 21.6666C16.4167 21.6666 16.6667 21.9166 16.6667 22.2221V27.2221C16.6667 27.5277 16.4167 27.7777 16.1111 27.7777ZM22.7778 27.7777C22.4722 27.7777 22.2222 27.5277 22.2222 27.2221V22.2221C22.2222 21.9166 22.4722 21.6666 22.7778 21.6666C23.0833 21.6666 23.3333 21.9166 23.3333 22.2221V27.2221C23.3333 27.5277 23.0833 27.7777 22.7778 27.7777ZM28.8889 25.5555C28.5834 25.5555 28.3334 25.3055 28.3334 24.9999V19.9999C28.3334 19.6943 28.5834 19.4443 28.8889 19.4443C29.1945 19.4443 29.4445 19.6943 29.4445 19.9999V24.9999C29.4445 25.3055 29.1945 25.5555 28.8889 25.5555Z" fill="#DA2F47"/>
</svg>
