<svg width="41" height="41" viewBox="0 0 41 41" fill="none" xmlns="http://www.w3.org/2000/svg">
<rect x="0.0878906" y="0.819336" width="40" height="40" rx="20" fill="#FDDCE1"/>
<path d="M16.2273 13.9572C16.1561 14.0283 16.1021 14.1141 16.057 14.2081L16.052 14.203L8.9274 30.2523L8.93439 30.2593C8.80227 30.5153 9.02332 31.0362 9.47623 31.4897C9.92914 31.9426 10.45 32.1637 10.706 32.0315L10.7124 32.0379L26.7617 24.9127L26.7566 24.907C26.85 24.8625 26.9357 24.8085 27.0075 24.7361C27.9997 23.7439 26.3907 20.5266 23.4147 17.5499C20.4375 14.5733 17.2201 12.965 16.2273 13.9572Z" fill="#DD2E44"/>
<path d="M17.1001 16.8232L9.10653 29.8489L8.9274 30.2523L8.93439 30.2593C8.80227 30.5153 9.02332 31.0362 9.47623 31.4897C9.6236 31.6371 9.77668 31.7489 9.92659 31.8435L19.6409 19.9993L17.1001 16.8232Z" fill="#EA596E"/>
<path d="M23.4534 17.5004C26.4199 20.4681 28.067 23.6315 27.1307 24.5665C26.195 25.5028 23.0316 23.8564 20.0633 20.8899C17.0962 17.9222 15.4497 14.7576 16.3854 13.8219C17.3217 12.8862 20.4851 14.5327 23.4534 17.5004Z" fill="#A0041E"/>
<path d="M20.6446 17.8449C20.5182 17.9472 20.353 18.0005 20.1783 17.9815C19.627 17.9218 19.1633 17.7299 18.8387 17.4269C18.495 17.1061 18.3254 16.6755 18.3718 16.2442C18.4531 15.487 19.2128 14.7921 20.508 14.9318C21.0117 14.9858 21.2366 14.8238 21.2442 14.7463C21.2531 14.6695 21.0683 14.463 20.5645 14.4084C20.0132 14.3487 19.5495 14.1568 19.2242 13.8539C18.8806 13.5331 18.7103 13.1024 18.7574 12.6711C18.8399 11.9139 19.599 11.219 20.8929 11.3594C21.2601 11.3987 21.4538 11.3232 21.5358 11.2742C21.6012 11.2342 21.6272 11.1961 21.6298 11.1739C21.6374 11.097 21.4551 10.8906 20.9501 10.836C20.6014 10.7978 20.3486 10.4853 20.3873 10.1359C20.4248 9.78721 20.7367 9.53503 21.0867 9.57315C22.3806 9.71226 22.9752 10.5526 22.8932 11.3105C22.8106 12.0689 22.0516 12.7626 20.7564 12.6234C20.3892 12.5834 20.1974 12.6596 20.1148 12.7086C20.0494 12.7479 20.0227 12.7867 20.0202 12.8083C20.0119 12.8858 20.1955 13.0916 20.7005 13.1462C21.9944 13.286 22.589 14.1257 22.507 14.8835C22.4251 15.6407 21.666 16.3356 20.3714 16.1952C20.0043 16.1559 19.8112 16.2321 19.7286 16.2804C19.6625 16.321 19.6371 16.3591 19.6346 16.3807C19.6263 16.4576 19.8099 16.664 20.3143 16.7187C20.6624 16.7568 20.9158 17.0699 20.8771 17.4187C20.8593 17.5927 20.771 17.7433 20.6446 17.8449Z" fill="#AA8DD8"/>
<path d="M28.3165 23.7193C29.5698 23.3655 30.4344 23.9245 30.6402 24.6582C30.846 25.3912 30.4001 26.3193 29.1474 26.6718C28.6583 26.809 28.5116 27.0428 28.5313 27.1171C28.5529 27.192 28.8012 27.3153 29.2891 27.1774C30.5417 26.8249 31.4062 27.3839 31.612 28.1169C31.8191 28.8506 31.3719 29.7774 30.1187 30.1305C29.6302 30.2678 29.4828 30.5021 29.5044 30.5765C29.5254 30.6508 29.7731 30.774 30.2616 30.6368C30.5982 30.5422 30.9501 30.7384 31.0448 31.0757C31.1388 31.4137 30.9425 31.7643 30.6046 31.8596C29.3526 32.2121 28.4874 31.6544 28.2803 30.9201C28.0745 30.1871 28.5211 29.2603 29.775 28.9071C30.2641 28.7693 30.4109 28.5362 30.3893 28.4612C30.3689 28.3869 30.1212 28.263 29.6333 28.4002C28.3794 28.7534 27.5155 28.1957 27.3091 27.4607C27.1027 26.7277 27.5492 25.8009 28.8025 25.4471C29.2903 25.3105 29.4371 25.0755 29.4167 25.0018C29.3951 24.9269 29.148 24.8036 28.6596 24.9409C28.3216 25.0361 27.9716 24.8392 27.8763 24.5019C27.7817 24.1653 27.9786 23.8146 28.3165 23.7193Z" fill="#77B255"/>
<path d="M23.4482 22.0063C23.2615 22.0063 23.0773 21.9243 22.9515 21.7681C22.7324 21.4937 22.7775 21.0941 23.0506 20.875C23.1891 20.7638 26.4922 18.1696 31.1604 18.8372C31.5078 18.8867 31.7492 19.2082 31.6997 19.5556C31.6501 19.9025 31.3312 20.1464 30.9806 20.0943C26.8562 19.5086 23.8745 21.8437 23.8453 21.8672C23.7271 21.9612 23.5874 22.0063 23.4482 22.0063Z" fill="#AA8DD8"/>
<path d="M12.4896 19.3633C12.4292 19.3633 12.3676 19.3544 12.3067 19.3366C11.9706 19.2356 11.7801 18.8818 11.8811 18.5458C12.6008 16.1491 13.2531 12.3245 12.4515 11.3272C12.3619 11.2141 12.2266 11.103 11.9166 11.1265C11.3208 11.1722 11.3773 12.4293 11.378 12.442C11.4046 12.792 11.1417 13.0969 10.7923 13.123C10.4372 13.1446 10.1374 12.8867 10.1114 12.5367C10.0459 11.6607 10.3184 9.97357 11.8213 9.85987C12.4921 9.80905 13.0492 10.0422 13.4424 10.5313C14.9485 12.4058 13.4195 17.8401 13.0981 18.911C13.0156 19.1861 12.7627 19.3633 12.4896 19.3633Z" fill="#77B255"/>
<path d="M25.0349 16.1874C25.5611 16.1874 25.9877 15.7608 25.9877 15.2346C25.9877 14.7083 25.5611 14.2817 25.0349 14.2817C24.5086 14.2817 24.082 14.7083 24.082 15.2346C24.082 15.7608 24.5086 16.1874 25.0349 16.1874Z" fill="#5C913B"/>
<path d="M10.1083 21.9046C10.81 21.9046 11.3787 21.3358 11.3787 20.6342C11.3787 19.9326 10.81 19.3638 10.1083 19.3638C9.40668 19.3638 8.83789 19.9326 8.83789 20.6342C8.83789 21.3358 9.40668 21.9046 10.1083 21.9046Z" fill="#9266CC"/>
<path d="M29.4831 22.5399C30.0093 22.5399 30.4359 22.1133 30.4359 21.5871C30.4359 21.0609 30.0093 20.6343 29.4831 20.6343C28.9569 20.6343 28.5303 21.0609 28.5303 21.5871C28.5303 22.1133 28.9569 22.5399 29.4831 22.5399Z" fill="#5C913B"/>
<path d="M23.7653 30.162C24.2915 30.162 24.7181 29.7354 24.7181 29.2092C24.7181 28.6829 24.2915 28.2563 23.7653 28.2563C23.2391 28.2563 22.8125 28.6829 22.8125 29.2092C22.8125 29.7354 23.2391 30.162 23.7653 30.162Z" fill="#5C913B"/>
<path d="M26.622 13.0116C27.3236 13.0116 27.8924 12.4428 27.8924 11.7411C27.8924 11.0395 27.3236 10.4707 26.622 10.4707C25.9204 10.4707 25.3516 11.0395 25.3516 11.7411C25.3516 12.4428 25.9204 13.0116 26.622 13.0116Z" fill="#FFCC4D"/>
<path d="M29.4831 15.5531C30.0093 15.5531 30.4359 15.1265 30.4359 14.6003C30.4359 14.0741 30.0093 13.6475 29.4831 13.6475C28.9569 13.6475 28.5303 14.0741 28.5303 14.6003C28.5303 15.1265 28.9569 15.5531 29.4831 15.5531Z" fill="#FFCC4D"/>
<path d="M27.5739 18.0931C28.1001 18.0931 28.5267 17.6665 28.5267 17.1403C28.5267 16.6141 28.1001 16.1875 27.5739 16.1875C27.0477 16.1875 26.6211 16.6141 26.6211 17.1403C26.6211 17.6665 27.0477 18.0931 27.5739 18.0931Z" fill="#FFCC4D"/>
<path d="M13.5969 25.0804C14.1231 25.0804 14.5497 24.6539 14.5497 24.1276C14.5497 23.6014 14.1231 23.1748 13.5969 23.1748C13.0706 23.1748 12.644 23.6014 12.644 24.1276C12.644 24.6539 13.0706 25.0804 13.5969 25.0804Z" fill="#FFCC4D"/>
</svg>
