<svg width="40" height="40" viewBox="0 0 40 40" fill="none" xmlns="http://www.w3.org/2000/svg">
<rect width="40" height="40" rx="20" fill="#FFF7E6"/>
<path d="M27.7778 10H15.5556C14.3283 10 13.3333 10.995 13.3333 12.2222V25.5556H12.2222C10.995 25.5556 10 26.5506 10 27.7778C10 29.005 10.995 30 12.2222 30H25.5556C26.7828 30 27.7778 29.005 27.7778 27.7778V14.4444C29.005 14.4444 30 13.4494 30 12.2222C30 10.995 29.005 10 27.7778 10Z" fill="#FFD983"/>
<path d="M14.4445 15.5553H27.7778V14.4442H15.5556L14.4445 13.8887V15.5553Z" fill="#E39F3D"/>
<path d="M15.5556 10C14.3283 10 13.3333 10.995 13.3333 12.2222V25.8639C13.0056 25.6728 12.6289 25.5556 12.2222 25.5556C10.995 25.5556 10 26.5506 10 27.7778C10 29.005 10.995 30 12.2222 30C13.4494 30 14.4444 29.005 14.4444 27.7778V14.1361C14.7722 14.3272 15.1489 14.4444 15.5556 14.4444C16.7828 14.4444 17.7778 13.4494 17.7778 12.2222C17.7778 10.995 16.7828 10 15.5556 10Z" fill="#FFE8B6"/>
<path d="M16.6667 12.2224C16.6667 12.8358 16.1689 13.3336 15.5556 13.3336C14.9422 13.3336 14.4444 12.8358 14.4444 12.2224C14.4444 11.6091 14.9422 11.1113 15.5556 11.1113C16.1689 11.1113 16.6667 11.6091 16.6667 12.2224ZM13.3333 27.778C13.3333 28.3913 12.8356 28.8891 12.2222 28.8891C11.6089 28.8891 11.1111 28.3913 11.1111 27.778C11.1111 27.1647 11.6089 26.6669 12.2222 26.6669C12.8356 26.6669 13.3333 27.1647 13.3333 27.778ZM26.6667 18.3336C26.6667 18.6402 26.4183 18.8891 26.1111 18.8891H16.1111C15.8044 18.8891 15.5556 18.6402 15.5556 18.3336C15.5556 18.0269 15.8044 17.778 16.1111 17.778H26.1111C26.4183 17.778 26.6667 18.0269 26.6667 18.3336ZM26.6667 20.5558C26.6667 20.863 26.4183 21.1113 26.1111 21.1113H16.1111C15.8044 21.1113 15.5556 20.863 15.5556 20.5558C15.5556 20.2486 15.8044 20.0002 16.1111 20.0002H26.1111C26.4183 20.0002 26.6667 20.2486 26.6667 20.5558ZM26.6667 22.778C26.6667 23.0852 26.4183 23.3336 26.1111 23.3336H16.1111C15.8044 23.3336 15.5556 23.0852 15.5556 22.778C15.5556 22.4708 15.8044 22.2224 16.1111 22.2224H26.1111C26.4183 22.2224 26.6667 22.4708 26.6667 22.778ZM26.6667 25.0002C26.6667 25.3074 26.4183 25.5558 26.1111 25.5558H16.1111C15.8044 25.5558 15.5556 25.3074 15.5556 25.0002C15.5556 24.693 15.8044 24.4447 16.1111 24.4447H26.1111C26.4183 24.4447 26.6667 24.693 26.6667 25.0002Z" fill="#C1694F"/>
</svg>
